<svg width="720" height="1024" viewBox="0 0 720 1024" fill="none" xmlns="http://www.w3.org/2000/svg">
<path d="M552.576 706H550.296L548.88 702.448H540.912L539.496 706H537.216L543.648 689.992H546.12L552.576 706ZM548.28 700.672L544.896 692.056L541.488 700.672H548.28ZM557.267 702.856C557.587 703.368 558.067 703.8 558.707 704.152C559.363 704.504 560.035 704.68 560.723 704.68C561.875 704.68 562.787 704.264 563.459 703.432C564.131 702.6 564.467 701.528 564.467 700.216C564.467 698.904 564.131 697.832 563.459 697C562.787 696.152 561.875 695.728 560.723 695.728C560.035 695.728 559.363 695.912 558.707 696.28C558.067 696.632 557.587 697.072 557.267 697.6V702.856ZM557.267 706H555.467V689.992H557.267V696.16C558.275 694.8 559.579 694.12 561.179 694.12C562.699 694.12 563.939 694.68 564.899 695.8C565.859 696.904 566.339 698.376 566.339 700.216C566.339 702.072 565.859 703.552 564.899 704.656C563.955 705.744 562.715 706.288 561.179 706.288C559.563 706.288 558.259 705.616 557.267 704.272V706ZM579.766 706H577.966V704.368C577.486 704.912 576.878 705.368 576.142 705.736C575.422 706.104 574.654 706.288 573.838 706.288C571.374 706.288 570.142 705.056 570.142 702.592V694.408H571.942V702.04C571.942 703 572.158 703.68 572.59 704.08C573.038 704.48 573.686 704.68 574.534 704.68C575.206 704.68 575.854 704.512 576.478 704.176C577.118 703.84 577.614 703.424 577.966 702.928V694.408H579.766V706ZM596.832 706H591.36V689.992H596.832C599.28 689.992 601.256 690.752 602.76 692.272C604.28 693.792 605.04 695.704 605.04 698.008C605.04 700.328 604.28 702.24 602.76 703.744C601.256 705.248 599.28 706 596.832 706ZM596.832 704.224C598.72 704.224 600.216 703.632 601.32 702.448C602.424 701.264 602.976 699.784 602.976 698.008C602.976 696.216 602.432 694.728 601.344 693.544C600.256 692.36 598.752 691.768 596.832 691.768H593.352V704.224H596.832ZM618.61 706H616.81V698.368C616.81 697.408 616.586 696.728 616.138 696.328C615.69 695.928 615.042 695.728 614.194 695.728C613.538 695.728 612.89 695.904 612.25 696.256C611.626 696.608 611.13 697.032 610.762 697.528V706H608.962V689.992H610.762V696.088C611.21 695.56 611.81 695.104 612.562 694.72C613.314 694.32 614.098 694.12 614.914 694.12C617.378 694.12 618.61 695.352 618.61 697.816V706ZM632.123 706H630.323V704.68C629.347 705.752 628.067 706.288 626.483 706.288C625.411 706.288 624.467 705.944 623.651 705.256C622.835 704.568 622.427 703.632 622.427 702.448C622.427 701.232 622.827 700.296 623.627 699.64C624.443 698.968 625.395 698.632 626.483 698.632C628.131 698.632 629.411 699.16 630.323 700.216V698.128C630.323 697.36 630.051 696.76 629.507 696.328C628.963 695.896 628.259 695.68 627.395 695.68C626.035 695.68 624.851 696.216 623.843 697.288L623.003 696.04C624.235 694.76 625.779 694.12 627.635 694.12C628.963 694.12 630.043 694.44 630.875 695.08C631.707 695.72 632.123 696.704 632.123 698.032V706ZM627.131 704.992C628.571 704.992 629.635 704.512 630.323 703.552V701.368C629.635 700.408 628.571 699.928 627.131 699.928C626.299 699.928 625.611 700.168 625.067 700.648C624.539 701.112 624.275 701.72 624.275 702.472C624.275 703.208 624.539 703.816 625.067 704.296C625.611 704.76 626.299 704.992 627.131 704.992ZM638.401 702.856C638.721 703.368 639.201 703.8 639.841 704.152C640.497 704.504 641.169 704.68 641.857 704.68C643.009 704.68 643.921 704.264 644.593 703.432C645.265 702.6 645.601 701.528 645.601 700.216C645.601 698.904 645.265 697.832 644.593 697C643.921 696.152 643.009 695.728 641.857 695.728C641.169 695.728 640.497 695.912 639.841 696.28C639.201 696.632 638.721 697.072 638.401 697.6V702.856ZM638.401 706H636.601V689.992H638.401V696.16C639.409 694.8 640.713 694.12 642.313 694.12C643.833 694.12 645.073 694.68 646.033 695.8C646.993 696.904 647.473 698.376 647.473 700.216C647.473 702.072 646.993 703.552 646.033 704.656C645.089 705.744 643.849 706.288 642.313 706.288C640.697 706.288 639.393 705.616 638.401 704.272V706ZM652.164 692.752C651.844 692.752 651.564 692.64 651.324 692.416C651.084 692.176 650.964 691.888 650.964 691.552C650.964 691.216 651.084 690.928 651.324 690.688C651.564 690.448 651.844 690.328 652.164 690.328C652.5 690.328 652.788 690.448 653.028 690.688C653.268 690.928 653.388 691.216 653.388 691.552C653.388 691.888 653.268 692.176 653.028 692.416C652.788 692.64 652.5 692.752 652.164 692.752ZM653.076 706H651.276V694.408H653.076V706Z" fill="#061B2B"/>
</svg>
