<svg id="Ebene_1" data-name="Ebene 1" xmlns="http://www.w3.org/2000/svg" viewBox="0 0 350 120"><defs><style>.cls-1{fill:#fff;}</style></defs><title>Clients_Logos</title><path id="path4846" class="cls-1" d="M341.27,61.19v-1.7a12,12,0,0,1-2.76.91c-2.08.45-2.72,1.06-2.72,2.19s1.06,1.85,2.23,1.85a3,3,0,0,0,3.25-3.25m.3,4.76h-.08c-1.24,1.7-3.21,2.72-6.15,2.72-3.7,0-6.42-2-6.42-5.78,0-4.27,3.29-5.51,7-5.93,4.07-.45,5.17-.94,5.17-2.15S340.59,53,339,53a2.37,2.37,0,0,0-2.53,2.3h-6.76c.15-3.81,3.1-6.94,9.14-6.94a11.92,11.92,0,0,1,7,1.77c1.59,1.25,2.31,2.72,2.31,5.29v7.29c0,1.24.49,1.36,1.21,1.24h.11v4a9,9,0,0,1-3.14.57c-2.87,0-4.34-.79-4.79-2.57m-21.49-17h7.14V68.18h-7.14Zm0-7.74h7.14v5.4h-7.14ZM310.57,58.4c0-2.76-1.44-4.95-3.55-4.95s-3.48,2-3.48,4.95,1.36,5,3.48,5,3.55-2.23,3.55-5m-14.28.11c0-6,3.48-10.19,8.61-10.19A6,6,0,0,1,310.27,51h.11V41.18h7.13v27h-6.79V65.5h-.08A6.36,6.36,0,0,1,305,68.82c-5,0-8.69-3.66-8.69-10.31m-14.72-2h6.64c-.3-2.15-1.51-3.44-3.21-3.44-2,0-3.06,1.33-3.43,3.44m-7,2a9.91,9.91,0,0,1,10.27-10.23,10.1,10.1,0,0,1,7.1,2.6c2.34,2.16,3.44,5.59,3.36,9.41H281.57c.41,2.22,1.62,3.58,3.77,3.58A2.85,2.85,0,0,0,288,62.44h6.91a8.06,8.06,0,0,1-3.66,4.64,10.79,10.79,0,0,1-6.15,1.63c-6.31,0-10.54-4.31-10.54-10.2M243.46,41.18h10.27l4.16,15.1H258l4.16-15.1h10.34v27h-7.13V51.26h-.08l-4.49,16.92H255l-4.49-16.92h-.08V68.18h-6.95v-27Zm-15.59,20v-1.7a12,12,0,0,1-2.76.91c-2.07.45-2.72,1.06-2.72,2.19s1.06,1.85,2.23,1.85a3,3,0,0,0,3.25-3.25m.3,4.76h-.08c-1.24,1.7-3.21,2.72-6.15,2.72-3.7,0-6.42-2-6.42-5.78,0-4.27,3.28-5.51,7-5.93,4.07-.45,5.17-.94,5.17-2.15s-.49-1.85-2-1.85a2.37,2.37,0,0,0-2.53,2.3h-6.76c.15-3.81,3.1-6.94,9.14-6.94a12,12,0,0,1,7,1.77c1.58,1.25,2.3,2.72,2.3,5.29v7.29c0,1.24.49,1.36,1.21,1.24h.11v4a9,9,0,0,1-3.13.57c-2.87,0-4.35-.79-4.8-2.57m-21.3-7.55c0-2.76-1.43-4.95-3.55-4.95s-3.47,2-3.47,4.95,1.36,5,3.47,5,3.55-2.23,3.55-5m-14.27.11c0-6,3.47-10.19,8.61-10.19A6,6,0,0,1,206.57,51h.11V41.18h7.14v27H207V65.5H207a6.39,6.39,0,0,1-5.67,3.32c-5,0-8.68-3.66-8.68-10.31m-7.86-6.68h.12a6.36,6.36,0,0,1,5.85-3.32,2.86,2.86,0,0,1,1.17.18v6.08h-.15c-4.19-.71-6.65,1.17-6.65,5.52v7.89H178V48.92h6.79ZM168.58,68.18V65.69h-.11a7,7,0,0,1-6,3.09c-4.6,0-6.87-3-6.87-7.44V48.92h7.14V59.65c0,2,.86,3.05,2.56,3.05,1.85,0,3-1.32,3-3.39V48.92h7.14V68.18Zm-25-6.19a2.6,2.6,0,0,0,2.87-2.65c0-1.73-1.28-2.6-2.91-2.6H138V62Zm-.72-10.31c1.51,0,2.53-.72,2.53-2.16s-1-2.22-2.56-2.22H138v4.38Zm-12.65-10.5h14a9.65,9.65,0,0,1,6,1.74,6.5,6.5,0,0,1,2.56,5.32,5.11,5.11,0,0,1-3.36,5.18v.11A6.53,6.53,0,0,1,154.08,60a7.53,7.53,0,0,1-3.1,6.46,11.1,11.1,0,0,1-6.53,1.7H130.21v-27Zm-21,7.74h2.49V42.69h7v6.23h3.67v4.31h-3.67V61c0,1.93,1.36,2,3.59,1.82V68.1a14.33,14.33,0,0,1-3.51.46c-4.68,0-7.06-1.33-7.06-5.93v-9.4h-2.49V48.92Zm-8.2,2.91h.12A6.36,6.36,0,0,1,107,48.51a2.83,2.83,0,0,1,1.17.18v6.08h-.15c-4.19-.71-6.65,1.17-6.65,5.52v7.89H94.26V48.92h6.8v2.91ZM78.74,56.51h6.65c-.3-2.15-1.51-3.44-3.21-3.44-2,0-3.06,1.33-3.44,3.44m-7,2A9.91,9.91,0,0,1,82,48.28a10.12,10.12,0,0,1,7.1,2.6c2.34,2.16,3.43,5.59,3.36,9.41H78.74c.42,2.22,1.63,3.58,3.78,3.58a2.85,2.85,0,0,0,2.68-1.43h6.91a8.06,8.06,0,0,1-3.66,4.64,10.83,10.83,0,0,1-6.16,1.63c-6.3,0-10.53-4.31-10.53-10.2m-8.23-.07c0-3-1.18-4.95-3.33-4.95s-3.62,2.15-3.62,4.95S58,63.38,60.2,63.38s3.33-1.92,3.33-4.94m-7,7.25H56.5v2.49H49.7v-27h7.14v9.74H57a6.62,6.62,0,0,1,5.66-2.6c5.17,0,8.16,4.6,8.16,10.19,0,6.57-3.14,10.31-8.24,10.31a6.59,6.59,0,0,1-6-3.13M40.34,68.18V65.69h-.11a7,7,0,0,1-6,3.09c-4.61,0-6.87-3-6.87-7.44V48.92h7.14V59.65c0,2,.86,3.05,2.56,3.05,1.85,0,3-1.32,3-3.39V48.92h7.14V68.18Zm-23.64-27v9.89H8.39V41.18H.5v27H8.39V57.61H16.7V68.18h7.89v-27Z"/></svg>