<svg id="Ebene_1" data-name="Ebene 1" xmlns="http://www.w3.org/2000/svg" viewBox="0 0 350 120"><defs><style>.cls-1,.cls-2{fill:#fff;}.cls-1{opacity:0.5;}</style></defs><title>_Client_</title><path id="path6075" class="cls-1" d="M161.72,62.14a7.48,7.48,0,0,1-3.41-.68c-4.31-2.23-7.73-13-7.67-24.05,0-7.22,4.6-11.2,11.46-11.2a28.17,28.17,0,0,1,12.59,3.52c13.26,6.85,16.67,17.61,7.67,24.06-7.14,5.12-15.38,8.35-20.64,8.35m-1.68-47a16.76,16.76,0,0,0-5.27.76c-6,1.83-8.32,7.4-7.86,15.14s2.86,15.75,4.64,21.58c1.95,5.93,3.29,9.66,5.72,10.91a5.54,5.54,0,0,0,2.6.55c2.33,0,5.45-.91,9.62-2.19,5.78-1.93,13.71-4.62,20.29-8.72s9.75-9.25,7.79-15.17c-1.78-5.83-8.69-12.45-18.16-17.33-7-3.6-13.89-5.53-19.37-5.53M136,8.44c-3.4,4.44-3.49,11.74-1.22,20.78C138,42,143.45,54.84,146,63.43c2.94,8.8,3,13.31,4.11,13.9a.82.82,0,0,0,.4.08c1.5,0,5.29-2.35,13.3-4.77,8.49-2.89,22.17-5.87,34.4-10.65,8.62-3.37,14.5-7.63,16.2-12.93-2.74,3.7-7.74,6.81-14.35,9.4-12.24,4.77-25.91,7.76-34.4,10.64-8,2.43-11.79,4.79-13.3,4.79a1,1,0,0,1-.41-.09c-1.14-.59-1.16-5.1-4.11-13.9-2.56-8.59-8-21.47-11.23-34.21-1.74-7-2.09-12.87-.62-17.25"/><path id="path6089" class="cls-1" d="M150.58,0a21.32,21.32,0,0,0-6.8,1A11.15,11.15,0,0,0,136,8.44a11.42,11.42,0,0,1,5.94-3.94,21.39,21.39,0,0,1,6.81-1c8.9,0,21.31,3.72,34.13,10.34,16.57,8.55,28.8,19.37,31.35,28a11.32,11.32,0,0,1,.19,7.23,11.14,11.14,0,0,0,1.65-10.76c-2.55-8.59-14.78-19.4-31.34-27.95C171.9,3.72,159.47,0,150.58,0"/><path id="path6091" class="cls-2" d="M159.87,64.05a5.54,5.54,0,0,1-2.6-.55c-2.43-1.25-3.77-5-5.72-10.91-1.78-5.83-4.18-13.85-4.64-21.58s1.9-13.31,7.86-15.14a16.76,16.76,0,0,1,5.27-.76c5.48,0,12.41,1.93,19.37,5.53,9.47,4.88,16.38,11.5,18.16,17.33,2,5.92-1.22,11.07-7.79,15.17s-14.51,6.79-20.29,8.72c-4.17,1.28-7.29,2.19-9.62,2.19M148.75,3.53a21.39,21.39,0,0,0-6.81,1A11.42,11.42,0,0,0,136,8.44c-1.47,4.38-1.12,10.3.62,17.25,3.18,12.74,8.67,25.62,11.23,34.21,3,8.8,3,13.31,4.11,13.9a1,1,0,0,0,.41.09c1.51,0,5.29-2.36,13.3-4.79,8.49-2.88,22.16-5.87,34.4-10.64,6.61-2.59,11.61-5.7,14.35-9.4a11.32,11.32,0,0,0-.19-7.23c-2.55-8.59-14.78-19.41-31.35-28C170.06,7.25,157.65,3.53,148.75,3.53"/><path id="path6051" class="cls-2" d="M204.41,86.17s0-.11,0-.2,0-.15,0-.15l-.31.17-.9.5-.88.4c-.11,0-.25.12-.27.78v7.88h-6.72V88.62a3,3,0,0,0-.77-2.3,3.19,3.19,0,0,0-2.42-.64,17.44,17.44,0,0,0-10.64,3.67l-.88,1-.3.39-.18-.46a4.77,4.77,0,0,0-.91-1.44l-.29-.32-.24-.21c0,.32.1,1.09.1,2.13v5H175V78.21c0-.28,0-.37,0-.38l-.32.18-.89.5-.88.4c-.12,0-.28.12-.28.92V95.31a2.37,2.37,0,0,0,.45,1.86,2.16,2.16,0,0,0,2,.89h3.63v.26a16.3,16.3,0,0,1-.71,3.52L178,102a7.25,7.25,0,0,0,.92-.71,9.32,9.32,0,0,0,1.76-3l.06-.17h21.06a2.91,2.91,0,0,0,1.72-.42c.71-.53.94-.94.94-2.36v-9.1m-11.49,9.27H181.11v-.18c0-.07.74-6.71,10.25-7a1.45,1.45,0,0,1,1.12.41,1.88,1.88,0,0,1,.43,1.3Z"/><path id="path6053" class="cls-2" d="M154.9,95.38V89.84c0-.8.16-.88.28-.93l.88-.4,1.17-.65a1.84,1.84,0,0,1,0,.34v7.72a2.29,2.29,0,0,1-.73,1.59,2.44,2.44,0,0,1-1.81.59h-13A4.14,4.14,0,0,1,138.32,96a5.91,5.91,0,0,1-.76-3,9.09,9.09,0,0,1,.38-2.53,2.65,2.65,0,0,1,.51-1.09c0,.08,0,.14,0,.25a15,15,0,0,0,.93,3.72c1,2.36,4.08,2.2,4.11,2.19H154.9Zm2.47-7.85h0Z"/><path id="path6055" class="cls-2" d="M166.41,80.39V80.3c0-.8.15-.88.28-.93l.88-.4,1.16-.64a1.07,1.07,0,0,1,0,.33V87.6c0,8-3.72,10.34-4,10.51H161.2a13.1,13.1,0,0,0,3.07-2.77l.06-.08v-.15l-4.21-9.38a7.33,7.33,0,0,1-.59-2.79,3.9,3.9,0,0,1,1.21-3l0,.21a11.15,11.15,0,0,0,.93,3.72s2.59,5,3.61,7.44l.3.94.17.51.16-.5.08-.26a8.7,8.7,0,0,0,.41-2.32h0v-.27h0V80.39M168.89,78Z"/><path id="path6057" class="cls-2" d="M145.82,113.61l-7.72.79c.3,2.44,2.12,3.35,4.06,3.36h5a1.1,1.1,0,0,1,1.17,1.15v1h-6.18c-3.44,0-6.34-2.24-6.34-6.83a6.3,6.3,0,0,1,6.63-6.57,5.62,5.62,0,0,1,5.67,4.27c.38,1.57-.47,2.64-2.25,2.84m-1.42-1.76a2.31,2.31,0,0,0,1.31-.41,1,1,0,0,0,0-1,3.55,3.55,0,0,0-3.39-1.92,4,4,0,0,0-4.27,4.08l6.3-.71"/><path id="path6059" class="cls-2" d="M172.8,106.5c.74,0,1.26.34,1.26,1.08s-.52,1.07-1.26,1.07h-5.38c-1.13.09-1.27,1.22-1.18,1.93a.92.92,0,0,0,.29.55,3.55,3.55,0,0,0,1.6.51l4.09.72c2.16.39,3,1.49,3,3.43,0,3-1.86,4.14-4.78,4.14h-6.8v-1.08c0-.73.5-1.07,1.26-1.07h5.38c2.11,0,2.65-.65,2.64-1.8s-.29-1.44-1.69-1.67l-4.15-.69c-2.1-.34-3-1.44-3.13-2.85-.16-2.07.69-4.27,3.53-4.27Z"/><path id="path6061" class="cls-2" d="M187.62,111.22c0-2.33-.63-4.72-4.1-4.72h-4.85c-.77,0-1.27.34-1.27,1.07s.5,1.08,1.27,1.08h4.51c1.6,0,2.13.37,2.13,1.5v.34c-.09.69-.87.85-1.26.94-3.25.77-7.62-.07-7.62,4.6,0,2.49,2.13,4,5,4,0,0,2.93.14,4-1.32a1.09,1.09,0,0,0,0,.12c.07.74.42,1.13,1.17,1.13h1Zm-2.31,3.89c0,2.29-1.29,3.1-3.47,3.1-2,0-3.1-.71-3.1-2.29a2.33,2.33,0,0,1,2.19-2.13c1.19-.22,3-.3,4.38-.61Z"/><path id="path6063" class="cls-2" d="M205.17,111.22c0-2.33-.63-4.72-4.1-4.72h-4.86c-.76,0-1.26.34-1.26,1.07s.5,1.08,1.26,1.08h4.52c1.6,0,2.13.37,2.13,1.5v.34c-.1.69-.87.85-1.26.94-3.25.77-7.62-.07-7.62,4.6,0,2.49,2.13,4,5,4,0,0,2.93.14,4-1.32a1.09,1.09,0,0,0,0,.12c.07.74.42,1.13,1.17,1.13h1Zm-2.31,3.89c0,2.29-1.29,3.1-3.47,3.1-2,0-3.1-.71-3.1-2.29a2.33,2.33,0,0,1,2.19-2.13c1.19-.22,3-.3,4.38-.61Z"/><path id="path6065" class="cls-2" d="M192.2,102.86h-1.3a.92.92,0,0,0-1,1v16h2.32Z"/><path id="path6067" class="cls-2" d="M155.83,117.92c-1.76,0-2.42-.08-2.42-1.36v-7.91h2.05c.73,0,1.26-.34,1.26-1.07s-.53-1.08-1.26-1.08h-2.05v-3.56h-1l-.49,0a.92.92,0,0,0-.84,1v2.53h-.63c-.73,0-1.26.34-1.26,1.08s.53,1.07,1.26,1.07h.63v8.4c0,2.83,2,2.87,4.73,2.87h1.36V119c0-.65-.53-1.07-1.36-1.07"/><path id="path6069" class="cls-2" d="M213,117.92c-1.76,0-2.41-.08-2.41-1.36v-7.91h2c.74,0,1.26-.34,1.26-1.07s-.52-1.08-1.26-1.08h-2v-3.56h-1l-.48,0a.91.91,0,0,0-.84,1v2.53h-.63c-.73,0-1.26.34-1.26,1.08s.53,1.07,1.26,1.07h.63v8.4c0,2.83,2,2.87,4.72,2.87h1.37s0-.63,0-.93c0-.65-.52-1.07-1.36-1.07"/><path id="path6071" class="cls-2" d="M161.5,119.93V106.51H160.2a.91.91,0,0,0-1,1v12.4Z"/><path id="path6073" class="cls-2" d="M160.08,105.49c.56,0,.86,0,1.17-.28a1.48,1.48,0,0,0,.25-1.09c0-.27,0-1.18,0-1.18h-1.3a.9.9,0,0,0-1,1c0,.18,0,1.52,0,1.52h.91"/><path id="path6093" class="cls-2" d="M208.39,93V80.28c0-.8.16-.87.28-.93l.88-.39,1.22-.68,0,.07c0,.06,0,.15,0,.29v7.82h0V98.13h-2.36V93"/><path id="path6095" class="cls-2" d="M145.77,87.88c.56,0,.86,0,1.17-.28s.25-.63.25-1.1V85.32h-1.31a.9.9,0,0,0-1,1v1.53h.91"/><path id="path6097" class="cls-2" d="M148.82,87.88c.57,0,.86,0,1.18-.28s.24-.63.24-1.1V85.32h-1.31a.91.91,0,0,0-1,1v1.53h.91"/><path id="path6099" class="cls-2" d="M200,83.72c.56,0,.86,0,1.17-.28s.25-.63.25-1.1V81.16h-1.32a.9.9,0,0,0-1,1v1.54H200"/><path id="path6101" class="cls-2" d="M203,83.72c.57,0,.86,0,1.18-.28a1.51,1.51,0,0,0,.25-1.1c0-.27,0-1.18,0-1.18h-1.31a.9.9,0,0,0-1,1v1.54H203"/></svg>