<svg id="Ebene_1" data-name="Ebene 1" xmlns="http://www.w3.org/2000/svg" viewBox="0 0 350 120"><defs><style>.cls-1{fill:#fff;}</style></defs><title>Clients_Logos</title><path class="cls-1" d="M201.35,0h-52.7a10.37,10.37,0,0,0-10.38,10.38v99.24A10.37,10.37,0,0,0,148.65,120h52.7a10.37,10.37,0,0,0,10.38-10.38V10.38A10.37,10.37,0,0,0,201.35,0Zm6.9,109.62a6.86,6.86,0,0,1-6.9,6.84h-52.7a6.85,6.85,0,0,1-6.84-6.84V10.38a6.86,6.86,0,0,1,6.84-6.85h52.7a6.87,6.87,0,0,1,6.9,6.85Z"/><path class="cls-1" d="M166.22,10.55a3.05,3.05,0,0,0-2.2.87,3.74,3.74,0,0,0-.93,2.78A3.59,3.59,0,0,0,164,17a3.24,3.24,0,0,0,4.4,0,3.61,3.61,0,0,0,1-2.79,3.77,3.77,0,0,0-1-2.78A3.05,3.05,0,0,0,166.22,10.55Z"/><path class="cls-1" d="M154.39,10.66H152v3h2.43c1.34,0,2.21-.4,2.21-1.45S155.73,10.66,154.39,10.66Z"/><path class="cls-1" d="M201.35,6.38h-52.7a4,4,0,0,0-4,4V22.09h60.76V10.38A4,4,0,0,0,201.35,6.38Zm-44.46,13c-.7-1-1.11-2.26-1.69-3.19a1.62,1.62,0,0,0-1.62-.93H152v1.86c0,.87.29,2,.81,2.26h-3.83c.53-.29.81-1.39.81-2.26V11.31A3,3,0,0,0,148.94,9h5.34a7.94,7.94,0,0,1,2.9.29,2.75,2.75,0,0,1,1.68,2.78c0,1.39-.81,2.32-2.44,2.66.76.35,1.16,1.11,1.68,2.09A6,6,0,0,0,160,19.42Zm12.92-.93a5.28,5.28,0,0,1-3.59,1.22,5.43,5.43,0,0,1-3.6-1.22,5.34,5.34,0,0,1-1.85-4.29,5.44,5.44,0,0,1,1.85-4.29,6.15,6.15,0,0,1,7.19,0,5.41,5.41,0,0,1,1.86,4.29A5.31,5.31,0,0,1,169.81,18.49Zm11.13.93h-7.82a2.9,2.9,0,0,0,.81-2.26V11.31A3.1,3.1,0,0,0,173.12,9h3.77a3.31,3.31,0,0,0-.76,2.32v6.43h2c1.34,0,2.55-.23,3.13-1Zm9.39.06h-7.76a3.08,3.08,0,0,0,.81-2.32V11.31A3.15,3.15,0,0,0,182.57,9h3.77a3.07,3.07,0,0,0-.82,2.32v6.43h2.09a3.72,3.72,0,0,0,3.13-1Zm6.15.11a9.27,9.27,0,0,1-3.88-.75V16.35a3.38,3.38,0,0,0,1.1.93,5.66,5.66,0,0,0,2.78.69c1.45,0,2.32-.64,2.32-1.56,0-1.11-1.11-1.28-2.78-1.51-2.15-.29-3.31-1.28-3.31-3s1.69-3.07,4.06-3.07a7.72,7.72,0,0,1,3.42.69v2.27a2.66,2.66,0,0,0-1.27-.93,6.77,6.77,0,0,0-2.15-.35c-1.16,0-1.86.47-1.86,1,0,1,.93,1.1,3,1.5s3.25,1.28,3.19,3.08C201,18.2,199.38,19.59,196.48,19.59Z"/><path class="cls-1" d="M165.46,109.27a2.88,2.88,0,0,0,2.09-.86,3.39,3.39,0,0,0,.87-2.61,3.62,3.62,0,0,0-.87-2.67,2.85,2.85,0,0,0-2.09-.81,2.89,2.89,0,0,0-2.14.81,3.62,3.62,0,0,0-.87,2.67,3.39,3.39,0,0,0,.87,2.61A2.92,2.92,0,0,0,165.46,109.27Z"/><path class="cls-1" d="M156.25,103.83c0-1-.81-1.39-2.09-1.39h-2.32v2.78h2.32C155.44,105.22,156.25,104.81,156.25,103.83Z"/><path class="cls-1" d="M144.65,109.62a4,4,0,0,0,4,4h52.7a4,4,0,0,0,4.06-4V97.91H144.65Zm47.6-8.81h7.94V103c-.52-.52-1.56-.57-2.84-.57h-2.26v2.49h4l-.22,1.51h-3.83v2.72h2.55c1.28,0,2.37-.06,3-.81l-.34,2.43h-8a3,3,0,0,0,.75-2.2V103A3.19,3.19,0,0,0,192.25,100.81Zm-8.82,1a5.57,5.57,0,0,1,3.78-1.28,6.14,6.14,0,0,1,2.95.58v2.15a3.77,3.77,0,0,0-3-1c-2,0-3.19,1.51-3.19,3.54a3.15,3.15,0,0,0,3.19,3.47,4.56,4.56,0,0,0,3.36-1.1l-.35,2.27a7.22,7.22,0,0,1-2.95.52c-3.25,0-5.51-1.92-5.51-5.16A5,5,0,0,1,183.43,101.86Zm-9.1-1a.68.68,0,0,0-.34.46c-.06.3.17.64.4,1l2,2.9,2-2.84a2,2,0,0,0,.34-.93c.06-.23-.05-.4-.29-.58H182a7.35,7.35,0,0,0-1.8,2l-3,4.18v1.62a2.86,2.86,0,0,0,.76,2.14h-3.6a2.86,2.86,0,0,0,.76-2.14V107l-3.25-4.58a3.65,3.65,0,0,0-1.57-1.57Zm-12.29.87a5.79,5.79,0,0,1,6.79,0,5.31,5.31,0,0,1,1.8,4.12,5.19,5.19,0,1,1-10.38,0A5.3,5.3,0,0,1,162,101.68Zm-13-.87h5a9.07,9.07,0,0,1,2.79.23,2.71,2.71,0,0,1,1.62,2.73,2.55,2.55,0,0,1-2.32,2.49c.7.29,1.1,1,1.57,2a5.85,5.85,0,0,0,1.8,2.55l-3-.06c-.64-.93-1-2.14-1.56-3a1.75,1.75,0,0,0-1.63-.93h-1.51v1.8a3.15,3.15,0,0,0,.75,2.2H149a3.11,3.11,0,0,0,.75-2.2V103A2.85,2.85,0,0,0,149,100.81Z"/><path class="cls-1" d="M176,35.42a13.44,13.44,0,0,0-7.83-2.14h-9.22V57.62C175.84,57.33,180,49.74,180,43.77A9.86,9.86,0,0,0,176,35.42Zm-5.28,5V54.15a28.24,28.24,0,0,1-6.49,1.62V43.65c0-4.81-2.21-6-3.54-6.9h14.62A7.49,7.49,0,0,1,178,40.41Z"/><path class="cls-1" d="M205.4,24.93H144.65V95.07H205.4ZM174.22,90.78H160.65c1.33-.87,3.54-2.15,3.54-6.89V62.44a54.64,54.64,0,0,0,6.49-1v3.25c.93-.06,1.86-.06,2.73-.18.63,1.16,1.16,2.38,1.68,3.6-1.45.12-2.9.17-4.41.23v15.6C170.68,88.63,173,89.91,174.22,90.78Zm14.49-7.07h-12c1-1,2.55-3.3,2-7.71-.81-5.85-3.36-12.23-6.78-16.35a51.88,51.88,0,0,1-13,1.57V76.81c0,4.81,2.26,6,3.54,6.9H148.89c1.33-.87,3.53-2.09,3.53-6.9V36.58c0-4.75-2.2-6-3.53-6.9h19.53c5.16,0,9.22.81,12.23,2.84a13.54,13.54,0,0,1,5.92,11.19c0,6-3.54,11-9.34,13.91-.23.12-.4.18-.63.29,5.1,5.86,7.65,14.09,8.92,19.94a10,10,0,0,0,3.19,5.86Zm1.51,7c1-1,2.61-3.25,2-7.66a35.09,35.09,0,0,0-7.36-16.81l-1.22.35c-.53-1.22-1.16-2.5-1.79-3.71,7.7-2.61,9.91-7.71,9.91-12.06a9.89,9.89,0,0,0-3.66-8.11,15,15,0,0,0-1.45-5.46,16.75,16.75,0,0,1,5.8,2.27,13.57,13.57,0,0,1,5.91,11.19c0,5.85-3.36,10.6-8.86,13.62,5.62,6.26,8.29,14.66,9.56,20.52a10.62,10.62,0,0,0,3.19,5.86Z"/></svg>