<svg id="Ebene_1" data-name="Ebene 1" xmlns="http://www.w3.org/2000/svg" viewBox="0 0 350 120"><defs><style>.cls-1{fill:#fff;}</style></defs><title>Client_Logo_Zeichenfläche_1</title><path id="path8" class="cls-1" d="M147.71,75.43c-10.55,7.77-25.83,11.92-39,11.92A70.59,70.59,0,0,1,61.07,69.17c-1-.89-.1-2.11,1.08-1.42A95.84,95.84,0,0,0,109.82,80.4,94.76,94.76,0,0,0,146.18,73c1.78-.76,3.28,1.17,1.53,2.47"/><path id="path10" class="cls-1" d="M152.1,70.41c-1.35-1.72-8.92-.81-12.31-.41-1,.12-1.2-.78-.26-1.42,6-4.25,15.92-3,17.07-1.6s-.3,11.35-6,16.08c-.87.73-1.69.34-1.31-.63,1.27-3.17,4.13-10.29,2.78-12"/><path id="path12" class="cls-1" d="M140,38.62V34.5a1,1,0,0,1,1-1h18.46a1,1,0,0,1,1.07,1V38a5.87,5.87,0,0,1-1.39,2.59l-9.57,13.66a20.53,20.53,0,0,1,10.53,2.26,1.88,1.88,0,0,1,1,1.61v4.4a1,1,0,0,1-1.36.94,21.28,21.28,0,0,0-19.51,0c-.64.35-1.31-.35-1.31-1V58.39a5,5,0,0,1,.68-2.83l11.09-15.9h-9.65a1,1,0,0,1-1.07-1"/><path id="path14" class="cls-1" d="M72.67,64.36H67.05a1.06,1.06,0,0,1-1-1V34.57a1,1,0,0,1,1.08-1h5.24a1.06,1.06,0,0,1,1,1v3.77h.1c1.37-3.64,3.94-5.34,7.4-5.34s5.71,1.7,7.29,5.34a8.3,8.3,0,0,1,14.26-2.19c1.78,2.43,1.41,6,1.41,9V63.31a1.07,1.07,0,0,1-1.09,1H97.15a1.07,1.07,0,0,1-1-1V48a35.86,35.86,0,0,0-.16-5.4c-.41-1.94-1.67-2.48-3.3-2.48a3.74,3.74,0,0,0-3.36,2.36C88.75,44,88.8,46.4,88.8,48V63.31a1.06,1.06,0,0,1-1.08,1H82.11a1.06,1.06,0,0,1-1-1V48c0-3.21.53-7.94-3.46-7.94S73.75,44.7,73.75,48V63.31a1.06,1.06,0,0,1-1.08,1"/><path id="path16" class="cls-1" d="M176.49,32.93c8.34,0,12.85,7.16,12.85,16.26,0,8.79-5,15.77-12.85,15.77-8.18,0-12.64-7.16-12.64-16.08s4.51-16,12.64-16m0,5.88c-4.14,0-4.4,5.65-4.4,9.16S172.08,59,176.49,59s4.56-6.07,4.56-9.77a26.51,26.51,0,0,0-.84-7.65,3.51,3.51,0,0,0-3.67-2.79"/><path id="path18" class="cls-1" d="M200.15,64.36h-5.6a1.07,1.07,0,0,1-1-1V34.48a1.05,1.05,0,0,1,1.08-.94h5.2a1.07,1.07,0,0,1,1,.8v4.41h.1c1.57-3.94,3.78-5.82,7.66-5.82a7.36,7.36,0,0,1,6.55,3.4c1.47,2.3,1.47,6.18,1.47,9V63.45a1.08,1.08,0,0,1-1.08.91H209.9a1.07,1.07,0,0,1-1-.91V47.79c0-3.15.37-7.77-3.51-7.77a3.67,3.67,0,0,0-3.25,2.31,12.77,12.77,0,0,0-.89,5.46V63.31a1.09,1.09,0,0,1-1.1,1"/><path id="path20" class="cls-1" d="M220.13,62.07a2.77,2.77,0,1,1,2.76,2.63,2.7,2.7,0,0,1-2.76-2.63"/><path id="path22" class="cls-1" d="M279.65,64.37a1.07,1.07,0,0,1-1-1.05V34.49a1.06,1.06,0,0,1,1-1h2.06a1.05,1.05,0,0,1,1.07,1V38.7c1.47-3.34,4.21-6,7.66-6h.42c3.66,0,6.34,2.71,7.34,6.63,1.55-3.88,4.48-6.63,8.33-6.63h.43a7.79,7.79,0,0,1,6.71,4.43c1.31,2.55,1.26,6,1.26,8.8V63.32a1.05,1.05,0,0,1-1,1.05h-2.47a1.09,1.09,0,0,1-1-.91V46c0-2.06.1-4.25-.73-6.13a5.09,5.09,0,0,0-4.25-3.21,6.56,6.56,0,0,0-4.93,3.45C299,42.58,299,44.83,299,47.73V63.48a1.09,1.09,0,0,1-1,.89h-2.45a1.08,1.08,0,0,1-1.05-1.05l0-18.49a11.91,11.91,0,0,0-.88-5.23,5.29,5.29,0,0,0-4.24-3,6.59,6.59,0,0,0-4.62,3c-1.37,2-1.63,4.49-1.63,7V63.32a1.07,1.07,0,0,1-1,1.05h-2.45"/><path id="path24" class="cls-1" d="M262.72,65c-8,0-11.54-8.13-11.54-16.26,0-8.55,4.19-16,12.22-16h.43c7.8,0,11.69,7.89,11.69,16,0,8.61-4.3,16.2-12.38,16.2h-.42m.59-3.95c2.62-.08,4.69-1.71,5.91-4.42a19.18,19.18,0,0,0,1.32-7.89,17.52,17.52,0,0,0-1.69-8.43,6.06,6.06,0,0,0-11.37.72,20.06,20.06,0,0,0-1.31,7.71,20.68,20.68,0,0,0,1.52,8.43A6.64,6.64,0,0,0,263.31,61"/><path id="path26" class="cls-1" d="M237.81,60.9c3.58-.11,5.46-3,6.23-6.7a1.11,1.11,0,0,1,1-.82h2.36a1,1,0,0,1,1,1C247.38,60.68,243.56,65,238.13,65h-.43c-7.92,0-11.33-7.95-11.33-16s3.46-16.2,11.38-16.2h.42c5.5,0,9.42,4.24,10.28,10.57a1,1,0,0,1-1,.94l-2.47,0a1.16,1.16,0,0,1-.94-1c-.59-3.53-2.62-6.34-6-6.45-5.38.17-6.91,6.79-6.91,11.89,0,4.91,1.28,12.07,6.66,12.25"/><path class="cls-1" d="M61.66,59.07c-1-1.42-2.11-2.57-2.11-5.2V45.11c0-3.7.26-7.11-2.48-9.66-2.15-2.07-5.72-2.8-8.46-2.8-5.34,0-11.3,2-12.56,8.6a1,1,0,0,0,.84,1.17l5.45.59a1.17,1.17,0,0,0,1-1,4.29,4.29,0,0,1,4.52-3.37A3.77,3.77,0,0,1,51,40.07c.78,1.15.68,2.73.68,4.07v.73c-3.25.37-7.51.6-10.56,2a9.53,9.53,0,0,0-6,9.18c0,5.84,3.68,8.75,8.41,8.75,4,0,6.17-.94,9.26-4.08A13.56,13.56,0,0,0,56,64.41a1.18,1.18,0,0,0,1.33-.13h0c1.12-1,3.16-2.77,4.31-3.73A1,1,0,0,0,61.66,59.07Zm-11-2.53a4.56,4.56,0,0,1-3.89,2.56c-2.15,0-3.41-1.65-3.41-4.07,0-4.79,4.29-5.66,8.35-5.66v1.22h0C51.66,52.77,51.72,54.6,50.61,56.54Z"/><path class="cls-1" d="M135.31,59.07c-1-1.42-2.12-2.57-2.12-5.2V45.11c0-3.7.26-7.11-2.47-9.66-2.16-2.07-5.73-2.8-8.47-2.8-5.34,0-11.31,2-12.56,8.6a1,1,0,0,0,.84,1.17L116,43a1.16,1.16,0,0,0,1-1,4.28,4.28,0,0,1,4.51-3.37,3.76,3.76,0,0,1,3.16,1.46c.79,1.15.68,2.73.68,4.07v.73c-3.25.37-7.51.6-10.56,2a9.53,9.53,0,0,0-6,9.18c0,5.84,3.68,8.75,8.41,8.75,4,0,6.18-.94,9.26-4.08a13.74,13.74,0,0,0,3.22,3.74,1.18,1.18,0,0,0,1.33-.13h0c1.12-1,3.16-2.77,4.3-3.73A1.06,1.06,0,0,0,135.31,59.07Zm-11.06-2.53a4.56,4.56,0,0,1-3.88,2.56c-2.16,0-3.42-1.65-3.42-4.07,0-4.79,4.29-5.66,8.35-5.66v1.22C125.3,52.77,125.36,54.6,124.25,56.54Z"/></svg>