<svg id="Ebene_1" data-name="Ebene 1" xmlns="http://www.w3.org/2000/svg" viewBox="0 0 350 120"><defs><style>.cls-1{fill:#fff;}</style></defs><title>Clients_Logos</title><g id="g4178"><path id="path3996" class="cls-1" d="M103.87,74.74A10.75,10.75,0,0,0,96.48,78a30.28,30.28,0,0,1-5.36,4.26c-.1,0-.09.16,0,.16h19.55c3.87,0,5.69-1.31,8-3.37a28,28,0,0,1,5.63-4.1c.23-.09.18-.24,0-.24Zm33.59,0A10.77,10.77,0,0,0,130.07,78a29.88,29.88,0,0,1-5.36,4.26c-.09,0-.09.16,0,.16h19.6c3.86,0,5.68-1.31,8-3.37a27.49,27.49,0,0,1,5.6-4.1c.23-.09.21-.24,0-.24Zm33.64,0A10.8,10.8,0,0,0,163.7,78a30.07,30.07,0,0,1-5.35,4.26c-.1,0-.1.16,0,.16H178c3.86,0,5.64-1.31,7.94-3.37a28,28,0,0,1,5.63-4.1c.23-.09.21-.24,0-.24Zm33.59,0A10.64,10.64,0,0,0,197.34,78a31.12,31.12,0,0,1-5.4,4.26c-.09,0-.09.16,0,.16h19.59c3.87,0,5.69-1.31,8-3.37a28,28,0,0,1,5.63-4.1c.24-.09.18-.24,0-.24Zm33.63,0A10.75,10.75,0,0,0,230.93,78a30.28,30.28,0,0,1-5.36,4.26c-.09,0-.09.16,0,.16h19.6c3.86,0,5.68-1.31,8-3.37a27.63,27.63,0,0,1,5.59-4.1c.24-.09.22-.24,0-.24Z"/><path id="path4006" class="cls-1" d="M172.31,37.55c-7.15,0-14.12,2.12-14.12,9.23,0,12.31,21.47,5.81,21.47,13.34,0,2.45-3.81,3.44-6.88,3.44-5.53,0-9.33-.82-14.16-3.72V66a46.16,46.16,0,0,0,13.81,1.76c7.41,0,14.35-1.91,14.35-9.19,0-12.85-21.47-7.08-21.47-13.37,0-2.54,3.44-3.41,6.45-3.41,5.07,0,10.53,1.49,13.53,4.27V39.51A47.11,47.11,0,0,0,172.31,37.55Zm37.93.08c-12.89,0-21.43,6.2-21.43,15.64,0,8.67,7.84,14.47,19.56,14.47a45.39,45.39,0,0,0,11.14-1.45V59a12.82,12.82,0,0,1-9.7,4.15c-6.92,0-11.65-4.31-11.65-10.52S203.07,42,209.93,42a12.63,12.63,0,0,1,9.15,3.71V38.41A45.49,45.49,0,0,0,210.24,37.63Zm30.08,0c-11.11,0-19,6.4-19,15.41,0,8.84,7.05,14.7,17.56,14.7,11.16,0,18.85-6.23,18.85-15.29,0-8.88-7-14.82-17.44-14.82Zm-148.1.9v6.92c2.41-1.87,7.46-2.58,13-2.62V61.72c0,2.75-.24,3.53-1.41,5H114.7c-1.22-1.44-1.41-2.22-1.41-5v-19c4.79,0,10.49.91,12.91,2.78V38.53Zm36.91,0c1.14,1.44,1.37,2.26,1.37,5V61.72c0,2.75-.21,3.57-1.29,5h26.36V59.84c-3.62,2.58-10.5,2.59-13.3,2.54h-3.83V54.52h2.82a31.28,31.28,0,0,1,7.35.83V49.48a29.59,29.59,0,0,1-7.35.82h-2.82V42.83h3.83c3.43,0,9.38.71,11.62,2.59V38.53Zm110.45,3.36c5.81,0,9.65,4.82,9.65,10.76s-3.84,10.75-9.65,10.75-9.71-4.81-9.71-10.75S233.66,41.89,239.58,41.89Z"/></g></svg>