<svg id="Ebene_1" data-name="Ebene 1" xmlns="http://www.w3.org/2000/svg" viewBox="0 0 350 120"><defs><style>.cls-1{fill:#fff;}</style></defs><title>Client_Logo_Zeichenfläche_1</title><path class="cls-1" d="M339.64,68.25c-6.37,0-10.65,3-10.61,7.47s4.53,6.19,8.48,7.76c3.06,1.21,6.26,2.49,6.28,4.6a2.22,2.22,0,0,1-.54,1.54c-.71.87-2.22,1.28-4.59,1.18a21.72,21.72,0,0,1-7.89-2.18l-1.21-.54,0,5.47.77.22.49.1a31.66,31.66,0,0,0,7.12.93c7.4,0,11.8-3,11.77-7.91,0-4.55-4.62-6.35-8.66-7.93-3-1.15-6-2.34-6-4.27,0-.57-.05-2.25,3.76-2.28a19.59,19.59,0,0,1,7.18,1.7l1.43.59,0-5.53-1.43-.26a34,34,0,0,0-6.3-.66ZM89.77,71v.28c.22,2.65.4,9.32.42,11.76,0,2.23,0,9.68-.29,12.92v.27l11.71-.08c5.73-.05,11.8-1.88,11.77-7,0-3.2-2.33-5.57-6.68-6.84,3.17-.87,5.34-3.08,5.32-5.63,0-4.16-4.86-5.72-9.34-5.78Zm28.4-.21v.27c.21,2.66.39,9.26.41,11.71,0,2.23,0,9.74-.28,13V96l5.85,0v-.22c-.37-6.18-.42-12.39-.46-18.39a9.25,9.25,0,0,0,1.44,2.73c.09.15,10.31,14.81,10.84,15.68v.11l4.76,0-.06-.27c-.35-3.24-.41-10.75-.43-13,0-2.45.09-9.07.24-11.71v-.28l-5.91,0,.32,6.34c.14,3.17.21,6.39.46,9.52a19.91,19.91,0,0,0-2.44-4c-.05-.09-6-9.2-8.08-11.77l-.06-.05-6.62.05Zm29-.22.06.22c.22,2.67.4,9.31.42,11.76,0,2.23,0,9.74-.29,13l-.05.27,7.06,0-.06-.27c-.26-2.31-.36-6.71-.4-10.13l1.26.05,1,0c9.26-.07,13.72-2.59,13.68-7.71,0-5.84-6.32-7.17-11.6-7.25l-11.06.08Zm36-.27v.22c.22,2.67.46,9.31.48,11.76,0,2.23,0,9.73-.34,13v.27l7,0V95.2c-.26-2.3-.39-6.7-.46-10.12l1.32,0,1,.05c9.26-.07,13.72-2.59,13.68-7.72,0-5.83-6.38-7.16-11.66-7.24l-11,.08ZM215,70.06l0,.17c-1.27,3.59-9.53,22-10.82,24.81l-.16.33,6,0,.05-.11c.52-1.72,1.14-3.7,1.93-5.82l5-.14,4.1,0s.7,0,.88,0c1.12,2.71,1.93,4.77,2.29,5.78l.05.11,6.95,0L219.85,70l-4.81,0Zm18.82-.14v.27c.21,2.66.39,9.26.41,11.71,0,2.22.07,9.73-.28,13v.27l7-.05v-.28c-.37-3.24-.46-10.74-.48-13,0-1.76,0-5.68.15-8.81.57-.07,1.34-.11,1.86-.12,3.29-.09,5.62.57,6.75,1.92a3.51,3.51,0,0,1,.78,2.29c0,2.91-2.73,4.37-5.27,4.53a7.75,7.75,0,0,1-1.48,0l-.49-.1.33.49c2.48,3.62,6.27,9.9,7.87,12.91l0,.11,7.5-.06-.22-.38c-.27-.4-5.26-7.6-7.36-10.67a.9.9,0,0,1-.11-.16c3.8-1.19,5.67-3.36,5.64-6.67,0-5.83-6.38-7.17-11.65-7.24l-11,.08Zm27.81-.21v.22c.21,2.66.4,9.32.41,11.76,0,2.22,0,9.73-.28,13v.27l7,0-.06-.28c-.38-3.24-.41-10.74-.43-13,0-2.45.09-9.11.24-11.77v-.22Zm13.24-.1v.27c.22,2.66.4,9.32.42,11.77,0,2.23.09,9.67-.23,12.92l-.05.27,11.76-.09c5.71,0,11.81-1.87,11.77-7,0-3.21-2.36-5.58-6.73-6.85,3.19-.87,5.34-3.08,5.32-5.62,0-4.16-4.86-5.73-9.34-5.79ZM311,69.34l-.05.11c-1.35,3.82-10.08,23.27-10.81,24.87l-.16.33,6,0,0-.17c.51-1.72,1.13-3.68,1.93-5.81l5-.1,4.11,0h.88c1.11,2.71,1.92,4.76,2.28,5.78l.06.17,6.95,0L315.79,69.3l-4.82,0ZM97.56,73.79c.41,0,.89,0,1.32,0,4.88,0,6.68,1,6.7,3.62a2.88,2.88,0,0,1-.59,1.86c-.93,1.13-2.83,1.73-5.13,1.63h-.11l-1.34,3.57h1.37c2.69-.1,5,.73,6.25,2.19a3.44,3.44,0,0,1,.84,2.3c0,2.8-2.43,4.23-7.25,4.27-.81,0-2.12,0-3,0-.2-3.69-.23-8.69-.24-10.18,0-1.76,0-5.67.09-9a9.41,9.41,0,0,1,1-.17Zm185.2-1.39c.4,0,.83,0,1.26,0,4.9,0,6.73.94,6.75,3.61a2.76,2.76,0,0,1-.64,1.87c-.93,1.12-2.81,1.72-5.13,1.62h-.11l-1.34,3.56H285c2.69-.09,5,.74,6.2,2.2a3.56,3.56,0,0,1,.9,2.29c0,2.81-2.44,4.23-7.25,4.27-.83,0-2.12,0-3,0-.2-3.69-.28-8.69-.29-10.18,0-1.76,0-5.69.15-9A8.34,8.34,0,0,1,282.76,72.4Zm-127,1.17c3.29-.08,5.57.56,6.69,1.92a3.61,3.61,0,0,1,.79,2.29c0,3.66-4,4.47-7.47,4.49l-1.42,0s-.33-.08-.55-.11c0-.84,0-1.91,0-3.17,0-1.61,0-3.44,0-5.2A15.91,15.91,0,0,1,155.79,73.57Zm36-.27c3.28-.08,5.62.56,6.74,1.92a3.61,3.61,0,0,1,.79,2.29c0,3.66-4,4.47-7.47,4.49l-1.42,0-.55-.11c0-.84-.07-1.91-.08-3.17,0-1.61,0-3.44.07-5.2a13.8,13.8,0,0,1,1.92-.18Zm25.15,4.19c.58,1.18,2.06,4.54,3.73,8.51-.24,0-.55,0-.55,0l-3.11.08-3.67,0C214.59,82.84,215.8,80,216.9,77.49Zm95.94-.72c.57,1.18,2.06,4.54,3.73,8.51H316l-3.12.08-3.67,0C310.52,82.12,311.74,79.23,312.84,76.77Z"/><path class="cls-1" d="M.25,23,.82,97.59,75.44,97l-.56-74.62ZM18.3,86.32a18.81,18.81,0,0,1-4.37-6.1,48,48,0,0,1-5.82-3.13,28.1,28.1,0,0,1,4.31-1.51,31.16,31.16,0,0,1,0-9.47,28.81,28.81,0,0,0,3,8.74c1.86-.38,3.43-.65,5.58-1a20.91,20.91,0,0,0-2.48,4.83,18.18,18.18,0,0,0,6.7,4.05,27.1,27.1,0,0,1-7.34-1.14A11.81,11.81,0,0,0,18.3,86.32Zm7.32-23.21c-1.11-2.6-2.68-7.86-2.68-7.86-3,1.64-9.9,8.18-9.9,8.18,3.73-7.65,7.58-11.17,7.58-11.17-1.35-1.32-4.81-1.92-7.35-2a27.74,27.74,0,0,1,7.32-1.37,30.09,30.09,0,0,1,4.16.08,21,21,0,0,1,7.09-3.67h0a14.4,14.4,0,0,0-2.05,4,34.57,34.57,0,0,1,12.34,4.34A40.45,40.45,0,0,0,30.8,53a8.26,8.26,0,0,0-2.68.52A47.54,47.54,0,0,0,25.62,63.11ZM39.78,82.55c.2.9.36,1.42.56,2.13a16.66,16.66,0,0,1-3.17.18,29.5,29.5,0,0,1-7.64,3,28.32,28.32,0,0,0,4-3.15,15.05,15.05,0,0,1-4.17-1.39,22.77,22.77,0,0,0,6.34-.92c1.34-1.51,2.36-2.77,3.58-4.41,0,1.14.12,2,.24,3a36.77,36.77,0,0,0,5.66-3.44A48.81,48.81,0,0,1,39.78,82.55ZM63.42,39.08c.79,2-1,13.32-2.45,16.32-.1-4.71-.59-10.66-2.34-13.22-4.6,2.74-6,3-11,6A49.44,49.44,0,0,0,53.31,41a113,113,0,0,0-16.13,2A65.21,65.21,0,0,1,54,37.56c-1-1.39-9.28-5.82-11.33-6.65,6.49.46,14.45,2.84,18.32,5.18a30.36,30.36,0,0,1,5.91-.82C66.18,36.51,66.19,37.23,63.42,39.08Z"/></svg>