<svg id="Ebene_1" data-name="Ebene 1" xmlns="http://www.w3.org/2000/svg" viewBox="0 0 350 120"><defs><style>.cls-1,.cls-2{fill:#fff;}.cls-1{opacity:0.5;}</style></defs><title>Clients_Logos</title><path id="path54" class="cls-1" d="M187.76,83c-1.12,5.85-2.06,10.81-2.43,12.74h43.35V83Zm-66.43.11V95.83h43l-2.87-12.75Z"/><path id="path62" class="cls-2" d="M142.47,53.86l-3.13-13.19h26.73l8.65,37.85h.37l5.45-24.25c2.75-11,3.79-13.6,19.27-13.6H211s-2.25,10.15-5,21.16c-1.06,4.2-10.36,3.7-9.9-.22.05-.41.49-3.36.84-5.46.5-3-3-3.4-3.66-.41-.45,2.14-2.49,12.78-4.4,22.78h39.9V24.17H121.32V78.52h39l-5.55-24.65Z"/></svg>