<svg id="Ebene_1" data-name="Ebene 1" xmlns="http://www.w3.org/2000/svg" viewBox="0 0 350 120"><defs><style>.cls-1{fill:#fff;}</style></defs><title>Client_Logo_Zeichenfläche_1</title><path class="cls-1" d="M93,27.2v4.49h31.92V27.2Zm36.45,0v4.49h45.49s-4.65-4.49-10.8-4.49Zm54.41,0v4.49h27.52l-1.63-4.49Zm47.25,0-1.63,4.49h27.27V27.2ZM93,35.93v4.49h31.92V35.93Zm36.45,0v4.49h50.76s-.59-3.46-1.62-4.49Zm54.41,0v4.49H214.4l-1.51-4.49Zm44,0-1.52,4.49h30.42V35.93ZM102.17,44.66v4.49H116V44.66Zm36.45,0v4.49h13.82V44.66Zm27.27,0v4.49h13.83a15.37,15.37,0,0,0,.87-4.49Zm27.14,0v4.49h24.51l-1.63-4.49Zm31.8,0-1.64,4.49h24.64V44.66ZM102.17,53.39v4.49H116V53.39Zm36.45,0v4.49h35.31s2.95-2.3,3.9-4.49Zm54.41,0v4.49h13.83v-2.5l.88,2.5h25.32l.94-2.5v2.5h13.83V53.39h-26l-1.37,3.8-1.39-3.8Zm-90.86,8.73v4.49H116V62.12Zm36.45,0v4.49h39.21c-1-2.18-3.9-4.49-3.9-4.49Zm54.41,0v4.49h13.83V62.12Zm16.34,0L211,66.61h19l1.59-4.49Zm24.63,0v4.49h13.83V62.12ZM102.17,70.85v4.49H116V70.85Zm36.45,0v4.49h13.82V70.85Zm27.27,0v4.49h14.7a15.37,15.37,0,0,0-.87-4.49Zm27.14,0v4.49h13.83V70.85Zm19.48,0,1.62,4.49h12.73l1.63-4.49Zm21.49,0v4.49h13.83V70.85ZM93.25,79.58v4.49h31.92V79.58Zm36.2,0v4.49h49.14c1-1,1.62-4.49,1.62-4.49Zm54.66,0v4.49h22.75V79.58Zm31.54,0,1.67,4.49h6.48l1.56-4.49Zm18.35,0v4.49h23V79.58ZM93.25,88.31V92.8h31.92V88.31Zm36.2,0v4.48h34.69c6.15,0,10.8-4.48,10.8-4.48Zm54.66,0V92.8h22.75V88.31Zm34.7,0,1.6,4.48h.28l1.63-4.48Zm15.19,0V92.8h23V88.31Z"/></svg>