<svg id="Ebene_1" data-name="Ebene 1" xmlns="http://www.w3.org/2000/svg" viewBox="0 0 350 120"><defs><style>.cls-1{fill:#fff;}</style></defs><title>Clients_Logos</title><path class="cls-1" d="M161.05,99.57c0-1-.46-1.28-1.2-1.28s-1.46.27-1.46,1c0,.92.73.92,1.46,1.19,1.47.28,3.12.74,3.12,2.2,0,2.11-1.65,2.66-3.66,2.66-1.65,0-3.12-.55-3.12-2.66h1.92a1.29,1.29,0,0,0,1.47,1.38c.46,0,1.47-.19,1.47-.92,0-1-1.2-1-1.74-1.19-1.2-.27-2.84-.73-2.84-2.2,0-1.92,1.64-2.65,3.38-2.65s2.84.73,2.84,2.47"/><path class="cls-1" d="M167.55,101.68c0-.46-.28-1.2-1-1.2s-.91.74-.91,1.2m0,1.19c0,.73,0,1.46.91,1.46.55,0,1-.27,1-.73h1.65c-.19,1.46-1.19,1.74-2.66,1.74-1.92,0-2.65-1-2.65-2.93a2.59,2.59,0,0,1,2.65-2.84,2.46,2.46,0,0,1,2.47,1.19,2.61,2.61,0,0,1,.19,1.19c.27.18.27.46.27.92Z"/><path class="cls-1" d="M171.85,99.75v1h.28c.27-1,.92-1.19,1.92-1.19v1.37h-.73c-.46.28-.73.28-.92.55s-.27.64-.27.92v2.93h-1.74V99.75"/><polyline class="cls-1" points="174.51 99.75 176.25 99.75 177.63 103.42 178.91 99.75 180.56 99.75 178.36 105.34 176.71 105.34 174.51 99.75"/><path class="cls-1" d="M181.47,99.75h1.74v5.59h-1.74Zm0-2.65h1.74v1.46h-1.74Z"/><path class="cls-1" d="M187.79,101.68c0-.46-.27-1.2-.73-1.2-.73,0-1,1.47-1,1.93.28.46.28,1.92,1,1.92.46,0,.73-.73.73-1.19h1.65c0,1.47-.91,2.2-2.38,2.2a2.78,2.78,0,0,1-2.66-2.93,2.7,2.7,0,0,1,2.66-2.84c1.47,0,2.38.64,2.38,2.11"/><path class="cls-1" d="M194,101.68c0-.46-.18-1.2-.91-1.2s-1,.74-1,1.2m0,1.19c0,.73,0,1.46,1,1.46a.83.83,0,0,0,.91-.73h1.74c-.27,1.46-1.46,1.74-2.65,1.74-1.93,0-2.66-1-2.66-2.93a2.55,2.55,0,0,1,2.66-2.84,2.34,2.34,0,0,1,2.38,1.19,1.93,1.93,0,0,1,.27,1.19v.92Z"/><path class="cls-1" d="M199.79,101.22c0-.46-.18-.74-.64-.74s-.73.28-.73.74c0,.73,3.3.27,3.3,2.38,0,1.19-1.65,1.74-2.57,1.74-1.46,0-2.47-.55-2.47-1.74h1.46c0,.46.46.73,1,.73s.64-.27.64-.73-.64-.46-.91-.73c-1.19-.19-2.2-.46-2.2-1.65s1.46-1.65,2.47-1.65a2.14,2.14,0,0,1,2.38,1.65"/><path class="cls-1" d="M208.49,98.84c0-.55-.45-.74-.91-.74a.71.71,0,0,0-.73.74,1.68,1.68,0,0,0,.91,1.19c.28-.28.73-.74.73-1.19M207,101.49a2.05,2.05,0,0,0-.73,1.38,1.34,1.34,0,0,0,1.46,1.19,3.86,3.86,0,0,0,1.47-.46Zm3.2,3.12a5.32,5.32,0,0,1-2.65.73c-1.47,0-3.21-.55-3.21-2.2a3.31,3.31,0,0,1,1.74-2.66,2.38,2.38,0,0,1-1-1.64c0-1.47,1.46-1.74,2.65-1.74,1,0,2.47.27,2.47,1.74a2.12,2.12,0,0,1-1.74,1.92l1.74,1.65a3.84,3.84,0,0,0,.46-1.47v-.73h1.65v1a8.62,8.62,0,0,1-.91,2.38l1.64,1.74h-2.19Z"/><path class="cls-1" d="M219.85,99.57c-.27-1-.55-1.28-1.46-1.28-.74,0-1.19.27-1.19,1,0,.92.73.92,1.46,1.19,1.19.28,3.12.74,3.12,2.2,0,2.11-1.93,2.66-3.67,2.66-1.92,0-3.11-.55-3.11-2.66h1.74a1.22,1.22,0,0,0,1.37,1.38c.74,0,1.74-.19,1.74-.92,0-1-1.19-1-1.92-1.19-1.19-.27-2.66-.73-2.66-2.2,0-1.92,1.65-2.65,3.39-2.65s2.84.73,2.84,2.47"/><path class="cls-1" d="M225.62,104.33c.92,0,1.19-.91,1.19-1.92s-.27-1.93-1.19-1.93c-1.19,0-1.46,1-1.46,1.93s.27,1.92,1.46,1.92m0,1a2.89,2.89,0,0,1-3.11-2.93,2.82,2.82,0,0,1,3.11-2.84,2.74,2.74,0,0,1,2.84,2.84A2.82,2.82,0,0,1,225.62,105.34Z"/><rect class="cls-1" x="229.47" y="97.09" width="1.65" height="8.24"/><path class="cls-1" d="M236,104.61a1.69,1.69,0,0,1-1.64.73c-.55,0-1.74-.28-1.93-1.28V99.75h1.65v3.12c0,.73.28,1.46.92,1.46s1-.46,1-1.46V99.75h1.93v5.59h-1.65"/><path class="cls-1" d="M239.82,99.75V98.56l1.65-.73v1.92h1.28v1h-1.28v2.66c0,.64.28.91.73.91h.55v1h-1.28c-1.37,0-1.65-.55-1.65-1.74v-2.84h-1.19v-1"/><path class="cls-1" d="M244.13,99.75h1.74v5.59h-1.74Zm0-2.65h1.74v1.46h-1.74Z"/><path class="cls-1" d="M250,104.33c.92,0,1.19-.91,1.19-1.92s-.27-1.93-1.19-1.93-1.28,1-1.28,1.93.27,1.92,1.28,1.92m0,1a2.69,2.69,0,0,1-2.93-2.93,2.89,2.89,0,0,1,5.77,0A2.67,2.67,0,0,1,250,105.34Z"/><path class="cls-1" d="M255.49,100.21a2.42,2.42,0,0,1,1.92-.64c.46,0,1.65.46,1.65,1.19.27.18.27.73.27.92v3.66h-1.65V102c0-.73-.27-1.47-1-1.47s-1.19.46-1.19,1.47v3.39h-1.65V99.75h1.65"/><path class="cls-1" d="M263.18,101.22a.79.79,0,0,0-.73-.74.68.68,0,0,0-.74.74c0,.73,3.39.27,3.39,2.38,0,1.19-1.65,1.74-2.65,1.74-1.38,0-2.66-.55-2.66-1.74h1.74a.83.83,0,0,0,.92.73c.55,0,.73-.27.73-.73s-.73-.46-1.19-.73c-.92-.19-1.92-.46-1.92-1.65s1.46-1.65,2.38-1.65c1.19,0,2.2.46,2.2,1.65"/><path class="cls-1" d="M135,94.26V77.13c0-1.65-.73-3.12-1.74-3.12-1.19,0-1.92,1.47-1.92,3.12V94.26h-4.58V77.13c0-1.65-.74-3.12-1.65-3.12s-1.65,1.47-1.65,3.12V94.26h-4.58V70.44h4v1.19l1.47-1.47h.73a6.32,6.32,0,0,1,4.12,1.47c.92-1.19,2.38-1.47,4-1.47,3.85,0,6.32,2.66,6.32,8.16V94.26"/><path class="cls-1" d="M148,73.74c-.73,0-1.47,1-1.74,1.46V90.41c1.92-.73,3.94-3.39,3.94-10.35,0-3.85-1-6.32-2.2-6.32M146.3,94.26v11.26H142V70.44h4.12v1.19l1.47-1.47H148c3.57,0,6.69,3.12,6.69,10.81C154.73,91.6,148.5,94,146.3,94.26Z"/><path class="cls-1" d="M179.09,94.26c-2.38,0-6.69-1.19-6.69-9.16V74.29h-1.46V70.44h1.65V64.12h4.12v6.32h3.57v3.85h-3.39V85.83c0,3.57,1.28,4.76,2.66,4.76a2.55,2.55,0,0,0,1.28-.18v3.85h-1.74"/><path class="cls-1" d="M189.72,80.06c-1,0-3.12,2.1-3.12,6.68,0,2.94.92,3.85,1.65,3.85s1.19-.73,1.47-1.19m.27,4.86V92.79l-1.46,1.65h-.74c-2.93,0-5.58-3.3-5.58-7.7,0-7.41,5.58-10.35,7.51-10.53v-.55a1.93,1.93,0,0,0-1.93-1.92,12.11,12.11,0,0,0-3.11.55V70.44a19.34,19.34,0,0,1,3.39-.27c3.57,0,6,1.64,6,7V94.26Z"/><path class="cls-1" d="M203.91,94.44c-1.64,0-7.69-1.19-7.69-12.28,0-10.8,6.05-12,7.69-12h2.2v3.58h-1.19c-1.74,0-4.12,1.46-4.12,8.42,0,7.24,2.38,8.71,4.12,8.71a1.88,1.88,0,0,0,1.19-.28v3.67a10.23,10.23,0,0,1-2.2.18"/><path class="cls-1" d="M213.35,73.74c-1.19,0-1.92,1.28-1.92,7.23v1.19c1.19-.18,3.11-2.1,3.11-5.49,0-2.2-.46-2.93-1.19-2.93m-1.74,12.09c.27,3.57,1.46,5,3.11,5a1.8,1.8,0,0,0,1.29-.28v3.67a4.42,4.42,0,0,1-1.74.18c-3.12,0-7.42-1.92-7.42-12.28,0-10.53,3.84-12,6.5-12,2.38,0,5.5,1.65,5.5,6.78A9,9,0,0,1,211.61,85.83Z"/><path class="cls-1" d="M229.2,94.26V77.13c0-1.65-.74-3.12-1.93-3.12-.91,0-1.65,1.47-1.65,3.12V94.26H221V70.44h4.13v1.19l1.37-1.47h.73c3.85,0,6.32,2.66,6.32,8.16V94.26"/><path class="cls-1" d="M243.49,94.26c-2.66,0-6.78-1.19-6.78-9.16V74.29h-1.47V70.44h1.47V64.12H241v6.32h3.39v3.85h-3.11V85.83c0,3.57,1.19,4.76,2.65,4.76.19,0,.74,0,.92-.18v3.85h-1.37"/><path class="cls-1" d="M252.83,73.74c-.92,0-1.92,1.28-1.92,7.23v1.19c1.46-.18,3.11-2.1,3.11-5.49,0-2.2-.18-2.93-1.19-2.93m-1.65,12.09c.18,3.57,1.65,5,3.11,5a2.93,2.93,0,0,0,1.47-.28v3.67a5.73,5.73,0,0,1-1.74.18c-3.39,0-7.69-1.92-7.69-12.28,0-10.53,4.12-12,6.5-12s5.59,1.65,5.59,6.78A9.1,9.1,0,0,1,251.18,85.83Z"/><path class="cls-1" d="M268.77,74.29c-2.2,0-3.67,1.65-3.67,4.58V94.26h-4.58V70.44h4.4v1.65a4.42,4.42,0,0,1,3.57-1.65h1v3.85"/><path class="cls-1" d="M164.43,70.44v17c0,1.74-.73,3.11-1.92,3.11-1,0-1.74-1.37-1.74-3.11v-17h-4.58V86c0,5.77,3.12,8.43,6.78,8.43,3.39,0,5.77-3.57,5.77-8.43V70.44"/><path class="cls-1" d="M100.31,94.44c-3.57,0-9.61-1.65-9.61-14.84,0-10.9,5.77-15.48,10.07-15.48a4.71,4.71,0,0,1,2.66.55v3.85a4.16,4.16,0,0,0-2.38-.55c-3.67.27-5.59,6.5-5.59,11.63,0,10.08,3.66,11,5.59,11a4.39,4.39,0,0,0,1.65-.18v3.85a13.73,13.73,0,0,1-2.39.18"/><path class="cls-1" d="M110.21,74c-1.19,0-2.2,1.65-2.2,8.43,0,6.5,1,8.15,2.2,8.15.91,0,2.2-1.65,2.2-8.15,0-6.78-1.29-8.43-2.2-8.43m0,20.43c-2.38,0-6.78-1.19-6.78-12,0-11.08,4.4-12.28,6.78-12.28,2.2,0,6.5,1.2,6.5,12.28C116.71,93.25,112.41,94.44,110.21,94.44Z"/><path class="cls-1" d="M172.86,44a8.93,8.93,0,1,1,0-17.86V22.26A12.61,12.61,0,0,0,160.31,35a12.4,12.4,0,0,0,12.55,12.55"/><path class="cls-1" d="M172.86,50.47a15.44,15.44,0,1,1,0-30.87v-5a20.48,20.48,0,1,0,0,40.95"/><path class="cls-1" d="M187.33,44a8.94,8.94,0,0,0,0-17.86V22.26A12.59,12.59,0,0,1,199.79,35a12.37,12.37,0,0,1-12.46,12.55"/><path class="cls-1" d="M187.33,50.47a15.44,15.44,0,0,0,0-30.87v-5a20.48,20.48,0,0,1,0,40.95"/><path class="cls-1" d="M185.14,20.15a5.09,5.09,0,1,1-10.17,0,5.09,5.09,0,1,1,10.17,0"/></svg>