<svg id="Ebene_1" data-name="Ebene 1" xmlns="http://www.w3.org/2000/svg" viewBox="0 0 350 120"><defs><style>.cls-1{fill:#fff;}</style></defs><title>Client_Logo_Zeichenfläche_1</title><path class="cls-1" d="M166.48,91.08H278.61v3.45H143.25c-9-.11-27.34-3.19-41.85-11.84-19.83-11.83-29.07-24.77-30-26.14h89.78a17.74,17.74,0,0,0-5.92,32.81c2.63,1.53,5.41,1.72,8.67,1.72Z"/><path class="cls-1" d="M160.33,53.09h5.87V32h-6V42.68c0,2.56-.69,5.12-3.34,5.12-3.43,0-3-4-3-5.93V31.92h-6.08V44.64c0,5,1.61,8.12,6.53,8.56,4.58.41,5.94-3.05,5.94-3.05Z"/><path class="cls-1" d="M270.53,69.16a7.47,7.47,0,0,0-6-3.18,7.88,7.88,0,0,0,0,15.73,7.37,7.37,0,0,0,6.16-3.41H262.7V72.05h15.8a15.26,15.26,0,0,1,.11,1.8,14.2,14.2,0,1,1-.74-4.69Z"/><path class="cls-1" d="M241.19,77.63l-4,0,4.1-6.6Zm-.1,5.82v4.19h7V60h-6.56l-19,27.64h8.39l2.63-4.19Z"/><path class="cls-1" d="M246.17,38.37l-7.76,4.48s-.66-4.13,2.91-5.46a4.94,4.94,0,0,1,4.85,1m5.12,12.29V43.8a8.77,8.77,0,0,1-4.66,3.73c-3.32,1.1-4.85-.05-5.88-1l12.78-7.42a10.27,10.27,0,0,0-9.82-7.5,10.71,10.71,0,0,0-10.89,11.5A10.74,10.74,0,0,0,243.48,53.6c3.57,0,5.21-.53,7.81-2.94"/><path class="cls-1" d="M190.34,72c2.88,0,4.55,2.3,4.55,5s-1.67,5-4.55,5-4.55-2.16-4.55-5,1.68-5,4.55-5M201,66.74l-5.89,0v1.76c-1.35-1.8-3.63-2.39-6.23-2.39-5.64,0-9.46,5.55-9.29,11.28S184,88.11,190,88.1c2.13,0,5.11-2,5.11-2v1.48h6Z"/><path class="cls-1" d="M195.17,42.69a4.77,4.77,0,1,1,4.77,5,4.86,4.86,0,0,1-4.77-5m9.43,10.4h6.08V25.49h-6.12v8.6a8,8,0,0,0-5.46-2c-5.83-.08-10,5-10,10.75s4.58,10.6,10.05,10.6a7.24,7.24,0,0,0,5.39-2.2Z"/><path class="cls-1" d="M135.57,47.81a5.07,5.07,0,1,1,4.8-5.06,4.94,4.94,0,0,1-4.8,5.06m1-16a7.77,7.77,0,0,0-5.37,2l0-8.25h-6.1v27.6H131v-2a7.83,7.83,0,0,0,5.58,2.31c5.45,0,10-4.93,10-10.66s-4.19-11-10-10.92"/><path class="cls-1" d="M103.74,38.22,95.92,42.7s-.66-4.13,2.93-5.46a5,5,0,0,1,4.89,1m5.16,12.29V43.65a8.85,8.85,0,0,1-4.69,3.73c-3.36,1.09-4.89-.05-5.93-1L111.16,39a10.34,10.34,0,0,0-9.9-7.5,10.74,10.74,0,0,0-11,11.5A10.77,10.77,0,0,0,101,53.44c3.6.05,5.25-.52,7.87-2.93"/><polygon class="cls-1" points="261.15 37.41 261.15 53.1 255.13 53.1 255.14 25.49 261.15 25.49 261.15 31.97 278.61 31.97 278.61 37.02 271.07 47.57 278.61 47.57 278.61 53.1 263.78 53.1 263.78 48.22 271.68 37.41 261.15 37.41"/><path class="cls-1" d="M170.62,69.17a7.47,7.47,0,0,0-6-3.18,7.88,7.88,0,0,0,0,15.74,7.35,7.35,0,0,0,6.16-3.42h-8V72.07h15.8a15,15,0,0,1,.11,1.79,14.19,14.19,0,1,1-.74-4.69Z"/><polygon class="cls-1" points="78.24 25.46 71.39 25.46 71.39 53.1 79.27 53.1 98.33 25.46 90.57 25.46 78.24 42.9 78.24 25.46"/><path class="cls-1" d="M123.42,31.2a5.35,5.35,0,0,0-5.22,3.65V32h-5.82V53.1h6.23V42.18c0-2.94,1.24-4.46,4.83-4.44-.06.12,0-6.54,0-6.54"/><path class="cls-1" d="M218.35,72.94c0-4.75-3.49-6.7-7.34-6.7-4,0-7.86,2.7-7.87,6.85a6,6,0,0,0,4.31,6c2.11.6,4.88.67,5,2.82a1.58,1.58,0,0,1-1.76,1.54c-1.89,0-2.06-1.06-2.24-2.24h-5.93a7.49,7.49,0,0,0,7.52,6.91c5.19.12,9-2.46,9.06-7.06s-3.76-5.67-6-6.22c-.92-.22-3.66-.9-3.66-2.31a1.64,1.64,0,0,1,1.6-1.68c1.54,0,1.67,1.25,1.87,2.12Z"/><path class="cls-1" d="M218.59,32h-5.88V53.09h6V42.18c0-2.56.69-4.85,3.34-4.85,3.72,0,3.32,3.67,3.32,5.63l0,10.13h6.07V40.19c0-5-2-8.08-6.9-8.52-4.58-.41-6,3-6,3Z"/><path class="cls-1" d="M174.68,32h-5.87V53.09h6V42.18c0-2.56.69-4.85,3.33-4.85,3.73,0,3.35,3.67,3.35,5.63V53.09h6.07V40.19c0-5-2-8.08-6.9-8.52-4.58-.41-6,3-6,3Z"/></svg>