<?xml version="1.0" encoding="utf-8"?>
<!-- Generator: Adobe Illustrator 23.0.4, SVG Export Plug-In . SVG Version: 6.00 Build 0)  -->
<svg version="1.1" id="Ebene_1" xmlns="http://www.w3.org/2000/svg" xmlns:xlink="http://www.w3.org/1999/xlink" x="0px" y="0px"
	 viewBox="0 0 178 32" style="enable-background:new 0 0 178 32;" xml:space="preserve">
<style type="text/css">
	.st0{fill:#FFFFFF;}
</style>
<g>
	<path class="st0" d="M16.2,10.6h-3l-0.6,3.1h2.7l-0.2,0.8h-2.7L11.9,18h3l-0.2,0.8h-4.1l1.7-8.9h4.1L16.2,10.6z"/>
	<path class="st0" d="M19.9,15.1l1.5,3.7h-1.2l-1-2.8h0l-2.1,2.8h-1.2l2.9-3.7l-1.3-3.3h1.2l0.9,2.5h0l1.9-2.5h1.1L19.9,15.1z"/>
	<path class="st0" d="M28.9,14.2c0,0.5-0.1,1-0.2,1.6c-0.1,0.5-0.4,1-0.7,1.5s-0.7,0.8-1.2,1.1c-0.5,0.3-1.1,0.4-1.7,0.4
		c-0.2,0-0.4,0-0.6-0.1c-0.2,0-0.4-0.1-0.5-0.1l-0.6,2.9h-1.1l1.8-9.5c0.4-0.2,0.7-0.3,1.1-0.4c0.4-0.1,0.7-0.1,1.1-0.1
		c0.4,0,0.8,0.1,1.1,0.2c0.3,0.1,0.6,0.3,0.8,0.5c0.2,0.2,0.4,0.5,0.5,0.8C28.9,13.5,28.9,13.9,28.9,14.2z M27.8,14.2
		c0-0.6-0.1-1-0.4-1.4s-0.6-0.5-1.2-0.5c-0.2,0-0.4,0-0.5,0c-0.2,0-0.4,0.1-0.5,0.1L24.2,18c0.1,0,0.2,0.1,0.4,0.1s0.3,0,0.5,0
		c0.6,0,1-0.2,1.5-0.5c0.4-0.3,0.7-0.8,1-1.4c0.1-0.2,0.1-0.3,0.2-0.5c0.1-0.2,0.1-0.4,0.1-0.6c0-0.2,0.1-0.4,0.1-0.6
		C27.8,14.5,27.8,14.4,27.8,14.2z"/>
	<path class="st0" d="M36.1,13.9c0,0.4,0,0.7-0.1,1.1l-4.5,0.7c0,0.2,0,0.4,0,0.5c0,0.6,0.1,1,0.4,1.4c0.3,0.3,0.7,0.5,1.3,0.5
		c0.3,0,0.6,0,0.9-0.1s0.6-0.2,0.8-0.3l0.2,0.8c-0.3,0.2-0.6,0.3-1,0.4s-0.8,0.1-1.2,0.1c-0.8,0-1.5-0.2-1.9-0.7
		c-0.4-0.5-0.6-1.1-0.6-2c0-0.5,0.1-1,0.2-1.5c0.1-0.5,0.4-1,0.6-1.5c0.3-0.5,0.7-0.8,1.1-1.1c0.5-0.3,1-0.4,1.6-0.4
		c0.7,0,1.2,0.2,1.6,0.6C35.9,12.6,36.1,13.2,36.1,13.9z M35,13.7c0-0.5-0.1-0.8-0.3-1s-0.5-0.4-0.9-0.4c-0.3,0-0.6,0.1-0.8,0.2
		c-0.2,0.1-0.5,0.3-0.7,0.6c-0.2,0.2-0.4,0.5-0.5,0.9s-0.2,0.7-0.3,1.1l3.5-0.5C35,14.3,35,14,35,13.7z"/>
	<path class="st0" d="M42,12.7c-0.3-0.2-0.6-0.3-1.1-0.3c-0.4,0-0.7,0.1-1,0.4s-0.6,0.6-0.8,1c-0.2,0.4-0.3,0.8-0.4,1.2
		c-0.1,0.4-0.2,0.9-0.2,1.2c0,0.5,0.1,1,0.3,1.3c0.2,0.3,0.5,0.5,1,0.5c0.2,0,0.4,0,0.6-0.1c0.2-0.1,0.4-0.1,0.5-0.3l0.2,0.7
		c-0.4,0.3-1,0.5-1.6,0.5c-0.3,0-0.7-0.1-0.9-0.2c-0.3-0.1-0.5-0.3-0.7-0.5s-0.3-0.5-0.4-0.8c-0.1-0.3-0.1-0.7-0.1-1.1
		c0-0.5,0.1-1.1,0.2-1.6c0.2-0.6,0.4-1.1,0.7-1.5c0.3-0.5,0.7-0.8,1.1-1.1c0.4-0.3,0.9-0.4,1.5-0.4c0.3,0,0.6,0,0.9,0.1
		c0.3,0.1,0.5,0.2,0.7,0.3L42,12.7z"/>
	<path class="st0" d="M46.8,12.5h-1.2l-0.9,4.4c0,0.1,0,0.2,0,0.3c0,0.1,0,0.1,0,0.2c0,0.2,0.1,0.4,0.2,0.5C45,18,45.2,18,45.4,18
		c0.1,0,0.2,0,0.2,0c0.1,0,0.1,0,0.2-0.1l-0.2,0.8c-0.1,0-0.2,0.1-0.3,0.1c-0.1,0-0.2,0-0.4,0c-0.4,0-0.8-0.1-1-0.4s-0.4-0.6-0.4-1
		c0-0.2,0-0.4,0.1-0.6l0.8-4.4h-0.8l0.1-0.7h0.8l0.3-1.6l1.2-0.4l-0.4,2H47L46.8,12.5z"/>
	<path class="st0" d="M53.3,13.9c0,0.4,0,0.7-0.1,1.1l-4.5,0.7c0,0.2,0,0.4,0,0.5c0,0.6,0.1,1,0.4,1.4c0.3,0.3,0.7,0.5,1.3,0.5
		c0.3,0,0.6,0,0.9-0.1s0.6-0.2,0.8-0.3l0.2,0.8c-0.3,0.2-0.6,0.3-1,0.4s-0.8,0.1-1.2,0.1c-0.8,0-1.5-0.2-1.9-0.7
		c-0.4-0.5-0.6-1.1-0.6-2c0-0.5,0.1-1,0.2-1.5c0.1-0.5,0.4-1,0.6-1.5c0.3-0.5,0.7-0.8,1.1-1.1c0.5-0.3,1-0.4,1.6-0.4
		c0.7,0,1.2,0.2,1.6,0.6C53.1,12.6,53.3,13.2,53.3,13.9z M52.2,13.7c0-0.5-0.1-0.8-0.3-1s-0.5-0.4-0.9-0.4c-0.3,0-0.6,0.1-0.8,0.2
		c-0.2,0.1-0.5,0.3-0.7,0.6c-0.2,0.2-0.4,0.5-0.5,0.9s-0.2,0.7-0.3,1.1l3.5-0.5C52.2,14.3,52.2,14,52.2,13.7z"/>
	<path class="st0" d="M59.4,18.4c-0.3,0.2-0.6,0.3-1,0.4s-0.8,0.1-1.3,0.1c-0.4,0-0.8-0.1-1.1-0.2c-0.3-0.1-0.6-0.3-0.8-0.5
		c-0.2-0.2-0.4-0.5-0.5-0.8c-0.1-0.3-0.2-0.7-0.2-1.1c0-0.5,0.1-1,0.2-1.6c0.2-0.5,0.4-1,0.7-1.5s0.7-0.8,1.2-1.1
		c0.5-0.3,1.1-0.4,1.7-0.4c0.2,0,0.3,0,0.5,0c0.2,0,0.4,0.1,0.5,0.1l0.6-3.3h1.1L59.4,18.4z M59.4,12.5c-0.3-0.1-0.6-0.1-0.9-0.1
		c-0.5,0-1,0.1-1.3,0.4c-0.4,0.3-0.6,0.6-0.9,1c-0.2,0.4-0.4,0.8-0.5,1.2s-0.2,0.9-0.2,1.3c0,0.3,0,0.5,0.1,0.7
		c0.1,0.2,0.2,0.4,0.3,0.6c0.1,0.2,0.3,0.3,0.5,0.4c0.2,0.1,0.4,0.1,0.7,0.1c0.2,0,0.4,0,0.6,0c0.2,0,0.4-0.1,0.5-0.1L59.4,12.5z"/>
	<path class="st0" d="M71.7,18.8h-1l-0.4-5c0-0.1,0-0.2,0-0.3v-0.5h0c0,0.1-0.1,0.3-0.1,0.4c0,0.1-0.1,0.3-0.2,0.4l-2.4,5h-1l-0.7-7
		h1.1l0.2,5v0.5c0,0.1,0,0.2,0,0.4h0c0.1-0.2,0.1-0.3,0.2-0.5c0.1-0.1,0.1-0.3,0.2-0.4l2.4-5h1l0.4,5c0,0.1,0,0.2,0,0.3
		c0,0.1,0,0.2,0,0.2v0.1c0,0.1,0,0.1,0,0.2h0c0-0.2,0.1-0.3,0.1-0.5c0-0.1,0.1-0.3,0.2-0.4l2.2-5h1.1L71.7,18.8z"/>
	<path class="st0" d="M76.6,18.8h-1.1l1.4-7h1.1L76.6,18.8z M78.4,9.7c0,0.2-0.1,0.4-0.2,0.5c-0.1,0.1-0.3,0.2-0.6,0.2
		c-0.2,0-0.3-0.1-0.4-0.2c-0.1-0.1-0.2-0.2-0.2-0.4c0-0.2,0.1-0.4,0.2-0.5c0.1-0.1,0.3-0.2,0.6-0.2c0.2,0,0.3,0.1,0.4,0.2
		S78.4,9.5,78.4,9.7z"/>
	<path class="st0" d="M84.8,13.4c0,0.1,0,0.2,0,0.4c0,0.1,0,0.2,0,0.3l-0.9,4.7h-1.1l0.9-4.7c0-0.1,0-0.2,0.1-0.3s0-0.2,0-0.3
		c0-0.3-0.1-0.6-0.3-0.8c-0.2-0.2-0.5-0.3-1-0.3c-0.5,0-0.9,0.1-1.3,0.2l-1.2,6.2h-1.1l1.3-6.6c0.7-0.3,1.6-0.5,2.5-0.5
		c0.8,0,1.4,0.2,1.7,0.5C84.6,12.4,84.8,12.9,84.8,13.4z"/>
	<path class="st0" d="M91,18.4c-0.3,0.2-0.6,0.3-1,0.4s-0.8,0.1-1.3,0.1c-0.4,0-0.8-0.1-1.1-0.2c-0.3-0.1-0.6-0.3-0.8-0.5
		c-0.2-0.2-0.4-0.5-0.5-0.8c-0.1-0.3-0.2-0.7-0.2-1.1c0-0.5,0.1-1,0.2-1.6c0.2-0.5,0.4-1,0.7-1.5s0.7-0.8,1.2-1.1
		c0.5-0.3,1.1-0.4,1.7-0.4c0.2,0,0.3,0,0.5,0c0.2,0,0.4,0.1,0.5,0.1l0.6-3.3h1.1L91,18.4z M91,12.5c-0.3-0.1-0.6-0.1-0.9-0.1
		c-0.5,0-1,0.1-1.3,0.4c-0.4,0.3-0.6,0.6-0.9,1c-0.2,0.4-0.4,0.8-0.5,1.2s-0.2,0.9-0.2,1.3c0,0.3,0,0.5,0.1,0.7
		c0.1,0.2,0.2,0.4,0.3,0.6c0.1,0.2,0.3,0.3,0.5,0.4c0.2,0.1,0.4,0.1,0.7,0.1c0.2,0,0.4,0,0.6,0c0.2,0,0.4-0.1,0.5-0.1L91,12.5z"/>
	<path class="st0" d="M99.1,14.2c0,0.3,0,0.5-0.1,0.9c0,0.3-0.1,0.7-0.2,1c-0.1,0.4-0.2,0.7-0.4,1c-0.2,0.3-0.4,0.6-0.7,0.9
		s-0.6,0.5-0.9,0.6c-0.4,0.2-0.8,0.2-1.2,0.2c-0.7,0-1.3-0.2-1.6-0.7s-0.5-1.1-0.5-1.8c0-0.3,0-0.6,0.1-0.9c0-0.3,0.1-0.7,0.2-1
		c0.1-0.4,0.3-0.7,0.4-1c0.2-0.3,0.4-0.6,0.7-0.9c0.3-0.3,0.6-0.5,0.9-0.6c0.4-0.2,0.8-0.2,1.2-0.2c0.7,0,1.3,0.2,1.6,0.7
		S99.1,13.4,99.1,14.2z M98,14.1c0-0.5-0.1-0.9-0.3-1.3s-0.5-0.5-0.9-0.5c-0.4,0-0.7,0.1-1,0.4c-0.3,0.2-0.5,0.6-0.7,1
		c-0.1,0.2-0.2,0.4-0.2,0.6c-0.1,0.2-0.1,0.5-0.2,0.7c-0.1,0.2-0.1,0.5-0.1,0.7c0,0.2,0,0.4,0,0.6c0,0.5,0.1,0.9,0.3,1.3
		c0.2,0.3,0.5,0.5,0.9,0.5c0.4,0,0.7-0.1,1-0.4c0.3-0.3,0.5-0.6,0.7-1c0.1-0.2,0.2-0.4,0.2-0.6c0.1-0.2,0.1-0.5,0.2-0.7
		c0.1-0.2,0.1-0.5,0.1-0.7C98,14.5,98,14.3,98,14.1z"/>
	<path class="st0" d="M106.7,18.8h-1l-0.4-5c0-0.1,0-0.2,0-0.3v-0.5h0c0,0.1-0.1,0.3-0.1,0.4c0,0.1-0.1,0.3-0.2,0.4l-2.4,5h-1
		l-0.7-7h1.1l0.2,5v0.5c0,0.1,0,0.2,0,0.4h0c0.1-0.2,0.1-0.3,0.2-0.5c0.1-0.1,0.1-0.3,0.2-0.4l2.4-5h1l0.4,5c0,0.1,0,0.2,0,0.3
		c0,0.1,0,0.2,0,0.2v0.1c0,0.1,0,0.1,0,0.2h0c0-0.2,0.1-0.3,0.1-0.5s0.1-0.3,0.2-0.4l2.2-5h1.1L106.7,18.8z"/>
	<path class="st0" d="M119.9,14.2c0,0.3,0,0.5-0.1,0.9c0,0.3-0.1,0.7-0.2,1c-0.1,0.4-0.2,0.7-0.4,1c-0.2,0.3-0.4,0.6-0.7,0.9
		s-0.6,0.5-0.9,0.6c-0.4,0.2-0.8,0.2-1.2,0.2c-0.7,0-1.3-0.2-1.6-0.7s-0.5-1.1-0.5-1.8c0-0.3,0-0.6,0.1-0.9c0-0.3,0.1-0.7,0.2-1
		c0.1-0.4,0.3-0.7,0.4-1c0.2-0.3,0.4-0.6,0.7-0.9c0.3-0.3,0.6-0.5,0.9-0.6c0.4-0.2,0.8-0.2,1.2-0.2c0.7,0,1.3,0.2,1.6,0.7
		S119.9,13.4,119.9,14.2z M118.8,14.1c0-0.5-0.1-0.9-0.3-1.3s-0.5-0.5-0.9-0.5c-0.4,0-0.7,0.1-1,0.4c-0.3,0.2-0.5,0.6-0.7,1
		c-0.1,0.2-0.2,0.4-0.2,0.6c-0.1,0.2-0.1,0.5-0.2,0.7c-0.1,0.2-0.1,0.5-0.1,0.7c0,0.2,0,0.4,0,0.6c0,0.5,0.1,0.9,0.3,1.3
		c0.2,0.3,0.5,0.5,0.9,0.5c0.4,0,0.7-0.1,1-0.4c0.3-0.3,0.5-0.6,0.7-1c0.1-0.2,0.2-0.4,0.2-0.6c0.1-0.2,0.1-0.5,0.2-0.7
		c0.1-0.2,0.1-0.5,0.1-0.7C118.8,14.5,118.8,14.3,118.8,14.1z"/>
	<path class="st0" d="M125.4,9.3L125.4,9.3c-0.4,0-0.7,0.1-0.9,0.3c-0.3,0.2-0.4,0.6-0.5,1.1l-0.2,1h1.2l-0.1,0.7h-1.2l-1.2,6.3
		h-1.1l1.2-6.3h-0.8l0.1-0.7h0.8l0.2-1c0.1-0.7,0.4-1.3,0.8-1.6s1-0.6,1.7-0.6h0.1c0,0,0.1,0,0.2,0L125.4,9.3z"/>
	<path class="st0" d="M133,12.5c-0.3-0.1-0.5-0.1-0.7-0.1c-0.2,0-0.4,0-0.5,0.1c-0.2,0-0.3,0.1-0.4,0.1l-1.2,6.2H129l1.3-6.6
		c0.4-0.2,0.7-0.3,1.1-0.4c0.4-0.1,0.8-0.1,1.3-0.1c0.1,0,0.2,0,0.3,0c0.1,0,0.2,0,0.3,0L133,12.5z"/>
	<path class="st0" d="M139.4,13.9c0,0.4,0,0.7-0.1,1.1l-4.5,0.7c0,0.2,0,0.4,0,0.5c0,0.6,0.1,1,0.4,1.4c0.3,0.3,0.7,0.5,1.3,0.5
		c0.3,0,0.6,0,0.9-0.1c0.3-0.1,0.6-0.2,0.8-0.3l0.2,0.8c-0.3,0.2-0.6,0.3-1,0.4c-0.4,0.1-0.8,0.1-1.2,0.1c-0.8,0-1.5-0.2-1.9-0.7
		c-0.4-0.5-0.6-1.1-0.6-2c0-0.5,0.1-1,0.2-1.5c0.1-0.5,0.4-1,0.6-1.5c0.3-0.5,0.7-0.8,1.1-1.1c0.5-0.3,1-0.4,1.6-0.4
		c0.7,0,1.2,0.2,1.6,0.6C139.2,12.6,139.4,13.2,139.4,13.9z M138.3,13.7c0-0.5-0.1-0.8-0.3-1c-0.2-0.2-0.5-0.4-0.9-0.4
		c-0.3,0-0.6,0.1-0.8,0.2c-0.2,0.1-0.5,0.3-0.7,0.6c-0.2,0.2-0.4,0.5-0.5,0.9s-0.2,0.7-0.3,1.1l3.5-0.5
		C138.3,14.3,138.3,14,138.3,13.7z"/>
	<path class="st0" d="M144.2,12.5H143l-0.9,4.4c0,0.1,0,0.2,0,0.3c0,0.1,0,0.1,0,0.2c0,0.2,0.1,0.4,0.2,0.5c0.1,0.1,0.3,0.2,0.5,0.2
		c0.1,0,0.2,0,0.2,0c0.1,0,0.1,0,0.2-0.1l-0.2,0.8c-0.1,0-0.2,0.1-0.3,0.1c-0.1,0-0.2,0-0.4,0c-0.4,0-0.8-0.1-1-0.4
		c-0.3-0.3-0.4-0.6-0.4-1c0-0.2,0-0.4,0.1-0.6l0.8-4.4h-0.8l0.1-0.7h0.8l0.3-1.6l1.2-0.4l-0.4,2h1.2L144.2,12.5z"/>
	<path class="st0" d="M149.7,18.4c-0.3,0.2-0.7,0.3-1.1,0.4c-0.4,0.1-0.9,0.1-1.3,0.1c-0.7,0-1.2-0.2-1.6-0.5s-0.6-0.8-0.6-1.4
		c0-0.1,0-0.2,0-0.3l0.1-0.3l0.9-4.6h1.1l-0.9,4.7c0,0.2-0.1,0.4-0.1,0.6c0,0.3,0.1,0.6,0.3,0.8s0.5,0.3,0.9,0.3
		c0.2,0,0.5,0,0.7-0.1c0.2,0,0.4-0.1,0.6-0.2l1.2-6.1h1.1L149.7,18.4z"/>
	<path class="st0" d="M155.7,12.5c-0.3-0.1-0.5-0.1-0.7-0.1c-0.2,0-0.4,0-0.5,0.1c-0.2,0-0.3,0.1-0.4,0.1l-1.2,6.2h-1.1l1.3-6.6
		c0.4-0.2,0.7-0.3,1.1-0.4c0.4-0.1,0.8-0.1,1.3-0.1c0.1,0,0.2,0,0.3,0c0.1,0,0.2,0,0.3,0L155.7,12.5z"/>
	<path class="st0" d="M162.3,13.4c0,0.1,0,0.2,0,0.4c0,0.1,0,0.2,0,0.3l-0.9,4.7h-1.1l0.9-4.7c0-0.1,0-0.2,0.1-0.3
		c0-0.1,0-0.2,0-0.3c0-0.3-0.1-0.6-0.3-0.8c-0.2-0.2-0.5-0.3-1-0.3c-0.5,0-0.9,0.1-1.3,0.2l-1.2,6.2h-1.1l1.3-6.6
		c0.7-0.3,1.6-0.5,2.5-0.5c0.8,0,1.4,0.2,1.7,0.5C162.1,12.4,162.3,12.9,162.3,13.4z"/>
	<path class="st0" d="M168,12.8c-0.2-0.1-0.4-0.2-0.6-0.3s-0.4-0.1-0.7-0.1c-0.2,0-0.4,0-0.6,0.1c-0.2,0.1-0.3,0.2-0.4,0.3
		c-0.1,0.1-0.2,0.3-0.3,0.4c-0.1,0.2-0.1,0.3-0.1,0.5c0,0.2,0.1,0.4,0.2,0.5c0.1,0.1,0.3,0.3,0.4,0.4c0.2,0.1,0.4,0.2,0.6,0.3
		s0.4,0.2,0.6,0.4c0.2,0.2,0.3,0.3,0.4,0.5s0.2,0.5,0.2,0.8c0,0.3-0.1,0.6-0.2,0.9c-0.1,0.3-0.3,0.5-0.6,0.7
		c-0.2,0.2-0.5,0.4-0.9,0.5c-0.3,0.1-0.7,0.2-1.1,0.2c-0.3,0-0.7,0-1-0.1c-0.3-0.1-0.6-0.2-0.8-0.4l0.5-0.7c0.4,0.3,0.9,0.4,1.4,0.4
		c0.2,0,0.4,0,0.6-0.1c0.2-0.1,0.4-0.2,0.5-0.3c0.1-0.1,0.3-0.3,0.3-0.4c0.1-0.2,0.1-0.4,0.1-0.6c0-0.2-0.1-0.4-0.2-0.6
		c-0.1-0.1-0.3-0.3-0.4-0.4c-0.2-0.1-0.4-0.2-0.6-0.3c-0.2-0.1-0.4-0.2-0.6-0.4c-0.2-0.1-0.3-0.3-0.4-0.5c-0.1-0.2-0.2-0.5-0.2-0.8
		c0-0.3,0.1-0.5,0.2-0.8c0.1-0.3,0.3-0.5,0.5-0.7c0.2-0.2,0.5-0.4,0.8-0.5c0.3-0.1,0.7-0.2,1.1-0.2c0.7,0,1.2,0.2,1.7,0.5L168,12.8z
		"/>
</g>
</svg>
