<?xml version="1.0" encoding="utf-8"?>
<!-- Generator: Adobe Illustrator 23.0.6, SVG Export Plug-In . SVG Version: 6.00 Build 0)  -->
<svg version="1.1" id="Ebene_1" xmlns="http://www.w3.org/2000/svg" xmlns:xlink="http://www.w3.org/1999/xlink" x="0px" y="0px"
	 viewBox="0 0 475.4 479.8" style="enable-background:new 0 0 475.4 479.8;" xml:space="preserve">
<style type="text/css">
	.st0{fill:#061B2B;}
	.st1{fill:#FFFFFF;}
	.st2{fill:#4A5866;}
	.st3{opacity:0.5;}
	.st4{fill:#FCCD07;}
	.st5{fill:#B81F30;}
	.st6{fill:none;stroke:#FCCD07;stroke-width:4;stroke-miterlimit:10;}
	.st7{fill:none;stroke:#4A5866;stroke-width:1.0008;stroke-miterlimit:10;}
	.st8{fill:none;stroke:#4A5866;stroke-width:0.5;stroke-miterlimit:10;}
	.st9{fill:none;stroke:#061B2B;stroke-width:2;stroke-miterlimit:10;stroke-dasharray:4.74,4.74;}
	.st10{opacity:6.000000e-02;}
	.st11{opacity:9.000000e-02;}
	.st12{fill:#697A8A;}
	.st13{fill:#FFFFFF;stroke:#FFFFFF;stroke-width:2.38;stroke-miterlimit:10;stroke-dasharray:4.74,4.74;}
	.st14{opacity:0.5;fill:none;stroke:#4A5866;stroke-width:0.5;stroke-miterlimit:10;}
	.st15{opacity:6.000000e-02;fill:#FFFFFF;}
	.st16{opacity:9.000000e-02;fill:#FFFFFF;}
</style>
<g>
	<rect class="st0" width="475.4" height="479.8"/>
</g>
<g>
	<polygon class="st1" points="182.7,112 166.6,102.7 175.9,118.9 	"/>
</g>
<g>
	<rect x="71.5" y="19.8" class="st2" width="384.7" height="1"/>
</g>
<g>
	<rect x="71.5" y="95.6" class="st2" width="384.7" height="1"/>
</g>
<g>
	<rect x="71.5" y="171.5" class="st2" width="384.7" height="1"/>
</g>
<g>
	<rect x="71.5" y="247.3" class="st2" width="384.7" height="1"/>
</g>
<g>
	<rect x="71.5" y="323.2" class="st2" width="384.7" height="1"/>
</g>
<g>
	<rect x="71.5" y="399" class="st2" width="384.7" height="1"/>
</g>
<g class="st3">
	<rect x="73.5" y="57.9" class="st2" width="382.7" height="0.5"/>
</g>
<g class="st3">
	<rect x="73.3" y="133.8" class="st2" width="382.7" height="0.5"/>
</g>
<g class="st3">
	<rect x="73.3" y="209.7" class="st2" width="382.7" height="0.5"/>
</g>
<g class="st3">
	<rect x="73.3" y="285.5" class="st2" width="382.7" height="0.5"/>
</g>
<g class="st3">
	<rect x="73.3" y="361.4" class="st2" width="382.7" height="0.5"/>
</g>
<g>
	<rect x="455.7" y="20.4" class="st2" width="1" height="384.7"/>
</g>
<g>
	<rect x="417.8" y="20.4" class="st2" width="1" height="384.7"/>
</g>
<g>
	<rect x="379.8" y="20.4" class="st2" width="1" height="384.7"/>
</g>
<g>
	<rect x="341.9" y="20.4" class="st2" width="1" height="384.7"/>
</g>
<g>
	<rect x="304" y="20.4" class="st2" width="1" height="384.7"/>
</g>
<g>
	<rect x="266.1" y="20.4" class="st2" width="1" height="384.7"/>
</g>
<g>
	<rect x="228.1" y="20.4" class="st2" width="1" height="384.7"/>
</g>
<g>
	<rect x="190.2" y="20.4" class="st2" width="1" height="384.7"/>
</g>
<g>
	<path class="st1" d="M218.8,156.6l-3.4-3.4l1.7-1.7l3.4,3.4L218.8,156.6z M212.1,149.9l-3.4-3.4l1.7-1.7l3.4,3.4L212.1,149.9z
		 M205.4,143.2l-3.4-3.4l1.7-1.7l3.4,3.4L205.4,143.2z M198.7,136.5l-3.4-3.4l1.7-1.7l3.4,3.4L198.7,136.5z M192,129.8l-3.4-3.4
		l1.7-1.7l3.4,3.4L192,129.8z M185.3,123.1l-3.4-3.4l1.7-1.7l3.4,3.4L185.3,123.1z"/>
</g>
<g>
	<rect x="152.3" y="20.4" class="st2" width="1" height="384.7"/>
</g>
<g>
	<rect x="114.4" y="20.4" class="st2" width="1" height="384.7"/>
</g>
<g>
	<rect x="76.4" y="20.4" class="st2" width="1" height="384.7"/>
</g>
<g>
	<polygon class="st4" points="77.9,402.2 74,401.3 116.1,209.8 116.2,209.7 160.3,94.5 202.5,56.5 244.9,38.3 287.5,31 329.6,27.3 
		371.7,22.4 414.3,19.3 457.2,18.3 457.2,22.3 414.5,23.3 372.1,26.4 330,31.3 287.9,35 246.1,42.1 204.7,59.9 163.6,96.8 120,211 	
		"/>
</g>
<g>
	<rect x="215.7" y="151.3" class="st1" width="205.3" height="72.2"/>
</g>
<g>
	<g>
		<path class="st5" d="M224.3,175.2l4.4-6.5c0.3-0.5,0.5-0.9,0.7-1.2s0.2-0.7,0.2-1.1c0-0.5-0.2-1-0.5-1.3c-0.3-0.3-0.8-0.5-1.5-0.5
			c-0.4,0-0.8,0-1.2,0.1c-0.4,0.1-0.8,0.2-1,0.3l-0.7-1.8c0.5-0.2,1-0.4,1.6-0.5c0.6-0.1,1.2-0.2,1.9-0.2c0.8,0,1.4,0.1,2,0.3
			c0.5,0.2,1,0.4,1.3,0.7c0.4,0.3,0.6,0.7,0.8,1.1c0.2,0.4,0.3,0.9,0.3,1.4c0,0.5-0.1,1-0.4,1.6c-0.3,0.6-0.7,1.2-1.3,1.9l-2.5,3.2
			h4.2v2.3H224.3z"/>
	</g>
	<g>
		<path class="st5" d="M242.9,169c0,0.8-0.1,1.6-0.3,2.4c-0.2,0.8-0.4,1.4-0.8,2c-0.3,0.6-0.8,1.1-1.4,1.4c-0.6,0.4-1.2,0.5-2,0.5
			c-0.8,0-1.4-0.2-2-0.5c-0.6-0.4-1-0.8-1.3-1.4c-0.3-0.6-0.6-1.3-0.8-2c-0.2-0.8-0.3-1.6-0.3-2.4s0.1-1.6,0.3-2.4
			c0.2-0.8,0.4-1.4,0.8-2c0.3-0.6,0.8-1.1,1.3-1.4c0.6-0.4,1.2-0.5,2-0.5c0.8,0,1.4,0.2,2,0.5c0.6,0.4,1,0.8,1.4,1.4
			c0.3,0.6,0.6,1.3,0.8,2C242.8,167.3,242.9,168.1,242.9,169z M240.1,168.9c0-0.6,0-1.2-0.1-1.8c0-0.6-0.1-1-0.2-1.4s-0.3-0.7-0.5-1
			s-0.5-0.4-0.8-0.4c-0.3,0-0.6,0.1-0.8,0.4s-0.4,0.6-0.5,1c-0.1,0.4-0.2,0.9-0.3,1.4c0,0.6-0.1,1.1-0.1,1.8s0,1.2,0.1,1.8
			c0,0.6,0.1,1,0.3,1.4c0.1,0.4,0.3,0.7,0.5,1c0.2,0.2,0.5,0.4,0.8,0.4c0.3,0,0.6-0.1,0.8-0.4c0.2-0.2,0.4-0.6,0.5-1
			s0.2-0.9,0.2-1.4C240.1,170.2,240.1,169.6,240.1,168.9z"/>
	</g>
	<g>
		<path class="st5" d="M250.3,166.4c0,0.5-0.1,1-0.2,1.5c-0.1,0.5-0.3,0.9-0.5,1.2s-0.5,0.6-0.9,0.8c-0.4,0.2-0.8,0.3-1.3,0.3
			c-0.5,0-0.9-0.1-1.3-0.3c-0.4-0.2-0.7-0.5-0.9-0.8s-0.4-0.8-0.5-1.2s-0.2-1-0.2-1.5s0.1-1,0.2-1.5s0.3-0.9,0.5-1.2
			c0.2-0.4,0.5-0.6,0.9-0.8c0.4-0.2,0.8-0.3,1.3-0.3c0.5,0,0.9,0.1,1.3,0.3c0.4,0.2,0.7,0.5,0.9,0.8c0.2,0.4,0.4,0.8,0.5,1.2
			C250.3,165.4,250.3,165.9,250.3,166.4z M248.4,166.4c0-0.8-0.1-1.4-0.2-1.9c-0.2-0.5-0.4-0.7-0.8-0.7c-0.4,0-0.6,0.2-0.8,0.7
			s-0.2,1.1-0.2,1.9c0,0.8,0.1,1.4,0.2,1.9s0.4,0.7,0.8,0.7c0.4,0,0.6-0.2,0.8-0.7C248.4,167.8,248.4,167.2,248.4,166.4z
			 M250.5,175.4l-1.5-0.5l4.2-12.4l1.5,0.5L250.5,175.4z M259.2,171.5c0,0.5-0.1,1-0.2,1.5c-0.1,0.5-0.3,0.9-0.5,1.2
			c-0.2,0.4-0.5,0.6-0.9,0.8c-0.4,0.2-0.8,0.3-1.3,0.3c-0.5,0-0.9-0.1-1.3-0.3c-0.4-0.2-0.7-0.5-0.9-0.8c-0.2-0.4-0.4-0.8-0.5-1.2
			c-0.1-0.5-0.2-1-0.2-1.5s0.1-1,0.2-1.5c0.1-0.5,0.3-0.9,0.5-1.2c0.2-0.4,0.5-0.6,0.9-0.8c0.4-0.2,0.8-0.3,1.3-0.3
			c0.5,0,0.9,0.1,1.3,0.3c0.4,0.2,0.7,0.5,0.9,0.8c0.2,0.4,0.4,0.8,0.5,1.2C259.2,170.5,259.2,171,259.2,171.5z M257.4,171.5
			c0-0.8-0.1-1.4-0.2-1.9s-0.4-0.7-0.8-0.7c-0.4,0-0.6,0.2-0.8,0.7c-0.1,0.5-0.2,1.1-0.2,1.9c0,0.8,0.1,1.4,0.2,1.9
			c0.2,0.5,0.4,0.7,0.8,0.7c0.4,0,0.6-0.2,0.8-0.7S257.4,172.2,257.4,171.5z"/>
	</g>
	<g>
		<path class="st5" d="M274.4,170.3c0,0.7-0.1,1.4-0.3,2c-0.2,0.6-0.5,1.2-0.8,1.6c-0.4,0.5-0.8,0.8-1.4,1.1s-1.2,0.4-1.9,0.4
			c-0.7,0-1.4-0.1-1.9-0.4c-0.5-0.3-1-0.6-1.4-1.1s-0.6-1-0.8-1.6c-0.2-0.6-0.3-1.3-0.3-2c0-0.7,0.1-1.4,0.3-2
			c0.2-0.6,0.5-1.1,0.8-1.6c0.4-0.4,0.8-0.8,1.4-1c0.5-0.3,1.2-0.4,1.9-0.4c0.7,0,1.4,0.1,1.9,0.4s1,0.6,1.4,1
			c0.4,0.4,0.6,1,0.8,1.6C274.3,168.9,274.4,169.6,274.4,170.3z M271.6,170.3c0-0.5,0-0.9-0.1-1.3c-0.1-0.4-0.1-0.7-0.3-1
			c-0.1-0.3-0.3-0.5-0.5-0.7c-0.2-0.2-0.5-0.2-0.7-0.2s-0.5,0.1-0.7,0.2c-0.2,0.2-0.4,0.4-0.5,0.7s-0.2,0.6-0.3,1
			c-0.1,0.4-0.1,0.8-0.1,1.3s0,0.9,0.1,1.3c0.1,0.4,0.1,0.8,0.3,1s0.3,0.5,0.5,0.7c0.2,0.2,0.4,0.3,0.7,0.3s0.5-0.1,0.7-0.3
			s0.4-0.4,0.5-0.7c0.1-0.3,0.2-0.6,0.3-1C271.6,171.2,271.6,170.7,271.6,170.3z"/>
	</g>
	<g>
		<path class="st5" d="M279.4,167.3v7.9h-2.8v-7.9h-1v-1.8h1v-1c0-1.1,0.3-2,0.9-2.6c0.6-0.6,1.5-0.9,2.6-0.9c0.2,0,0.3,0,0.5,0
			c0.1,0,0.2,0,0.3,0v1.8c-0.1,0-0.2,0-0.2,0h-0.1c-0.4,0-0.7,0.1-0.9,0.4c-0.2,0.3-0.3,0.7-0.3,1.2v1.1h1.5v1.8H279.4z"/>
	</g>
	<g>
		<path class="st5" d="M295.5,170v0.2c0,0,0,0.1,0,0.2l-5.8,0.8c0.1,0.7,0.4,1.2,0.8,1.6s1,0.6,1.7,0.6c0.4,0,0.9-0.1,1.3-0.2
			c0.4-0.1,0.8-0.2,1.1-0.4l0.6,1.8c-0.5,0.2-1,0.4-1.6,0.5s-1.3,0.2-1.9,0.2c-0.8,0-1.5-0.1-2.1-0.4c-0.6-0.3-1.1-0.6-1.5-1.1
			c-0.4-0.5-0.7-1-0.9-1.6c-0.2-0.6-0.3-1.3-0.3-2c0-0.8,0.1-1.4,0.3-2.1c0.2-0.6,0.5-1.1,0.9-1.6c0.4-0.4,0.8-0.8,1.4-1
			s1.2-0.4,1.9-0.4c1.4,0,2.4,0.4,3.1,1.3C295.1,167.4,295.5,168.5,295.5,170z M292.8,169.4c0-0.8-0.1-1.4-0.4-1.8s-0.7-0.6-1.2-0.6
			c-0.6,0-1,0.3-1.3,0.8c-0.3,0.5-0.5,1.2-0.5,2v0.3L292.8,169.4z"/>
	</g>
	<g>
		<path class="st5" d="M300.5,167.3v7.9h-2.8v-7.9h-1v-1.8h1v-1c0-1.1,0.3-2,0.9-2.6c0.6-0.6,1.5-0.9,2.6-0.9c0.2,0,0.3,0,0.5,0
			c0.1,0,0.2,0,0.3,0v1.8c-0.1,0-0.2,0-0.2,0h-0.1c-0.4,0-0.7,0.1-0.9,0.4c-0.2,0.3-0.3,0.7-0.3,1.2v1.1h1.5v1.8H300.5z"/>
	</g>
	<g>
		<path class="st5" d="M307,167.3v7.9h-2.8v-7.9h-1v-1.8h1v-1c0-1.1,0.3-2,0.9-2.6c0.6-0.6,1.5-0.9,2.6-0.9c0.2,0,0.3,0,0.5,0
			c0.1,0,0.2,0,0.3,0v1.8c-0.1,0-0.2,0-0.2,0h-0.1c-0.4,0-0.7,0.1-0.9,0.4c-0.2,0.3-0.3,0.7-0.3,1.2v1.1h1.5v1.8H307z"/>
	</g>
	<g>
		<path class="st5" d="M318.3,170.3c0,0.7-0.1,1.4-0.3,2c-0.2,0.6-0.5,1.2-0.8,1.6c-0.4,0.5-0.8,0.8-1.4,1.1s-1.2,0.4-1.9,0.4
			c-0.7,0-1.4-0.1-1.9-0.4c-0.5-0.3-1-0.6-1.4-1.1s-0.6-1-0.8-1.6c-0.2-0.6-0.3-1.3-0.3-2c0-0.7,0.1-1.4,0.3-2
			c0.2-0.6,0.5-1.1,0.8-1.6c0.4-0.4,0.8-0.8,1.4-1c0.5-0.3,1.2-0.4,1.9-0.4c0.7,0,1.4,0.1,1.9,0.4s1,0.6,1.4,1
			c0.4,0.4,0.6,1,0.8,1.6C318.2,168.9,318.3,169.6,318.3,170.3z M315.4,170.3c0-0.5,0-0.9-0.1-1.3c-0.1-0.4-0.1-0.7-0.3-1
			c-0.1-0.3-0.3-0.5-0.5-0.7c-0.2-0.2-0.5-0.2-0.7-0.2s-0.5,0.1-0.7,0.2c-0.2,0.2-0.4,0.4-0.5,0.7s-0.2,0.6-0.3,1
			c-0.1,0.4-0.1,0.8-0.1,1.3s0,0.9,0.1,1.3c0.1,0.4,0.1,0.8,0.3,1s0.3,0.5,0.5,0.7c0.2,0.2,0.4,0.3,0.7,0.3s0.5-0.1,0.7-0.3
			s0.4-0.4,0.5-0.7c0.1-0.3,0.2-0.6,0.3-1C315.4,171.2,315.4,170.7,315.4,170.3z"/>
	</g>
	<g>
		<path class="st5" d="M324.7,167.3c-0.2-0.1-0.3-0.1-0.5-0.2c-0.2,0-0.4-0.1-0.5-0.1c-0.4,0-0.7,0-0.8,0.1v8H320V166
			c0.5-0.2,1-0.4,1.7-0.5c0.7-0.1,1.4-0.2,2.3-0.2c0.2,0,0.4,0,0.7,0c0.2,0,0.4,0,0.6,0.1L324.7,167.3z"/>
	</g>
	<g>
		<path class="st5" d="M331.6,175c-0.2,0.1-0.4,0.1-0.6,0.2s-0.5,0.1-0.8,0.1c-0.9,0-1.7-0.2-2.2-0.7c-0.5-0.5-0.7-1.2-0.7-2.1v-5.2
			h-1v-1.8h1v-2.1l2.8-0.7v2.8h1.5v1.8h-1.5v5.2c0,0.3,0.1,0.6,0.2,0.7s0.4,0.3,0.7,0.3c0.2,0,0.4,0,0.6-0.1V175z"/>
	</g>
	<g>
		<path class="st5" d="M339.6,172.2c0,0.5-0.1,0.9-0.3,1.3c-0.2,0.4-0.4,0.7-0.8,1s-0.7,0.5-1.2,0.7c-0.5,0.2-1,0.2-1.6,0.2
			c-0.6,0-1.1-0.1-1.7-0.2s-1-0.3-1.3-0.5l0.7-1.7c0.3,0.2,0.6,0.3,1,0.4s0.6,0.1,0.9,0.1c0.4,0,0.7-0.1,1-0.3s0.4-0.5,0.4-0.8
			c0-0.3-0.1-0.5-0.3-0.7c-0.2-0.2-0.4-0.3-0.7-0.5c-0.3-0.1-0.6-0.3-0.9-0.4c-0.3-0.1-0.6-0.3-0.9-0.5c-0.3-0.2-0.5-0.5-0.7-0.8
			c-0.2-0.3-0.3-0.7-0.3-1.3c0-0.5,0.1-0.9,0.3-1.2s0.4-0.7,0.7-0.9c0.3-0.3,0.7-0.5,1.1-0.6c0.4-0.1,0.9-0.2,1.3-0.2
			c0.6,0,1.2,0.1,1.6,0.2c0.5,0.1,0.9,0.3,1.3,0.5l-0.7,1.5c-0.6-0.3-1.1-0.5-1.7-0.5c-0.4,0-0.7,0.1-0.9,0.3s-0.3,0.4-0.3,0.7
			c0,0.3,0.1,0.5,0.3,0.7c0.2,0.2,0.4,0.3,0.7,0.5s0.6,0.3,0.9,0.4c0.3,0.1,0.6,0.3,0.9,0.5s0.5,0.5,0.7,0.8
			C339.5,171.3,339.6,171.7,339.6,172.2z"/>
	</g>
	<g>
		<path class="st5" d="M229,200h-2.9l1.6-3.9l-3.3-9.7h3l1.3,5.8c0.1,0.3,0.1,0.6,0.2,0.9c0,0.3,0.1,0.5,0.1,0.6h0
			c0-0.2,0.1-0.4,0.1-0.6s0.1-0.6,0.2-0.9l1.5-5.8h2.7L229,200z"/>
	</g>
	<g>
		<path class="st5" d="M237.8,183.7c0,0.4-0.1,0.7-0.4,0.9s-0.6,0.4-1.1,0.4s-0.8-0.1-1.1-0.4s-0.4-0.6-0.4-0.9s0.1-0.7,0.4-0.9
			c0.3-0.3,0.6-0.4,1.1-0.4s0.8,0.1,1.1,0.4C237.6,183,237.8,183.3,237.8,183.7z M234.9,196.2v-9.7h2.8v9.7H234.9z"/>
	</g>
	<g>
		<path class="st5" d="M248.1,191v0.2c0,0,0,0.1,0,0.2l-5.8,0.8c0.1,0.7,0.4,1.2,0.8,1.6s1,0.6,1.7,0.6c0.4,0,0.9-0.1,1.3-0.2
			c0.4-0.1,0.8-0.2,1.1-0.4l0.6,1.8c-0.5,0.2-1,0.4-1.6,0.5s-1.3,0.2-1.9,0.2c-0.8,0-1.5-0.1-2.1-0.4c-0.6-0.3-1.1-0.6-1.5-1.1
			c-0.4-0.5-0.7-1-0.9-1.6c-0.2-0.6-0.3-1.3-0.3-2c0-0.8,0.1-1.4,0.3-2.1c0.2-0.6,0.5-1.1,0.9-1.6c0.4-0.4,0.8-0.8,1.4-1
			s1.2-0.4,1.9-0.4c1.4,0,2.4,0.4,3.1,1.3C247.8,188.4,248.1,189.5,248.1,191z M245.4,190.4c0-0.8-0.1-1.4-0.4-1.8s-0.7-0.6-1.2-0.6
			c-0.6,0-1,0.3-1.3,0.8c-0.3,0.5-0.5,1.2-0.5,2v0.3L245.4,190.4z"/>
	</g>
	<g>
		<path class="st5" d="M249.9,196.2V182h2.8v14.1H249.9z"/>
	</g>
	<g>
		<path class="st5" d="M263.1,195.6c-0.4,0.2-1,0.4-1.6,0.5c-0.6,0.1-1.4,0.2-2.1,0.2c-1.5,0-2.6-0.4-3.5-1.3
			c-0.8-0.8-1.2-2.1-1.2-3.7c0-0.7,0.1-1.4,0.3-2c0.2-0.6,0.5-1.2,0.9-1.6c0.4-0.5,0.8-0.8,1.4-1.1c0.5-0.3,1.2-0.4,1.8-0.4
			c0.4,0,0.9,0.1,1.3,0.2V182h2.8V195.6z M260.3,188c-0.3-0.1-0.5-0.1-0.8-0.1c-0.4,0-0.7,0.1-1,0.2c-0.3,0.2-0.5,0.4-0.7,0.7
			c-0.2,0.3-0.3,0.6-0.4,1c-0.1,0.4-0.1,0.9-0.1,1.4c0,1.1,0.2,1.9,0.5,2.5c0.3,0.6,0.8,0.9,1.6,0.9c0.2,0,0.4,0,0.5,0
			c0.1,0,0.3-0.1,0.4-0.1V188z"/>
	</g>
	<g>
		<path class="st5" d="M271.5,193.2c0,0.5-0.1,0.9-0.3,1.3c-0.2,0.4-0.4,0.7-0.8,1s-0.7,0.5-1.2,0.7c-0.5,0.2-1,0.2-1.6,0.2
			c-0.6,0-1.1-0.1-1.7-0.2s-1-0.3-1.3-0.5l0.7-1.7c0.3,0.2,0.6,0.3,1,0.4c0.3,0.1,0.6,0.1,0.9,0.1c0.4,0,0.7-0.1,1-0.3
			s0.4-0.5,0.4-0.8c0-0.3-0.1-0.5-0.3-0.7c-0.2-0.2-0.4-0.3-0.7-0.5c-0.3-0.1-0.6-0.3-0.9-0.4c-0.3-0.1-0.6-0.3-0.9-0.5
			c-0.3-0.2-0.5-0.5-0.7-0.8c-0.2-0.3-0.3-0.7-0.3-1.3c0-0.5,0.1-0.9,0.3-1.2s0.4-0.7,0.7-0.9c0.3-0.3,0.7-0.5,1.1-0.6
			c0.4-0.1,0.9-0.2,1.3-0.2c0.6,0,1.2,0.1,1.6,0.2c0.5,0.1,0.9,0.3,1.3,0.5l-0.7,1.5c-0.6-0.3-1.1-0.5-1.7-0.5
			c-0.4,0-0.7,0.1-0.9,0.3s-0.3,0.4-0.3,0.7c0,0.3,0.1,0.5,0.3,0.7c0.2,0.2,0.4,0.3,0.7,0.5s0.6,0.3,0.9,0.4
			c0.3,0.1,0.6,0.3,0.9,0.5s0.5,0.5,0.7,0.8C271.4,192.3,271.5,192.7,271.5,193.2z"/>
	</g>
	<g>
		<path class="st5" d="M286.3,193.1c0,0.5-0.1,1-0.3,1.4c-0.2,0.4-0.5,0.7-0.9,1s-0.8,0.5-1.3,0.7c-0.5,0.2-1.1,0.2-1.7,0.2
			c-0.6,0-1.2-0.1-1.7-0.2c-0.5-0.1-1-0.4-1.3-0.6c-0.4-0.3-0.7-0.6-0.9-1c-0.2-0.4-0.3-0.9-0.3-1.4c0-0.4,0.1-0.8,0.2-1.1
			s0.3-0.6,0.5-0.9c0.2-0.3,0.5-0.5,0.8-0.7c0.3-0.2,0.6-0.4,1-0.6c-0.3-0.2-0.6-0.4-0.9-0.6c-0.3-0.2-0.5-0.4-0.7-0.7
			c-0.2-0.2-0.3-0.5-0.4-0.8c-0.1-0.3-0.2-0.6-0.2-1c0-0.5,0.1-0.9,0.3-1.3s0.5-0.7,0.8-1c0.3-0.3,0.8-0.5,1.2-0.6
			c0.5-0.1,1-0.2,1.6-0.2c0.6,0,1.1,0.1,1.6,0.2c0.5,0.2,0.9,0.4,1.2,0.6c0.3,0.3,0.6,0.6,0.8,1c0.2,0.4,0.3,0.8,0.3,1.3
			c0,0.4-0.1,0.7-0.2,1c-0.1,0.3-0.3,0.5-0.4,0.8c-0.2,0.2-0.4,0.5-0.7,0.6s-0.6,0.4-0.9,0.6c0.3,0.2,0.7,0.4,1,0.7
			c0.3,0.2,0.6,0.5,0.8,0.8c0.2,0.3,0.4,0.6,0.5,0.9S286.3,192.7,286.3,193.1z M283.7,193c0-0.5-0.1-1-0.4-1.3
			c-0.3-0.3-0.7-0.7-1.3-1c-0.6,0.3-1,0.7-1.3,1s-0.4,0.8-0.4,1.3c0,0.5,0.2,0.8,0.5,1.2c0.3,0.3,0.8,0.5,1.3,0.5
			c0.5,0,0.9-0.2,1.3-0.5C283.5,193.9,283.7,193.5,283.7,193z M283.7,186.6c0-0.4-0.2-0.8-0.5-1.1c-0.3-0.3-0.7-0.4-1.1-0.4
			c-0.5,0-0.8,0.1-1.1,0.4c-0.3,0.3-0.4,0.6-0.4,1.1c0,0.5,0.1,0.8,0.4,1.1c0.3,0.3,0.7,0.6,1.2,0.9c0.5-0.3,0.9-0.7,1.2-1
			C283.5,187.5,283.7,187.1,283.7,186.6z"/>
	</g>
	<g>
		<path class="st5" d="M296.4,190c0,0.8-0.1,1.6-0.3,2.4c-0.2,0.8-0.4,1.4-0.8,2c-0.3,0.6-0.8,1.1-1.4,1.4c-0.6,0.4-1.2,0.5-2,0.5
			c-0.8,0-1.4-0.2-2-0.5c-0.6-0.4-1-0.8-1.3-1.4c-0.3-0.6-0.6-1.3-0.8-2c-0.2-0.8-0.3-1.6-0.3-2.4s0.1-1.6,0.3-2.4
			c0.2-0.8,0.4-1.4,0.8-2c0.3-0.6,0.8-1.1,1.3-1.4c0.6-0.4,1.2-0.5,2-0.5c0.8,0,1.4,0.2,2,0.5c0.6,0.4,1,0.8,1.4,1.4
			c0.3,0.6,0.6,1.3,0.8,2C296.4,188.3,296.4,189.1,296.4,190z M293.6,189.9c0-0.6,0-1.2-0.1-1.8c0-0.6-0.1-1-0.2-1.4s-0.3-0.7-0.5-1
			s-0.5-0.4-0.8-0.4c-0.3,0-0.6,0.1-0.8,0.4s-0.4,0.6-0.5,1c-0.1,0.4-0.2,0.9-0.3,1.4c0,0.6-0.1,1.1-0.1,1.8s0,1.2,0.1,1.8
			c0,0.6,0.1,1,0.3,1.4c0.1,0.4,0.3,0.7,0.5,1c0.2,0.2,0.5,0.4,0.8,0.4c0.3,0,0.6-0.1,0.8-0.4c0.2-0.2,0.4-0.6,0.5-1
			s0.2-0.9,0.2-1.4C293.6,191.2,293.6,190.6,293.6,189.9z"/>
	</g>
	<g>
		<path class="st5" d="M303.9,187.4c0,0.5-0.1,1-0.2,1.5c-0.1,0.5-0.3,0.9-0.5,1.2s-0.5,0.6-0.9,0.8c-0.4,0.2-0.8,0.3-1.3,0.3
			c-0.5,0-0.9-0.1-1.3-0.3c-0.4-0.2-0.7-0.5-0.9-0.8s-0.4-0.8-0.5-1.2s-0.2-1-0.2-1.5s0.1-1,0.2-1.5s0.3-0.9,0.5-1.2
			c0.2-0.4,0.5-0.6,0.9-0.8c0.4-0.2,0.8-0.3,1.3-0.3c0.5,0,0.9,0.1,1.3,0.3c0.4,0.2,0.7,0.5,0.9,0.8c0.2,0.4,0.4,0.8,0.5,1.2
			C303.8,186.4,303.9,186.9,303.9,187.4z M302,187.4c0-0.8-0.1-1.4-0.2-1.9c-0.2-0.5-0.4-0.7-0.8-0.7c-0.4,0-0.6,0.2-0.8,0.7
			s-0.2,1.1-0.2,1.9c0,0.8,0.1,1.4,0.2,1.9s0.4,0.7,0.8,0.7c0.4,0,0.6-0.2,0.8-0.7C301.9,188.8,302,188.2,302,187.4z M304.1,196.4
			l-1.5-0.5l4.2-12.4l1.5,0.5L304.1,196.4z M312.8,192.5c0,0.5-0.1,1-0.2,1.5c-0.1,0.5-0.3,0.9-0.5,1.2c-0.2,0.4-0.5,0.6-0.9,0.8
			c-0.4,0.2-0.8,0.3-1.3,0.3s-0.9-0.1-1.3-0.3c-0.4-0.2-0.7-0.5-0.9-0.8c-0.2-0.4-0.4-0.8-0.5-1.2c-0.1-0.5-0.2-1-0.2-1.5
			s0.1-1,0.2-1.5c0.1-0.5,0.3-0.9,0.5-1.2c0.2-0.4,0.5-0.6,0.9-0.8c0.4-0.2,0.8-0.3,1.3-0.3s0.9,0.1,1.3,0.3
			c0.4,0.2,0.7,0.5,0.9,0.8c0.2,0.4,0.4,0.8,0.5,1.2C312.8,191.5,312.8,192,312.8,192.5z M310.9,192.5c0-0.8-0.1-1.4-0.2-1.9
			s-0.4-0.7-0.8-0.7c-0.4,0-0.6,0.2-0.8,0.7c-0.1,0.5-0.2,1.1-0.2,1.9c0,0.8,0.1,1.4,0.2,1.9c0.2,0.5,0.4,0.7,0.8,0.7
			c0.4,0,0.6-0.2,0.8-0.7S310.9,193.2,310.9,192.5z"/>
	</g>
	<g>
		<path class="st5" d="M328,191.3c0,0.7-0.1,1.4-0.3,2c-0.2,0.6-0.5,1.2-0.8,1.6c-0.4,0.5-0.8,0.8-1.4,1.1s-1.2,0.4-1.9,0.4
			c-0.7,0-1.4-0.1-1.9-0.4c-0.5-0.3-1-0.6-1.4-1.1s-0.6-1-0.8-1.6c-0.2-0.6-0.3-1.3-0.3-2c0-0.7,0.1-1.4,0.3-2
			c0.2-0.6,0.5-1.1,0.8-1.6c0.4-0.4,0.8-0.8,1.4-1c0.5-0.3,1.2-0.4,1.9-0.4c0.7,0,1.4,0.1,1.9,0.4s1,0.6,1.4,1
			c0.4,0.4,0.6,1,0.8,1.6C327.9,189.9,328,190.6,328,191.3z M325.1,191.3c0-0.5,0-0.9-0.1-1.3c-0.1-0.4-0.1-0.7-0.3-1
			c-0.1-0.3-0.3-0.5-0.5-0.7c-0.2-0.2-0.5-0.2-0.7-0.2s-0.5,0.1-0.7,0.2c-0.2,0.2-0.4,0.4-0.5,0.7s-0.2,0.6-0.3,1
			c-0.1,0.4-0.1,0.8-0.1,1.3s0,0.9,0.1,1.3c0.1,0.4,0.1,0.8,0.3,1s0.3,0.5,0.5,0.7c0.2,0.2,0.4,0.3,0.7,0.3s0.5-0.1,0.7-0.3
			s0.4-0.4,0.5-0.7c0.1-0.3,0.2-0.6,0.3-1C325.1,192.2,325.1,191.7,325.1,191.3z"/>
	</g>
	<g>
		<path class="st5" d="M333,188.3v7.9h-2.8v-7.9h-1v-1.8h1v-1c0-1.1,0.3-2,0.9-2.6c0.6-0.6,1.5-0.9,2.6-0.9c0.2,0,0.3,0,0.5,0
			c0.1,0,0.2,0,0.3,0v1.8c-0.1,0-0.2,0-0.2,0h-0.1c-0.4,0-0.7,0.1-0.9,0.4c-0.2,0.3-0.3,0.7-0.3,1.2v1.1h1.5v1.8H333z"/>
	</g>
	<g>
		<path class="st5" d="M345.5,188.3c-0.2-0.1-0.3-0.1-0.5-0.2c-0.2,0-0.4-0.1-0.5-0.1c-0.4,0-0.7,0-0.8,0.1v8h-2.8V187
			c0.5-0.2,1-0.4,1.7-0.5c0.7-0.1,1.4-0.2,2.3-0.2c0.2,0,0.4,0,0.7,0c0.2,0,0.4,0,0.6,0.1L345.5,188.3z"/>
	</g>
	<g>
		<path class="st5" d="M355.2,191v0.2c0,0,0,0.1,0,0.2l-5.8,0.8c0.1,0.7,0.4,1.2,0.8,1.6s1,0.6,1.7,0.6c0.4,0,0.9-0.1,1.3-0.2
			c0.4-0.1,0.8-0.2,1.1-0.4l0.6,1.8c-0.5,0.2-1,0.4-1.6,0.5s-1.3,0.2-1.9,0.2c-0.8,0-1.5-0.1-2.1-0.4c-0.6-0.3-1.1-0.6-1.5-1.1
			c-0.4-0.5-0.7-1-0.9-1.6c-0.2-0.6-0.3-1.3-0.3-2c0-0.8,0.1-1.4,0.3-2.1c0.2-0.6,0.5-1.1,0.9-1.6c0.4-0.4,0.8-0.8,1.4-1
			s1.2-0.4,1.9-0.4c1.4,0,2.4,0.4,3.1,1.3C354.8,188.4,355.2,189.5,355.2,191z M352.5,190.4c0-0.8-0.1-1.4-0.4-1.8s-0.7-0.6-1.2-0.6
			c-0.6,0-1,0.3-1.3,0.8c-0.3,0.5-0.5,1.2-0.5,2v0.3L352.5,190.4z"/>
	</g>
	<g>
		<path class="st5" d="M363.3,193.2c0,0.5-0.1,0.9-0.3,1.3c-0.2,0.4-0.4,0.7-0.8,1s-0.7,0.5-1.2,0.7c-0.5,0.2-1,0.2-1.6,0.2
			c-0.6,0-1.1-0.1-1.7-0.2s-1-0.3-1.3-0.5l0.7-1.7c0.3,0.2,0.6,0.3,1,0.4s0.6,0.1,0.9,0.1c0.4,0,0.7-0.1,1-0.3s0.4-0.5,0.4-0.8
			c0-0.3-0.1-0.5-0.3-0.7c-0.2-0.2-0.4-0.3-0.7-0.5c-0.3-0.1-0.6-0.3-0.9-0.4c-0.3-0.1-0.6-0.3-0.9-0.5c-0.3-0.2-0.5-0.5-0.7-0.8
			c-0.2-0.3-0.3-0.7-0.3-1.3c0-0.5,0.1-0.9,0.3-1.2s0.4-0.7,0.7-0.9c0.3-0.3,0.7-0.5,1.1-0.6c0.4-0.1,0.9-0.2,1.3-0.2
			c0.6,0,1.2,0.1,1.6,0.2c0.5,0.1,0.9,0.3,1.3,0.5l-0.7,1.5c-0.6-0.3-1.1-0.5-1.7-0.5c-0.4,0-0.7,0.1-0.9,0.3s-0.3,0.4-0.3,0.7
			c0,0.3,0.1,0.5,0.3,0.7c0.2,0.2,0.4,0.3,0.7,0.5s0.6,0.3,0.9,0.4c0.3,0.1,0.6,0.3,0.9,0.5s0.5,0.5,0.7,0.8
			C363.2,192.3,363.3,192.7,363.3,193.2z"/>
	</g>
	<g>
		<path class="st5" d="M373.2,195.6c-0.5,0.2-1,0.4-1.8,0.5c-0.7,0.1-1.5,0.2-2.2,0.2c-1.4,0-2.5-0.3-3.2-0.8s-1.1-1.4-1.1-2.6v-6.5
			h2.8v6.6c0,0.9,0.5,1.4,1.4,1.4c0.2,0,0.4,0,0.6-0.1s0.4-0.1,0.5-0.2v-7.8h2.8V195.6z"/>
	</g>
	<g>
		<path class="st5" d="M375.3,196.2V182h2.8v14.1H375.3z"/>
	</g>
	<g>
		<path class="st5" d="M385.2,196c-0.2,0.1-0.4,0.1-0.6,0.2s-0.5,0.1-0.8,0.1c-0.9,0-1.7-0.2-2.2-0.7c-0.5-0.5-0.7-1.2-0.7-2.1v-5.2
			h-1v-1.8h1v-2.1l2.8-0.7v2.8h1.5v1.8h-1.5v5.2c0,0.3,0.1,0.6,0.2,0.7s0.4,0.3,0.7,0.3c0.2,0,0.4,0,0.6-0.1V196z"/>
	</g>
	<g>
		<path class="st5" d="M393.2,193.2c0,0.5-0.1,0.9-0.3,1.3c-0.2,0.4-0.4,0.7-0.8,1s-0.7,0.5-1.2,0.7c-0.5,0.2-1,0.2-1.6,0.2
			c-0.6,0-1.1-0.1-1.7-0.2s-1-0.3-1.3-0.5l0.7-1.7c0.3,0.2,0.6,0.3,1,0.4s0.6,0.1,0.9,0.1c0.4,0,0.7-0.1,1-0.3s0.4-0.5,0.4-0.8
			c0-0.3-0.1-0.5-0.3-0.7c-0.2-0.2-0.4-0.3-0.7-0.5c-0.3-0.1-0.6-0.3-0.9-0.4c-0.3-0.1-0.6-0.3-0.9-0.5c-0.3-0.2-0.5-0.5-0.7-0.8
			c-0.2-0.3-0.3-0.7-0.3-1.3c0-0.5,0.1-0.9,0.3-1.2s0.4-0.7,0.7-0.9c0.3-0.3,0.7-0.5,1.1-0.6c0.4-0.1,0.9-0.2,1.3-0.2
			c0.6,0,1.2,0.1,1.6,0.2c0.5,0.1,0.9,0.3,1.3,0.5l-0.7,1.5c-0.6-0.3-1.1-0.5-1.7-0.5c-0.4,0-0.7,0.1-0.9,0.3s-0.3,0.4-0.3,0.7
			c0,0.3,0.1,0.5,0.3,0.7c0.2,0.2,0.4,0.3,0.7,0.5s0.6,0.3,0.9,0.4c0.3,0.1,0.6,0.3,0.9,0.5s0.5,0.5,0.7,0.8
			C393.1,192.3,393.2,192.7,393.2,193.2z"/>
	</g>
</g>
<g class="st10">
	<rect x="4.1" y="82.1" class="st1" width="44.5" height="259.4"/>
</g>
<g class="st11">
	<rect x="132.7" y="433.1" class="st1" width="259.4" height="44.5"/>
</g>
<g>
	<g>
		<path class="st1" d="M219.3,459.9v-12.4h5.7v1.1H221v4.3h3.7v1.1H221v4.7h4.1v1.1H219.3z"/>
	</g>
	<g>
		<path class="st1" d="M229.3,451.2v8.7h-1.6v-8.7h-1.1v-1h1.1v-1.4c0-0.9,0.2-1.7,0.7-2.2c0.5-0.6,1.2-0.8,2.2-0.8h0.1
			c0,0,0.1,0,0.2,0v1h-0.1c-0.2,0-0.4,0-0.6,0.1c-0.2,0.1-0.4,0.2-0.5,0.3c-0.1,0.2-0.3,0.4-0.3,0.6c-0.1,0.3-0.1,0.6-0.1,1v1.4h1.7
			v1H229.3z"/>
	</g>
	<g>
		<path class="st1" d="M235,451.2v8.7h-1.6v-8.7h-1.1v-1h1.1v-1.4c0-0.9,0.2-1.7,0.7-2.2c0.5-0.6,1.2-0.8,2.2-0.8h0.1
			c0,0,0.1,0,0.2,0v1h-0.1c-0.2,0-0.4,0-0.6,0.1c-0.2,0.1-0.4,0.2-0.5,0.3c-0.1,0.2-0.3,0.4-0.3,0.6c-0.1,0.3-0.1,0.6-0.1,1v1.4h1.7
			v1H235z"/>
	</g>
	<g>
		<path class="st1" d="M245.6,455.1c0,0.7-0.1,1.4-0.2,2c-0.2,0.6-0.4,1.1-0.7,1.6s-0.7,0.8-1.2,1.1c-0.5,0.3-1.1,0.4-1.7,0.4
			c-0.7,0-1.2-0.1-1.7-0.4c-0.5-0.3-0.9-0.6-1.2-1.1c-0.3-0.5-0.6-1-0.7-1.6c-0.2-0.6-0.2-1.3-0.2-2c0-0.7,0.1-1.4,0.2-2
			s0.4-1.1,0.7-1.6c0.3-0.4,0.7-0.8,1.2-1c0.5-0.3,1-0.4,1.7-0.4c0.7,0,1.2,0.1,1.7,0.4c0.5,0.3,0.9,0.6,1.2,1
			c0.3,0.4,0.5,1,0.7,1.6S245.6,454.4,245.6,455.1z M244,455c0-0.5,0-1-0.1-1.5c-0.1-0.5-0.2-0.9-0.4-1.3c-0.2-0.4-0.4-0.7-0.7-0.9
			s-0.6-0.3-1.1-0.3c-0.4,0-0.8,0.1-1.1,0.3s-0.5,0.5-0.7,0.9s-0.3,0.8-0.4,1.3c-0.1,0.5-0.1,1-0.1,1.5s0,1.1,0.1,1.5
			c0.1,0.5,0.2,0.9,0.4,1.3s0.4,0.7,0.7,0.9s0.6,0.3,1.1,0.3c0.4,0,0.8-0.1,1.1-0.3s0.5-0.5,0.7-0.9c0.2-0.4,0.3-0.8,0.4-1.3
			C244,456.1,244,455.6,244,455z"/>
	</g>
	<g>
		<path class="st1" d="M251.6,451.3c-0.3-0.1-0.6-0.2-1-0.2c-0.2,0-0.4,0-0.6,0.1c-0.2,0-0.4,0.1-0.6,0.2v8.5h-1.6v-9.2
			c0.4-0.2,0.9-0.4,1.4-0.5s1.2-0.2,1.9-0.2c0.2,0,0.4,0,0.5,0c0.2,0,0.3,0,0.3,0L251.6,451.3z"/>
	</g>
	<g>
		<path class="st1" d="M257.6,459.9c-0.3,0.1-0.6,0.2-1,0.2c-0.7,0-1.3-0.2-1.7-0.6s-0.6-1-0.6-1.8v-6.4h-1.1v-1h1.1V448l1.6-0.5
			v2.7h1.7v1h-1.7v6.4c0,0.4,0.1,0.8,0.3,1c0.2,0.2,0.5,0.4,0.9,0.4c0.2,0,0.4,0,0.5-0.1V459.9z"/>
	</g>
	<g>
		<path class="st1" d="M271.8,454.9c0,0.8-0.1,1.5-0.3,2.2c-0.2,0.6-0.5,1.2-0.9,1.6c-0.4,0.4-0.8,0.8-1.3,1
			c-0.5,0.2-1.1,0.4-1.7,0.4c-0.3,0-0.6,0-0.8-0.1c-0.3,0-0.5-0.1-0.7-0.2v4h-1.6v-13.1c0.4-0.2,0.9-0.4,1.4-0.5s1-0.2,1.6-0.2
			c0.7,0,1.3,0.1,1.8,0.3s1,0.6,1.3,1c0.4,0.4,0.6,0.9,0.8,1.5C271.7,453.5,271.8,454.2,271.8,454.9z M270.2,455
			c0-0.6,0-1.2-0.1-1.6c-0.1-0.5-0.3-0.9-0.5-1.3s-0.5-0.6-0.9-0.8c-0.4-0.2-0.8-0.3-1.3-0.3c-0.2,0-0.5,0-0.7,0.1s-0.5,0.1-0.7,0.2
			v7.6c0.1,0.1,0.3,0.1,0.5,0.1c0.2,0,0.4,0.1,0.7,0.1c1,0,1.7-0.4,2.2-1.1S270.2,456.3,270.2,455z"/>
	</g>
	<g>
		<path class="st1" d="M280.9,459.4c-0.4,0.2-0.9,0.4-1.5,0.5c-0.6,0.1-1.2,0.2-1.9,0.2c-1.2,0-2-0.3-2.6-0.8
			c-0.6-0.5-0.9-1.3-0.9-2.4v-6.7h1.6v6.8c0,1.4,0.7,2,2,2c0.3,0,0.6,0,0.9-0.1c0.3-0.1,0.6-0.1,0.8-0.2v-8.5h1.6V459.4z"/>
	</g>
	<g>
		<path class="st1" d="M287.2,459.9c-0.3,0.1-0.6,0.2-1,0.2c-0.7,0-1.3-0.2-1.7-0.6s-0.6-1-0.6-1.8v-6.4h-1.1v-1h1.1V448l1.6-0.5
			v2.7h1.7v1h-1.7v6.4c0,0.4,0.1,0.8,0.3,1s0.5,0.4,0.9,0.4c0.2,0,0.4,0,0.5-0.1V459.9z"/>
	</g>
	<g>
		<path class="st1" d="M296,447.5c0,0.2-0.1,0.4-0.3,0.6c-0.2,0.2-0.4,0.3-0.7,0.3s-0.5-0.1-0.7-0.3c-0.2-0.2-0.3-0.4-0.3-0.6
			c0-0.2,0.1-0.4,0.3-0.6c0.2-0.2,0.4-0.3,0.7-0.3s0.5,0.1,0.7,0.3C295.9,447,296,447.3,296,447.5z M294.3,459.9v-9.7h1.6v9.7H294.3
			z"/>
	</g>
	<g>
		<path class="st1" d="M304,459.9v-6.7c0-0.7-0.2-1.3-0.5-1.6c-0.3-0.4-0.9-0.5-1.7-0.5c-0.6,0-1.2,0.1-1.7,0.3v8.5h-1.6v-9.2
			c0.5-0.2,1-0.4,1.5-0.5c0.6-0.1,1.2-0.2,1.8-0.2c1.3,0,2.3,0.3,2.9,0.8c0.6,0.5,0.9,1.3,0.9,2.4v6.7H304z"/>
	</g>
</g>
<g>
	<path class="st12" d="M79.3,413.9c0,0.5,0,1-0.1,1.6s-0.2,1-0.4,1.4c-0.2,0.4-0.5,0.7-0.8,1s-0.7,0.4-1.2,0.4s-0.9-0.1-1.2-0.4
		c-0.3-0.2-0.6-0.6-0.8-1c-0.2-0.4-0.3-0.9-0.4-1.4s-0.1-1-0.1-1.6s0-1,0.1-1.6s0.2-1,0.4-1.4c0.2-0.4,0.5-0.7,0.8-1
		c0.3-0.2,0.7-0.4,1.2-0.4s0.9,0.1,1.2,0.4s0.6,0.6,0.8,1c0.2,0.4,0.3,0.9,0.4,1.4S79.3,413.3,79.3,413.9z M78.3,413.8
		c0-0.4,0-0.8-0.1-1.3s-0.1-0.8-0.2-1.1c-0.1-0.3-0.3-0.6-0.5-0.8s-0.4-0.3-0.8-0.3s-0.6,0.1-0.8,0.3s-0.3,0.5-0.5,0.8
		c-0.1,0.3-0.2,0.7-0.2,1.1s-0.1,0.8-0.1,1.3s0,0.8,0.1,1.3c0,0.4,0.1,0.8,0.2,1.1c0.1,0.3,0.3,0.6,0.5,0.8s0.4,0.3,0.8,0.3
		s0.6-0.1,0.8-0.3s0.3-0.5,0.5-0.8c0.1-0.3,0.2-0.7,0.2-1.1C78.3,414.7,78.3,414.3,78.3,413.8z"/>
</g>
<g>
	<path class="st12" d="M68.1,400.5c0,0.5,0,1-0.1,1.6s-0.2,1-0.4,1.4c-0.2,0.4-0.5,0.7-0.8,1s-0.7,0.4-1.2,0.4s-0.9-0.1-1.2-0.4
		c-0.3-0.2-0.6-0.6-0.8-1c-0.2-0.4-0.3-0.9-0.4-1.4s-0.1-1-0.1-1.6s0-1,0.1-1.6s0.2-1,0.4-1.4c0.2-0.4,0.5-0.7,0.8-1
		c0.3-0.2,0.7-0.4,1.2-0.4s0.9,0.1,1.2,0.4s0.6,0.6,0.8,1c0.2,0.4,0.3,0.9,0.4,1.4S68.1,399.9,68.1,400.5z M67.1,400.4
		c0-0.4,0-0.8-0.1-1.3s-0.1-0.8-0.2-1.1c-0.1-0.3-0.3-0.6-0.5-0.8s-0.4-0.3-0.8-0.3s-0.6,0.1-0.8,0.3s-0.3,0.5-0.5,0.8
		c-0.1,0.3-0.2,0.7-0.2,1.1s-0.1,0.8-0.1,1.3s0,0.8,0.1,1.3c0,0.4,0.1,0.8,0.2,1.1c0.1,0.3,0.3,0.6,0.5,0.8s0.4,0.3,0.8,0.3
		s0.6-0.1,0.8-0.3s0.3-0.5,0.5-0.8c0.1-0.3,0.2-0.7,0.2-1.1C67.1,401.3,67.1,400.9,67.1,400.4z"/>
</g>
<g>
	<path class="st12" d="M56.9,328.2l3-4.3c0.3-0.4,0.5-0.8,0.6-1c0.1-0.3,0.1-0.5,0.1-0.8c0-0.5-0.1-0.8-0.4-1.1
		c-0.3-0.3-0.7-0.4-1.3-0.4c-0.3,0-0.5,0-0.8,0.1c-0.3,0.1-0.5,0.1-0.7,0.3l-0.3-0.7c0.3-0.1,0.6-0.3,0.9-0.3
		c0.3-0.1,0.7-0.1,1.1-0.1c0.9,0,1.5,0.2,1.9,0.6c0.4,0.4,0.6,0.9,0.6,1.6c0,0.3-0.1,0.6-0.2,1c-0.2,0.4-0.4,0.8-0.8,1.3l-2.2,3h3.3
		v0.9H56.9z"/>
	<path class="st12" d="M68.1,324c0,0.5,0,1-0.1,1.6s-0.2,1-0.4,1.4c-0.2,0.4-0.5,0.7-0.8,1s-0.7,0.4-1.2,0.4s-0.9-0.1-1.2-0.4
		c-0.3-0.2-0.6-0.6-0.8-1c-0.2-0.4-0.3-0.9-0.4-1.4s-0.1-1-0.1-1.6c0-0.5,0-1,0.1-1.6c0.1-0.5,0.2-1,0.4-1.4c0.2-0.4,0.5-0.7,0.8-1
		c0.3-0.2,0.7-0.4,1.2-0.4s0.9,0.1,1.2,0.4c0.3,0.2,0.6,0.6,0.8,1c0.2,0.4,0.3,0.9,0.4,1.4C68.1,323,68.1,323.5,68.1,324z M67.1,324
		c0-0.4,0-0.8-0.1-1.3s-0.1-0.8-0.2-1.1c-0.1-0.3-0.3-0.6-0.5-0.8s-0.4-0.3-0.8-0.3s-0.6,0.1-0.8,0.3s-0.3,0.5-0.5,0.8
		c-0.1,0.3-0.2,0.7-0.2,1.1s-0.1,0.8-0.1,1.3s0,0.8,0.1,1.3c0,0.4,0.1,0.8,0.2,1.1c0.1,0.3,0.3,0.6,0.5,0.8s0.4,0.3,0.8,0.3
		s0.6-0.1,0.8-0.3s0.3-0.5,0.5-0.8c0.1-0.3,0.2-0.7,0.2-1.1C67.1,324.8,67.1,324.4,67.1,324z"/>
</g>
<g>
	<path class="st12" d="M61.2,250.4v1.9h-1v-1.9h-3.4v-0.7l3.3-5.7h1v5.7h0.7v0.6H61.2z M60.2,245.1c-0.1,0.2-0.1,0.3-0.2,0.5
		c-0.1,0.2-0.2,0.4-0.3,0.6l-2.1,3.6h2.6v-3.5C60.2,245.9,60.2,245.5,60.2,245.1L60.2,245.1z"/>
	<path class="st12" d="M68.1,248.2c0,0.5,0,1-0.1,1.6c-0.1,0.5-0.2,1-0.4,1.4c-0.2,0.4-0.5,0.7-0.8,1c-0.3,0.2-0.7,0.4-1.2,0.4
		s-0.9-0.1-1.2-0.4c-0.3-0.2-0.6-0.6-0.8-1c-0.2-0.4-0.3-0.9-0.4-1.4c-0.1-0.5-0.1-1-0.1-1.6c0-0.5,0-1,0.1-1.6s0.2-1,0.4-1.4
		c0.2-0.4,0.5-0.7,0.8-1c0.3-0.2,0.7-0.4,1.2-0.4s0.9,0.1,1.2,0.4s0.6,0.6,0.8,1c0.2,0.4,0.3,0.9,0.4,1.4S68.1,247.6,68.1,248.2z
		 M67.1,248.1c0-0.4,0-0.8-0.1-1.3c0-0.4-0.1-0.8-0.2-1.1c-0.1-0.3-0.3-0.6-0.5-0.8s-0.4-0.3-0.8-0.3s-0.6,0.1-0.8,0.3
		s-0.3,0.5-0.5,0.8c-0.1,0.3-0.2,0.7-0.2,1.1c0,0.4-0.1,0.8-0.1,1.3s0,0.8,0.1,1.3s0.1,0.8,0.2,1.1c0.1,0.3,0.3,0.6,0.5,0.8
		s0.4,0.3,0.8,0.3s0.6-0.1,0.8-0.3s0.3-0.5,0.5-0.8c0.1-0.3,0.2-0.7,0.2-1.1S67.1,248.6,67.1,248.1z"/>
</g>
<g>
	<path class="st12" d="M61.8,173c0,0.3,0,0.6-0.2,1c-0.1,0.3-0.3,0.6-0.5,0.8c-0.2,0.2-0.5,0.4-0.8,0.6c-0.3,0.1-0.7,0.2-1.1,0.2
		c-0.8,0-1.5-0.3-1.9-0.8c-0.4-0.6-0.7-1.3-0.7-2.3c0-0.7,0.1-1.3,0.3-1.9s0.5-1.1,0.9-1.5s0.8-0.8,1.3-1.2c0.5-0.3,1.1-0.6,1.8-0.8
		l0.2,0.7c-0.4,0.1-0.8,0.3-1.1,0.4c-0.3,0.2-0.6,0.4-0.9,0.6c-0.3,0.2-0.5,0.5-0.7,0.8c-0.2,0.3-0.4,0.7-0.5,1.1
		c0.2-0.1,0.3-0.1,0.5-0.2s0.4-0.1,0.6-0.1c0.8,0,1.5,0.2,1.9,0.6C61.5,171.6,61.8,172.2,61.8,173z M60.7,173c0-1.3-0.6-1.9-1.8-1.9
		c-0.2,0-0.4,0-0.6,0.1c-0.2,0-0.4,0.1-0.5,0.2c0,0.2-0.1,0.4-0.1,0.6c0,0.2,0,0.4,0,0.6c0,0.7,0.1,1.3,0.4,1.8
		c0.3,0.4,0.6,0.6,1.2,0.6c0.3,0,0.5-0.1,0.7-0.2c0.2-0.1,0.3-0.2,0.5-0.4s0.2-0.4,0.3-0.6C60.7,173.5,60.7,173.2,60.7,173z"/>
	<path class="st12" d="M68.1,171.3c0,0.5,0,1-0.1,1.6s-0.2,1-0.4,1.4c-0.2,0.4-0.5,0.7-0.8,1s-0.7,0.4-1.2,0.4s-0.9-0.1-1.2-0.4
		c-0.3-0.2-0.6-0.6-0.8-1c-0.2-0.4-0.3-0.9-0.4-1.4s-0.1-1-0.1-1.6c0-0.5,0-1,0.1-1.6c0.1-0.5,0.2-1,0.4-1.4c0.2-0.4,0.5-0.7,0.8-1
		c0.3-0.2,0.7-0.4,1.2-0.4s0.9,0.1,1.2,0.4c0.3,0.2,0.6,0.6,0.8,1c0.2,0.4,0.3,0.9,0.4,1.4C68.1,170.3,68.1,170.8,68.1,171.3z
		 M67.1,171.3c0-0.4,0-0.8-0.1-1.3s-0.1-0.8-0.2-1.1c-0.1-0.3-0.3-0.6-0.5-0.8s-0.4-0.3-0.8-0.3s-0.6,0.1-0.8,0.3s-0.3,0.5-0.5,0.8
		c-0.1,0.3-0.2,0.7-0.2,1.1s-0.1,0.8-0.1,1.3s0,0.8,0.1,1.3c0,0.4,0.1,0.8,0.2,1.1c0.1,0.3,0.3,0.6,0.5,0.8s0.4,0.3,0.8,0.3
		s0.6-0.1,0.8-0.3s0.3-0.5,0.5-0.8c0.1-0.3,0.2-0.7,0.2-1.1C67.1,172.1,67.1,171.7,67.1,171.3z"/>
</g>
<g>
	<path class="st12" d="M61.8,98.6c0,0.3-0.1,0.6-0.2,0.8c-0.1,0.3-0.3,0.5-0.5,0.7c-0.2,0.2-0.5,0.3-0.8,0.4c-0.3,0.1-0.6,0.1-1,0.1
		c-0.3,0-0.6,0-0.9-0.1c-0.3-0.1-0.6-0.2-0.8-0.4c-0.2-0.2-0.4-0.4-0.6-0.6c-0.1-0.3-0.2-0.6-0.2-0.9c0-0.3,0-0.6,0.2-0.8
		c0.1-0.2,0.2-0.4,0.4-0.6c0.2-0.2,0.4-0.3,0.6-0.5s0.5-0.3,0.7-0.4c-0.2-0.1-0.4-0.2-0.6-0.4c-0.2-0.1-0.4-0.3-0.5-0.5
		c-0.1-0.2-0.3-0.4-0.3-0.6S57,94.4,57,94.2c0-0.3,0.1-0.6,0.2-0.8c0.1-0.2,0.3-0.4,0.5-0.6s0.4-0.3,0.7-0.4s0.6-0.1,0.9-0.1
		c0.3,0,0.6,0,0.9,0.1s0.5,0.2,0.7,0.4s0.4,0.4,0.5,0.6c0.1,0.2,0.2,0.5,0.2,0.8c0,0.3,0,0.5-0.1,0.7s-0.2,0.4-0.3,0.6
		c-0.1,0.2-0.3,0.3-0.5,0.4c-0.2,0.1-0.4,0.3-0.6,0.4c0.2,0.1,0.5,0.3,0.7,0.4c0.2,0.1,0.4,0.3,0.6,0.5s0.3,0.4,0.4,0.6
		C61.8,98,61.8,98.3,61.8,98.6z M60.8,98.6c0-0.3,0-0.5-0.1-0.7s-0.2-0.4-0.3-0.5c-0.1-0.2-0.3-0.3-0.5-0.4
		c-0.2-0.1-0.4-0.2-0.6-0.4c-0.2,0.1-0.4,0.2-0.6,0.4c-0.2,0.1-0.3,0.3-0.5,0.4c-0.1,0.2-0.2,0.3-0.3,0.5s-0.1,0.4-0.1,0.7
		c0,0.2,0,0.4,0.1,0.6c0.1,0.2,0.2,0.3,0.3,0.4s0.3,0.2,0.5,0.3c0.2,0.1,0.4,0.1,0.6,0.1c0.4,0,0.8-0.1,1.1-0.4S60.8,99,60.8,98.6z
		 M60.7,94.2c0-0.4-0.1-0.7-0.4-1c-0.3-0.2-0.6-0.4-1-0.4c-0.4,0-0.7,0.1-1,0.4c-0.3,0.2-0.4,0.6-0.4,1c0,0.2,0,0.4,0.1,0.6
		c0.1,0.2,0.2,0.3,0.3,0.4c0.1,0.1,0.3,0.3,0.4,0.4c0.2,0.1,0.4,0.2,0.6,0.3c0.2-0.1,0.4-0.2,0.5-0.3c0.2-0.1,0.3-0.2,0.4-0.4
		c0.1-0.1,0.2-0.3,0.3-0.4S60.7,94.4,60.7,94.2z"/>
	<path class="st12" d="M68.1,96.5c0,0.5,0,1-0.1,1.6s-0.2,1-0.4,1.4c-0.2,0.4-0.5,0.7-0.8,1s-0.7,0.4-1.2,0.4s-0.9-0.1-1.2-0.4
		c-0.3-0.2-0.6-0.6-0.8-1c-0.2-0.4-0.3-0.9-0.4-1.4s-0.1-1-0.1-1.6s0-1,0.1-1.6s0.2-1,0.4-1.4c0.2-0.4,0.5-0.7,0.8-1
		c0.3-0.2,0.7-0.4,1.2-0.4s0.9,0.1,1.2,0.4s0.6,0.6,0.8,1c0.2,0.4,0.3,0.9,0.4,1.4S68.1,95.9,68.1,96.5z M67.1,96.4
		c0-0.4,0-0.8-0.1-1.3s-0.1-0.8-0.2-1.1c-0.1-0.3-0.3-0.6-0.5-0.8s-0.4-0.3-0.8-0.3S65,93,64.8,93.2s-0.3,0.5-0.5,0.8
		c-0.1,0.3-0.2,0.7-0.2,1.1s-0.1,0.8-0.1,1.3s0,0.8,0.1,1.3c0,0.4,0.1,0.8,0.2,1.1c0.1,0.3,0.3,0.6,0.5,0.8s0.4,0.3,0.8,0.3
		s0.6-0.1,0.8-0.3s0.3-0.5,0.5-0.8c0.1-0.3,0.2-0.7,0.2-1.1C67.1,97.3,67.1,96.8,67.1,96.4z"/>
</g>
<g>
	<path class="st12" d="M53.6,24.7v-6.9c-0.1,0.1-0.3,0.1-0.4,0.2c-0.2,0.1-0.3,0.1-0.5,0.2c-0.2,0.1-0.4,0.1-0.6,0.1
		c-0.2,0-0.4,0.1-0.6,0.1l-0.1-0.6c0.6-0.1,1.1-0.2,1.6-0.5s0.8-0.5,1-0.8h0.7v8.3H53.6z"/>
	<path class="st12" d="M61.6,20.6c0,0.5,0,1-0.1,1.6c-0.1,0.5-0.2,1-0.4,1.4c-0.2,0.4-0.5,0.7-0.8,1c-0.3,0.2-0.7,0.4-1.2,0.4
		s-0.9-0.1-1.2-0.4c-0.3-0.2-0.6-0.6-0.8-1c-0.2-0.4-0.3-0.9-0.4-1.4c-0.1-0.5-0.1-1-0.1-1.6c0-0.5,0-1,0.1-1.6s0.2-1,0.4-1.4
		c0.2-0.4,0.5-0.7,0.8-1c0.3-0.2,0.7-0.4,1.2-0.4s0.9,0.1,1.2,0.4s0.6,0.6,0.8,1c0.2,0.4,0.3,0.9,0.4,1.4S61.6,20.1,61.6,20.6z
		 M60.6,20.6c0-0.4,0-0.8-0.1-1.3c0-0.4-0.1-0.8-0.2-1.1c-0.1-0.3-0.3-0.6-0.5-0.8S59.4,17,59.1,17s-0.6,0.1-0.8,0.3
		s-0.3,0.5-0.5,0.8c-0.1,0.3-0.2,0.7-0.2,1.1c0,0.4-0.1,0.8-0.1,1.3s0,0.8,0.1,1.3s0.1,0.8,0.2,1.1c0.1,0.3,0.3,0.6,0.5,0.8
		s0.4,0.3,0.8,0.3s0.6-0.1,0.8-0.3s0.3-0.5,0.5-0.8c0.1-0.3,0.2-0.7,0.2-1.1S60.6,21,60.6,20.6z"/>
	<path class="st12" d="M68.1,20.6c0,0.5,0,1-0.1,1.6c-0.1,0.5-0.2,1-0.4,1.4c-0.2,0.4-0.5,0.7-0.8,1c-0.3,0.2-0.7,0.4-1.2,0.4
		s-0.9-0.1-1.2-0.4c-0.3-0.2-0.6-0.6-0.8-1c-0.2-0.4-0.3-0.9-0.4-1.4c-0.1-0.5-0.1-1-0.1-1.6c0-0.5,0-1,0.1-1.6s0.2-1,0.4-1.4
		c0.2-0.4,0.5-0.7,0.8-1c0.3-0.2,0.7-0.4,1.2-0.4s0.9,0.1,1.2,0.4s0.6,0.6,0.8,1c0.2,0.4,0.3,0.9,0.4,1.4S68.1,20.1,68.1,20.6z
		 M67.1,20.6c0-0.4,0-0.8-0.1-1.3c0-0.4-0.1-0.8-0.2-1.1c-0.1-0.3-0.3-0.6-0.5-0.8S65.9,17,65.6,17s-0.6,0.1-0.8,0.3
		s-0.3,0.5-0.5,0.8c-0.1,0.3-0.2,0.7-0.2,1.1c0,0.4-0.1,0.8-0.1,1.3s0,0.8,0.1,1.3s0.1,0.8,0.2,1.1c0.1,0.3,0.3,0.6,0.5,0.8
		s0.4,0.3,0.8,0.3s0.6-0.1,0.8-0.3s0.3-0.5,0.5-0.8c0.1-0.3,0.2-0.7,0.2-1.1S67.1,21,67.1,20.6z"/>
</g>
<g>
	<path class="st12" d="M106.2,418v-6.9c-0.1,0.1-0.3,0.1-0.4,0.2c-0.2,0.1-0.3,0.1-0.5,0.2c-0.2,0.1-0.4,0.1-0.6,0.1
		c-0.2,0-0.4,0.1-0.6,0.1l-0.1-0.6c0.6-0.1,1.1-0.2,1.6-0.4c0.5-0.2,0.8-0.5,1-0.8h0.7v8.3H106.2z"/>
	<path class="st12" d="M114.2,413.9c0,0.5,0,1-0.1,1.6s-0.2,1-0.4,1.4c-0.2,0.4-0.5,0.7-0.8,1s-0.7,0.4-1.2,0.4s-0.9-0.1-1.2-0.4
		c-0.3-0.2-0.6-0.6-0.8-1c-0.2-0.4-0.3-0.9-0.4-1.4s-0.1-1-0.1-1.6s0-1,0.1-1.6s0.2-1,0.4-1.4c0.2-0.4,0.5-0.7,0.8-1
		c0.3-0.2,0.7-0.4,1.2-0.4s0.9,0.1,1.2,0.4s0.6,0.6,0.8,1c0.2,0.4,0.3,0.9,0.4,1.4S114.2,413.3,114.2,413.9z M113.2,413.8
		c0-0.4,0-0.8-0.1-1.3s-0.1-0.8-0.2-1.1c-0.1-0.3-0.3-0.6-0.5-0.8s-0.4-0.3-0.8-0.3s-0.6,0.1-0.8,0.3s-0.3,0.5-0.5,0.8
		c-0.1,0.3-0.2,0.7-0.2,1.1s-0.1,0.8-0.1,1.3s0,0.8,0.1,1.3c0,0.4,0.1,0.8,0.2,1.1c0.1,0.3,0.3,0.6,0.5,0.8s0.4,0.3,0.8,0.3
		s0.6-0.1,0.8-0.3s0.3-0.5,0.5-0.8c0.1-0.3,0.2-0.7,0.2-1.1C113.2,414.7,113.2,414.3,113.2,413.8z"/>
	<path class="st12" d="M119,412.2c0,0.3,0,0.6-0.1,0.9s-0.2,0.6-0.3,0.8c-0.1,0.2-0.3,0.4-0.5,0.6c-0.2,0.1-0.5,0.2-0.8,0.2
		s-0.5-0.1-0.8-0.2c-0.2-0.1-0.4-0.3-0.5-0.6c-0.1-0.2-0.2-0.5-0.3-0.8c-0.1-0.3-0.1-0.6-0.1-0.9c0-0.3,0-0.6,0.1-0.9
		c0.1-0.3,0.2-0.6,0.3-0.8s0.3-0.4,0.5-0.6s0.5-0.2,0.8-0.2s0.5,0.1,0.8,0.2s0.4,0.3,0.5,0.6c0.1,0.2,0.2,0.5,0.3,0.8
		C118.9,411.5,119,411.9,119,412.2z M118.2,412.2c0-0.2,0-0.5,0-0.7c0-0.2-0.1-0.5-0.1-0.7c-0.1-0.2-0.2-0.3-0.3-0.5
		c-0.1-0.1-0.3-0.2-0.4-0.2s-0.3,0.1-0.4,0.2c-0.1,0.1-0.2,0.3-0.3,0.5c-0.1,0.2-0.1,0.4-0.1,0.7c0,0.2,0,0.5,0,0.7
		c0,0.3,0,0.5,0,0.7c0,0.2,0.1,0.5,0.1,0.6c0.1,0.2,0.2,0.3,0.3,0.5c0.1,0.1,0.3,0.2,0.4,0.2s0.3-0.1,0.4-0.2
		c0.1-0.1,0.2-0.3,0.3-0.5c0.1-0.2,0.1-0.4,0.1-0.6C118.2,412.7,118.2,412.4,118.2,412.2z M118.9,418.1l-0.6-0.2l2.8-8.3l0.6,0.2
		L118.9,418.1z M124.4,415.6c0,0.3,0,0.6-0.1,0.9c-0.1,0.3-0.2,0.6-0.3,0.8c-0.1,0.2-0.3,0.4-0.5,0.6c-0.2,0.1-0.5,0.2-0.8,0.2
		s-0.6-0.1-0.8-0.2c-0.2-0.1-0.4-0.3-0.5-0.6s-0.2-0.5-0.3-0.8c-0.1-0.3-0.1-0.6-0.1-0.9s0-0.6,0.1-0.9c0.1-0.3,0.2-0.6,0.3-0.8
		c0.1-0.2,0.3-0.4,0.5-0.6c0.2-0.1,0.5-0.2,0.8-0.2s0.5,0.1,0.8,0.2c0.2,0.1,0.4,0.3,0.5,0.6c0.1,0.2,0.2,0.5,0.3,0.8
		C124.4,414.9,124.4,415.2,124.4,415.6z M123.6,415.5c0-0.2,0-0.5,0-0.7s-0.1-0.5-0.1-0.7c-0.1-0.2-0.2-0.3-0.3-0.5
		c-0.1-0.1-0.3-0.2-0.4-0.2s-0.3,0.1-0.4,0.2c-0.1,0.1-0.2,0.3-0.3,0.5c-0.1,0.2-0.1,0.4-0.2,0.7s0,0.5,0,0.7c0,0.3,0,0.5,0,0.7
		c0,0.2,0.1,0.5,0.2,0.6c0.1,0.2,0.2,0.3,0.3,0.5c0.1,0.1,0.3,0.2,0.4,0.2s0.3-0.1,0.4-0.2c0.1-0.1,0.2-0.3,0.3-0.5
		c0.1-0.2,0.1-0.4,0.1-0.6C123.6,416,123.6,415.8,123.6,415.5z"/>
</g>
<g>
	<path class="st12" d="M141.8,418l3-4.3c0.3-0.4,0.5-0.8,0.6-1c0.1-0.3,0.1-0.5,0.1-0.8c0-0.5-0.1-0.8-0.4-1.1
		c-0.3-0.3-0.7-0.4-1.3-0.4c-0.3,0-0.5,0-0.8,0.1c-0.3,0.1-0.5,0.1-0.7,0.3l-0.3-0.7c0.3-0.1,0.6-0.3,0.9-0.3
		c0.3-0.1,0.7-0.1,1.1-0.1c0.9,0,1.5,0.2,1.9,0.6s0.6,0.9,0.6,1.6c0,0.3-0.1,0.6-0.2,1c-0.2,0.4-0.4,0.8-0.8,1.3l-2.2,3h3.3v0.9
		H141.8z"/>
	<path class="st12" d="M153.1,413.9c0,0.5,0,1-0.1,1.6s-0.2,1-0.4,1.4c-0.2,0.4-0.5,0.7-0.8,1s-0.7,0.4-1.2,0.4s-0.9-0.1-1.2-0.4
		c-0.3-0.2-0.6-0.6-0.8-1c-0.2-0.4-0.3-0.9-0.4-1.4s-0.1-1-0.1-1.6s0-1,0.1-1.6s0.2-1,0.4-1.4c0.2-0.4,0.5-0.7,0.8-1
		c0.3-0.2,0.7-0.4,1.2-0.4s0.9,0.1,1.2,0.4s0.6,0.6,0.8,1c0.2,0.4,0.3,0.9,0.4,1.4S153.1,413.3,153.1,413.9z M152,413.8
		c0-0.4,0-0.8-0.1-1.3s-0.1-0.8-0.2-1.1c-0.1-0.3-0.3-0.6-0.5-0.8s-0.4-0.3-0.8-0.3s-0.6,0.1-0.8,0.3s-0.3,0.5-0.5,0.8
		c-0.1,0.3-0.2,0.7-0.2,1.1s-0.1,0.8-0.1,1.3s0,0.8,0.1,1.3c0,0.4,0.1,0.8,0.2,1.1c0.1,0.3,0.3,0.6,0.5,0.8s0.4,0.3,0.8,0.3
		s0.6-0.1,0.8-0.3s0.3-0.5,0.5-0.8c0.1-0.3,0.2-0.7,0.2-1.1C152,414.7,152,414.3,152,413.8z"/>
	<path class="st12" d="M157.8,412.2c0,0.3,0,0.6-0.1,0.9s-0.2,0.6-0.3,0.8c-0.1,0.2-0.3,0.4-0.5,0.6c-0.2,0.1-0.5,0.2-0.8,0.2
		s-0.5-0.1-0.8-0.2c-0.2-0.1-0.4-0.3-0.5-0.6c-0.1-0.2-0.2-0.5-0.3-0.8c-0.1-0.3-0.1-0.6-0.1-0.9c0-0.3,0-0.6,0.1-0.9
		c0.1-0.3,0.2-0.6,0.3-0.8s0.3-0.4,0.5-0.6s0.5-0.2,0.8-0.2s0.5,0.1,0.8,0.2s0.4,0.3,0.5,0.6c0.1,0.2,0.2,0.5,0.3,0.8
		C157.8,411.5,157.8,411.9,157.8,412.2z M157,412.2c0-0.2,0-0.5,0-0.7c0-0.2-0.1-0.5-0.1-0.7c-0.1-0.2-0.2-0.3-0.3-0.5
		c-0.1-0.1-0.3-0.2-0.4-0.2s-0.3,0.1-0.4,0.2c-0.1,0.1-0.2,0.3-0.3,0.5c-0.1,0.2-0.1,0.4-0.1,0.7c0,0.2,0,0.5,0,0.7
		c0,0.3,0,0.5,0,0.7c0,0.2,0.1,0.5,0.1,0.6c0.1,0.2,0.2,0.3,0.3,0.5c0.1,0.1,0.3,0.2,0.4,0.2s0.3-0.1,0.4-0.2
		c0.1-0.1,0.2-0.3,0.3-0.5c0.1-0.2,0.1-0.4,0.1-0.6C157,412.7,157,412.4,157,412.2z M157.7,418.1l-0.6-0.2l2.8-8.3l0.6,0.2
		L157.7,418.1z M163.3,415.6c0,0.3,0,0.6-0.1,0.9c-0.1,0.3-0.2,0.6-0.3,0.8c-0.1,0.2-0.3,0.4-0.5,0.6c-0.2,0.1-0.5,0.2-0.8,0.2
		s-0.6-0.1-0.8-0.2c-0.2-0.1-0.4-0.3-0.5-0.6s-0.2-0.5-0.3-0.8c-0.1-0.3-0.1-0.6-0.1-0.9s0-0.6,0.1-0.9c0.1-0.3,0.2-0.6,0.3-0.8
		c0.1-0.2,0.3-0.4,0.5-0.6c0.2-0.1,0.5-0.2,0.8-0.2s0.5,0.1,0.8,0.2c0.2,0.1,0.4,0.3,0.5,0.6c0.1,0.2,0.2,0.5,0.3,0.8
		C163.2,414.9,163.3,415.2,163.3,415.6z M162.5,415.5c0-0.2,0-0.5,0-0.7s-0.1-0.5-0.1-0.7c-0.1-0.2-0.2-0.3-0.3-0.5
		c-0.1-0.1-0.3-0.2-0.4-0.2s-0.3,0.1-0.4,0.2c-0.1,0.1-0.2,0.3-0.3,0.5c-0.1,0.2-0.1,0.4-0.2,0.7s0,0.5,0,0.7c0,0.3,0,0.5,0,0.7
		c0,0.2,0.1,0.5,0.2,0.6c0.1,0.2,0.2,0.3,0.3,0.5c0.1,0.1,0.3,0.2,0.4,0.2s0.3-0.1,0.4-0.2c0.1-0.1,0.2-0.3,0.3-0.5
		c0.1-0.2,0.1-0.4,0.1-0.6C162.5,416,162.5,415.8,162.5,415.5z"/>
</g>
<g>
	<path class="st12" d="M184.6,415.6c0,0.4-0.1,0.7-0.2,1c-0.1,0.3-0.3,0.6-0.6,0.8c-0.2,0.2-0.5,0.4-0.9,0.5
		c-0.3,0.1-0.7,0.2-1.1,0.2c-0.4,0-0.8,0-1.1-0.1s-0.7-0.2-1-0.3l0.3-0.7c0.2,0.1,0.5,0.2,0.8,0.3c0.3,0.1,0.6,0.1,0.9,0.1
		c0.5,0,1-0.2,1.3-0.5c0.3-0.3,0.5-0.7,0.5-1.3c0-0.3-0.1-0.6-0.2-0.8c-0.1-0.2-0.3-0.4-0.5-0.5c-0.2-0.1-0.4-0.2-0.7-0.3
		c-0.3-0.1-0.5-0.1-0.8-0.1h-0.3v-0.6c0.6,0,1.1-0.2,1.5-0.5c0.4-0.3,0.6-0.7,0.6-1.1c0-0.2,0-0.4-0.1-0.6c-0.1-0.2-0.2-0.3-0.3-0.4
		s-0.3-0.2-0.5-0.2s-0.3-0.1-0.5-0.1c-0.6,0-1.1,0.1-1.5,0.3L180,410c0.3-0.1,0.6-0.2,0.9-0.3s0.7-0.1,1-0.1c0.3,0,0.6,0,0.9,0.1
		c0.3,0.1,0.5,0.2,0.7,0.4s0.4,0.4,0.5,0.6c0.1,0.2,0.2,0.5,0.2,0.8c0,0.3,0,0.5-0.1,0.7c-0.1,0.2-0.2,0.4-0.4,0.5
		c-0.1,0.2-0.3,0.3-0.5,0.4c-0.2,0.1-0.4,0.2-0.5,0.3v0c0.2,0.1,0.4,0.1,0.7,0.2c0.2,0.1,0.4,0.2,0.6,0.4c0.2,0.2,0.3,0.4,0.4,0.6
		C184.6,415,184.6,415.3,184.6,415.6z"/>
	<path class="st12" d="M191,413.9c0,0.5,0,1-0.1,1.6s-0.2,1-0.4,1.4c-0.2,0.4-0.5,0.7-0.8,1s-0.7,0.4-1.2,0.4s-0.9-0.1-1.2-0.4
		c-0.3-0.2-0.6-0.6-0.8-1c-0.2-0.4-0.3-0.9-0.4-1.4s-0.1-1-0.1-1.6s0-1,0.1-1.6s0.2-1,0.4-1.4c0.2-0.4,0.5-0.7,0.8-1
		c0.3-0.2,0.7-0.4,1.2-0.4s0.9,0.1,1.2,0.4s0.6,0.6,0.8,1c0.2,0.4,0.3,0.9,0.4,1.4S191,413.3,191,413.9z M189.9,413.8
		c0-0.4,0-0.8-0.1-1.3s-0.1-0.8-0.2-1.1c-0.1-0.3-0.3-0.6-0.5-0.8s-0.4-0.3-0.8-0.3s-0.6,0.1-0.8,0.3s-0.3,0.5-0.5,0.8
		c-0.1,0.3-0.2,0.7-0.2,1.1s-0.1,0.8-0.1,1.3s0,0.8,0.1,1.3c0,0.4,0.1,0.8,0.2,1.1c0.1,0.3,0.3,0.6,0.5,0.8s0.4,0.3,0.8,0.3
		s0.6-0.1,0.8-0.3s0.3-0.5,0.5-0.8c0.1-0.3,0.2-0.7,0.2-1.1C189.9,414.7,189.9,414.3,189.9,413.8z"/>
	<path class="st12" d="M195.7,412.2c0,0.3,0,0.6-0.1,0.9s-0.2,0.6-0.3,0.8c-0.1,0.2-0.3,0.4-0.5,0.6c-0.2,0.1-0.5,0.2-0.8,0.2
		s-0.5-0.1-0.8-0.2c-0.2-0.1-0.4-0.3-0.5-0.6c-0.1-0.2-0.2-0.5-0.3-0.8c-0.1-0.3-0.1-0.6-0.1-0.9c0-0.3,0-0.6,0.1-0.9
		c0.1-0.3,0.2-0.6,0.3-0.8s0.3-0.4,0.5-0.6s0.5-0.2,0.8-0.2s0.5,0.1,0.8,0.2s0.4,0.3,0.5,0.6c0.1,0.2,0.2,0.5,0.3,0.8
		C195.7,411.5,195.7,411.9,195.7,412.2z M195,412.2c0-0.2,0-0.5,0-0.7c0-0.2-0.1-0.5-0.1-0.7c-0.1-0.2-0.2-0.3-0.3-0.5
		c-0.1-0.1-0.3-0.2-0.4-0.2s-0.3,0.1-0.4,0.2c-0.1,0.1-0.2,0.3-0.3,0.5c-0.1,0.2-0.1,0.4-0.1,0.7c0,0.2,0,0.5,0,0.7
		c0,0.3,0,0.5,0,0.7c0,0.2,0.1,0.5,0.1,0.6c0.1,0.2,0.2,0.3,0.3,0.5c0.1,0.1,0.3,0.2,0.4,0.2s0.3-0.1,0.4-0.2
		c0.1-0.1,0.2-0.3,0.3-0.5c0.1-0.2,0.1-0.4,0.1-0.6C194.9,412.7,195,412.4,195,412.2z M195.7,418.1l-0.6-0.2l2.8-8.3l0.6,0.2
		L195.7,418.1z M201.2,415.6c0,0.3,0,0.6-0.1,0.9c-0.1,0.3-0.2,0.6-0.3,0.8c-0.1,0.2-0.3,0.4-0.5,0.6c-0.2,0.1-0.5,0.2-0.8,0.2
		s-0.6-0.1-0.8-0.2c-0.2-0.1-0.4-0.3-0.5-0.6s-0.2-0.5-0.3-0.8c-0.1-0.3-0.1-0.6-0.1-0.9s0-0.6,0.1-0.9c0.1-0.3,0.2-0.6,0.3-0.8
		c0.1-0.2,0.3-0.4,0.5-0.6c0.2-0.1,0.5-0.2,0.8-0.2s0.5,0.1,0.8,0.2c0.2,0.1,0.4,0.3,0.5,0.6c0.1,0.2,0.2,0.5,0.3,0.8
		C201.1,414.9,201.2,415.2,201.2,415.6z M200.4,415.5c0-0.2,0-0.5,0-0.7s-0.1-0.5-0.1-0.7c-0.1-0.2-0.2-0.3-0.3-0.5
		c-0.1-0.1-0.3-0.2-0.4-0.2s-0.3,0.1-0.4,0.2c-0.1,0.1-0.2,0.3-0.3,0.5c-0.1,0.2-0.1,0.4-0.2,0.7s0,0.5,0,0.7c0,0.3,0,0.5,0,0.7
		c0,0.2,0.1,0.5,0.2,0.6c0.1,0.2,0.2,0.3,0.3,0.5c0.1,0.1,0.3,0.2,0.4,0.2s0.3-0.1,0.4-0.2c0.1-0.1,0.2-0.3,0.3-0.5
		c0.1-0.2,0.1-0.4,0.1-0.6C200.4,416,200.4,415.8,200.4,415.5z"/>
</g>
<g>
	<path class="st12" d="M222.1,416.1v1.9h-1v-1.9h-3.4v-0.7l3.3-5.7h1v5.7h0.7v0.6H222.1z M221.2,410.8c-0.1,0.2-0.1,0.3-0.2,0.5
		c-0.1,0.2-0.2,0.4-0.3,0.6l-2.1,3.6h2.6V412C221.1,411.6,221.2,411.2,221.2,410.8L221.2,410.8z"/>
	<path class="st12" d="M229.1,413.9c0,0.5,0,1-0.1,1.6s-0.2,1-0.4,1.4c-0.2,0.4-0.5,0.7-0.8,1s-0.7,0.4-1.2,0.4s-0.9-0.1-1.2-0.4
		c-0.3-0.2-0.6-0.6-0.8-1c-0.2-0.4-0.3-0.9-0.4-1.4s-0.1-1-0.1-1.6s0-1,0.1-1.6s0.2-1,0.4-1.4c0.2-0.4,0.5-0.7,0.8-1
		c0.3-0.2,0.7-0.4,1.2-0.4s0.9,0.1,1.2,0.4s0.6,0.6,0.8,1c0.2,0.4,0.3,0.9,0.4,1.4S229.1,413.3,229.1,413.9z M228,413.8
		c0-0.4,0-0.8-0.1-1.3s-0.1-0.8-0.2-1.1c-0.1-0.3-0.3-0.6-0.5-0.8s-0.4-0.3-0.8-0.3s-0.6,0.1-0.8,0.3s-0.3,0.5-0.5,0.8
		c-0.1,0.3-0.2,0.7-0.2,1.1s-0.1,0.8-0.1,1.3s0,0.8,0.1,1.3c0,0.4,0.1,0.8,0.2,1.1c0.1,0.3,0.3,0.6,0.5,0.8s0.4,0.3,0.8,0.3
		s0.6-0.1,0.8-0.3s0.3-0.5,0.5-0.8c0.1-0.3,0.2-0.7,0.2-1.1C228,414.7,228,414.3,228,413.8z"/>
	<path class="st12" d="M233.8,412.2c0,0.3,0,0.6-0.1,0.9s-0.2,0.6-0.3,0.8c-0.1,0.2-0.3,0.4-0.5,0.6c-0.2,0.1-0.5,0.2-0.8,0.2
		s-0.5-0.1-0.8-0.2c-0.2-0.1-0.4-0.3-0.5-0.6c-0.1-0.2-0.2-0.5-0.3-0.8c-0.1-0.3-0.1-0.6-0.1-0.9c0-0.3,0-0.6,0.1-0.9
		c0.1-0.3,0.2-0.6,0.3-0.8s0.3-0.4,0.5-0.6s0.5-0.2,0.8-0.2s0.5,0.1,0.8,0.2s0.4,0.3,0.5,0.6c0.1,0.2,0.2,0.5,0.3,0.8
		C233.8,411.5,233.8,411.9,233.8,412.2z M233,412.2c0-0.2,0-0.5,0-0.7c0-0.2-0.1-0.5-0.1-0.7c-0.1-0.2-0.2-0.3-0.3-0.5
		c-0.1-0.1-0.3-0.2-0.4-0.2s-0.3,0.1-0.4,0.2c-0.1,0.1-0.2,0.3-0.3,0.5c-0.1,0.2-0.1,0.4-0.1,0.7c0,0.2,0,0.5,0,0.7
		c0,0.3,0,0.5,0,0.7c0,0.2,0.1,0.5,0.1,0.6c0.1,0.2,0.2,0.3,0.3,0.5c0.1,0.1,0.3,0.2,0.4,0.2s0.3-0.1,0.4-0.2
		c0.1-0.1,0.2-0.3,0.3-0.5c0.1-0.2,0.1-0.4,0.1-0.6C233,412.7,233,412.4,233,412.2z M233.7,418.1l-0.6-0.2l2.8-8.3l0.6,0.2
		L233.7,418.1z M239.3,415.6c0,0.3,0,0.6-0.1,0.9c-0.1,0.3-0.2,0.6-0.3,0.8c-0.1,0.2-0.3,0.4-0.5,0.6c-0.2,0.1-0.5,0.2-0.8,0.2
		s-0.6-0.1-0.8-0.2c-0.2-0.1-0.4-0.3-0.5-0.6s-0.2-0.5-0.3-0.8c-0.1-0.3-0.1-0.6-0.1-0.9s0-0.6,0.1-0.9c0.1-0.3,0.2-0.6,0.3-0.8
		c0.1-0.2,0.3-0.4,0.5-0.6c0.2-0.1,0.5-0.2,0.8-0.2s0.5,0.1,0.8,0.2c0.2,0.1,0.4,0.3,0.5,0.6c0.1,0.2,0.2,0.5,0.3,0.8
		C239.2,414.9,239.3,415.2,239.3,415.6z M238.5,415.5c0-0.2,0-0.5,0-0.7s-0.1-0.5-0.1-0.7c-0.1-0.2-0.2-0.3-0.3-0.5
		c-0.1-0.1-0.3-0.2-0.4-0.2s-0.3,0.1-0.4,0.2c-0.1,0.1-0.2,0.3-0.3,0.5c-0.1,0.2-0.1,0.4-0.2,0.7s0,0.5,0,0.7c0,0.3,0,0.5,0,0.7
		c0,0.2,0.1,0.5,0.2,0.6c0.1,0.2,0.2,0.3,0.3,0.5c0.1,0.1,0.3,0.2,0.4,0.2s0.3-0.1,0.4-0.2c0.1-0.1,0.2-0.3,0.3-0.5
		c0.1-0.2,0.1-0.4,0.1-0.6C238.5,416,238.5,415.8,238.5,415.5z"/>
</g>
<g>
	<path class="st12" d="M260.5,415.6c0,0.3-0.1,0.7-0.2,1c-0.1,0.3-0.3,0.6-0.6,0.8c-0.2,0.2-0.5,0.4-0.9,0.5s-0.7,0.2-1.1,0.2
		c-0.4,0-0.8,0-1.1-0.1s-0.7-0.2-0.9-0.3l0.3-0.7c0.2,0.1,0.5,0.2,0.8,0.3s0.6,0.1,0.9,0.1c0.3,0,0.5,0,0.8-0.1
		c0.2-0.1,0.4-0.2,0.6-0.4s0.3-0.3,0.4-0.5s0.1-0.4,0.1-0.7c0-0.6-0.2-1-0.5-1.4c-0.3-0.3-0.9-0.5-1.6-0.5c-0.2,0-0.4,0-0.6,0
		c-0.2,0-0.4,0-0.6,0.1l0.4-4.1h3.7v0.9h-3l-0.3,2.5c0.2,0,0.3,0,0.4,0c0.1,0,0.2,0,0.3,0c0.9,0,1.6,0.2,2.1,0.7
		C260.2,414.2,260.5,414.8,260.5,415.6z"/>
	<path class="st12" d="M266.8,413.9c0,0.5,0,1-0.1,1.6s-0.2,1-0.4,1.4c-0.2,0.4-0.5,0.7-0.8,1s-0.7,0.4-1.2,0.4s-0.9-0.1-1.2-0.4
		c-0.3-0.2-0.6-0.6-0.8-1c-0.2-0.4-0.3-0.9-0.4-1.4s-0.1-1-0.1-1.6s0-1,0.1-1.6s0.2-1,0.4-1.4c0.2-0.4,0.5-0.7,0.8-1
		c0.3-0.2,0.7-0.4,1.2-0.4s0.9,0.1,1.2,0.4s0.6,0.6,0.8,1c0.2,0.4,0.3,0.9,0.4,1.4S266.8,413.3,266.8,413.9z M265.8,413.8
		c0-0.4,0-0.8-0.1-1.3s-0.1-0.8-0.2-1.1c-0.1-0.3-0.3-0.6-0.5-0.8s-0.4-0.3-0.8-0.3s-0.6,0.1-0.8,0.3s-0.3,0.5-0.5,0.8
		c-0.1,0.3-0.2,0.7-0.2,1.1s-0.1,0.8-0.1,1.3s0,0.8,0.1,1.3c0,0.4,0.1,0.8,0.2,1.1c0.1,0.3,0.3,0.6,0.5,0.8s0.4,0.3,0.8,0.3
		s0.6-0.1,0.8-0.3s0.3-0.5,0.5-0.8c0.1-0.3,0.2-0.7,0.2-1.1C265.8,414.7,265.8,414.3,265.8,413.8z"/>
	<path class="st12" d="M271.6,412.2c0,0.3,0,0.6-0.1,0.9s-0.2,0.6-0.3,0.8c-0.1,0.2-0.3,0.4-0.5,0.6c-0.2,0.1-0.5,0.2-0.8,0.2
		s-0.5-0.1-0.8-0.2c-0.2-0.1-0.4-0.3-0.5-0.6c-0.1-0.2-0.2-0.5-0.3-0.8c-0.1-0.3-0.1-0.6-0.1-0.9c0-0.3,0-0.6,0.1-0.9
		c0.1-0.3,0.2-0.6,0.3-0.8s0.3-0.4,0.5-0.6s0.5-0.2,0.8-0.2s0.5,0.1,0.8,0.2s0.4,0.3,0.5,0.6c0.1,0.2,0.2,0.5,0.3,0.8
		C271.6,411.5,271.6,411.9,271.6,412.2z M270.8,412.2c0-0.2,0-0.5,0-0.7c0-0.2-0.1-0.5-0.1-0.7c-0.1-0.2-0.2-0.3-0.3-0.5
		c-0.1-0.1-0.3-0.2-0.4-0.2s-0.3,0.1-0.4,0.2c-0.1,0.1-0.2,0.3-0.3,0.5c-0.1,0.2-0.1,0.4-0.1,0.7c0,0.2,0,0.5,0,0.7
		c0,0.3,0,0.5,0,0.7c0,0.2,0.1,0.5,0.1,0.6c0.1,0.2,0.2,0.3,0.3,0.5c0.1,0.1,0.3,0.2,0.4,0.2s0.3-0.1,0.4-0.2
		c0.1-0.1,0.2-0.3,0.3-0.5c0.1-0.2,0.1-0.4,0.1-0.6C270.8,412.7,270.8,412.4,270.8,412.2z M271.5,418.1l-0.6-0.2l2.8-8.3l0.6,0.2
		L271.5,418.1z M277,415.6c0,0.3,0,0.6-0.1,0.9c-0.1,0.3-0.2,0.6-0.3,0.8c-0.1,0.2-0.3,0.4-0.5,0.6c-0.2,0.1-0.5,0.2-0.8,0.2
		s-0.6-0.1-0.8-0.2c-0.2-0.1-0.4-0.3-0.5-0.6s-0.2-0.5-0.3-0.8c-0.1-0.3-0.1-0.6-0.1-0.9s0-0.6,0.1-0.9c0.1-0.3,0.2-0.6,0.3-0.8
		c0.1-0.2,0.3-0.4,0.5-0.6c0.2-0.1,0.5-0.2,0.8-0.2s0.5,0.1,0.8,0.2c0.2,0.1,0.4,0.3,0.5,0.6c0.1,0.2,0.2,0.5,0.3,0.8
		C277,414.9,277,415.2,277,415.6z M276.3,415.5c0-0.2,0-0.5,0-0.7s-0.1-0.5-0.1-0.7c-0.1-0.2-0.2-0.3-0.3-0.5
		c-0.1-0.1-0.3-0.2-0.4-0.2s-0.3,0.1-0.4,0.2c-0.1,0.1-0.2,0.3-0.3,0.5c-0.1,0.2-0.1,0.4-0.2,0.7s0,0.5,0,0.7c0,0.3,0,0.5,0,0.7
		c0,0.2,0.1,0.5,0.2,0.6c0.1,0.2,0.2,0.3,0.3,0.5c0.1,0.1,0.3,0.2,0.4,0.2s0.3-0.1,0.4-0.2c0.1-0.1,0.2-0.3,0.3-0.5
		c0.1-0.2,0.1-0.4,0.1-0.6C276.2,416,276.3,415.8,276.3,415.5z"/>
</g>
<g>
	<path class="st12" d="M298.7,415.6c0,0.3,0,0.6-0.2,1c-0.1,0.3-0.3,0.6-0.5,0.8s-0.5,0.4-0.8,0.6c-0.3,0.1-0.7,0.2-1.1,0.2
		c-0.8,0-1.5-0.3-1.9-0.8c-0.4-0.6-0.7-1.3-0.7-2.3c0-0.7,0.1-1.3,0.3-1.9s0.5-1.1,0.9-1.5c0.4-0.5,0.8-0.8,1.3-1.2
		c0.5-0.3,1.1-0.6,1.8-0.8l0.2,0.7c-0.4,0.1-0.8,0.3-1.1,0.4c-0.3,0.2-0.6,0.4-0.9,0.6c-0.3,0.2-0.5,0.5-0.7,0.8
		c-0.2,0.3-0.4,0.7-0.5,1.1c0.2-0.1,0.3-0.1,0.5-0.2s0.4-0.1,0.6-0.1c0.8,0,1.5,0.2,1.9,0.6C298.5,414.1,298.7,414.8,298.7,415.6z
		 M297.7,415.5c0-1.3-0.6-1.9-1.8-1.9c-0.2,0-0.4,0-0.6,0.1c-0.2,0-0.4,0.1-0.5,0.2c0,0.2-0.1,0.4-0.1,0.6c0,0.2,0,0.4,0,0.6
		c0,0.7,0.1,1.3,0.4,1.8c0.3,0.4,0.6,0.6,1.2,0.6c0.3,0,0.5-0.1,0.7-0.2c0.2-0.1,0.3-0.2,0.5-0.4s0.2-0.4,0.3-0.6
		C297.7,416,297.7,415.8,297.7,415.5z"/>
	<path class="st12" d="M305.1,413.9c0,0.5,0,1-0.1,1.6s-0.2,1-0.4,1.4c-0.2,0.4-0.5,0.7-0.8,1s-0.7,0.4-1.2,0.4s-0.9-0.1-1.2-0.4
		c-0.3-0.2-0.6-0.6-0.8-1c-0.2-0.4-0.3-0.9-0.4-1.4s-0.1-1-0.1-1.6s0-1,0.1-1.6s0.2-1,0.4-1.4c0.2-0.4,0.5-0.7,0.8-1
		c0.3-0.2,0.7-0.4,1.2-0.4s0.9,0.1,1.2,0.4s0.6,0.6,0.8,1c0.2,0.4,0.3,0.9,0.4,1.4S305.1,413.3,305.1,413.9z M304,413.8
		c0-0.4,0-0.8-0.1-1.3s-0.1-0.8-0.2-1.1c-0.1-0.3-0.3-0.6-0.5-0.8s-0.4-0.3-0.8-0.3s-0.6,0.1-0.8,0.3s-0.3,0.5-0.5,0.8
		c-0.1,0.3-0.2,0.7-0.2,1.1s-0.1,0.8-0.1,1.3s0,0.8,0.1,1.3c0,0.4,0.1,0.8,0.2,1.1c0.1,0.3,0.3,0.6,0.5,0.8s0.4,0.3,0.8,0.3
		s0.6-0.1,0.8-0.3s0.3-0.5,0.5-0.8c0.1-0.3,0.2-0.7,0.2-1.1C304,414.7,304,414.3,304,413.8z"/>
	<path class="st12" d="M309.8,412.2c0,0.3,0,0.6-0.1,0.9s-0.2,0.6-0.3,0.8c-0.1,0.2-0.3,0.4-0.5,0.6c-0.2,0.1-0.5,0.2-0.8,0.2
		s-0.5-0.1-0.8-0.2c-0.2-0.1-0.4-0.3-0.5-0.6c-0.1-0.2-0.2-0.5-0.3-0.8c-0.1-0.3-0.1-0.6-0.1-0.9c0-0.3,0-0.6,0.1-0.9
		c0.1-0.3,0.2-0.6,0.3-0.8s0.3-0.4,0.5-0.6s0.5-0.2,0.8-0.2s0.5,0.1,0.8,0.2s0.4,0.3,0.5,0.6c0.1,0.2,0.2,0.5,0.3,0.8
		C309.8,411.5,309.8,411.9,309.8,412.2z M309,412.2c0-0.2,0-0.5,0-0.7c0-0.2-0.1-0.5-0.1-0.7c-0.1-0.2-0.2-0.3-0.3-0.5
		c-0.1-0.1-0.3-0.2-0.4-0.2s-0.3,0.1-0.4,0.2c-0.1,0.1-0.2,0.3-0.3,0.5c-0.1,0.2-0.1,0.4-0.1,0.7c0,0.2,0,0.5,0,0.7
		c0,0.3,0,0.5,0,0.7c0,0.2,0.1,0.5,0.1,0.6c0.1,0.2,0.2,0.3,0.3,0.5c0.1,0.1,0.3,0.2,0.4,0.2s0.3-0.1,0.4-0.2
		c0.1-0.1,0.2-0.3,0.3-0.5c0.1-0.2,0.1-0.4,0.1-0.6C309,412.7,309,412.4,309,412.2z M309.7,418.1l-0.6-0.2l2.8-8.3l0.6,0.2
		L309.7,418.1z M315.3,415.6c0,0.3,0,0.6-0.1,0.9c-0.1,0.3-0.2,0.6-0.3,0.8c-0.1,0.2-0.3,0.4-0.5,0.6c-0.2,0.1-0.5,0.2-0.8,0.2
		s-0.6-0.1-0.8-0.2c-0.2-0.1-0.4-0.3-0.5-0.6s-0.2-0.5-0.3-0.8c-0.1-0.3-0.1-0.6-0.1-0.9s0-0.6,0.1-0.9c0.1-0.3,0.2-0.6,0.3-0.8
		c0.1-0.2,0.3-0.4,0.5-0.6c0.2-0.1,0.5-0.2,0.8-0.2s0.5,0.1,0.8,0.2c0.2,0.1,0.4,0.3,0.5,0.6c0.1,0.2,0.2,0.5,0.3,0.8
		C315.2,414.9,315.3,415.2,315.3,415.6z M314.5,415.5c0-0.2,0-0.5,0-0.7s-0.1-0.5-0.1-0.7c-0.1-0.2-0.2-0.3-0.3-0.5
		c-0.1-0.1-0.3-0.2-0.4-0.2s-0.3,0.1-0.4,0.2c-0.1,0.1-0.2,0.3-0.3,0.5c-0.1,0.2-0.1,0.4-0.2,0.7s0,0.5,0,0.7c0,0.3,0,0.5,0,0.7
		c0,0.2,0.1,0.5,0.2,0.6c0.1,0.2,0.2,0.3,0.3,0.5c0.1,0.1,0.3,0.2,0.4,0.2s0.3-0.1,0.4-0.2c0.1-0.1,0.2-0.3,0.3-0.5
		c0.1-0.2,0.1-0.4,0.1-0.6C314.5,416,314.5,415.8,314.5,415.5z"/>
</g>
<g>
	<path class="st12" d="M335.7,412.3c-0.2,0.5-0.5,1.1-0.7,1.6c-0.2,0.6-0.4,1.1-0.6,1.6c-0.2,0.5-0.3,1-0.5,1.4
		c-0.1,0.4-0.2,0.8-0.3,1.1h-1.3l3.2-7.4h-3.8v-0.9h5.1L335.7,412.3z"/>
	<path class="st12" d="M342.5,413.9c0,0.5,0,1-0.1,1.6s-0.2,1-0.4,1.4c-0.2,0.4-0.5,0.7-0.8,1s-0.7,0.4-1.2,0.4s-0.9-0.1-1.2-0.4
		c-0.3-0.2-0.6-0.6-0.8-1c-0.2-0.4-0.3-0.9-0.4-1.4s-0.1-1-0.1-1.6s0-1,0.1-1.6s0.2-1,0.4-1.4c0.2-0.4,0.5-0.7,0.8-1
		c0.3-0.2,0.7-0.4,1.2-0.4s0.9,0.1,1.2,0.4s0.6,0.6,0.8,1c0.2,0.4,0.3,0.9,0.4,1.4S342.5,413.3,342.5,413.9z M341.5,413.8
		c0-0.4,0-0.8-0.1-1.3s-0.1-0.8-0.2-1.1c-0.1-0.3-0.3-0.6-0.5-0.8s-0.4-0.3-0.8-0.3s-0.6,0.1-0.8,0.3s-0.3,0.5-0.5,0.8
		c-0.1,0.3-0.2,0.7-0.2,1.1s-0.1,0.8-0.1,1.3s0,0.8,0.1,1.3c0,0.4,0.1,0.8,0.2,1.1c0.1,0.3,0.3,0.6,0.5,0.8s0.4,0.3,0.8,0.3
		s0.6-0.1,0.8-0.3s0.3-0.5,0.5-0.8c0.1-0.3,0.2-0.7,0.2-1.1C341.5,414.7,341.5,414.3,341.5,413.8z"/>
	<path class="st12" d="M347.3,412.2c0,0.3,0,0.6-0.1,0.9s-0.2,0.6-0.3,0.8c-0.1,0.2-0.3,0.4-0.5,0.6c-0.2,0.1-0.5,0.2-0.8,0.2
		s-0.5-0.1-0.8-0.2c-0.2-0.1-0.4-0.3-0.5-0.6c-0.1-0.2-0.2-0.5-0.3-0.8c-0.1-0.3-0.1-0.6-0.1-0.9c0-0.3,0-0.6,0.1-0.9
		c0.1-0.3,0.2-0.6,0.3-0.8s0.3-0.4,0.5-0.6s0.5-0.2,0.8-0.2s0.5,0.1,0.8,0.2s0.4,0.3,0.5,0.6c0.1,0.2,0.2,0.5,0.3,0.8
		C347.2,411.5,347.3,411.9,347.3,412.2z M346.5,412.2c0-0.2,0-0.5,0-0.7c0-0.2-0.1-0.5-0.1-0.7c-0.1-0.2-0.2-0.3-0.3-0.5
		c-0.1-0.1-0.3-0.2-0.4-0.2s-0.3,0.1-0.4,0.2c-0.1,0.1-0.2,0.3-0.3,0.5c-0.1,0.2-0.1,0.4-0.1,0.7c0,0.2,0,0.5,0,0.7
		c0,0.3,0,0.5,0,0.7c0,0.2,0.1,0.5,0.1,0.6c0.1,0.2,0.2,0.3,0.3,0.5c0.1,0.1,0.3,0.2,0.4,0.2s0.3-0.1,0.4-0.2
		c0.1-0.1,0.2-0.3,0.3-0.5c0.1-0.2,0.1-0.4,0.1-0.6C346.5,412.7,346.5,412.4,346.5,412.2z M347.2,418.1l-0.6-0.2l2.8-8.3l0.6,0.2
		L347.2,418.1z M352.7,415.6c0,0.3,0,0.6-0.1,0.9c-0.1,0.3-0.2,0.6-0.3,0.8c-0.1,0.2-0.3,0.4-0.5,0.6c-0.2,0.1-0.5,0.2-0.8,0.2
		s-0.6-0.1-0.8-0.2c-0.2-0.1-0.4-0.3-0.5-0.6s-0.2-0.5-0.3-0.8c-0.1-0.3-0.1-0.6-0.1-0.9s0-0.6,0.1-0.9c0.1-0.3,0.2-0.6,0.3-0.8
		c0.1-0.2,0.3-0.4,0.5-0.6c0.2-0.1,0.5-0.2,0.8-0.2s0.5,0.1,0.8,0.2c0.2,0.1,0.4,0.3,0.5,0.6c0.1,0.2,0.2,0.5,0.3,0.8
		C352.7,414.9,352.7,415.2,352.7,415.6z M351.9,415.5c0-0.2,0-0.5,0-0.7s-0.1-0.5-0.1-0.7c-0.1-0.2-0.2-0.3-0.3-0.5
		c-0.1-0.1-0.3-0.2-0.4-0.2s-0.3,0.1-0.4,0.2c-0.1,0.1-0.2,0.3-0.3,0.5c-0.1,0.2-0.1,0.4-0.2,0.7s0,0.5,0,0.7c0,0.3,0,0.5,0,0.7
		c0,0.2,0.1,0.5,0.2,0.6c0.1,0.2,0.2,0.3,0.3,0.5c0.1,0.1,0.3,0.2,0.4,0.2s0.3-0.1,0.4-0.2c0.1-0.1,0.2-0.3,0.3-0.5
		c0.1-0.2,0.1-0.4,0.1-0.6C351.9,416,351.9,415.8,351.9,415.5z"/>
</g>
<g>
	<path class="st12" d="M374.6,416c0,0.3-0.1,0.6-0.2,0.8c-0.1,0.3-0.3,0.5-0.5,0.7c-0.2,0.2-0.5,0.3-0.8,0.4c-0.3,0.1-0.6,0.1-1,0.1
		c-0.3,0-0.6,0-0.9-0.1c-0.3-0.1-0.6-0.2-0.8-0.4c-0.2-0.2-0.4-0.4-0.6-0.6c-0.1-0.3-0.2-0.6-0.2-0.9c0-0.3,0-0.6,0.2-0.8
		c0.1-0.2,0.2-0.4,0.4-0.6c0.2-0.2,0.4-0.3,0.6-0.5s0.5-0.3,0.7-0.4c-0.2-0.1-0.4-0.2-0.6-0.4c-0.2-0.1-0.4-0.3-0.5-0.5
		c-0.1-0.2-0.3-0.4-0.3-0.6s-0.1-0.4-0.1-0.7c0-0.3,0.1-0.6,0.2-0.8c0.1-0.2,0.3-0.4,0.5-0.6s0.4-0.3,0.7-0.4s0.6-0.1,0.9-0.1
		c0.3,0,0.6,0,0.9,0.1s0.5,0.2,0.7,0.4s0.4,0.4,0.5,0.6c0.1,0.2,0.2,0.5,0.2,0.8c0,0.3,0,0.5-0.1,0.7s-0.2,0.4-0.3,0.6
		c-0.1,0.2-0.3,0.3-0.5,0.4c-0.2,0.1-0.4,0.3-0.6,0.4c0.2,0.1,0.5,0.3,0.7,0.4c0.2,0.1,0.4,0.3,0.6,0.5s0.3,0.4,0.4,0.6
		C374.5,415.4,374.6,415.7,374.6,416z M373.6,416c0-0.3,0-0.5-0.1-0.7s-0.2-0.4-0.3-0.5c-0.1-0.2-0.3-0.3-0.5-0.4
		c-0.2-0.1-0.4-0.2-0.6-0.4c-0.2,0.1-0.4,0.2-0.6,0.4c-0.2,0.1-0.3,0.3-0.5,0.4c-0.1,0.2-0.2,0.3-0.3,0.5s-0.1,0.4-0.1,0.7
		c0,0.2,0,0.4,0.1,0.6c0.1,0.2,0.2,0.3,0.3,0.4s0.3,0.2,0.5,0.3c0.2,0.1,0.4,0.1,0.6,0.1c0.4,0,0.8-0.1,1.1-0.4
		S373.6,416.4,373.6,416z M373.4,411.6c0-0.4-0.1-0.7-0.4-1c-0.3-0.2-0.6-0.4-1-0.4c-0.4,0-0.7,0.1-1,0.4c-0.3,0.2-0.4,0.6-0.4,1
		c0,0.2,0,0.4,0.1,0.6c0.1,0.2,0.2,0.3,0.3,0.4c0.1,0.1,0.3,0.3,0.4,0.4c0.2,0.1,0.4,0.2,0.6,0.3c0.2-0.1,0.4-0.2,0.5-0.3
		c0.2-0.1,0.3-0.2,0.4-0.4c0.1-0.1,0.2-0.3,0.3-0.4S373.4,411.8,373.4,411.6z"/>
	<path class="st12" d="M380.9,413.9c0,0.5,0,1-0.1,1.6s-0.2,1-0.4,1.4c-0.2,0.4-0.5,0.7-0.8,1s-0.7,0.4-1.2,0.4s-0.9-0.1-1.2-0.4
		c-0.3-0.2-0.6-0.6-0.8-1c-0.2-0.4-0.3-0.9-0.4-1.4s-0.1-1-0.1-1.6s0-1,0.1-1.6s0.2-1,0.4-1.4c0.2-0.4,0.5-0.7,0.8-1
		c0.3-0.2,0.7-0.4,1.2-0.4s0.9,0.1,1.2,0.4s0.6,0.6,0.8,1c0.2,0.4,0.3,0.9,0.4,1.4S380.9,413.3,380.9,413.9z M379.8,413.8
		c0-0.4,0-0.8-0.1-1.3s-0.1-0.8-0.2-1.1c-0.1-0.3-0.3-0.6-0.5-0.8s-0.4-0.3-0.8-0.3s-0.6,0.1-0.8,0.3s-0.3,0.5-0.5,0.8
		c-0.1,0.3-0.2,0.7-0.2,1.1s-0.1,0.8-0.1,1.3s0,0.8,0.1,1.3c0,0.4,0.1,0.8,0.2,1.1c0.1,0.3,0.3,0.6,0.5,0.8s0.4,0.3,0.8,0.3
		s0.6-0.1,0.8-0.3s0.3-0.5,0.5-0.8c0.1-0.3,0.2-0.7,0.2-1.1C379.8,414.7,379.8,414.3,379.8,413.8z"/>
	<path class="st12" d="M385.6,412.2c0,0.3,0,0.6-0.1,0.9s-0.2,0.6-0.3,0.8c-0.1,0.2-0.3,0.4-0.5,0.6c-0.2,0.1-0.5,0.2-0.8,0.2
		s-0.5-0.1-0.8-0.2c-0.2-0.1-0.4-0.3-0.5-0.6c-0.1-0.2-0.2-0.5-0.3-0.8c-0.1-0.3-0.1-0.6-0.1-0.9c0-0.3,0-0.6,0.1-0.9
		c0.1-0.3,0.2-0.6,0.3-0.8s0.3-0.4,0.5-0.6s0.5-0.2,0.8-0.2s0.5,0.1,0.8,0.2s0.4,0.3,0.5,0.6c0.1,0.2,0.2,0.5,0.3,0.8
		C385.6,411.5,385.6,411.9,385.6,412.2z M384.8,412.2c0-0.2,0-0.5,0-0.7c0-0.2-0.1-0.5-0.1-0.7c-0.1-0.2-0.2-0.3-0.3-0.5
		c-0.1-0.1-0.3-0.2-0.4-0.2s-0.3,0.1-0.4,0.2c-0.1,0.1-0.2,0.3-0.3,0.5c-0.1,0.2-0.1,0.4-0.1,0.7c0,0.2,0,0.5,0,0.7
		c0,0.3,0,0.5,0,0.7c0,0.2,0.1,0.5,0.1,0.6c0.1,0.2,0.2,0.3,0.3,0.5c0.1,0.1,0.3,0.2,0.4,0.2s0.3-0.1,0.4-0.2
		c0.1-0.1,0.2-0.3,0.3-0.5c0.1-0.2,0.1-0.4,0.1-0.6C384.8,412.7,384.8,412.4,384.8,412.2z M385.5,418.1l-0.6-0.2l2.8-8.3l0.6,0.2
		L385.5,418.1z M391.1,415.6c0,0.3,0,0.6-0.1,0.9c-0.1,0.3-0.2,0.6-0.3,0.8c-0.1,0.2-0.3,0.4-0.5,0.6c-0.2,0.1-0.5,0.2-0.8,0.2
		s-0.6-0.1-0.8-0.2c-0.2-0.1-0.4-0.3-0.5-0.6s-0.2-0.5-0.3-0.8c-0.1-0.3-0.1-0.6-0.1-0.9s0-0.6,0.1-0.9c0.1-0.3,0.2-0.6,0.3-0.8
		c0.1-0.2,0.3-0.4,0.5-0.6c0.2-0.1,0.5-0.2,0.8-0.2s0.5,0.1,0.8,0.2c0.2,0.1,0.4,0.3,0.5,0.6c0.1,0.2,0.2,0.5,0.3,0.8
		C391,414.9,391.1,415.2,391.1,415.6z M390.3,415.5c0-0.2,0-0.5,0-0.7s-0.1-0.5-0.1-0.7c-0.1-0.2-0.2-0.3-0.3-0.5
		c-0.1-0.1-0.3-0.2-0.4-0.2s-0.3,0.1-0.4,0.2c-0.1,0.1-0.2,0.3-0.3,0.5c-0.1,0.2-0.1,0.4-0.2,0.7s0,0.5,0,0.7c0,0.3,0,0.5,0,0.7
		c0,0.2,0.1,0.5,0.2,0.6c0.1,0.2,0.2,0.3,0.3,0.5c0.1,0.1,0.3,0.2,0.4,0.2s0.3-0.1,0.4-0.2c0.1-0.1,0.2-0.3,0.3-0.5
		c0.1-0.2,0.1-0.4,0.1-0.6C390.3,416,390.3,415.8,390.3,415.5z"/>
</g>
<g>
	<path class="st12" d="M412.5,412.7c0,0.7-0.1,1.3-0.3,1.9c-0.2,0.6-0.5,1.1-0.9,1.5c-0.4,0.5-0.8,0.8-1.3,1.2
		c-0.5,0.3-1.1,0.6-1.8,0.8l-0.2-0.7c0.4-0.1,0.8-0.3,1.1-0.4s0.6-0.4,0.9-0.6c0.3-0.2,0.5-0.5,0.7-0.8c0.2-0.3,0.4-0.7,0.6-1.1
		c-0.2,0.1-0.4,0.1-0.5,0.2c-0.2,0-0.4,0.1-0.6,0.1c-0.8,0-1.5-0.2-1.9-0.6c-0.5-0.4-0.7-1-0.7-1.8c0-0.3,0-0.6,0.1-1
		c0.1-0.3,0.3-0.6,0.5-0.8s0.5-0.4,0.8-0.6c0.3-0.1,0.7-0.2,1.1-0.2c0.8,0,1.5,0.3,1.9,0.8C412.2,411,412.5,411.8,412.5,412.7z
		 M411.4,412.7c0-0.7-0.1-1.3-0.4-1.8c-0.3-0.4-0.7-0.6-1.2-0.6c-0.3,0-0.5,0.1-0.7,0.2c-0.2,0.1-0.3,0.2-0.4,0.4
		c-0.1,0.2-0.2,0.4-0.3,0.6c-0.1,0.2-0.1,0.5-0.1,0.7c0,1.3,0.6,1.9,1.8,1.9c0.4,0,0.8-0.1,1.1-0.2c0-0.2,0.1-0.4,0.1-0.6
		S411.4,412.9,411.4,412.7z"/>
	<path class="st12" d="M418.9,413.9c0,0.5,0,1-0.1,1.6s-0.2,1-0.4,1.4c-0.2,0.4-0.5,0.7-0.8,1s-0.7,0.4-1.2,0.4s-0.9-0.1-1.2-0.4
		c-0.3-0.2-0.6-0.6-0.8-1c-0.2-0.4-0.3-0.9-0.4-1.4s-0.1-1-0.1-1.6s0-1,0.1-1.6s0.2-1,0.4-1.4c0.2-0.4,0.5-0.7,0.8-1
		c0.3-0.2,0.7-0.4,1.2-0.4s0.9,0.1,1.2,0.4s0.6,0.6,0.8,1c0.2,0.4,0.3,0.9,0.4,1.4S418.9,413.3,418.9,413.9z M417.8,413.8
		c0-0.4,0-0.8-0.1-1.3s-0.1-0.8-0.2-1.1c-0.1-0.3-0.3-0.6-0.5-0.8s-0.4-0.3-0.8-0.3s-0.6,0.1-0.8,0.3s-0.3,0.5-0.5,0.8
		c-0.1,0.3-0.2,0.7-0.2,1.1s-0.1,0.8-0.1,1.3s0,0.8,0.1,1.3c0,0.4,0.1,0.8,0.2,1.1c0.1,0.3,0.3,0.6,0.5,0.8s0.4,0.3,0.8,0.3
		s0.6-0.1,0.8-0.3s0.3-0.5,0.5-0.8c0.1-0.3,0.2-0.7,0.2-1.1C417.8,414.7,417.8,414.3,417.8,413.8z"/>
	<path class="st12" d="M423.6,412.2c0,0.3,0,0.6-0.1,0.9s-0.2,0.6-0.3,0.8c-0.1,0.2-0.3,0.4-0.5,0.6c-0.2,0.1-0.5,0.2-0.8,0.2
		s-0.5-0.1-0.8-0.2c-0.2-0.1-0.4-0.3-0.5-0.6c-0.1-0.2-0.2-0.5-0.3-0.8c-0.1-0.3-0.1-0.6-0.1-0.9c0-0.3,0-0.6,0.1-0.9
		c0.1-0.3,0.2-0.6,0.3-0.8s0.3-0.4,0.5-0.6s0.5-0.2,0.8-0.2s0.5,0.1,0.8,0.2s0.4,0.3,0.5,0.6c0.1,0.2,0.2,0.5,0.3,0.8
		C423.6,411.5,423.6,411.9,423.6,412.2z M422.8,412.2c0-0.2,0-0.5,0-0.7c0-0.2-0.1-0.5-0.1-0.7c-0.1-0.2-0.2-0.3-0.3-0.5
		c-0.1-0.1-0.3-0.2-0.4-0.2s-0.3,0.1-0.4,0.2c-0.1,0.1-0.2,0.3-0.3,0.5c-0.1,0.2-0.1,0.4-0.1,0.7c0,0.2,0,0.5,0,0.7
		c0,0.3,0,0.5,0,0.7c0,0.2,0.1,0.5,0.1,0.6c0.1,0.2,0.2,0.3,0.3,0.5c0.1,0.1,0.3,0.2,0.4,0.2s0.3-0.1,0.4-0.2
		c0.1-0.1,0.2-0.3,0.3-0.5c0.1-0.2,0.1-0.4,0.1-0.6C422.8,412.7,422.8,412.4,422.8,412.2z M423.5,418.1l-0.6-0.2l2.8-8.3l0.6,0.2
		L423.5,418.1z M429,415.6c0,0.3,0,0.6-0.1,0.9c-0.1,0.3-0.2,0.6-0.3,0.8c-0.1,0.2-0.3,0.4-0.5,0.6c-0.2,0.1-0.5,0.2-0.8,0.2
		s-0.6-0.1-0.8-0.2c-0.2-0.1-0.4-0.3-0.5-0.6s-0.2-0.5-0.3-0.8c-0.1-0.3-0.1-0.6-0.1-0.9s0-0.6,0.1-0.9c0.1-0.3,0.2-0.6,0.3-0.8
		c0.1-0.2,0.3-0.4,0.5-0.6c0.2-0.1,0.5-0.2,0.8-0.2s0.5,0.1,0.8,0.2c0.2,0.1,0.4,0.3,0.5,0.6c0.1,0.2,0.2,0.5,0.3,0.8
		C429,414.9,429,415.2,429,415.6z M428.3,415.5c0-0.2,0-0.5,0-0.7s-0.1-0.5-0.1-0.7c-0.1-0.2-0.2-0.3-0.3-0.5
		c-0.1-0.1-0.3-0.2-0.4-0.2s-0.3,0.1-0.4,0.2c-0.1,0.1-0.2,0.3-0.3,0.5c-0.1,0.2-0.1,0.4-0.2,0.7s0,0.5,0,0.7c0,0.3,0,0.5,0,0.7
		c0,0.2,0.1,0.5,0.2,0.6c0.1,0.2,0.2,0.3,0.3,0.5c0.1,0.1,0.3,0.2,0.4,0.2s0.3-0.1,0.4-0.2c0.1-0.1,0.2-0.3,0.3-0.5
		c0.1-0.2,0.1-0.4,0.1-0.6C428.2,416,428.3,415.8,428.3,415.5z"/>
</g>
<g>
	<path class="st12" d="M447.1,418v-6.9c-0.1,0.1-0.3,0.1-0.4,0.2c-0.2,0.1-0.3,0.1-0.5,0.2c-0.2,0.1-0.4,0.1-0.6,0.1
		c-0.2,0-0.4,0.1-0.6,0.1l-0.1-0.6c0.6-0.1,1.1-0.2,1.6-0.4c0.5-0.2,0.8-0.5,1-0.8h0.7v8.3H447.1z"/>
	<path class="st12" d="M455.2,413.9c0,0.5,0,1-0.1,1.6s-0.2,1-0.4,1.4c-0.2,0.4-0.5,0.7-0.8,1s-0.7,0.4-1.2,0.4s-0.9-0.1-1.2-0.4
		c-0.3-0.2-0.6-0.6-0.8-1c-0.2-0.4-0.3-0.9-0.4-1.4s-0.1-1-0.1-1.6s0-1,0.1-1.6s0.2-1,0.4-1.4c0.2-0.4,0.5-0.7,0.8-1
		c0.3-0.2,0.7-0.4,1.2-0.4s0.9,0.1,1.2,0.4s0.6,0.6,0.8,1c0.2,0.4,0.3,0.9,0.4,1.4S455.2,413.3,455.2,413.9z M454.1,413.8
		c0-0.4,0-0.8-0.1-1.3s-0.1-0.8-0.2-1.1c-0.1-0.3-0.3-0.6-0.5-0.8s-0.4-0.3-0.8-0.3s-0.6,0.1-0.8,0.3s-0.3,0.5-0.5,0.8
		c-0.1,0.3-0.2,0.7-0.2,1.1s-0.1,0.8-0.1,1.3s0,0.8,0.1,1.3c0,0.4,0.1,0.8,0.2,1.1c0.1,0.3,0.3,0.6,0.5,0.8s0.4,0.3,0.8,0.3
		s0.6-0.1,0.8-0.3s0.3-0.5,0.5-0.8c0.1-0.3,0.2-0.7,0.2-1.1C454.1,414.7,454.1,414.3,454.1,413.8z"/>
	<path class="st12" d="M461.7,413.9c0,0.5,0,1-0.1,1.6s-0.2,1-0.4,1.4c-0.2,0.4-0.5,0.7-0.8,1s-0.7,0.4-1.2,0.4s-0.9-0.1-1.2-0.4
		c-0.3-0.2-0.6-0.6-0.8-1c-0.2-0.4-0.3-0.9-0.4-1.4s-0.1-1-0.1-1.6s0-1,0.1-1.6s0.2-1,0.4-1.4c0.2-0.4,0.5-0.7,0.8-1
		c0.3-0.2,0.7-0.4,1.2-0.4s0.9,0.1,1.2,0.4s0.6,0.6,0.8,1c0.2,0.4,0.3,0.9,0.4,1.4S461.7,413.3,461.7,413.9z M460.6,413.8
		c0-0.4,0-0.8-0.1-1.3s-0.1-0.8-0.2-1.1c-0.1-0.3-0.3-0.6-0.5-0.8s-0.4-0.3-0.8-0.3s-0.6,0.1-0.8,0.3s-0.3,0.5-0.5,0.8
		c-0.1,0.3-0.2,0.7-0.2,1.1s-0.1,0.8-0.1,1.3s0,0.8,0.1,1.3c0,0.4,0.1,0.8,0.2,1.1c0.1,0.3,0.3,0.6,0.5,0.8s0.4,0.3,0.8,0.3
		s0.6-0.1,0.8-0.3s0.3-0.5,0.5-0.8c0.1-0.3,0.2-0.7,0.2-1.1C460.6,414.7,460.6,414.3,460.6,413.8z"/>
	<path class="st12" d="M466.4,412.2c0,0.3,0,0.6-0.1,0.9s-0.2,0.6-0.3,0.8c-0.1,0.2-0.3,0.4-0.5,0.6c-0.2,0.1-0.5,0.2-0.8,0.2
		s-0.5-0.1-0.8-0.2c-0.2-0.1-0.4-0.3-0.5-0.6c-0.1-0.2-0.2-0.5-0.3-0.8c-0.1-0.3-0.1-0.6-0.1-0.9c0-0.3,0-0.6,0.1-0.9
		c0.1-0.3,0.2-0.6,0.3-0.8s0.3-0.4,0.5-0.6s0.5-0.2,0.8-0.2s0.5,0.1,0.8,0.2s0.4,0.3,0.5,0.6c0.1,0.2,0.2,0.5,0.3,0.8
		C466.4,411.5,466.4,411.9,466.4,412.2z M465.6,412.2c0-0.2,0-0.5,0-0.7c0-0.2-0.1-0.5-0.1-0.7c-0.1-0.2-0.2-0.3-0.3-0.5
		c-0.1-0.1-0.3-0.2-0.4-0.2s-0.3,0.1-0.4,0.2c-0.1,0.1-0.2,0.3-0.3,0.5c-0.1,0.2-0.1,0.4-0.1,0.7c0,0.2,0,0.5,0,0.7
		c0,0.3,0,0.5,0,0.7c0,0.2,0.1,0.5,0.1,0.6c0.1,0.2,0.2,0.3,0.3,0.5c0.1,0.1,0.3,0.2,0.4,0.2s0.3-0.1,0.4-0.2
		c0.1-0.1,0.2-0.3,0.3-0.5c0.1-0.2,0.1-0.4,0.1-0.6C465.6,412.7,465.6,412.4,465.6,412.2z M466.3,418.1l-0.6-0.2l2.8-8.3l0.6,0.2
		L466.3,418.1z M471.9,415.6c0,0.3,0,0.6-0.1,0.9c-0.1,0.3-0.2,0.6-0.3,0.8c-0.1,0.2-0.3,0.4-0.5,0.6c-0.2,0.1-0.5,0.2-0.8,0.2
		s-0.6-0.1-0.8-0.2c-0.2-0.1-0.4-0.3-0.5-0.6s-0.2-0.5-0.3-0.8c-0.1-0.3-0.1-0.6-0.1-0.9s0-0.6,0.1-0.9c0.1-0.3,0.2-0.6,0.3-0.8
		c0.1-0.2,0.3-0.4,0.5-0.6c0.2-0.1,0.5-0.2,0.8-0.2s0.5,0.1,0.8,0.2c0.2,0.1,0.4,0.3,0.5,0.6c0.1,0.2,0.2,0.5,0.3,0.8
		C471.8,414.9,471.9,415.2,471.9,415.6z M471.1,415.5c0-0.2,0-0.5,0-0.7s-0.1-0.5-0.1-0.7c-0.1-0.2-0.2-0.3-0.3-0.5
		c-0.1-0.1-0.3-0.2-0.4-0.2s-0.3,0.1-0.4,0.2c-0.1,0.1-0.2,0.3-0.3,0.5c-0.1,0.2-0.1,0.4-0.2,0.7s0,0.5,0,0.7c0,0.3,0,0.5,0,0.7
		c0,0.2,0.1,0.5,0.2,0.6c0.1,0.2,0.2,0.3,0.3,0.5c0.1,0.1,0.3,0.2,0.4,0.2s0.3-0.1,0.4-0.2c0.1-0.1,0.2-0.3,0.3-0.5
		c0.1-0.2,0.1-0.4,0.1-0.6C471.1,416,471.1,415.8,471.1,415.5z"/>
</g>
<g>
	<path class="st1" d="M24.8,275.5c0.9,0,1.7,0.1,2.5,0.3s1.4,0.4,2,0.8c0.6,0.4,1,0.8,1.4,1.4c0.3,0.6,0.5,1.2,0.5,2s-0.2,1.5-0.5,2
		c-0.3,0.6-0.8,1-1.4,1.4c-0.6,0.4-1.2,0.6-2,0.8c-0.8,0.2-1.6,0.3-2.5,0.3s-1.7-0.1-2.5-0.3c-0.8-0.2-1.4-0.4-2-0.8
		c-0.6-0.4-1-0.8-1.3-1.4c-0.3-0.6-0.5-1.2-0.5-2s0.2-1.5,0.5-2c0.3-0.6,0.8-1,1.3-1.4c0.6-0.4,1.2-0.6,2-0.8S23.9,275.5,24.8,275.5
		z M24.7,277.2c-0.7,0-1.4,0-2,0.1s-1.2,0.2-1.7,0.5s-0.9,0.5-1.1,0.9c-0.3,0.4-0.4,0.8-0.4,1.3s0.1,1,0.4,1.4
		c0.3,0.4,0.7,0.6,1.1,0.9s1,0.4,1.7,0.5s1.3,0.1,2,0.1c0.7,0,1.4,0,2-0.1c0.6-0.1,1.2-0.2,1.7-0.5c0.5-0.2,0.9-0.5,1.1-0.9
		c0.3-0.4,0.4-0.8,0.4-1.4s-0.1-1-0.4-1.3c-0.3-0.4-0.7-0.6-1.1-0.9c-0.5-0.2-1-0.4-1.7-0.5C26.1,277.2,25.4,277.2,24.7,277.2z"/>
	<path class="st1" d="M30.4,266.4c0.2,0.4,0.4,0.9,0.5,1.5c0.1,0.6,0.2,1.2,0.2,1.9c0,1.2-0.3,2-0.8,2.6c-0.5,0.6-1.3,0.9-2.4,0.9
		h-6.7v-1.6H28c1.4,0,2-0.7,2-2c0-0.3,0-0.6-0.1-0.9c-0.1-0.3-0.1-0.6-0.2-0.8h-8.5v-1.6H30.4z"/>
	<path class="st1" d="M30.9,260c0.1,0.3,0.2,0.6,0.2,1c0,0.7-0.2,1.3-0.6,1.7c-0.4,0.4-1,0.6-1.8,0.6h-6.4v1.1h-1v-1.1H19l-0.5-1.6
		h2.7V260h1v1.7h6.4c0.4,0,0.8-0.1,1-0.3c0.2-0.2,0.4-0.5,0.4-0.9c0-0.2,0-0.4-0.1-0.5H30.9z"/>
	<path class="st1" d="M30.5,252.6c0.2,0.3,0.4,0.6,0.5,0.9c0.1,0.4,0.2,0.8,0.2,1.2c0,0.6-0.1,1.1-0.4,1.6s-0.6,0.9-1,1.2
		c-0.4,0.3-1,0.6-1.6,0.7s-1.3,0.3-2,0.3s-1.4-0.1-2-0.3s-1.1-0.4-1.6-0.7s-0.8-0.7-1-1.2c-0.2-0.5-0.4-1-0.4-1.6
		c0-0.5,0.1-0.9,0.2-1.2c0.1-0.4,0.3-0.7,0.5-0.9l0.9,0.4c-0.1,0.2-0.3,0.4-0.4,0.7c-0.1,0.3-0.1,0.5-0.1,0.8c0,0.4,0.1,0.7,0.3,1
		c0.2,0.3,0.5,0.6,0.8,0.8c0.3,0.2,0.8,0.4,1.2,0.5c0.5,0.1,1,0.2,1.5,0.2c0.6,0,1.1-0.1,1.5-0.2c0.5-0.1,0.9-0.3,1.2-0.5
		c0.4-0.2,0.6-0.5,0.8-0.8c0.2-0.3,0.3-0.6,0.3-1c0-0.3,0-0.6-0.1-0.8c-0.1-0.3-0.2-0.5-0.3-0.7L30.5,252.6z"/>
	<path class="st1" d="M26.1,243.7c0.7,0,1.4,0.1,2,0.2c0.6,0.2,1.1,0.4,1.6,0.7s0.8,0.7,1.1,1.2c0.3,0.5,0.4,1.1,0.4,1.7
		c0,0.7-0.1,1.2-0.4,1.7c-0.3,0.5-0.6,0.9-1.1,1.2c-0.5,0.3-1,0.6-1.6,0.7c-0.6,0.2-1.3,0.2-2,0.2c-0.7,0-1.4-0.1-2-0.2
		c-0.6-0.2-1.1-0.4-1.6-0.7c-0.4-0.3-0.8-0.7-1-1.2c-0.3-0.5-0.4-1-0.4-1.7c0-0.7,0.1-1.2,0.4-1.7c0.3-0.5,0.6-0.9,1-1.2
		s1-0.5,1.6-0.7C24.7,243.8,25.4,243.7,26.1,243.7z M26,245.3c-0.5,0-1,0-1.5,0.1s-0.9,0.2-1.3,0.4c-0.4,0.2-0.7,0.4-0.9,0.7
		s-0.3,0.6-0.3,1.1c0,0.4,0.1,0.8,0.3,1.1s0.5,0.5,0.9,0.7s0.8,0.3,1.3,0.4s1,0.1,1.5,0.1s1.1,0,1.5-0.1s0.9-0.2,1.3-0.4
		c0.4-0.2,0.7-0.4,0.9-0.7s0.3-0.6,0.3-1.1c0-0.4-0.1-0.8-0.3-1.1s-0.5-0.5-0.9-0.7c-0.4-0.2-0.8-0.3-1.3-0.4S26.6,245.3,26,245.3z"
		/>
	<path class="st1" d="M30.9,230.6h-6.8c-0.6,0-1.2,0.2-1.5,0.5s-0.6,0.8-0.6,1.5c0,0.4,0.1,0.8,0.3,1.1c0.2,0.3,0.4,0.6,0.7,0.8h8
		v1.6h-7c-0.6,0-1,0.2-1.4,0.5c-0.3,0.3-0.5,0.8-0.5,1.6c0,0.4,0,0.7,0.1,1s0.1,0.6,0.3,0.8h8.5v1.6h-9.2c-0.2-0.5-0.4-1-0.5-1.5
		s-0.2-1.1-0.2-1.8c0-0.7,0.1-1.3,0.3-1.8c0.2-0.5,0.5-0.8,0.8-1.1c-0.3-0.3-0.6-0.7-0.8-1.2c-0.2-0.5-0.3-1-0.3-1.6
		c0-0.6,0.1-1.1,0.2-1.5c0.2-0.4,0.4-0.8,0.6-1.1c0.3-0.3,0.6-0.5,1-0.6c0.4-0.1,0.8-0.2,1.3-0.2h6.8V230.6z"/>
	<path class="st1" d="M26.7,225.3c1-0.1,1.8-0.4,2.4-0.9s0.9-1.2,0.9-2.1c0-0.4-0.1-0.9-0.2-1.3c-0.1-0.4-0.2-0.8-0.4-1.1l1-0.4
		c0.2,0.3,0.4,0.8,0.5,1.3c0.1,0.5,0.2,1.1,0.2,1.6c0,1.4-0.4,2.5-1.3,3.2c-0.9,0.8-2.1,1.1-3.7,1.1c-0.8,0-1.4-0.1-2.1-0.3
		s-1.1-0.4-1.6-0.8c-0.4-0.3-0.8-0.7-1-1.2c-0.2-0.5-0.4-1-0.4-1.6c0-1.2,0.4-2.1,1.1-2.7s1.9-1,3.4-1h0.2L26.7,225.3z M25.1,220.8
		c-1,0-1.7,0.2-2.3,0.6c-0.5,0.3-0.8,0.9-0.8,1.7c0,0.4,0.1,0.7,0.3,1.1c0.2,0.3,0.4,0.6,0.8,0.8c0.3,0.2,0.7,0.4,1.2,0.5
		c0.5,0.1,1,0.2,1.5,0.2h0.1L25.1,220.8z"/>
	<path class="st1" d="M28.3,211.7c0.4,0,0.8,0.1,1.1,0.2c0.3,0.2,0.6,0.4,0.9,0.7c0.3,0.3,0.5,0.6,0.6,1c0.1,0.4,0.2,0.9,0.2,1.4
		c0,0.5-0.1,1-0.2,1.4c-0.1,0.5-0.3,0.9-0.5,1.2l-1-0.5c0.2-0.3,0.3-0.6,0.4-1c0.1-0.3,0.1-0.7,0.1-1c0-0.6-0.2-1-0.5-1.4
		c-0.3-0.3-0.7-0.5-1.2-0.5c-0.4,0-0.7,0.1-0.9,0.3c-0.2,0.2-0.4,0.5-0.6,0.8s-0.3,0.6-0.5,1c-0.1,0.4-0.3,0.7-0.5,1
		c-0.2,0.3-0.5,0.6-0.8,0.8c-0.3,0.2-0.8,0.3-1.3,0.3c-0.4,0-0.7-0.1-1-0.2c-0.3-0.1-0.6-0.3-0.8-0.6c-0.2-0.3-0.4-0.6-0.6-0.9
		c-0.1-0.4-0.2-0.8-0.2-1.2c0-0.9,0.2-1.8,0.7-2.4l0.9,0.4c-0.2,0.3-0.3,0.5-0.4,0.9c-0.1,0.3-0.2,0.6-0.2,0.9c0,0.6,0.1,1,0.4,1.2
		c0.3,0.3,0.7,0.4,1.1,0.4c0.4,0,0.7-0.1,0.9-0.3c0.2-0.2,0.4-0.5,0.6-0.8c0.2-0.3,0.3-0.6,0.5-1c0.1-0.4,0.3-0.7,0.5-1
		c0.2-0.3,0.5-0.6,0.8-0.8C27.3,211.8,27.7,211.7,28.3,211.7z"/>
	<path class="st1" d="M24.1,197.2h6.3c0.2,0.4,0.4,0.9,0.5,1.5c0.1,0.6,0.2,1.2,0.2,1.8c0,1.4-0.3,2.5-0.9,3.3
		c-0.6,0.8-1.4,1.2-2.5,1.2c-0.5,0-0.9-0.1-1.3-0.3c-0.4-0.2-0.7-0.4-1-0.7c-0.3-0.3-0.5-0.6-0.7-1s-0.4-0.8-0.5-1.2h0
		c-0.2,0.8-0.5,1.5-1,1.9c-0.5,0.4-1.1,0.6-1.8,0.6c-0.5,0-0.9-0.1-1.3-0.3c-0.4-0.2-0.7-0.5-0.9-0.8s-0.4-0.7-0.6-1.1
		c-0.1-0.4-0.2-0.9-0.2-1.3c0-0.5,0.1-0.9,0.2-1.4c0.1-0.4,0.3-0.8,0.5-1.2l1,0.5c-0.1,0.3-0.3,0.5-0.4,0.9s-0.1,0.7-0.1,1
		c0,0.3,0,0.6,0.1,0.8c0.1,0.3,0.2,0.5,0.4,0.7c0.2,0.2,0.4,0.4,0.6,0.5c0.2,0.1,0.5,0.2,0.8,0.2c0.6,0,1.1-0.2,1.5-0.7
		c0.4-0.4,0.6-1,0.6-1.7c0-0.4,0-0.9-0.1-1.3c-0.1-0.4-0.1-0.8-0.2-1.3l-0.5-2.5l1.1-0.2L24.1,197.2z M24.3,198.7
		c0.3,1.6,0.6,2.7,1.2,3.5c0.5,0.7,1.3,1.1,2.2,1.1c0.7,0,1.3-0.2,1.8-0.7c0.4-0.5,0.7-1.2,0.7-2.2c0-0.3,0-0.6-0.1-0.9
		c-0.1-0.3-0.1-0.5-0.2-0.8H24.3z"/>
	<path class="st1" d="M22.3,184.8c-0.1,0.3-0.2,0.6-0.2,1c0,0.2,0,0.4,0.1,0.6c0,0.2,0.1,0.4,0.2,0.6h8.5v1.6h-9.2
		c-0.2-0.4-0.4-0.9-0.5-1.4s-0.2-1.2-0.2-1.9c0-0.2,0-0.4,0-0.5c0-0.2,0-0.3,0-0.3L22.3,184.8z"/>
	<path class="st1" d="M26.7,181.9c1-0.1,1.8-0.4,2.4-0.9s0.9-1.2,0.9-2.1c0-0.4-0.1-0.9-0.2-1.3c-0.1-0.4-0.2-0.8-0.4-1.1l1-0.4
		c0.2,0.3,0.4,0.8,0.5,1.3c0.1,0.5,0.2,1.1,0.2,1.6c0,1.4-0.4,2.5-1.3,3.2c-0.9,0.8-2.1,1.1-3.7,1.1c-0.8,0-1.4-0.1-2.1-0.3
		s-1.1-0.4-1.6-0.8c-0.4-0.3-0.8-0.7-1-1.2c-0.2-0.5-0.4-1-0.4-1.6c0-1.2,0.4-2.1,1.1-2.7s1.9-1,3.4-1h0.2L26.7,181.9z M25.1,177.3
		c-1,0-1.7,0.2-2.3,0.6c-0.5,0.3-0.8,0.9-0.8,1.7c0,0.4,0.1,0.7,0.3,1.1c0.2,0.3,0.4,0.6,0.8,0.8c0.3,0.2,0.7,0.4,1.2,0.5
		c0.5,0.1,1,0.2,1.5,0.2h0.1L25.1,177.3z"/>
	<path class="st1" d="M28.3,168.2c0.4,0,0.8,0.1,1.1,0.2c0.3,0.2,0.6,0.4,0.9,0.7c0.3,0.3,0.5,0.6,0.6,1c0.1,0.4,0.2,0.9,0.2,1.4
		c0,0.5-0.1,1-0.2,1.4c-0.1,0.5-0.3,0.9-0.5,1.2l-1-0.5c0.2-0.3,0.3-0.6,0.4-1c0.1-0.3,0.1-0.7,0.1-1c0-0.6-0.2-1-0.5-1.4
		c-0.3-0.3-0.7-0.5-1.2-0.5c-0.4,0-0.7,0.1-0.9,0.3c-0.2,0.2-0.4,0.5-0.6,0.8s-0.3,0.6-0.5,1c-0.1,0.4-0.3,0.7-0.5,1
		c-0.2,0.3-0.5,0.6-0.8,0.8c-0.3,0.2-0.8,0.3-1.3,0.3c-0.4,0-0.7-0.1-1-0.2c-0.3-0.1-0.6-0.3-0.8-0.6c-0.2-0.3-0.4-0.6-0.6-0.9
		c-0.1-0.4-0.2-0.8-0.2-1.2c0-0.9,0.2-1.8,0.7-2.4l0.9,0.4c-0.2,0.3-0.3,0.5-0.4,0.9c-0.1,0.3-0.2,0.6-0.2,0.9c0,0.6,0.1,1,0.4,1.2
		c0.3,0.3,0.7,0.4,1.1,0.4c0.4,0,0.7-0.1,0.9-0.3c0.2-0.2,0.4-0.5,0.6-0.8c0.2-0.3,0.3-0.6,0.5-1c0.1-0.4,0.3-0.7,0.5-1
		c0.2-0.3,0.5-0.6,0.8-0.8C27.3,168.3,27.7,168.2,28.3,168.2z"/>
	<path class="st1" d="M30.4,159.2c0.2,0.4,0.4,0.9,0.5,1.5c0.1,0.6,0.2,1.2,0.2,1.9c0,1.2-0.3,2-0.8,2.6c-0.5,0.6-1.3,0.9-2.4,0.9
		h-6.7v-1.6H28c1.4,0,2-0.7,2-2c0-0.3,0-0.6-0.1-0.9c-0.1-0.3-0.1-0.6-0.2-0.8h-8.5v-1.6H30.4z"/>
	<path class="st1" d="M30.9,156.5H16.8v-1.6h14.1V156.5z"/>
	<path class="st1" d="M30.9,148.5c0.1,0.3,0.2,0.6,0.2,1c0,0.7-0.2,1.3-0.6,1.7c-0.4,0.4-1,0.6-1.8,0.6h-6.4v1.1h-1v-1.1H19
		l-0.5-1.6h2.7v-1.7h1v1.7h6.4c0.4,0,0.8-0.1,1-0.3c0.2-0.2,0.4-0.5,0.4-0.9c0-0.2,0-0.4-0.1-0.5H30.9z"/>
	<path class="st1" d="M28.3,141.1c0.4,0,0.8,0.1,1.1,0.2c0.3,0.2,0.6,0.4,0.9,0.7c0.3,0.3,0.5,0.6,0.6,1c0.1,0.4,0.2,0.9,0.2,1.4
		c0,0.5-0.1,1-0.2,1.4c-0.1,0.5-0.3,0.9-0.5,1.2l-1-0.5c0.2-0.3,0.3-0.6,0.4-1c0.1-0.3,0.1-0.7,0.1-1c0-0.6-0.2-1-0.5-1.4
		c-0.3-0.3-0.7-0.5-1.2-0.5c-0.4,0-0.7,0.1-0.9,0.3c-0.2,0.2-0.4,0.5-0.6,0.8s-0.3,0.6-0.5,1c-0.1,0.4-0.3,0.7-0.5,1
		c-0.2,0.3-0.5,0.6-0.8,0.8c-0.3,0.2-0.8,0.3-1.3,0.3c-0.4,0-0.7-0.1-1-0.2c-0.3-0.1-0.6-0.3-0.8-0.6c-0.2-0.3-0.4-0.6-0.6-0.9
		c-0.1-0.4-0.2-0.8-0.2-1.2c0-0.9,0.2-1.8,0.7-2.4l0.9,0.4c-0.2,0.3-0.3,0.5-0.4,0.9c-0.1,0.3-0.2,0.6-0.2,0.9c0,0.6,0.1,1,0.4,1.2
		c0.3,0.3,0.7,0.4,1.1,0.4c0.4,0,0.7-0.1,0.9-0.3c0.2-0.2,0.4-0.5,0.6-0.8c0.2-0.3,0.3-0.6,0.5-1c0.1-0.4,0.3-0.7,0.5-1
		c0.2-0.3,0.5-0.6,0.8-0.8C27.3,141.2,27.7,141.1,28.3,141.1z"/>
</g>
</svg>
