<svg class="dl-logo" xmlns="http://www.w3.org/2000/svg" viewBox="0 0 958.8 276.7"><path fill="#061B2B" d="M5 8.4l88.1 47.3v29.9L5 132.8v-29.2L67.7 70 5 36.3V8.4M0 0v39.3l2.6 1.4 54.5 29.4L2.6 99.3 0 100.7v40.6l7.4-4L95.5 90l2.6-1.4V52.7l-2.6-1.4L7.4 4 0 0zM243.9 24.1h-40.4v7.5l12.4 3v73.2l-12.4 3v7.5h40.4c15.3 0 27.6-4.1 36.7-12.3 9.1-8.2 13.7-19.8 13.7-34.8 0-14.1-4.3-25.4-13-34.1-8.6-8.7-21.1-13-37.4-13zm20.4 74.3c-5.2 6.4-12.6 9.6-22.4 9.6h-4V34.3h4c9.8 0 17.2 3.2 22.4 9.5 5.2 6.3 7.7 15.5 7.7 27.3 0 11.9-2.6 21-7.7 27.3zM500.3 110.8c-3 0-5.1-.9-6.1-2.7-1-1.8-1.5-4.9-1.5-9.3V60.4h16.7V51l-16.7.7V38.8h-5L465 55v5.4h7.1v39.1c0 13.8 7.4 20.7 22.3 20.7 6 0 11.7-1.4 17.1-4.3l-2.2-7.5c-3.7 1.6-6.7 2.4-9 2.4zM576.4 72.1c0-15.4-9.6-23.1-28.9-23.1-4.7 0-9.5.6-14.4 1.8-4.9 1.2-8.3 2.2-10 2.9l-5.6 2.3c1.1 6.3 3.2 9.6 8.6 13.7l19.2-12.8c2 0 3.6.3 5 .9 1.3.6 2.4 1.2 3 2 .7.7 1.2 1.9 1.5 3.6.4 1.7.6 3.2.6 4.4 0 1.2.1 3.2.1 5.9v4c-14.3 0-24.7 2-31.1 6.1-6.4 4.1-9.6 10-9.6 17.8 0 6.2 2.1 10.9 6.3 14 4.2 3.1 9.3 4.7 15.5 4.7 7.1 0 13.6-2.3 19.6-6.9 3.3 4.6 8.4 6.9 15.2 6.9 2.9 0 5.6-.6 8.3-1.7 2.7-1.2 4.4-2.1 5.2-2.8.8-.7 1.4-1.3 1.9-1.7v-5.8h-10.5V72.1zm-20.8 32.3c-2.7 3-6.1 4.4-10.1 4.4-2.5 0-4.6-.8-6.4-2.3-1.7-1.5-2.6-3.6-2.6-6.2 0-4.3 1.9-7.8 5.8-10.4 3.9-2.6 8.3-4 13.3-4v18.5zM615.9 22.5h-10.6l-21.5 5.1v7.2h11.4v73.6l.1 2.7v7.1h30.9v-7.1l-10.3-2.7zM441.1 42c3.3 0 6.1-1.1 8.3-3.4 2.2-2.2 3.3-5 3.3-8.3 0-3.2-1.1-6-3.3-8.2-2.2-2.2-5-3.3-8.3-3.3-3.2 0-6 1.1-8.2 3.3-2.2 2.2-3.4 4.9-3.4 8.2 0 3.3 1.1 6.1 3.4 8.3 2.2 2.3 5 3.4 8.2 3.4zM451.5 51h-9.7l-20.3 5.1v7.1h10.3v55h32.1v-7.1l-12.4-2.7zM320.7 42c3.3 0 6.1-1.1 8.3-3.4 2.2-2.2 3.3-5 3.3-8.3 0-3.2-1.1-6-3.3-8.2-2.2-2.2-5-3.3-8.3-3.3-3.2 0-6 1.1-8.2 3.3-2.2 2.2-3.4 4.9-3.4 8.2 0 3.3 1.1 6.1 3.4 8.3 2.2 2.3 5 3.4 8.2 3.4zM331.1 51h-10.7l-20.3 5.1v7.1h10.3v55h32.1v-7.1l-11.4-2.7zM412.6 114.5c-4.8-3.9-11.6-5.9-20.5-5.9h-9.8c-4.5 0-7.7-.2-9.5-.6-1.9-.4-3.4-1.5-4.4-3.3l5.9-8.2c1.5.1 3.9.1 7.1.1 10 0 17.9-2.2 23.7-6.7 5.9-4.4 8.8-10 8.8-16.6 0-4-1.9-8.8-4.3-11.7-2-2.4-5-4.8-7.2-6.2h.1l13.8-5.3c-.2-1.6-.9-3.8-1.9-6.6-.9-2.4-2.3-4.5-4.1-6.1L394 51.8c-3.9-1.1-8.1-1.8-12.6-1.8-9.3 0-17 2.3-23.1 6.8-6.1 4.5-9.1 10-9.1 16.5 0 4.3 1.3 8.2 3.9 11.8 2.6 3.5 6.2 6.3 10.9 8.4l-15.5 13.3c-.2 1.5-.1 3 .2 4.4.3 1.4.7 2.7 1.3 3.8 1.4 2.7 3.4 4.9 5.8 6.6-8 4.2-12 9.9-12 17.1 0 12.1 12.7 18.2 38.1 18.2 12 0 21.4-2.6 28-7.7 6.7-5.2 10-11.2 10-18.1-.1-7.2-2.5-12.7-7.3-16.6zm-41-51.9c2-2.8 5.2-4.2 9.8-4.2 4.4 0 7.7 1.4 9.8 4.2 2.2 2.8 3.2 6.4 3.2 10.7 0 4.3-1.1 7.8-3.2 10.6-2.2 2.7-5.4 4.1-9.8 4.1-4.6 0-7.8-1.4-9.8-4.1-2-2.7-3-6.3-3-10.6s1-7.9 3-10.7zm27.1 81.7c-4 2.5-9.8 3.8-17.4 3.8-11.5 0-17.2-4.1-17.2-12.4 0-3.6 1-6.8 3-9.5h21.4c6.2 0 10.4.7 12.8 2.2 2.3 1.5 3.5 3.7 3.5 6.5 0 3.8-2 6.9-6.1 9.4zM313.9 234.9h-22.5v-74.2l12.3-3v-7.5h-46.6v7.5l12.3 3v73.9l-10 3v7.5h67.1l2.9-23.9h-7.6zM390.9 186.5c-5.3-7.1-13.2-10.6-23.6-10.6-10.2 0-18.3 3.2-24.3 9.5s-8.9 14.8-8.9 25.4c0 10.8 3.4 19.5 10.2 26.3 6.8 6.8 15.9 10.2 27.5 10.2 8 0 16.1-1.8 24.5-5.5l-2.8-7.7c-5.6 2-10.8 3-15.6 3-6.5 0-11.7-2.4-15.9-7.2-4.1-4.8-6.5-10.5-7.1-17.1H399c0-10.5-2.7-19.3-8.1-26.3zm-36.1 17.8c-.1-1.9.1-4.2.5-6.9s1.3-5.2 2.7-7.4c2.3-3.7 5.3-5.5 8.9-5.5 3 0 5.7 1.9 7.9 5.6 1.3 2.6 2 4.8 2.3 6.7.3 1.8.4 3.8.4 6l-22.7 1.5zM548.6 149.4h-10.8l-21.5 5.1v7.1h11.4v15c-2.4-.5-5-.8-7.8-.8-11 0-20.4 3.3-28 10-7.7 6.6-11.5 16-11.5 28.1 0 10.8 2.9 19 8.8 24.7 5.9 5.7 12.9 8.5 21 8.5 7.2 0 13.2-2.8 18.2-8.5 1.1 2.1 2.9 4 5.4 5.8 2.6 1.8 5.7 2.7 9.5 2.7 2.5 0 5.2-.6 7.9-1.7 2.8-1.2 4.6-2.1 5.6-2.8.9-.7 1.7-1.3 2.2-1.7V235h-10.5v-85.6zm-20.8 81.3c-3.4 3.3-7.4 5-11.8 5-3.1 0-6.3-1.9-9.5-5.6-3.2-3.8-4.8-9.3-4.8-16.7 0-9.8 1.8-17 5.3-21.7 3.5-4.7 8.3-7.1 14.2-7.1 1.9 0 4.1.3 6.6.9v45.2zM619.1 186.5c-5.3-7.1-13.2-10.6-23.6-10.6-10.2 0-18.3 3.2-24.3 9.5s-8.9 14.8-8.9 25.4c0 10.8 3.4 19.5 10.2 26.3 6.8 6.8 15.9 10.2 27.5 10.2 8 0 16.1-1.8 24.5-5.5l-2.8-7.7c-5.6 2-10.8 3-15.6 3-6.5 0-11.7-2.4-15.9-7.2-4.1-4.8-6.5-10.5-7.1-17.1h44.1c-.1-10.5-2.8-19.3-8.1-26.3zm-36.2 17.8c-.1-1.9.1-4.2.5-6.9s1.3-5.2 2.7-7.4c2.3-3.7 5.3-5.5 8.9-5.5 3 0 5.7 1.9 7.9 5.6 1.3 2.6 2 4.8 2.3 6.7.3 1.8.4 3.8.4 6l-22.7 1.5zM662.8 185.9v-8.1h-10.6l-21.5 5.1v7.1h11.4v55H677v-7l-14.1-2.7v-40.8c2.2-1.9 4.3-3.3 6.5-4.3l16.9 2.8c.9-3.6 1.3-7.4 1.3-11.6 0-2.1-.3-3.9-.8-5.6-9.3 0-17.2 3.4-24 10.1zM727.2 202.1c-4.6-2-7.9-3.5-10-4.7-2.1-1.2-3.6-2.3-4.4-3.5-.8-1.2-1.2-2.3-1.2-3.4 0-4.2 4.3-6.3 12.9-6.3 2.7 0 5.4.2 8.1.7l4.2 10.6h7v-17.1c-5.7-1.7-12.6-2.6-20.6-2.6-8.8 0-15.9 1.7-21.3 5.2s-8.1 8.6-8.1 15.3c0 5.5 1.4 9.9 4.2 13.4 2.8 3.5 7.3 6.5 13.5 9.2 4.8 2.1 8 3.5 9.7 4.3 1.7.8 3.5 1.9 5.4 3.3 1.9 1.4 2.8 3 2.8 4.9 0 4.6-5.2 6.9-15.7 6.9-1.9 0-4.4-.1-7.7-.3l-4.8-7.8h-7.5V244c7.8 2.1 16 3.1 24.5 3.1 9.1 0 16.3-1.7 21.8-5.2s8.2-8.6 8.2-15.2c0-5.8-1.4-10.5-4.3-13.9-3.1-3.5-8.6-7.1-16.7-10.7zM824.4 196.9c0-3-.5-5.9-1.6-8.5-1.1-2.6-2.6-4.8-4.5-6.7-1.9-1.9-4.3-3.3-7.1-4.4-2.8-1-6-1.5-9.5-1.5-8.1 0-14.8 2.9-20.3 8.6v-34.3h-10.6l-21.5 5.1v7.1h11.4V245H789v-7l-7.6-2.7v-41.7c2.8-2.2 5.4-3.7 7.8-4.6 2.4-.9 4.5-1.3 6.3-1.3 3.4 0 5.6 1.1 6.7 3.2 1 2.1 1.5 5.4 1.5 9.9v44.4h32.1V238l-11.4-2.7v-38.4zM857.1 168.9c3.3 0 6.1-1.1 8.3-3.4 2.2-2.2 3.3-5 3.3-8.3 0-3.2-1.1-6-3.3-8.2-2.2-2.2-5-3.3-8.3-3.3-3.2 0-6 1.1-8.2 3.3-2.2 2.2-3.4 4.9-3.4 8.2 0 3.3 1.1 6.1 3.4 8.3s4.9 3.4 8.2 3.4zM867.4 177.9h-10.6l-20.3 5.1v7.1h10.2v55h32.2V238l-11.5-2.7zM956.6 194.9c-1.5-4.1-3.5-7.6-6-10.4-2.5-2.8-5.4-5-8.8-6.5-3.4-1.5-6.9-2.2-10.7-2.2-7.6 0-14.2 2.8-19.6 8.5v-6.5h-10.6l-20.3 5.1v7.1h10.2v86.3l33.6.4v-7.1l-12.9-3.1v-20.2c1.7.5 4.3.8 7.8.8 5.4 0 10.5-.9 15.3-2.6 4.8-1.7 9-4.2 12.6-7.4 3.6-3.2 6.4-7.2 8.5-12 2.1-4.8 3.2-10.2 3.2-16.3-.1-5.1-.8-9.7-2.3-13.9zM932 231c-3.6 4.9-8.3 7.3-14 7.3-2.3 0-4.5-.4-6.6-1.3v-44.3c1.3-1.3 3.2-2.5 5.4-3.4 2.3-.9 4.4-1.3 6.4-1.3 4.4 0 7.8 1.7 10.4 5.2 2.5 3.5 3.8 8.9 3.8 16.1 0 9.7-1.8 16.9-5.4 21.7zM466.9 199c0-15.4-9.6-23.1-28.9-23.1-4.7 0-9.5.6-14.4 1.8-4.9 1.2-8.3 2.2-10 2.9l-5.6 2.3c1.1 6.3 3.2 9.6 8.6 13.7l19.2-12.8c2 0 3.6.3 5 .9 1.3.6 2.4 1.2 3 2 .7.7 1.2 1.9 1.5 3.6.4 1.7.6 3.2.6 4.4 0 1.2.1 3.2.1 5.9v4c-14.3 0-24.7 2-31.1 6.1-6.4 4.1-9.6 10-9.6 17.8 0 6.2 2.1 10.9 6.3 14 4.2 3.1 9.3 4.7 15.5 4.7 7.1 0 13.6-2.3 19.6-6.9 3.3 4.6 8.4 6.9 15.2 6.9 2.9 0 5.6-.6 8.3-1.7 2.7-1.2 4.4-2.1 5.2-2.8.8-.7 1.4-1.3 1.9-1.7v-6h-10.5v-36zm-20.8 32.2c-2.7 3-6.1 4.4-10.1 4.4-2.5 0-4.6-.8-6.4-2.3-1.7-1.5-2.6-3.6-2.6-6.2 0-4.3 1.9-7.8 5.8-10.4 3.9-2.6 8.3-4 13.3-4v18.5z"/></svg>