<svg width="99" height="142" viewBox="0 0 99 142" fill="none" xmlns="http://www.w3.org/2000/svg">
<path opacity="0.146554" d="M4.36 41.105C5.37333 34.2017 7.305 28.185 10.155 23.055C13.0683 17.925 16.6467 13.65 20.89 10.23C25.1967 6.80999 30.105 4.27666 35.615 2.62999C41.125 0.919994 47.0467 0.0649953 53.38 0.0649953C60.22 0.0649953 66.3 1.04666 71.62 3.01C76.94 4.91 81.4367 7.50666 85.11 10.8C88.7833 14.0933 91.57 17.925 93.47 22.295C95.37 26.6017 96.32 31.1617 96.32 35.975C96.32 40.345 95.8767 44.2083 94.99 47.565C94.1033 50.8583 92.7733 53.74 91 56.21C89.29 58.6167 87.1367 60.675 84.54 62.385C82.0067 64.0317 79.0933 65.425 75.8 66.565C91.1267 71.9483 98.79 82.3983 98.79 97.915C98.79 105.262 97.46 111.658 94.8 117.105C92.14 122.552 88.5617 127.08 84.065 130.69C79.6317 134.3 74.47 137.023 68.58 138.86C62.69 140.633 56.5467 141.52 50.15 141.52C43.5633 141.52 37.705 140.823 32.575 139.43C27.445 137.973 22.885 135.757 18.895 132.78C14.905 129.74 11.39 125.877 8.35 121.19C5.37333 116.503 2.77667 110.93 0.56 104.47L13.67 99.15C17.09 97.82 20.2567 97.4717 23.17 98.105C26.0833 98.7383 28.1733 100.195 29.44 102.475C32.29 107.732 35.2983 111.563 38.465 113.97C41.695 116.313 45.4633 117.485 49.77 117.485C53.0633 117.485 55.9133 116.947 58.32 115.87C60.79 114.73 62.8167 113.305 64.4 111.595C66.0467 109.822 67.2817 107.827 68.105 105.61C68.9283 103.393 69.34 101.145 69.34 98.865C69.34 95.8883 69.1183 93.2283 68.675 90.885C68.295 88.4783 67.155 86.42 65.255 84.71C63.355 83 60.4733 81.7017 56.61 80.815C52.81 79.865 47.49 79.39 40.65 79.39V59.06C46.4133 59.06 51.0683 58.6167 54.615 57.73C58.1617 56.8433 60.885 55.64 62.785 54.12C64.7483 52.5367 66.0467 50.6367 66.68 48.42C67.3133 46.2033 67.63 43.765 67.63 41.105C67.63 35.6583 66.3 31.4783 63.64 28.565C61.0433 25.5883 57.0533 24.1 51.67 24.1C47.3 24.1 43.595 25.2717 40.555 27.615C37.5783 29.895 35.52 32.745 34.38 36.165C33.05 39.6483 31.3083 41.96 29.155 43.1C27.0017 44.24 23.93 44.4933 19.94 43.86L4.36 41.105Z" fill="#061B2B"/>
</svg>
