<svg width="98" height="140" viewBox="0 0 98 140" fill="none" xmlns="http://www.w3.org/2000/svg">
<path opacity="0.146554" d="M87.72 113.4C90.8867 113.4 93.3883 114.287 95.225 116.06C97.0617 117.77 97.98 120.05 97.98 122.9V140H0.7V130.5C0.7 128.663 1.08 126.7 1.84 124.61C2.6 122.52 3.93 120.62 5.83 118.91L45.73 78.725C49.15 75.305 52.1267 72.0433 54.66 68.94C57.1933 65.8367 59.2833 62.7967 60.93 59.82C62.5767 56.78 63.8117 53.7717 64.635 50.795C65.4583 47.755 65.87 44.5567 65.87 41.2C65.87 35.69 64.54 31.4783 61.88 28.565C59.2833 25.5883 55.2933 24.1 49.91 24.1C45.54 24.1 41.835 25.2717 38.795 27.615C35.8183 29.895 33.76 32.745 32.62 36.165C31.29 39.6483 29.5483 41.96 27.395 43.1C25.2417 44.24 22.17 44.4933 18.18 43.86L2.6 41.105C3.61333 34.2017 5.545 28.185 8.395 23.055C11.3083 17.925 14.8867 13.65 19.13 10.23C23.4367 6.80999 28.345 4.27666 33.855 2.62999C39.365 0.919994 45.2867 0.0649953 51.62 0.0649953C58.46 0.0649953 64.6033 1.07833 70.05 3.10499C75.56 5.06832 80.2467 7.82332 84.11 11.37C87.9733 14.9167 90.9183 19.16 92.945 24.1C95.035 28.9767 96.08 34.36 96.08 40.25C96.08 45.3167 95.3517 50.0033 93.895 54.31C92.5017 58.6167 90.57 62.7333 88.1 66.66C85.63 70.5233 82.7483 74.2917 79.455 77.965C76.225 81.575 72.7733 85.2483 69.1 88.985L42.025 116.725C45.5083 115.648 48.96 114.825 52.38 114.255C55.8 113.685 58.9667 113.4 61.88 113.4H87.72Z" fill="#061B2B"/>
</svg>
