<svg width="98" height="141" viewBox="0 0 98 141" fill="none" xmlns="http://www.w3.org/2000/svg">
<path opacity="0.15" d="M87.72 113.9C90.8867 113.9 93.3883 114.787 95.225 116.56C97.0617 118.27 97.98 120.55 97.98 123.4V140.5H0.7V131C0.7 129.163 1.08 127.2 1.84 125.11C2.6 123.02 3.93 121.12 5.83 119.41L45.73 79.225C49.15 75.805 52.1267 72.5433 54.66 69.44C57.1933 66.3367 59.2833 63.2967 60.93 60.32C62.5767 57.28 63.8117 54.2717 64.635 51.295C65.4583 48.255 65.87 45.0567 65.87 41.7C65.87 36.19 64.54 31.9783 61.88 29.065C59.2833 26.0883 55.2933 24.6 49.91 24.6C45.54 24.6 41.835 25.7717 38.795 28.115C35.8183 30.395 33.76 33.245 32.62 36.665C31.29 40.1483 29.5483 42.46 27.395 43.6C25.2417 44.74 22.17 44.9933 18.18 44.36L2.6 41.605C3.61333 34.7017 5.545 28.685 8.395 23.555C11.3083 18.425 14.8867 14.15 19.13 10.73C23.4367 7.30999 28.345 4.77666 33.855 3.12999C39.365 1.41999 45.2867 0.564995 51.62 0.564995C58.46 0.564995 64.6033 1.57833 70.05 3.60499C75.56 5.56832 80.2467 8.32332 84.11 11.87C87.9733 15.4167 90.9183 19.66 92.945 24.6C95.035 29.4767 96.08 34.86 96.08 40.75C96.08 45.8167 95.3517 50.5033 93.895 54.81C92.5017 59.1167 90.57 63.2333 88.1 67.16C85.63 71.0233 82.7483 74.7917 79.455 78.465C76.225 82.075 72.7733 85.7483 69.1 89.485L42.025 117.225C45.5083 116.148 48.96 115.325 52.38 114.755C55.8 114.185 58.9667 113.9 61.88 113.9H87.72Z" fill="#D6E4F1"/>
</svg>
