<svg width="720" height="1024" viewBox="0 0 720 1024" fill="none" xmlns="http://www.w3.org/2000/svg">
<path d="M268.864 421H266.872V404.992H273.304C274.856 404.992 276.08 405.456 276.976 406.384C277.872 407.312 278.32 408.456 278.32 409.816C278.32 411.176 277.864 412.32 276.952 413.248C276.056 414.176 274.84 414.64 273.304 414.64H268.864V421ZM273.064 412.864C274.008 412.864 274.776 412.584 275.368 412.024C275.96 411.448 276.256 410.712 276.256 409.816C276.256 408.92 275.96 408.192 275.368 407.632C274.776 407.056 274.008 406.768 273.064 406.768H268.864V412.864H273.064ZM291.38 421H289.58V419.368C289.1 419.912 288.492 420.368 287.756 420.736C287.036 421.104 286.268 421.288 285.452 421.288C282.988 421.288 281.756 420.056 281.756 417.592V409.408H283.556V417.04C283.556 418 283.772 418.68 284.204 419.08C284.652 419.48 285.3 419.68 286.148 419.68C286.82 419.68 287.468 419.512 288.092 419.176C288.732 418.84 289.228 418.424 289.58 417.928V409.408H291.38V421ZM297.645 421H295.845V404.992H297.645V421ZM311.153 421H309.353V419.68C308.377 420.752 307.097 421.288 305.513 421.288C304.441 421.288 303.497 420.944 302.681 420.256C301.865 419.568 301.457 418.632 301.457 417.448C301.457 416.232 301.857 415.296 302.657 414.64C303.473 413.968 304.425 413.632 305.513 413.632C307.161 413.632 308.441 414.16 309.353 415.216V413.128C309.353 412.36 309.081 411.76 308.537 411.328C307.993 410.896 307.289 410.68 306.425 410.68C305.065 410.68 303.881 411.216 302.873 412.288L302.033 411.04C303.265 409.76 304.809 409.12 306.665 409.12C307.993 409.12 309.073 409.44 309.905 410.08C310.737 410.72 311.153 411.704 311.153 413.032V421ZM306.161 419.992C307.601 419.992 308.665 419.512 309.353 418.552V416.368C308.665 415.408 307.601 414.928 306.161 414.928C305.329 414.928 304.641 415.168 304.097 415.648C303.569 416.112 303.305 416.72 303.305 417.472C303.305 418.208 303.569 418.816 304.097 419.296C304.641 419.76 305.329 419.992 306.161 419.992Z" fill="#061B2B"/>
</svg>
