<svg width="720" height="1024" viewBox="0 0 720 1024" fill="none" xmlns="http://www.w3.org/2000/svg">
<path d="M113.903 312H106.607V295.992H113.735C115.111 295.992 116.199 296.368 116.999 297.12C117.815 297.872 118.223 298.856 118.223 300.072C118.223 301.032 117.951 301.848 117.407 302.52C116.863 303.176 116.199 303.584 115.415 303.744C116.263 303.872 116.991 304.32 117.599 305.088C118.223 305.856 118.535 306.72 118.535 307.68C118.535 308.976 118.119 310.024 117.287 310.824C116.471 311.608 115.343 312 113.903 312ZM113.399 302.928C114.279 302.928 114.959 302.688 115.439 302.208C115.919 301.728 116.159 301.112 116.159 300.36C116.159 299.608 115.911 298.992 115.415 298.512C114.935 298.016 114.263 297.768 113.399 297.768H108.599V302.928H113.399ZM113.495 310.224C114.423 310.224 115.151 309.976 115.679 309.48C116.207 308.984 116.471 308.312 116.471 307.464C116.471 306.68 116.207 306.024 115.679 305.496C115.167 304.968 114.439 304.704 113.495 304.704H108.599V310.224H113.495ZM124.299 312H122.499V300.408H124.299V302.28C125.371 300.872 126.659 300.168 128.163 300.168V302.016C127.939 301.968 127.699 301.944 127.443 301.944C126.899 301.944 126.307 302.136 125.667 302.52C125.027 302.904 124.571 303.328 124.299 303.792V312ZM140.915 312H139.115V310.368C138.635 310.912 138.027 311.368 137.291 311.736C136.571 312.104 135.803 312.288 134.987 312.288C132.523 312.288 131.291 311.056 131.291 308.592V300.408H133.091V308.04C133.091 309 133.307 309.68 133.739 310.08C134.187 310.48 134.835 310.68 135.683 310.68C136.355 310.68 137.003 310.512 137.627 310.176C138.267 309.84 138.763 309.424 139.115 308.928V300.408H140.915V312ZM149.052 312.288C147.084 312.288 145.524 311.68 144.372 310.464L145.308 309.168C145.708 309.632 146.252 310.024 146.94 310.344C147.644 310.664 148.372 310.824 149.124 310.824C149.988 310.824 150.66 310.64 151.14 310.272C151.62 309.904 151.86 309.424 151.86 308.832C151.86 308.32 151.612 307.92 151.116 307.632C150.62 307.328 150.02 307.104 149.316 306.96C148.628 306.8 147.932 306.624 147.228 306.432C146.524 306.224 145.924 305.88 145.428 305.4C144.932 304.904 144.684 304.256 144.684 303.456C144.684 302.512 145.068 301.72 145.836 301.08C146.62 300.44 147.676 300.12 149.004 300.12C150.748 300.12 152.18 300.68 153.3 301.8L152.46 303.048C151.644 302.072 150.492 301.584 149.004 301.584C148.22 301.584 147.596 301.76 147.132 302.112C146.668 302.448 146.436 302.88 146.436 303.408C146.436 303.872 146.684 304.24 147.18 304.512C147.676 304.768 148.268 304.976 148.956 305.136C149.66 305.28 150.364 305.456 151.068 305.664C151.772 305.872 152.372 306.24 152.868 306.768C153.364 307.28 153.612 307.952 153.612 308.784C153.612 309.808 153.212 310.648 152.412 311.304C151.612 311.96 150.492 312.288 149.052 312.288ZM161.078 312.288C159.11 312.288 157.55 311.68 156.398 310.464L157.334 309.168C157.734 309.632 158.278 310.024 158.966 310.344C159.67 310.664 160.398 310.824 161.15 310.824C162.014 310.824 162.686 310.64 163.166 310.272C163.646 309.904 163.886 309.424 163.886 308.832C163.886 308.32 163.638 307.92 163.142 307.632C162.646 307.328 162.046 307.104 161.342 306.96C160.654 306.8 159.958 306.624 159.254 306.432C158.55 306.224 157.95 305.88 157.454 305.4C156.958 304.904 156.71 304.256 156.71 303.456C156.71 302.512 157.094 301.72 157.862 301.08C158.646 300.44 159.702 300.12 161.03 300.12C162.774 300.12 164.206 300.68 165.326 301.8L164.486 303.048C163.67 302.072 162.518 301.584 161.03 301.584C160.246 301.584 159.622 301.76 159.158 302.112C158.694 302.448 158.462 302.88 158.462 303.408C158.462 303.872 158.71 304.24 159.206 304.512C159.702 304.768 160.294 304.976 160.982 305.136C161.686 305.28 162.39 305.456 163.094 305.664C163.798 305.872 164.398 306.24 164.894 306.768C165.39 307.28 165.638 307.952 165.638 308.784C165.638 309.808 165.238 310.648 164.438 311.304C163.638 311.96 162.518 312.288 161.078 312.288ZM174.664 312.288C172.936 312.288 171.52 311.728 170.416 310.608C169.312 309.472 168.76 308 168.76 306.192C168.76 304.496 169.304 303.064 170.392 301.896C171.48 300.712 172.84 300.12 174.472 300.12C176.184 300.12 177.536 300.712 178.528 301.896C179.536 303.064 180.04 304.544 180.04 306.336V306.792H170.656C170.736 307.928 171.152 308.88 171.904 309.648C172.656 310.416 173.632 310.8 174.832 310.8C176.272 310.8 177.464 310.312 178.408 309.336L179.272 310.512C178.088 311.696 176.552 312.288 174.664 312.288ZM178.264 305.472C178.248 304.48 177.912 303.592 177.256 302.808C176.6 302.008 175.664 301.608 174.448 301.608C173.296 301.608 172.384 302 171.712 302.784C171.056 303.568 170.704 304.464 170.656 305.472H178.264ZM185.626 312H183.826V295.992H185.626V312ZM193.758 312.288C191.79 312.288 190.23 311.68 189.078 310.464L190.014 309.168C190.414 309.632 190.958 310.024 191.646 310.344C192.35 310.664 193.078 310.824 193.83 310.824C194.694 310.824 195.366 310.64 195.846 310.272C196.326 309.904 196.566 309.424 196.566 308.832C196.566 308.32 196.318 307.92 195.822 307.632C195.326 307.328 194.726 307.104 194.022 306.96C193.334 306.8 192.638 306.624 191.934 306.432C191.23 306.224 190.63 305.88 190.134 305.4C189.638 304.904 189.39 304.256 189.39 303.456C189.39 302.512 189.774 301.72 190.542 301.08C191.326 300.44 192.382 300.12 193.71 300.12C195.454 300.12 196.886 300.68 198.006 301.8L197.166 303.048C196.35 302.072 195.198 301.584 193.71 301.584C192.926 301.584 192.302 301.76 191.838 302.112C191.374 302.448 191.142 302.88 191.142 303.408C191.142 303.872 191.39 304.24 191.886 304.512C192.382 304.768 192.974 304.976 193.662 305.136C194.366 305.28 195.07 305.456 195.774 305.664C196.478 305.872 197.078 306.24 197.574 306.768C198.07 307.28 198.318 307.952 198.318 308.784C198.318 309.808 197.918 310.648 197.118 311.304C196.318 311.96 195.198 312.288 193.758 312.288Z" fill="#061B2B"/>
</svg>
