<svg id="Ebene_1" data-name="Ebene 1" xmlns="http://www.w3.org/2000/svg" viewBox="0 0 350 120"><defs><style>.cls-1{fill:#fff;}</style></defs><title>Clients_Logos</title><path class="cls-1" d="M121.1,29.89,97,88H241l24.1-58.11Zm118.07,22.4H223.63c0-1.91-.74-2.82-4.51-2.8-3,0-5.14.72-5.77,2.11s.11,1.74.85,2.06,3.46-.07,10.45,1.4c5.11,1.1,7.26,1.47,9.14,2.69,3,1.91,2.56,4.88,1.12,8.31-3.13,7.45-11.37,11.55-24.28,11.6-13.57.06-21.2-3.08-18-11.12h16.65c.65,1.72,2.32,2.25,4.76,2.53,2.18.26,5.9-.72,6-2.76.06-2.39-1.75-1.8-8.46-2.7-7.46-1-9.74-1.58-11.44-3H179.4l-6.63,16.23h-3l6.63-16.23H156.9l4.76,16.23H145.51l-3.35-12-6.83,4.36-3.14,7.68H118.56l19-47h13.83l-10.82,26.3,16.74-12.62h18.54L155.64,56.39l.37,1.26h21.61l5.76-14.09h3l-5.75,14.09h17.62a7.09,7.09,0,0,1,.47-4.47c2.74-6.53,9.52-10.64,22.89-11C233.92,41.77,242,44.17,239.17,52.29Z"/></svg>