<svg id="Ebene_1" data-name="Ebene 1" xmlns="http://www.w3.org/2000/svg" viewBox="0 0 350 120"><defs><style>.cls-1{fill:#fff;}</style></defs><title>Client_Logo_Zeichenfläche_1</title><g id="layer1"><path id="path108" class="cls-1" d="M228.63,57.38H242V70.75H228.63Zm-40.1,0h13.36V70.75H188.53Zm-40.11,0h13.37V70.75H148.42Zm-8.51,21.45q0,6.36,1.86,8.27c1,1.08,2.84,1.74,5.35,2,.74.06,2,.09,3.82.09V92.9H118.73V89.18a31.61,31.61,0,0,0,5.72-.37,5.74,5.74,0,0,0,4.72-4.36,22.87,22.87,0,0,0,.51-5.62V30.26q-8.21.22-12.83,5.43-4.39,5-5.37,15.24l-3.48-.6.65-23.23H161l.65,23.23-3.49.6q-1-10.26-5.39-15.24-4.65-5.2-12.88-5.43V78.83ZM108.06,57.38h13.37V70.75H108.06Z"/></g></svg>