<svg id="Ebene_1" data-name="Ebene 1" xmlns="http://www.w3.org/2000/svg" viewBox="0 0 350 120"><defs><style>.cls-1,.cls-3{fill:#fff;}.cls-2{fill:#cdd0d3;opacity:0.2;}.cls-3{opacity:0.4;}</style></defs><title>Client_st</title><path id="path88" class="cls-1" d="M1.42,65.55a6.21,6.21,0,0,0,1.77,4.71c1.57,1.6,4.38,2.4,7.89,2.41,2,0,8.73-.4,8.75-6,0-4.93-4.49-5.4-8.46-5.82h0c-4.09-.43-7.12-.89-7.11-3.66a3.22,3.22,0,0,1,2.18-3,11.17,11.17,0,0,1,4.82-.78c1.3,0,3.67.22,5,1.56a3.7,3.7,0,0,1,.93,2.59l2.07,0a5.73,5.73,0,0,0-1.42-4c-1.72-1.73-4.63-2.1-6.75-2.11-2.94,0-5.82.62-7.61,2.38a4.57,4.57,0,0,0-1.4,3.34c0,4.83,4.9,5.24,8.75,5.59a16.63,16.63,0,0,1,4.83.9,3.06,3.06,0,0,1,2,3.09,3.22,3.22,0,0,1-1,2.39c-1.5,1.49-4.6,1.64-5.74,1.64-2.78,0-5-.62-6.2-1.81a4.57,4.57,0,0,1-1.3-3.42M23.16,51.87v2l7.92,0L31,72.36h2.1l.06-18.47,7.93,0v-2ZM51.1,52,41.63,72.39h2.31l2.93-6.32,10.31,0c.21.48,2.85,6.34,2.85,6.34h2.36L53.05,52Zm.95,2.84c.65,1.41,3.79,8.32,4.26,9.35l-8.54,0c.46-1,3.63-7.93,4.28-9.33M68.37,52,68.3,72.48h2.13l0-8.89,8.29,0c3.65,0,4.5.74,4.59,3.92s.21,4.42.65,4.86l.13.13h2.2L86,71.86c-.32-.63-.45-1.89-.46-5.21a4.31,4.31,0,0,0-2.9-4.15,5.28,5.28,0,0,0,3.25-4.8c0-3.79-2.29-5.64-7-5.66Zm10.54,2c3.23,0,4.8,1.18,4.79,3.58,0,2.7-1.69,4-5.12,4l-8.12,0,0-7.57Zm31.26-1.9L100.7,72.58H103l2.9-6.32,10.3,0,2.89,6.34h2.32l-9.31-20.49Zm1,2.84c.63,1.41,3.76,8.33,4.22,9.36l-8.53,0c.47-1,3.66-7.92,4.31-9.33m73.5-2.6-9.48,20.43h2.35l2.89-6.32,10.31,0,2.89,6.34h2.33l-9.32-20.5Zm1,2.83c.64,1.42,3.77,8.33,4.22,9.36l-8.53,0c.48-1,3.66-7.93,4.31-9.34m-57.5-3-.06,20.46,14.75,0v-2l-12.61,0,.06-18.47Zm19.31.06-.07,20.46,14.72,0v-2l-12.59,0,.06-18.46ZM166.5,72.78h2.1l.07-20.46h-2.11Zm52.22-20.3-.05,17.08C217.36,68,203.9,52.44,203.9,52.44h-2.13l-.07,20.46h2.11l.05-17.08C205.17,57.42,218.62,73,218.62,73h2.12l.07-20.47Zm36.83.12-.06,20.46,16.5.06v-2l-14.39,0,0-7.6,13.67,0v-2l-13.66,0,0-6.9,14.22,0v-2ZM227.42,62.77c0,6.47,4.46,10.65,11.06,10.67,6.14,0,9.88-4.12,10.38-8.22l.07-.5h-2.22l-.07.37c-.72,3.94-3.85,6.38-8.16,6.36-6.36,0-8.88-4.5-8.87-8.68,0-5.11,3.71-8.67,9-8.65,4,0,6.91,1.94,7.73,5.17l.08.34h2.22l-.13-.55c-1-4.42-4.6-6.95-9.9-7-7.52,0-11.19,5.51-11.2,10.66"/><path id="path50" class="cls-2" d="M303.22,47.24a78.38,78.38,0,0,1,7.12-8.46,77.41,77.41,0,0,1,8.28-7.37l-3.13,12.35"/><path id="path52" class="cls-1" d="M324.64,52.65a77,77,0,0,1-10.89-1.93,77.3,77.3,0,0,1-10.53-3.48l12.27-3.48"/><path id="path54" class="cls-3" d="M318.61,31.4a77.55,77.55,0,0,1,6,21.25l-9.15-8.89"/><path id="path56" class="cls-3" d="M298.82,72.66A76.79,76.79,0,0,1,293,63.27a78.3,78.3,0,0,1-4.47-10.15l10.8,6.8"/><path id="path58" class="cls-1" d="M310.57,54a76.38,76.38,0,0,1-5.2,9.75,75.81,75.81,0,0,1-6.55,8.94l.48-12.74"/><path id="path60" class="cls-2" d="M288.51,53.12a79.37,79.37,0,0,1,11.05-.36,76.76,76.76,0,0,1,11,1.21l-11.27,6"/><path id="path62" class="cls-1" d="M321.62,84.71a77.53,77.53,0,0,1-10.73,2.66,79.89,79.89,0,0,1-11,1.11l9.8-8.17"/><path id="path64" class="cls-3" d="M307.48,67.75a76.16,76.16,0,0,1,7.67,8,77.06,77.06,0,0,1,6.47,9l-12-4.4"/><path id="path66" class="cls-2" d="M299.86,88.47a78.31,78.31,0,0,1,7.62-20.73l2.18,12.57"/><path id="path68" class="cls-3" d="M340.13,66.74a76.32,76.32,0,0,1-.78,11A78.15,78.15,0,0,1,337,88.6l-4.74-11.84"/><path id="path70" class="cls-2" d="M319.63,74.94a76.89,76.89,0,0,1,20.5-8.2l-7.88,10"/><path id="path72" class="cls-1" d="M337,88.59a75.52,75.52,0,0,1-9.16-6.19,76,76,0,0,1-8.2-7.46l12.62,1.82"/><path id="path74" class="cls-3" d="M328.76,43.58A78.36,78.36,0,0,1,339,47.74a75.33,75.33,0,0,1,9.57,5.59l-12.73.84"/><path id="path76" class="cls-2" d="M330.23,65.62a76.84,76.84,0,0,1-1.47-22l7.09,10.59"/><path id="path78" class="cls-1" d="M348.57,53.33a77,77,0,0,1-8.7,6.79,79.46,79.46,0,0,1-9.64,5.5l5.62-11.45"/></svg>