<svg id="Ebene_1" data-name="Ebene 1" xmlns="http://www.w3.org/2000/svg" viewBox="0 0 350 120"><defs><style>.cls-1,.cls-2{fill:#fff;}.cls-2{opacity:0.5;}</style></defs><title>12_Client_so</title><g id="g4139"><path id="path4141" class="cls-1" d="M171.44,17.83h6.91a1.39,1.39,0,1,0,0-2.77h-6.91Zm0,6.71h7.12a1.58,1.58,0,0,0,0-3.16h-7.12Zm11.12-5.09a5,5,0,0,1-3.51,8.65H167.48V11.5h11.38a4.84,4.84,0,0,1,3.7,8Z"/><path id="path4143" class="cls-1" d="M185.21,47.87H181l-1.33-2.76h-9.29L169,47.87h-4.24l8.3-16.59h3.84ZM175,35.52l-2.91,6h5.83Z"/><polygon id="polygon4145" class="cls-1" points="164.6 51.43 169.35 51.43 174.99 58.99 180.63 51.43 185.38 51.43 176.97 62.24 176.97 68.03 173.01 68.03 173.01 62.24 164.6 51.43"/><polygon id="polygon4147" class="cls-1" points="202.63 51.43 202.63 54.99 191.57 54.99 191.57 57.75 202.24 57.75 202.24 61.31 191.57 61.31 191.57 64.47 202.63 64.47 202.63 68.03 187.62 68.03 187.62 51.43 202.63 51.43"/><path id="path4149" class="cls-1" d="M214.84,61.7h-3V68h-3.95V51.43H218a5.14,5.14,0,0,1,1.44,10.07L224.33,68h-4.75ZM217.62,55h-5.74v3.16h5.74a1.58,1.58,0,0,0,0-3.16Z"/><path id="path4151" class="cls-1" d="M166.44,68H162.2l-1.33-2.77h-9.29L150.24,68H146l8.3-16.6h3.84ZM156.22,55.68l-2.91,6h5.82Z"/><path id="path4153" class="cls-1" d="M131.16,57.76h6.91a1.38,1.38,0,1,0,0-2.76h-6.91Zm0,6.72h7.12a1.58,1.58,0,0,0,0-3.16h-7.12v3.16Zm11.11-5.09a5,5,0,0,1-3.5,8.65H127.21V51.44h11.37a4.83,4.83,0,0,1,3.69,8Z"/><polygon id="polygon4155" class="cls-1" points="182.5 71.58 182.5 75.14 171.44 75.14 171.44 77.91 182.1 77.91 182.1 81.46 171.44 81.46 171.44 84.62 182.5 84.62 182.5 88.18 167.48 88.18 167.48 71.58 182.5 71.58"/><path id="path4157" class="cls-1" d="M179.73,97.27a1.58,1.58,0,0,0-1.57-1.58h-6.73v3.16h6.73A1.58,1.58,0,0,0,179.73,97.27Zm-12.25,11.46V92.13h11.09a5.15,5.15,0,0,1,1.91,9.91l5,6.69h-4.75L176,102.41h-4.55v6.32Z"/></g><path id="path4161" class="cls-2" d="M234.88,56.28a60,60,0,0,0-119.76,0c.08,1.26.19,2.51.34,3.75A60,60,0,0,0,175,112.57a52.64,52.64,0,0,1-52.43-48.85c-.09-1.23-.14-2.47-.14-3.72s0-2.49.14-3.72A52.63,52.63,0,0,1,175,7.43,60,60,0,0,1,234.54,60c.15,1.22.27,2.45.34,3.69Q235,61.88,235,60t-.12-3.72"/><path id="path4163" class="cls-1" d="M115.12,63.72a60,60,0,0,0,119.76,0c-.08-1.26-.19-2.51-.34-3.75A60,60,0,0,0,175,7.43a52.64,52.64,0,0,1,52.43,48.85c.09,1.23.14,2.47.14,3.72s0,2.49-.14,3.72A52.63,52.63,0,0,1,175,112.57,60,60,0,0,1,115.46,60c-.15-1.22-.27-2.45-.34-3.69Q115,58.13,115,60t.12,3.72"/></svg>