<svg id="Ebene_1" data-name="Ebene 1" xmlns="http://www.w3.org/2000/svg" viewBox="0 0 350 120"><defs><style>.cls-1{fill:#fff;}</style></defs><title>_Client_</title><path id="path5" class="cls-1" d="M255.5,60c0,25.69-33.12,46.52-74,46.52a110.41,110.41,0,0,1-33.46-5l13.1-48.81h6.41l-5.8,21.76h9.39l6.62-24.87H162l5-18.89c.63-2.37,3.19-5.93,6.67-5.93,2.06,0,4.62,1,4.74,2.34-2.64,0-4.81,2.51-4.81,5.26a4.94,4.94,0,0,0,4.81,5,5.9,5.9,0,0,0,5.33-6.17c-.14-2.63-1.67-7.82-10.07-8-9.76-.21-16.49,8.49-18.89,17.29-1.42,5.24-5,17.74-8,29.11L139.1,98.11C120,89.7,107.55,75.77,107.55,60c0-25.69,33.12-46.52,74-46.52s74,20.83,74,46.52ZM126.06,74.45,129.13,63c15.73.24,18.78-3.56,21-13.39,1.54-6.89-2.26-12.2-9.13-12.2H122.17l-.82,3.11h4.12l-9,34Zm9-34c4.92-.19,6.82,1,4.92,9.09-2.48,10.45-5.47,10.28-10,10.28l5.13-19.37ZM251.33,54a4.93,4.93,0,0,0-4.69-5.12c-2.09,0-5,1.37-7.15,4.76l1-4H227.7l-.82,3.11h3.43l-5.79,21.76h9.39s3.52-13.13,3.5-13.15c1.4-4.06,4-8.8,4.74-8.16a4.64,4.64,0,0,0,4.48,6,4.93,4.93,0,0,0,4.7-5.12ZM207.9,63h15.82A9.61,9.61,0,0,0,224,61.9c1.74-8.26-2.36-13.52-8.89-13.52-7.05,0-13.57,2.4-16.3,13.52-1.81,7.36,2.14,13.27,9.12,13.51,6.27.22,12.2-1.53,15.15-10h-9.61l-.58,2.15c-1.14,4.3-2.67,4.78-4.37,4.78s-2.52-2.15-1.81-4.78L207.9,63Zm1.76-6.69c.71-2.64,2.29-4.91,4.37-4.79s2.52,2.16,1.81,4.79L215,59.63h-6.18l.89-3.35ZM195.35,71.34h-8l13.81-21.76H181l-.82,3.11h8L174.61,74.45h19.91l.83-3.11Z"/></svg>