<svg id="Ebene_1" data-name="Ebene 1" xmlns="http://www.w3.org/2000/svg" viewBox="0 0 350 120"><defs><style>.cls-1{fill:#fff;}</style></defs><title>Clients_Logos</title><path id="path7445" class="cls-1" d="M175,19a10.25,10.25,0,0,0-4.13.86A10,10,0,0,0,167.59,22a11.18,11.18,0,0,0-2.28,3.43,9.92,9.92,0,0,0-.86,4,10.67,10.67,0,0,0,.86,4.13,10.5,10.5,0,0,0,2.28,3.28,10.39,10.39,0,0,0,3.28,2.28,10.46,10.46,0,0,0,8.26,0,10.39,10.39,0,0,0,3.28-2.28,10.5,10.5,0,0,0,2.28-3.28,10.67,10.67,0,0,0,.86-4.13,9.92,9.92,0,0,0-.86-4A11.18,11.18,0,0,0,182.41,22a10,10,0,0,0-3.28-2.13A10.21,10.21,0,0,0,175,19ZM153.9,46.39a9.72,9.72,0,0,0-4,.71,11.25,11.25,0,0,0-3.42,2.28,10.62,10.62,0,0,0-2.13,3.42,9.6,9.6,0,0,0-.86,4V79.88h48.32V86.3H143.5v4.13a10.42,10.42,0,0,0,.86,4.13,10,10,0,0,0,2.13,3.28,11.25,11.25,0,0,0,3.42,2.28,9.66,9.66,0,0,0,4,.86h42.2a9.66,9.66,0,0,0,4-.86,10.9,10.9,0,0,0,3.42-2.28,10.55,10.55,0,0,0,2.28-3.28,10.33,10.33,0,0,0,.71-4.13V67.34H158.18V61.07H206.5V56.79a9.5,9.5,0,0,0-.71-4,11,11,0,0,0-2.28-3.42,10.9,10.9,0,0,0-3.42-2.28,9.72,9.72,0,0,0-4-.71Z"/></svg>