<?xml version="1.0" encoding="utf-8"?>
<!-- Generator: Adobe Illustrator 23.0.6, SVG Export Plug-In . SVG Version: 6.00 Build 0)  -->
<svg version="1.1" id="Ebene_1" xmlns="http://www.w3.org/2000/svg" xmlns:xlink="http://www.w3.org/1999/xlink" x="0px" y="0px"
	 viewBox="0 0 350 120" style="enable-background:new 0 0 350 120;" xml:space="preserve">
<style type="text/css">
	.st0{fill:#FFFFFF;}
	.st1{fill:#858585;}
	.st2{opacity:0.2;fill:#CDD0D3;}
	.st3{opacity:0.4;fill:#FFFFFF;}
	.st4{opacity:0.2;fill:#858585;}
	.st5{opacity:0.4;fill:#858585;}
	.st6{fill:none;}
	.st7{fill-rule:evenodd;clip-rule:evenodd;fill:#FFFFFF;}
	.st8{opacity:0.5;fill-rule:evenodd;clip-rule:evenodd;fill:#FFFFFF;}
	.st9{opacity:0.5;fill-rule:evenodd;clip-rule:evenodd;fill:#858585;}
	.st10{fill-rule:evenodd;clip-rule:evenodd;fill:#858585;}
	.st11{fill:none;stroke:#FFFFFF;stroke-miterlimit:10;}
	.st12{opacity:0.5;fill:#FFFFFF;}
	.st13{opacity:0.5;fill:#858585;}
	.st14{fill:#1E1B1C;}
	.st15{fill:#808083;}
</style>
<g>
	<g>
		<path class="st0" d="M222.5,99.4L222.5,99.4c0.9,0.4,1.5,1.3,1.5,2.4c0,1.4-1.2,2.6-2.6,2.6c-0.2,0-0.5,0-0.7-0.1l0,0
			c0,0-87-22-87-22c-4.5-1.2-7.8-5.3-7.8-10.1V26c0-5.8,4.7-10.5,10.5-10.5h77.1c5.8,0,10.5,4.7,10.5,10.5v50.4
			c0,1.4-1.2,2.6-2.6,2.6c-0.4,0-0.7-0.1-1.1-0.2l0,0L203,70.9c-0.9-0.4-3-1.8-3-4.7V44.9c0-2.9-2.3-5.2-5.2-5.2h-39.4
			c-2.9,0-5.2,2.3-5.2,5.2v14.9c0,4.3,2.5,7.9,6.2,9.6C157.5,69.9,222.5,99.4,222.5,99.4"/>
	</g>
</g>
</svg>
