<svg id="Ebene_1" data-name="Ebene 1" xmlns="http://www.w3.org/2000/svg" viewBox="0 0 350 120"><defs><style>.cls-1,.cls-2,.cls-3{fill:#fff;}.cls-2,.cls-3{fill-rule:evenodd;}.cls-3{opacity:0.5;}</style></defs><title>12_Client_so</title><path id="path6" class="cls-1" d="M130,39.26a23.17,23.17,0,0,0-8.87-2.1c-4.09,0-6.13.89-6.13,2.51,0,4.63,18.23.91,18.23,10.78,0,4.09-3.75,7.25-11.25,7.25A22.81,22.81,0,0,1,110,54.54l1.64-3.68A20.15,20.15,0,0,0,122,53.74c4.45,0,6.83-1.32,6.83-3.29,0-5.06-18.23-1.28-18.23-10.53,0-4,3.72-6.74,10.43-6.74a22.59,22.59,0,0,1,10.63,2.56L130,39.26"/><path id="path8" class="cls-1" d="M150.28,57.82c-7.28,0-13.32-5-13.32-12.4S143,33,150.28,33s13.26,5.06,13.26,12.4-5.94,12.4-13.26,12.4m0-20.8c-5.3,0-8.93,3.68-8.93,8.4s3.47,8.44,8.93,8.44,8.87-3.63,8.87-8.44S155.7,37,150.28,37"/><path id="path10" class="cls-1" d="M180.93,57.79c-7.65,0-13.41-5-13.41-12.4S173.37,33,180.93,33a16.59,16.59,0,0,1,10.63,3.5L189.31,40a12.9,12.9,0,0,0-8.26-2.87c-5.58,0-9.05,3.62-9.05,8.31s3.5,8.35,9.11,8.35a13.17,13.17,0,0,0,8.37-2.82l2.27,3.44a17.21,17.21,0,0,1-10.82,3.43"/><path id="rect12" class="cls-1" d="M196.37,33.74h4.24V57.16h-4.24Z"/><path id="polyline14" class="cls-1" d="M206.88,57.16V33.74h20.81v3.87H211.13V43.3H224v3.87H211.13v6.12h17.29v3.87H206.88"/><path id="polyline16" class="cls-1" d="M244.24,37.59V57.16H240V37.59h-9.32V33.74h22.86v3.85h-9.31"/><path id="polyline18" class="cls-1" d="M257,57.16V33.74h20.81v3.87H261.2V43.3h12.88v3.87H261.2v6.12h17.3v3.87H257"/><path id="path20" class="cls-1" d="M123.09,84.89a15.5,15.5,0,0,0,6.53-1.42v-6.8h4.12v9.09A19.62,19.62,0,0,1,122.91,89c-7.64,0-13.4-5-13.4-12.4s5.85-12.37,13.4-12.37a16.75,16.75,0,0,1,10.64,3.47l-2.25,3.44A12.89,12.89,0,0,0,123,68.33c-5.58-.12-9,3.57-9,8.25,0,4.85,3.51,8.31,9.1,8.31"/><path id="polyline22" class="cls-1" d="M139.32,88.35V64.93h20.81V68.8H143.55v5.69h12.89v3.87H143.55v6.12h17.31v3.87H139.32"/><path id="path24" class="cls-1" d="M169.17,88.35H165V64.93h4.33l14.9,17.65.1,0c-.25-4.44-.28-8-.28-11.5V64.93h4.14V88.35h-4.29L169.07,70.7l-.06,0c.16,3.47.16,9.52.16,11.49v6.12"/><path id="polyline26" class="cls-1" d="M194.18,88.35V64.93H215V68.8H198.41v5.69H211.3v3.87H198.41v6.12h17.31v3.87H194.18"/><path id="path28" class="cls-1" d="M231.26,79.73h-6.82v8.62H220.2V64.93h14.68c4.88,0,7.9,3.06,7.9,7.47,0,4.18-3,6.67-6.56,7.21l6.8,8.74h-5.3l-6.46-8.62m3.17-3.9c2.65,0,4.15-1.41,4.15-3.43a3.34,3.34,0,0,0-3.7-3.6H224.44v7Z"/><path id="path30" class="cls-1" d="M251.71,82.66l-2.62,5.69H244.5l11.14-23.42h4.45l11.15,23.42h-4.57L264,82.66H251.71m1.76-3.8h8.8l-4.38-9.49-4.42,9.49Z"/><path id="polyline32" class="cls-1" d="M274.35,88.35V64.93h4.24V84.48h15.25v3.87H274.35"/><path id="polyline34" class="cls-1" d="M296.71,88.35V64.93h20.82V68.8H301v5.69h12.89v3.87H301v6.12h17.31v3.87H296.71"/><polygon class="cls-2" points="84.07 61.12 84.07 61.49 48.54 61.49 48.54 60.86 39.1 60.79 38.9 88.78 93.51 89.18 93.71 61.19 84.07 61.12"/><path class="cls-3" d="M39,33V61.55H93.61V33ZM84.07,61.49H48.54v-1H84.07Z"/></svg>