<svg id="Ebene_1" data-name="Ebene 1" xmlns="http://www.w3.org/2000/svg" viewBox="0 0 350 120"><defs><style>.cls-1{fill:#fff;}</style></defs><title>Client_Logo_Zeichenfläche_1</title><g id="layer1"><g id="g2189"><path id="path2195" class="cls-1" d="M253,83.44a28.61,28.61,0,0,1-8.45-2c-.55-.24-1-2.36-1.23-2.47l-.58-2.84c-.07-2.53-.17-5.33-.21-6.21l-.07-1.62h2.06l.26,2c1,7.41,4.9,11.14,11.69,11.14,4.52,0,7.31-1.7,8.72-5.28.44-1.12.51-1.69.52-4.4,0-3.08,0-3.13-.72-4.6-1.26-2.59-2.54-3.44-8.89-6-1.89-.75-4.12-1.72-5-2.15-5.55-2.79-8.29-6.76-8.28-12,0-6.64,3.71-11.44,10.16-13.18A27,27,0,0,1,263,34a23.09,23.09,0,0,1,5.41,2.14,24,24,0,0,1,.35,4.38c.07,2.25.16,4.61.2,5.26l.08,1.16H267l-.46-2.34c-1.07-5.45-3.58-8.33-7.9-9-3.5-.58-7.74.77-9.41,3-1.27,1.69-1.65,3-1.65,5.72,0,2.15.05,2.44.65,3.64a8,8,0,0,0,4,3.64,58.51,58.51,0,0,0,6.8,2.73,42,42,0,0,1,6,3,12.42,12.42,0,0,1,5.6,9,12.34,12.34,0,0,1,.09,4.44c-.51,4.13-1.71,6.68-4.25,9.05C263.16,82.82,259.2,83.9,253,83.44Zm-78.46-.3c-7-1.35-10.37-5.06-11.3-12.58-.14-1.16-.23-8.14-.23-18.18V36.09h-5.31v-2h17.47v2l-2.82.06-2.82.07-.06,14.45c-.08,18.81.13,21.84,1.77,25.19s4.74,5,9.39,5c5.28,0,8.22-2,9.81-6.58,1-2.95,1.09-4.5,1.09-21.83V36.09h-5.3v-2H199v2h-4.84l-.07,17.73c-.07,17.55-.08,17.76-.56,19.52-1.44,5.2-4.29,8.11-9.23,9.45A30.16,30.16,0,0,1,174.51,83.14Zm27.43-1.28.07-1,2.65,0,2.65,0,.06-22.37.06-22.36L204.72,36,202,36l-.07-.94-.07-1h10.86c6.87,0,11.45.09,12.45.25q5.76.9,7.87,5.09a13,13,0,0,1,1,8.26,9.14,9.14,0,0,1-4.38,6.51,13.17,13.17,0,0,1-4.92,2,10.7,10.7,0,0,0-1.95.56c-.1.09.5.22,1.33.31,8.54.87,12.28,4.63,12.28,12.36,0,4.25-1,7-3.49,9.45a12.91,12.91,0,0,1-6,3.27c-1.67.48-2.18.5-13.41.57l-11.68.07Zm20.15-1.4a9.45,9.45,0,0,0,7.13-7.4,20,20,0,0,0-.35-8.62,9.88,9.88,0,0,0-4.05-5.1c-1.76-1-3-1.24-7.15-1.24h-3.83V80.79h3.49A22.21,22.21,0,0,0,222.09,80.46Zm0-24.89c3.66-1.18,5.79-4.83,5.76-9.84,0-5.23-2.68-9-6.73-9.58a34.54,34.54,0,0,0-4.22-.11l-3,.07V46c0,5.41.07,9.92.16,10C214.29,56.28,220.93,56,222.07,55.57Z"/><path id="path2191" class="cls-1" d="M111.52,96.63c-.7-.2-.72-.24-.72-1.4s0-1.21-.72-1.34a14.08,14.08,0,0,1-4.64-2.13A10.69,10.69,0,0,1,102,79.25a11.44,11.44,0,0,1,7.57-6.47c1.62-.42,1.54-.89-.17-1L108,71.64V69.42l1.39-.07,1.38-.07V63.62c0-3.11,0-5.66-.1-5.66S109,59.29,107,60.91s-3.88,3.16-4.21,3.42-.6.56-.6.67a4.56,4.56,0,0,0,.75,1.08c.73.86.74.91.4,1.49a2.07,2.07,0,0,1-1,.82c-.56.2-.68.13-1.48-.82-.64-.76-.95-1-1.13-.81s0,.66.47,1.76a7.86,7.86,0,0,1,.81,3.8,9.34,9.34,0,0,1-.37,3.8,10.25,10.25,0,0,1-7,7,8.49,8.49,0,0,1-3.64.35,9.84,9.84,0,0,1-5.84-2,7.75,7.75,0,0,0-1.43-.86,3.61,3.61,0,0,0-.92.65c-.72.61-.79.63-1.38.32a2.83,2.83,0,0,1-1.3-1.92,2.52,2.52,0,0,1,.82-1l.81-.69-.59-1.36c-2.59-6,0-12.57,5.94-14.77a8.64,8.64,0,0,1,3.63-.46,9.67,9.67,0,0,1,6.36,2c1.8,1.21,2.25,1,1-.48-.82-1-.84-1.05-.49-1.62a2.2,2.2,0,0,1,1-.82c.55-.2.68-.13,1.51.83l.91,1.06,4.76-3.88a59.28,59.28,0,0,0,4.75-4.11,54.2,54.2,0,0,0-4.64-4l-4.64-3.77-.61.58c-.78.75-.77,1.19,0,1.8s.82.71.08,1.59l-.58.7-.7-.68c-.83-.82-.92-.83-1.47-.19-.9,1.06-.91,1.2-.09,1.76.42.29.77.64.77.77a3.05,3.05,0,0,1-1.06,1.42,42.15,42.15,0,0,1-4.42-3.55,9.54,9.54,0,0,1,2.27-1.46,13.24,13.24,0,0,0,2.33-1.46c0-.09-.29-.38-.64-.63l-.64-.45-2.15,1.22a15.39,15.39,0,0,1-2.24,1.15,16.28,16.28,0,0,1,.67-2.46l.75-2.37-.57-.45c-.31-.25-.66-.42-.77-.38a11.14,11.14,0,0,0-1,2.5c-.41,1.34-.79,2.47-.84,2.52a45.3,45.3,0,0,1-4.54-3.67,4.13,4.13,0,0,1,1.16-1.41,3.55,3.55,0,0,1,1,.6l.78.6.64-.7a3.16,3.16,0,0,0,.65-.85,3.93,3.93,0,0,0-.82-.87l-.82-.71.54-.69c.67-.84.76-.85,1.58-.16a2.77,2.77,0,0,0,.83.56,4.19,4.19,0,0,0,1.33-1.5,12.35,12.35,0,0,0-1.87-1.61c-2.07-1.61-2.23-2-1.31-3.09,1.15-1.37,0-2.08,13.14,8.59,7.08,5.78,8.82,7.17,8.94,7.17s.13-2.55.13-5.67V39.5h-2.21v2.23h-2V39.5h-2.21v2.23h-2v-6l1,.41,2.47,1a12.47,12.47,0,0,0,1.6.58c.1,0,.18-.37.18-.83v-.84l-2.46-1-2.46-1,2.46-1,2.46-1v-.87a1.9,1.9,0,0,0-.1-.87c-.06,0-1.13.41-2.38.92l-2.55,1c-.21.09-.27-.58-.27-2.91v-3h2V28.6h2.21V26.38h2V28.6h2.21V23.51l.85-.24a2.47,2.47,0,0,1,1.55,0l.69.24V37.21c0,11.57,0,13.66.31,13.56s6.31-5,16.72-13.49c1.89-1.54,3.56-2.88,3.71-3,.42-.27,1.1,0,1.56.7.92,1.31.87,1.44-1.17,3.07a12.19,12.19,0,0,0-1.89,1.7,3.53,3.53,0,0,0,1.16,1.5,3.55,3.55,0,0,0,1-.6l.78-.6.63.77.63.76-.87.78-.87.78.69.76c.47.52.77.7,1,.56,1.49-1.12,1.42-1.1,2-.52a2.92,2.92,0,0,1,.6.79c.07.28-4.23,3.9-4.47,3.75a18.67,18.67,0,0,1-.88-2.55,7.68,7.68,0,0,0-1-2.45,2,2,0,0,0-.75.44l-.51.43.76,2.45a17.14,17.14,0,0,1,.66,2.46c-.06,0-1.1-.56-2.32-1.25l-2.21-1.25-.64.62-.64.62,1.38.77,2.45,1.37,1.07.61-2.31,1.9-2.31,1.89-.62-.78-.61-.78.84-.71.85-.72-.62-.81a3.91,3.91,0,0,0-.73-.82,5.65,5.65,0,0,0-.94.67l-.84.67-.6-.79-.6-.79.84-.73.83-.73-.64-.81c-.55-.69-.7-.77-1-.54-.94.67-9.23,7.4-9.24,7.51a8.49,8.49,0,0,0,1.26,1.11c.7.55,2.89,2.32,4.87,3.94s3.64,2.95,3.69,2.95a6.4,6.4,0,0,0,.81-1c.84-1.19,1.31-1.25,2.22-.33l.67.67-.58.72c-.75.93-1.12,1.68-.93,1.88s.29.06.44-.06a16.29,16.29,0,0,1,4.2-2.41c5.46-1.55,10.42.53,12.8,5.37l.94,1.91V72c0,2.89,0,3-1.34,5.92-.06.12.3.52.79.88.74.55.87.76.76,1.22a3.42,3.42,0,0,1-1.49,1.81c-.3.17-.59,0-1.29-.56l-.89-.77-1,.77a10.51,10.51,0,0,1-6.8,2.3,9.47,9.47,0,0,1-7.3-3,10.06,10.06,0,0,1-2.87-5,10.79,10.79,0,0,1,.71-7.16c.42-1,.51-1.35.32-1.54s-.36-.11-.67.29c-1.35,1.72-1.2,1.63-2,1.23a2.62,2.62,0,0,1-.95-.82c-.25-.48-.2-.6.89-2l.45-.58-4.2-3.42c-2.31-1.88-4.3-3.45-4.42-3.49s-.21,1.74-.17,5.56l0,5.63,1.33.07c1.43.07,1.65.25,1.65,1.27s-.22,1.19-1.65,1.26c-1.89.1-1.75.55.35,1.16A10.75,10.75,0,0,1,122,77.63,11,11,0,0,1,122.54,88a11.84,11.84,0,0,1-6.4,5.41c-2.3.68-2.25.63-2.25,1.85,0,1,0,1.11-.69,1.34S112.48,96.91,111.52,96.63Zm-.68-6.41c.06-.91.13-1,.79-1.2a2.67,2.67,0,0,1,1.43,0c.67.19.73.29.83,1.31s.16,1.1.67,1a9.49,9.49,0,0,0,4.29-2.51,7.31,7.31,0,0,0,2.21-5.67,11.44,11.44,0,0,0-.28-2.84c-1.08-3.14-4.94-4-6.61-1.52a3.35,3.35,0,0,0,1.1,4.61,4.64,4.64,0,0,0,3.1,0c.34-.15.39,0,.39,1s0,1.24-.7,1.47a5.06,5.06,0,0,1-4.92-1.11,3.63,3.63,0,0,0-.64-.65,6.48,6.48,0,0,0-.87.74,4.89,4.89,0,0,1-4.84,1l-.86-.26V84.48c0-1.08,0-1.19.39-1a6.29,6.29,0,0,0,1.76.19c1.21,0,1.44-.07,2-.66a3.34,3.34,0,0,0,0-4.8c-2-1.92-5.4-.33-6.18,2.93a8.58,8.58,0,0,0,3.25,8.9c1.1.76,3.19,1.58,3.43,1.34A3.29,3.29,0,0,0,110.84,90.22Zm-17.6-9.56c2.36-.84,4.46-2.84,5-4.73a3.75,3.75,0,0,0-1-3.9c-.85-.84-1.06-1-2-1a3.24,3.24,0,0,0-3.38,2.77A3.33,3.33,0,0,0,93.55,77l.86.43-.91.7a3.75,3.75,0,0,1-1.21.71A4,4,0,0,1,91,78a4.43,4.43,0,0,1-1.6-3.85l.14-1L88.46,73a5.31,5.31,0,0,1-4-3.33c-.21-.56-.16-.68.6-1.36a6.54,6.54,0,0,1,1-.75c.08,0,.25.38.39.85a3.35,3.35,0,0,0,3,2.15,3.27,3.27,0,0,0,3.21-3.25c0-1.93-1.63-3.32-3.9-3.31-4.1,0-7.65,4.81-6.92,9.35.25,1.56.74,2.88,1.06,2.88a2.77,2.77,0,0,0,.89-.57c.64-.54.69-.55,1.35-.21a2.84,2.84,0,0,1,1,1.14l.38.79-.83.76a6,6,0,0,0-.82.85,10.47,10.47,0,0,0,3.29,1.82A9.37,9.37,0,0,0,93.24,80.66Zm44.47-.33a7,7,0,0,0,1.77-1.07c.38-.43.38-.46-.32-1s-.91-1.28-.26-2.1c.85-1.09,1.25-1.16,2.22-.37l.87.7.49-1.07a6.77,6.77,0,0,0,.49-3.3,6.11,6.11,0,0,0-.62-3.5,8.64,8.64,0,0,0-4-4.16c-2.61-1-4.84-.36-5.81,1.61a2.61,2.61,0,0,0,.61,3.48,3,3,0,0,0,4.65-.12,2.68,2.68,0,0,0,.68-1.32c0-.71.17-.69,1.16.14s1,1,.41,2.16a4.71,4.71,0,0,1-3.81,2.55l-.89,0,.14.94A4.42,4.42,0,0,1,134,77.81a4.22,4.22,0,0,1-1.4,1.06,3.35,3.35,0,0,1-1.24-.71l-.87-.71.61-.26a3.25,3.25,0,0,0,.25-5.68,3,3,0,0,0-4.3,1.25C125.7,75,127,78.14,130,79.9A7.28,7.28,0,0,0,134.57,81,7.19,7.19,0,0,0,137.71,80.33Z"/></g></g></svg>