<svg id="Ebene_1" data-name="Ebene 1" xmlns="http://www.w3.org/2000/svg" viewBox="0 0 350 120"><defs><style>.cls-1{fill:#fff;}</style></defs><title>Clients_Logos</title><g id="layer1"><path id="path22" class="cls-1" d="M139.35,35.65V36.7h4.9V75.54h-4.9v1h18.33v-1h-4.36V55.83h3.08c6,.12,8.26,1.52,8.26,10.88,0,6.4,1.52,10.82,7.73,10.82,4.59,0,6.26-1.14,7.82-2.81l-.7-.68A4.32,4.32,0,0,1,177,75.42c-2.33,0-3.15-.86-3.26-10-.12-6.22-4.3-9.53-12.85-10.29V55c5.87-.41,13.67-2.73,13.67-9.77,0-8.55-10.36-9.6-16.75-9.6Zm48.6.24a4.71,4.71,0,1,0,4.73,4.71A4.68,4.68,0,0,0,188,35.89Zm77.11,0a4.71,4.71,0,1,0,4.71,4.71A4.69,4.69,0,0,0,265.06,35.89Zm-111.74.81h4.25c4.94,0,7.21.7,7.21,7.91.18,7.27-1.51,9.83-8.2,10.18h-3.26V36.7ZM192,49.49C190.75,51,186.44,51,184.06,51h-4.28v1.05H184V75.54h-2.39l-.92,1h14.67v-1H192V49.49Zm16.73,0C207.48,51,203.18,51,200.79,51H197v1.05h3.73V75.54h-3.35v1h14.79v-1H208.7V59.61c0-3,2.91-7.21,6.16-7.21,1.68,0,3.43.7,3.43,4.77V75.54H215v1h14.16l-.36-1h-2.45V59.33c0-6.29-2.68-9-8.2-9-3.9,0-7.74,2-9.31,5.4h-.11V49.49Zm60.37,0C267.85,51,263.55,51,261.16,51h-2.94l.53,1.05h2.3V75.54H257.1v1h15.67v-1h-3.7Zm40.71,0C308.55,51,304.25,51,301.87,51h-4.21v1.05h4.21V75.54h-4.14v1h16.14v-1h-4V60.71c0-4.47,1.4-7.61,5.06-9.24h.24a4.46,4.46,0,0,0-1.4,3.44,3.71,3.71,0,0,0,4,3.77,4.2,4.2,0,0,0,4.41-4.24A4.24,4.24,0,0,0,317.57,50a8.34,8.34,0,0,0-7.68,5.46h-.11V49.49Zm-56.7.35c-1.93,0-3.37,1.28-4.48,2.56a12,12,0,0,0-7.27-2.09c-4.89,0-10.12,3.2-10.12,8.49A7.57,7.57,0,0,0,236,65.9V66a6.35,6.35,0,0,0-5.82,6.68c0,2.91,1.34,5.12,3.78,5.82v.12c-2.32.63-5,3-5,5.76,0,4.3,5.06,7.61,11.51,7.61,8.09,0,13.38-5.46,13.38-12.56,0-5.64-2.79-8.2-8.49-8.08h-9.66c-1.45,0-3.43-.06-3.43-1.63s2.5-3,4.71-3a7.06,7.06,0,0,1,1.92.35,7.48,7.48,0,0,0,2.39.35c5,0,10.34-2.85,10.34-8.37a8.38,8.38,0,0,0-2.49-5.88c1-1,1.57-2.32,3.84-2.62v.12a2.53,2.53,0,0,0-1.58,2.56,2.6,2.6,0,0,0,2.68,2.68,2.82,2.82,0,0,0,2.91-3c0-2-2.21-3.09-3.95-3.09Zm32.93.47c-6.86,0-12.78,5.93-12.78,13.78,0,7.56,5.52,13.2,12.95,13.2,7.17,0,10.71-4.41,12-10.17h-1.05c-1.28,5.4-4.65,8.77-9.18,8.77-5.42,0-6-4.53-6-8.48V62.52h16c-.06-6.28-5.86-12.33-12-12.21Zm-44.62,1c2.74,0,3.6.75,3.67,7.44-.07,7.15-1.58,7.55-3.67,7.55-2.32,0-3.56-.75-3.56-7.72C237.83,53.91,238.36,51.36,241.39,51.36Zm44.22,0c2.79,0,3.67,1.91,3.67,5.11v5H282v-5C282,52.58,283.64,51.36,285.61,51.36ZM234.93,78.69h9.13c5.82,0,7.74.51,7.74,4.07,0,4.24-5.23,8.2-11.11,8.2-5.23,0-8.08-3.55-8.2-6.35A8,8,0,0,1,234.93,78.69Z"/><path id="path36" class="cls-1" d="M42.1,62.23A10.8,10.8,0,1,1,52.91,51.42,10.82,10.82,0,0,1,42.1,62.23Zm0-27.07A16.27,16.27,0,1,0,58.37,51.42,16.28,16.28,0,0,0,42.1,35.16"/><path id="path38" class="cls-1" d="M115.49,40.63a10.8,10.8,0,1,1-10.81,10.79A10.8,10.8,0,0,1,115.49,40.63Zm0,27.06A16.27,16.27,0,1,0,99.22,51.42a16.29,16.29,0,0,0,16.27,16.27"/><path id="path40" class="cls-1" d="M78.79,62.23A10.8,10.8,0,1,1,89.6,51.42,10.82,10.82,0,0,1,78.79,62.23Zm0-27.07A16.27,16.27,0,1,0,95.06,51.42,16.28,16.28,0,0,0,78.79,35.16"/></g></svg>