<svg id="Ebene_1" data-name="Ebene 1" xmlns="http://www.w3.org/2000/svg" viewBox="0 0 350 120"><defs><style>.cls-1{fill:#fff;fill-rule:evenodd;}</style></defs><title>_Client_</title><g id="layer1"><path id="path26659" class="cls-1" d="M157.82,50.11a56.24,56.24,0,0,0-14.16-2.28c-4.61,0-8.26,2-8.26,5,0,2.87,2.71,4.58,7.56,4.58s10-3.08,14.86-7.33m-14.91,10c-9.07,0-14.76-2.69-14.76-6.63,0-5.62,9-8.54,19.55-8.54a88.37,88.37,0,0,1,14.16,1.37c2-2,3.91-4.12,5.78-6.19,3.72-4.14,9.21-10.1,13.8-13.62C190.14,19.81,201.25,15,213,15c14.58,0,26.26,4.92,26.26,12.27,0,4.22-4.15,7.87-11.55,8.16l-.24-1.35c1.56-.72,3.47-2,3.47-6,0-5.23-5.88-10.43-16.67-10.43-10.39,0-16.32,4.87-23,11.81-3.49,3.62-7.25,8.13-10.67,11.65a73.13,73.13,0,0,1-8.15,7.17c11.7,2.36,24.08,5.1,35.52,5.1,11.79,0,17.15-3,19.89-5.59l.75,1.09c-3,6.06-11.88,11.21-23.3,11.21-14.63,0-27.69-4.12-39.13-7.56-8,4.79-16.29,7.56-23.25,7.56m-60.63,35H74.13v9.63H69.78V82.51h4.35v9.16h8.15V82.51h4.36v22.24H82.28ZM60.9,104.75H56.57V86.26H51V82.51H66.49v3.75H60.9ZM92.51,82.51h13.26V86h-9v5.51h7.69v3.45H96.81v6.31H106v3.5H92.51Zm68.75,22.24V88.93c0-3.21-1.13-6.92-7.87-6.86a20.64,20.64,0,0,0-8.57,1.73v21h4.33V86.42a10.07,10.07,0,0,1,4-.73c3.47.08,3.8,1.89,3.8,4v15.07Zm145.25-8.44v8.44h-4.3v-21l.29-.15a16.15,16.15,0,0,1,7-1.55c5.65,0,9,2.71,9,7.22,0,4.35-3.63,7.17-9.58,7.17a22.09,22.09,0,0,1-2.41-.15m0-10.31v6.94a19.77,19.77,0,0,0,2.25.13c3.78,0,5.39-1.58,5.39-3.78,0-2.41-1.5-3.78-4.69-3.78a10,10,0,0,0-2.95.49M279.84,97.37V82.51h4.35V97.42a4.13,4.13,0,0,0,8.26,0V82.51h4.35V97.37c0,4.74-3.44,7.82-8.49,7.82s-8.47-3.08-8.47-7.82m-67.1-3.73c0-6.81,4-11.57,11-11.57A12,12,0,0,1,230,83.65l.41.25L229,87.09l-.54-.34a8.89,8.89,0,0,0-4.51-1.16c-4.4,0-6.84,3.1-6.84,8s2.46,8.1,6.43,8.1a8.45,8.45,0,0,0,3-.46V95.4h-4.11V92.09h8.26v11.37l-.26.15a13.25,13.25,0,0,1-6.76,1.58c-6.89,0-10.88-4.66-10.88-11.55m29.06.13c3,0,5.88-1.32,5.88-4.38,0-2.07-1.27-4-4.33-4a9.16,9.16,0,0,0-3.23.54v18.83h-4.25v-21l.28-.15a17,17,0,0,1,7.2-1.55c5.62,0,8.6,2.82,8.6,7.22a6.76,6.76,0,0,1-4.58,6.22l5.43,9.24h-5.12Zm14-.18c0-6.55,3.34-11.76,9.73-11.76s9.74,5.21,9.74,11.76-3.34,11.83-9.74,11.83-9.73-5.25-9.73-11.83m4.35,0c0,5,1.94,8.06,5.38,8.06s5.39-3.11,5.39-8.06-1.92-8-5.39-8-5.38,3-5.38,8m-71.29-11h13.26V86h-8.94v5.51h7.69v3.45h-7.69v6.31h9.14v3.5H188.87Zm-54.2,0H139v22.24h-4.35Zm-15.77,0h4.35V101h7.95v3.75H118.9Zm52.15,3.6v15a7.5,7.5,0,0,0,2.75.47c3.78,0,6.14-2.64,6.14-8s-2.39-8-6.14-8a7.59,7.59,0,0,0-2.75.5M167,103.58l-.31-.15V83.77l.31-.15a15.4,15.4,0,0,1,6.81-1.55c6.63,0,10.52,4.5,10.52,11.52s-3.89,11.55-10.52,11.55a15.27,15.27,0,0,1-6.81-1.56"/></g></svg>