<svg id="Ebene_1" data-name="Ebene 1" xmlns="http://www.w3.org/2000/svg" viewBox="0 0 350 120"><defs><style>.cls-1{fill:#fff;}</style></defs><title>Client_Logo_Zeichenfläche_9</title><path class="cls-1" d="M217.43,17.57a60,60,0,0,0-84.86,84.86,60,60,0,0,0,84.86-84.86ZM175,117.92A57.93,57.93,0,0,1,134,19a57.92,57.92,0,1,1,41,98.88Z"/><path class="cls-1" d="M216,19A57.93,57.93,0,0,0,134,101,57.93,57.93,0,0,0,216,19Zm-41,96.5A55.54,55.54,0,1,1,230.54,60,55.54,55.54,0,0,1,175,115.54Z"/><path class="cls-1" d="M175,24.53A35.47,35.47,0,1,0,210.47,60,35.47,35.47,0,0,0,175,24.53Zm0,68.66V60H141.81A33.19,33.19,0,0,1,175,26.81V60h33.19A33.19,33.19,0,0,1,175,93.19Z"/><polygon class="cls-1" points="169.81 11.91 173.66 22.11 176.86 22.11 180.71 11.91 180.71 22.11 183.63 22.11 183.63 7.5 179.24 7.5 175.26 17.91 175.28 17.96 175.24 17.96 175.26 17.91 171.28 7.5 166.88 7.5 166.88 22.11 169.81 22.11 169.81 11.91"/><polygon class="cls-1" points="175.28 17.96 175.26 17.91 175.24 17.96 175.28 17.96"/><polygon class="cls-1" points="219.24 31.94 210.7 36 216.21 28.2 213.78 25.2 205 28.97 210.75 21.45 208.49 18.66 199.31 30.46 201.99 33.74 210.66 30.18 210.69 30.21 205.4 37.95 208.06 41.25 221.5 34.73 219.24 31.94"/><path class="cls-1" d="M148.93,26.15a3.74,3.74,0,0,0-4.7-.43,3.24,3.24,0,0,0,0-2.18,5.2,5.2,0,0,0-1.6-2c-2-1.64-4-.24-5.5,1.52L130,31.54,141.23,41l7.52-9C150.47,29.94,150.74,27.91,148.93,26.15Zm-14.51,4.1,4.29-5.1a1.75,1.75,0,0,1,2.34,0,1.55,1.55,0,0,1,.26,2.25l-4.23,5Zm11.83.85-4.47,5.32L139,34.07l4.5-5.36a1.84,1.84,0,0,1,2.77,2.39Z"/></svg>