<svg id="Ebene_1" data-name="Ebene 1" xmlns="http://www.w3.org/2000/svg" viewBox="0 0 350 120"><defs><style>.cls-1{fill:#fff;fill-rule:evenodd;}</style></defs><title>Clients_Logos</title><g id="layer1"><path id="path5845" class="cls-1" d="M320.47,69.5V67.43a4.67,4.67,0,0,0,1.44.32c2.55,0,3.67-1.92,4.31-2.88l.48.16c-.32,1-1.92,4.47-5.91,4.47Zm0-7.66V61h2.87c-.15-1.44-.47-3.2-2.71-3.2h-.16v-1h.8c2.71,0,4.63,1.43,5,5Zm28.89-4.63h-2.87V54c0-.16,0-.32-.16-.32a16.78,16.78,0,0,1-2.4,3c-.64.64-1.27.79-1.27,1.11,0,0,0,.17.16.17h1.43v8.14c0,2.72,1.12,3.35,2.55,3.35a3.69,3.69,0,0,0,3.2-2.07l-.32-.16a2.28,2.28,0,0,1-1.75.8c-1.44,0-1.44-1.6-1.44-2.4V58h2.87ZM330.05,67c0,1.6-.48,1.92-1.76,1.92v.31h5.91v-.31c-1.44,0-1.76-.49-1.76-1.44V59.92a4.5,4.5,0,0,1,2.71-1.6c1.6,0,2.08,1,2.08,2.72v5.59c0,2.07-.64,2.24-1.76,2.24v.31h5.75v-.31c-1.28-.17-1.59-.49-1.59-1.76V60.88c0-3.19-1.92-4-3.36-4s-2.55,1-4,2.23V56.89h-.17c-1.27.48-2.55.8-3.83,1.27v.48c0-.16.32-.16.8-.16s1,0,1,1.76Zm-9.58-10.06v1c-1.43.17-2.39.8-2.87,3.2h2.87v.8h-3c.32,3.51,1.6,5.11,3,5.59V69.5c-2.87-.16-4.78-2.23-4.78-5.91C315.69,59.12,318.24,57.37,320.47,56.89Zm-46,12.61V67.43a4.61,4.61,0,0,0,1.44.32c2.55,0,3.67-1.92,4.31-2.88l.47.16c-.32,1-1.91,4.47-5.9,4.47Zm0-7.66V61h2.87c-.16-1.44-.48-3.2-2.71-3.2h-.16v-1h.79c2.56,0,4.63,1.43,5,5Zm32.88,7.34h6.54v-.31c-1.92-.17-2.07-.65-2.07-2.4V56.89c-1.6.48-3,1-4.31,1.43v.48a2.31,2.31,0,0,1,1.11-.16c.32,0,1,0,1,1.6v6.23c0,2.23-.48,2.4-2.23,2.4Zm1.75-16.93a1.38,1.38,0,0,0,1.28,1.44,1.44,1.44,0,1,0,0-2.87A1.37,1.37,0,0,0,309.14,52.25ZM298.45,67.11c0,1.44-.48,1.59-2.08,1.76v.31h6.7v-.31c-1.43,0-2.39-.17-2.39-1.92V60.88a2.81,2.81,0,0,1,1.92-2.24c.63,0,.95,1,1.91,1a1.14,1.14,0,0,0,1.12-1.28A1.47,1.47,0,0,0,304,56.89c-1,0-1.92.63-3.2,2.39h-.16V56.89h-.16a41.44,41.44,0,0,1-4,1.43v.48c.16-.16.48-.16,1-.16.32,0,1,0,1,1.6Zm-3.83-9.9h-4v.31c.79.17,1.27.32,1.27,1,0,1-1.91,5.11-2.87,7.67l-2.87-6.87c0-.16-.16-.64-.16-1,0-.63.48-.63,1.27-.8v-.31h-5.42v.31c.48.17,1.12.17,1.44,1.12a102,102,0,0,1,4.3,9.74c.48,1.12.48,1.28.8,1.28.16,0,.48-.64.8-1.44l3.51-8.62c.64-1.44,1-1.91,1.92-2.08Zm-20.11-.32v1c-1.44.17-2.56.8-2.87,3.2h2.87v.8h-3c.32,3.51,1.6,5.11,3,5.59V69.5c-2.87-.16-4.95-2.23-4.95-5.91C269.56,59.12,272.27,57.37,274.51,56.89ZM259.19,69V67.91c2.39-.64,5.1-2.56,5.1-7.51a7.78,7.78,0,0,0-2.55-6.07,5.68,5.68,0,0,0-2.55-1.44V51.62c4.95.79,8.14,3.67,8.14,8.78C267.33,63.59,265.57,68.07,259.19,69Zm0-17.4v1.27a12.49,12.49,0,0,0-3.84-.48c-1.27,0-1.27.65-1.27,1.12V67.11c0,1,.32,1.11,1.6,1.11a16.92,16.92,0,0,0,3.51-.31V69a12.93,12.93,0,0,1-2.56.16h-7.82V68.7c2.08,0,2.4-.48,2.4-2.39v-12c0-1.92-.32-2.23-2.4-2.4v-.47h7.34A18.37,18.37,0,0,1,259.19,51.62ZM230.78,68.55V67.43c.48-.32.8-.64,1.27-1-.31-.48-.79-1-1.27-1.6V60.24a41.55,41.55,0,0,0,3,4.31c.8-1.12,2.55-3.35,2.55-4.95,0-1-.63-1.12-1.75-1.28v-.48h6.06v.48a3.14,3.14,0,0,0-2.71,1.6l-.64,1.28a35.29,35.29,0,0,1-2.87,4c.32.48,2.07,2.56,4.15,2.56a3.1,3.1,0,0,0,2.71-1.44l.48.32c-.16.16-1.28,3-4.31,3-2.23,0-3.83-1.59-4.79-2.55A6.56,6.56,0,0,1,230.78,68.55Zm0-9.91c1.76-.8,3.67-2.07,3.67-4.31,0-1.92-1.6-3.19-3.67-3.19v.79A2.18,2.18,0,0,1,233,54.17a4,4,0,0,1-2.23,3.35Zm0-7.5v.79c-1.12,0-2.08.64-2.08,2.4a8.14,8.14,0,0,0,1.12,3.83,6.11,6.11,0,0,1,1-.64v1.12c-.16.16-.32.16-.64.32a3.22,3.22,0,0,1,.64,1.28v4.63a47.46,47.46,0,0,1-2.88-4.79c-1.27.8-3.35,1.92-3.35,4.31a3.75,3.75,0,0,0,3.68,3.83,6,6,0,0,0,2.55-.79v1.12a7.64,7.64,0,0,1-4.15,1.11c-1.76,0-4.63-.79-4.63-4.31,0-2.72,2.55-4.63,4.47-5.59l1-.64a9.6,9.6,0,0,1-1-3.83A4.14,4.14,0,0,1,230.78,51.14ZM208.28,69.5V67.43a4.61,4.61,0,0,0,1.43.32c2.4,0,3.67-1.92,4.31-2.88l.48.16c-.32,1-1.92,4.47-5.91,4.47Zm0-7.66V61h2.87c-.16-1.44-.48-3.2-2.72-3.2h-.15v-1h.79c2.56,0,4.63,1.43,4.79,5Zm0-5v1c-1.44.17-2.4.8-2.88,3.2h2.88v.8h-3c.32,3.51,1.6,5.11,3,5.59V69.5c-2.88-.16-4.95-2.23-4.95-5.91C203.33,59.12,206,57.37,208.28,56.89ZM168.53,69.5V67.43a4.73,4.73,0,0,0,1.6.32c2.39,0,3.51-1.92,4.31-2.88l.32.16a6.22,6.22,0,0,1-5.9,4.47Zm0-7.66V61h2.88c-.16-1.44-.48-3.2-2.72-3.2h-.16v-1h.8c2.71,0,4.63,1.43,4.95,5Zm20.11,7.34h6.55v-.31h-.48c-1,0-1.6-.32-1.6-1.44v-4.8l3.83,5c.32.48.64.63.64,1s-.32.32-.64.32h-.47v.31h6.06v-.31c-.8,0-1.76-.17-3.19-1.92L195,61.68l.8-.64c3.83-3.52,4.63-3.52,6.06-3.52v-.31h-5.74v.31c1.11,0,1.43.17,1.43.64,0,.16-.32.48-.64.8-1.11,1-2.87,2.4-3.83,3.2V51l-.16-.16a22.51,22.51,0,0,1-4.31,1.28v.47a1.73,1.73,0,0,1,1-.16c1,0,1.28.48,1.28,1.76V67.11c0,1.44-.32,1.44-2.24,1.76ZM186.89,65c-1,1.44-1.92,2.56-3.83,2.56-2.39,0-4.31-2.08-4.31-5.12,0-4,2.55-4.78,3.51-4.78,1.43,0,1.76.47,1.92,1.27l.16.64a1.53,1.53,0,0,0,1.43,1.28,1.22,1.22,0,0,0,1.12-1.28,2.7,2.7,0,0,0-1.12-1.91,7.65,7.65,0,0,0-3-.8,6.34,6.34,0,0,0-6.23,6.7c0,4.16,3,5.91,5.27,5.91s4-1.12,5.59-4.15Zm-18.36-8.14v1c-1.43.17-2.39.8-2.87,3.2h2.87v.8h-2.87c.16,3.51,1.44,5,2.87,5.59V69.5c-2.87-.16-4.78-2.23-4.78-5.91C163.75,59.12,166.46,57.37,168.53,56.89ZM144.28,69.5V67.43a4.62,4.62,0,0,0,1.59.32c2.39,0,3.51-1.92,4.15-2.88l.48.16a6.22,6.22,0,0,1-5.91,4.47Zm0-7.66V61h2.87c-.16-1.44-.48-3.2-2.71-3.2h-.16v-1h.79c2.72,0,4.63,1.43,5,5Zm16.12-1-.17-3.83h-.31a.5.5,0,0,1-.48.47,11.57,11.57,0,0,0-2.56-.63c-2.71,0-3.83,1.75-3.83,3.35,0,1.92,1.6,2.87,3.2,3.83L158,65A2.26,2.26,0,0,1,159.28,67,2,2,0,0,1,157.2,69c-2.87,0-3.35-2.39-3.67-3.83h-.48v4.15h.32c.32-.16.32-.32.64-.32.8,0,1.92.48,3.19.48,1.92,0,4.15-1.12,4.15-3.35,0-1.76-1.12-2.4-2.39-3.2l-3-1.75a2.26,2.26,0,0,1-1.12-1.92,2,2,0,0,1,2.07-1.76c1.28,0,2.4.64,3,3.36ZM129,59.76h-7v.48c1.92.16,2.4.16,2.4,2.39V67c0,1-1.92,1.6-3.84,1.6-4.3,0-7.18-3-7.18-7.83,0-6.87,4.15-8.47,6.71-8.47,4,0,5.42,2.56,6.22,4.48h.64l-.32-5.59h-.64c-.16.63-1.11.79-1.28.79-1,0-2.07-.79-4.94-.79a9.18,9.18,0,0,0-9.58,8.94c0,3.51.8,5.11,2.4,6.71,1.91,2.08,5.1,2.87,7.81,2.87,3,0,6.71-1.59,6.71-1.91V62.32c0-1.92.8-1.92,1.91-2.08Zm15.33-2.87v1c-1.44.17-2.4.8-2.88,3.2h2.88v.8H141.4c.16,3.51,1.44,5,2.88,5.59V69.5c-2.88-.16-4.79-2.23-4.79-5.91C139.49,59.12,142.2,57.37,144.28,56.89ZM37.34,71.42V61.36H21.7V57.69H37.34V44.75H63a15.25,15.25,0,1,1,0,30.5H15.8C7,75.25,0,68.55,0,60.08A15.54,15.54,0,0,1,15.8,44.75H29.53v3.83H15.8a11.66,11.66,0,0,0-12,11.5c0,6.23,5.43,11.34,12,11.34H63a11.43,11.43,0,1,0,0-22.84H41.33v9.11H57.14v3.67H41.33V71.42Zm93.53-2.24h6.7v-.31c-1.91-.17-2.23-.65-2.23-2.4V56.89L131,58.32v.48a2.37,2.37,0,0,1,1.12-.16c.47,0,.95,0,.95,1.6v6.23c0,2.23-.48,2.4-2.23,2.4Zm1.75-16.93a1.53,1.53,0,0,0,1.44,1.44,1.44,1.44,0,1,0,0-2.87,1.52,1.52,0,0,0-1.44,1.43"/></g></svg>