<svg width="544" height="545" viewBox="0 0 544 545" fill="none" xmlns="http://www.w3.org/2000/svg">
<rect width="544" height="545" fill="#061B2B"/>
<rect x="116.494" y="427.6" width="370.766" height="1" fill="#8196A9"/>
<path d="M486.271 431.7L492.307 428.1L486.271 424.6V431.7Z" fill="#8196A9"/>
<rect x="115.5" y="56.9604" width="1" height="371.742" fill="#8196A9"/>
<path d="M119.5 57.9526L116 52L112.5 57.9526H119.5Z" fill="#8196A9"/>
<path d="M71.2347 293.407H59.6582V291.728H71.2347V293.407Z" fill="white"/>
<path d="M71.2356 278.289H64.8356C64.2709 278.289 63.7062 278.487 63.4239 278.783C63.0474 279.08 62.8591 279.574 62.8591 280.265C62.8591 280.661 62.9533 281.056 63.1415 281.352C63.3297 281.649 63.518 281.945 63.8003 282.143H71.3297V283.724H64.7415C64.1768 283.724 63.8003 283.921 63.4239 284.218C63.1415 284.514 62.9533 285.008 62.9533 285.799C62.9533 286.194 62.9533 286.49 63.0474 286.787C63.1415 287.083 63.1415 287.38 63.3297 287.577H71.2356V289.158H62.5768C62.3886 288.664 62.2003 288.17 62.1062 287.676C62.0121 287.182 61.918 286.589 61.918 285.897C61.918 285.206 62.0121 284.613 62.2003 284.119C62.3886 283.625 62.6709 283.328 62.9533 283.032C62.6709 282.736 62.3886 282.34 62.2003 281.846C62.0121 281.352 61.918 280.858 61.918 280.265C61.918 279.672 62.0121 279.178 62.1062 278.783C62.2944 278.388 62.4827 277.993 62.6709 277.696C62.9533 277.4 63.2356 277.202 63.6121 277.103C63.9886 277.005 64.365 276.906 64.8356 276.906H71.2356V278.289Z" fill="white"/>
<path fill-rule="evenodd" clip-rule="evenodd" d="M68.6003 267.321C67.9415 267.124 67.2827 267.025 66.5297 267.025C65.8709 267.025 65.2121 267.124 64.5533 267.42C63.9886 267.618 63.518 267.815 63.1415 268.211C62.765 268.507 62.3886 269.001 62.2003 269.495C62.0121 269.989 61.918 270.582 61.918 271.274C61.918 271.867 62.0121 272.361 62.1062 272.855C62.2003 273.349 62.3886 273.843 62.5768 274.238H74.9062V272.657H71.1415C71.2356 272.459 71.3297 272.262 71.3297 271.965C71.4239 271.768 71.4239 271.471 71.4239 271.175V271.175C71.4239 270.582 71.2356 269.989 71.0474 269.495C70.8591 269.001 70.4827 268.606 70.1062 268.211C69.7297 267.815 69.165 267.519 68.6003 267.321ZM65.118 268.705C65.4944 268.606 66.0591 268.606 66.6239 268.606C67.8474 268.606 68.7886 268.902 69.4474 269.396C70.1062 269.89 70.4827 270.582 70.4827 271.57C70.4827 271.733 70.4542 271.867 70.4285 271.986C70.4076 272.084 70.3886 272.173 70.3886 272.262C70.3886 272.459 70.3886 272.657 70.2944 272.756H63.1415C63.0474 272.558 62.9533 272.262 62.9533 272.064C62.8591 271.867 62.8591 271.57 62.8591 271.373C62.8591 270.878 62.9533 270.483 63.1415 270.088C63.3297 269.693 63.518 269.396 63.8944 269.199C64.2709 269.001 64.6474 268.803 65.118 268.705Z" fill="white"/>
<path fill-rule="evenodd" clip-rule="evenodd" d="M68.6 257.836C68.0352 257.737 67.3764 257.638 66.7176 257.638C66.0588 257.638 65.4 257.737 64.8352 257.836C64.2705 258.033 63.7058 258.231 63.3294 258.527C62.9529 258.824 62.6705 259.219 62.3882 259.713C62.1058 260.207 62.0117 260.701 62.0117 261.393C62.0117 262.085 62.1058 262.579 62.3882 263.073C62.5764 263.567 62.9529 263.962 63.3294 264.258C63.8 264.555 64.2705 264.752 64.8352 264.95C65.4 265.049 66.0588 265.148 66.7176 265.148C67.3764 265.148 68.0352 265.148 68.6 264.95C69.1647 264.851 69.6352 264.555 70.1058 264.258C70.5764 263.962 70.8588 263.567 71.1411 263.073C71.4235 262.579 71.5176 262.085 71.5176 261.393C71.5176 260.8 71.4235 260.207 71.1411 259.713C70.8588 259.219 70.5764 258.824 70.1058 258.527C69.6352 258.231 69.1647 258.033 68.6 257.836ZM65.2117 259.318C65.6823 259.219 66.1529 259.219 66.6235 259.219C66.9344 259.219 67.2167 259.249 67.4705 259.276C67.6778 259.298 67.866 259.318 68.0352 259.318C68.5058 259.417 68.8823 259.516 69.2588 259.713C69.6352 259.911 69.9176 260.108 70.1058 260.405C70.2941 260.701 70.3882 261.097 70.3882 261.492C70.3882 261.986 70.2941 262.282 70.1058 262.579C69.9176 262.875 69.6352 263.073 69.2588 263.27C68.8823 263.468 68.5058 263.567 68.0352 263.666C67.6588 263.764 67.0941 263.764 66.6235 263.764H66.6235H66.6235C66.1529 263.764 65.6823 263.764 65.2117 263.666C64.7411 263.567 64.3647 263.468 63.9882 263.27C63.6117 263.073 63.3294 262.875 63.1411 262.579C62.9529 262.282 62.8588 261.887 62.8588 261.492C62.8588 260.998 62.9529 260.701 63.1411 260.405C63.3294 260.108 63.6117 259.911 63.9882 259.713C64.3647 259.516 64.7411 259.417 65.2117 259.318Z" fill="white"/>
<path d="M63.1415 251.808C63.0474 252.105 62.9533 252.401 62.9533 252.796C62.9533 252.994 62.9533 253.191 63.0474 253.389C63.0474 253.587 63.1415 253.784 63.2356 253.982H71.2356V255.563H62.5768C62.3886 255.168 62.2003 254.674 62.1062 254.18C62.0121 253.686 61.918 252.994 61.918 252.302C61.918 252.105 61.918 251.907 61.918 251.808C61.918 251.611 61.918 251.512 61.918 251.512L63.1415 251.808Z" fill="white"/>
<path d="M71.2347 245.88C71.3288 246.176 71.4229 246.473 71.4229 246.868C71.4229 247.56 71.2347 248.153 70.8582 248.548C70.4817 248.943 69.917 249.141 69.1641 249.141H63.1406V250.228H62.1994V249.141H60.1288L59.6582 247.56H62.1994V245.88H63.1406V247.56H69.1641C69.5406 247.56 69.917 247.461 70.1053 247.263C70.2935 247.066 70.4817 246.769 70.4817 246.374C70.4817 246.176 70.4817 245.979 70.3876 245.88H71.2347V245.88Z" fill="white"/>
<path fill-rule="evenodd" clip-rule="evenodd" d="M71.236 238.864C71.1419 238.37 70.9536 237.876 70.7654 237.481H64.836C63.8007 237.481 63.0477 237.777 62.5772 238.37C62.1066 238.963 61.8242 239.754 61.8242 240.84C61.8242 241.433 61.9183 241.927 62.0125 242.421C62.1066 242.915 62.2948 243.41 62.483 243.805L63.4242 243.41C63.3772 243.212 63.3066 243.014 63.236 242.817C63.1654 242.619 63.0948 242.421 63.0477 242.224C63.0316 242.139 63.0155 242.057 62.9998 241.978C62.9241 241.594 62.8595 241.267 62.8595 240.939C62.8595 240.346 63.0477 239.754 63.3301 239.457C63.6125 239.161 64.083 238.963 64.7419 238.963H65.3066C65.4007 239.754 65.4948 240.544 65.683 241.137C65.8037 241.517 65.9631 241.897 66.1115 242.251C66.1946 242.449 66.2743 242.639 66.3419 242.817C66.5301 243.311 66.9066 243.607 67.283 243.904C67.6595 244.2 68.1301 244.299 68.6948 244.299C69.636 244.299 70.2948 243.904 70.7654 243.311C71.236 242.718 71.4242 241.829 71.4242 240.643C71.4242 240.05 71.3301 239.358 71.236 238.864ZM66.9066 241.829C66.5301 241.137 66.2477 240.149 66.1536 238.963H70.2948C70.3477 239.074 70.3708 239.185 70.3977 239.314C70.4186 239.414 70.4418 239.525 70.483 239.655C70.5772 239.951 70.5772 240.248 70.5772 240.544V240.544C70.5772 241.236 70.483 241.829 70.1066 242.224C69.8242 242.619 69.3536 242.817 68.6948 242.817C67.8477 242.817 67.283 242.52 66.9066 241.829Z" fill="white"/>
<path d="M71.2356 229.576H64.9297C64.2709 229.576 63.7062 229.774 63.4239 230.07C63.1415 230.367 62.9533 230.959 62.9533 231.75C62.9533 232.343 63.0474 232.936 63.2356 233.43H71.2356V235.011H62.5768C62.3886 234.517 62.2003 234.022 62.1062 233.528C62.0121 232.936 61.918 232.343 61.918 231.75C61.918 230.465 62.2003 229.477 62.6709 228.884C63.1415 228.292 63.8944 227.995 64.9297 227.995H71.2356V229.576Z" fill="white"/>
<path d="M70.8584 219.992C71.0466 220.288 71.2349 220.585 71.329 220.881C71.4231 221.276 71.5172 221.671 71.5172 222.067C71.5172 222.66 71.4231 223.154 71.1408 223.648C70.9525 224.142 70.5761 224.537 70.1996 224.833C69.8231 225.13 69.2584 225.426 68.6937 225.525C68.129 225.723 67.4702 225.821 66.8114 225.821C66.1525 225.821 65.4937 225.723 64.929 225.525C64.3643 225.327 63.8937 225.13 63.4231 224.833C63.0466 224.537 62.6702 224.142 62.4819 223.648C62.2937 223.154 62.1055 222.66 62.1055 222.067C62.1055 221.573 62.1996 221.177 62.2937 220.881C62.3878 220.486 62.5761 220.189 62.7643 219.992L63.6114 220.387C63.5172 220.585 63.329 220.782 63.2349 221.079C63.1408 221.375 63.1408 221.573 63.1408 221.869C63.1408 222.264 63.2349 222.561 63.4231 222.857C63.6114 223.154 63.8937 223.45 64.1761 223.648C64.4584 223.845 64.929 224.043 65.3055 224.142C65.7761 224.241 66.2466 224.339 66.7172 224.339C67.2819 224.339 67.7525 224.241 68.129 224.142C68.5996 224.043 68.9761 223.845 69.2584 223.648C69.6349 223.45 69.8231 223.154 70.0114 222.857C70.1996 222.561 70.2937 222.264 70.2937 221.869C70.2937 221.573 70.2937 221.276 70.1996 221.079C70.1055 220.881 70.0114 220.585 69.9172 220.387L70.8584 219.992Z" fill="white"/>
<path fill-rule="evenodd" clip-rule="evenodd" d="M69.5415 216.336C68.9768 216.83 68.2239 217.126 67.2827 217.225L66.3415 211.099H66.1533C64.7415 211.099 63.6121 211.494 62.9533 212.087C62.2944 212.68 61.918 213.569 61.918 214.755C61.918 215.347 62.1062 215.841 62.2944 216.336C62.4827 216.83 62.8591 217.225 63.2356 217.521C63.7062 217.916 64.1768 218.114 64.7415 218.312C65.4003 218.509 65.965 218.608 66.718 218.608C68.2239 218.608 69.3533 218.213 70.2003 217.521C71.0474 216.83 71.4239 215.743 71.4239 214.359C71.4239 213.865 71.3297 213.272 71.2356 212.778C71.1415 212.284 70.9533 211.79 70.765 211.494L69.8239 211.889C70.0121 212.186 70.1062 212.581 70.2003 212.976L70.2003 212.976C70.2944 213.371 70.3886 213.865 70.3886 214.261C70.3886 215.15 70.1062 215.841 69.5415 216.336ZM63.6121 213.272C64.1768 212.877 64.8356 212.68 65.7768 212.68L66.5297 217.521H66.4356C65.965 217.521 65.4944 217.422 65.0239 217.324C64.5533 217.225 64.1768 217.027 63.8944 216.83C63.518 216.632 63.3297 216.336 63.1415 216.039C62.9533 215.644 62.8591 215.347 62.8591 214.952C62.8591 214.162 63.1415 213.569 63.6121 213.272Z" fill="white"/>
<path d="M266.017 483.547C266.017 484.013 265.918 484.387 265.721 484.853C265.523 485.227 265.325 485.6 264.93 485.88C264.634 486.16 264.14 486.347 263.744 486.533C263.25 486.72 262.756 486.813 262.163 486.813C261.57 486.813 261.076 486.72 260.483 486.627C259.989 486.533 259.495 486.347 259.1 486.16L259.594 485.133C259.89 485.32 260.285 485.507 260.681 485.507C261.076 485.507 261.57 485.6 261.965 485.6C262.756 485.6 263.349 485.413 263.744 485.04C264.14 484.667 264.337 484.2 264.337 483.64C264.337 483.173 264.238 482.8 263.942 482.52C263.645 482.24 263.349 481.96 262.954 481.773C262.558 481.587 262.163 481.307 261.768 481.12C261.373 480.933 260.977 480.653 260.582 480.467C260.187 480.187 259.89 479.907 259.594 479.44C259.297 479.067 259.198 478.507 259.198 477.947C259.198 477.48 259.297 477.107 259.495 476.733C259.693 476.36 259.89 476.08 260.285 475.8C260.681 475.52 260.977 475.333 261.471 475.24C261.965 475.053 262.46 475.053 262.954 475.053C263.448 475.053 263.942 475.147 264.436 475.24C264.93 475.333 265.325 475.52 265.622 475.707L265.227 476.64C264.93 476.453 264.634 476.36 264.238 476.267C263.843 476.173 263.448 476.08 263.151 476.08C262.46 476.08 261.965 476.267 261.57 476.547C261.175 476.827 260.977 477.293 260.977 477.947C260.977 478.413 261.076 478.787 261.373 479.067C261.669 479.347 261.965 479.627 262.361 479.813C262.756 480 263.151 480.187 263.547 480.373C263.942 480.56 264.436 480.84 264.733 481.027C265.128 481.307 265.424 481.68 265.721 482.053C265.82 482.333 266.017 482.893 266.017 483.547Z" fill="white"/>
<path fill-rule="evenodd" clip-rule="evenodd" d="M273.23 486.534C273.724 486.44 274.218 486.254 274.614 486.067V480.187C274.614 479.16 274.317 478.414 273.724 477.947C273.131 477.48 272.341 477.2 271.254 477.2C270.661 477.2 270.167 477.294 269.673 477.387C269.178 477.48 268.684 477.667 268.289 477.854L268.684 478.787C268.857 478.746 269.011 478.687 269.171 478.627C269.377 478.548 269.592 478.466 269.87 478.414C269.955 478.398 270.037 478.382 270.116 478.366C270.5 478.291 270.827 478.227 271.155 478.227C271.748 478.227 272.341 478.414 272.637 478.694C272.934 478.974 273.131 479.44 273.131 480.094V480.654C272.341 480.747 271.649 480.84 270.957 481.027L270.957 481.027C270.364 481.214 269.771 481.4 269.277 481.68C268.783 481.867 268.487 482.24 268.19 482.614C267.894 482.987 267.795 483.454 267.795 484.014C267.795 484.947 268.19 485.6 268.783 486.067C269.376 486.534 270.266 486.72 271.451 486.72C272.044 486.72 272.736 486.627 273.23 486.534ZM270.266 482.24C270.957 481.867 271.946 481.587 273.131 481.494V485.6C273.02 485.653 272.909 485.676 272.781 485.702C272.681 485.723 272.57 485.746 272.44 485.787C272.143 485.88 271.847 485.88 271.55 485.88C270.858 485.88 270.266 485.787 269.87 485.414C269.475 485.134 269.277 484.667 269.277 484.014C269.277 483.174 269.574 482.614 270.266 482.24Z" fill="white"/>
<path d="M280.741 486.533C280.444 486.627 280.148 486.72 279.753 486.72C279.061 486.72 278.468 486.533 278.073 486.16C277.677 485.787 277.48 485.227 277.48 484.48V478.507H276.393V477.573H277.48V475.52L279.061 475.053V477.573H280.741V478.507H279.061V484.48C279.061 484.853 279.16 485.227 279.357 485.413C279.555 485.6 279.851 485.787 280.247 485.787C280.444 485.787 280.642 485.787 280.741 485.693V486.533Z" fill="white"/>
<path fill-rule="evenodd" clip-rule="evenodd" d="M284.299 475.52C284.497 475.333 284.596 475.147 284.596 474.96C284.596 474.773 284.497 474.493 284.299 474.4C284.101 474.213 283.904 474.12 283.607 474.12C283.311 474.12 283.113 474.213 282.916 474.4C282.718 474.587 282.619 474.773 282.619 474.96C282.619 475.147 282.718 475.333 282.916 475.52C283.113 475.707 283.311 475.8 283.607 475.8C283.904 475.8 284.101 475.707 284.299 475.52ZM282.817 477.48V486.533H284.398V477.48H282.817Z" fill="white"/>
<path d="M292.303 484.014C292.303 484.387 292.204 484.76 292.106 485.04C291.908 485.32 291.71 485.6 291.414 485.88C291.117 486.16 290.821 486.347 290.426 486.44C290.03 486.627 289.536 486.627 289.042 486.627C288.548 486.627 288.054 486.534 287.659 486.44C287.164 486.347 286.769 486.16 286.473 485.974L286.967 485.04C287.263 485.227 287.56 485.32 287.955 485.414C288.251 485.507 288.647 485.507 288.943 485.507C289.536 485.507 289.931 485.32 290.327 485.04C290.623 484.76 290.821 484.387 290.821 483.92C290.821 483.547 290.722 483.267 290.524 483.08C290.327 482.894 290.03 482.707 289.734 482.52C289.437 482.334 289.141 482.24 288.746 482.054C288.35 481.96 288.054 481.774 287.757 481.587C287.461 481.4 287.164 481.12 286.967 480.84C286.769 480.56 286.67 480.094 286.67 479.627C286.67 479.254 286.769 478.974 286.868 478.694C286.967 478.414 287.164 478.134 287.461 477.947C287.757 477.76 288.054 477.574 288.35 477.387C288.647 477.2 289.141 477.2 289.536 477.2C290.426 477.2 291.315 477.387 291.908 477.854L291.513 478.694C291.216 478.507 291.019 478.414 290.623 478.32C290.327 478.227 290.03 478.134 289.734 478.134C289.141 478.134 288.746 478.32 288.548 478.6C288.35 478.88 288.153 479.254 288.153 479.627C288.153 480 288.251 480.28 288.449 480.467C288.647 480.654 288.943 480.84 289.24 481.027C289.536 481.214 289.833 481.307 290.228 481.494C290.623 481.587 290.92 481.774 291.216 481.96C291.513 482.147 291.809 482.427 292.007 482.707C292.204 483.08 292.303 483.547 292.303 484.014Z" fill="white"/>
<path d="M296.453 478.414V486.534H294.872V478.414H293.785V477.48H294.872V476.174C294.872 475.334 295.07 474.587 295.564 474.12C296.058 473.56 296.75 473.374 297.738 473.374H297.837C297.837 473.374 297.936 473.374 298.035 473.374V474.307H297.936C297.738 474.307 297.54 474.307 297.343 474.4C297.145 474.494 296.948 474.587 296.849 474.68C296.75 474.867 296.552 475.054 296.552 475.24C296.453 475.52 296.453 475.8 296.453 476.174V477.48H298.133V478.414H296.453Z" fill="white"/>
<path fill-rule="evenodd" clip-rule="evenodd" d="M304.558 486.534C305.052 486.44 305.547 486.254 305.942 486.067V480.187C305.942 479.16 305.645 478.414 305.052 477.947C304.46 477.48 303.669 477.2 302.582 477.2C301.989 477.2 301.495 477.294 301.001 477.387C300.507 477.48 300.012 477.667 299.617 477.854L300.012 478.787C300.185 478.746 300.339 478.687 300.499 478.627C300.705 478.548 300.92 478.466 301.198 478.414C301.283 478.398 301.365 478.382 301.444 478.366C301.828 478.291 302.156 478.227 302.483 478.227C303.076 478.227 303.669 478.414 303.965 478.694C304.262 478.974 304.46 479.44 304.46 480.094V480.654C303.669 480.747 302.977 480.84 302.285 481.027L302.285 481.027C301.692 481.214 301.1 481.4 300.605 481.68C300.111 481.867 299.815 482.24 299.518 482.614C299.222 482.987 299.123 483.454 299.123 484.014C299.123 484.947 299.518 485.6 300.111 486.067C300.704 486.534 301.594 486.72 302.78 486.72C303.372 486.72 304.064 486.627 304.558 486.534ZM301.692 482.24C302.384 481.867 303.372 481.587 304.558 481.494V485.6C304.447 485.653 304.336 485.676 304.208 485.702C304.108 485.723 303.997 485.746 303.867 485.787C303.57 485.88 303.274 485.88 302.977 485.88C302.285 485.88 301.692 485.787 301.297 485.414C300.902 485.134 300.704 484.667 300.704 484.014C300.704 483.174 301.001 482.614 301.692 482.24Z" fill="white"/>
<path d="M314.045 486.16C313.749 486.347 313.452 486.533 313.156 486.627C312.761 486.72 312.365 486.813 311.97 486.813C311.377 486.813 310.883 486.72 310.389 486.44C309.895 486.253 309.5 485.88 309.203 485.507C308.907 485.133 308.61 484.573 308.511 484.013C308.412 483.453 308.215 482.8 308.215 482.147C308.215 481.493 308.314 480.84 308.511 480.28C308.709 479.72 308.907 479.253 309.203 478.787C309.5 478.413 309.895 478.04 310.389 477.853C310.883 477.667 311.377 477.48 311.97 477.48C312.464 477.48 312.86 477.573 313.156 477.667C313.551 477.76 313.848 477.947 314.045 478.133L313.65 478.973C313.452 478.88 313.255 478.693 312.958 478.6C312.662 478.507 312.464 478.507 312.168 478.507C311.772 478.507 311.476 478.6 311.18 478.787C310.883 478.973 310.587 479.253 310.389 479.533C310.191 479.813 309.994 480.28 309.895 480.653C309.796 481.12 309.697 481.587 309.697 482.053C309.697 482.52 309.796 483.08 309.895 483.453C309.994 483.92 310.191 484.293 310.389 484.573C310.587 484.947 310.883 485.133 311.18 485.32C311.476 485.507 311.772 485.6 312.168 485.6C312.464 485.6 312.761 485.6 312.958 485.507C313.156 485.413 313.452 485.32 313.65 485.227L314.045 486.16Z" fill="white"/>
<path d="M319.876 486.533C319.579 486.627 319.283 486.72 318.887 486.72C318.196 486.72 317.603 486.533 317.207 486.16C316.812 485.787 316.614 485.227 316.614 484.48V478.507H315.527V477.573H316.614V475.52L318.196 475.053V477.573H319.876V478.507H318.196V484.48C318.196 484.853 318.294 485.227 318.492 485.413C318.69 485.6 318.986 485.787 319.381 485.787C319.579 485.787 319.777 485.787 319.876 485.693V486.533Z" fill="white"/>
<path fill-rule="evenodd" clip-rule="evenodd" d="M323.334 475.52C323.532 475.333 323.631 475.147 323.631 474.96C323.631 474.773 323.532 474.493 323.334 474.4C323.137 474.213 322.939 474.12 322.643 474.12C322.346 474.12 322.148 474.213 321.951 474.4C321.753 474.587 321.654 474.773 321.654 474.96C321.654 475.147 321.753 475.333 321.951 475.52C322.148 475.707 322.346 475.8 322.643 475.8C322.939 475.8 323.137 475.707 323.334 475.52ZM321.852 477.48V486.533H323.433V477.48H321.852Z" fill="white"/>
<path fill-rule="evenodd" clip-rule="evenodd" d="M333.118 483.92C333.216 483.36 333.315 482.707 333.315 482.053C333.315 481.4 333.216 480.747 333.118 480.187C332.92 479.627 332.722 479.067 332.426 478.693C332.129 478.32 331.734 478.04 331.24 477.76C330.746 477.48 330.252 477.387 329.56 477.387C328.868 477.387 328.374 477.48 327.88 477.76C327.386 477.947 326.991 478.32 326.694 478.693C326.398 479.16 326.2 479.627 326.002 480.187C325.904 480.747 325.805 481.4 325.805 482.053C325.805 482.707 325.904 483.36 326.002 483.92C326.101 484.48 326.398 484.947 326.694 485.413C326.991 485.88 327.386 486.16 327.88 486.44C328.374 486.72 328.868 486.813 329.56 486.813C330.153 486.813 330.746 486.72 331.24 486.44C331.734 486.16 332.129 485.88 332.426 485.413C332.722 484.947 333.019 484.48 333.118 483.92ZM331.635 480.56C331.734 481.027 331.734 481.493 331.734 481.96C331.734 482.268 331.704 482.548 331.677 482.8C331.655 483.006 331.635 483.192 331.635 483.36C331.536 483.827 331.438 484.2 331.24 484.573C331.042 484.947 330.845 485.227 330.548 485.413C330.252 485.6 329.856 485.693 329.461 485.693C328.967 485.693 328.671 485.6 328.374 485.413C328.078 485.227 327.88 484.947 327.682 484.573C327.485 484.2 327.386 483.827 327.287 483.36C327.188 482.987 327.188 482.427 327.188 481.96C327.188 481.493 327.188 481.027 327.287 480.56C327.386 480.093 327.485 479.72 327.682 479.347C327.88 478.973 328.078 478.693 328.374 478.507C328.671 478.32 329.066 478.227 329.461 478.227C329.955 478.227 330.252 478.32 330.548 478.507C330.845 478.693 331.042 478.973 331.24 479.347C331.438 479.72 331.536 480.093 331.635 480.56Z" fill="white"/>
<path d="M340.826 486.533V480.28C340.826 479.627 340.628 479.067 340.332 478.787C340.035 478.413 339.442 478.32 338.652 478.32C338.059 478.32 337.466 478.413 336.972 478.6V486.533H335.391V477.947C335.885 477.76 336.379 477.573 336.873 477.48C337.466 477.387 338.059 477.293 338.652 477.293C339.937 477.293 340.925 477.573 341.518 478.04C342.111 478.507 342.407 479.253 342.407 480.28V486.533H340.826Z" fill="white"/>
<path d="M107.801 445.6V437.3H108.901V444.8H111.401V445.5H107.801V445.6Z" fill="#8196A9"/>
<path fill-rule="evenodd" clip-rule="evenodd" d="M117.199 443.6C117.299 443.2 117.399 442.8 117.399 442.3C117.399 441.9 117.299 441.4 117.199 441C117.099 440.6 116.899 440.2 116.699 439.9C116.499 439.6 116.199 439.4 115.899 439.2C115.599 439 115.199 438.9 114.799 438.9C114.399 438.9 113.999 439 113.699 439.2C113.399 439.4 113.099 439.6 112.899 439.9C112.699 440.2 112.499 440.6 112.399 441C112.199 441.4 112.199 441.8 112.199 442.3C112.199 442.7 112.299 443.2 112.399 443.6C112.499 444 112.699 444.4 112.899 444.7C113.099 445 113.399 445.2 113.699 445.4C113.999 445.6 114.399 445.7 114.799 445.7C115.199 445.7 115.599 445.6 115.899 445.4C116.199 445.2 116.499 445 116.699 444.7C116.899 444.4 117.099 444 117.199 443.6ZM116.199 441.3C116.299 441.6 116.299 441.9 116.299 442.3C116.299 442.7 116.299 443 116.199 443.3C116.099 443.7 115.999 444 115.899 444.2C115.864 444.253 115.832 444.303 115.801 444.35C115.661 444.568 115.564 444.718 115.399 444.8C115.199 444.9 114.999 445 114.699 445C114.399 445 114.199 444.9 113.999 444.8C113.799 444.6 113.599 444.4 113.499 444.2C113.366 444 113.321 443.8 113.277 443.6C113.255 443.5 113.233 443.4 113.199 443.3C113.099 443 113.099 442.6 113.099 442.3C113.099 442 113.099 441.6 113.199 441.3C113.299 441 113.399 440.7 113.499 440.5C113.535 440.447 113.567 440.397 113.597 440.35C113.738 440.132 113.835 439.982 113.999 439.9C114.199 439.8 114.399 439.7 114.699 439.7C114.999 439.7 115.199 439.8 115.399 439.9C115.599 440.1 115.799 440.3 115.899 440.5C116.037 440.638 116.08 440.824 116.126 441.024C116.147 441.114 116.168 441.207 116.199 441.3Z" fill="#8196A9"/>
<path d="M124.9 445.6H124L122.7 441C122.6 440.8 122.6 440.5 122.6 440.3C122.6 440.5 122.6 440.6 122.5 440.7C122.5 440.8 122.5 440.9 122.4 441L121.1 445.6H120.2L118.4 439.1H119.5L120.6 443.8C120.6 443.9 120.6 444 120.7 444.1C120.7 444.2 120.7 444.4 120.8 444.6C120.8 444.4 120.8 444.3 120.9 444.1C120.9 443.9 121 443.8 121 443.8L122.3 439.1H123.2L124.5 443.8C124.5 443.9 124.6 444.1 124.6 444.2C124.6 444.3 124.6 444.5 124.7 444.6C124.7 444.4 124.7 444.3 124.8 444.2C124.8 444.1 124.8 444 124.9 443.8L126.1 439.1H127.1L124.9 445.6Z" fill="#8196A9"/>
<path d="M89.7988 431.2V422.9H90.8961V430.4H93.3898V431.1H89.7988V431.2Z" fill="#8196A9"/>
<path fill-rule="evenodd" clip-rule="evenodd" d="M99.0754 429.2C99.1751 428.8 99.2749 428.4 99.2749 427.9C99.2749 427.5 99.2749 427 99.0754 426.6C98.9756 426.2 98.7761 425.8 98.5766 425.5C98.3771 425.2 98.0779 425 97.7786 424.8C97.4794 424.6 97.0804 424.5 96.6814 424.5C96.2824 424.5 95.8834 424.6 95.5841 424.8C95.2849 425 94.9856 425.2 94.7861 425.5C94.5866 425.8 94.3871 426.2 94.2874 426.6C94.0879 427 94.0879 427.4 94.0879 427.9C94.0879 428.3 94.1876 428.8 94.2874 429.2C94.3871 429.6 94.5866 430 94.7861 430.3C94.9856 430.6 95.2849 430.8 95.5841 431C95.8834 431.2 96.2824 431.3 96.6814 431.3C97.0804 431.3 97.4794 431.2 97.7786 431C98.0779 430.8 98.3771 430.6 98.5766 430.3C98.7761 430 98.9756 429.6 99.0754 429.2ZM98.2774 427.9V427.9C98.2774 428.114 98.2487 428.3 98.2222 428.472C98.1991 428.622 98.1776 428.761 98.1776 428.9C98.0779 429.3 97.9781 429.6 97.8784 429.8C97.8431 429.853 97.8108 429.903 97.7807 429.95C97.6404 430.168 97.5438 430.318 97.3796 430.4C97.1801 430.5 96.9806 430.6 96.6814 430.6C96.3821 430.6 96.1826 430.5 95.9831 430.4C95.7836 430.2 95.5841 430 95.4844 429.8C95.3514 429.6 95.3071 429.4 95.2627 429.2C95.2406 429.1 95.2184 429 95.1851 428.9C95.0854 428.6 95.0854 428.2 95.0854 427.9C95.0854 427.6 95.0854 427.2 95.1851 426.9C95.2849 426.6 95.3846 426.3 95.4844 426.1C95.5197 426.047 95.5519 425.997 95.5821 425.95C95.7224 425.732 95.819 425.582 95.9831 425.5C96.1826 425.4 96.3821 425.3 96.6814 425.3C96.9806 425.3 97.1801 425.4 97.3796 425.5C97.5791 425.7 97.7786 425.9 97.8784 426.1C98.0161 426.238 98.0588 426.424 98.1048 426.624C98.1254 426.714 98.1468 426.807 98.1776 426.9C98.2774 427.2 98.2774 427.5 98.2774 427.9Z" fill="#8196A9"/>
<path d="M106.755 431.2H105.857L104.561 426.6C104.461 426.4 104.461 426.1 104.461 425.9C104.461 426.1 104.461 426.2 104.361 426.3C104.361 426.4 104.361 426.5 104.261 426.6L102.965 431.2H102.067L100.271 424.7H101.369L102.466 429.4C102.466 429.5 102.466 429.6 102.566 429.7C102.566 429.8 102.566 430 102.665 430.2C102.665 430 102.665 429.9 102.765 429.7C102.765 429.5 102.865 429.4 102.865 429.4L104.162 424.7H105.059L106.356 429.4C106.356 429.5 106.456 429.7 106.456 429.8C106.456 429.9 106.456 430.1 106.556 430.2C106.556 430 106.556 429.9 106.655 429.8C106.655 429.7 106.655 429.6 106.755 429.4L107.952 424.7H108.95L106.755 431.2Z" fill="#8196A9"/>
<path d="M91.2 56.3V52.4H88.1V56.3H87V48H88.1V51.6H91.2V48H92.3V56.3H91.2Z" fill="#8196A9"/>
<path fill-rule="evenodd" clip-rule="evenodd" d="M95.1004 48.3999C95.2004 48.2999 95.3004 48.1999 95.3004 47.9999C95.3004 47.8999 95.3004 47.6999 95.1004 47.5999C95.0468 47.5731 95.0004 47.5463 94.9573 47.5214C94.8396 47.4535 94.7468 47.3999 94.6004 47.3999C94.4004 47.3999 94.2004 47.4999 94.1004 47.5999C94.0004 47.6999 93.9004 47.8999 93.9004 47.9999C93.9004 48.0999 93.9004 48.2999 94.1004 48.3999C94.154 48.4267 94.2004 48.4535 94.2435 48.4784C94.3612 48.5463 94.454 48.5999 94.6004 48.5999C94.8004 48.5999 95.0004 48.4999 95.1004 48.3999ZM94.2004 49.7999V56.2999H95.3004V49.7999H94.2004Z" fill="#8196A9"/>
<path fill-rule="evenodd" clip-rule="evenodd" d="M101 58.3C101.4 57.9 101.6 57.2 101.6 56.4H101.8V50.4C101.6 50.3 101.4 50.2 101 50.1C100.6 50 100.3 50 99.9004 50C99.4004 50 98.9004 50 98.6004 50.2C98.5353 50.2434 98.4655 50.2868 98.394 50.3312C98.1362 50.4915 97.857 50.6651 97.7004 50.9C97.4004 51.2 97.2004 51.6 97.1004 52C97.0004 52.4 96.9004 52.9 96.9004 53.4C96.9004 53.9 97.0004 54.3 97.1004 54.7C97.2004 55.1 97.4004 55.5 97.6004 55.7L97.6004 55.7C97.8004 55.9 98.1004 56.2 98.4004 56.3C98.469 56.3172 98.5347 56.3343 98.5985 56.351C98.9063 56.4314 99.169 56.5 99.5004 56.5C99.7004 56.5 100 56.5 100.2 56.4C100.4 56.4 100.6 56.3 100.7 56.2V56.6C100.7 57.1 100.6 57.5 100.3 57.8C100 58.1 99.6004 58.3 99.0004 58.3C98.7004 58.3 98.5004 58.3 98.2004 58.2C97.9004 58.1 97.7004 58 97.5004 57.9L97.2004 58.6C97.4004 58.7 97.7004 58.8 98.1004 58.9C98.4004 59 98.8004 59 99.2004 59C100 59 100.6 58.8 101 58.3ZM100.2 50.5C100.3 50.5 100.5 50.5 100.6 50.6V55.7C100.539 55.7618 100.477 55.7854 100.391 55.818C100.339 55.8382 100.277 55.8618 100.2 55.9C100 56 99.8004 56 99.6004 56C99.0004 56 98.6004 55.7 98.3004 55.3C98.0004 54.9 97.9004 54.2 97.9004 53.4C97.9004 52.9 97.9004 52.5 98.0004 52.2C98.0004 51.8619 98.1433 51.5952 98.2479 51.4C98.2671 51.3643 98.2849 51.3309 98.3004 51.3C98.5004 51 98.7004 50.8 98.9004 50.7C99.1004 50.6 99.4004 50.5 99.7004 50.5H100.2Z" fill="#8196A9"/>
<path d="M107.001 56.2999V51.6999C107.001 51.4999 107.001 51.3999 106.901 51.1999C106.901 50.9999 106.801 50.8999 106.701 50.7999C106.601 50.6999 106.501 50.5999 106.301 50.4999C106.101 50.3999 105.901 50.3999 105.701 50.3999C105.501 50.3999 105.201 50.3999 105.001 50.4999C104.801 50.5999 104.601 50.5999 104.401 50.7999V56.2999H103.301V46.8999H104.401V50.1999C104.601 50.0999 104.801 49.9999 105.101 49.8999C105.401 49.7999 105.601 49.7999 105.901 49.7999C106.301 49.7999 106.701 49.8999 106.901 49.9999C107.201 50.0999 107.401 50.2999 107.601 50.3999C107.801 50.5999 107.901 50.7999 108.001 50.9999C108.101 51.1999 108.101 51.4999 108.101 51.6999V56.2999H107.001Z" fill="#8196A9"/>
<path d="M488.399 445.6V441.7H485.299V445.6H484.199V437.3H485.299V440.9H488.399V437.3H489.499V445.6H488.399Z" fill="#8196A9"/>
<path fill-rule="evenodd" clip-rule="evenodd" d="M492.3 437.7C492.4 437.6 492.5 437.5 492.5 437.3C492.5 437.1 492.5 437 492.3 436.9C492.246 436.873 492.2 436.847 492.157 436.822C492.039 436.754 491.946 436.7 491.8 436.7C491.6 436.7 491.4 436.8 491.3 436.9C491.2 437 491.1 437.2 491.1 437.3C491.1 437.4 491.2 437.6 491.3 437.7C491.353 437.727 491.4 437.754 491.443 437.779C491.56 437.847 491.653 437.9 491.8 437.9C492 437.9 492.2 437.8 492.3 437.7ZM491.4 439.1V445.6H492.5V439.1H491.4Z" fill="#8196A9"/>
<path fill-rule="evenodd" clip-rule="evenodd" d="M498.2 447.6C498.6 447.2 498.8 446.5 498.8 445.7H499V439.7C498.8 439.6 498.6 439.5 498.2 439.4C497.8 439.3 497.5 439.3 497.1 439.3C496.6 439.3 496.1 439.3 495.8 439.5C495.735 439.543 495.665 439.587 495.593 439.631C495.335 439.791 495.056 439.965 494.9 440.2C494.6 440.5 494.4 440.9 494.3 441.3C494.2 441.7 494.1 442.2 494.1 442.7C494.1 443.2 494.2 443.6 494.3 444C494.4 444.4 494.6 444.7 494.8 445L494.8 445C495 445.2 495.3 445.5 495.6 445.6C495.668 445.617 495.734 445.634 495.798 445.651C496.105 445.731 496.368 445.8 496.7 445.8C496.8 445.8 496.925 445.775 497.05 445.75C497.175 445.725 497.3 445.7 497.4 445.7C497.6 445.7 497.8 445.6 497.9 445.5V445.9C497.9 446.4 497.8 446.8 497.5 447.1C497.2 447.4 496.8 447.6 496.2 447.6C495.9 447.6 495.7 447.6 495.4 447.5C495.1 447.4 494.9 447.3 494.7 447.2L494.4 447.9C494.6 448 494.9 448.1 495.3 448.2C495.6 448.3 496 448.3 496.4 448.3C497.2 448.3 497.8 448.1 498.2 447.6ZM497.4 439.7C497.5 439.7 497.7 439.7 497.8 439.8V444.9C497.738 444.962 497.676 444.985 497.591 445.018C497.538 445.038 497.476 445.062 497.4 445.1C497.2 445.2 497 445.2 496.8 445.2C496.2 445.2 495.8 444.9 495.5 444.5C495.2 444.1 495.1 443.4 495.1 442.6C495.1 442.1 495.1 441.7 495.2 441.4C495.2 441.062 495.343 440.795 495.447 440.6C495.466 440.564 495.484 440.531 495.5 440.5C495.7 440.2 495.9 440 496.1 439.9C496.3 439.8 496.6 439.7 496.9 439.7H497.4Z" fill="#8196A9"/>
<path d="M504.2 445.6V441C504.2 440.8 504.2 440.7 504.1 440.5C504.1 440.3 504 440.2 503.9 440.1C503.8 440 503.7 439.9 503.5 439.8C503.3 439.7 503.1 439.7 502.9 439.7C502.7 439.7 502.4 439.7 502.2 439.8C502 439.9 501.8 439.9 501.6 440.1V445.6H500.5V436.2H501.6V439.5C501.8 439.4 502 439.3 502.3 439.2C502.6 439.1 502.8 439.1 503.1 439.1C503.5 439.1 503.9 439.2 504.1 439.3C504.4 439.4 504.6 439.6 504.8 439.7C505 439.9 505.1 440.1 505.2 440.3C505.3 440.5 505.3 440.8 505.3 441V445.6H504.2Z" fill="#8196A9"/>
<path d="M220 246C280.199 246 329 197.199 329 137C329 76.801 280.199 28 220 28C159.801 28 111 76.801 111 137C111 197.199 159.801 246 220 246Z" fill="#B81F30"/>
<path d="M170.851 124.92C170.851 125.505 170.752 125.992 170.556 126.48C170.359 126.967 170.064 127.358 169.671 127.65C169.277 127.942 168.884 128.235 168.294 128.43C167.802 128.625 167.212 128.722 166.524 128.722C165.934 128.722 165.344 128.625 164.754 128.43C164.262 128.235 163.771 128.04 163.377 127.65C162.984 127.358 162.689 126.967 162.492 126.48C162.296 125.992 162.197 125.505 162.197 124.92V116.438H165.049V125.017C165.049 125.505 165.246 125.895 165.541 126.188C165.836 126.48 166.229 126.578 166.622 126.578C167.016 126.578 167.409 126.48 167.704 126.188C167.999 125.895 168.196 125.505 168.196 125.017V116.438H170.851V124.92Z" fill="white"/>
<path d="M178.52 128.43V121.995C178.52 121.507 178.421 121.117 178.126 120.825C177.93 120.532 177.536 120.435 176.946 120.435C176.75 120.435 176.553 120.435 176.356 120.532C176.16 120.532 175.963 120.63 175.865 120.63V128.43H173.111V119.46C174.193 118.972 175.471 118.777 176.946 118.777C178.421 118.777 179.503 119.07 180.191 119.655C180.88 120.24 181.175 121.02 181.175 121.995V128.43H178.52Z" fill="white"/>
<path d="M193.959 128.43V121.995C193.959 121.507 193.861 121.117 193.664 120.922C193.467 120.63 193.074 120.532 192.583 120.532C192.091 120.532 191.698 120.727 191.403 121.02V128.43H188.649V121.897C188.649 121.507 188.551 121.117 188.256 120.922C187.961 120.727 187.666 120.532 187.174 120.532C186.977 120.532 186.683 120.532 186.584 120.532C186.388 120.532 186.191 120.63 186.092 120.727V128.527H183.438V119.557C184.027 119.362 184.519 119.167 185.109 119.07C185.699 118.972 186.388 118.875 187.076 118.875C187.764 118.875 188.354 118.972 188.846 119.07C189.338 119.167 189.731 119.46 190.026 119.752C190.419 119.46 190.812 119.265 191.304 119.07C191.796 118.875 192.386 118.777 192.976 118.777C193.664 118.777 194.156 118.875 194.648 118.972C195.139 119.07 195.533 119.362 195.828 119.655C196.123 119.947 196.319 120.24 196.516 120.63C196.614 121.02 196.712 121.41 196.712 121.897V128.332H193.959V128.43Z" fill="white"/>
<path fill-rule="evenodd" clip-rule="evenodd" d="M206.939 123.653V123.458C206.939 121.995 206.546 120.825 205.956 119.948C205.267 119.07 204.284 118.68 202.907 118.68C202.219 118.68 201.629 118.875 201.039 119.07C200.449 119.265 200.056 119.558 199.662 120.045C199.269 120.533 198.974 121.02 198.777 121.605C198.581 122.288 198.482 122.873 198.482 123.653C198.482 124.335 198.581 125.018 198.777 125.603C198.974 126.188 199.269 126.675 199.662 127.163C200.056 127.65 200.547 127.943 201.137 128.235C201.727 128.528 202.416 128.625 203.202 128.625C203.792 128.625 204.481 128.528 205.071 128.43C205.661 128.333 206.152 128.138 206.644 127.943L206.644 127.943L206.054 126.188C205.759 126.383 205.366 126.48 204.972 126.578C204.579 126.675 204.087 126.773 203.694 126.773C203.006 126.773 202.416 126.578 202.022 126.188C201.629 125.798 201.334 125.31 201.236 124.628L206.939 123.848V123.653ZM203.891 121.02C204.186 121.41 204.284 121.995 204.284 122.775L200.941 123.458V123.165C200.941 122.385 201.137 121.703 201.432 121.215C201.727 120.728 202.121 120.435 202.711 120.435C203.202 120.435 203.596 120.63 203.891 121.02Z" fill="white"/>
<path d="M213.331 128.332C213.134 128.43 212.937 128.43 212.741 128.527C212.544 128.625 212.249 128.625 211.954 128.625C211.069 128.625 210.282 128.43 209.791 127.942C209.299 127.455 209.102 126.772 209.102 125.895V120.825H208.119V119.07H209.102V117.022L211.856 116.34V119.07H213.331V120.825H211.856V125.895C211.856 126.187 211.954 126.48 212.052 126.577C212.249 126.772 212.446 126.87 212.741 126.87C212.937 126.87 213.134 126.87 213.331 126.772V128.332Z" fill="white"/>
<path d="M225.129 128.43V121.995C225.129 121.507 225.031 121.117 224.736 120.825C224.539 120.532 224.146 120.435 223.556 120.435C223.359 120.435 223.162 120.435 222.966 120.532C222.769 120.532 222.572 120.63 222.474 120.63V128.43H219.721V119.46C220.802 118.972 222.081 118.777 223.556 118.777C225.031 118.777 226.112 119.07 226.801 119.655C227.489 120.24 227.784 121.02 227.784 121.995V128.43H225.129Z" fill="white"/>
<path fill-rule="evenodd" clip-rule="evenodd" d="M238.111 123.653V123.458C238.111 121.995 237.718 120.825 237.128 119.948C236.439 119.07 235.456 118.68 234.079 118.68C233.391 118.68 232.801 118.875 232.211 119.07C231.621 119.265 231.228 119.558 230.834 120.045C230.441 120.533 230.146 121.02 229.949 121.605C229.753 122.288 229.654 122.873 229.654 123.653C229.654 124.335 229.753 125.018 229.949 125.603C230.146 126.188 230.441 126.675 230.834 127.163C231.228 127.65 231.719 127.943 232.309 128.235C232.899 128.528 233.588 128.625 234.374 128.625C234.964 128.625 235.653 128.528 236.243 128.43C236.833 128.333 237.324 128.138 237.816 127.943L237.816 127.943L237.226 126.188C236.931 126.383 236.538 126.48 236.144 126.578C235.751 126.675 235.259 126.773 234.866 126.773C234.178 126.773 233.588 126.578 233.194 126.188C232.801 125.798 232.506 125.31 232.408 124.628L238.111 123.848V123.653ZM235.063 121.02C235.358 121.41 235.456 121.995 235.456 122.775L232.113 123.458V123.165C232.113 122.385 232.309 121.703 232.604 121.215C232.899 120.728 233.293 120.435 233.883 120.435C234.374 120.435 234.768 120.63 235.063 121.02Z" fill="white"/>
<path fill-rule="evenodd" clip-rule="evenodd" d="M247.943 123.653V123.458C247.943 121.995 247.648 120.825 246.96 119.948C246.271 119.07 245.288 118.68 243.911 118.68C243.223 118.68 242.633 118.875 242.043 119.07C241.453 119.265 241.06 119.558 240.666 120.045C240.273 120.533 239.978 121.02 239.781 121.605C239.585 122.288 239.486 122.873 239.486 123.653C239.486 124.335 239.585 125.018 239.781 125.603C239.978 126.188 240.273 126.675 240.666 127.163C241.06 127.65 241.551 127.943 242.141 128.235C242.731 128.528 243.42 128.625 244.206 128.625C244.796 128.625 245.485 128.528 246.075 128.43C246.665 128.333 247.156 128.138 247.648 127.943L247.648 127.943L247.058 126.188C246.763 126.383 246.37 126.48 245.976 126.578C245.583 126.675 245.091 126.773 244.698 126.773C244.01 126.773 243.42 126.578 243.026 126.188C242.633 125.798 242.338 125.31 242.24 124.628L247.943 123.848V123.653ZM244.993 121.02C245.288 121.41 245.386 121.995 245.386 122.775L242.043 123.458V123.165C242.043 122.385 242.24 121.703 242.535 121.215C242.83 120.728 243.223 120.435 243.813 120.435C244.305 120.435 244.698 120.63 244.993 121.02Z" fill="white"/>
<path fill-rule="evenodd" clip-rule="evenodd" d="M256.204 128.43C256.794 128.332 257.384 128.137 257.778 127.942H257.876V114.585H255.123V118.972C254.729 118.875 254.238 118.777 253.844 118.777C253.254 118.777 252.566 118.875 252.074 119.167C251.484 119.46 251.091 119.85 250.698 120.24C250.304 120.63 250.009 121.215 249.813 121.8C249.616 122.385 249.518 123.067 249.518 123.75C249.518 125.31 249.911 126.577 250.698 127.357C251.583 128.235 252.664 128.625 254.139 128.625C254.828 128.625 255.614 128.527 256.204 128.43ZM254.238 120.435C254.533 120.435 254.729 120.435 255.024 120.532V126.87C254.975 126.87 254.901 126.894 254.828 126.919C254.754 126.943 254.68 126.967 254.631 126.967H254.139C253.353 126.967 252.861 126.675 252.566 126.09C252.271 125.505 252.074 124.725 252.074 123.652C252.074 123.165 252.074 122.677 252.173 122.287C252.271 121.897 252.369 121.605 252.566 121.312C252.763 121.02 252.959 120.825 253.254 120.63C253.549 120.532 253.844 120.435 254.238 120.435Z" fill="white"/>
<path d="M266.037 125.602C266.037 126.09 265.939 126.48 265.742 126.87C265.545 127.26 265.349 127.553 264.955 127.845C264.66 128.137 264.267 128.333 263.775 128.528C263.284 128.722 262.792 128.722 262.202 128.722C261.612 128.722 261.12 128.625 260.53 128.528C260.039 128.43 259.547 128.235 259.252 128.04L259.94 126.383C260.235 126.578 260.53 126.675 260.924 126.773C261.219 126.87 261.514 126.87 261.809 126.87C262.202 126.87 262.497 126.773 262.792 126.577C262.989 126.382 263.185 126.09 263.185 125.798C263.185 125.505 263.087 125.31 262.89 125.115C262.694 124.92 262.497 124.823 262.202 124.628C261.907 124.53 261.612 124.335 261.317 124.238C261.022 124.14 260.727 123.945 260.432 123.75C260.137 123.555 259.94 123.262 259.744 122.97C259.547 122.677 259.449 122.288 259.449 121.703C259.449 121.215 259.547 120.825 259.744 120.533C259.94 120.143 260.137 119.85 260.432 119.655C260.727 119.362 261.12 119.167 261.514 119.07C261.907 118.972 262.399 118.875 262.792 118.875C263.382 118.875 263.972 118.972 264.365 119.07C264.857 119.167 265.25 119.363 265.644 119.558L264.955 121.02C264.365 120.727 263.874 120.533 263.284 120.533C262.89 120.533 262.595 120.63 262.399 120.825C262.202 121.02 262.104 121.215 262.104 121.507C262.104 121.8 262.202 121.995 262.399 122.19C262.595 122.385 262.792 122.483 263.087 122.678C263.382 122.775 263.677 122.97 263.972 123.068C264.267 123.165 264.562 123.36 264.857 123.555C265.152 123.75 265.349 124.043 265.545 124.335C265.939 124.628 266.037 125.115 266.037 125.602Z" fill="white"/>
<path fill-rule="evenodd" clip-rule="evenodd" d="M272.33 119.947V121.8H279.803V119.947H272.33ZM272.33 123.652V125.505H279.803V123.652H272.33Z" fill="white"/>
<path fill-rule="evenodd" clip-rule="evenodd" d="M183.437 145.395C183.634 144.615 183.732 143.737 183.732 142.86C183.732 141.982 183.634 141.202 183.437 140.422C183.241 139.642 182.946 138.96 182.552 138.472C182.159 137.985 181.667 137.497 181.077 137.205C180.389 136.912 179.799 136.717 178.914 136.717C178.029 136.717 177.341 136.912 176.751 137.205C176.161 137.497 175.669 137.985 175.276 138.472C174.882 138.96 174.587 139.642 174.391 140.422C174.194 141.105 174.096 141.982 174.096 142.86C174.096 143.835 174.194 144.615 174.391 145.395C174.587 146.175 174.882 146.857 175.276 147.345C175.669 147.832 176.161 148.32 176.751 148.612C177.439 148.905 178.029 149.1 178.914 149.1C179.799 149.1 180.487 148.905 181.077 148.612C181.667 148.32 182.159 147.832 182.552 147.345C182.946 146.857 183.241 146.175 183.437 145.395ZM180.782 141.202C180.881 141.69 180.881 142.275 180.881 142.86C180.881 143.166 180.854 143.471 180.828 143.763C180.805 144.03 180.782 144.285 180.782 144.517C180.684 145.102 180.586 145.492 180.487 145.882C180.291 146.272 180.094 146.565 179.897 146.76C179.701 146.955 179.307 147.052 179.012 147.052C178.717 147.052 178.324 146.955 178.127 146.76C177.832 146.565 177.636 146.272 177.537 145.882C177.439 145.492 177.341 145.005 177.242 144.517C177.144 144.03 177.144 143.445 177.144 142.86C177.144 142.275 177.144 141.69 177.242 141.202C177.341 140.715 177.439 140.227 177.537 139.837C177.734 139.447 177.931 139.155 178.127 138.96C178.324 138.765 178.717 138.667 179.012 138.667C179.307 138.667 179.701 138.765 179.897 138.96C180.192 139.155 180.389 139.447 180.487 139.837C180.586 140.227 180.684 140.715 180.782 141.202Z" fill="white"/>
<path fill-rule="evenodd" clip-rule="evenodd" d="M193.565 146.175C193.761 145.59 193.86 144.908 193.86 144.128C193.86 142.568 193.466 141.3 192.581 140.618C191.795 139.74 190.615 139.35 189.14 139.35C188.55 139.35 187.861 139.448 187.271 139.545C186.681 139.643 186.091 139.838 185.6 140.033V152.805H188.255V149.003C188.291 149.003 188.34 149.016 188.402 149.032C188.51 149.061 188.658 149.1 188.845 149.1H189.631C190.221 149.1 190.811 148.905 191.303 148.71C191.893 148.515 192.286 148.125 192.68 147.735C193.073 147.345 193.368 146.76 193.565 146.175ZM190.713 141.69C191.008 142.275 191.205 143.055 191.205 144.128C191.205 145.2 190.91 145.785 190.615 146.37C190.32 146.955 189.828 147.248 189.041 147.248H188.648C188.55 147.15 188.451 147.15 188.353 147.15V140.91C188.55 140.813 188.845 140.813 189.14 140.813C189.926 140.813 190.418 141.105 190.713 141.69Z" fill="white"/>
<path fill-rule="evenodd" clip-rule="evenodd" d="M203.694 146.175C203.891 145.59 203.989 144.908 203.989 144.128C203.989 142.568 203.596 141.3 202.613 140.618C201.826 139.74 200.646 139.35 199.171 139.35C198.581 139.35 197.893 139.448 197.303 139.545C196.713 139.643 196.123 139.838 195.631 140.033V152.805H198.384V149.003C198.42 149.003 198.469 149.016 198.532 149.032C198.64 149.061 198.787 149.1 198.974 149.1H199.761C200.351 149.1 200.941 148.905 201.433 148.71C202.023 148.515 202.416 148.125 202.809 147.735C203.203 147.345 203.498 146.76 203.694 146.175ZM200.744 141.69C201.039 142.275 201.236 143.055 201.236 144.128C201.236 145.2 200.941 145.785 200.646 146.37C200.351 146.955 199.859 147.248 199.073 147.248H198.679C198.581 147.15 198.483 147.15 198.384 147.15V140.91C198.581 140.813 198.876 140.813 199.171 140.813C199.958 140.813 200.449 141.105 200.744 141.69Z" fill="white"/>
<path fill-rule="evenodd" clip-rule="evenodd" d="M213.724 146.175C213.92 145.59 214.019 144.908 214.019 144.225C214.019 143.445 213.92 142.86 213.724 142.275C213.527 141.69 213.33 141.105 212.937 140.715C212.544 140.325 212.052 140.033 211.56 139.74C211.069 139.448 210.38 139.35 209.692 139.35C209.004 139.35 208.315 139.448 207.824 139.74C207.234 139.935 206.742 140.228 206.447 140.715L206.447 140.715C206.152 141.203 205.857 141.69 205.66 142.275C205.464 142.86 205.365 143.543 205.365 144.225C205.365 144.908 205.464 145.59 205.66 146.175C205.857 146.76 206.054 147.248 206.447 147.735C206.84 148.223 207.332 148.515 207.824 148.808C208.315 149.1 209.004 149.198 209.692 149.198C210.38 149.198 210.97 149.1 211.56 148.808C212.15 148.515 212.544 148.125 212.937 147.735C213.232 147.345 213.527 146.76 213.724 146.175ZM211.167 142.86C211.265 143.25 211.265 143.64 211.265 144.128C211.265 144.615 211.265 145.005 211.167 145.395C211.069 145.785 210.97 146.078 210.872 146.37C210.774 146.663 210.577 146.858 210.38 147.053C210.184 147.248 209.987 147.345 209.692 147.345C209.397 147.345 209.2 147.248 209.004 147.053C208.905 146.955 208.831 146.833 208.758 146.711C208.684 146.589 208.61 146.468 208.512 146.37C208.374 146.233 208.333 146.001 208.287 145.739C208.267 145.628 208.246 145.511 208.217 145.395C208.119 145.005 208.119 144.615 208.119 144.128C208.119 143.64 208.119 143.25 208.217 142.86C208.315 142.47 208.414 142.178 208.512 141.885L208.512 141.885C208.61 141.593 208.807 141.398 209.004 141.203C209.2 141.105 209.495 141.008 209.692 141.008C209.889 141.008 210.184 141.008 210.38 141.203L210.38 141.203C210.577 141.398 210.774 141.593 210.872 141.885C211.012 142.093 211.052 142.302 211.099 142.545C211.118 142.644 211.139 142.748 211.167 142.86Z" fill="white"/>
<path d="M220.312 141.202C220.116 141.105 220.017 141.105 219.821 141.007C219.624 141.007 219.427 140.91 219.329 140.91C218.936 140.91 218.641 140.91 218.542 141.007V148.807H215.789V139.837C216.281 139.642 216.772 139.447 217.461 139.35C218.149 139.252 218.837 139.155 219.722 139.155C219.919 139.155 220.116 139.155 220.411 139.155C220.607 139.155 220.804 139.155 221.001 139.252L220.312 141.202Z" fill="white"/>
<path d="M227.096 148.807C226.9 148.905 226.703 148.905 226.506 149.002C226.31 149.1 226.015 149.1 225.72 149.1C224.835 149.1 224.048 148.905 223.556 148.417C223.065 147.93 222.868 147.247 222.868 146.37V141.3H221.885V139.545H222.868V137.497L225.621 136.815V139.545H227.096V141.3H225.621V146.37C225.621 146.662 225.72 146.955 225.818 147.052C226.015 147.247 226.211 147.345 226.506 147.345C226.703 147.345 226.9 147.345 227.096 147.247V148.807Z" fill="white"/>
<path d="M236.832 148.418C236.34 148.613 235.848 148.808 235.062 148.905C234.373 149.003 233.587 149.1 232.898 149.1C231.522 149.1 230.44 148.808 229.752 148.32C229.063 147.833 228.67 146.955 228.67 145.785V139.448H231.423V145.883C231.423 146.76 231.915 147.248 232.8 147.248C232.997 147.248 233.193 147.248 233.39 147.15C233.587 147.053 233.783 147.053 233.882 146.955V139.35H236.635V148.418H236.832Z" fill="white"/>
<path d="M244.305 148.905V142.47C244.305 141.982 244.206 141.592 243.911 141.3C243.715 141.007 243.321 140.91 242.731 140.91C242.535 140.91 242.338 140.91 242.141 141.007C241.945 141.007 241.748 141.105 241.65 141.105V148.905H238.896V139.935C239.978 139.447 241.256 139.252 242.731 139.252C244.206 139.252 245.288 139.545 245.976 140.13C246.665 140.715 246.96 141.495 246.96 142.47V148.905H244.305Z" fill="white"/>
<path fill-rule="evenodd" clip-rule="evenodd" d="M251.68 137.595C251.975 137.4 252.073 137.108 252.073 136.718C252.073 136.425 251.975 136.133 251.68 135.84C251.385 135.548 251.09 135.45 250.598 135.45C250.106 135.45 249.811 135.645 249.516 135.84C249.221 136.035 249.123 136.328 249.123 136.718C249.123 137.01 249.221 137.303 249.516 137.595C249.811 137.888 250.106 137.985 250.598 137.985C251.09 137.985 251.385 137.888 251.68 137.595ZM249.221 139.448V148.905H251.975V139.448H249.221Z" fill="white"/>
<path d="M258.858 148.807C258.661 148.905 258.465 148.905 258.268 149.002C258.071 149.1 257.776 149.1 257.481 149.1C256.596 149.1 255.81 148.905 255.318 148.417C254.826 147.93 254.63 147.247 254.63 146.37V141.3H253.646V139.545H254.63V137.497L257.383 136.815V139.545H258.858V141.3H257.383V146.37C257.383 146.662 257.481 146.955 257.58 147.052C257.776 147.247 257.973 147.345 258.268 147.345C258.465 147.345 258.661 147.345 258.858 147.247V148.807Z" fill="white"/>
<path d="M264.365 152.707H261.513L263.087 148.905L259.842 139.447H262.792L264.07 145.102C264.168 145.395 264.168 145.687 264.267 145.98C264.267 146.272 264.365 146.467 264.365 146.565C264.365 146.37 264.463 146.175 264.463 145.98C264.463 145.785 264.562 145.395 264.66 145.102L266.135 139.447H268.79L264.365 152.707Z" fill="white"/>
</svg>
