<?xml version="1.0" encoding="utf-8"?>
<!-- Generator: Adobe Illustrator 23.0.6, SVG Export Plug-In . SVG Version: 6.00 Build 0)  -->
<svg version="1.1" id="Ebene_1" xmlns="http://www.w3.org/2000/svg" xmlns:xlink="http://www.w3.org/1999/xlink" x="0px" y="0px"
	 viewBox="0 0 783.3 964.1" style="enable-background:new 0 0 783.3 964.1;" xml:space="preserve">
<style type="text/css">
	.st0{fill:#061B2B;}
	.st1{fill:none;stroke:#F90BD8;stroke-width:0.8597;stroke-miterlimit:10;}
	.st2{fill:none;stroke:#FCCD07;stroke-width:4.1546;stroke-miterlimit:10;}
	.st3{fill:#061B2B;stroke:#FCCD07;stroke-width:1.9219;stroke-miterlimit:10;}
	.st4{fill:none;stroke:#FCCD07;stroke-width:4.4306;stroke-miterlimit:10;}
	.st5{fill:#061B2B;stroke:#FCCD07;stroke-miterlimit:10;}
	.st6{opacity:0.5;fill:#4A5866;}
	.st7{fill:#FCCD07;}
	.st8{fill:none;stroke:#FFFFFF;stroke-miterlimit:10;}
	.st9{fill:none;stroke:#FFFFFF;stroke-width:0.5601;stroke-miterlimit:10;}
	.st10{fill:#F3CD25;}
	.st11{fill:#061B2B;stroke:#FCCD07;stroke-width:0.8597;stroke-miterlimit:10;}
	.st12{fill:none;stroke:#FCCD07;stroke-width:0.8597;stroke-miterlimit:10;}
	.st13{fill:#B81F30;}
	.st14{fill:#FFFFFF;}
	.st15{fill:none;stroke:#B81F30;stroke-width:4.4306;stroke-miterlimit:10;}
	.st16{fill:none;stroke:#FCCD07;stroke-miterlimit:10;}
</style>
<g>
	<g>
		<rect class="st0" width="783.3" height="964.1"/>
	</g>
</g>
<g>
	<g>
		<path class="st13" d="M541.8,772.6l-279.3-0.1L402.1,610L541.8,772.6z M272.2,768.1l260,0.1l-130-151.3L272.2,768.1z"/>
	</g>
</g>
<g>
	<g>
		<path class="st13" d="M541.8,515.3l-279.3-0.1l139.6-162.5L541.8,515.3z M272.2,510.8l260,0.1l-130-151.3L272.2,510.8z"/>
	</g>
</g>
<g>
	<g>
		<circle class="st0" cx="402.7" cy="286.4" r="107.8"/>
	</g>
	<g>
		<path class="st7" d="M402.7,394.7c-59.7,0-108.3-48.6-108.3-108.3c0-59.7,48.6-108.3,108.3-108.3c59.7,0,108.3,48.6,108.3,108.3
			C511,346.1,462.4,394.7,402.7,394.7z M402.7,179.1c-59.2,0-107.3,48.1-107.3,107.3s48.1,107.3,107.3,107.3S510,345.6,510,286.4
			S461.9,179.1,402.7,179.1z"/>
	</g>
</g>
<g>
	<g>
		<circle class="st0" cx="402.7" cy="543.8" r="107.8"/>
	</g>
	<g>
		<path class="st7" d="M402.7,652.1c-59.7,0-108.3-48.6-108.3-108.3c0-59.7,48.6-108.3,108.3-108.3c59.7,0,108.3,48.6,108.3,108.3
			C511,603.5,462.4,652.1,402.7,652.1z M402.7,436.5c-59.2,0-107.3,48.1-107.3,107.3s48.1,107.3,107.3,107.3S510,602.9,510,543.8
			S461.9,436.5,402.7,436.5z"/>
	</g>
</g>
<g>
	<g>
		<path class="st7" d="M264.3,620.3c-12.9-23.3-19.7-49.7-19.7-76.5c0-26.8,6.8-53.3,19.7-76.6l0.9,0.5
			c-12.8,23.1-19.6,49.5-19.6,76.1c0,26.6,6.8,52.9,19.6,76L264.3,620.3z"/>
	</g>
</g>
<g>
	<g>
		<circle class="st0" cx="402.7" cy="801.2" r="107.8"/>
	</g>
	<g>
		<path class="st7" d="M402.7,909.5c-59.7,0-108.3-48.6-108.3-108.3c0-59.7,48.6-108.3,108.3-108.3c59.7,0,108.3,48.6,108.3,108.3
			C511,860.9,462.4,909.5,402.7,909.5z M402.7,693.9c-59.2,0-107.3,48.1-107.3,107.3s48.1,107.3,107.3,107.3S510,860.3,510,801.2
			S461.9,693.9,402.7,693.9z"/>
	</g>
</g>
<g>
	<g>
		<circle class="st7" cx="402.7" cy="286.4" r="99.8"/>
	</g>
</g>
<g>
	<g>
		<path class="st0" d="M373.6,275.3c0,0.7-0.1,1.3-0.4,1.8c-0.2,0.6-0.6,1.1-1.1,1.5c-0.5,0.4-1,0.7-1.7,1c-0.6,0.2-1.4,0.4-2.2,0.4
			c-0.8,0-1.6-0.1-2.3-0.2s-1.3-0.4-1.9-0.7l0.9-2.4c0.4,0.2,0.9,0.4,1.4,0.5c0.5,0.1,1,0.2,1.4,0.2c0.7,0,1.2-0.2,1.6-0.5
			c0.4-0.3,0.6-0.7,0.6-1.2c0-0.5-0.1-0.8-0.4-1.1c-0.3-0.3-0.6-0.6-1-0.8s-0.9-0.5-1.4-0.7c-0.5-0.2-0.9-0.5-1.4-0.9
			s-0.8-0.8-1-1.3c-0.3-0.5-0.4-1.2-0.4-2c0-0.6,0.1-1.2,0.4-1.8c0.2-0.5,0.6-1,1-1.4s1-0.7,1.6-0.9c0.6-0.2,1.3-0.3,2.1-0.3
			c0.7,0,1.4,0.1,2,0.2c0.6,0.2,1.2,0.4,1.7,0.6l-0.8,2.2c-0.3-0.2-0.7-0.3-1.2-0.5c-0.4-0.1-0.9-0.2-1.3-0.2
			c-0.6,0-1.1,0.1-1.5,0.4c-0.4,0.3-0.6,0.7-0.6,1.2c0,0.5,0.1,0.8,0.4,1.1s0.6,0.5,1.1,0.8s0.9,0.5,1.4,0.7c0.5,0.2,1,0.5,1.4,0.9
			s0.8,0.8,1.1,1.3C373.5,273.8,373.6,274.5,373.6,275.3z"/>
	</g>
	<g>
		<path class="st0" d="M381.8,279.5c-0.2,0.1-0.4,0.2-0.7,0.2c-0.3,0.1-0.6,0.1-1,0.1c-1.1,0-2-0.3-2.6-0.9s-0.9-1.5-0.9-2.6V270
			h-1.3v-2.2h1.3v-2.5l3.4-0.9v3.4h1.8v2.2H380v6.3c0,0.4,0.1,0.7,0.3,0.9c0.2,0.2,0.5,0.3,0.8,0.3c0.3,0,0.5,0,0.7-0.1V279.5z"/>
	</g>
	<g>
		<path class="st0" d="M389.6,270c-0.2-0.1-0.4-0.2-0.6-0.2c-0.2,0-0.4-0.1-0.6-0.1c-0.5,0-0.8,0.1-1,0.2v9.7h-3.4v-11.2
			c0.6-0.3,1.2-0.5,2-0.6c0.8-0.2,1.7-0.2,2.8-0.2c0.3,0,0.5,0,0.8,0c0.3,0,0.5,0,0.7,0.1L389.6,270z"/>
	</g>
	<g>
		<path class="st0" d="M401.1,279c-0.5,0.3-1.2,0.5-1.9,0.6c-0.8,0.2-1.7,0.2-2.7,0.2c-1.7,0-3-0.3-3.9-0.9
			c-0.9-0.6-1.3-1.6-1.3-2.8c0-0.7,0.2-1.3,0.5-1.8c0.4-0.5,0.8-0.9,1.4-1.2c0.6-0.3,1.3-0.6,2.1-0.7c0.8-0.2,1.7-0.3,2.6-0.4v-0.5
			c0-0.6-0.2-1-0.5-1.3c-0.4-0.3-0.9-0.4-1.5-0.4c-0.6,0-1.1,0.1-1.7,0.2s-1.1,0.3-1.5,0.5l-0.7-2c0.6-0.3,1.3-0.5,2.1-0.6
			c0.8-0.2,1.6-0.3,2.4-0.3c0.7,0,1.4,0.1,2,0.2c0.6,0.2,1.1,0.4,1.5,0.8c0.4,0.3,0.7,0.8,1,1.3c0.2,0.5,0.3,1.2,0.3,2V279z
			 M397.9,273.5c-1.1,0.1-2,0.4-2.6,0.7c-0.6,0.4-0.9,1-0.9,1.7c0,0.7,0.2,1.2,0.6,1.5s0.9,0.5,1.6,0.5c0.5,0,1-0.1,1.3-0.2V273.5z"
			/>
	</g>
	<g>
		<path class="st0" d="M409.6,279.5c-0.2,0.1-0.4,0.2-0.7,0.2c-0.3,0.1-0.6,0.1-1,0.1c-1.1,0-2-0.3-2.6-0.9s-0.9-1.5-0.9-2.6V270
			h-1.3v-2.2h1.3v-2.5l3.4-0.9v3.4h1.8v2.2h-1.8v6.3c0,0.4,0.1,0.7,0.3,0.9c0.2,0.2,0.5,0.3,0.8,0.3c0.3,0,0.5,0,0.7-0.1V279.5z"/>
	</g>
	<g>
		<path class="st0" d="M421.8,273.4v0.2c0,0.1,0,0.1,0,0.3l-7.1,1c0.1,0.8,0.4,1.5,0.9,1.9c0.5,0.5,1.2,0.7,2,0.7
			c0.5,0,1.1-0.1,1.6-0.2s1-0.3,1.4-0.5l0.8,2.2c-0.6,0.3-1.2,0.5-2,0.6c-0.8,0.2-1.5,0.2-2.4,0.2c-1,0-1.8-0.2-2.5-0.5
			c-0.7-0.3-1.3-0.7-1.8-1.3c-0.5-0.6-0.9-1.2-1.1-2c-0.2-0.8-0.4-1.6-0.4-2.5c0-0.9,0.1-1.8,0.4-2.5c0.2-0.8,0.6-1.4,1.1-1.9
			c0.5-0.5,1-0.9,1.7-1.2c0.7-0.3,1.4-0.4,2.3-0.4c1.7,0,2.9,0.5,3.8,1.5C421.3,270.1,421.8,271.6,421.8,273.4z M418.5,272.6
			c0-1-0.2-1.7-0.5-2.2c-0.3-0.5-0.8-0.8-1.5-0.8c-0.7,0-1.2,0.3-1.6,0.9c-0.4,0.6-0.6,1.4-0.6,2.4v0.3L418.5,272.6z"/>
	</g>
	<g>
		<path class="st0" d="M433.9,279.5c0,1.7-0.5,3-1.4,3.8c-0.9,0.9-2.2,1.3-3.8,1.3c-0.9,0-1.7-0.1-2.5-0.3c-0.8-0.2-1.4-0.4-1.9-0.6
			l0.9-2.2c0.4,0.2,0.8,0.4,1.3,0.5c0.5,0.1,1,0.2,1.6,0.2c0.9,0,1.5-0.2,1.9-0.7c0.4-0.4,0.6-1,0.6-1.7v-0.5
			c-0.2,0.1-0.5,0.2-0.8,0.3s-0.8,0.1-1.3,0.1c-0.7,0-1.4-0.1-2-0.4s-1.1-0.7-1.5-1.2c-0.4-0.5-0.8-1.1-1-1.8
			c-0.2-0.7-0.4-1.5-0.4-2.4c0-2,0.5-3.6,1.6-4.7s2.6-1.7,4.6-1.7c0.8,0,1.5,0.1,2.3,0.2s1.4,0.4,1.9,0.6V279.5z M430.5,269.8
			c-0.3-0.1-0.7-0.2-1.1-0.2c-0.9,0-1.5,0.4-1.9,1.1c-0.4,0.7-0.6,1.7-0.6,3.1c0,1.3,0.2,2.3,0.6,3c0.4,0.7,1,1,1.8,1
			c0.2,0,0.4,0,0.6-0.1c0.2-0.1,0.4-0.1,0.5-0.2V269.8z"/>
	</g>
	<g>
		<path class="st0" d="M441.1,284.4h-3.6l2-4.7l-4-11.9h3.7l1.7,7.1c0.1,0.4,0.2,0.7,0.2,1s0.1,0.6,0.1,0.8h0c0-0.2,0.1-0.4,0.1-0.8
			c0-0.3,0.1-0.7,0.2-1.1l1.8-7.1h3.3L441.1,284.4z"/>
	</g>
	<g>
		<path class="st0" d="M354.6,290.4c0,0.5-0.2,0.8-0.5,1.2c-0.4,0.3-0.8,0.5-1.3,0.5c-0.5,0-0.9-0.2-1.3-0.5
			c-0.4-0.3-0.5-0.7-0.5-1.2c0-0.5,0.2-0.8,0.5-1.1c0.4-0.3,0.8-0.5,1.3-0.5c0.5,0,0.9,0.2,1.3,0.5
			C354.5,289.6,354.6,290,354.6,290.4z M351.1,305.7v-11.9h3.4v11.9H351.1z"/>
	</g>
	<g>
		<path class="st0" d="M363.9,305.7v-8c0-0.7-0.1-1.1-0.4-1.5c-0.3-0.3-0.8-0.5-1.5-0.5c-0.3,0-0.5,0-0.7,0.1s-0.4,0.1-0.6,0.2v9.7
			h-3.4v-11.2c1.3-0.6,2.9-0.9,4.8-0.9s3.2,0.4,4.1,1.1s1.3,1.7,1.3,3v8H363.9z"/>
	</g>
	<g>
		<path class="st0" d="M375.9,305.5c-0.2,0.1-0.4,0.2-0.7,0.2c-0.3,0.1-0.6,0.1-1,0.1c-1.1,0-2-0.3-2.6-0.9s-0.9-1.5-0.9-2.6V296
			h-1.3v-2.2h1.3v-2.5l3.4-0.9v3.4h1.8v2.2H374v6.3c0,0.4,0.1,0.7,0.3,0.9c0.2,0.2,0.5,0.3,0.8,0.3c0.3,0,0.5,0,0.7-0.1V305.5z"/>
	</g>
	<g>
		<path class="st0" d="M388,299.4v0.2c0,0.1,0,0.1,0,0.3l-7.1,1c0.1,0.8,0.4,1.5,0.9,1.9c0.5,0.5,1.2,0.7,2,0.7
			c0.5,0,1.1-0.1,1.6-0.2s1-0.3,1.4-0.5l0.8,2.2c-0.6,0.3-1.2,0.5-2,0.6c-0.8,0.2-1.5,0.2-2.4,0.2c-1,0-1.8-0.2-2.5-0.5
			c-0.7-0.3-1.3-0.7-1.8-1.3c-0.5-0.6-0.9-1.2-1.1-2c-0.2-0.8-0.4-1.6-0.4-2.5c0-0.9,0.1-1.8,0.4-2.5c0.2-0.8,0.6-1.4,1.1-1.9
			c0.5-0.5,1-0.9,1.7-1.2c0.7-0.3,1.4-0.4,2.3-0.4c1.7,0,2.9,0.5,3.8,1.5C387.6,296.1,388,297.6,388,299.4z M384.8,298.6
			c0-1-0.2-1.7-0.5-2.2c-0.3-0.5-0.8-0.8-1.5-0.8c-0.7,0-1.2,0.3-1.6,0.9c-0.4,0.6-0.6,1.4-0.6,2.4v0.3L384.8,298.6z"/>
	</g>
	<g>
		<path class="st0" d="M400.1,305.5c0,1.7-0.5,3-1.4,3.8c-0.9,0.9-2.2,1.3-3.8,1.3c-0.9,0-1.7-0.1-2.5-0.3c-0.8-0.2-1.4-0.4-1.9-0.6
			l0.9-2.2c0.4,0.2,0.8,0.4,1.3,0.5c0.5,0.1,1,0.2,1.6,0.2c0.9,0,1.5-0.2,1.9-0.7c0.4-0.4,0.6-1,0.6-1.7v-0.5
			c-0.2,0.1-0.5,0.2-0.8,0.3s-0.8,0.1-1.3,0.1c-0.7,0-1.4-0.1-2-0.4s-1.1-0.7-1.5-1.2c-0.4-0.5-0.8-1.1-1-1.8
			c-0.2-0.7-0.4-1.5-0.4-2.4c0-2,0.5-3.6,1.6-4.7s2.6-1.7,4.6-1.7c0.8,0,1.5,0.1,2.3,0.2s1.4,0.4,1.9,0.6V305.5z M396.7,295.8
			c-0.3-0.1-0.7-0.2-1.1-0.2c-0.9,0-1.5,0.4-1.9,1.1c-0.4,0.7-0.6,1.7-0.6,3.1c0,1.3,0.2,2.3,0.6,3c0.4,0.7,1,1,1.8,1
			c0.2,0,0.4,0,0.6-0.1c0.2-0.1,0.4-0.1,0.5-0.2V295.8z"/>
	</g>
	<g>
		<path class="st0" d="M408.5,296c-0.2-0.1-0.4-0.2-0.6-0.2c-0.2,0-0.4-0.1-0.6-0.1c-0.5,0-0.8,0.1-1,0.2v9.7h-3.4v-11.2
			c0.6-0.3,1.2-0.5,2-0.6c0.8-0.2,1.7-0.2,2.8-0.2c0.3,0,0.5,0,0.8,0c0.3,0,0.5,0,0.7,0.1L408.5,296z"/>
	</g>
	<g>
		<path class="st0" d="M420,305c-0.5,0.3-1.2,0.5-1.9,0.6c-0.8,0.2-1.7,0.2-2.7,0.2c-1.7,0-3-0.3-3.9-0.9c-0.9-0.6-1.3-1.6-1.3-2.8
			c0-0.7,0.2-1.3,0.5-1.8c0.4-0.5,0.8-0.9,1.4-1.2c0.6-0.3,1.3-0.6,2.1-0.7c0.8-0.2,1.7-0.3,2.6-0.4v-0.5c0-0.6-0.2-1-0.5-1.3
			c-0.4-0.3-0.9-0.4-1.5-0.4c-0.6,0-1.1,0.1-1.7,0.2s-1.1,0.3-1.5,0.5l-0.7-2c0.6-0.3,1.3-0.5,2.1-0.6c0.8-0.2,1.6-0.3,2.4-0.3
			c0.7,0,1.4,0.1,2,0.2c0.6,0.2,1.1,0.4,1.5,0.8c0.4,0.3,0.7,0.8,1,1.3c0.2,0.5,0.3,1.2,0.3,2V305z M416.8,299.5
			c-1.1,0.1-2,0.4-2.6,0.7c-0.6,0.4-0.9,1-0.9,1.7c0,0.7,0.2,1.2,0.6,1.5s0.9,0.5,1.6,0.5c0.5,0,1-0.1,1.3-0.2V299.5z"/>
	</g>
	<g>
		<path class="st0" d="M428.5,305.5c-0.2,0.1-0.4,0.2-0.7,0.2c-0.3,0.1-0.6,0.1-1,0.1c-1.1,0-2-0.3-2.6-0.9s-0.9-1.5-0.9-2.6V296
			H422v-2.2h1.3v-2.5l3.4-0.9v3.4h1.8v2.2h-1.8v6.3c0,0.4,0.1,0.7,0.3,0.9c0.2,0.2,0.5,0.3,0.8,0.3c0.3,0,0.5,0,0.7-0.1V305.5z"/>
	</g>
	<g>
		<path class="st0" d="M434.2,290.4c0,0.5-0.2,0.8-0.5,1.2c-0.4,0.3-0.8,0.5-1.3,0.5c-0.5,0-0.9-0.2-1.3-0.5
			c-0.4-0.3-0.5-0.7-0.5-1.2c0-0.5,0.2-0.8,0.5-1.1c0.4-0.3,0.8-0.5,1.3-0.5c0.5,0,0.9,0.2,1.3,0.5C434,289.6,434.2,290,434.2,290.4
			z M430.6,305.7v-11.9h3.4v11.9H430.6z"/>
	</g>
	<g>
		<path class="st0" d="M447,299.7c0,0.9-0.1,1.7-0.3,2.5c-0.2,0.8-0.6,1.4-1,2c-0.4,0.5-1,1-1.7,1.3c-0.7,0.3-1.4,0.5-2.3,0.5
			c-0.9,0-1.7-0.2-2.3-0.5c-0.7-0.3-1.2-0.7-1.7-1.3c-0.4-0.6-0.8-1.2-1-2c-0.2-0.8-0.3-1.6-0.3-2.5s0.1-1.7,0.3-2.5
			c0.2-0.8,0.6-1.4,1-1.9c0.4-0.5,1-1,1.7-1.3c0.7-0.3,1.4-0.5,2.3-0.5c0.9,0,1.7,0.2,2.3,0.5c0.7,0.3,1.2,0.7,1.7,1.3
			c0.4,0.5,0.8,1.2,1,1.9C446.9,298,447,298.8,447,299.7z M443.6,299.7c0-0.6,0-1.1-0.1-1.6c-0.1-0.5-0.2-0.9-0.3-1.3
			s-0.3-0.6-0.6-0.8s-0.5-0.3-0.9-0.3c-0.4,0-0.7,0.1-0.9,0.3c-0.2,0.2-0.4,0.5-0.6,0.8c-0.1,0.4-0.3,0.8-0.3,1.3
			c-0.1,0.5-0.1,1-0.1,1.6c0,0.6,0,1.1,0.1,1.6c0.1,0.5,0.2,0.9,0.3,1.3c0.1,0.4,0.3,0.6,0.6,0.8c0.2,0.2,0.5,0.3,0.9,0.3
			c0.4,0,0.7-0.1,0.9-0.3s0.4-0.5,0.6-0.8s0.3-0.8,0.3-1.3S443.6,300.2,443.6,299.7z"/>
	</g>
	<g>
		<path class="st0" d="M455.9,305.7v-8c0-0.7-0.1-1.1-0.4-1.5c-0.3-0.3-0.8-0.5-1.5-0.5c-0.3,0-0.5,0-0.7,0.1s-0.4,0.1-0.6,0.2v9.7
			h-3.4v-11.2c1.3-0.6,2.9-0.9,4.8-0.9s3.2,0.4,4.1,1.1s1.3,1.7,1.3,3v8H455.9z"/>
	</g>
</g>
<g>
	<g>
		<g>
			<circle class="st7" cx="402.7" cy="543.8" r="99.8"/>
		</g>
	</g>
	<g>
		<g>
			<path class="st0" d="M361.8,517.1V502h3.6v15.1H361.8z"/>
		</g>
		<g>
			<path class="st0" d="M374.9,517.1v-8c0-0.7-0.1-1.1-0.4-1.5c-0.3-0.3-0.8-0.5-1.5-0.5c-0.3,0-0.5,0-0.7,0.1
				c-0.2,0-0.4,0.1-0.6,0.2v9.7h-3.4v-11.2c1.3-0.6,2.9-0.9,4.8-0.9s3.2,0.4,4.1,1.1s1.3,1.7,1.3,3v8H374.9z"/>
		</g>
		<g>
			<path class="st0" d="M384.5,501.8c0,0.5-0.2,0.8-0.5,1.2c-0.4,0.3-0.8,0.5-1.3,0.5c-0.5,0-0.9-0.2-1.3-0.5
				c-0.4-0.3-0.5-0.7-0.5-1.2s0.2-0.8,0.5-1.1c0.4-0.3,0.8-0.5,1.3-0.5c0.5,0,0.9,0.2,1.3,0.5C384.3,501,384.5,501.4,384.5,501.8z
				 M381,517.1v-11.9h3.4v11.9H381z"/>
		</g>
		<g>
			<path class="st0" d="M393,517c-0.2,0.1-0.4,0.2-0.7,0.2c-0.3,0.1-0.6,0.1-1,0.1c-1.1,0-2-0.3-2.6-0.9c-0.6-0.6-0.9-1.5-0.9-2.6
				v-6.3h-1.3v-2.2h1.3v-2.5l3.4-0.9v3.4h1.8v2.2h-1.8v6.3c0,0.4,0.1,0.7,0.3,0.9c0.2,0.2,0.5,0.3,0.8,0.3c0.3,0,0.5,0,0.7-0.1V517z
				"/>
		</g>
		<g>
			<path class="st0" d="M398.7,501.8c0,0.5-0.2,0.8-0.5,1.2c-0.4,0.3-0.8,0.5-1.3,0.5c-0.5,0-0.9-0.2-1.3-0.5
				c-0.4-0.3-0.5-0.7-0.5-1.2s0.2-0.8,0.5-1.1c0.4-0.3,0.8-0.5,1.3-0.5c0.5,0,0.9,0.2,1.3,0.5C398.5,501,398.7,501.4,398.7,501.8z
				 M395.1,517.1v-11.9h3.4v11.9H395.1z"/>
		</g>
		<g>
			<path class="st0" d="M410.5,516.5c-0.5,0.3-1.2,0.5-1.9,0.6c-0.8,0.2-1.7,0.2-2.7,0.2c-1.7,0-3-0.3-3.9-0.9
				c-0.9-0.6-1.3-1.6-1.3-2.8c0-0.7,0.2-1.3,0.5-1.8c0.4-0.5,0.8-0.9,1.4-1.2s1.3-0.6,2.1-0.7s1.7-0.3,2.6-0.4v-0.5
				c0-0.6-0.2-1-0.5-1.3c-0.4-0.3-0.9-0.4-1.5-0.4c-0.6,0-1.1,0.1-1.7,0.2c-0.6,0.1-1.1,0.3-1.5,0.5l-0.7-2c0.6-0.3,1.3-0.5,2.1-0.6
				c0.8-0.2,1.6-0.3,2.4-0.3c0.7,0,1.4,0.1,2,0.2c0.6,0.2,1.1,0.4,1.5,0.8c0.4,0.3,0.7,0.8,1,1.3s0.3,1.2,0.3,2V516.5z M407.3,511
				c-1.1,0.1-2,0.4-2.6,0.7c-0.6,0.4-0.9,1-0.9,1.7c0,0.7,0.2,1.2,0.6,1.5s0.9,0.5,1.6,0.5c0.5,0,1-0.1,1.3-0.2V511z"/>
		</g>
		<g>
			<path class="st0" d="M419.1,517c-0.2,0.1-0.4,0.2-0.7,0.2c-0.3,0.1-0.6,0.1-1,0.1c-1.1,0-2-0.3-2.6-0.9c-0.6-0.6-0.9-1.5-0.9-2.6
				v-6.3h-1.3v-2.2h1.3v-2.5l3.4-0.9v3.4h1.8v2.2h-1.8v6.3c0,0.4,0.1,0.7,0.3,0.9c0.2,0.2,0.5,0.3,0.8,0.3c0.3,0,0.5,0,0.7-0.1V517z
				"/>
		</g>
		<g>
			<path class="st0" d="M424.8,501.8c0,0.5-0.2,0.8-0.5,1.2c-0.4,0.3-0.8,0.5-1.3,0.5c-0.5,0-0.9-0.2-1.3-0.5
				c-0.4-0.3-0.5-0.7-0.5-1.2s0.2-0.8,0.5-1.1c0.4-0.3,0.8-0.5,1.3-0.5c0.5,0,0.9,0.2,1.3,0.5C424.6,501,424.8,501.4,424.8,501.8z
				 M421.2,517.1v-11.9h3.4v11.9H421.2z"/>
		</g>
		<g>
			<path class="st0" d="M433.5,517.1h-3.3l-3.9-11.9h3.7l1.7,6.9c0.1,0.4,0.2,0.7,0.2,1.1c0,0.4,0.1,0.6,0.1,0.8h0
				c0-0.1,0-0.4,0.1-0.8s0.1-0.7,0.2-1.1l1.8-6.9h3.3L433.5,517.1z"/>
		</g>
		<g>
			<path class="st0" d="M449.1,510.8v0.2c0,0.1,0,0.1,0,0.3l-7.1,1c0.1,0.8,0.4,1.5,0.9,1.9c0.5,0.5,1.2,0.7,2,0.7
				c0.5,0,1.1-0.1,1.6-0.2c0.5-0.1,1-0.3,1.4-0.5l0.8,2.2c-0.6,0.3-1.2,0.5-2,0.7c-0.8,0.2-1.5,0.2-2.4,0.2c-1,0-1.8-0.2-2.5-0.5
				c-0.7-0.3-1.3-0.7-1.8-1.3c-0.5-0.5-0.9-1.2-1.1-2s-0.4-1.6-0.4-2.5c0-0.9,0.1-1.8,0.4-2.5c0.2-0.8,0.6-1.4,1.1-1.9
				c0.5-0.5,1-0.9,1.7-1.2c0.7-0.3,1.4-0.4,2.3-0.4c1.7,0,2.9,0.5,3.8,1.5C448.7,507.6,449.1,509,449.1,510.8z M445.9,510.1
				c0-1-0.2-1.7-0.5-2.2c-0.3-0.5-0.8-0.8-1.5-0.8c-0.7,0-1.2,0.3-1.6,0.9c-0.4,0.6-0.6,1.4-0.6,2.4v0.3L445.9,510.1z"/>
		</g>
		<g>
			<path class="st0" d="M364.2,543.1V528h3.6v12.7h3.8v2.4H364.2z"/>
		</g>
		<g>
			<path class="st0" d="M377.2,527.8c0,0.5-0.2,0.8-0.5,1.2c-0.4,0.3-0.8,0.5-1.3,0.5c-0.5,0-0.9-0.2-1.3-0.5
				c-0.4-0.3-0.5-0.7-0.5-1.2s0.2-0.8,0.5-1.1c0.4-0.3,0.8-0.5,1.3-0.5c0.5,0,0.9,0.2,1.3,0.5C377,527,377.2,527.4,377.2,527.8z
				 M373.6,543.1v-11.9h3.4v11.9H373.6z"/>
		</g>
		<g>
			<path class="st0" d="M383.8,533.5v9.7h-3.4v-9.7h-1.3v-2.2h1.3V530c0-1.3,0.4-2.4,1.2-3.1c0.8-0.7,1.8-1.1,3.2-1.1
				c0.2,0,0.4,0,0.6,0c0.1,0,0.3,0,0.4,0v2.2c-0.1,0-0.2,0-0.2,0h-0.1c-0.5,0-0.9,0.2-1.1,0.5c-0.2,0.3-0.4,0.8-0.4,1.4v1.3h1.8v2.2
				H383.8z"/>
		</g>
		<g>
			<path class="st0" d="M397.6,536.8v0.2c0,0.1,0,0.1,0,0.3l-7.1,1c0.1,0.8,0.4,1.5,0.9,1.9c0.5,0.5,1.2,0.7,2,0.7
				c0.5,0,1.1-0.1,1.6-0.2c0.5-0.1,1-0.3,1.4-0.5l0.8,2.2c-0.6,0.3-1.2,0.5-2,0.7c-0.8,0.2-1.5,0.2-2.4,0.2c-1,0-1.8-0.2-2.5-0.5
				c-0.7-0.3-1.3-0.7-1.8-1.3c-0.5-0.5-0.9-1.2-1.1-2s-0.4-1.6-0.4-2.5c0-0.9,0.1-1.8,0.4-2.5c0.2-0.8,0.6-1.4,1.1-1.9
				c0.5-0.5,1-0.9,1.7-1.2c0.7-0.3,1.4-0.4,2.3-0.4c1.7,0,2.9,0.5,3.8,1.5C397.2,533.6,397.6,535,397.6,536.8z M394.3,536.1
				c0-1-0.2-1.7-0.5-2.2c-0.3-0.5-0.8-0.8-1.5-0.8c-0.7,0-1.2,0.3-1.6,0.9c-0.4,0.6-0.6,1.4-0.6,2.4v0.3L394.3,536.1z"/>
		</g>
		<g>
			<path class="st0" d="M407.4,542.5c-0.8,0.6-1.8,0.9-3,0.9c-0.7,0-1.4-0.1-2-0.4c-0.6-0.3-1.1-0.7-1.6-1.2s-0.8-1.2-1-1.9
				s-0.4-1.6-0.4-2.6c0-1,0.1-1.8,0.4-2.6s0.6-1.4,1.1-1.9c0.4-0.5,1-0.9,1.6-1.2c0.6-0.3,1.3-0.4,2-0.4c1.2,0,2.2,0.3,3,0.9
				l-0.7,1.9c-0.4-0.3-0.9-0.5-1.5-0.5c-0.7,0-1.3,0.3-1.7,1c-0.4,0.7-0.6,1.6-0.6,2.8s0.2,2.1,0.6,2.8c0.4,0.7,1,1,1.7,1
				c0.6,0,1.1-0.2,1.5-0.5L407.4,542.5z"/>
		</g>
		<g>
			<path class="st0" d="M413.9,547.8h-3.6l2-4.7l-4-11.9h3.7l1.7,7.1c0.1,0.4,0.2,0.7,0.2,1c0,0.3,0.1,0.6,0.1,0.8h0
				c0-0.2,0.1-0.4,0.1-0.8s0.1-0.7,0.2-1.1l1.8-7.1h3.3L413.9,547.8z"/>
		</g>
		<g>
			<path class="st0" d="M428.6,542.5c-0.8,0.6-1.8,0.9-3,0.9c-0.7,0-1.4-0.1-2-0.4c-0.6-0.3-1.1-0.7-1.6-1.2s-0.8-1.2-1-1.9
				s-0.4-1.6-0.4-2.6c0-1,0.1-1.8,0.4-2.6s0.6-1.4,1.1-1.9c0.4-0.5,1-0.9,1.6-1.2c0.6-0.3,1.3-0.4,2-0.4c1.2,0,2.2,0.3,3,0.9
				l-0.7,1.9c-0.4-0.3-0.9-0.5-1.5-0.5c-0.7,0-1.3,0.3-1.7,1c-0.4,0.7-0.6,1.6-0.6,2.8s0.2,2.1,0.6,2.8c0.4,0.7,1,1,1.7,1
				c0.6,0,1.1-0.2,1.5-0.5L428.6,542.5z"/>
		</g>
		<g>
			<path class="st0" d="M430.6,543.1v-17.3h3.4v17.3H430.6z"/>
		</g>
		<g>
			<path class="st0" d="M446.8,536.8v0.2c0,0.1,0,0.1,0,0.3l-7.1,1c0.1,0.8,0.4,1.5,0.9,1.9c0.5,0.5,1.2,0.7,2,0.7
				c0.5,0,1.1-0.1,1.6-0.2c0.5-0.1,1-0.3,1.4-0.5l0.8,2.2c-0.6,0.3-1.2,0.5-2,0.7c-0.8,0.2-1.5,0.2-2.4,0.2c-1,0-1.8-0.2-2.5-0.5
				c-0.7-0.3-1.3-0.7-1.8-1.3c-0.5-0.5-0.9-1.2-1.1-2s-0.4-1.6-0.4-2.5c0-0.9,0.1-1.8,0.4-2.5c0.2-0.8,0.6-1.4,1.1-1.9
				c0.5-0.5,1-0.9,1.7-1.2c0.7-0.3,1.4-0.4,2.3-0.4c1.7,0,2.9,0.5,3.8,1.5C446.3,533.6,446.8,535,446.8,536.8z M443.5,536.1
				c0-1-0.2-1.7-0.5-2.2c-0.3-0.5-0.8-0.8-1.5-0.8c-0.7,0-1.2,0.3-1.6,0.9c-0.4,0.6-0.6,1.4-0.6,2.4v0.3L443.5,536.1z"/>
		</g>
		<g>
			<path class="st0" d="M351,569.1V554h3.6v15.1H351z"/>
		</g>
		<g>
			<path class="st0" d="M364.1,569.1v-8c0-0.7-0.1-1.1-0.4-1.5c-0.3-0.3-0.8-0.5-1.5-0.5c-0.3,0-0.5,0-0.7,0.1
				c-0.2,0-0.4,0.1-0.6,0.2v9.7h-3.4v-11.2c1.3-0.6,2.9-0.9,4.8-0.9s3.2,0.4,4.1,1.1s1.3,1.7,1.3,3v8H364.1z"/>
		</g>
		<g>
			<path class="st0" d="M376.1,569c-0.2,0.1-0.4,0.2-0.7,0.2c-0.3,0.1-0.6,0.1-1,0.1c-1.1,0-2-0.3-2.6-0.9c-0.6-0.6-0.9-1.5-0.9-2.6
				v-6.3h-1.3v-2.2h1.3v-2.5l3.4-0.9v3.4h1.8v2.2h-1.8v6.3c0,0.4,0.1,0.7,0.3,0.9c0.2,0.2,0.5,0.3,0.8,0.3c0.3,0,0.5,0,0.7-0.1V569z
				"/>
		</g>
		<g>
			<path class="st0" d="M388.2,562.8v0.2c0,0.1,0,0.1,0,0.3l-7.1,1c0.1,0.8,0.4,1.5,0.9,1.9c0.5,0.5,1.2,0.7,2,0.7
				c0.5,0,1.1-0.1,1.6-0.2c0.5-0.1,1-0.3,1.4-0.5l0.8,2.2c-0.6,0.3-1.2,0.5-2,0.7c-0.8,0.2-1.5,0.2-2.4,0.2c-1,0-1.8-0.2-2.5-0.5
				c-0.7-0.3-1.3-0.7-1.8-1.3c-0.5-0.5-0.9-1.2-1.1-2s-0.4-1.6-0.4-2.5c0-0.9,0.1-1.8,0.4-2.5c0.2-0.8,0.6-1.4,1.1-1.9
				c0.5-0.5,1-0.9,1.7-1.2c0.7-0.3,1.4-0.4,2.3-0.4c1.7,0,2.9,0.5,3.8,1.5C387.8,559.6,388.2,561,388.2,562.8z M384.9,562.1
				c0-1-0.2-1.7-0.5-2.2c-0.3-0.5-0.8-0.8-1.5-0.8c-0.7,0-1.2,0.3-1.6,0.9c-0.4,0.6-0.6,1.4-0.6,2.4v0.3L384.9,562.1z"/>
		</g>
		<g>
			<path class="st0" d="M400.3,569c0,1.7-0.5,3-1.4,3.8s-2.2,1.3-3.8,1.3c-0.9,0-1.7-0.1-2.5-0.3c-0.8-0.2-1.4-0.4-1.9-0.6l0.9-2.2
				c0.4,0.2,0.8,0.4,1.3,0.5c0.5,0.1,1,0.2,1.6,0.2c0.9,0,1.5-0.2,1.9-0.7c0.4-0.4,0.6-1,0.6-1.7v-0.5c-0.2,0.1-0.5,0.2-0.8,0.3
				s-0.8,0.1-1.3,0.1c-0.7,0-1.4-0.1-2-0.4s-1.1-0.7-1.5-1.2c-0.4-0.5-0.8-1.1-1-1.8c-0.2-0.7-0.4-1.5-0.4-2.4c0-2,0.5-3.6,1.6-4.7
				s2.6-1.7,4.6-1.7c0.8,0,1.5,0.1,2.3,0.2s1.4,0.4,1.9,0.6V569z M396.9,559.2c-0.3-0.1-0.7-0.2-1.1-0.2c-0.9,0-1.5,0.4-1.9,1.1
				c-0.4,0.7-0.6,1.7-0.6,3.1c0,1.3,0.2,2.3,0.6,3c0.4,0.7,1,1,1.8,1c0.2,0,0.4,0,0.6-0.1c0.2-0.1,0.4-0.1,0.5-0.2V559.2z"/>
		</g>
		<g>
			<path class="st0" d="M408.6,559.5c-0.2-0.1-0.4-0.2-0.6-0.2c-0.2,0-0.4-0.1-0.6-0.1c-0.5,0-0.8,0.1-1,0.2v9.7h-3.4v-11.2
				c0.6-0.3,1.2-0.5,2-0.6c0.8-0.2,1.7-0.2,2.8-0.2c0.3,0,0.5,0,0.8,0c0.3,0,0.5,0,0.7,0.1L408.6,559.5z"/>
		</g>
		<g>
			<path class="st0" d="M420.1,568.5c-0.5,0.3-1.2,0.5-1.9,0.6c-0.8,0.2-1.7,0.2-2.7,0.2c-1.7,0-3-0.3-3.9-0.9
				c-0.9-0.6-1.3-1.6-1.3-2.8c0-0.7,0.2-1.3,0.5-1.8c0.4-0.5,0.8-0.9,1.4-1.2s1.3-0.6,2.1-0.7s1.7-0.3,2.6-0.4v-0.5
				c0-0.6-0.2-1-0.5-1.3c-0.4-0.3-0.9-0.4-1.5-0.4c-0.6,0-1.1,0.1-1.7,0.2c-0.6,0.1-1.1,0.3-1.5,0.5l-0.7-2c0.6-0.3,1.3-0.5,2.1-0.6
				c0.8-0.2,1.6-0.3,2.4-0.3c0.7,0,1.4,0.1,2,0.2c0.6,0.2,1.1,0.4,1.5,0.8c0.4,0.3,0.7,0.8,1,1.3s0.3,1.2,0.3,2V568.5z M416.9,563
				c-1.1,0.1-2,0.4-2.6,0.7c-0.6,0.4-0.9,1-0.9,1.7c0,0.7,0.2,1.2,0.6,1.5s0.9,0.5,1.6,0.5c0.5,0,1-0.1,1.3-0.2V563z"/>
		</g>
		<g>
			<path class="st0" d="M428.7,569c-0.2,0.1-0.4,0.2-0.7,0.2c-0.3,0.1-0.6,0.1-1,0.1c-1.1,0-2-0.3-2.6-0.9c-0.6-0.6-0.9-1.5-0.9-2.6
				v-6.3h-1.3v-2.2h1.3v-2.5l3.4-0.9v3.4h1.8v2.2h-1.8v6.3c0,0.4,0.1,0.7,0.3,0.9c0.2,0.2,0.5,0.3,0.8,0.3c0.3,0,0.5,0,0.7-0.1V569z
				"/>
		</g>
		<g>
			<path class="st0" d="M434.4,553.8c0,0.5-0.2,0.8-0.5,1.2c-0.4,0.3-0.8,0.5-1.3,0.5c-0.5,0-0.9-0.2-1.3-0.5
				c-0.4-0.3-0.5-0.7-0.5-1.2s0.2-0.8,0.5-1.1c0.4-0.3,0.8-0.5,1.3-0.5c0.5,0,0.9,0.2,1.3,0.5C434.2,553,434.4,553.4,434.4,553.8z
				 M430.8,569.1v-11.9h3.4v11.9H430.8z"/>
		</g>
		<g>
			<path class="st0" d="M447.2,563.2c0,0.9-0.1,1.7-0.3,2.5c-0.2,0.8-0.6,1.4-1,2s-1,1-1.7,1.3c-0.7,0.3-1.4,0.5-2.3,0.5
				c-0.9,0-1.7-0.2-2.3-0.5c-0.7-0.3-1.2-0.7-1.7-1.3c-0.4-0.5-0.8-1.2-1-2s-0.3-1.6-0.3-2.5s0.1-1.7,0.3-2.5s0.6-1.4,1-1.9
				c0.4-0.5,1-1,1.7-1.3c0.7-0.3,1.4-0.5,2.3-0.5c0.9,0,1.7,0.2,2.3,0.5c0.7,0.3,1.2,0.7,1.7,1.3c0.4,0.5,0.8,1.2,1,1.9
				C447.1,561.5,447.2,562.3,447.2,563.2z M443.8,563.1c0-0.6,0-1.1-0.1-1.6c-0.1-0.5-0.2-0.9-0.3-1.3c-0.1-0.4-0.3-0.6-0.6-0.8
				c-0.2-0.2-0.5-0.3-0.9-0.3c-0.4,0-0.7,0.1-0.9,0.3c-0.2,0.2-0.4,0.5-0.6,0.8c-0.1,0.4-0.3,0.8-0.3,1.3c-0.1,0.5-0.1,1-0.1,1.6
				s0,1.1,0.1,1.6c0.1,0.5,0.2,0.9,0.3,1.3c0.1,0.4,0.3,0.6,0.6,0.8c0.2,0.2,0.5,0.3,0.9,0.3c0.4,0,0.7-0.1,0.9-0.3
				c0.2-0.2,0.4-0.5,0.6-0.8s0.3-0.8,0.3-1.3S443.8,563.7,443.8,563.1z"/>
		</g>
		<g>
			<path class="st0" d="M456.1,569.1v-8c0-0.7-0.1-1.1-0.4-1.5c-0.3-0.3-0.8-0.5-1.5-0.5c-0.3,0-0.5,0-0.7,0.1
				c-0.2,0-0.4,0.1-0.6,0.2v9.7h-3.4v-11.2c1.3-0.6,2.9-0.9,4.8-0.9s3.2,0.4,4.1,1.1s1.3,1.7,1.3,3v8H456.1z"/>
		</g>
	</g>
</g>
<g>
	<g>
		<circle class="st10" cx="402.7" cy="801.2" r="99.8"/>
	</g>
</g>
<g>
	<g>
		<path class="st0" d="M364.3,776.1c0,0.7-0.1,1.3-0.4,1.8c-0.2,0.6-0.6,1.1-1.1,1.5s-1,0.7-1.7,1c-0.6,0.2-1.4,0.4-2.2,0.4
			c-0.8,0-1.6-0.1-2.3-0.2s-1.3-0.4-1.9-0.7l0.9-2.4c0.4,0.2,0.9,0.4,1.4,0.5c0.5,0.1,1,0.2,1.4,0.2c0.7,0,1.2-0.2,1.6-0.5
			c0.4-0.3,0.6-0.7,0.6-1.2c0-0.5-0.1-0.8-0.4-1.1s-0.6-0.6-1-0.8c-0.4-0.2-0.9-0.5-1.4-0.7c-0.5-0.2-0.9-0.5-1.4-0.9
			s-0.8-0.8-1-1.3c-0.3-0.5-0.4-1.2-0.4-2c0-0.6,0.1-1.2,0.4-1.8c0.2-0.5,0.6-1,1-1.4s1-0.7,1.6-0.9c0.6-0.2,1.3-0.3,2.1-0.3
			c0.7,0,1.4,0.1,2,0.2s1.2,0.4,1.7,0.6l-0.8,2.2c-0.3-0.2-0.7-0.3-1.2-0.5c-0.4-0.1-0.9-0.2-1.3-0.2c-0.6,0-1.1,0.1-1.5,0.4
			c-0.4,0.3-0.6,0.7-0.6,1.2c0,0.5,0.1,0.8,0.4,1.1s0.6,0.5,1.1,0.8c0.4,0.2,0.9,0.5,1.4,0.7c0.5,0.2,1,0.5,1.4,0.9s0.8,0.8,1.1,1.3
			S364.3,775.3,364.3,776.1z"/>
	</g>
	<g>
		<path class="st0" d="M371.1,785.2h-3.6l2-4.7l-4-11.9h3.7l1.7,7.1c0.1,0.4,0.2,0.7,0.2,1s0.1,0.6,0.1,0.8h0c0-0.2,0.1-0.4,0.1-0.8
			c0-0.3,0.1-0.7,0.2-1.1l1.8-7.1h3.3L371.1,785.2z"/>
	</g>
	<g>
		<path class="st0" d="M385.9,776.9c0,0.6-0.1,1.1-0.3,1.5s-0.5,0.9-0.9,1.2c-0.4,0.3-0.9,0.6-1.5,0.8s-1.2,0.3-1.9,0.3
			c-0.7,0-1.4-0.1-2-0.2c-0.7-0.2-1.2-0.4-1.6-0.6l0.9-2.1c0.4,0.2,0.8,0.4,1.2,0.5c0.4,0.1,0.8,0.2,1.1,0.2c0.5,0,0.9-0.1,1.2-0.4
			c0.3-0.2,0.4-0.6,0.4-0.9c0-0.3-0.1-0.6-0.3-0.8c-0.2-0.2-0.5-0.4-0.8-0.6c-0.3-0.2-0.7-0.3-1.1-0.5c-0.4-0.2-0.8-0.4-1.1-0.7
			c-0.3-0.3-0.6-0.6-0.8-1s-0.3-0.9-0.3-1.5c0-0.6,0.1-1.1,0.3-1.5c0.2-0.4,0.5-0.8,0.9-1.1c0.4-0.3,0.8-0.6,1.3-0.7
			c0.5-0.2,1-0.3,1.6-0.3c0.7,0,1.4,0.1,2,0.2s1.1,0.4,1.6,0.6l-0.8,1.9c-0.7-0.4-1.4-0.6-2.1-0.6c-0.5,0-0.9,0.1-1.1,0.4
			c-0.2,0.2-0.4,0.5-0.4,0.9c0,0.3,0.1,0.6,0.3,0.8c0.2,0.2,0.5,0.4,0.9,0.6c0.4,0.2,0.7,0.3,1.1,0.5c0.4,0.2,0.8,0.4,1.1,0.7
			c0.4,0.3,0.6,0.6,0.9,1C385.8,775.7,385.9,776.2,385.9,776.9z"/>
	</g>
	<g>
		<path class="st0" d="M394,780.3c-0.2,0.1-0.4,0.2-0.7,0.2c-0.3,0.1-0.6,0.1-1,0.1c-1.1,0-2-0.3-2.6-0.9s-0.9-1.5-0.9-2.6v-6.3
			h-1.3v-2.2h1.3v-2.5l3.4-0.9v3.4h1.8v2.2h-1.8v6.3c0,0.4,0.1,0.7,0.3,0.9s0.5,0.3,0.8,0.3c0.3,0,0.5,0,0.7-0.1V780.3z"/>
	</g>
	<g>
		<path class="st0" d="M406.2,774.2v0.2c0,0.1,0,0.1,0,0.3l-7.1,1c0.1,0.8,0.4,1.5,0.9,1.9c0.5,0.5,1.2,0.7,2,0.7
			c0.5,0,1.1-0.1,1.6-0.2s1-0.3,1.4-0.5l0.8,2.2c-0.6,0.3-1.2,0.5-2,0.6c-0.8,0.2-1.5,0.2-2.4,0.2c-1,0-1.8-0.2-2.5-0.5
			c-0.7-0.3-1.3-0.7-1.8-1.3c-0.5-0.5-0.9-1.2-1.1-2c-0.2-0.8-0.4-1.6-0.4-2.5c0-0.9,0.1-1.8,0.4-2.5s0.6-1.4,1.1-1.9
			c0.5-0.5,1-0.9,1.7-1.2c0.7-0.3,1.4-0.4,2.3-0.4c1.7,0,2.9,0.5,3.8,1.5C405.7,770.9,406.2,772.4,406.2,774.2z M402.9,773.4
			c0-1-0.2-1.7-0.5-2.2c-0.3-0.5-0.8-0.8-1.5-0.8c-0.7,0-1.2,0.3-1.6,0.9c-0.4,0.6-0.6,1.4-0.6,2.4v0.3L402.9,773.4z"/>
	</g>
	<g>
		<path class="st0" d="M421.6,780.5v-8.1c0-0.6-0.1-1.1-0.4-1.4c-0.3-0.3-0.7-0.5-1.4-0.5c-0.6,0-1.1,0.2-1.5,0.6v9.4H415v-8.2
			c0-0.5-0.1-1-0.4-1.3c-0.3-0.3-0.8-0.5-1.4-0.5c-0.3,0-0.6,0-0.8,0.1c-0.2,0-0.5,0.1-0.7,0.2v9.7h-3.3v-11.2
			c0.7-0.3,1.4-0.5,2.1-0.7s1.6-0.2,2.5-0.2c0.9,0,1.6,0.1,2.2,0.3c0.6,0.2,1.1,0.5,1.5,0.9c0.5-0.4,1-0.7,1.6-0.9
			c0.6-0.2,1.3-0.3,2.1-0.3c0.8,0,1.5,0.1,2.1,0.3c0.6,0.2,1.1,0.5,1.4,0.8s0.6,0.8,0.8,1.3c0.2,0.5,0.3,1,0.3,1.6v8.1H421.6z"/>
	</g>
	<g>
		<path class="st0" d="M435.2,776.9c0,0.6-0.1,1.1-0.3,1.5s-0.5,0.9-0.9,1.2c-0.4,0.3-0.9,0.6-1.5,0.8s-1.2,0.3-1.9,0.3
			c-0.7,0-1.4-0.1-2-0.2c-0.7-0.2-1.2-0.4-1.6-0.6l0.9-2.1c0.4,0.2,0.8,0.4,1.2,0.5c0.4,0.1,0.8,0.2,1.1,0.2c0.5,0,0.9-0.1,1.2-0.4
			c0.3-0.2,0.4-0.6,0.4-0.9c0-0.3-0.1-0.6-0.3-0.8c-0.2-0.2-0.5-0.4-0.8-0.6c-0.3-0.2-0.7-0.3-1.1-0.5c-0.4-0.2-0.8-0.4-1.1-0.7
			c-0.3-0.3-0.6-0.6-0.8-1s-0.3-0.9-0.3-1.5c0-0.6,0.1-1.1,0.3-1.5c0.2-0.4,0.5-0.8,0.9-1.1c0.4-0.3,0.8-0.6,1.3-0.7
			c0.5-0.2,1-0.3,1.6-0.3c0.7,0,1.4,0.1,2,0.2s1.1,0.4,1.6,0.6l-0.8,1.9c-0.7-0.4-1.4-0.6-2.1-0.6c-0.5,0-0.9,0.1-1.1,0.4
			c-0.2,0.2-0.4,0.5-0.4,0.9c0,0.3,0.1,0.6,0.3,0.8c0.2,0.2,0.5,0.4,0.9,0.6c0.4,0.2,0.7,0.3,1.1,0.5c0.4,0.2,0.8,0.4,1.1,0.7
			c0.4,0.3,0.6,0.6,0.9,1C435.1,775.7,435.2,776.2,435.2,776.9z"/>
	</g>
	<g>
		<path class="st0" d="M453.7,772.7v7.2c-0.6,0.3-1.3,0.5-2.1,0.7c-0.9,0.2-1.8,0.2-2.7,0.2c-1.9,0-3.4-0.4-4.5-1.1
			c-1.1-0.7-1.6-1.8-1.6-3.3c0-0.5,0.1-1,0.3-1.4c0.2-0.4,0.4-0.8,0.7-1.2c0.3-0.3,0.7-0.6,1.1-0.9c0.4-0.3,0.8-0.5,1.3-0.7v0
			c-0.8-0.3-1.4-0.7-1.8-1.3c-0.4-0.6-0.6-1.2-0.6-2c0-0.6,0.1-1.1,0.4-1.6s0.6-0.9,1-1.2c0.4-0.3,0.9-0.6,1.5-0.7
			c0.6-0.2,1.2-0.3,1.9-0.3c0.7,0,1.4,0.1,2.1,0.2s1.2,0.4,1.7,0.6l-1,2c-0.3-0.1-0.6-0.3-0.9-0.4c-0.4-0.1-0.7-0.1-1.1-0.1
			c-0.6,0-1.1,0.2-1.5,0.5c-0.4,0.3-0.5,0.7-0.5,1.3c0,0.5,0.2,1,0.6,1.3c0.4,0.4,0.9,0.5,1.6,0.5c0.6,0,1.1,0,1.6-0.1
			c0.5-0.1,1.1-0.2,1.6-0.3l3-0.6l0.5,2.2L453.7,772.7z M450.3,772.9c-1.4,0.2-2.4,0.6-3,1.1c-0.6,0.5-0.9,1.3-0.9,2.2
			c0,0.7,0.2,1.3,0.6,1.7c0.4,0.4,1.1,0.6,2,0.6c0.5,0,1-0.1,1.3-0.2V772.9z"/>
	</g>
	<g>
		<path class="st0" d="M355.7,793.7v12.7h-3.6v-12.7h-2.7v-2.4h9v2.4H355.7z"/>
	</g>
	<g>
		<path class="st0" d="M370.5,800.2v0.2c0,0.1,0,0.1,0,0.3l-7.1,1c0.1,0.8,0.4,1.5,0.9,1.9c0.5,0.5,1.2,0.7,2,0.7
			c0.5,0,1.1-0.1,1.6-0.2s1-0.3,1.4-0.5l0.8,2.2c-0.6,0.3-1.2,0.5-2,0.6c-0.8,0.2-1.5,0.2-2.4,0.2c-1,0-1.8-0.2-2.5-0.5
			c-0.7-0.3-1.3-0.7-1.8-1.3c-0.5-0.5-0.9-1.2-1.1-2c-0.2-0.8-0.4-1.6-0.4-2.5c0-0.9,0.1-1.8,0.4-2.5s0.6-1.4,1.1-1.9
			c0.5-0.5,1-0.9,1.7-1.2c0.7-0.3,1.4-0.4,2.3-0.4c1.7,0,2.9,0.5,3.8,1.5C370,796.9,370.5,798.4,370.5,800.2z M367.2,799.4
			c0-1-0.2-1.7-0.5-2.2c-0.3-0.5-0.8-0.8-1.5-0.8c-0.7,0-1.2,0.3-1.6,0.9c-0.4,0.6-0.6,1.4-0.6,2.4v0.3L367.2,799.4z"/>
	</g>
	<g>
		<path class="st0" d="M380.3,805.9c-0.8,0.6-1.8,0.9-3,0.9c-0.7,0-1.4-0.1-2-0.4c-0.6-0.3-1.1-0.7-1.6-1.2c-0.4-0.5-0.8-1.2-1-1.9
			s-0.4-1.6-0.4-2.6s0.1-1.8,0.4-2.6c0.3-0.8,0.6-1.4,1.1-1.9c0.4-0.5,1-0.9,1.6-1.2s1.3-0.4,2-0.4c1.2,0,2.2,0.3,3,0.9l-0.7,1.9
			c-0.4-0.3-0.9-0.5-1.5-0.5c-0.7,0-1.3,0.3-1.7,1c-0.4,0.7-0.6,1.6-0.6,2.8c0,1.2,0.2,2.1,0.6,2.8c0.4,0.7,1,1,1.7,1
			c0.6,0,1.1-0.2,1.5-0.5L380.3,805.9z"/>
	</g>
	<g>
		<path class="st0" d="M388.9,806.5v-8.1c0-0.5-0.1-0.9-0.4-1.3c-0.3-0.3-0.7-0.5-1.4-0.5c-0.5,0-1,0.1-1.5,0.4v9.5h-3.4v-17.3h3.4
			v5.8c0.4-0.2,0.7-0.3,1.2-0.4c0.4-0.1,0.9-0.2,1.4-0.2c0.7,0,1.4,0.1,1.9,0.3c0.5,0.2,1,0.5,1.3,0.8c0.3,0.3,0.6,0.7,0.7,1.2
			c0.2,0.5,0.2,0.9,0.2,1.5v8.2H388.9z"/>
	</g>
	<g>
		<path class="st0" d="M401.6,806.5v-8c0-0.7-0.1-1.1-0.4-1.5c-0.3-0.3-0.8-0.5-1.5-0.5c-0.3,0-0.5,0-0.7,0.1s-0.4,0.1-0.6,0.2v9.7
			h-3.4v-11.2c1.3-0.6,2.9-0.9,4.8-0.9s3.2,0.4,4.1,1.1s1.3,1.7,1.3,3v8H401.6z"/>
	</g>
	<g>
		<path class="st0" d="M417.9,800.5c0,0.9-0.1,1.7-0.3,2.5c-0.2,0.8-0.6,1.4-1,2c-0.4,0.6-1,1-1.7,1.3c-0.7,0.3-1.4,0.5-2.3,0.5
			c-0.9,0-1.7-0.2-2.3-0.5c-0.7-0.3-1.2-0.7-1.7-1.3c-0.4-0.5-0.8-1.2-1-2c-0.2-0.8-0.3-1.6-0.3-2.5s0.1-1.7,0.3-2.5
			c0.2-0.8,0.6-1.4,1-1.9c0.4-0.5,1-1,1.7-1.3c0.7-0.3,1.4-0.5,2.3-0.5c0.9,0,1.7,0.2,2.3,0.5c0.7,0.3,1.2,0.7,1.7,1.3
			s0.8,1.2,1,1.9C417.8,798.8,417.9,799.7,417.9,800.5z M414.5,800.5c0-0.6,0-1.1-0.1-1.6c-0.1-0.5-0.2-0.9-0.3-1.3
			c-0.1-0.4-0.3-0.6-0.6-0.8c-0.2-0.2-0.5-0.3-0.9-0.3c-0.4,0-0.7,0.1-0.9,0.3c-0.2,0.2-0.4,0.5-0.6,0.8c-0.1,0.4-0.3,0.8-0.3,1.3
			c-0.1,0.5-0.1,1-0.1,1.6c0,0.6,0,1.1,0.1,1.6c0.1,0.5,0.2,0.9,0.3,1.3c0.1,0.4,0.3,0.6,0.6,0.8c0.2,0.2,0.5,0.3,0.9,0.3
			c0.4,0,0.7-0.1,0.9-0.3c0.2-0.2,0.4-0.5,0.6-0.8s0.3-0.8,0.3-1.3C414.4,801.6,414.5,801.1,414.5,800.5z"/>
	</g>
	<g>
		<path class="st0" d="M420.1,806.5v-17.3h3.4v17.3H420.1z"/>
	</g>
	<g>
		<path class="st0" d="M436.5,800.5c0,0.9-0.1,1.7-0.3,2.5c-0.2,0.8-0.6,1.4-1,2c-0.4,0.6-1,1-1.7,1.3c-0.7,0.3-1.4,0.5-2.3,0.5
			c-0.9,0-1.7-0.2-2.3-0.5c-0.7-0.3-1.2-0.7-1.7-1.3c-0.4-0.5-0.8-1.2-1-2c-0.2-0.8-0.3-1.6-0.3-2.5s0.1-1.7,0.3-2.5
			c0.2-0.8,0.6-1.4,1-1.9c0.4-0.5,1-1,1.7-1.3c0.7-0.3,1.4-0.5,2.3-0.5c0.9,0,1.7,0.2,2.3,0.5c0.7,0.3,1.2,0.7,1.7,1.3
			s0.8,1.2,1,1.9C436.4,798.8,436.5,799.7,436.5,800.5z M433.1,800.5c0-0.6,0-1.1-0.1-1.6c-0.1-0.5-0.2-0.9-0.3-1.3
			c-0.1-0.4-0.3-0.6-0.6-0.8c-0.2-0.2-0.5-0.3-0.9-0.3c-0.4,0-0.7,0.1-0.9,0.3c-0.2,0.2-0.4,0.5-0.6,0.8c-0.1,0.4-0.3,0.8-0.3,1.3
			c-0.1,0.5-0.1,1-0.1,1.6c0,0.6,0,1.1,0.1,1.6c0.1,0.5,0.2,0.9,0.3,1.3c0.1,0.4,0.3,0.6,0.6,0.8c0.2,0.2,0.5,0.3,0.9,0.3
			c0.4,0,0.7-0.1,0.9-0.3c0.2-0.2,0.4-0.5,0.6-0.8s0.3-0.8,0.3-1.3C433,801.6,433.1,801.1,433.1,800.5z"/>
	</g>
	<g>
		<path class="st0" d="M448.6,806.3c0,1.7-0.5,3-1.4,3.8c-0.9,0.9-2.2,1.3-3.8,1.3c-0.9,0-1.7-0.1-2.5-0.3s-1.4-0.4-1.9-0.6l0.9-2.2
			c0.4,0.2,0.8,0.4,1.3,0.5c0.5,0.1,1,0.2,1.6,0.2c0.9,0,1.5-0.2,1.9-0.7c0.4-0.4,0.6-1,0.6-1.7v-0.5c-0.2,0.1-0.5,0.2-0.8,0.3
			c-0.3,0.1-0.8,0.1-1.3,0.1c-0.7,0-1.4-0.1-2-0.4s-1.1-0.7-1.5-1.2c-0.4-0.5-0.8-1.1-1-1.8c-0.2-0.7-0.4-1.5-0.4-2.4
			c0-2,0.5-3.6,1.6-4.7s2.6-1.7,4.6-1.7c0.8,0,1.5,0.1,2.3,0.2s1.4,0.4,1.9,0.6V806.3z M445.2,796.6c-0.3-0.1-0.7-0.2-1.1-0.2
			c-0.9,0-1.5,0.4-1.9,1.1s-0.6,1.7-0.6,3.1c0,1.3,0.2,2.3,0.6,3s1,1,1.8,1c0.2,0,0.4,0,0.6-0.1c0.2-0.1,0.4-0.1,0.5-0.2V796.6z"/>
	</g>
	<g>
		<path class="st0" d="M455.9,811.2h-3.6l2-4.7l-4-11.9h3.7l1.7,7.1c0.1,0.4,0.2,0.7,0.2,1s0.1,0.6,0.1,0.8h0c0-0.2,0.1-0.4,0.1-0.8
			c0-0.3,0.1-0.7,0.2-1.1l1.8-7.1h3.3L455.9,811.2z"/>
	</g>
	<g>
		<path class="st0" d="M351,832.5v-15.1h3.6v15.1H351z"/>
	</g>
	<g>
		<path class="st0" d="M364.1,832.5v-8c0-0.7-0.1-1.1-0.4-1.5c-0.3-0.3-0.8-0.5-1.5-0.5c-0.3,0-0.5,0-0.7,0.1s-0.4,0.1-0.6,0.2v9.7
			h-3.4v-11.2c1.3-0.6,2.9-0.9,4.8-0.9s3.2,0.4,4.1,1.1s1.3,1.7,1.3,3v8H364.1z"/>
	</g>
	<g>
		<path class="st0" d="M376.1,832.3c-0.2,0.1-0.4,0.2-0.7,0.2c-0.3,0.1-0.6,0.1-1,0.1c-1.1,0-2-0.3-2.6-0.9s-0.9-1.5-0.9-2.6v-6.3
			h-1.3v-2.2h1.3v-2.5l3.4-0.9v3.4h1.8v2.2h-1.8v6.3c0,0.4,0.1,0.7,0.3,0.9s0.5,0.3,0.8,0.3c0.3,0,0.5,0,0.7-0.1V832.3z"/>
	</g>
	<g>
		<path class="st0" d="M388.2,826.2v0.2c0,0.1,0,0.1,0,0.3l-7.1,1c0.1,0.8,0.4,1.5,0.9,1.9c0.5,0.5,1.2,0.7,2,0.7
			c0.5,0,1.1-0.1,1.6-0.2s1-0.3,1.4-0.5l0.8,2.2c-0.6,0.3-1.2,0.5-2,0.6c-0.8,0.2-1.5,0.2-2.4,0.2c-1,0-1.8-0.2-2.5-0.5
			c-0.7-0.3-1.3-0.7-1.8-1.3c-0.5-0.5-0.9-1.2-1.1-2c-0.2-0.8-0.4-1.6-0.4-2.5c0-0.9,0.1-1.8,0.4-2.5s0.6-1.4,1.1-1.9
			c0.5-0.5,1-0.9,1.7-1.2c0.7-0.3,1.4-0.4,2.3-0.4c1.7,0,2.9,0.5,3.8,1.5C387.8,822.9,388.2,824.4,388.2,826.2z M384.9,825.4
			c0-1-0.2-1.7-0.5-2.2c-0.3-0.5-0.8-0.8-1.5-0.8c-0.7,0-1.2,0.3-1.6,0.9c-0.4,0.6-0.6,1.4-0.6,2.4v0.3L384.9,825.4z"/>
	</g>
	<g>
		<path class="st0" d="M400.3,832.3c0,1.7-0.5,3-1.4,3.8c-0.9,0.9-2.2,1.3-3.8,1.3c-0.9,0-1.7-0.1-2.5-0.3s-1.4-0.4-1.9-0.6l0.9-2.2
			c0.4,0.2,0.8,0.4,1.3,0.5c0.5,0.1,1,0.2,1.6,0.2c0.9,0,1.5-0.2,1.9-0.7c0.4-0.4,0.6-1,0.6-1.7v-0.5c-0.2,0.1-0.5,0.2-0.8,0.3
			c-0.3,0.1-0.8,0.1-1.3,0.1c-0.7,0-1.4-0.1-2-0.4s-1.1-0.7-1.5-1.2c-0.4-0.5-0.8-1.1-1-1.8c-0.2-0.7-0.4-1.5-0.4-2.4
			c0-2,0.5-3.6,1.6-4.7s2.6-1.7,4.6-1.7c0.8,0,1.5,0.1,2.3,0.2s1.4,0.4,1.9,0.6V832.3z M396.9,822.6c-0.3-0.1-0.7-0.2-1.1-0.2
			c-0.9,0-1.5,0.4-1.9,1.1s-0.6,1.7-0.6,3.1c0,1.3,0.2,2.3,0.6,3s1,1,1.8,1c0.2,0,0.4,0,0.6-0.1c0.2-0.1,0.4-0.1,0.5-0.2V822.6z"/>
	</g>
	<g>
		<path class="st0" d="M408.6,822.8c-0.2-0.1-0.4-0.2-0.6-0.2c-0.2,0-0.4-0.1-0.6-0.1c-0.5,0-0.8,0.1-1,0.2v9.7h-3.4v-11.2
			c0.6-0.3,1.2-0.5,2-0.6c0.8-0.2,1.7-0.2,2.8-0.2c0.3,0,0.5,0,0.8,0c0.3,0,0.5,0,0.7,0.1L408.6,822.8z"/>
	</g>
	<g>
		<path class="st0" d="M420.1,831.8c-0.5,0.3-1.2,0.5-1.9,0.6c-0.8,0.2-1.7,0.2-2.7,0.2c-1.7,0-3-0.3-3.9-0.9
			c-0.9-0.6-1.3-1.6-1.3-2.8c0-0.7,0.2-1.3,0.5-1.8c0.4-0.5,0.8-0.9,1.4-1.2c0.6-0.3,1.3-0.6,2.1-0.7c0.8-0.2,1.7-0.3,2.6-0.4v-0.5
			c0-0.6-0.2-1-0.5-1.3c-0.4-0.3-0.9-0.4-1.5-0.4c-0.6,0-1.1,0.1-1.7,0.2c-0.6,0.1-1.1,0.3-1.5,0.5l-0.7-2c0.6-0.3,1.3-0.5,2.1-0.6
			c0.8-0.2,1.6-0.3,2.4-0.3c0.7,0,1.4,0.1,2,0.2c0.6,0.2,1.1,0.4,1.5,0.8c0.4,0.3,0.7,0.8,1,1.3c0.2,0.6,0.3,1.2,0.3,2V831.8z
			 M416.9,826.3c-1.1,0.1-2,0.4-2.6,0.7c-0.6,0.4-0.9,1-0.9,1.7c0,0.7,0.2,1.2,0.6,1.5s0.9,0.5,1.6,0.5c0.5,0,1-0.1,1.3-0.2V826.3z"
			/>
	</g>
	<g>
		<path class="st0" d="M428.7,832.3c-0.2,0.1-0.4,0.2-0.7,0.2c-0.3,0.1-0.6,0.1-1,0.1c-1.1,0-2-0.3-2.6-0.9s-0.9-1.5-0.9-2.6v-6.3
			h-1.3v-2.2h1.3v-2.5l3.4-0.9v3.4h1.8v2.2h-1.8v6.3c0,0.4,0.1,0.7,0.3,0.9s0.5,0.3,0.8,0.3c0.3,0,0.5,0,0.7-0.1V832.3z"/>
	</g>
	<g>
		<path class="st0" d="M434.4,817.2c0,0.5-0.2,0.8-0.5,1.2c-0.4,0.3-0.8,0.5-1.3,0.5c-0.5,0-0.9-0.2-1.3-0.5
			c-0.4-0.3-0.5-0.7-0.5-1.2c0-0.5,0.2-0.8,0.5-1.1c0.4-0.3,0.8-0.5,1.3-0.5c0.5,0,0.9,0.2,1.3,0.5
			C434.2,816.4,434.4,816.8,434.4,817.2z M430.8,832.5v-11.9h3.4v11.9H430.8z"/>
	</g>
	<g>
		<path class="st0" d="M447.2,826.5c0,0.9-0.1,1.7-0.3,2.5c-0.2,0.8-0.6,1.4-1,2c-0.4,0.6-1,1-1.7,1.3c-0.7,0.3-1.4,0.5-2.3,0.5
			c-0.9,0-1.7-0.2-2.3-0.5c-0.7-0.3-1.2-0.7-1.7-1.3c-0.4-0.5-0.8-1.2-1-2c-0.2-0.8-0.3-1.6-0.3-2.5s0.1-1.7,0.3-2.5
			c0.2-0.8,0.6-1.4,1-1.9c0.4-0.5,1-1,1.7-1.3c0.7-0.3,1.4-0.5,2.3-0.5c0.9,0,1.7,0.2,2.3,0.5c0.7,0.3,1.2,0.7,1.7,1.3
			s0.8,1.2,1,1.9C447.1,824.8,447.2,825.7,447.2,826.5z M443.8,826.5c0-0.6,0-1.1-0.1-1.6c-0.1-0.5-0.2-0.9-0.3-1.3
			c-0.1-0.4-0.3-0.6-0.6-0.8c-0.2-0.2-0.5-0.3-0.9-0.3c-0.4,0-0.7,0.1-0.9,0.3c-0.2,0.2-0.4,0.5-0.6,0.8c-0.1,0.4-0.3,0.8-0.3,1.3
			c-0.1,0.5-0.1,1-0.1,1.6c0,0.6,0,1.1,0.1,1.6c0.1,0.5,0.2,0.9,0.3,1.3c0.1,0.4,0.3,0.6,0.6,0.8c0.2,0.2,0.5,0.3,0.9,0.3
			c0.4,0,0.7-0.1,0.9-0.3c0.2-0.2,0.4-0.5,0.6-0.8s0.3-0.8,0.3-1.3C443.7,827.6,443.8,827.1,443.8,826.5z"/>
	</g>
	<g>
		<path class="st0" d="M456.1,832.5v-8c0-0.7-0.1-1.1-0.4-1.5c-0.3-0.3-0.8-0.5-1.5-0.5c-0.3,0-0.5,0-0.7,0.1s-0.4,0.1-0.6,0.2v9.7
			h-3.4v-11.2c1.3-0.6,2.9-0.9,4.8-0.9s3.2,0.4,4.1,1.1s1.3,1.7,1.3,3v8H456.1z"/>
	</g>
</g>
<g>
	<g>
		<path class="st14" d="M559.1,203.4c0,1.1-0.1,2.1-0.3,3.1s-0.6,1.8-1,2.5s-1.1,1.2-1.8,1.6c-0.7,0.4-1.6,0.6-2.5,0.6
			c-1,0-1.8-0.2-2.5-0.6c-0.7-0.4-1.3-0.9-1.8-1.6s-0.8-1.5-1-2.5s-0.3-2-0.3-3.1c0-1.1,0.1-2.1,0.3-3.1s0.6-1.8,1-2.5
			c0.5-0.7,1.1-1.2,1.8-1.6c0.7-0.4,1.6-0.6,2.5-0.6c1,0,1.8,0.2,2.5,0.6c0.7,0.4,1.3,0.9,1.8,1.6c0.5,0.7,0.8,1.5,1,2.5
			S559.1,202.3,559.1,203.4z M556.3,203.3c0-0.8,0-1.6-0.1-2.3c-0.1-0.7-0.3-1.3-0.5-1.9c-0.2-0.5-0.5-0.9-0.9-1.2
			c-0.4-0.3-0.8-0.5-1.4-0.5c-0.6,0-1,0.2-1.4,0.5c-0.4,0.3-0.7,0.7-0.9,1.2c-0.2,0.5-0.4,1.1-0.5,1.9c-0.1,0.7-0.1,1.5-0.1,2.3
			s0,1.6,0.1,2.3c0.1,0.7,0.3,1.3,0.5,1.9c0.2,0.5,0.5,0.9,0.9,1.3c0.4,0.3,0.8,0.5,1.4,0.5c0.5,0,1-0.2,1.4-0.5
			c0.4-0.3,0.7-0.7,0.9-1.3s0.4-1.1,0.5-1.9C556.3,204.9,556.3,204.1,556.3,203.3z"/>
	</g>
	<g>
		<path class="st14" d="M566.6,197.7V211h-2.8v-13.3h-2.9v-1.9h8.7v1.9H566.6z"/>
	</g>
</g>
<g>
	<g>
		<path class="st14" d="M323.1,117.9c0,0.7-0.1,1.3-0.3,1.8s-0.6,1.1-1,1.5s-1.1,0.8-1.8,1c-0.7,0.2-1.6,0.4-2.6,0.4
			c-0.2,0-0.4,0-0.7,0c-0.2,0-0.4,0-0.6-0.1v6h-2.7V114c0.6-0.2,1.2-0.5,1.9-0.6c0.7-0.2,1.5-0.2,2.3-0.2c1,0,1.8,0.1,2.5,0.4
			s1.3,0.6,1.7,1c0.4,0.4,0.8,0.9,1,1.5C323,116.6,323.1,117.2,323.1,117.9z M320.4,117.9c0-1-0.2-1.7-0.7-2.2
			c-0.4-0.5-1.2-0.8-2.2-0.8c-0.3,0-0.5,0-0.8,0.1c-0.3,0-0.5,0.1-0.7,0.2v5.9c0.2,0,0.4,0.1,0.6,0.1c0.2,0,0.4,0,0.7,0
			c0.6,0,1.1-0.1,1.4-0.2c0.4-0.2,0.7-0.4,0.9-0.7c0.2-0.3,0.4-0.6,0.5-1C320.4,118.7,320.4,118.3,320.4,117.9z"/>
	</g>
	<g>
		<path class="st14" d="M330.5,118.5c-0.4-0.2-0.8-0.2-1.2-0.2c-0.2,0-0.5,0-0.7,0.1c-0.2,0-0.4,0.1-0.6,0.2v10.1h-2.7v-11.2
			c0.5-0.2,1.2-0.5,1.9-0.6s1.6-0.2,2.6-0.2c0.2,0,0.5,0,0.7,0c0.2,0,0.4,0,0.5,0L330.5,118.5z"/>
	</g>
	<g>
		<path class="st14" d="M342.4,122.6c0,0.9-0.1,1.7-0.3,2.5s-0.5,1.4-0.9,2c-0.4,0.5-0.9,1-1.6,1.3c-0.6,0.3-1.4,0.5-2.2,0.5
			s-1.6-0.2-2.2-0.5c-0.6-0.3-1.2-0.7-1.6-1.3c-0.4-0.6-0.7-1.2-0.9-2s-0.3-1.6-0.3-2.5s0.1-1.7,0.3-2.5s0.5-1.4,0.9-1.9
			c0.4-0.6,0.9-1,1.6-1.3c0.6-0.3,1.4-0.5,2.2-0.5s1.6,0.2,2.2,0.5c0.6,0.3,1.2,0.7,1.6,1.3c0.4,0.5,0.7,1.2,0.9,1.9
			S342.4,121.7,342.4,122.6z M339.7,122.6c0-0.6,0-1.2-0.1-1.7s-0.2-1-0.4-1.4c-0.2-0.4-0.4-0.7-0.7-0.9c-0.3-0.2-0.7-0.4-1.1-0.4
			c-0.4,0-0.8,0.1-1.1,0.3c-0.3,0.2-0.5,0.5-0.7,0.9c-0.2,0.4-0.3,0.9-0.4,1.4c-0.1,0.5-0.1,1.1-0.1,1.7c0,0.6,0,1.2,0.1,1.7
			c0.1,0.5,0.2,1,0.4,1.4c0.2,0.4,0.4,0.7,0.7,0.9c0.3,0.2,0.7,0.3,1.1,0.3c0.4,0,0.8-0.1,1.1-0.3c0.3-0.2,0.5-0.5,0.7-0.9
			c0.2-0.4,0.3-0.9,0.4-1.4C339.7,123.8,339.7,123.2,339.7,122.6z"/>
	</g>
	<g>
		<path class="st14" d="M352.1,128c-0.7,0.5-1.7,0.8-2.8,0.8c-0.7,0-1.4-0.1-2-0.4s-1.1-0.7-1.5-1.2s-0.7-1.2-1-1.9
			s-0.4-1.6-0.4-2.6c0-0.9,0.1-1.8,0.4-2.5c0.2-0.8,0.6-1.4,1-1.9c0.4-0.5,0.9-0.9,1.5-1.2c0.6-0.3,1.2-0.4,2-0.4
			c1.2,0,2.1,0.3,2.8,0.8l-0.6,1.5c-0.2-0.2-0.5-0.3-0.8-0.4s-0.6-0.1-0.9-0.1c-0.4,0-0.8,0.1-1.1,0.3s-0.6,0.5-0.8,0.9
			s-0.4,0.8-0.5,1.4c-0.1,0.5-0.2,1.1-0.2,1.7s0.1,1.2,0.2,1.7s0.3,1,0.5,1.4c0.2,0.4,0.5,0.7,0.8,0.9s0.7,0.3,1.1,0.3
			c0.3,0,0.6,0,0.9-0.1c0.3-0.1,0.5-0.2,0.7-0.4L352.1,128z"/>
	</g>
	<g>
		<path class="st14" d="M356.3,123.6c0.1,1,0.4,1.9,1,2.4c0.6,0.6,1.3,0.9,2.3,0.9c0.5,0,1.1-0.1,1.6-0.2c0.5-0.1,1-0.3,1.3-0.5
			l0.6,1.7c-0.5,0.2-1.1,0.5-1.8,0.6c-0.7,0.2-1.4,0.2-2.2,0.2c-0.9,0-1.7-0.2-2.4-0.5s-1.3-0.7-1.7-1.3s-0.8-1.2-1.1-2
			c-0.2-0.8-0.4-1.6-0.4-2.5s0.1-1.8,0.3-2.5c0.2-0.8,0.6-1.4,1-1.9s1-0.9,1.6-1.2c0.6-0.3,1.3-0.4,2.2-0.4c1.6,0,2.7,0.5,3.6,1.5
			c0.8,1,1.2,2.4,1.2,4.3v0.4L356.3,123.6z M361.1,121.5c0-1.1-0.2-1.9-0.6-2.5c-0.4-0.6-1-0.9-1.8-0.9c-0.9,0-1.5,0.4-1.9,1.1
			c-0.4,0.7-0.6,1.7-0.6,2.8v0.2L361.1,121.5z"/>
	</g>
	<g>
		<path class="st14" d="M373.2,125.1c0,0.5-0.1,1-0.3,1.4c-0.2,0.4-0.5,0.8-0.9,1.2c-0.4,0.3-0.8,0.6-1.4,0.8s-1.1,0.3-1.8,0.3
			c-0.6,0-1.3-0.1-1.9-0.2c-0.6-0.2-1.1-0.4-1.6-0.6l0.7-1.7c0.4,0.2,0.8,0.4,1.2,0.5c0.4,0.1,0.8,0.2,1.2,0.2
			c0.6,0,1.1-0.2,1.4-0.5c0.3-0.3,0.5-0.7,0.5-1.2c0-0.4-0.1-0.7-0.4-1c-0.2-0.2-0.5-0.5-0.9-0.6c-0.4-0.2-0.7-0.4-1.2-0.5
			s-0.8-0.4-1.2-0.6c-0.4-0.3-0.6-0.6-0.9-1c-0.2-0.4-0.4-0.9-0.4-1.6c0-0.5,0.1-1,0.3-1.4c0.2-0.4,0.5-0.8,0.8-1.1
			c0.3-0.3,0.8-0.5,1.2-0.7c0.5-0.2,1-0.3,1.6-0.3c1.3,0,2.4,0.3,3.3,0.9l-0.7,1.5c-0.3-0.2-0.7-0.4-1-0.5c-0.4-0.1-0.7-0.2-1.1-0.2
			c-0.6,0-1,0.2-1.3,0.5c-0.3,0.3-0.4,0.7-0.4,1.1c0,0.4,0.1,0.7,0.4,0.9c0.2,0.2,0.5,0.4,0.9,0.6c0.4,0.2,0.8,0.4,1.2,0.5
			c0.4,0.2,0.8,0.4,1.2,0.7c0.4,0.3,0.7,0.6,0.9,1S373.2,124.5,373.2,125.1z"/>
	</g>
	<g>
		<path class="st14" d="M382.7,125.1c0,0.5-0.1,1-0.3,1.4c-0.2,0.4-0.5,0.8-0.9,1.2c-0.4,0.3-0.8,0.6-1.4,0.8s-1.1,0.3-1.8,0.3
			c-0.6,0-1.3-0.1-1.9-0.2c-0.6-0.2-1.1-0.4-1.6-0.6l0.7-1.7c0.4,0.2,0.8,0.4,1.2,0.5c0.4,0.1,0.8,0.2,1.2,0.2
			c0.6,0,1.1-0.2,1.4-0.5c0.3-0.3,0.5-0.7,0.5-1.2c0-0.4-0.1-0.7-0.4-1c-0.2-0.2-0.5-0.5-0.9-0.6c-0.4-0.2-0.7-0.4-1.2-0.5
			s-0.8-0.4-1.2-0.6c-0.4-0.3-0.6-0.6-0.9-1c-0.2-0.4-0.4-0.9-0.4-1.6c0-0.5,0.1-1,0.3-1.4c0.2-0.4,0.5-0.8,0.8-1.1
			c0.3-0.3,0.8-0.5,1.2-0.7c0.5-0.2,1-0.3,1.6-0.3c1.3,0,2.4,0.3,3.3,0.9l-0.7,1.5c-0.3-0.2-0.7-0.4-1-0.5c-0.4-0.1-0.7-0.2-1.1-0.2
			c-0.6,0-1,0.2-1.3,0.5c-0.3,0.3-0.4,0.7-0.4,1.1c0,0.4,0.1,0.7,0.4,0.9c0.2,0.2,0.5,0.4,0.9,0.6c0.4,0.2,0.8,0.4,1.2,0.5
			c0.4,0.2,0.8,0.4,1.2,0.7c0.4,0.3,0.7,0.6,0.9,1S382.7,124.5,382.7,125.1z"/>
	</g>
</g>
<g>
	<g>
		<path class="st14" d="M240.5,211v-15.1h2.8V211H240.5z"/>
	</g>
	<g>
		<path class="st14" d="M251.4,197.7V211h-2.8v-13.3h-2.9v-1.9h8.7v1.9H251.4z"/>
	</g>
</g>
<g>
	<g>
		<path class="st14" d="M160.5,543.8c0,0.7-0.1,1.3-0.4,1.9c-0.2,0.6-0.6,1.1-1,1.5c-0.4,0.4-1,0.7-1.6,1c-0.6,0.2-1.3,0.3-2.1,0.3
			s-1.4-0.1-2.1-0.3c-0.6-0.2-1.2-0.5-1.6-1c-0.4-0.4-0.8-0.9-1-1.5c-0.2-0.6-0.4-1.2-0.4-1.9v-10.7h2.8v10.8c0,0.8,0.2,1.4,0.7,1.8
			c0.5,0.4,1,0.6,1.7,0.6c0.6,0,1.2-0.2,1.7-0.6c0.5-0.4,0.7-1,0.7-1.8v-10.8h2.6V543.8z"/>
	</g>
	<g>
		<path class="st14" d="M170.6,548.2l-2.6-5.8h0l-2.7,5.8h-2.9l4.1-7.7l-3.7-7.4h2.9l2.4,5.3h0l2.5-5.3h2.7l-3.8,7.1l4.2,8H170.6z"
			/>
	</g>
</g>
<g>
	<g>
		<path class="st14" d="M56.7,659.7c0,0.7-0.1,1.4-0.4,1.9c-0.3,0.6-0.7,1-1.2,1.4c-0.5,0.4-1.1,0.6-1.8,0.8
			c-0.7,0.2-1.5,0.3-2.4,0.3c-0.9,0-1.7-0.1-2.5-0.2c-0.8-0.2-1.4-0.4-2-0.6v-13.9c0.6-0.3,1.2-0.5,2-0.6c0.7-0.1,1.5-0.2,2.3-0.2
			c0.9,0,1.7,0.1,2.4,0.3c0.7,0.2,1.2,0.5,1.7,0.8s0.8,0.8,1,1.2c0.2,0.5,0.3,1,0.3,1.6c0,0.9-0.3,1.7-0.8,2.2s-1.2,1-2,1.2v0
			c0.4,0.1,0.9,0.3,1.3,0.5c0.4,0.2,0.7,0.5,1.1,0.8c0.3,0.3,0.6,0.7,0.7,1.1S56.7,659.3,56.7,659.7z M53.5,652.6
			c0-0.8-0.2-1.4-0.7-1.8c-0.4-0.4-1.2-0.6-2.1-0.6c-0.3,0-0.6,0-0.9,0.1c-0.3,0-0.5,0.1-0.8,0.2v4.9h1c1.2,0,2.1-0.2,2.7-0.7
			C53.2,654.2,53.5,653.5,53.5,652.6z M53.9,659.7c0-1.1-0.3-1.8-1-2.3c-0.6-0.5-1.6-0.7-2.9-0.7h-1v5.5c0.4,0.2,1,0.3,1.7,0.3
			c0.9,0,1.7-0.2,2.2-0.6S53.9,660.7,53.9,659.7z"/>
	</g>
	<g>
		<path class="st14" d="M64.2,653.8c-0.4-0.2-0.8-0.2-1.2-0.2c-0.2,0-0.5,0-0.7,0.1c-0.2,0-0.4,0.1-0.6,0.2v10.1h-2.7v-11.2
			c0.5-0.2,1.2-0.5,1.9-0.6c0.7-0.2,1.6-0.2,2.6-0.2c0.2,0,0.5,0,0.7,0c0.2,0,0.4,0,0.5,0L64.2,653.8z"/>
	</g>
	<g>
		<path class="st14" d="M75.1,663.3c-0.5,0.2-1.1,0.5-1.8,0.6s-1.5,0.2-2.4,0.2c-1.6,0-2.8-0.3-3.6-0.9c-0.8-0.6-1.2-1.5-1.2-2.8
			c0-0.7,0.2-1.3,0.5-1.8c0.3-0.5,0.8-0.9,1.4-1.3c0.6-0.3,1.3-0.6,2.1-0.8s1.7-0.3,2.6-0.4v-0.6c0-0.7-0.2-1.2-0.6-1.5
			c-0.4-0.3-0.9-0.5-1.7-0.5c-0.5,0-1.1,0.1-1.6,0.2c-0.5,0.1-1,0.3-1.5,0.5l-0.6-1.6c0.6-0.2,1.2-0.5,1.9-0.6s1.4-0.3,2.1-0.3
			c1.4,0,2.4,0.3,3.2,1c0.8,0.7,1.2,1.7,1.2,3.1V663.3z M72.6,657.5c-1.3,0.1-2.4,0.4-3,0.9c-0.7,0.4-1,1.1-1,2
			c0,0.7,0.2,1.3,0.6,1.7s1,0.6,1.9,0.6c0.3,0,0.6,0,0.9-0.1s0.5-0.1,0.7-0.2V657.5z"/>
	</g>
	<g>
		<path class="st14" d="M84.7,663.9v-8.1c0-0.8-0.2-1.4-0.5-1.7c-0.3-0.4-0.9-0.6-1.8-0.6c-0.7,0-1.3,0.1-1.7,0.3v10.1H78v-11.2
			c0.6-0.3,1.3-0.5,2-0.6c0.7-0.2,1.5-0.2,2.4-0.2c1.7,0,3,0.3,3.8,1c0.8,0.7,1.2,1.7,1.2,2.9v8.1H84.7z"/>
	</g>
	<g>
		<path class="st14" d="M99.4,663.3c-0.5,0.3-1.1,0.5-1.8,0.6c-0.7,0.2-1.5,0.2-2.4,0.2c-0.9,0-1.7-0.1-2.3-0.4
			c-0.7-0.3-1.2-0.7-1.7-1.2c-0.5-0.5-0.8-1.2-1.1-1.9c-0.2-0.7-0.4-1.6-0.4-2.5c0-0.9,0.1-1.7,0.3-2.5s0.6-1.4,1-2s1-1,1.7-1.3
			c0.7-0.3,1.4-0.5,2.3-0.5c0.3,0,0.6,0,0.9,0.1c0.3,0,0.6,0.1,0.8,0.2v-5.5h2.7V663.3z M96.8,653.6c-0.2-0.1-0.4-0.1-0.6-0.1
			s-0.4,0-0.6,0c-0.6,0-1.1,0.1-1.4,0.4c-0.4,0.2-0.7,0.6-0.9,1c-0.2,0.4-0.4,0.9-0.5,1.4c-0.1,0.5-0.2,1.1-0.2,1.8
			c0,0.7,0.1,1.3,0.2,1.8c0.1,0.5,0.3,1,0.5,1.4s0.5,0.7,0.9,0.9s0.8,0.3,1.3,0.3c0.6,0,1.1-0.1,1.4-0.2V653.6z"/>
	</g>
	<g>
		<path class="st14" d="M118.1,655.8v7.5c-0.5,0.3-1.2,0.5-2,0.7c-0.8,0.2-1.6,0.2-2.5,0.2c-1.8,0-3.3-0.4-4.3-1.1
			c-1-0.7-1.5-1.8-1.5-3.2c0-0.6,0.1-1.1,0.3-1.5c0.2-0.4,0.5-0.8,0.8-1.2s0.7-0.6,1.2-0.9c0.4-0.3,0.9-0.5,1.4-0.6v0
			c-0.9-0.3-1.6-0.7-2.1-1.3c-0.5-0.6-0.7-1.2-0.7-2.1c0-0.6,0.1-1.1,0.4-1.6c0.2-0.5,0.6-0.9,1-1.2c0.4-0.3,0.9-0.6,1.4-0.7
			c0.5-0.2,1.1-0.3,1.8-0.3c0.7,0,1.3,0.1,1.9,0.2c0.6,0.1,1.1,0.4,1.6,0.6l-0.8,1.6c-0.3-0.2-0.6-0.3-1-0.4s-0.8-0.1-1.2-0.1
			c-0.7,0-1.2,0.2-1.7,0.5s-0.7,0.8-0.7,1.5c0,0.6,0.2,1.2,0.7,1.6s1.1,0.6,1.9,0.6c0.5,0,1.1,0,1.6-0.1s1.1-0.2,1.6-0.3l3-0.7
			l0.4,1.8L118.1,655.8z M115.4,656.1c-1.7,0.2-2.9,0.7-3.6,1.3c-0.8,0.6-1.1,1.4-1.1,2.5c0,0.8,0.3,1.4,0.8,1.9
			c0.5,0.5,1.3,0.7,2.3,0.7c0.3,0,0.6,0,0.9-0.1c0.3-0.1,0.5-0.1,0.8-0.2V656.1z"/>
	</g>
	<g>
		<path class="st14" d="M140.5,663.9l-0.9-10c0-0.3-0.1-0.6-0.1-0.9c0-0.3,0-0.6,0-0.9h0c-0.1,0.3-0.1,0.6-0.2,0.9
			c-0.1,0.3-0.2,0.6-0.2,0.9l-2.9,10h-1.5l-2.9-10c-0.1-0.3-0.2-0.6-0.2-0.9c-0.1-0.3-0.1-0.6-0.2-0.9h0c0,0.3,0,0.6,0,1
			s0,0.6-0.1,0.8l-1,10h-2.4l1.7-15.1h2.8l2.7,9.7c0.1,0.3,0.2,0.6,0.2,0.9s0.1,0.6,0.2,1h0c0.1-0.4,0.1-0.7,0.2-1
			c0.1-0.3,0.1-0.6,0.2-0.9l2.7-9.7h2.8l1.7,15.1H140.5z"/>
	</g>
	<g>
		<path class="st14" d="M154.2,663.3c-0.5,0.2-1.1,0.5-1.8,0.6s-1.5,0.2-2.4,0.2c-1.6,0-2.8-0.3-3.6-0.9c-0.8-0.6-1.2-1.5-1.2-2.8
			c0-0.7,0.2-1.3,0.5-1.8c0.3-0.5,0.8-0.9,1.4-1.3c0.6-0.3,1.3-0.6,2.1-0.8s1.7-0.3,2.6-0.4v-0.6c0-0.7-0.2-1.2-0.6-1.5
			c-0.4-0.3-0.9-0.5-1.7-0.5c-0.5,0-1.1,0.1-1.6,0.2c-0.5,0.1-1,0.3-1.5,0.5l-0.6-1.6c0.6-0.2,1.2-0.5,1.9-0.6s1.4-0.3,2.1-0.3
			c1.4,0,2.4,0.3,3.2,1c0.8,0.7,1.2,1.7,1.2,3.1V663.3z M151.6,657.5c-1.3,0.1-2.4,0.4-3,0.9c-0.7,0.4-1,1.1-1,2
			c0,0.7,0.2,1.3,0.6,1.7s1,0.6,1.9,0.6c0.3,0,0.6,0,0.9-0.1s0.5-0.1,0.7-0.2V657.5z"/>
	</g>
	<g>
		<path class="st14" d="M162.2,653.8c-0.4-0.2-0.8-0.2-1.2-0.2c-0.2,0-0.5,0-0.7,0.1c-0.2,0-0.4,0.1-0.6,0.2v10.1H157v-11.2
			c0.5-0.2,1.2-0.5,1.9-0.6c0.7-0.2,1.6-0.2,2.6-0.2c0.2,0,0.5,0,0.7,0c0.2,0,0.4,0,0.5,0L162.2,653.8z"/>
	</g>
	<g>
		<path class="st14" d="M171.3,663.9l-4.1-5.9h0v5.9h-2.6v-17.3h2.6v10.9h0l3.9-5.5h2.9l-4.4,5.6l4.8,6.3H171.3z"/>
	</g>
	<g>
		<path class="st14" d="M178.2,658.9c0.1,1,0.4,1.9,1,2.4c0.6,0.6,1.3,0.9,2.3,0.9c0.5,0,1.1-0.1,1.6-0.2c0.5-0.1,1-0.3,1.3-0.5
			l0.6,1.7c-0.5,0.2-1.1,0.5-1.8,0.6c-0.7,0.2-1.4,0.2-2.2,0.2c-0.9,0-1.7-0.2-2.4-0.5s-1.3-0.7-1.7-1.3c-0.5-0.5-0.8-1.2-1.1-2
			c-0.2-0.8-0.4-1.6-0.4-2.5c0-0.9,0.1-1.8,0.3-2.5c0.2-0.8,0.6-1.4,1-1.9c0.4-0.5,1-0.9,1.6-1.2c0.6-0.3,1.3-0.4,2.2-0.4
			c1.6,0,2.7,0.5,3.6,1.5c0.8,1,1.2,2.4,1.2,4.3v0.4L178.2,658.9z M182.9,656.8c0-1.1-0.2-1.9-0.6-2.5c-0.4-0.6-1-0.9-1.8-0.9
			c-0.9,0-1.5,0.4-1.9,1.1c-0.4,0.7-0.6,1.7-0.6,2.8v0.2L182.9,656.8z"/>
	</g>
	<g>
		<path class="st14" d="M193.2,663.8c-0.4,0.2-0.8,0.3-1.5,0.3c-1,0-1.8-0.3-2.3-0.8c-0.6-0.6-0.8-1.4-0.8-2.4v-7h-1.3V652h1.3v-2.6
			l2.7-0.7v3.4h1.9v1.7h-1.9v7c0,0.5,0.1,0.8,0.3,1.1c0.2,0.2,0.5,0.4,1,0.4c0.2,0,0.4,0,0.7-0.1V663.8z"/>
	</g>
	<g>
		<path class="st14" d="M198.4,648.7c0,0.4-0.1,0.7-0.4,1c-0.3,0.3-0.6,0.4-1.1,0.4c-0.4,0-0.8-0.1-1.1-0.4c-0.3-0.3-0.4-0.6-0.4-1
			c0-0.4,0.1-0.7,0.4-1c0.3-0.3,0.6-0.4,1.1-0.4c0.4,0,0.8,0.1,1.1,0.4C198.2,648,198.4,648.3,198.4,648.7z M195.6,663.9V652h2.7
			v11.9H195.6z"/>
	</g>
	<g>
		<path class="st14" d="M207.9,663.9v-8.1c0-0.8-0.2-1.4-0.5-1.7c-0.3-0.4-0.9-0.6-1.8-0.6c-0.7,0-1.3,0.1-1.7,0.3v10.1h-2.7v-11.2
			c0.6-0.3,1.3-0.5,2-0.6c0.7-0.2,1.5-0.2,2.4-0.2c1.7,0,3,0.3,3.8,1c0.8,0.7,1.2,1.7,1.2,2.9v8.1H207.9z"/>
	</g>
	<g>
		<path class="st14" d="M222.6,663.9c0,1.6-0.4,2.8-1.3,3.7c-0.9,0.8-2.1,1.3-3.6,1.3c-0.8,0-1.5-0.1-2.3-0.2s-1.3-0.4-1.8-0.6
			l0.7-1.8c0.4,0.2,0.8,0.4,1.3,0.5c0.5,0.1,1,0.2,1.6,0.2c1,0,1.7-0.3,2.1-0.8c0.4-0.5,0.6-1.2,0.6-2v-0.7
			c-0.2,0.1-0.5,0.2-0.9,0.3c-0.4,0.1-0.8,0.1-1.3,0.1c-0.7,0-1.4-0.1-2-0.4c-0.6-0.3-1.1-0.7-1.5-1.2c-0.4-0.5-0.7-1.1-1-1.8
			s-0.3-1.5-0.3-2.4c0-1,0.1-1.9,0.4-2.7c0.2-0.8,0.6-1.5,1.1-2c0.5-0.6,1.1-1,1.8-1.3c0.7-0.3,1.6-0.4,2.5-0.4
			c0.7,0,1.4,0.1,2.1,0.2c0.7,0.2,1.3,0.4,1.7,0.6V663.9z M220,653.6c-0.2-0.1-0.4-0.2-0.6-0.2c-0.2,0-0.5-0.1-0.8-0.1
			c-1,0-1.8,0.4-2.2,1.2c-0.5,0.8-0.7,2-0.7,3.4c0,1.4,0.2,2.5,0.7,3.2c0.4,0.7,1.2,1.1,2.1,1.1c0.3,0,0.6,0,0.8-0.1
			c0.3-0.1,0.5-0.2,0.7-0.3V653.6z"/>
	</g>
</g>
<g>
	<g>
		<path class="st14" d="M135.6,480.7c0,0.7-0.1,1.3-0.3,1.8c-0.2,0.6-0.6,1.1-1,1.5s-1.1,0.8-1.8,1c-0.7,0.2-1.6,0.4-2.6,0.4
			c-0.2,0-0.4,0-0.7,0c-0.2,0-0.4,0-0.6-0.1v6h-2.7v-14.5c0.6-0.2,1.2-0.5,1.9-0.6c0.7-0.2,1.5-0.2,2.3-0.2c1,0,1.8,0.1,2.5,0.4
			c0.7,0.2,1.3,0.6,1.7,1c0.4,0.4,0.8,0.9,1,1.5C135.5,479.4,135.6,480,135.6,480.7z M132.9,480.6c0-1-0.2-1.7-0.7-2.2
			c-0.4-0.5-1.2-0.8-2.2-0.8c-0.3,0-0.5,0-0.8,0.1c-0.3,0-0.5,0.1-0.7,0.2v5.9c0.2,0,0.4,0.1,0.6,0.1c0.2,0,0.4,0,0.7,0
			c0.6,0,1.1-0.1,1.4-0.2s0.7-0.4,0.9-0.7s0.4-0.6,0.5-1C132.9,481.5,132.9,481.1,132.9,480.6z"/>
	</g>
	<g>
		<path class="st14" d="M143.1,481.2c-0.4-0.2-0.8-0.2-1.2-0.2c-0.2,0-0.5,0-0.7,0.1c-0.2,0-0.4,0.1-0.6,0.2v10.1h-2.7v-11.2
			c0.5-0.2,1.2-0.5,1.9-0.6c0.7-0.2,1.6-0.2,2.6-0.2c0.2,0,0.5,0,0.7,0c0.2,0,0.4,0,0.5,0L143.1,481.2z"/>
	</g>
	<g>
		<path class="st14" d="M155,485.4c0,0.9-0.1,1.7-0.3,2.5c-0.2,0.8-0.5,1.4-0.9,2c-0.4,0.5-0.9,1-1.6,1.3c-0.6,0.3-1.4,0.5-2.2,0.5
			s-1.6-0.2-2.2-0.5c-0.6-0.3-1.2-0.7-1.6-1.3c-0.4-0.6-0.7-1.2-0.9-2c-0.2-0.8-0.3-1.6-0.3-2.5s0.1-1.7,0.3-2.5s0.5-1.4,0.9-1.9
			c0.4-0.5,0.9-1,1.6-1.3c0.6-0.3,1.4-0.5,2.2-0.5s1.6,0.2,2.2,0.5c0.6,0.3,1.2,0.7,1.6,1.3c0.4,0.6,0.7,1.2,0.9,1.9
			S155,484.5,155,485.4z M152.3,485.3c0-0.6,0-1.2-0.1-1.7c-0.1-0.5-0.2-1-0.4-1.4c-0.2-0.4-0.4-0.7-0.7-0.9
			c-0.3-0.2-0.7-0.4-1.1-0.4c-0.4,0-0.8,0.1-1.1,0.3c-0.3,0.2-0.5,0.5-0.7,0.9c-0.2,0.4-0.3,0.9-0.4,1.4c-0.1,0.5-0.1,1.1-0.1,1.7
			s0,1.2,0.1,1.7c0.1,0.5,0.2,1,0.4,1.4c0.2,0.4,0.4,0.7,0.7,0.9c0.3,0.2,0.7,0.3,1.1,0.3c0.4,0,0.8-0.1,1.1-0.3
			c0.3-0.2,0.5-0.5,0.7-0.9c0.2-0.4,0.3-0.9,0.4-1.4S152.3,485.9,152.3,485.3z"/>
	</g>
	<g>
		<path class="st14" d="M166.6,490.7c-0.5,0.3-1.1,0.5-1.8,0.6c-0.7,0.2-1.5,0.2-2.4,0.2c-0.9,0-1.7-0.1-2.3-0.4s-1.2-0.7-1.7-1.2
			c-0.5-0.5-0.8-1.2-1.1-1.9c-0.2-0.7-0.4-1.6-0.4-2.5c0-0.9,0.1-1.7,0.3-2.5c0.2-0.8,0.6-1.4,1-2s1-1,1.7-1.3
			c0.7-0.3,1.4-0.5,2.3-0.5c0.3,0,0.6,0,0.9,0.1s0.6,0.1,0.8,0.2V474h2.7V490.7z M163.9,481c-0.2-0.1-0.4-0.1-0.6-0.1
			c-0.2,0-0.4,0-0.6,0c-0.6,0-1.1,0.1-1.4,0.4s-0.7,0.6-0.9,1c-0.2,0.4-0.4,0.9-0.5,1.4c-0.1,0.5-0.2,1.1-0.2,1.8
			c0,0.7,0.1,1.3,0.2,1.8c0.1,0.5,0.3,1,0.5,1.4s0.5,0.7,0.9,0.9c0.4,0.2,0.8,0.3,1.3,0.3c0.6,0,1.1-0.1,1.4-0.2V481z"/>
	</g>
	<g>
		<path class="st14" d="M178.7,490.7c-0.5,0.2-1.2,0.5-2,0.6c-0.8,0.2-1.6,0.3-2.5,0.3c-1.6,0-2.8-0.3-3.5-1
			c-0.8-0.6-1.2-1.7-1.2-3.1v-8.1h2.7v8.2c0,1.4,0.7,2.1,2.1,2.1c0.3,0,0.6,0,0.9-0.1c0.3-0.1,0.6-0.1,0.8-0.3v-10h2.7V490.7z"/>
	</g>
	<g>
		<path class="st14" d="M188.7,490.7c-0.7,0.5-1.7,0.8-2.8,0.8c-0.7,0-1.4-0.1-2-0.4s-1.1-0.7-1.5-1.2c-0.4-0.5-0.7-1.2-1-1.9
			c-0.2-0.8-0.4-1.6-0.4-2.6c0-0.9,0.1-1.8,0.4-2.5c0.2-0.8,0.6-1.4,1-1.9c0.4-0.5,0.9-0.9,1.5-1.2c0.6-0.3,1.2-0.4,2-0.4
			c1.2,0,2.1,0.3,2.8,0.8l-0.6,1.5c-0.2-0.2-0.5-0.3-0.8-0.4s-0.6-0.1-0.9-0.1c-0.4,0-0.8,0.1-1.1,0.3c-0.3,0.2-0.6,0.5-0.8,0.9
			c-0.2,0.4-0.4,0.8-0.5,1.4c-0.1,0.5-0.2,1.1-0.2,1.7c0,0.6,0.1,1.2,0.2,1.7s0.3,1,0.5,1.4s0.5,0.7,0.8,0.9
			c0.3,0.2,0.7,0.3,1.1,0.3c0.3,0,0.6,0,0.9-0.1c0.3-0.1,0.5-0.2,0.7-0.4L188.7,490.7z"/>
	</g>
	<g>
		<path class="st14" d="M196.1,491.2c-0.4,0.2-0.8,0.3-1.5,0.3c-1,0-1.8-0.3-2.3-0.8c-0.6-0.6-0.8-1.4-0.8-2.4v-7h-1.3v-1.7h1.3
			v-2.6l2.7-0.7v3.4h1.9v1.7h-1.9v7c0,0.5,0.1,0.8,0.3,1.1c0.2,0.2,0.5,0.4,1,0.4c0.2,0,0.4,0,0.7-0.1V491.2z"/>
	</g>
</g>
<g>
	<g>
		<path class="st14" d="M153.7,423.2c0,0.6-0.1,1.2-0.4,1.8c-0.2,0.5-0.6,1-1,1.4c-0.4,0.4-1,0.7-1.6,0.9s-1.3,0.3-2.1,0.3
			c-0.8,0-1.5-0.1-2.2-0.2c-0.7-0.2-1.3-0.4-1.8-0.6l0.7-1.9c0.4,0.2,0.9,0.4,1.4,0.5c0.5,0.1,1,0.2,1.5,0.2c0.8,0,1.4-0.2,1.9-0.6
			s0.6-0.9,0.6-1.5c0-0.5-0.1-1-0.4-1.3c-0.3-0.3-0.7-0.6-1.1-0.9c-0.4-0.3-0.9-0.5-1.4-0.8c-0.5-0.2-1-0.5-1.4-0.9
			c-0.4-0.4-0.8-0.8-1.1-1.3c-0.3-0.5-0.4-1.2-0.4-2c0-0.6,0.1-1.2,0.4-1.7c0.2-0.5,0.6-1,1-1.3c0.4-0.4,0.9-0.7,1.5-0.9
			c0.6-0.2,1.2-0.3,2-0.3c0.7,0,1.3,0.1,1.9,0.2c0.6,0.2,1.1,0.4,1.6,0.6l-0.7,1.7c-0.3-0.2-0.7-0.3-1.2-0.5
			c-0.4-0.1-0.9-0.2-1.3-0.2c-0.7,0-1.3,0.2-1.7,0.5c-0.4,0.4-0.6,0.9-0.6,1.5c0,0.5,0.2,1,0.5,1.3c0.3,0.3,0.7,0.6,1.1,0.9
			c0.4,0.3,0.9,0.5,1.5,0.7s1,0.5,1.5,0.9s0.8,0.8,1.1,1.3S153.7,422.3,153.7,423.2z"/>
	</g>
	<g>
		<path class="st14" d="M161.5,427.3c-0.4,0.2-0.8,0.3-1.5,0.3c-1,0-1.8-0.3-2.3-0.8c-0.6-0.6-0.8-1.4-0.8-2.4v-7h-1.3v-1.7h1.3
			v-2.6l2.7-0.7v3.4h1.9v1.7h-1.9v7c0,0.5,0.1,0.8,0.3,1.1c0.2,0.2,0.5,0.4,1,0.4c0.2,0,0.4,0,0.7-0.1V427.3z"/>
	</g>
	<g>
		<path class="st14" d="M168.9,417.3c-0.4-0.2-0.8-0.2-1.2-0.2c-0.2,0-0.5,0-0.7,0.1c-0.2,0-0.4,0.1-0.6,0.2v10.1h-2.7v-11.2
			c0.5-0.2,1.2-0.5,1.9-0.6s1.6-0.2,2.6-0.2c0.2,0,0.5,0,0.7,0c0.2,0,0.4,0,0.5,0L168.9,417.3z"/>
	</g>
	<g>
		<path class="st14" d="M179.8,426.8c-0.5,0.2-1.1,0.5-1.8,0.6s-1.5,0.2-2.4,0.2c-1.6,0-2.8-0.3-3.6-0.9c-0.8-0.6-1.2-1.5-1.2-2.8
			c0-0.7,0.2-1.3,0.5-1.8c0.3-0.5,0.8-0.9,1.4-1.3c0.6-0.3,1.3-0.6,2.1-0.8s1.7-0.3,2.6-0.4V419c0-0.7-0.2-1.2-0.6-1.5
			c-0.4-0.3-0.9-0.5-1.7-0.5c-0.5,0-1.1,0.1-1.6,0.2s-1,0.3-1.5,0.5l-0.6-1.6c0.6-0.2,1.2-0.5,1.9-0.6s1.4-0.3,2.1-0.3
			c1.4,0,2.4,0.3,3.2,1c0.8,0.7,1.2,1.7,1.2,3.1V426.8z M177.3,420.9c-1.3,0.1-2.4,0.4-3,0.9c-0.7,0.4-1,1.1-1,2
			c0,0.7,0.2,1.3,0.6,1.7c0.4,0.4,1,0.6,1.9,0.6c0.3,0,0.6,0,0.9-0.1s0.5-0.1,0.7-0.2V420.9z"/>
	</g>
	<g>
		<path class="st14" d="M188,427.3c-0.4,0.2-0.8,0.3-1.5,0.3c-1,0-1.8-0.3-2.3-0.8c-0.6-0.6-0.8-1.4-0.8-2.4v-7h-1.3v-1.7h1.3v-2.6
			l2.7-0.7v3.4h1.9v1.7h-1.9v7c0,0.5,0.1,0.8,0.3,1.1c0.2,0.2,0.5,0.4,1,0.4c0.2,0,0.4,0,0.7-0.1V427.3z"/>
	</g>
	<g>
		<path class="st14" d="M192.4,422.4c0.1,1,0.4,1.9,1,2.4c0.6,0.6,1.3,0.9,2.3,0.9c0.5,0,1.1-0.1,1.6-0.2s1-0.3,1.3-0.5l0.6,1.7
			c-0.5,0.2-1.1,0.5-1.8,0.6c-0.7,0.2-1.4,0.2-2.2,0.2c-0.9,0-1.7-0.2-2.4-0.5c-0.7-0.3-1.3-0.7-1.7-1.3s-0.8-1.2-1.1-2
			c-0.2-0.8-0.4-1.6-0.4-2.5s0.1-1.8,0.3-2.5c0.2-0.8,0.6-1.4,1-1.9c0.4-0.5,1-0.9,1.6-1.2c0.6-0.3,1.3-0.4,2.2-0.4
			c1.6,0,2.7,0.5,3.6,1.5c0.8,1,1.2,2.4,1.2,4.3v0.4L192.4,422.4z M197.1,420.3c0-1.1-0.2-1.9-0.6-2.5c-0.4-0.6-1-0.9-1.8-0.9
			c-0.9,0-1.5,0.4-1.9,1.1c-0.4,0.7-0.6,1.7-0.6,2.8v0.2L197.1,420.3z"/>
	</g>
	<g>
		<path class="st14" d="M211.4,427.4c0,1.6-0.4,2.8-1.3,3.7c-0.9,0.8-2.1,1.3-3.6,1.3c-0.8,0-1.5-0.1-2.3-0.2s-1.3-0.4-1.8-0.6
			l0.7-1.8c0.4,0.2,0.8,0.4,1.3,0.5s1,0.2,1.6,0.2c1,0,1.7-0.3,2.1-0.8c0.4-0.5,0.6-1.2,0.6-2V427c-0.2,0.1-0.5,0.2-0.9,0.3
			c-0.4,0.1-0.8,0.1-1.3,0.1c-0.7,0-1.4-0.1-2-0.4c-0.6-0.3-1.1-0.7-1.5-1.2c-0.4-0.5-0.7-1.1-1-1.8s-0.3-1.5-0.3-2.4
			c0-1,0.1-1.9,0.4-2.7c0.2-0.8,0.6-1.5,1.1-2s1.1-1,1.8-1.3c0.7-0.3,1.6-0.4,2.5-0.4c0.7,0,1.4,0.1,2.1,0.2s1.3,0.4,1.7,0.6V427.4z
			 M208.7,417.1c-0.2-0.1-0.4-0.2-0.6-0.2c-0.2,0-0.5-0.1-0.8-0.1c-1,0-1.8,0.4-2.2,1.2c-0.5,0.8-0.7,2-0.7,3.4
			c0,1.4,0.2,2.5,0.7,3.2c0.4,0.7,1.2,1.1,2.1,1.1c0.3,0,0.6,0,0.8-0.1c0.3-0.1,0.5-0.2,0.7-0.3V417.1z"/>
	</g>
	<g>
		<path class="st14" d="M218.1,432.1h-2.8l2-4.7l-4-11.9h2.9l2.1,7.8c0.1,0.5,0.2,1.1,0.3,1.7h0c0.1-0.6,0.2-1.1,0.3-1.7l2.2-7.8
			h2.6L218.1,432.1z"/>
	</g>
</g>
<g>
	<g>
		<path class="st14" d="M227.8,160.5c0,0.7-0.1,1.4-0.4,1.9s-0.7,1-1.2,1.4s-1.1,0.6-1.8,0.8c-0.7,0.2-1.5,0.3-2.4,0.3
			c-0.9,0-1.7-0.1-2.5-0.2c-0.8-0.2-1.4-0.4-2-0.6v-13.9c0.6-0.3,1.2-0.5,2-0.6c0.7-0.1,1.5-0.2,2.3-0.2c0.9,0,1.7,0.1,2.4,0.3
			c0.7,0.2,1.2,0.5,1.7,0.8c0.5,0.4,0.8,0.8,1,1.2c0.2,0.5,0.3,1,0.3,1.6c0,0.9-0.3,1.7-0.8,2.2c-0.5,0.6-1.2,1-2,1.2v0
			c0.4,0.1,0.9,0.3,1.3,0.5c0.4,0.2,0.7,0.5,1.1,0.8c0.3,0.3,0.6,0.7,0.7,1.1C227.8,159.5,227.8,160,227.8,160.5z M224.7,153.3
			c0-0.8-0.2-1.4-0.7-1.8c-0.4-0.4-1.2-0.6-2.1-0.6c-0.3,0-0.6,0-0.9,0.1s-0.5,0.1-0.8,0.2v4.9h1c1.2,0,2.1-0.2,2.7-0.7
			C224.4,154.9,224.7,154.2,224.7,153.3z M225.1,160.4c0-1.1-0.3-1.8-1-2.3c-0.6-0.5-1.6-0.7-2.9-0.7h-1v5.5c0.4,0.2,1,0.3,1.7,0.3
			c0.9,0,1.7-0.2,2.2-0.6S225.1,161.4,225.1,160.4z"/>
	</g>
	<g>
		<path class="st14" d="M239.4,163.9c-0.5,0.2-1.2,0.5-2,0.6c-0.8,0.2-1.6,0.3-2.5,0.3c-1.6,0-2.8-0.3-3.5-1
			c-0.8-0.6-1.2-1.7-1.2-3.1v-8.1h2.7v8.2c0,1.4,0.7,2.1,2.1,2.1c0.3,0,0.6,0,0.9-0.1c0.3-0.1,0.6-0.1,0.8-0.3v-10h2.7V163.9z"/>
	</g>
	<g>
		<path class="st14" d="M249.4,161.1c0,0.5-0.1,1-0.3,1.4c-0.2,0.4-0.5,0.8-0.9,1.2c-0.4,0.3-0.8,0.6-1.4,0.8
			c-0.5,0.2-1.1,0.3-1.8,0.3c-0.6,0-1.3-0.1-1.9-0.2c-0.6-0.2-1.1-0.4-1.6-0.6l0.7-1.7c0.4,0.2,0.8,0.4,1.2,0.5
			c0.4,0.1,0.8,0.2,1.2,0.2c0.6,0,1.1-0.2,1.4-0.5c0.3-0.3,0.5-0.7,0.5-1.2c0-0.4-0.1-0.7-0.4-1c-0.2-0.2-0.5-0.5-0.9-0.6
			c-0.4-0.2-0.7-0.4-1.2-0.5s-0.8-0.4-1.2-0.6c-0.4-0.3-0.6-0.6-0.9-1c-0.2-0.4-0.4-0.9-0.4-1.6c0-0.5,0.1-1,0.3-1.4
			c0.2-0.4,0.5-0.8,0.8-1.1c0.3-0.3,0.8-0.5,1.2-0.7c0.5-0.2,1-0.3,1.6-0.3c1.3,0,2.4,0.3,3.3,0.9l-0.7,1.5c-0.3-0.2-0.7-0.4-1-0.5
			c-0.4-0.1-0.7-0.2-1.1-0.2c-0.6,0-1,0.2-1.3,0.5c-0.3,0.3-0.4,0.7-0.4,1.1c0,0.4,0.1,0.7,0.4,0.9c0.2,0.2,0.5,0.4,0.9,0.6
			s0.8,0.4,1.2,0.5c0.4,0.2,0.8,0.4,1.2,0.7c0.4,0.3,0.7,0.6,0.9,1S249.4,160.5,249.4,161.1z"/>
	</g>
	<g>
		<path class="st14" d="M254.7,149.4c0,0.4-0.1,0.7-0.4,1c-0.3,0.3-0.6,0.4-1.1,0.4c-0.4,0-0.8-0.1-1.1-0.4c-0.3-0.3-0.4-0.6-0.4-1
			c0-0.4,0.1-0.7,0.4-1c0.3-0.3,0.6-0.4,1.1-0.4c0.4,0,0.8,0.1,1.1,0.4C254.6,148.7,254.7,149,254.7,149.4z M251.9,164.6v-11.9h2.7
			v11.9H251.9z"/>
	</g>
	<g>
		<path class="st14" d="M264.2,164.6v-8.1c0-0.8-0.2-1.4-0.5-1.7c-0.3-0.4-0.9-0.6-1.8-0.6c-0.7,0-1.3,0.1-1.7,0.3v10.1h-2.7v-11.2
			c0.6-0.3,1.3-0.5,2-0.6c0.7-0.2,1.5-0.2,2.4-0.2c1.7,0,3,0.3,3.8,1c0.8,0.7,1.2,1.7,1.2,2.9v8.1H264.2z"/>
	</g>
	<g>
		<path class="st14" d="M271.9,159.6c0.1,1,0.4,1.9,1,2.4c0.6,0.6,1.3,0.9,2.3,0.9c0.5,0,1.1-0.1,1.6-0.2c0.5-0.1,1-0.3,1.3-0.5
			l0.6,1.7c-0.5,0.2-1.1,0.5-1.8,0.6c-0.7,0.2-1.4,0.2-2.2,0.2c-0.9,0-1.7-0.2-2.4-0.5c-0.7-0.3-1.3-0.7-1.7-1.3
			c-0.5-0.5-0.8-1.2-1.1-2c-0.2-0.8-0.4-1.6-0.4-2.5c0-0.9,0.1-1.8,0.3-2.5s0.6-1.4,1-1.9s1-0.9,1.6-1.2c0.6-0.3,1.3-0.4,2.2-0.4
			c1.6,0,2.7,0.5,3.6,1.5c0.8,1,1.2,2.4,1.2,4.3v0.4L271.9,159.6z M276.7,157.5c0-1.1-0.2-1.9-0.6-2.5c-0.4-0.6-1-0.9-1.8-0.9
			c-0.9,0-1.5,0.4-1.9,1.1c-0.4,0.7-0.6,1.7-0.6,2.8v0.2L276.7,157.5z"/>
	</g>
	<g>
		<path class="st14" d="M288.8,161.1c0,0.5-0.1,1-0.3,1.4c-0.2,0.4-0.5,0.8-0.9,1.2c-0.4,0.3-0.8,0.6-1.4,0.8
			c-0.5,0.2-1.1,0.3-1.8,0.3c-0.6,0-1.3-0.1-1.9-0.2c-0.6-0.2-1.1-0.4-1.6-0.6l0.7-1.7c0.4,0.2,0.8,0.4,1.2,0.5
			c0.4,0.1,0.8,0.2,1.2,0.2c0.6,0,1.1-0.2,1.4-0.5c0.3-0.3,0.5-0.7,0.5-1.2c0-0.4-0.1-0.7-0.4-1c-0.2-0.2-0.5-0.5-0.9-0.6
			c-0.4-0.2-0.7-0.4-1.2-0.5s-0.8-0.4-1.2-0.6c-0.4-0.3-0.6-0.6-0.9-1c-0.2-0.4-0.4-0.9-0.4-1.6c0-0.5,0.1-1,0.3-1.4
			c0.2-0.4,0.5-0.8,0.8-1.1c0.3-0.3,0.8-0.5,1.2-0.7c0.5-0.2,1-0.3,1.6-0.3c1.3,0,2.4,0.3,3.3,0.9l-0.7,1.5c-0.3-0.2-0.7-0.4-1-0.5
			c-0.4-0.1-0.7-0.2-1.1-0.2c-0.6,0-1,0.2-1.3,0.5c-0.3,0.3-0.4,0.7-0.4,1.1c0,0.4,0.1,0.7,0.4,0.9c0.2,0.2,0.5,0.4,0.9,0.6
			s0.8,0.4,1.2,0.5c0.4,0.2,0.8,0.4,1.2,0.7c0.4,0.3,0.7,0.6,0.9,1S288.8,160.5,288.8,161.1z"/>
	</g>
	<g>
		<path class="st14" d="M298.3,161.1c0,0.5-0.1,1-0.3,1.4c-0.2,0.4-0.5,0.8-0.9,1.2c-0.4,0.3-0.8,0.6-1.4,0.8
			c-0.5,0.2-1.1,0.3-1.8,0.3c-0.6,0-1.3-0.1-1.9-0.2c-0.6-0.2-1.1-0.4-1.6-0.6l0.7-1.7c0.4,0.2,0.8,0.4,1.2,0.5
			c0.4,0.1,0.8,0.2,1.2,0.2c0.6,0,1.1-0.2,1.4-0.5c0.3-0.3,0.5-0.7,0.5-1.2c0-0.4-0.1-0.7-0.4-1c-0.2-0.2-0.5-0.5-0.9-0.6
			c-0.4-0.2-0.7-0.4-1.2-0.5s-0.8-0.4-1.2-0.6c-0.4-0.3-0.6-0.6-0.9-1c-0.2-0.4-0.4-0.9-0.4-1.6c0-0.5,0.1-1,0.3-1.4
			c0.2-0.4,0.5-0.8,0.8-1.1c0.3-0.3,0.8-0.5,1.2-0.7c0.5-0.2,1-0.3,1.6-0.3c1.3,0,2.4,0.3,3.3,0.9l-0.7,1.5c-0.3-0.2-0.7-0.4-1-0.5
			c-0.4-0.1-0.7-0.2-1.1-0.2c-0.6,0-1,0.2-1.3,0.5c-0.3,0.3-0.4,0.7-0.4,1.1c0,0.4,0.1,0.7,0.4,0.9c0.2,0.2,0.5,0.4,0.9,0.6
			s0.8,0.4,1.2,0.5c0.4,0.2,0.8,0.4,1.2,0.7c0.4,0.3,0.7,0.6,0.9,1S298.3,160.5,298.3,161.1z"/>
	</g>
</g>
<g>
	<g>
		<path class="st14" d="M428.9,117.9c0,0.7-0.1,1.3-0.3,1.8s-0.6,1.1-1,1.5s-1.1,0.8-1.8,1c-0.7,0.2-1.6,0.4-2.6,0.4
			c-0.2,0-0.4,0-0.7,0c-0.2,0-0.4,0-0.6-0.1v6h-2.7V114c0.6-0.2,1.2-0.5,1.9-0.6s1.5-0.2,2.3-0.2c1,0,1.8,0.1,2.5,0.4s1.3,0.6,1.7,1
			s0.8,0.9,1,1.5S428.9,117.2,428.9,117.9z M426.2,117.9c0-1-0.2-1.7-0.7-2.2c-0.4-0.5-1.2-0.8-2.2-0.8c-0.3,0-0.5,0-0.8,0.1
			c-0.3,0-0.5,0.1-0.7,0.2v5.9c0.2,0,0.4,0.1,0.6,0.1c0.2,0,0.4,0,0.7,0c0.6,0,1.1-0.1,1.4-0.2c0.4-0.2,0.7-0.4,0.9-0.7
			c0.2-0.3,0.4-0.6,0.5-1C426.2,118.7,426.2,118.3,426.2,117.9z"/>
	</g>
	<g>
		<path class="st14" d="M436.4,118.5c-0.4-0.2-0.8-0.2-1.2-0.2c-0.2,0-0.5,0-0.7,0.1c-0.2,0-0.4,0.1-0.6,0.2v10.1h-2.7v-11.2
			c0.5-0.2,1.2-0.5,1.9-0.6s1.6-0.2,2.6-0.2c0.2,0,0.5,0,0.7,0c0.2,0,0.4,0,0.5,0L436.4,118.5z"/>
	</g>
	<g>
		<path class="st14" d="M448.3,122.6c0,0.9-0.1,1.7-0.3,2.5c-0.2,0.8-0.5,1.4-0.9,2s-0.9,1-1.6,1.3s-1.4,0.5-2.2,0.5
			s-1.6-0.2-2.2-0.5s-1.2-0.7-1.6-1.3s-0.7-1.2-0.9-2c-0.2-0.8-0.3-1.6-0.3-2.5s0.1-1.7,0.3-2.5s0.5-1.4,0.9-1.9s0.9-1,1.6-1.3
			s1.4-0.5,2.2-0.5s1.6,0.2,2.2,0.5s1.2,0.7,1.6,1.3s0.7,1.2,0.9,1.9S448.3,121.7,448.3,122.6z M445.6,122.6c0-0.6,0-1.2-0.1-1.7
			s-0.2-1-0.4-1.4c-0.2-0.4-0.4-0.7-0.7-0.9c-0.3-0.2-0.7-0.4-1.1-0.4c-0.4,0-0.8,0.1-1.1,0.3c-0.3,0.2-0.5,0.5-0.7,0.9
			c-0.2,0.4-0.3,0.9-0.4,1.4c-0.1,0.5-0.1,1.1-0.1,1.7c0,0.6,0,1.2,0.1,1.7c0.1,0.5,0.2,1,0.4,1.4c0.2,0.4,0.4,0.7,0.7,0.9
			c0.3,0.2,0.7,0.3,1.1,0.3c0.4,0,0.8-0.1,1.1-0.3c0.3-0.2,0.5-0.5,0.7-0.9c0.2-0.4,0.3-0.9,0.4-1.4
			C445.5,123.8,445.6,123.2,445.6,122.6z"/>
	</g>
	<g>
		<path class="st14" d="M459.9,127.9c-0.5,0.3-1.1,0.5-1.8,0.6c-0.7,0.2-1.5,0.2-2.4,0.2c-0.9,0-1.7-0.1-2.3-0.4
			c-0.7-0.3-1.2-0.7-1.7-1.2s-0.8-1.2-1.1-1.9c-0.2-0.7-0.4-1.6-0.4-2.5c0-0.9,0.1-1.7,0.3-2.5c0.2-0.8,0.6-1.4,1-2
			c0.4-0.6,1-1,1.7-1.3c0.7-0.3,1.4-0.5,2.3-0.5c0.3,0,0.6,0,0.9,0.1c0.3,0,0.6,0.1,0.8,0.2v-5.5h2.7V127.9z M457.2,118.3
			c-0.2-0.1-0.4-0.1-0.6-0.1s-0.4,0-0.6,0c-0.6,0-1.1,0.1-1.4,0.4c-0.4,0.2-0.7,0.6-0.9,1c-0.2,0.4-0.4,0.9-0.5,1.4
			c-0.1,0.5-0.2,1.1-0.2,1.8c0,0.7,0.1,1.3,0.2,1.8c0.1,0.5,0.3,1,0.5,1.4s0.5,0.7,0.9,0.9s0.8,0.3,1.3,0.3c0.6,0,1.1-0.1,1.4-0.2
			V118.3z"/>
	</g>
	<g>
		<path class="st14" d="M472,127.9c-0.5,0.2-1.2,0.5-2,0.6c-0.8,0.2-1.6,0.3-2.5,0.3c-1.6,0-2.8-0.3-3.5-1s-1.2-1.7-1.2-3.1v-8.1
			h2.7v8.2c0,1.4,0.7,2.1,2.1,2.1c0.3,0,0.6,0,0.9-0.1c0.3-0.1,0.6-0.1,0.8-0.3v-10h2.7V127.9z"/>
	</g>
	<g>
		<path class="st14" d="M482,128c-0.7,0.5-1.7,0.8-2.8,0.8c-0.7,0-1.4-0.1-2-0.4c-0.6-0.3-1.1-0.7-1.5-1.2s-0.7-1.2-1-1.9
			s-0.4-1.6-0.4-2.6s0.1-1.8,0.4-2.5c0.2-0.8,0.6-1.4,1-1.9c0.4-0.5,0.9-0.9,1.5-1.2c0.6-0.3,1.2-0.4,2-0.4c1.2,0,2.1,0.3,2.8,0.8
			l-0.6,1.5c-0.2-0.2-0.5-0.3-0.8-0.4s-0.6-0.1-0.9-0.1c-0.4,0-0.8,0.1-1.1,0.3c-0.3,0.2-0.6,0.5-0.8,0.9c-0.2,0.4-0.4,0.8-0.5,1.4
			s-0.2,1.1-0.2,1.7s0.1,1.2,0.2,1.7c0.1,0.5,0.3,1,0.5,1.4s0.5,0.7,0.8,0.9s0.7,0.3,1.1,0.3c0.3,0,0.6,0,0.9-0.1
			c0.3-0.1,0.5-0.2,0.7-0.4L482,128z"/>
	</g>
	<g>
		<path class="st14" d="M489.4,128.5c-0.4,0.2-0.8,0.3-1.5,0.3c-1,0-1.8-0.3-2.3-0.8c-0.6-0.6-0.8-1.4-0.8-2.4v-7h-1.3v-1.7h1.3
			v-2.6l2.7-0.7v3.4h1.9v1.7h-1.9v7c0,0.5,0.1,0.8,0.3,1.1c0.2,0.2,0.5,0.4,1,0.4c0.2,0,0.4,0,0.7-0.1V128.5z"/>
	</g>
	<g>
		<path class="st14" d="M498.8,125.1c0,0.5-0.1,1-0.3,1.4c-0.2,0.4-0.5,0.8-0.9,1.2c-0.4,0.3-0.8,0.6-1.4,0.8s-1.1,0.3-1.8,0.3
			c-0.6,0-1.3-0.1-1.9-0.2c-0.6-0.2-1.1-0.4-1.6-0.6l0.7-1.7c0.4,0.2,0.8,0.4,1.2,0.5c0.4,0.1,0.8,0.2,1.2,0.2
			c0.6,0,1.1-0.2,1.4-0.5c0.3-0.3,0.5-0.7,0.5-1.2c0-0.4-0.1-0.7-0.4-1c-0.2-0.2-0.5-0.5-0.9-0.6c-0.4-0.2-0.7-0.4-1.2-0.5
			c-0.4-0.2-0.8-0.4-1.2-0.6c-0.4-0.3-0.6-0.6-0.9-1c-0.2-0.4-0.4-0.9-0.4-1.6c0-0.5,0.1-1,0.3-1.4c0.2-0.4,0.5-0.8,0.8-1.1
			s0.8-0.5,1.2-0.7c0.5-0.2,1-0.3,1.6-0.3c1.3,0,2.4,0.3,3.3,0.9l-0.7,1.5c-0.3-0.2-0.7-0.4-1-0.5c-0.4-0.1-0.7-0.2-1.1-0.2
			c-0.6,0-1,0.2-1.3,0.5c-0.3,0.3-0.4,0.7-0.4,1.1c0,0.4,0.1,0.7,0.4,0.9c0.2,0.2,0.5,0.4,0.9,0.6s0.8,0.4,1.2,0.5
			c0.4,0.2,0.8,0.4,1.2,0.7c0.4,0.3,0.7,0.6,0.9,1C498.7,123.9,498.8,124.5,498.8,125.1z"/>
	</g>
</g>
<g>
	<g>
		<path class="st14" d="M515.5,160.4c0,0.6-0.1,1.2-0.4,1.8c-0.2,0.5-0.6,1-1,1.4c-0.4,0.4-1,0.7-1.6,0.9c-0.6,0.2-1.3,0.3-2.1,0.3
			c-0.8,0-1.5-0.1-2.2-0.2c-0.7-0.2-1.3-0.4-1.8-0.6l0.7-1.9c0.4,0.2,0.9,0.4,1.4,0.5c0.5,0.1,1,0.2,1.5,0.2c0.8,0,1.4-0.2,1.9-0.6
			c0.4-0.4,0.6-0.9,0.6-1.5c0-0.5-0.1-1-0.4-1.3c-0.3-0.3-0.7-0.6-1.1-0.9c-0.4-0.3-0.9-0.5-1.4-0.8c-0.5-0.2-1-0.6-1.4-0.9
			c-0.4-0.4-0.8-0.8-1.1-1.3c-0.3-0.5-0.4-1.2-0.4-2c0-0.6,0.1-1.2,0.4-1.7c0.2-0.5,0.6-1,1-1.3c0.4-0.4,0.9-0.7,1.5-0.9
			c0.6-0.2,1.2-0.3,2-0.3c0.7,0,1.3,0.1,1.9,0.2s1.1,0.4,1.6,0.6l-0.7,1.7c-0.3-0.2-0.7-0.3-1.2-0.5s-0.9-0.2-1.3-0.2
			c-0.7,0-1.3,0.2-1.7,0.5s-0.6,0.9-0.6,1.5c0,0.5,0.2,1,0.5,1.3c0.3,0.3,0.7,0.6,1.1,0.9c0.4,0.3,0.9,0.5,1.5,0.7
			c0.5,0.2,1,0.5,1.5,0.9c0.4,0.4,0.8,0.8,1.1,1.3C515.3,158.9,515.5,159.6,515.5,160.4z"/>
	</g>
	<g>
		<path class="st14" d="M520.1,159.6c0.1,1,0.4,1.9,1,2.4c0.6,0.6,1.3,0.9,2.3,0.9c0.5,0,1.1-0.1,1.6-0.2c0.5-0.1,1-0.3,1.3-0.5
			l0.6,1.7c-0.5,0.2-1.1,0.5-1.8,0.6c-0.7,0.2-1.4,0.2-2.2,0.2c-0.9,0-1.7-0.2-2.4-0.5c-0.7-0.3-1.3-0.7-1.7-1.3
			c-0.5-0.5-0.8-1.2-1.1-2c-0.2-0.8-0.4-1.6-0.4-2.5c0-0.9,0.1-1.8,0.3-2.5s0.6-1.4,1-1.9s1-0.9,1.6-1.2c0.6-0.3,1.3-0.4,2.2-0.4
			c1.6,0,2.7,0.5,3.6,1.5c0.8,1,1.2,2.4,1.2,4.3v0.4L520.1,159.6z M524.9,157.5c0-1.1-0.2-1.9-0.6-2.5c-0.4-0.6-1-0.9-1.8-0.9
			c-0.9,0-1.5,0.4-1.9,1.1c-0.4,0.7-0.6,1.7-0.6,2.8v0.2L524.9,157.5z"/>
	</g>
	<g>
		<path class="st14" d="M535,154.5c-0.4-0.2-0.8-0.2-1.2-0.2c-0.2,0-0.5,0-0.7,0.1c-0.2,0-0.4,0.1-0.6,0.2v10.1h-2.7v-11.2
			c0.5-0.2,1.2-0.5,1.9-0.6c0.7-0.2,1.6-0.2,2.6-0.2c0.2,0,0.5,0,0.7,0c0.2,0,0.4,0,0.5,0L535,154.5z"/>
	</g>
	<g>
		<path class="st14" d="M542.8,164.6h-2.5l-3.9-11.9h2.9l2.1,7.7c0.1,0.5,0.2,1,0.3,1.7h0c0-0.3,0.1-0.6,0.1-0.9
			c0.1-0.3,0.1-0.5,0.2-0.8l2.2-7.7h2.6L542.8,164.6z"/>
	</g>
	<g>
		<path class="st14" d="M551.6,149.4c0,0.4-0.1,0.7-0.4,1c-0.3,0.3-0.6,0.4-1.1,0.4c-0.4,0-0.8-0.1-1.1-0.4c-0.3-0.3-0.4-0.6-0.4-1
			c0-0.4,0.1-0.7,0.4-1c0.3-0.3,0.6-0.4,1.1-0.4c0.4,0,0.8,0.1,1.1,0.4C551.4,148.7,551.6,149,551.6,149.4z M548.7,164.6v-11.9h2.7
			v11.9H548.7z"/>
	</g>
	<g>
		<path class="st14" d="M561.6,164c-0.7,0.5-1.7,0.8-2.8,0.8c-0.7,0-1.4-0.1-2-0.4s-1.1-0.7-1.5-1.2c-0.4-0.5-0.7-1.2-1-1.9
			s-0.4-1.6-0.4-2.6c0-0.9,0.1-1.8,0.4-2.5s0.6-1.4,1-1.9c0.4-0.5,0.9-0.9,1.5-1.2c0.6-0.3,1.2-0.4,2-0.4c1.2,0,2.1,0.3,2.8,0.8
			l-0.6,1.5c-0.2-0.2-0.5-0.3-0.8-0.4s-0.6-0.1-0.9-0.1c-0.4,0-0.8,0.1-1.1,0.3c-0.3,0.2-0.6,0.5-0.8,0.9c-0.2,0.4-0.4,0.8-0.5,1.4
			s-0.2,1.1-0.2,1.7c0,0.6,0.1,1.2,0.2,1.7c0.1,0.5,0.3,1,0.5,1.4s0.5,0.7,0.8,0.9c0.3,0.2,0.7,0.3,1.1,0.3c0.3,0,0.6,0,0.9-0.1
			c0.3-0.1,0.5-0.2,0.7-0.4L561.6,164z"/>
	</g>
	<g>
		<path class="st14" d="M565.8,159.6c0.1,1,0.4,1.9,1,2.4c0.6,0.6,1.3,0.9,2.3,0.9c0.5,0,1.1-0.1,1.6-0.2c0.5-0.1,1-0.3,1.3-0.5
			l0.6,1.7c-0.5,0.2-1.1,0.5-1.8,0.6c-0.7,0.2-1.4,0.2-2.2,0.2c-0.9,0-1.7-0.2-2.4-0.5c-0.7-0.3-1.3-0.7-1.7-1.3
			c-0.5-0.5-0.8-1.2-1.1-2c-0.2-0.8-0.4-1.6-0.4-2.5c0-0.9,0.1-1.8,0.3-2.5s0.6-1.4,1-1.9s1-0.9,1.6-1.2c0.6-0.3,1.3-0.4,2.2-0.4
			c1.6,0,2.7,0.5,3.6,1.5c0.8,1,1.2,2.4,1.2,4.3v0.4L565.8,159.6z M570.6,157.5c0-1.1-0.2-1.9-0.6-2.5c-0.4-0.6-1-0.9-1.8-0.9
			c-0.9,0-1.5,0.4-1.9,1.1c-0.4,0.7-0.6,1.7-0.6,2.8v0.2L570.6,157.5z"/>
	</g>
	<g>
		<path class="st14" d="M582.7,161.1c0,0.5-0.1,1-0.3,1.4c-0.2,0.4-0.5,0.8-0.9,1.2c-0.4,0.3-0.8,0.6-1.4,0.8
			c-0.5,0.2-1.1,0.3-1.8,0.3c-0.6,0-1.3-0.1-1.9-0.2c-0.6-0.2-1.1-0.4-1.6-0.6l0.7-1.7c0.4,0.2,0.8,0.4,1.2,0.5
			c0.4,0.1,0.8,0.2,1.2,0.2c0.6,0,1.1-0.2,1.4-0.5c0.3-0.3,0.5-0.7,0.5-1.2c0-0.4-0.1-0.7-0.4-1c-0.2-0.2-0.5-0.5-0.9-0.6
			c-0.4-0.2-0.7-0.4-1.2-0.5s-0.8-0.4-1.2-0.6c-0.4-0.3-0.6-0.6-0.9-1c-0.2-0.4-0.4-0.9-0.4-1.6c0-0.5,0.1-1,0.3-1.4
			c0.2-0.4,0.5-0.8,0.8-1.1c0.3-0.3,0.8-0.5,1.2-0.7c0.5-0.2,1-0.3,1.6-0.3c1.3,0,2.4,0.3,3.3,0.9l-0.7,1.5c-0.3-0.2-0.7-0.4-1-0.5
			c-0.4-0.1-0.7-0.2-1.1-0.2c-0.6,0-1,0.2-1.3,0.5c-0.3,0.3-0.4,0.7-0.4,1.1c0,0.4,0.1,0.7,0.4,0.9c0.2,0.2,0.5,0.4,0.9,0.6
			s0.8,0.4,1.2,0.5c0.4,0.2,0.8,0.4,1.2,0.7c0.4,0.3,0.7,0.6,0.9,1S582.7,160.5,582.7,161.1z"/>
	</g>
</g>
<g>
	<g>
		<path class="st0" d="M245.1,543.8l48,0.2L245.1,543.8z"/>
	</g>
	<g>
		
			<rect x="268.6" y="519.9" transform="matrix(5.007775e-03 -1 1 5.007775e-03 -276.1462 810.2699)" class="st7" width="1" height="48"/>
	</g>
</g>
<g>
	<g>
		<g>
			<line class="st0" x1="264.7" y1="620.1" x2="242.6" y2="633"/>
		</g>
		<g>
			
				<rect x="240.9" y="626.1" transform="matrix(0.8634 -0.5044 0.5044 0.8634 -281.4147 213.506)" class="st7" width="25.5" height="0.9"/>
		</g>
	</g>
	<g>
		<g>
			<path class="st7" d="M238.1,641.8c-2,0-4-1-5.1-2.9c-1.6-2.8-0.7-6.4,2.1-8.1c1.4-0.8,3-1,4.5-0.6c1.5,0.4,2.8,1.4,3.6,2.7
				c0.8,1.4,1,3,0.6,4.5c-0.4,1.5-1.4,2.8-2.7,3.6l0,0C240.2,641.5,239.1,641.8,238.1,641.8z M238.1,630.8c-0.9,0-1.8,0.2-2.5,0.7
				c-2.4,1.4-3.2,4.5-1.8,6.9c1.4,2.4,4.5,3.2,6.9,1.8l0,0c1.2-0.7,2-1.8,2.3-3.1c0.3-1.3,0.2-2.7-0.5-3.8s-1.8-2-3.1-2.3
				C239,630.9,238.5,630.8,238.1,630.8z"/>
		</g>
	</g>
</g>
<g>
	<g>
		<g>
			<line class="st0" x1="249.7" y1="581.6" x2="225" y2="587.8"/>
		</g>
		<g>
			
				<rect x="224.6" y="584.3" transform="matrix(0.97 -0.2431 0.2431 0.97 -135.0104 75.2268)" class="st7" width="25.5" height="0.9"/>
		</g>
	</g>
	<g>
		<g>
			<path class="st7" d="M219.8,595.2c-1.1,0-2.1-0.3-3-0.8c-1.4-0.8-2.3-2.1-2.7-3.6c-0.4-1.5-0.1-3.1,0.7-4.5s2.1-2.3,3.6-2.7
				c1.5-0.4,3.1-0.1,4.5,0.7c1.4,0.8,2.3,2.1,2.7,3.6c0.4,1.5,0.1,3.1-0.7,4.5c-0.8,1.4-2.1,2.3-3.6,2.7
				C220.8,595.2,220.3,595.2,219.8,595.2z M219.8,584.3c-0.4,0-0.8,0.1-1.2,0.2c-1.3,0.3-2.4,1.1-3.1,2.3c-0.7,1.2-0.9,2.5-0.6,3.8
				c0.3,1.3,1.1,2.4,2.3,3.1s2.5,0.9,3.8,0.6c1.3-0.3,2.4-1.1,3.1-2.3s0.9-2.5,0.6-3.8c-0.3-1.3-1.1-2.4-2.3-3.1
				C221.6,584.5,220.7,584.3,219.8,584.3z"/>
		</g>
	</g>
</g>
<g>
	<g>
		<g>
			<line class="st0" x1="492.7" y1="226.1" x2="513.7" y2="211.6"/>
		</g>
		<g>
			
				<rect x="490.4" y="218.4" transform="matrix(0.8218 -0.5698 0.5698 0.8218 -35.0211 325.7186)" class="st7" width="25.5" height="0.9"/>
		</g>
	</g>
	<g>
		<g>
			<path class="st7" d="M518.2,214.6c-0.4,0-0.7,0-1.1-0.1c-1.6-0.3-2.9-1.2-3.8-2.4c-0.9-1.3-1.2-2.9-1-4.4
				c0.3-1.6,1.2-2.9,2.4-3.8c1.3-0.9,2.9-1.2,4.4-1c1.6,0.3,2.9,1.2,3.8,2.4c0.9,1.3,1.2,2.9,1,4.4c-0.3,1.6-1.2,2.9-2.4,3.8
				C520.6,214.2,519.4,214.6,518.2,214.6z M518.2,203.6c-1,0-2,0.3-2.9,0.9c-1.1,0.8-1.9,1.9-2.1,3.2s0.1,2.7,0.8,3.8
				c0.8,1.1,1.9,1.9,3.2,2.1c1.3,0.2,2.7,0,3.8-0.8c1.1-0.8,1.9-1.9,2.1-3.2c0.2-1.3,0-2.7-0.8-3.8s-1.9-1.9-3.2-2.1
				C518.8,203.7,518.5,203.6,518.2,203.6z"/>
		</g>
	</g>
</g>
<g>
	<g>
		<g>
			<line class="st0" x1="463.1" y1="196.3" x2="477.1" y2="175"/>
		</g>
		<g>
			
				<rect x="457.3" y="185.2" transform="matrix(0.5479 -0.8366 0.8366 0.5479 57.2364 477.1758)" class="st7" width="25.5" height="0.9"/>
		</g>
	</g>
	<g>
		<g>
			<path class="st7" d="M480.2,176.5c-1.1,0-2.2-0.3-3.2-1c-2.7-1.8-3.5-5.5-1.7-8.2c1.8-2.7,5.5-3.5,8.2-1.7
				c1.3,0.9,2.2,2.2,2.5,3.7c0.3,1.5,0,3.1-0.8,4.4C484,175.6,482.1,176.5,480.2,176.5z M480.2,165.6c-1.6,0-3.3,0.8-4.2,2.3
				c-1.5,2.3-0.9,5.5,1.5,7c2.3,1.5,5.5,0.9,7-1.5l0,0c0.7-1.1,1-2.5,0.7-3.8c-0.3-1.3-1-2.5-2.2-3.2
				C482.1,165.8,481.1,165.6,480.2,165.6z"/>
		</g>
	</g>
</g>
<g>
	<g>
		<g>
			<line class="st0" x1="422" y1="179.8" x2="426.5" y2="154.7"/>
		</g>
		<g>
			
				<rect x="411.5" y="166.8" transform="matrix(0.1751 -0.9846 0.9846 0.1751 185.2987 555.6794)" class="st7" width="25.5" height="0.9"/>
		</g>
	</g>
	<g>
		<g>
			<path class="st7" d="M427.6,155.4c-0.3,0-0.7,0-1-0.1c-3.2-0.6-5.3-3.6-4.8-6.8c0.3-1.6,1.1-2.9,2.4-3.8c1.3-0.9,2.9-1.2,4.4-1
				c3.2,0.6,5.3,3.6,4.8,6.8l0,0c-0.3,1.6-1.1,2.9-2.4,3.8C430,155,428.8,155.4,427.6,155.4z M427.6,144.4c-1,0-2,0.3-2.9,0.9
				c-1.1,0.8-1.8,1.9-2.1,3.3c-0.2,1.3,0.1,2.7,0.8,3.8c0.8,1.1,1.9,1.8,3.3,2.1c1.3,0.2,2.7-0.1,3.8-0.8c1.1-0.8,1.8-1.9,2.1-3.3
				c0.5-2.7-1.3-5.4-4.1-5.9C428.2,144.4,427.9,144.4,427.6,144.4z"/>
		</g>
	</g>
</g>
<g>
	<g>
		<g>
			<line class="st0" x1="379.8" y1="180.7" x2="374.5" y2="155.8"/>
		</g>
		<g>
			<polygon class="st7" points="379.4,180.8 374.1,155.9 375,155.7 380.2,180.6 			"/>
		</g>
	</g>
	<g>
		<g>
			<path class="st7" d="M373.6,156.4c-1.1,0-2.2-0.3-3.2-1c-1.3-0.9-2.2-2.2-2.6-3.7c-0.3-1.5,0-3.1,0.8-4.4
				c0.9-1.3,2.2-2.2,3.7-2.6c1.5-0.3,3.1,0,4.4,0.8c1.3,0.9,2.2,2.2,2.6,3.7v0c0.7,3.2-1.4,6.3-4.6,7
				C374.4,156.4,374,156.4,373.6,156.4z M373.7,145.4c-0.3,0-0.7,0-1,0.1c-1.3,0.3-2.5,1.1-3.2,2.2c-0.7,1.1-1,2.5-0.7,3.8
				c0.3,1.3,1.1,2.5,2.2,3.2c1.1,0.7,2.5,1,3.8,0.7c2.7-0.6,4.5-3.3,3.9-6v0c-0.3-1.3-1.1-2.5-2.2-3.2
				C375.6,145.7,374.6,145.4,373.7,145.4z"/>
		</g>
	</g>
</g>
<g>
	<g>
		<g>
			<line class="st0" x1="339.6" y1="198.6" x2="325.1" y2="177.6"/>
		</g>
		<g>
			
				<rect x="331.9" y="175.3" transform="matrix(0.823 -0.568 0.568 0.823 -48.0104 222.0621)" class="st7" width="0.9" height="25.5"/>
		</g>
	</g>
	<g>
		<g>
			<path class="st7" d="M322.2,179c-1.9,0-3.7-0.9-4.9-2.5c-0.9-1.3-1.2-2.9-0.9-4.4c0.3-1.6,1.2-2.9,2.5-3.8
				c2.7-1.8,6.4-1.2,8.2,1.5l0,0c1.8,2.7,1.2,6.4-1.5,8.2C324.6,178.6,323.4,179,322.2,179z M322.2,168c-1,0-2,0.3-2.9,0.9
				c-1.1,0.8-1.9,1.9-2.1,3.2c-0.2,1.3,0,2.7,0.8,3.8c1.6,2.3,4.7,2.9,7,1.3c2.3-1.6,2.9-4.7,1.3-7C325.4,168.8,323.8,168,322.2,168
				z"/>
		</g>
	</g>
</g>
<g>
	<g>
		<g>
			<line class="st0" x1="310.9" y1="229" x2="289.6" y2="215"/>
		</g>
		<g>
			<polygon class="st7" points="310.7,229.4 289.4,215.3 289.9,214.6 311.2,228.7 			"/>
		</g>
	</g>
	<g>
		<g>
			<path class="st7" d="M285.3,217.8c-1.1,0-2.2-0.3-3.2-1c-2.7-1.8-3.5-5.5-1.7-8.2c1.8-2.7,5.5-3.5,8.2-1.7s3.5,5.5,1.7,8.2
				C289.1,216.8,287.2,217.8,285.3,217.8z M285.3,206.8c-1.6,0-3.3,0.8-4.2,2.3c-1.5,2.3-0.9,5.5,1.4,7c2.3,1.5,5.5,0.9,7-1.4
				c1.5-2.3,0.9-5.5-1.4-7C287.2,207.1,286.2,206.8,285.3,206.8z"/>
		</g>
	</g>
</g>
<g>
	<g>
		<g>
			<line class="st0" x1="264.6" y1="467.3" x2="242.6" y2="454.4"/>
		</g>
		<g>
			
				<rect x="253.1" y="448.1" transform="matrix(0.5049 -0.8632 0.8632 0.5049 -272.2833 447.0551)" class="st7" width="0.9" height="25.5"/>
		</g>
	</g>
	<g>
		<g>
			<path class="st7" d="M238,457.5c-1,0-2-0.3-3-0.8c-1.4-0.8-2.3-2.1-2.7-3.6c-0.4-1.5-0.2-3.1,0.6-4.5c0.8-1.4,2.1-2.3,3.6-2.7
				c1.5-0.4,3.1-0.2,4.5,0.6l0,0c2.8,1.6,3.8,5.3,2.1,8.1C242,456.4,240.1,457.5,238,457.5z M238,446.5c-0.4,0-0.9,0.1-1.3,0.2
				c-1.3,0.3-2.4,1.2-3.1,2.3s-0.9,2.5-0.5,3.8c0.3,1.3,1.2,2.4,2.3,3.1c2.4,1.4,5.5,0.6,6.9-1.8c1.4-2.4,0.6-5.5-1.8-6.9l0,0
				C239.8,446.7,238.9,446.5,238,446.5z"/>
		</g>
	</g>
</g>
<g>
	<g>
		<g>
			<rect x="219.5" y="543.2" class="st7" width="25.5" height="0.9"/>
		</g>
	</g>
	<g>
		<g>
			<path class="st7" d="M214.2,549.7c-3.3,0-5.9-2.6-5.9-5.9s2.6-5.9,5.9-5.9s5.9,2.6,5.9,5.9S217.4,549.7,214.2,549.7z
				 M214.2,538.7c-2.8,0-5,2.3-5,5c0,2.8,2.3,5,5,5c2.8,0,5-2.3,5-5C219.2,541,216.9,538.7,214.2,538.7z"/>
		</g>
	</g>
</g>
<g>
	<g>
		<g>
			<line class="st0" x1="249.6" y1="505.8" x2="224.9" y2="499.6"/>
		</g>
		<g>
			
				<rect x="236.8" y="489.9" transform="matrix(0.2431 -0.97 0.97 0.2431 -308.0482 610.6148)" class="st7" width="0.9" height="25.5"/>
		</g>
	</g>
	<g>
		<g>
			<path class="st7" d="M219.7,504c-0.5,0-1-0.1-1.4-0.2c-1.5-0.4-2.8-1.3-3.6-2.7c-0.8-1.4-1-2.9-0.7-4.5c0.8-3.2,4-5.1,7.2-4.3
				c1.5,0.4,2.8,1.3,3.6,2.7c0.8,1.4,1,2.9,0.7,4.5c-0.4,1.5-1.3,2.8-2.7,3.6C221.8,503.7,220.8,504,219.7,504z M219.7,493.1
				c-0.9,0-1.8,0.2-2.6,0.7c-1.2,0.7-2,1.8-2.3,3.1c-0.3,1.3-0.1,2.7,0.6,3.8s1.8,2,3.1,2.3c1.3,0.3,2.7,0.1,3.8-0.6
				c1.2-0.7,2-1.8,2.3-3.1c0.7-2.7-1-5.4-3.7-6.1l0,0C220.6,493.1,220.1,493.1,219.7,493.1z"/>
		</g>
	</g>
</g>
<g>
	<g>
		<path class="st14" d="M94.5,586.3v13.3h-2.8v-13.3h-2.9v-1.9h8.7v1.9H94.5z"/>
	</g>
	<g>
		<path class="st14" d="M101.7,594.6c0.1,1,0.4,1.9,1,2.4c0.6,0.6,1.3,0.9,2.3,0.9c0.5,0,1.1-0.1,1.6-0.2c0.5-0.1,1-0.3,1.3-0.5
			l0.6,1.7c-0.5,0.2-1.1,0.5-1.8,0.6c-0.7,0.2-1.4,0.2-2.2,0.2c-0.9,0-1.7-0.2-2.4-0.5c-0.7-0.3-1.3-0.7-1.7-1.3
			c-0.5-0.5-0.8-1.2-1.1-2c-0.2-0.8-0.4-1.6-0.4-2.5c0-0.9,0.1-1.8,0.3-2.5c0.2-0.8,0.6-1.4,1-1.9s1-0.9,1.6-1.2
			c0.6-0.3,1.3-0.4,2.2-0.4c1.6,0,2.7,0.5,3.6,1.5c0.8,1,1.2,2.4,1.2,4.3v0.4L101.7,594.6z M106.5,592.5c0-1.1-0.2-1.9-0.6-2.5
			c-0.4-0.6-1-0.9-1.8-0.9c-0.9,0-1.5,0.4-1.9,1.1s-0.6,1.7-0.6,2.8v0.2L106.5,592.5z"/>
	</g>
	<g>
		<path class="st14" d="M118.7,599c-0.7,0.5-1.7,0.8-2.8,0.8c-0.7,0-1.4-0.1-2-0.4s-1.1-0.7-1.5-1.2c-0.4-0.5-0.7-1.2-1-1.9
			c-0.2-0.8-0.4-1.6-0.4-2.6c0-0.9,0.1-1.8,0.4-2.5c0.2-0.8,0.6-1.4,1-1.9c0.4-0.5,0.9-0.9,1.5-1.2c0.6-0.3,1.2-0.4,2-0.4
			c1.2,0,2.1,0.3,2.8,0.8l-0.6,1.5c-0.2-0.2-0.5-0.3-0.8-0.4s-0.6-0.1-0.9-0.1c-0.4,0-0.8,0.1-1.1,0.3c-0.3,0.2-0.6,0.5-0.8,0.9
			c-0.2,0.4-0.4,0.8-0.5,1.4c-0.1,0.5-0.2,1.1-0.2,1.7c0,0.6,0.1,1.2,0.2,1.7s0.3,1,0.5,1.4s0.5,0.7,0.8,0.9
			c0.3,0.2,0.7,0.3,1.1,0.3c0.3,0,0.6,0,0.9-0.1c0.3-0.1,0.5-0.2,0.7-0.4L118.7,599z"/>
	</g>
	<g>
		<path class="st14" d="M127.4,599.6v-8.2c0-0.3,0-0.5-0.1-0.8c-0.1-0.3-0.2-0.5-0.3-0.7s-0.4-0.3-0.6-0.4c-0.3-0.1-0.6-0.2-1-0.2
			c-0.7,0-1.3,0.2-1.9,0.5v9.8h-2.7v-17.3h2.7v5.9c0.4-0.2,0.8-0.4,1.2-0.5c0.4-0.1,0.9-0.2,1.4-0.2c0.7,0,1.4,0.1,1.9,0.3
			c0.5,0.2,0.9,0.5,1.2,0.8s0.5,0.7,0.7,1.2c0.1,0.4,0.2,0.9,0.2,1.4v8.3H127.4z"/>
	</g>
	<g>
		<path class="st14" d="M139.7,599.6v-8.1c0-0.8-0.2-1.4-0.5-1.7c-0.3-0.4-0.9-0.6-1.8-0.6c-0.7,0-1.3,0.1-1.7,0.3v10.1H133v-11.2
			c0.6-0.3,1.3-0.5,2-0.6c0.7-0.2,1.5-0.2,2.4-0.2c1.7,0,3,0.3,3.8,1c0.8,0.7,1.2,1.7,1.2,2.9v8.1H139.7z"/>
	</g>
	<g>
		<path class="st14" d="M154.8,593.6c0,0.9-0.1,1.7-0.3,2.5c-0.2,0.8-0.5,1.4-0.9,2c-0.4,0.5-0.9,1-1.6,1.3
			c-0.6,0.3-1.4,0.5-2.2,0.5s-1.6-0.2-2.2-0.5c-0.6-0.3-1.2-0.7-1.6-1.3c-0.4-0.6-0.7-1.2-0.9-2c-0.2-0.8-0.3-1.6-0.3-2.5
			s0.1-1.7,0.3-2.5s0.5-1.4,0.9-1.9c0.4-0.5,0.9-1,1.6-1.3c0.6-0.3,1.4-0.5,2.2-0.5s1.6,0.2,2.2,0.5c0.6,0.3,1.2,0.7,1.6,1.3
			c0.4,0.6,0.7,1.2,0.9,1.9S154.8,592.7,154.8,593.6z M152.1,593.6c0-0.6,0-1.2-0.1-1.7c-0.1-0.5-0.2-1-0.4-1.4
			c-0.2-0.4-0.4-0.7-0.7-0.9c-0.3-0.2-0.7-0.4-1.1-0.4c-0.4,0-0.8,0.1-1.1,0.3c-0.3,0.2-0.5,0.5-0.7,0.9c-0.2,0.4-0.3,0.9-0.4,1.4
			c-0.1,0.5-0.1,1.1-0.1,1.7s0,1.2,0.1,1.7c0.1,0.5,0.2,1,0.4,1.4c0.2,0.4,0.4,0.7,0.7,0.9c0.3,0.2,0.7,0.3,1.1,0.3
			c0.4,0,0.8-0.1,1.1-0.3c0.3-0.2,0.5-0.5,0.7-0.9c0.2-0.4,0.3-0.9,0.4-1.4S152.1,594.2,152.1,593.6z"/>
	</g>
	<g>
		<path class="st14" d="M157.3,599.6v-17.3h2.7v17.3H157.3z"/>
	</g>
	<g>
		<path class="st14" d="M172.6,593.6c0,0.9-0.1,1.7-0.3,2.5c-0.2,0.8-0.5,1.4-0.9,2c-0.4,0.5-0.9,1-1.6,1.3
			c-0.6,0.3-1.4,0.5-2.2,0.5s-1.6-0.2-2.2-0.5c-0.6-0.3-1.2-0.7-1.6-1.3c-0.4-0.6-0.7-1.2-0.9-2c-0.2-0.8-0.3-1.6-0.3-2.5
			s0.1-1.7,0.3-2.5s0.5-1.4,0.9-1.9c0.4-0.5,0.9-1,1.6-1.3c0.6-0.3,1.4-0.5,2.2-0.5s1.6,0.2,2.2,0.5c0.6,0.3,1.2,0.7,1.6,1.3
			c0.4,0.6,0.7,1.2,0.9,1.9S172.6,592.7,172.6,593.6z M169.9,593.6c0-0.6,0-1.2-0.1-1.7c-0.1-0.5-0.2-1-0.4-1.4
			c-0.2-0.4-0.4-0.7-0.7-0.9c-0.3-0.2-0.7-0.4-1.1-0.4c-0.4,0-0.8,0.1-1.1,0.3c-0.3,0.2-0.5,0.5-0.7,0.9c-0.2,0.4-0.3,0.9-0.4,1.4
			c-0.1,0.5-0.1,1.1-0.1,1.7s0,1.2,0.1,1.7c0.1,0.5,0.2,1,0.4,1.4c0.2,0.4,0.4,0.7,0.7,0.9c0.3,0.2,0.7,0.3,1.1,0.3
			c0.4,0,0.8-0.1,1.1-0.3c0.3-0.2,0.5-0.5,0.7-0.9c0.2-0.4,0.3-0.9,0.4-1.4S169.9,594.2,169.9,593.6z"/>
	</g>
	<g>
		<path class="st14" d="M184.2,599.6c0,1.6-0.4,2.8-1.3,3.7s-2.1,1.3-3.6,1.3c-0.8,0-1.5-0.1-2.3-0.2c-0.7-0.2-1.3-0.4-1.8-0.6
			l0.7-1.8c0.4,0.2,0.8,0.4,1.3,0.5c0.5,0.1,1,0.2,1.6,0.2c1,0,1.7-0.3,2.1-0.8s0.6-1.2,0.6-2v-0.7c-0.2,0.1-0.5,0.2-0.9,0.3
			c-0.4,0.1-0.8,0.1-1.3,0.1c-0.7,0-1.4-0.1-2-0.4c-0.6-0.3-1.1-0.7-1.5-1.2c-0.4-0.5-0.7-1.1-1-1.8s-0.3-1.5-0.3-2.4
			c0-1,0.1-1.9,0.4-2.7c0.2-0.8,0.6-1.5,1.1-2s1.1-1,1.8-1.3c0.7-0.3,1.6-0.4,2.5-0.4c0.7,0,1.4,0.1,2.1,0.2
			c0.7,0.2,1.3,0.4,1.7,0.6V599.6z M181.6,589.3c-0.2-0.1-0.4-0.2-0.6-0.2c-0.2,0-0.5-0.1-0.8-0.1c-1,0-1.8,0.4-2.2,1.2
			c-0.5,0.8-0.7,2-0.7,3.4c0,1.4,0.2,2.5,0.7,3.2c0.4,0.7,1.2,1.1,2.1,1.1c0.3,0,0.6,0,0.8-0.1c0.3-0.1,0.5-0.2,0.7-0.3V589.3z"/>
	</g>
	<g>
		<path class="st14" d="M191,604.3h-2.8l2-4.7l-4-11.9h2.9l2.1,7.8c0.1,0.5,0.2,1.1,0.3,1.7h0c0.1-0.6,0.2-1.1,0.3-1.7l2.2-7.8h2.6
			L191,604.3z"/>
	</g>
</g>
</svg>
