<?xml version="1.0" encoding="utf-8"?>
<!-- Generator: Adobe Illustrator 23.0.4, SVG Export Plug-In . SVG Version: 6.00 Build 0)  -->
<svg version="1.1" id="Ebene_1" xmlns="http://www.w3.org/2000/svg" xmlns:xlink="http://www.w3.org/1999/xlink" x="0px" y="0px"
	 viewBox="0 0 550.2 288.3" style="enable-background:new 0 0 550.2 288.3;" xml:space="preserve">
<style type="text/css">
	.st0{fill:#061B2B;}
	.st1{fill:#B81F30;}
	.st2{opacity:0.5;fill:none;stroke:#697A8A;stroke-width:1.0596;stroke-miterlimit:10;stroke-dasharray:2.1192,2.1192;}
	.st3{fill:#FFFFFF;}
	.st4{fill:#697A8A;}
	.st5{opacity:0.5;}
</style>
<g>
	<rect x="-1.2" y="0.4" class="st0" width="552.1" height="288.6"/>
</g>
<g>
	<rect x="130.6" y="17.8" class="st1" width="27.3" height="44.5"/>
</g>
<g>
	<rect x="130.6" y="74.3" class="st1" width="45.6" height="44.5"/>
</g>
<g>
	<rect x="130.6" y="130.8" class="st1" width="67.4" height="44.5"/>
</g>
<g>
	<rect x="130.6" y="187.3" class="st1" width="373.7" height="44.5"/>
</g>
<g>
	<path class="st3" d="M173.9,40.3c0,0.4-0.1,0.8-0.2,1.1c-0.2,0.4-0.4,0.7-0.7,0.9c-0.3,0.3-0.6,0.5-1,0.6c-0.4,0.2-0.8,0.2-1.3,0.2
		c-0.4,0-0.9,0-1.3-0.1c-0.4-0.1-0.8-0.2-1.1-0.4l0.3-0.9c0.2,0.1,0.5,0.2,0.9,0.3c0.3,0.1,0.7,0.1,1,0.1c0.3,0,0.6-0.1,0.9-0.2
		s0.5-0.3,0.7-0.4c0.2-0.2,0.3-0.4,0.4-0.6c0.1-0.2,0.1-0.5,0.1-0.8c0-0.6-0.2-1.2-0.6-1.6c-0.4-0.4-1-0.6-1.9-0.6
		c-0.2,0-0.4,0-0.7,0c-0.2,0-0.5,0-0.7,0.1l0.5-4.8h4.4v1h-3.5l-0.3,3c0.2,0,0.3,0,0.4,0c0.1,0,0.2,0,0.3,0c1.1,0,1.9,0.3,2.4,0.8
		S173.9,39.4,173.9,40.3z"/>
	<path class="st3" d="M181.3,38.3c0,0.6-0.1,1.2-0.2,1.8s-0.3,1.1-0.5,1.6c-0.2,0.5-0.5,0.8-0.9,1.1c-0.4,0.3-0.8,0.4-1.4,0.4
		s-1-0.1-1.4-0.4c-0.4-0.3-0.7-0.7-0.9-1.1c-0.2-0.5-0.4-1-0.5-1.6c-0.1-0.6-0.1-1.2-0.1-1.8c0-0.6,0-1.2,0.1-1.8
		c0.1-0.6,0.3-1.1,0.5-1.6c0.2-0.5,0.5-0.8,0.9-1.1c0.4-0.3,0.8-0.4,1.4-0.4s1,0.1,1.4,0.4c0.4,0.3,0.7,0.7,0.9,1.1s0.4,1,0.5,1.6
		S181.3,37.7,181.3,38.3z M180.1,38.3c0-0.5,0-1-0.1-1.5s-0.1-0.9-0.3-1.3s-0.3-0.7-0.5-1s-0.5-0.4-0.9-0.4s-0.6,0.1-0.9,0.4
		s-0.4,0.6-0.5,1s-0.2,0.8-0.3,1.3s-0.1,1-0.1,1.5s0,1,0.1,1.5c0,0.5,0.1,0.9,0.3,1.3c0.1,0.4,0.3,0.7,0.5,1
		c0.2,0.2,0.5,0.4,0.9,0.4s0.6-0.1,0.9-0.4c0.2-0.2,0.4-0.6,0.5-1c0.1-0.4,0.2-0.8,0.3-1.3C180.1,39.3,180.1,38.8,180.1,38.3z"/>
	<path class="st3" d="M186.9,36.3c0,0.4,0,0.7-0.1,1.1c-0.1,0.4-0.2,0.7-0.4,1c-0.2,0.3-0.4,0.5-0.6,0.7s-0.5,0.3-0.9,0.3
		c-0.3,0-0.6-0.1-0.9-0.3s-0.5-0.4-0.6-0.7c-0.2-0.3-0.3-0.6-0.4-1c-0.1-0.4-0.1-0.7-0.1-1.1c0-0.4,0-0.7,0.1-1.1
		c0.1-0.4,0.2-0.7,0.4-1c0.2-0.3,0.4-0.5,0.6-0.7s0.5-0.3,0.9-0.3c0.3,0,0.6,0.1,0.9,0.3s0.5,0.4,0.6,0.7c0.2,0.3,0.3,0.6,0.4,1
		C186.8,35.6,186.9,36,186.9,36.3z M186,36.3c0-0.3,0-0.6-0.1-0.9c0-0.3-0.1-0.5-0.2-0.8s-0.2-0.4-0.3-0.5c-0.1-0.1-0.3-0.2-0.5-0.2
		c-0.2,0-0.4,0.1-0.5,0.2c-0.1,0.1-0.2,0.3-0.3,0.5s-0.1,0.5-0.2,0.8c0,0.3-0.1,0.6-0.1,0.9c0,0.3,0,0.6,0.1,0.9
		c0,0.3,0.1,0.5,0.2,0.8s0.2,0.4,0.3,0.5c0.1,0.1,0.3,0.2,0.5,0.2c0.2,0,0.4-0.1,0.5-0.2c0.1-0.1,0.2-0.3,0.3-0.5s0.1-0.5,0.2-0.8
		S186,36.6,186,36.3z M186.8,43.2l-0.7-0.3l3.3-9.6l0.7,0.3L186.8,43.2z M193.2,40.3c0,0.4,0,0.7-0.1,1.1c-0.1,0.4-0.2,0.7-0.3,1
		c-0.2,0.3-0.4,0.5-0.6,0.7c-0.2,0.2-0.5,0.3-0.9,0.3s-0.6-0.1-0.9-0.3c-0.2-0.2-0.5-0.4-0.6-0.7c-0.2-0.3-0.3-0.6-0.3-1
		c-0.1-0.4-0.1-0.7-0.1-1.1s0-0.7,0.1-1.1c0.1-0.4,0.2-0.7,0.3-1c0.2-0.3,0.4-0.5,0.6-0.7c0.2-0.2,0.5-0.3,0.9-0.3s0.6,0.1,0.9,0.3
		c0.2,0.2,0.5,0.4,0.6,0.7c0.2,0.3,0.3,0.6,0.3,1C193.2,39.5,193.2,39.9,193.2,40.3z M192.3,40.3c0-0.3,0-0.6-0.1-0.9
		c0-0.3-0.1-0.5-0.2-0.8c-0.1-0.2-0.2-0.4-0.3-0.5c-0.1-0.1-0.3-0.2-0.5-0.2s-0.4,0.1-0.5,0.2c-0.1,0.1-0.2,0.3-0.3,0.5
		c-0.1,0.2-0.1,0.5-0.2,0.8c0,0.3-0.1,0.6-0.1,0.9c0,0.3,0,0.6,0.1,0.9c0,0.3,0.1,0.5,0.2,0.8c0.1,0.2,0.2,0.4,0.3,0.5
		c0.1,0.1,0.3,0.2,0.5,0.2s0.4-0.1,0.5-0.2c0.1-0.1,0.2-0.3,0.3-0.5c0.1-0.2,0.1-0.5,0.2-0.8C192.3,40.9,192.3,40.6,192.3,40.3z"/>
</g>
<g>
	<path class="st3" d="M3,43.1v-11h1.2v11H3z"/>
	<path class="st3" d="M11.7,39.4c0,0.6-0.1,1.1-0.2,1.6c-0.1,0.5-0.3,0.9-0.5,1.2c-0.2,0.4-0.6,0.6-0.9,0.8s-0.8,0.3-1.3,0.3
		c-0.5,0-1-0.1-1.3-0.3c-0.4-0.2-0.7-0.5-0.9-0.8c-0.2-0.3-0.4-0.8-0.5-1.2c-0.1-0.5-0.2-1-0.2-1.6c0-0.6,0.1-1.1,0.2-1.6
		c0.1-0.5,0.3-0.9,0.5-1.2s0.6-0.6,0.9-0.8c0.4-0.2,0.8-0.3,1.3-0.3c0.5,0,1,0.1,1.3,0.3c0.4,0.2,0.7,0.5,0.9,0.8
		c0.2,0.3,0.4,0.8,0.5,1.2C11.6,38.3,11.7,38.8,11.7,39.4z M10.5,39.3c0-0.4,0-0.8-0.1-1.2s-0.2-0.7-0.3-1c-0.1-0.3-0.3-0.5-0.5-0.7
		c-0.2-0.2-0.5-0.2-0.8-0.2c-0.3,0-0.6,0.1-0.8,0.2c-0.2,0.2-0.4,0.4-0.5,0.7c-0.1,0.3-0.2,0.6-0.3,1C7,38.5,7,38.9,7,39.3
		s0,0.8,0.1,1.2c0.1,0.4,0.2,0.7,0.3,1c0.1,0.3,0.3,0.5,0.5,0.7c0.2,0.2,0.5,0.3,0.8,0.3c0.3,0,0.6-0.1,0.8-0.3
		c0.2-0.2,0.4-0.4,0.5-0.7c0.1-0.3,0.2-0.6,0.3-1S10.5,39.7,10.5,39.3z"/>
	<path class="st3" d="M20.2,43.1h-1.1l-1.5-5.4c-0.1-0.3-0.1-0.6-0.2-0.9h0c0,0.2,0,0.3-0.1,0.5c0,0.1-0.1,0.3-0.1,0.4l-1.5,5.4
		h-1.1l-2.2-7.5h1.3l1.3,5.4c0,0.1,0,0.2,0.1,0.4c0,0.2,0.1,0.4,0.1,0.6h0c0-0.2,0-0.4,0.1-0.5c0-0.2,0.1-0.3,0.1-0.4l1.5-5.4h1
		l1.5,5.4c0,0.2,0.1,0.3,0.1,0.4c0,0.1,0,0.3,0.1,0.5h0c0-0.2,0.1-0.4,0.1-0.5c0-0.1,0.1-0.3,0.1-0.4l1.3-5.4h1.1L20.2,43.1z"/>
	<path class="st3" d="M31.2,42.8c-0.2,0.2-0.5,0.3-0.7,0.4c-0.3,0.1-0.6,0.1-1,0.1c-0.5,0-0.9-0.1-1.2-0.3c-0.4-0.2-0.7-0.5-0.9-0.8
		s-0.4-0.8-0.6-1.2c-0.1-0.5-0.2-1-0.2-1.6c0-0.6,0.1-1.1,0.2-1.6c0.1-0.5,0.3-0.9,0.6-1.2c0.3-0.3,0.6-0.6,0.9-0.8s0.8-0.3,1.2-0.3
		c0.4,0,0.7,0,1,0.1c0.3,0.1,0.5,0.2,0.7,0.4l-0.3,0.7c-0.1-0.1-0.3-0.2-0.5-0.3s-0.4-0.1-0.7-0.1c-0.3,0-0.6,0.1-0.8,0.2
		s-0.4,0.4-0.6,0.6c-0.2,0.3-0.3,0.6-0.4,1c-0.1,0.4-0.1,0.8-0.1,1.2c0,0.4,0,0.8,0.1,1.2c0.1,0.4,0.2,0.7,0.4,1
		c0.2,0.3,0.4,0.5,0.6,0.7s0.5,0.2,0.8,0.2c0.2,0,0.4,0,0.6-0.1c0.2-0.1,0.4-0.2,0.5-0.3L31.2,42.8z"/>
	<path class="st3" d="M37.8,39.4c0,0.6-0.1,1.1-0.2,1.6c-0.1,0.5-0.3,0.9-0.5,1.2c-0.2,0.4-0.6,0.6-0.9,0.8s-0.8,0.3-1.3,0.3
		c-0.5,0-1-0.1-1.3-0.3c-0.4-0.2-0.7-0.5-0.9-0.8c-0.2-0.3-0.4-0.8-0.5-1.2c-0.1-0.5-0.2-1-0.2-1.6c0-0.6,0.1-1.1,0.2-1.6
		c0.1-0.5,0.3-0.9,0.5-1.2s0.6-0.6,0.9-0.8c0.4-0.2,0.8-0.3,1.3-0.3c0.5,0,1,0.1,1.3,0.3c0.4,0.2,0.7,0.5,0.9,0.8
		c0.2,0.3,0.4,0.8,0.5,1.2C37.8,38.3,37.8,38.8,37.8,39.4z M36.6,39.3c0-0.4,0-0.8-0.1-1.2s-0.2-0.7-0.3-1c-0.1-0.3-0.3-0.5-0.5-0.7
		c-0.2-0.2-0.5-0.2-0.8-0.2c-0.3,0-0.6,0.1-0.8,0.2c-0.2,0.2-0.4,0.4-0.5,0.7c-0.1,0.3-0.2,0.6-0.3,1c-0.1,0.4-0.1,0.8-0.1,1.2
		s0,0.8,0.1,1.2c0.1,0.4,0.2,0.7,0.3,1c0.1,0.3,0.3,0.5,0.5,0.7c0.2,0.2,0.5,0.3,0.8,0.3c0.3,0,0.6-0.1,0.8-0.3
		c0.2-0.2,0.4-0.4,0.5-0.7c0.1-0.3,0.2-0.6,0.3-1S36.6,39.7,36.6,39.3z"/>
	<path class="st3" d="M47.7,43.1v-5.3c0-0.5-0.1-0.9-0.4-1.2c-0.2-0.3-0.6-0.4-1.2-0.4c-0.3,0-0.6,0.1-0.8,0.2
		c-0.2,0.1-0.5,0.3-0.6,0.5v6.2h-1.2v-5.5c0-0.4-0.1-0.8-0.4-1c-0.3-0.3-0.7-0.4-1.2-0.4c-0.3,0-0.5,0-0.8,0.1
		c-0.2,0-0.4,0.1-0.7,0.2v6.7h-1.2V36c0.4-0.2,0.8-0.3,1.2-0.4c0.4-0.1,0.9-0.1,1.4-0.1c0.6,0,1,0.1,1.4,0.2
		c0.4,0.1,0.6,0.4,0.9,0.7c0.3-0.3,0.6-0.5,0.9-0.6c0.4-0.2,0.8-0.2,1.2-0.2c0.5,0,0.9,0.1,1.2,0.2c0.3,0.1,0.6,0.3,0.8,0.5
		c0.2,0.2,0.4,0.5,0.5,0.8c0.1,0.3,0.2,0.6,0.2,1v5.2H47.7z"/>
	<path class="st3" d="M56.3,39.2c0,0.6-0.1,1.2-0.2,1.7c-0.2,0.5-0.4,0.9-0.7,1.3c-0.3,0.3-0.6,0.6-1,0.8c-0.4,0.2-0.9,0.3-1.4,0.3
		c-0.2,0-0.4,0-0.6-0.1s-0.4-0.1-0.5-0.1v3.1h-1.2V36c0.3-0.2,0.7-0.3,1.1-0.4c0.4-0.1,0.8-0.1,1.3-0.1c0.5,0,1,0.1,1.4,0.3
		c0.4,0.2,0.8,0.4,1.1,0.8c0.3,0.3,0.5,0.7,0.6,1.2S56.3,38.7,56.3,39.2z M55.1,39.3c0-0.5,0-0.9-0.1-1.3c-0.1-0.4-0.2-0.7-0.4-1
		s-0.4-0.5-0.7-0.6s-0.6-0.2-1-0.2c-0.2,0-0.4,0-0.6,0c-0.2,0-0.4,0.1-0.5,0.2v5.9c0.1,0,0.2,0.1,0.4,0.1c0.2,0,0.3,0,0.5,0
		c0.8,0,1.4-0.3,1.7-0.8C54.9,41.1,55.1,40.3,55.1,39.3z"/>
	<path class="st3" d="M57.8,43.1v-11h1.2v11H57.8z"/>
	<path class="st3" d="M61.8,39.8c0.1,0.8,0.3,1.4,0.7,1.9c0.4,0.5,0.9,0.7,1.7,0.7c0.3,0,0.7,0,1-0.1c0.3-0.1,0.6-0.2,0.8-0.3
		l0.3,0.8c-0.3,0.2-0.6,0.3-1,0.4c-0.4,0.1-0.8,0.1-1.3,0.1c-1.1,0-1.9-0.3-2.5-1s-0.9-1.7-0.9-2.9c0-0.6,0.1-1.1,0.2-1.6
		c0.1-0.5,0.3-0.9,0.6-1.2c0.3-0.3,0.6-0.6,1-0.8c0.4-0.2,0.8-0.3,1.3-0.3c0.9,0,1.6,0.3,2.1,0.9c0.5,0.6,0.8,1.5,0.8,2.7v0.1
		L61.8,39.8z M65.3,38.6c0-0.8-0.2-1.4-0.4-1.8s-0.7-0.6-1.3-0.6c-0.3,0-0.6,0.1-0.8,0.2c-0.2,0.1-0.4,0.3-0.6,0.6
		c-0.2,0.3-0.3,0.6-0.4,0.9s-0.1,0.7-0.1,1.2v0.1L65.3,38.6z"/>
	<path class="st3" d="M71.7,43.1L70,40.1h0l-1.7,3.1h-1.3l2.3-3.9l-2.1-3.6h1.3l1.5,2.8h0l1.5-2.8h1.2l-2.1,3.6l2.3,4H71.7z"/>
	<path class="st3" d="M75.5,33.5c0,0.2-0.1,0.3-0.2,0.5c-0.1,0.1-0.3,0.2-0.5,0.2c-0.2,0-0.4-0.1-0.5-0.2c-0.1-0.1-0.2-0.3-0.2-0.5
		s0.1-0.3,0.2-0.5c0.1-0.1,0.3-0.2,0.5-0.2c0.2,0,0.4,0.1,0.5,0.2C75.4,33.1,75.5,33.3,75.5,33.5z M74.2,43.1v-7.5h1.2v7.5H74.2z"/>
	<path class="st3" d="M80.2,43.1c-0.2,0.1-0.4,0.1-0.7,0.1c-0.5,0-1-0.2-1.3-0.5s-0.5-0.8-0.5-1.4v-4.9h-0.9v-0.8h0.9v-1.7l1.2-0.4
		v2.1h1.3v0.8h-1.3v4.9c0,0.3,0.1,0.6,0.2,0.8c0.2,0.2,0.4,0.3,0.7,0.3c0.1,0,0.3,0,0.4-0.1V43.1z"/>
	<path class="st3" d="M83.5,46.1h-1.3l1.2-3l-2.5-7.5h1.3l1.6,5.5c0,0.1,0.1,0.3,0.1,0.5c0,0.2,0.1,0.3,0.1,0.5h0
		c0-0.1,0-0.3,0.1-0.5s0.1-0.3,0.1-0.5l1.6-5.5H87L83.5,46.1z"/>
</g>
<g>
	<path class="st3" d="M193.5,96.7c0,0.4-0.1,0.7-0.2,1c-0.1,0.3-0.4,0.6-0.6,0.8c-0.3,0.2-0.6,0.4-0.9,0.5s-0.7,0.2-1.2,0.2
		c-0.4,0-0.8-0.1-1.1-0.2c-0.4-0.1-0.7-0.3-0.9-0.5c-0.3-0.2-0.5-0.5-0.7-0.7s-0.2-0.6-0.2-1c0-0.4,0.1-0.7,0.2-1
		c0.1-0.3,0.3-0.5,0.5-0.7s0.4-0.4,0.7-0.6s0.5-0.3,0.8-0.5c-0.3-0.1-0.5-0.3-0.7-0.4c-0.2-0.2-0.4-0.3-0.6-0.5s-0.3-0.4-0.4-0.7
		c-0.1-0.2-0.1-0.5-0.1-0.8c0-0.3,0.1-0.6,0.2-0.9c0.1-0.3,0.3-0.5,0.6-0.7c0.2-0.2,0.5-0.4,0.8-0.5c0.3-0.1,0.7-0.2,1-0.2
		c0.4,0,0.7,0.1,1,0.2c0.3,0.1,0.6,0.3,0.8,0.5c0.2,0.2,0.4,0.4,0.6,0.7c0.1,0.3,0.2,0.6,0.2,0.9c0,0.3,0,0.6-0.1,0.8
		c-0.1,0.2-0.2,0.5-0.4,0.6s-0.4,0.4-0.6,0.5c-0.2,0.2-0.5,0.3-0.7,0.4c0.3,0.2,0.5,0.3,0.8,0.5s0.5,0.4,0.7,0.6
		c0.2,0.2,0.4,0.5,0.5,0.7C193.5,96,193.5,96.3,193.5,96.7z M192.4,96.7c0-0.3,0-0.6-0.1-0.8c-0.1-0.2-0.2-0.4-0.4-0.6
		c-0.2-0.2-0.4-0.3-0.6-0.5c-0.2-0.1-0.5-0.3-0.7-0.4c-0.3,0.1-0.5,0.3-0.7,0.4c-0.2,0.1-0.4,0.3-0.6,0.5c-0.2,0.2-0.3,0.4-0.4,0.6
		c-0.1,0.2-0.1,0.5-0.1,0.8c0,0.3,0,0.5,0.1,0.7c0.1,0.2,0.2,0.4,0.4,0.5c0.2,0.1,0.4,0.2,0.6,0.3c0.2,0.1,0.5,0.1,0.7,0.1
		c0.5,0,1-0.1,1.3-0.4S192.4,97.2,192.4,96.7z M192.2,91.5c0-0.5-0.1-0.8-0.4-1.1s-0.7-0.4-1.1-0.4c-0.5,0-0.9,0.1-1.2,0.4
		S189,91,189,91.5c0,0.2,0,0.5,0.1,0.7c0.1,0.2,0.2,0.4,0.3,0.5c0.1,0.2,0.3,0.3,0.5,0.4c0.2,0.1,0.4,0.3,0.6,0.4
		c0.2-0.1,0.4-0.3,0.6-0.4c0.2-0.1,0.4-0.3,0.5-0.4c0.1-0.2,0.2-0.3,0.3-0.5C192.2,92,192.2,91.7,192.2,91.5z"/>
	<path class="st3" d="M200.2,96.2c0,0.4-0.1,0.8-0.2,1.1c-0.2,0.4-0.4,0.7-0.7,0.9s-0.6,0.5-1,0.6c-0.4,0.2-0.8,0.2-1.3,0.2
		c-0.4,0-0.9,0-1.3-0.1c-0.4-0.1-0.8-0.2-1.1-0.4l0.3-0.9c0.2,0.1,0.5,0.2,0.9,0.3c0.3,0.1,0.7,0.1,1,0.1c0.3,0,0.6-0.1,0.9-0.2
		c0.3-0.1,0.5-0.3,0.7-0.4s0.3-0.4,0.4-0.6c0.1-0.2,0.1-0.5,0.1-0.8c0-0.6-0.2-1.2-0.6-1.6c-0.4-0.4-1-0.6-1.9-0.6
		c-0.2,0-0.4,0-0.7,0c-0.2,0-0.5,0-0.7,0.1l0.5-4.8h4.4v1h-3.5l-0.3,3c0.2,0,0.3,0,0.4,0c0.1,0,0.2,0,0.3,0c1.1,0,1.9,0.3,2.4,0.8
		C199.9,94.6,200.2,95.3,200.2,96.2z"/>
	<path class="st3" d="M205.6,92.2c0,0.4,0,0.7-0.1,1.1c-0.1,0.4-0.2,0.7-0.4,1c-0.2,0.3-0.4,0.5-0.6,0.7s-0.5,0.3-0.9,0.3
		c-0.3,0-0.6-0.1-0.9-0.3s-0.5-0.4-0.6-0.7c-0.2-0.3-0.3-0.6-0.4-1c-0.1-0.4-0.1-0.7-0.1-1.1s0-0.7,0.1-1.1c0.1-0.4,0.2-0.7,0.4-1
		c0.2-0.3,0.4-0.5,0.6-0.7s0.5-0.3,0.9-0.3c0.3,0,0.6,0.1,0.9,0.3s0.5,0.4,0.6,0.7c0.2,0.3,0.3,0.6,0.4,1
		C205.6,91.5,205.6,91.8,205.6,92.2z M204.7,92.2c0-0.3,0-0.6-0.1-0.9c0-0.3-0.1-0.5-0.2-0.8c-0.1-0.2-0.2-0.4-0.3-0.5
		c-0.1-0.1-0.3-0.2-0.5-0.2c-0.2,0-0.4,0.1-0.5,0.2c-0.1,0.1-0.2,0.3-0.3,0.5c-0.1,0.2-0.1,0.5-0.2,0.8c0,0.3-0.1,0.6-0.1,0.9
		c0,0.3,0,0.6,0.1,0.9c0,0.3,0.1,0.5,0.2,0.8c0.1,0.2,0.2,0.4,0.3,0.5c0.1,0.1,0.3,0.2,0.5,0.2c0.2,0,0.4-0.1,0.5-0.2
		c0.1-0.1,0.2-0.3,0.3-0.5c0.1-0.2,0.1-0.5,0.2-0.8C204.7,92.8,204.7,92.5,204.7,92.2z M205.5,99.1l-0.7-0.3l3.3-9.6l0.7,0.3
		L205.5,99.1z M212,96.2c0,0.4,0,0.7-0.1,1.1c-0.1,0.4-0.2,0.7-0.3,1c-0.2,0.3-0.4,0.5-0.6,0.7c-0.2,0.2-0.5,0.3-0.9,0.3
		s-0.6-0.1-0.9-0.3c-0.2-0.2-0.5-0.4-0.6-0.7s-0.3-0.6-0.3-1c-0.1-0.4-0.1-0.7-0.1-1.1c0-0.4,0-0.7,0.1-1.1c0.1-0.4,0.2-0.7,0.3-1
		s0.4-0.5,0.6-0.7c0.2-0.2,0.5-0.3,0.9-0.3s0.6,0.1,0.9,0.3c0.2,0.2,0.5,0.4,0.6,0.7c0.2,0.3,0.3,0.6,0.3,1
		C211.9,95.4,212,95.8,212,96.2z M211.1,96.1c0-0.3,0-0.6-0.1-0.9c0-0.3-0.1-0.5-0.2-0.8c-0.1-0.2-0.2-0.4-0.3-0.5
		c-0.1-0.1-0.3-0.2-0.5-0.2s-0.4,0.1-0.5,0.2s-0.2,0.3-0.3,0.5c-0.1,0.2-0.1,0.5-0.2,0.8c0,0.3-0.1,0.6-0.1,0.9c0,0.3,0,0.6,0.1,0.9
		s0.1,0.5,0.2,0.8c0.1,0.2,0.2,0.4,0.3,0.5c0.1,0.1,0.3,0.2,0.5,0.2s0.4-0.1,0.5-0.2c0.1-0.1,0.2-0.3,0.3-0.5
		c0.1-0.2,0.1-0.5,0.2-0.8S211.1,96.4,211.1,96.1z"/>
</g>
<g>
	<path class="st3" d="M210.9,155.2v-8.1c-0.1,0.1-0.3,0.2-0.5,0.2c-0.2,0.1-0.4,0.1-0.6,0.2c-0.2,0.1-0.5,0.1-0.7,0.2
		s-0.4,0.1-0.7,0.1l-0.2-0.7c0.7-0.1,1.3-0.3,1.8-0.5c0.5-0.2,0.9-0.6,1.2-1h0.9v9.6H210.9z"/>
	<path class="st3" d="M213.9,155.2l3.5-5c0.3-0.5,0.6-0.9,0.7-1.2c0.1-0.3,0.2-0.6,0.2-0.9c0-0.5-0.2-1-0.5-1.3
		c-0.3-0.3-0.8-0.5-1.5-0.5c-0.3,0-0.6,0-0.9,0.1c-0.3,0.1-0.6,0.2-0.8,0.3l-0.3-0.8c0.3-0.2,0.7-0.3,1.1-0.4s0.8-0.1,1.3-0.1
		c1,0,1.8,0.2,2.3,0.7c0.5,0.5,0.7,1.1,0.7,1.9c0,0.4-0.1,0.7-0.3,1.2c-0.2,0.4-0.5,0.9-0.9,1.5l-2.6,3.5h3.9v1H213.9z"/>
	<path class="st3" d="M226.3,152.4c0,0.4-0.1,0.8-0.2,1.1c-0.2,0.4-0.4,0.7-0.7,0.9c-0.3,0.3-0.6,0.5-1,0.6
		c-0.4,0.2-0.8,0.2-1.3,0.2c-0.4,0-0.9,0-1.3-0.1c-0.4-0.1-0.8-0.2-1.1-0.4l0.3-0.9c0.2,0.1,0.5,0.2,0.9,0.3s0.7,0.1,1,0.1
		c0.3,0,0.6-0.1,0.9-0.2s0.5-0.3,0.7-0.4c0.2-0.2,0.3-0.4,0.4-0.6c0.1-0.2,0.1-0.5,0.1-0.8c0-0.6-0.2-1.2-0.6-1.6
		c-0.4-0.4-1-0.6-1.9-0.6c-0.2,0-0.4,0-0.7,0s-0.5,0-0.7,0.1l0.5-4.8h4.4v1h-3.5l-0.3,3c0.2,0,0.3,0,0.4,0c0.1,0,0.2,0,0.3,0
		c1.1,0,1.9,0.3,2.4,0.8S226.3,151.5,226.3,152.4z"/>
	<path class="st3" d="M231.8,148.4c0,0.4,0,0.7-0.1,1.1c-0.1,0.4-0.2,0.7-0.4,1c-0.2,0.3-0.4,0.5-0.6,0.7s-0.5,0.3-0.9,0.3
		c-0.3,0-0.6-0.1-0.9-0.3s-0.5-0.4-0.6-0.7c-0.2-0.3-0.3-0.6-0.4-1c-0.1-0.4-0.1-0.7-0.1-1.1c0-0.4,0-0.7,0.1-1.1
		c0.1-0.4,0.2-0.7,0.4-1c0.2-0.3,0.4-0.5,0.6-0.7s0.5-0.3,0.9-0.3c0.3,0,0.6,0.1,0.9,0.3s0.5,0.4,0.6,0.7c0.2,0.3,0.3,0.6,0.4,1
		C231.8,147.7,231.8,148,231.8,148.4z M230.9,148.4c0-0.3,0-0.6-0.1-0.9c0-0.3-0.1-0.5-0.2-0.8s-0.2-0.4-0.3-0.5
		c-0.1-0.1-0.3-0.2-0.5-0.2c-0.2,0-0.4,0.1-0.5,0.2c-0.1,0.1-0.2,0.3-0.3,0.5s-0.1,0.5-0.2,0.8c0,0.3-0.1,0.6-0.1,0.9
		c0,0.3,0,0.6,0.1,0.9c0,0.3,0.1,0.5,0.2,0.8s0.2,0.4,0.3,0.5c0.1,0.1,0.3,0.2,0.5,0.2c0.2,0,0.4-0.1,0.5-0.2
		c0.1-0.1,0.2-0.3,0.3-0.5s0.1-0.5,0.2-0.8S230.9,148.7,230.9,148.4z M231.7,155.3l-0.7-0.3l3.3-9.6l0.7,0.3L231.7,155.3z
		 M238.1,152.4c0,0.4,0,0.7-0.1,1.1c-0.1,0.4-0.2,0.7-0.3,1c-0.2,0.3-0.4,0.5-0.6,0.7c-0.2,0.2-0.5,0.3-0.9,0.3s-0.6-0.1-0.9-0.3
		c-0.2-0.2-0.5-0.4-0.6-0.7c-0.2-0.3-0.3-0.6-0.3-1c-0.1-0.4-0.1-0.7-0.1-1.1s0-0.7,0.1-1.1c0.1-0.4,0.2-0.7,0.3-1
		c0.2-0.3,0.4-0.5,0.6-0.7c0.2-0.2,0.5-0.3,0.9-0.3s0.6,0.1,0.9,0.3c0.2,0.2,0.5,0.4,0.6,0.7c0.2,0.3,0.3,0.6,0.3,1
		C238.1,151.6,238.1,152,238.1,152.4z M237.2,152.3c0-0.3,0-0.6-0.1-0.9c0-0.3-0.1-0.5-0.2-0.8c-0.1-0.2-0.2-0.4-0.3-0.5
		c-0.1-0.1-0.3-0.2-0.5-0.2s-0.4,0.1-0.5,0.2c-0.1,0.1-0.2,0.3-0.3,0.5c-0.1,0.2-0.1,0.5-0.2,0.8c0,0.3-0.1,0.6-0.1,0.9
		c0,0.3,0,0.6,0.1,0.9c0,0.3,0.1,0.5,0.2,0.8c0.1,0.2,0.2,0.4,0.3,0.5c0.1,0.1,0.3,0.2,0.5,0.2s0.4-0.1,0.5-0.2
		c0.1-0.1,0.2-0.3,0.3-0.5c0.1-0.2,0.1-0.5,0.2-0.8C237.2,152.9,237.2,152.6,237.2,152.3z"/>
</g>
<g>
	<path class="st3" d="M521.1,209c0,0.4-0.1,0.7-0.2,1s-0.4,0.6-0.6,0.8c-0.3,0.2-0.6,0.4-0.9,0.5c-0.4,0.1-0.7,0.2-1.2,0.2
		c-0.4,0-0.8-0.1-1.1-0.2c-0.4-0.1-0.7-0.3-0.9-0.5s-0.5-0.5-0.7-0.7s-0.2-0.6-0.2-1c0-0.4,0.1-0.7,0.2-1c0.1-0.3,0.3-0.5,0.5-0.7
		c0.2-0.2,0.4-0.4,0.7-0.6s0.5-0.3,0.8-0.5c-0.3-0.1-0.5-0.3-0.7-0.4c-0.2-0.2-0.4-0.3-0.6-0.5c-0.2-0.2-0.3-0.4-0.4-0.7
		c-0.1-0.2-0.1-0.5-0.1-0.8c0-0.3,0.1-0.6,0.2-0.9c0.1-0.3,0.3-0.5,0.6-0.7c0.2-0.2,0.5-0.4,0.8-0.5c0.3-0.1,0.7-0.2,1-0.2
		c0.4,0,0.7,0.1,1,0.2s0.6,0.3,0.8,0.5c0.2,0.2,0.4,0.4,0.6,0.7c0.1,0.3,0.2,0.6,0.2,0.9c0,0.3,0,0.6-0.1,0.8
		c-0.1,0.2-0.2,0.5-0.4,0.6s-0.4,0.4-0.6,0.5c-0.2,0.2-0.5,0.3-0.7,0.4c0.3,0.2,0.5,0.3,0.8,0.5s0.5,0.4,0.7,0.6
		c0.2,0.2,0.4,0.5,0.5,0.8C521,208.3,521.1,208.6,521.1,209z M519.9,209c0-0.3,0-0.6-0.1-0.8c-0.1-0.2-0.2-0.4-0.4-0.6
		s-0.4-0.3-0.6-0.5c-0.2-0.1-0.5-0.3-0.7-0.4c-0.3,0.1-0.5,0.3-0.7,0.4c-0.2,0.1-0.4,0.3-0.6,0.5c-0.2,0.2-0.3,0.4-0.4,0.6
		c-0.1,0.2-0.1,0.5-0.1,0.8c0,0.3,0,0.5,0.1,0.7s0.2,0.4,0.4,0.5s0.4,0.2,0.6,0.3c0.2,0.1,0.5,0.1,0.7,0.1c0.5,0,1-0.2,1.3-0.4
		C519.8,209.8,519.9,209.4,519.9,209z M519.8,203.7c0-0.5-0.1-0.8-0.4-1.1s-0.7-0.4-1.1-0.4c-0.5,0-0.9,0.1-1.2,0.4
		s-0.4,0.6-0.4,1.1c0,0.2,0,0.5,0.1,0.7s0.2,0.4,0.3,0.5c0.1,0.2,0.3,0.3,0.5,0.4c0.2,0.1,0.4,0.3,0.6,0.4c0.2-0.1,0.4-0.3,0.6-0.4
		s0.4-0.3,0.5-0.4c0.1-0.2,0.2-0.3,0.3-0.5S519.8,204,519.8,203.7z"/>
	<path class="st3" d="M528.4,206.4c0,0.6-0.1,1.2-0.2,1.8c-0.1,0.6-0.3,1.1-0.5,1.6s-0.5,0.8-0.9,1.1c-0.4,0.3-0.8,0.4-1.4,0.4
		s-1-0.1-1.4-0.4s-0.7-0.7-0.9-1.1c-0.2-0.5-0.4-1-0.5-1.6c-0.1-0.6-0.1-1.2-0.1-1.8c0-0.6,0-1.2,0.1-1.8c0.1-0.6,0.3-1.1,0.5-1.6
		c0.2-0.5,0.5-0.8,0.9-1.1c0.4-0.3,0.8-0.4,1.4-0.4s1,0.1,1.4,0.4c0.4,0.3,0.7,0.7,0.9,1.1s0.4,1,0.5,1.6
		C528.4,205.2,528.4,205.8,528.4,206.4z M527.2,206.4c0-0.5,0-1-0.1-1.5c0-0.5-0.1-0.9-0.3-1.3c-0.1-0.4-0.3-0.7-0.5-1
		c-0.2-0.2-0.5-0.4-0.9-0.4s-0.6,0.1-0.9,0.4c-0.2,0.2-0.4,0.6-0.5,1c-0.1,0.4-0.2,0.8-0.3,1.3c0,0.5-0.1,1-0.1,1.5s0,1,0.1,1.5
		c0,0.5,0.1,0.9,0.3,1.3s0.3,0.7,0.5,1s0.5,0.4,0.9,0.4s0.6-0.1,0.9-0.4s0.4-0.6,0.5-1s0.2-0.8,0.3-1.3
		C527.2,207.4,527.2,206.9,527.2,206.4z"/>
	<path class="st3" d="M536,206.4c0,0.6-0.1,1.2-0.2,1.8c-0.1,0.6-0.3,1.1-0.5,1.6s-0.5,0.8-0.9,1.1c-0.4,0.3-0.8,0.4-1.4,0.4
		s-1-0.1-1.4-0.4s-0.7-0.7-0.9-1.1c-0.2-0.5-0.4-1-0.5-1.6c-0.1-0.6-0.1-1.2-0.1-1.8c0-0.6,0-1.2,0.1-1.8c0.1-0.6,0.3-1.1,0.5-1.6
		c0.2-0.5,0.5-0.8,0.9-1.1c0.4-0.3,0.8-0.4,1.4-0.4s1,0.1,1.4,0.4c0.4,0.3,0.7,0.7,0.9,1.1s0.4,1,0.5,1.6
		C536,205.2,536,205.8,536,206.4z M534.8,206.4c0-0.5,0-1-0.1-1.5c0-0.5-0.1-0.9-0.3-1.3c-0.1-0.4-0.3-0.7-0.5-1
		c-0.2-0.2-0.5-0.4-0.9-0.4s-0.6,0.1-0.9,0.4c-0.2,0.2-0.4,0.6-0.5,1c-0.1,0.4-0.2,0.8-0.3,1.3c0,0.5-0.1,1-0.1,1.5s0,1,0.1,1.5
		c0,0.5,0.1,0.9,0.3,1.3s0.3,0.7,0.5,1s0.5,0.4,0.9,0.4s0.6-0.1,0.9-0.4s0.4-0.6,0.5-1s0.2-0.8,0.3-1.3
		C534.8,207.4,534.8,206.9,534.8,206.4z"/>
	<path class="st3" d="M541.5,204.4c0,0.4,0,0.7-0.1,1.1c-0.1,0.4-0.2,0.7-0.4,1c-0.2,0.3-0.4,0.5-0.6,0.7s-0.5,0.3-0.9,0.3
		c-0.3,0-0.6-0.1-0.9-0.3s-0.5-0.4-0.6-0.7c-0.2-0.3-0.3-0.6-0.4-1c-0.1-0.4-0.1-0.7-0.1-1.1c0-0.4,0-0.7,0.1-1.1
		c0.1-0.4,0.2-0.7,0.4-1c0.2-0.3,0.4-0.5,0.6-0.7s0.5-0.3,0.9-0.3c0.3,0,0.6,0.1,0.9,0.3s0.5,0.4,0.6,0.7c0.2,0.3,0.3,0.6,0.4,1
		C541.5,203.7,541.5,204.1,541.5,204.4z M540.6,204.4c0-0.3,0-0.6-0.1-0.9c0-0.3-0.1-0.5-0.2-0.8s-0.2-0.4-0.3-0.5
		c-0.1-0.1-0.3-0.2-0.5-0.2c-0.2,0-0.4,0.1-0.5,0.2c-0.1,0.1-0.2,0.3-0.3,0.5s-0.1,0.5-0.2,0.8c0,0.3-0.1,0.6-0.1,0.9
		c0,0.3,0,0.6,0.1,0.9c0,0.3,0.1,0.5,0.2,0.8s0.2,0.4,0.3,0.5c0.1,0.1,0.3,0.2,0.5,0.2c0.2,0,0.4-0.1,0.5-0.2
		c0.1-0.1,0.2-0.3,0.3-0.5s0.1-0.5,0.2-0.8S540.6,204.7,540.6,204.4z M541.5,211.4l-0.7-0.3l3.3-9.6l0.7,0.3L541.5,211.4z
		 M547.9,208.4c0,0.4,0,0.7-0.1,1.1c-0.1,0.4-0.2,0.7-0.3,1c-0.2,0.3-0.4,0.5-0.6,0.7c-0.2,0.2-0.5,0.3-0.9,0.3s-0.6-0.1-0.9-0.3
		c-0.2-0.2-0.5-0.4-0.6-0.7c-0.2-0.3-0.3-0.6-0.3-1c-0.1-0.4-0.1-0.7-0.1-1.1c0-0.4,0-0.7,0.1-1.1c0.1-0.4,0.2-0.7,0.3-1
		c0.2-0.3,0.4-0.5,0.6-0.7c0.2-0.2,0.5-0.3,0.9-0.3s0.6,0.1,0.9,0.3c0.2,0.2,0.5,0.4,0.6,0.7c0.2,0.3,0.3,0.6,0.3,1
		C547.9,207.7,547.9,208,547.9,208.4z M547,208.4c0-0.3,0-0.6-0.1-0.9c0-0.3-0.1-0.5-0.2-0.8c-0.1-0.2-0.2-0.4-0.3-0.5
		c-0.1-0.1-0.3-0.2-0.5-0.2s-0.4,0.1-0.5,0.2s-0.2,0.3-0.3,0.5c-0.1,0.2-0.1,0.5-0.2,0.8c0,0.3-0.1,0.6-0.1,0.9c0,0.3,0,0.6,0.1,0.9
		c0,0.3,0.1,0.5,0.2,0.8c0.1,0.2,0.2,0.4,0.3,0.5s0.3,0.2,0.5,0.2s0.4-0.1,0.5-0.2c0.1-0.1,0.2-0.3,0.3-0.5c0.1-0.2,0.1-0.5,0.2-0.8
		C547,209,547,208.7,547,208.4z"/>
</g>
<g>
	<path class="st3" d="M11.4,99v-5.3c0-0.5-0.1-0.9-0.4-1.2c-0.2-0.3-0.6-0.4-1.2-0.4c-0.3,0-0.6,0.1-0.8,0.2
		c-0.2,0.1-0.5,0.3-0.6,0.5V99H7.1v-5.5c0-0.4-0.1-0.8-0.4-1c-0.3-0.3-0.7-0.4-1.2-0.4c-0.3,0-0.5,0-0.8,0.1c-0.2,0-0.4,0.1-0.7,0.2
		V99H2.9v-7.2c0.4-0.2,0.8-0.3,1.2-0.4c0.4-0.1,0.9-0.1,1.4-0.1c0.6,0,1,0.1,1.4,0.2c0.4,0.1,0.6,0.4,0.9,0.7
		c0.3-0.3,0.6-0.5,0.9-0.6c0.4-0.2,0.8-0.2,1.2-0.2c0.5,0,0.9,0.1,1.2,0.2c0.3,0.1,0.6,0.3,0.8,0.5c0.2,0.2,0.4,0.5,0.5,0.8
		c0.1,0.3,0.2,0.6,0.2,1V99H11.4z"/>
	<path class="st3" d="M15.2,95.7c0.1,0.8,0.3,1.4,0.7,1.9c0.4,0.5,0.9,0.7,1.7,0.7c0.3,0,0.7,0,1-0.1c0.3-0.1,0.6-0.2,0.8-0.3
		l0.3,0.8c-0.3,0.2-0.6,0.3-1,0.4c-0.4,0.1-0.8,0.1-1.3,0.1c-1.1,0-1.9-0.3-2.5-1S14,96.4,14,95.2c0-0.6,0.1-1.1,0.2-1.6
		c0.1-0.5,0.3-0.9,0.6-1.2c0.3-0.3,0.6-0.6,1-0.8c0.4-0.2,0.8-0.3,1.3-0.3c0.9,0,1.6,0.3,2.1,0.9c0.5,0.6,0.8,1.5,0.8,2.7V95
		L15.2,95.7z M18.8,94.5c0-0.8-0.2-1.4-0.4-1.8s-0.7-0.6-1.3-0.6c-0.3,0-0.6,0.1-0.8,0.2c-0.2,0.1-0.4,0.3-0.6,0.6
		c-0.2,0.3-0.3,0.6-0.4,0.9s-0.1,0.7-0.1,1.2V95L18.8,94.5z"/>
	<path class="st3" d="M26.8,98.6c-0.3,0.2-0.6,0.3-1,0.4c-0.4,0.1-0.9,0.1-1.4,0.1c-0.5,0-1-0.1-1.4-0.3c-0.4-0.2-0.8-0.4-1-0.8
		c-0.3-0.3-0.5-0.7-0.6-1.2c-0.1-0.5-0.2-1-0.2-1.5c0-0.6,0.1-1.1,0.2-1.6c0.1-0.5,0.3-0.9,0.6-1.3s0.6-0.6,1-0.9
		c0.4-0.2,0.9-0.3,1.4-0.3c0.2,0,0.4,0,0.6,0c0.2,0,0.4,0.1,0.6,0.1V88h1.2V98.6z M25.5,92.2c-0.1,0-0.3-0.1-0.5-0.1
		c-0.2,0-0.3,0-0.5,0c-0.4,0-0.8,0.1-1.1,0.3c-0.3,0.2-0.5,0.4-0.7,0.7c-0.2,0.3-0.3,0.6-0.4,1s-0.1,0.8-0.1,1.2
		c0,0.4,0,0.9,0.1,1.2c0.1,0.4,0.2,0.7,0.4,1s0.4,0.5,0.7,0.6s0.6,0.2,1,0.2c0.3,0,0.5,0,0.6,0c0.2,0,0.3-0.1,0.5-0.2V92.2z"/>
	<path class="st3" d="M29.9,89.3c0,0.2-0.1,0.3-0.2,0.5c-0.1,0.1-0.3,0.2-0.5,0.2c-0.2,0-0.4-0.1-0.5-0.2c-0.1-0.1-0.2-0.3-0.2-0.5
		s0.1-0.3,0.2-0.5c0.1-0.1,0.3-0.2,0.5-0.2c0.2,0,0.4,0.1,0.5,0.2C29.8,89,29.9,89.1,29.9,89.3z M28.6,99v-7.5h1.2V99H28.6z"/>
	<path class="st3" d="M36.9,98.6c-0.3,0.2-0.7,0.3-1.1,0.4c-0.5,0.1-1,0.2-1.4,0.2c-0.9,0-1.6-0.2-2.1-0.6c-0.5-0.4-0.7-1-0.7-1.9
		v-5.2h1.2v5.3c0,1.1,0.5,1.6,1.5,1.6c0.2,0,0.5,0,0.7-0.1s0.5-0.1,0.6-0.2v-6.6h1.2V98.6z"/>
	<path class="st3" d="M47.1,99v-5.3c0-0.5-0.1-0.9-0.4-1.2c-0.2-0.3-0.6-0.4-1.2-0.4c-0.3,0-0.6,0.1-0.8,0.2
		c-0.2,0.1-0.5,0.3-0.6,0.5V99h-1.2v-5.5c0-0.4-0.1-0.8-0.4-1c-0.3-0.3-0.7-0.4-1.2-0.4c-0.3,0-0.5,0-0.8,0.1
		c-0.2,0-0.4,0.1-0.7,0.2V99h-1.2v-7.2c0.4-0.2,0.8-0.3,1.2-0.4c0.4-0.1,0.9-0.1,1.4-0.1c0.6,0,1,0.1,1.4,0.2
		c0.4,0.1,0.6,0.4,0.9,0.7c0.3-0.3,0.6-0.5,0.9-0.6c0.4-0.2,0.8-0.2,1.2-0.2c0.5,0,0.9,0.1,1.2,0.2c0.3,0.1,0.6,0.3,0.8,0.5
		c0.2,0.2,0.4,0.5,0.5,0.8c0.1,0.3,0.2,0.6,0.2,1V99H47.1z"/>
	<path class="st3" d="M57.9,98.6c-0.2,0.2-0.5,0.3-0.7,0.4c-0.3,0.1-0.6,0.1-1,0.1c-0.5,0-0.9-0.1-1.2-0.3c-0.4-0.2-0.7-0.5-0.9-0.8
		s-0.4-0.8-0.6-1.2c-0.1-0.5-0.2-1-0.2-1.6c0-0.6,0.1-1.1,0.2-1.6c0.1-0.5,0.3-0.9,0.6-1.2c0.3-0.3,0.6-0.6,0.9-0.8s0.8-0.3,1.2-0.3
		c0.4,0,0.7,0,1,0.1c0.3,0.1,0.5,0.2,0.7,0.4l-0.3,0.7c-0.1-0.1-0.3-0.2-0.5-0.3s-0.4-0.1-0.7-0.1c-0.3,0-0.6,0.1-0.8,0.2
		s-0.4,0.4-0.6,0.6c-0.2,0.3-0.3,0.6-0.4,1c-0.1,0.4-0.1,0.8-0.1,1.2c0,0.4,0,0.8,0.1,1.2c0.1,0.4,0.2,0.7,0.4,1
		c0.2,0.3,0.4,0.5,0.6,0.7s0.5,0.2,0.8,0.2c0.2,0,0.4,0,0.6-0.1c0.2-0.1,0.4-0.2,0.5-0.3L57.9,98.6z"/>
	<path class="st3" d="M64.6,95.2c0,0.6-0.1,1.1-0.2,1.6c-0.1,0.5-0.3,0.9-0.5,1.2c-0.2,0.4-0.6,0.6-0.9,0.8s-0.8,0.3-1.3,0.3
		c-0.5,0-1-0.1-1.3-0.3c-0.4-0.2-0.7-0.5-0.9-0.8c-0.2-0.3-0.4-0.8-0.5-1.2c-0.1-0.5-0.2-1-0.2-1.6c0-0.6,0.1-1.1,0.2-1.6
		c0.1-0.5,0.3-0.9,0.5-1.2s0.6-0.6,0.9-0.8c0.4-0.2,0.8-0.3,1.3-0.3c0.5,0,1,0.1,1.3,0.3c0.4,0.2,0.7,0.5,0.9,0.8
		c0.2,0.3,0.4,0.8,0.5,1.2C64.5,94.1,64.6,94.7,64.6,95.2z M63.4,95.2c0-0.4,0-0.8-0.1-1.2s-0.2-0.7-0.3-1c-0.1-0.3-0.3-0.5-0.5-0.7
		c-0.2-0.2-0.5-0.2-0.8-0.2c-0.3,0-0.6,0.1-0.8,0.2c-0.2,0.2-0.4,0.4-0.5,0.7c-0.1,0.3-0.2,0.6-0.3,1c-0.1,0.4-0.1,0.8-0.1,1.2
		s0,0.8,0.1,1.2c0.1,0.4,0.2,0.7,0.3,1c0.1,0.3,0.3,0.5,0.5,0.7c0.2,0.2,0.5,0.3,0.8,0.3c0.3,0,0.6-0.1,0.8-0.3
		c0.2-0.2,0.4-0.4,0.5-0.7c0.1-0.3,0.2-0.6,0.3-1S63.4,95.6,63.4,95.2z"/>
	<path class="st3" d="M74.5,99v-5.3c0-0.5-0.1-0.9-0.4-1.2c-0.2-0.3-0.6-0.4-1.2-0.4c-0.3,0-0.6,0.1-0.8,0.2
		c-0.2,0.1-0.5,0.3-0.6,0.5V99h-1.2v-5.5c0-0.4-0.1-0.8-0.4-1c-0.3-0.3-0.7-0.4-1.2-0.4c-0.3,0-0.5,0-0.8,0.1
		c-0.2,0-0.4,0.1-0.7,0.2V99H66v-7.2c0.4-0.2,0.8-0.3,1.2-0.4c0.4-0.1,0.9-0.1,1.4-0.1c0.6,0,1,0.1,1.4,0.2c0.4,0.1,0.6,0.4,0.9,0.7
		c0.3-0.3,0.6-0.5,0.9-0.6c0.4-0.2,0.8-0.2,1.2-0.2c0.5,0,0.9,0.1,1.2,0.2c0.3,0.1,0.6,0.3,0.8,0.5c0.2,0.2,0.4,0.5,0.5,0.8
		c0.1,0.3,0.2,0.6,0.2,1V99H74.5z"/>
	<path class="st3" d="M83.1,95.1c0,0.6-0.1,1.2-0.2,1.7c-0.2,0.5-0.4,0.9-0.7,1.3c-0.3,0.3-0.6,0.6-1,0.8c-0.4,0.2-0.9,0.3-1.4,0.3
		c-0.2,0-0.4,0-0.6-0.1s-0.4-0.1-0.5-0.1v3.1h-1.2V91.8c0.3-0.2,0.7-0.3,1.1-0.4c0.4-0.1,0.8-0.1,1.3-0.1c0.5,0,1,0.1,1.4,0.3
		c0.4,0.2,0.8,0.4,1.1,0.8c0.3,0.3,0.5,0.7,0.6,1.2S83.1,94.5,83.1,95.1z M81.9,95.2c0-0.5,0-0.9-0.1-1.3c-0.1-0.4-0.2-0.7-0.4-1
		s-0.4-0.5-0.7-0.6s-0.6-0.2-1-0.2c-0.2,0-0.4,0-0.6,0c-0.2,0-0.4,0.1-0.5,0.2v5.9c0.1,0,0.2,0.1,0.4,0.1c0.2,0,0.3,0,0.5,0
		c0.8,0,1.4-0.3,1.7-0.8C81.7,96.9,81.9,96.2,81.9,95.2z"/>
	<path class="st3" d="M84.6,99V88h1.2v11H84.6z"/>
	<path class="st3" d="M88.5,95.7c0.1,0.8,0.3,1.4,0.7,1.9c0.4,0.5,0.9,0.7,1.7,0.7c0.3,0,0.7,0,1-0.1c0.3-0.1,0.6-0.2,0.8-0.3
		l0.3,0.8c-0.3,0.2-0.6,0.3-1,0.4c-0.4,0.1-0.8,0.1-1.3,0.1c-1.1,0-1.9-0.3-2.5-1s-0.9-1.7-0.9-2.9c0-0.6,0.1-1.1,0.2-1.6
		c0.1-0.5,0.3-0.9,0.6-1.2c0.3-0.3,0.6-0.6,1-0.8c0.4-0.2,0.8-0.3,1.3-0.3c0.9,0,1.6,0.3,2.1,0.9c0.5,0.6,0.8,1.5,0.8,2.7V95
		L88.5,95.7z M92.1,94.5c0-0.8-0.2-1.4-0.4-1.8s-0.7-0.6-1.3-0.6c-0.3,0-0.6,0.1-0.8,0.2c-0.2,0.1-0.4,0.3-0.6,0.6
		c-0.2,0.3-0.3,0.6-0.4,0.9s-0.1,0.7-0.1,1.2V95L92.1,94.5z"/>
	<path class="st3" d="M98.4,99l-1.6-3.1h0L95.1,99h-1.3l2.3-3.9L94,91.5h1.3l1.5,2.8h0l1.5-2.8h1.2L97.4,95l2.3,4H98.4z"/>
	<path class="st3" d="M102.3,89.3c0,0.2-0.1,0.3-0.2,0.5c-0.1,0.1-0.3,0.2-0.5,0.2c-0.2,0-0.4-0.1-0.5-0.2c-0.1-0.1-0.2-0.3-0.2-0.5
		s0.1-0.3,0.2-0.5c0.1-0.1,0.3-0.2,0.5-0.2c0.2,0,0.4,0.1,0.5,0.2C102.2,89,102.3,89.1,102.3,89.3z M100.9,99v-7.5h1.2V99H100.9z"/>
	<path class="st3" d="M106.9,98.9c-0.2,0.1-0.4,0.1-0.7,0.1c-0.5,0-1-0.2-1.3-0.5s-0.5-0.8-0.5-1.4v-4.9h-0.9v-0.8h0.9v-1.7l1.2-0.4
		v2.1h1.3v0.8h-1.3v4.9c0,0.3,0.1,0.6,0.2,0.8c0.2,0.2,0.4,0.3,0.7,0.3c0.1,0,0.3,0,0.4-0.1V98.9z"/>
	<path class="st3" d="M110.2,102h-1.3l1.2-3l-2.5-7.5h1.3l1.6,5.5c0,0.1,0.1,0.3,0.1,0.5c0,0.2,0.1,0.3,0.1,0.5h0
		c0-0.1,0-0.3,0.1-0.5s0.1-0.3,0.1-0.5l1.6-5.5h1.2L110.2,102z"/>
</g>
<g>
	<path class="st3" d="M7.2,155.2v-5.3c0-0.2,0-0.4-0.1-0.6S7,149,6.9,148.8c-0.1-0.1-0.3-0.3-0.5-0.3s-0.4-0.1-0.7-0.1
		c-0.3,0-0.5,0-0.8,0.1c-0.3,0.1-0.5,0.2-0.7,0.3v6.4H2.9v-11h1.2v3.8c0.2-0.1,0.5-0.3,0.8-0.3c0.3-0.1,0.6-0.1,0.9-0.1
		c0.5,0,0.9,0.1,1.2,0.2s0.6,0.3,0.8,0.5c0.2,0.2,0.3,0.5,0.4,0.7s0.1,0.5,0.1,0.8v5.4H7.2z"/>
	<path class="st3" d="M11.6,145.5c0,0.2-0.1,0.3-0.2,0.5c-0.1,0.1-0.3,0.2-0.5,0.2c-0.2,0-0.4-0.1-0.5-0.2c-0.1-0.1-0.2-0.3-0.2-0.5
		s0.1-0.3,0.2-0.5c0.1-0.1,0.3-0.2,0.5-0.2c0.2,0,0.4,0.1,0.5,0.2C11.5,145.2,11.6,145.3,11.6,145.5z M10.2,155.2v-7.5h1.2v7.5H10.2
		z"/>
	<path class="st3" d="M18.6,155.3c0,1-0.3,1.7-0.8,2.2c-0.5,0.5-1.2,0.8-2.2,0.8c-0.4,0-0.9,0-1.3-0.1c-0.4-0.1-0.8-0.2-1-0.4
		l0.4-0.8c0.2,0.1,0.5,0.2,0.8,0.3s0.6,0.1,1,0.1c0.7,0,1.2-0.2,1.5-0.6c0.3-0.4,0.4-0.8,0.4-1.4V155c-0.2,0.1-0.4,0.2-0.6,0.2
		s-0.5,0.1-0.9,0.1c-0.5,0-0.9-0.1-1.2-0.3c-0.4-0.2-0.7-0.4-0.9-0.7c-0.3-0.3-0.5-0.7-0.6-1.2c-0.1-0.5-0.2-1-0.2-1.6
		c0-0.6,0.1-1.2,0.2-1.7s0.4-0.9,0.7-1.3c0.3-0.4,0.7-0.6,1.1-0.8s0.9-0.3,1.5-0.3c0.4,0,0.9,0,1.2,0.1c0.4,0.1,0.7,0.2,1,0.4V155.3
		z M17.4,148.5c-0.1-0.1-0.3-0.1-0.5-0.2c-0.2,0-0.4,0-0.6,0c-0.4,0-0.7,0.1-1,0.2c-0.3,0.2-0.5,0.4-0.7,0.7c-0.2,0.3-0.3,0.6-0.4,1
		s-0.1,0.8-0.1,1.3c0,1,0.2,1.7,0.5,2.2s0.8,0.8,1.6,0.8c0.2,0,0.5,0,0.7-0.1c0.2-0.1,0.4-0.1,0.5-0.2V148.5z"/>
	<path class="st3" d="M24.6,155.2v-5.3c0-0.2,0-0.4-0.1-0.6s-0.1-0.3-0.3-0.5c-0.1-0.1-0.3-0.3-0.5-0.3s-0.4-0.1-0.7-0.1
		c-0.3,0-0.5,0-0.8,0.1c-0.3,0.1-0.5,0.2-0.7,0.3v6.4h-1.2v-11h1.2v3.8c0.2-0.1,0.5-0.3,0.8-0.3c0.3-0.1,0.6-0.1,0.9-0.1
		c0.5,0,0.9,0.1,1.2,0.2s0.6,0.3,0.8,0.5c0.2,0.2,0.3,0.5,0.4,0.7s0.1,0.5,0.1,0.8v5.4H24.6z"/>
	<path class="st3" d="M35.4,154.9c-0.2,0.2-0.5,0.3-0.7,0.4c-0.3,0.1-0.6,0.1-1,0.1c-0.5,0-0.9-0.1-1.2-0.3
		c-0.4-0.2-0.7-0.5-0.9-0.8c-0.3-0.3-0.4-0.8-0.6-1.2c-0.1-0.5-0.2-1-0.2-1.6c0-0.6,0.1-1.1,0.2-1.6c0.1-0.5,0.3-0.9,0.6-1.2
		s0.6-0.6,0.9-0.8s0.8-0.3,1.2-0.3c0.4,0,0.7,0,1,0.1c0.3,0.1,0.5,0.2,0.7,0.4l-0.3,0.7c-0.1-0.1-0.3-0.2-0.5-0.3
		c-0.2-0.1-0.4-0.1-0.7-0.1c-0.3,0-0.6,0.1-0.8,0.2c-0.2,0.2-0.4,0.4-0.6,0.6c-0.2,0.3-0.3,0.6-0.4,1s-0.1,0.8-0.1,1.2
		s0,0.8,0.1,1.2c0.1,0.4,0.2,0.7,0.4,1c0.2,0.3,0.4,0.5,0.6,0.7c0.2,0.2,0.5,0.2,0.8,0.2c0.2,0,0.4,0,0.6-0.1
		c0.2-0.1,0.4-0.2,0.5-0.3L35.4,154.9z"/>
	<path class="st3" d="M42.1,151.4c0,0.6-0.1,1.1-0.2,1.6c-0.1,0.5-0.3,0.9-0.5,1.2c-0.2,0.3-0.6,0.6-0.9,0.8
		c-0.4,0.2-0.8,0.3-1.3,0.3c-0.5,0-1-0.1-1.3-0.3c-0.4-0.2-0.7-0.5-0.9-0.8c-0.2-0.4-0.4-0.8-0.5-1.2c-0.1-0.5-0.2-1-0.2-1.6
		c0-0.6,0.1-1.1,0.2-1.6c0.1-0.5,0.3-0.9,0.5-1.2c0.2-0.3,0.6-0.6,0.9-0.8c0.4-0.2,0.8-0.3,1.3-0.3c0.5,0,1,0.1,1.3,0.3
		s0.7,0.5,0.9,0.8c0.2,0.3,0.4,0.8,0.5,1.2C42,150.3,42.1,150.9,42.1,151.4z M40.8,151.4c0-0.4,0-0.8-0.1-1.2
		c-0.1-0.4-0.2-0.7-0.3-1c-0.1-0.3-0.3-0.5-0.5-0.7c-0.2-0.2-0.5-0.2-0.8-0.2c-0.3,0-0.6,0.1-0.8,0.2c-0.2,0.2-0.4,0.4-0.5,0.7
		c-0.1,0.3-0.2,0.6-0.3,1c-0.1,0.4-0.1,0.8-0.1,1.2s0,0.8,0.1,1.2c0.1,0.4,0.2,0.7,0.3,1c0.1,0.3,0.3,0.5,0.5,0.7
		c0.2,0.2,0.5,0.3,0.8,0.3c0.3,0,0.6-0.1,0.8-0.3c0.2-0.2,0.4-0.4,0.5-0.7c0.1-0.3,0.2-0.6,0.3-1S40.8,151.8,40.8,151.4z"/>
	<path class="st3" d="M52,155.2v-5.3c0-0.5-0.1-0.9-0.4-1.2c-0.2-0.3-0.6-0.4-1.2-0.4c-0.3,0-0.6,0.1-0.8,0.2
		c-0.2,0.1-0.5,0.3-0.6,0.5v6.2h-1.2v-5.5c0-0.4-0.1-0.8-0.4-1c-0.3-0.3-0.7-0.4-1.2-0.4c-0.3,0-0.5,0-0.8,0.1
		c-0.2,0-0.4,0.1-0.7,0.2v6.6h-1.2V148c0.4-0.2,0.8-0.3,1.2-0.4c0.4-0.1,0.9-0.1,1.4-0.1c0.6,0,1,0.1,1.4,0.2
		c0.4,0.1,0.6,0.4,0.9,0.7c0.3-0.3,0.6-0.5,0.9-0.6c0.4-0.2,0.8-0.2,1.2-0.2c0.5,0,0.9,0.1,1.2,0.2c0.3,0.1,0.6,0.3,0.8,0.5
		s0.4,0.5,0.5,0.8c0.1,0.3,0.2,0.6,0.2,1v5.2H52z"/>
	<path class="st3" d="M60.6,151.3c0,0.6-0.1,1.2-0.2,1.7c-0.2,0.5-0.4,0.9-0.7,1.3c-0.3,0.3-0.6,0.6-1,0.8c-0.4,0.2-0.9,0.3-1.4,0.3
		c-0.2,0-0.4,0-0.6-0.1c-0.2,0-0.4-0.1-0.5-0.1v3.1h-1.2V148c0.3-0.2,0.7-0.3,1.1-0.4s0.8-0.1,1.3-0.1c0.5,0,1,0.1,1.4,0.3
		c0.4,0.2,0.8,0.4,1.1,0.8c0.3,0.3,0.5,0.7,0.6,1.2S60.6,150.7,60.6,151.3z M59.3,151.4c0-0.5,0-0.9-0.1-1.3c-0.1-0.4-0.2-0.7-0.4-1
		s-0.4-0.5-0.7-0.6s-0.6-0.2-1-0.2c-0.2,0-0.4,0-0.6,0s-0.4,0.1-0.5,0.2v5.9c0.1,0,0.2,0.1,0.4,0.1c0.2,0,0.3,0,0.5,0
		c0.8,0,1.4-0.3,1.7-0.8C59.1,153.2,59.3,152.4,59.3,151.4z"/>
	<path class="st3" d="M62.1,155.2v-11h1.2v11H62.1z"/>
	<path class="st3" d="M66,151.9c0.1,0.8,0.3,1.4,0.7,1.9c0.4,0.5,0.9,0.7,1.7,0.7c0.3,0,0.7,0,1-0.1c0.3-0.1,0.6-0.2,0.8-0.3
		l0.3,0.8c-0.3,0.2-0.6,0.3-1,0.4s-0.8,0.1-1.3,0.1c-1.1,0-1.9-0.3-2.5-1s-0.9-1.7-0.9-2.9c0-0.6,0.1-1.1,0.2-1.6
		c0.1-0.5,0.3-0.9,0.6-1.2c0.3-0.3,0.6-0.6,1-0.8c0.4-0.2,0.8-0.3,1.3-0.3c0.9,0,1.6,0.3,2.1,0.9s0.8,1.5,0.8,2.7v0.1L66,151.9z
		 M69.5,150.7c0-0.8-0.2-1.4-0.4-1.8c-0.3-0.4-0.7-0.6-1.3-0.6c-0.3,0-0.6,0.1-0.8,0.2c-0.2,0.1-0.4,0.3-0.6,0.6
		c-0.2,0.3-0.3,0.6-0.4,0.9c-0.1,0.4-0.1,0.7-0.1,1.2v0.1L69.5,150.7z"/>
	<path class="st3" d="M75.9,155.2l-1.6-3.1h0l-1.7,3.1h-1.3l2.3-3.9l-2.1-3.6h1.3l1.5,2.8h0l1.5-2.8H77l-2.1,3.6l2.3,4H75.9z"/>
	<path class="st3" d="M79.7,145.5c0,0.2-0.1,0.3-0.2,0.5c-0.1,0.1-0.3,0.2-0.5,0.2c-0.2,0-0.4-0.1-0.5-0.2c-0.1-0.1-0.2-0.3-0.2-0.5
		s0.1-0.3,0.2-0.5c0.1-0.1,0.3-0.2,0.5-0.2c0.2,0,0.4,0.1,0.5,0.2C79.7,145.2,79.7,145.3,79.7,145.5z M78.4,155.2v-7.5h1.2v7.5H78.4
		z"/>
	<path class="st3" d="M84.4,155.1c-0.2,0.1-0.4,0.1-0.7,0.1c-0.5,0-1-0.2-1.3-0.5c-0.3-0.3-0.5-0.8-0.5-1.4v-4.9H81v-0.8h0.9v-1.7
		l1.2-0.4v2.1h1.3v0.8h-1.3v4.9c0,0.3,0.1,0.6,0.2,0.8c0.2,0.2,0.4,0.3,0.7,0.3c0.1,0,0.3,0,0.4-0.1V155.1z"/>
	<path class="st3" d="M87.7,158.2h-1.3l1.2-3l-2.5-7.5h1.3l1.6,5.5c0,0.1,0.1,0.3,0.1,0.5c0,0.2,0.1,0.3,0.1,0.5h0
		c0-0.1,0-0.3,0.1-0.5c0-0.2,0.1-0.4,0.1-0.5l1.6-5.5h1.2L87.7,158.2z"/>
</g>
<g>
	<path class="st3" d="M5.9,211.2H4.8l-2.5-7.5h1.3l1.6,5.4c0,0.1,0.1,0.3,0.1,0.4c0,0.1,0.1,0.3,0.1,0.6h0c0-0.3,0.1-0.4,0.1-0.6
		c0-0.1,0.1-0.3,0.1-0.4l1.6-5.4h1.2L5.9,211.2z"/>
	<path class="st3" d="M10.3,207.9c0.1,0.8,0.3,1.4,0.7,1.9c0.4,0.5,0.9,0.7,1.7,0.7c0.3,0,0.7,0,1-0.1c0.3-0.1,0.6-0.2,0.8-0.3
		l0.3,0.8c-0.3,0.2-0.6,0.3-1,0.4s-0.8,0.1-1.3,0.1c-1.1,0-1.9-0.3-2.5-1s-0.9-1.7-0.9-2.9c0-0.6,0.1-1.1,0.2-1.6
		c0.1-0.5,0.3-0.9,0.6-1.2c0.3-0.3,0.6-0.6,1-0.8c0.4-0.2,0.8-0.3,1.3-0.3c0.9,0,1.6,0.3,2.1,0.9s0.8,1.5,0.8,2.7v0.1L10.3,207.9z
		 M13.8,206.7c0-0.8-0.2-1.4-0.4-1.8c-0.3-0.4-0.7-0.6-1.3-0.6c-0.3,0-0.6,0.1-0.8,0.2c-0.2,0.1-0.4,0.3-0.6,0.6
		c-0.2,0.3-0.3,0.6-0.4,0.9c-0.1,0.4-0.1,0.7-0.1,1.2v0.1L13.8,206.7z"/>
	<path class="st3" d="M19.4,204.5c-0.2-0.1-0.5-0.1-0.8-0.1c-0.2,0-0.3,0-0.5,0c-0.2,0-0.3,0.1-0.4,0.2v6.7h-1.2v-7.2
		c0.3-0.2,0.7-0.3,1.1-0.4c0.4-0.1,0.9-0.1,1.4-0.1c0.1,0,0.3,0,0.4,0c0.1,0,0.2,0,0.3,0L19.4,204.5z"/>
	<path class="st3" d="M22.7,214.3h-1.3l1.2-3l-2.5-7.5h1.3l1.6,5.5c0,0.1,0.1,0.3,0.1,0.5c0,0.2,0.1,0.3,0.1,0.5h0
		c0-0.1,0-0.3,0.1-0.5s0.1-0.4,0.1-0.5l1.6-5.5h1.2L22.7,214.3z"/>
	<path class="st3" d="M34.8,211.2v-5.3c0-0.2,0-0.4-0.1-0.6c0-0.2-0.1-0.3-0.3-0.5c-0.1-0.1-0.3-0.3-0.5-0.3s-0.4-0.1-0.7-0.1
		c-0.3,0-0.5,0-0.8,0.1s-0.5,0.2-0.7,0.3v6.4h-1.2v-11h1.2v3.8c0.2-0.1,0.5-0.3,0.8-0.3s0.6-0.1,0.9-0.1c0.5,0,0.9,0.1,1.2,0.2
		s0.6,0.3,0.8,0.5c0.2,0.2,0.3,0.5,0.4,0.7c0.1,0.3,0.1,0.5,0.1,0.8v5.4H34.8z"/>
	<path class="st3" d="M39.2,201.6c0,0.2-0.1,0.3-0.2,0.5s-0.3,0.2-0.5,0.2c-0.2,0-0.4-0.1-0.5-0.2s-0.2-0.3-0.2-0.5
		c0-0.2,0.1-0.3,0.2-0.5c0.1-0.1,0.3-0.2,0.5-0.2c0.2,0,0.4,0.1,0.5,0.2C39.1,201.2,39.2,201.4,39.2,201.6z M37.8,211.2v-7.5h1.2
		v7.5H37.8z"/>
	<path class="st3" d="M46.2,211.4c0,1-0.3,1.7-0.8,2.2c-0.5,0.5-1.2,0.8-2.2,0.8c-0.4,0-0.9,0-1.3-0.1c-0.4-0.1-0.8-0.2-1-0.4
		l0.4-0.8c0.2,0.1,0.5,0.2,0.8,0.3s0.6,0.1,1,0.1c0.7,0,1.2-0.2,1.5-0.6s0.4-0.8,0.4-1.4V211c-0.2,0.1-0.4,0.2-0.6,0.2
		s-0.5,0.1-0.9,0.1c-0.5,0-0.9-0.1-1.2-0.3c-0.4-0.2-0.7-0.4-0.9-0.7c-0.3-0.3-0.5-0.7-0.6-1.2c-0.1-0.5-0.2-1-0.2-1.6
		c0-0.6,0.1-1.2,0.2-1.7c0.1-0.5,0.4-0.9,0.7-1.3c0.3-0.4,0.7-0.6,1.1-0.8s0.9-0.3,1.5-0.3c0.4,0,0.9,0,1.2,0.1
		c0.4,0.1,0.7,0.2,1,0.4V211.4z M45,204.5c-0.1-0.1-0.3-0.1-0.5-0.2s-0.4,0-0.6,0c-0.4,0-0.7,0.1-1,0.2c-0.3,0.2-0.5,0.4-0.7,0.7
		c-0.2,0.3-0.3,0.6-0.4,1c-0.1,0.4-0.1,0.8-0.1,1.3c0,1,0.2,1.7,0.5,2.2c0.3,0.5,0.8,0.8,1.6,0.8c0.2,0,0.5,0,0.7-0.1
		c0.2-0.1,0.4-0.1,0.5-0.2V204.5z"/>
	<path class="st3" d="M52.2,211.2v-5.3c0-0.2,0-0.4-0.1-0.6c0-0.2-0.1-0.3-0.3-0.5c-0.1-0.1-0.3-0.3-0.5-0.3s-0.4-0.1-0.7-0.1
		c-0.3,0-0.5,0-0.8,0.1s-0.5,0.2-0.7,0.3v6.4h-1.2v-11h1.2v3.8c0.2-0.1,0.5-0.3,0.8-0.3s0.6-0.1,0.9-0.1c0.5,0,0.9,0.1,1.2,0.2
		s0.6,0.3,0.8,0.5c0.2,0.2,0.3,0.5,0.4,0.7c0.1,0.3,0.1,0.5,0.1,0.8v5.4H52.2z"/>
	<path class="st3" d="M63,210.9c-0.2,0.2-0.5,0.3-0.7,0.4c-0.3,0.1-0.6,0.1-1,0.1c-0.5,0-0.9-0.1-1.2-0.3c-0.4-0.2-0.7-0.5-0.9-0.8
		c-0.3-0.3-0.4-0.8-0.6-1.2c-0.1-0.5-0.2-1-0.2-1.6s0.1-1.1,0.2-1.6c0.1-0.5,0.3-0.9,0.6-1.2c0.3-0.3,0.6-0.6,0.9-0.8
		s0.8-0.3,1.2-0.3c0.4,0,0.7,0,1,0.1c0.3,0.1,0.5,0.2,0.7,0.4l-0.3,0.7c-0.1-0.1-0.3-0.2-0.5-0.3c-0.2-0.1-0.4-0.1-0.7-0.1
		c-0.3,0-0.6,0.1-0.8,0.2s-0.4,0.4-0.6,0.6c-0.2,0.3-0.3,0.6-0.4,1c-0.1,0.4-0.1,0.8-0.1,1.2s0,0.8,0.1,1.2s0.2,0.7,0.4,1
		c0.2,0.3,0.4,0.5,0.6,0.7c0.2,0.2,0.5,0.2,0.8,0.2c0.2,0,0.4,0,0.6-0.1c0.2-0.1,0.4-0.2,0.5-0.3L63,210.9z"/>
	<path class="st3" d="M69.7,207.5c0,0.6-0.1,1.1-0.2,1.6c-0.1,0.5-0.3,0.9-0.5,1.2c-0.2,0.4-0.6,0.6-0.9,0.8
		c-0.4,0.2-0.8,0.3-1.3,0.3c-0.5,0-1-0.1-1.3-0.3c-0.4-0.2-0.7-0.5-0.9-0.8s-0.4-0.8-0.5-1.2c-0.1-0.5-0.2-1-0.2-1.6
		c0-0.6,0.1-1.1,0.2-1.6c0.1-0.5,0.3-0.9,0.5-1.2s0.6-0.6,0.9-0.8c0.4-0.2,0.8-0.3,1.3-0.3c0.5,0,1,0.1,1.3,0.3
		c0.4,0.2,0.7,0.5,0.9,0.8c0.2,0.3,0.4,0.8,0.5,1.2C69.6,206.4,69.7,206.9,69.7,207.5z M68.5,207.4c0-0.4,0-0.8-0.1-1.2
		s-0.2-0.7-0.3-1s-0.3-0.5-0.5-0.7c-0.2-0.2-0.5-0.2-0.8-0.2c-0.3,0-0.6,0.1-0.8,0.2c-0.2,0.2-0.4,0.4-0.5,0.7
		c-0.1,0.3-0.2,0.6-0.3,1c-0.1,0.4-0.1,0.8-0.1,1.2s0,0.8,0.1,1.2c0.1,0.4,0.2,0.7,0.3,1c0.1,0.3,0.3,0.5,0.5,0.7
		c0.2,0.2,0.5,0.3,0.8,0.3c0.3,0,0.6-0.1,0.8-0.3c0.2-0.2,0.4-0.4,0.5-0.7s0.2-0.6,0.3-1S68.5,207.9,68.5,207.4z"/>
	<path class="st3" d="M79.6,211.2V206c0-0.5-0.1-0.9-0.4-1.2c-0.2-0.3-0.6-0.4-1.2-0.4c-0.3,0-0.6,0.1-0.8,0.2
		c-0.2,0.1-0.5,0.3-0.6,0.5v6.2h-1.2v-5.5c0-0.4-0.1-0.8-0.4-1c-0.3-0.3-0.7-0.4-1.2-0.4c-0.3,0-0.5,0-0.8,0.1
		c-0.2,0-0.4,0.1-0.7,0.2v6.7h-1.2v-7.2c0.4-0.2,0.8-0.3,1.2-0.4c0.4-0.1,0.9-0.1,1.4-0.1c0.6,0,1,0.1,1.4,0.2
		c0.4,0.2,0.6,0.4,0.9,0.7c0.3-0.3,0.6-0.5,0.9-0.6c0.4-0.2,0.8-0.2,1.2-0.2c0.5,0,0.9,0.1,1.2,0.2c0.3,0.1,0.6,0.3,0.8,0.5
		c0.2,0.2,0.4,0.5,0.5,0.8c0.1,0.3,0.2,0.6,0.2,1v5.2H79.6z"/>
	<path class="st3" d="M88.2,207.3c0,0.6-0.1,1.2-0.2,1.7c-0.2,0.5-0.4,0.9-0.7,1.3c-0.3,0.3-0.6,0.6-1,0.8c-0.4,0.2-0.9,0.3-1.4,0.3
		c-0.2,0-0.4,0-0.6-0.1c-0.2,0-0.4-0.1-0.5-0.1v3.1h-1.2v-10.2c0.3-0.2,0.7-0.3,1.1-0.4s0.8-0.1,1.3-0.1c0.5,0,1,0.1,1.4,0.3
		c0.4,0.2,0.8,0.4,1.1,0.8c0.3,0.3,0.5,0.7,0.6,1.2S88.2,206.8,88.2,207.3z M87,207.4c0-0.5,0-0.9-0.1-1.3c-0.1-0.4-0.2-0.7-0.4-1
		c-0.2-0.3-0.4-0.5-0.7-0.6s-0.6-0.2-1-0.2c-0.2,0-0.4,0-0.6,0c-0.2,0-0.4,0.1-0.5,0.2v5.9c0.1,0,0.2,0.1,0.4,0.1c0.2,0,0.3,0,0.5,0
		c0.8,0,1.4-0.3,1.7-0.8C86.8,209.2,87,208.4,87,207.4z"/>
	<path class="st3" d="M89.7,211.2v-11h1.2v11H89.7z"/>
	<path class="st3" d="M93.6,207.9c0.1,0.8,0.3,1.4,0.7,1.9c0.4,0.5,0.9,0.7,1.7,0.7c0.3,0,0.7,0,1-0.1c0.3-0.1,0.6-0.2,0.8-0.3
		l0.3,0.8c-0.3,0.2-0.6,0.3-1,0.4s-0.8,0.1-1.3,0.1c-1.1,0-1.9-0.3-2.5-1s-0.9-1.7-0.9-2.9c0-0.6,0.1-1.1,0.2-1.6
		c0.1-0.5,0.3-0.9,0.6-1.2c0.3-0.3,0.6-0.6,1-0.8c0.4-0.2,0.8-0.3,1.3-0.3c0.9,0,1.6,0.3,2.1,0.9s0.8,1.5,0.8,2.7v0.1L93.6,207.9z
		 M97.2,206.7c0-0.8-0.2-1.4-0.4-1.8c-0.3-0.4-0.7-0.6-1.3-0.6c-0.3,0-0.6,0.1-0.8,0.2c-0.2,0.1-0.4,0.3-0.6,0.6
		c-0.2,0.3-0.3,0.6-0.4,0.9c-0.1,0.4-0.1,0.7-0.1,1.2v0.1L97.2,206.7z"/>
	<path class="st3" d="M103.5,211.2l-1.6-3.1h0l-1.7,3.1h-1.3l2.3-3.9l-2.1-3.6h1.3l1.5,2.8h0l1.5-2.8h1.2l-2.1,3.6l2.3,4H103.5z"/>
	<path class="st3" d="M107.4,201.6c0,0.2-0.1,0.3-0.2,0.5s-0.3,0.2-0.5,0.2c-0.2,0-0.4-0.1-0.5-0.2s-0.2-0.3-0.2-0.5
		c0-0.2,0.1-0.3,0.2-0.5c0.1-0.1,0.3-0.2,0.5-0.2c0.2,0,0.4,0.1,0.5,0.2C107.3,201.2,107.4,201.4,107.4,201.6z M106,211.2v-7.5h1.2
		v7.5H106z"/>
	<path class="st3" d="M112,211.2c-0.2,0.1-0.4,0.1-0.7,0.1c-0.5,0-1-0.2-1.3-0.5c-0.3-0.3-0.5-0.8-0.5-1.4v-4.9h-0.9v-0.8h0.9V202
		l1.2-0.4v2.1h1.3v0.8h-1.3v4.9c0,0.3,0.1,0.6,0.2,0.8c0.2,0.2,0.4,0.3,0.7,0.3c0.1,0,0.3,0,0.4-0.1V211.2z"/>
	<path class="st3" d="M115.3,214.3H114l1.2-3l-2.5-7.5h1.3l1.6,5.5c0,0.1,0.1,0.3,0.1,0.5c0,0.2,0.1,0.3,0.1,0.5h0
		c0-0.1,0-0.3,0.1-0.5s0.1-0.4,0.1-0.5l1.6-5.5h1.2L115.3,214.3z"/>
</g>
<g>
	<path class="st4" d="M7.1,272.8c0,0.3-0.1,0.6-0.2,0.9c-0.1,0.3-0.3,0.5-0.5,0.7s-0.5,0.4-0.8,0.5C5.2,275,4.9,275,4.5,275
		c-0.4,0-0.8,0-1.1-0.1c-0.4-0.1-0.7-0.2-0.9-0.3l0.3-0.7c0.2,0.1,0.5,0.2,0.8,0.3c0.3,0.1,0.6,0.1,0.9,0.1c0.5,0,0.9-0.1,1.2-0.4
		c0.3-0.3,0.4-0.6,0.4-1c0-0.3-0.1-0.6-0.3-0.8s-0.4-0.4-0.6-0.6c-0.3-0.2-0.5-0.3-0.8-0.4c-0.3-0.1-0.6-0.3-0.8-0.5
		c-0.3-0.2-0.5-0.4-0.6-0.7s-0.3-0.7-0.3-1.1c0-0.3,0.1-0.6,0.2-0.9c0.1-0.3,0.3-0.5,0.5-0.7c0.2-0.2,0.5-0.3,0.8-0.4
		c0.3-0.1,0.6-0.2,1-0.2c0.3,0,0.7,0,1,0.1c0.3,0.1,0.6,0.2,0.8,0.3l-0.3,0.7c-0.2-0.1-0.4-0.2-0.6-0.3c-0.3-0.1-0.5-0.1-0.8-0.1
		c-0.5,0-0.8,0.1-1.1,0.3c-0.3,0.2-0.4,0.6-0.4,1c0,0.3,0.1,0.6,0.3,0.8c0.2,0.2,0.4,0.4,0.6,0.5s0.5,0.3,0.8,0.4
		c0.3,0.1,0.6,0.3,0.8,0.5c0.3,0.2,0.5,0.4,0.6,0.7C7,271.9,7.1,272.3,7.1,272.8z"/>
	<path class="st4" d="M13.4,271.7c0,0.5-0.1,0.9-0.2,1.3c-0.1,0.4-0.3,0.8-0.5,1.1s-0.5,0.5-0.8,0.7s-0.7,0.3-1.1,0.3
		c-0.4,0-0.8-0.1-1.1-0.3c-0.3-0.2-0.6-0.4-0.8-0.7s-0.4-0.7-0.5-1.1c-0.1-0.4-0.2-0.9-0.2-1.3c0-0.5,0-0.9,0.2-1.3
		c0.1-0.4,0.3-0.8,0.5-1.1c0.2-0.3,0.5-0.5,0.8-0.7c0.3-0.2,0.7-0.3,1.1-0.3c0.4,0,0.8,0.1,1.1,0.3s0.6,0.4,0.8,0.7
		c0.2,0.3,0.4,0.7,0.5,1.1C13.4,270.8,13.4,271.2,13.4,271.7z M12.4,271.7c0-0.4,0-0.7-0.1-1c-0.1-0.3-0.1-0.6-0.3-0.8
		c-0.1-0.2-0.3-0.4-0.5-0.6c-0.2-0.1-0.4-0.2-0.7-0.2c-0.3,0-0.5,0.1-0.7,0.2c-0.2,0.1-0.3,0.3-0.5,0.6c-0.1,0.2-0.2,0.5-0.3,0.8
		c-0.1,0.3-0.1,0.7-0.1,1c0,0.4,0,0.7,0.1,1c0.1,0.3,0.1,0.6,0.3,0.9c0.1,0.2,0.3,0.4,0.5,0.6c0.2,0.1,0.4,0.2,0.7,0.2
		c0.3,0,0.5-0.1,0.7-0.2c0.2-0.1,0.3-0.3,0.5-0.6c0.1-0.2,0.2-0.5,0.3-0.9C12.4,272.4,12.4,272,12.4,271.7z"/>
	<path class="st4" d="M19.5,274.6c-0.2,0.1-0.6,0.2-1,0.3s-0.8,0.1-1.2,0.1c-0.8,0-1.4-0.2-1.8-0.5c-0.4-0.3-0.6-0.9-0.6-1.6v-4.5
		H16v4.5c0,0.9,0.4,1.4,1.3,1.4c0.2,0,0.4,0,0.6-0.1c0.2,0,0.4-0.1,0.5-0.2v-5.7h1.1V274.6z"/>
	<path class="st4" d="M23.7,269.2c-0.2-0.1-0.4-0.1-0.7-0.1c-0.1,0-0.3,0-0.4,0c-0.1,0-0.3,0.1-0.4,0.1v5.7h-1.1v-6.1
		c0.3-0.1,0.6-0.2,1-0.3c0.4-0.1,0.8-0.1,1.2-0.1c0.1,0,0.2,0,0.3,0c0.1,0,0.2,0,0.2,0L23.7,269.2z"/>
	<path class="st4" d="M28.6,274.6c-0.2,0.1-0.4,0.2-0.6,0.3s-0.5,0.1-0.8,0.1c-0.4,0-0.7-0.1-1.1-0.2c-0.3-0.2-0.6-0.4-0.8-0.7
		c-0.2-0.3-0.4-0.6-0.5-1.1c-0.1-0.4-0.2-0.9-0.2-1.4s0.1-1,0.2-1.4c0.1-0.4,0.3-0.8,0.5-1.1c0.2-0.3,0.5-0.5,0.8-0.7
		c0.3-0.2,0.7-0.2,1-0.2c0.3,0,0.6,0,0.8,0.1c0.2,0.1,0.5,0.2,0.6,0.3l-0.3,0.6c-0.1-0.1-0.3-0.2-0.5-0.2c-0.2-0.1-0.4-0.1-0.6-0.1
		c-0.3,0-0.5,0.1-0.7,0.2c-0.2,0.1-0.4,0.3-0.5,0.5c-0.1,0.2-0.2,0.5-0.3,0.8c-0.1,0.3-0.1,0.7-0.1,1c0,0.4,0,0.7,0.1,1
		c0.1,0.3,0.2,0.6,0.3,0.8c0.1,0.2,0.3,0.4,0.5,0.6c0.2,0.1,0.4,0.2,0.7,0.2c0.2,0,0.4,0,0.6-0.1c0.2-0.1,0.3-0.1,0.5-0.2
		L28.6,274.6z"/>
	<path class="st4" d="M30.4,272.1c0,0.7,0.2,1.2,0.6,1.6c0.3,0.4,0.8,0.6,1.4,0.6c0.3,0,0.6,0,0.9-0.1c0.3-0.1,0.5-0.2,0.7-0.3
		l0.3,0.7c-0.2,0.1-0.5,0.2-0.9,0.3s-0.7,0.1-1.1,0.1c-0.9,0-1.6-0.3-2.1-0.9c-0.5-0.6-0.8-1.4-0.8-2.5c0-0.5,0.1-1,0.2-1.4
		s0.3-0.8,0.5-1.1c0.2-0.3,0.5-0.5,0.8-0.7c0.3-0.2,0.7-0.2,1.1-0.2c0.8,0,1.4,0.3,1.8,0.8c0.4,0.5,0.7,1.3,0.7,2.3v0.1L30.4,272.1z
		 M33.5,271c0-0.7-0.1-1.2-0.4-1.5c-0.2-0.4-0.6-0.5-1.1-0.5c-0.3,0-0.5,0.1-0.7,0.2s-0.4,0.3-0.5,0.5c-0.1,0.2-0.2,0.5-0.3,0.8
		c-0.1,0.3-0.1,0.6-0.1,1v0.1L33.5,271z"/>
	<path class="st4" d="M37.4,270.6c0,0.2-0.1,0.3-0.2,0.5c-0.1,0.1-0.3,0.2-0.5,0.2c-0.2,0-0.3-0.1-0.5-0.2c-0.1-0.1-0.2-0.3-0.2-0.5
		c0-0.2,0.1-0.3,0.2-0.5c0.1-0.1,0.3-0.2,0.5-0.2c0.2,0,0.3,0.1,0.5,0.2C37.3,270.3,37.4,270.5,37.4,270.6z M37.4,274.3
		c0,0.2-0.1,0.3-0.2,0.5c-0.1,0.1-0.3,0.2-0.5,0.2c-0.2,0-0.3-0.1-0.5-0.2c-0.1-0.1-0.2-0.3-0.2-0.5c0-0.2,0.1-0.3,0.2-0.5
		c0.1-0.1,0.3-0.2,0.5-0.2c0.2,0,0.3,0.1,0.5,0.2C37.3,274,37.4,274.1,37.4,274.3z"/>
	<path class="st4" d="M41.7,276.7h-0.6l0.9-2.7c0.1-0.2,0.3-0.3,0.6-0.3c0.1,0,0.2,0,0.3,0.1c0.1,0.1,0.1,0.1,0.1,0.2L41.7,276.7z
		 M43.8,276.7h-0.6l0.9-2.7c0.1-0.2,0.3-0.3,0.6-0.3c0.1,0,0.2,0,0.3,0.1c0.1,0.1,0.1,0.1,0.1,0.2L43.8,276.7z"/>
	<path class="st4" d="M53.7,274.9l-0.6-6.2c0-0.2,0-0.3,0-0.5s0-0.3,0-0.5h0c0,0.1,0,0.2-0.1,0.4s-0.1,0.4-0.1,0.5l-1.8,6.2h-0.7
		l-1.7-6.2c0-0.2-0.1-0.3-0.1-0.4c0-0.1-0.1-0.3-0.1-0.5h0c0,0.2,0,0.4,0,0.5c0,0.2,0,0.3,0,0.4l-0.6,6.2h-0.9l1-8.3h1.2l1.7,6
		c0,0.2,0.1,0.3,0.1,0.5s0.1,0.3,0.1,0.5h0c0-0.2,0.1-0.4,0.1-0.5s0.1-0.3,0.1-0.5l1.7-6h1.2l1,8.3H53.7z"/>
	<path class="st4" d="M59.9,274.6c-0.2,0.1-0.4,0.2-0.6,0.3s-0.5,0.1-0.8,0.1c-0.4,0-0.7-0.1-1.1-0.2c-0.3-0.2-0.6-0.4-0.8-0.7
		c-0.2-0.3-0.4-0.6-0.5-1.1c-0.1-0.4-0.2-0.9-0.2-1.4s0.1-1,0.2-1.4c0.1-0.4,0.3-0.8,0.5-1.1c0.2-0.3,0.5-0.5,0.8-0.7
		c0.3-0.2,0.7-0.2,1-0.2c0.3,0,0.6,0,0.8,0.1c0.2,0.1,0.5,0.2,0.6,0.3l-0.3,0.6c-0.1-0.1-0.3-0.2-0.5-0.2c-0.2-0.1-0.4-0.1-0.6-0.1
		c-0.3,0-0.5,0.1-0.7,0.2c-0.2,0.1-0.4,0.3-0.5,0.5c-0.1,0.2-0.2,0.5-0.3,0.8c-0.1,0.3-0.1,0.7-0.1,1c0,0.4,0,0.7,0.1,1
		c0.1,0.3,0.2,0.6,0.3,0.8c0.1,0.2,0.3,0.4,0.5,0.6c0.2,0.1,0.4,0.2,0.7,0.2c0.2,0,0.4,0,0.6-0.1c0.2-0.1,0.3-0.1,0.5-0.2
		L59.9,274.6z"/>
	<path class="st4" d="M65.3,274.9l-2.9-4.3h0v4.3h-1.1v-8.3h1.1v3.8h0l2.9-3.8h1.2l-3.1,3.9l3.2,4.4H65.3z"/>
	<path class="st4" d="M68.9,266.6c0,0.2-0.1,0.3-0.2,0.4s-0.3,0.2-0.5,0.2s-0.3-0.1-0.5-0.2s-0.2-0.3-0.2-0.4s0.1-0.3,0.2-0.4
		s0.3-0.2,0.5-0.2s0.3,0.1,0.5,0.2S68.9,266.5,68.9,266.6z M67.8,274.9v-6.5h1.1v6.5H67.8z"/>
	<path class="st4" d="M74.2,274.9v-4.5c0-0.5-0.1-0.9-0.3-1.1c-0.2-0.2-0.6-0.4-1.1-0.4c-0.4,0-0.8,0.1-1.1,0.2v5.7h-1.1v-6.1
		c0.3-0.1,0.6-0.2,1-0.3s0.8-0.1,1.2-0.1c0.9,0,1.5,0.2,1.9,0.5c0.4,0.4,0.6,0.9,0.6,1.6v4.5H74.2z"/>
	<path class="st4" d="M80.6,273.1c0,0.3-0.1,0.5-0.2,0.7c-0.1,0.2-0.3,0.4-0.5,0.6c-0.2,0.2-0.4,0.3-0.7,0.4
		c-0.3,0.1-0.6,0.2-0.9,0.2c-0.3,0-0.6,0-1-0.1c-0.3-0.1-0.6-0.2-0.8-0.3l0.3-0.7c0.2,0.1,0.4,0.2,0.6,0.3c0.2,0.1,0.5,0.1,0.7,0.1
		c0.4,0,0.7-0.1,0.9-0.3c0.2-0.2,0.3-0.5,0.3-0.8c0-0.3-0.1-0.5-0.2-0.6s-0.3-0.3-0.5-0.4c-0.2-0.1-0.4-0.2-0.7-0.3
		s-0.5-0.2-0.7-0.4c-0.2-0.1-0.4-0.3-0.5-0.5s-0.2-0.5-0.2-0.9c0-0.2,0-0.5,0.1-0.7c0.1-0.2,0.2-0.4,0.4-0.6
		c0.2-0.2,0.4-0.3,0.6-0.4c0.2-0.1,0.5-0.1,0.8-0.1c0.6,0,1.2,0.1,1.6,0.4l-0.3,0.6c-0.2-0.1-0.4-0.2-0.6-0.3
		c-0.2-0.1-0.4-0.1-0.6-0.1c-0.4,0-0.7,0.1-0.8,0.3c-0.2,0.2-0.3,0.4-0.3,0.7c0,0.2,0.1,0.4,0.2,0.6c0.1,0.1,0.3,0.3,0.5,0.4
		c0.2,0.1,0.4,0.2,0.7,0.3c0.2,0.1,0.5,0.2,0.7,0.4c0.2,0.1,0.4,0.3,0.5,0.6C80.5,272.5,80.6,272.8,80.6,273.1z"/>
	<path class="st4" d="M82.8,272.1c0,0.7,0.2,1.2,0.6,1.6c0.3,0.4,0.8,0.6,1.4,0.6c0.3,0,0.6,0,0.9-0.1c0.3-0.1,0.5-0.2,0.7-0.3
		l0.3,0.7c-0.2,0.1-0.5,0.2-0.9,0.3S85,275,84.7,275c-0.9,0-1.6-0.3-2.1-0.9c-0.5-0.6-0.8-1.4-0.8-2.5c0-0.5,0.1-1,0.2-1.4
		s0.3-0.8,0.5-1.1c0.2-0.3,0.5-0.5,0.8-0.7c0.3-0.2,0.7-0.2,1.1-0.2c0.8,0,1.4,0.3,1.8,0.8c0.4,0.5,0.7,1.3,0.7,2.3v0.1L82.8,272.1z
		 M85.8,271c0-0.7-0.1-1.2-0.4-1.5c-0.2-0.4-0.6-0.5-1.1-0.5c-0.3,0-0.5,0.1-0.7,0.2s-0.4,0.3-0.5,0.5c-0.1,0.2-0.2,0.5-0.3,0.8
		c-0.1,0.3-0.1,0.6-0.1,1v0.1L85.8,271z"/>
	<path class="st4" d="M89.9,277.5h-1.1l1.1-2.6l-2.2-6.5h1.1l1.4,4.7c0,0.1,0.1,0.2,0.1,0.4s0,0.3,0.1,0.4h0c0-0.1,0-0.2,0.1-0.4
		s0.1-0.3,0.1-0.4l1.4-4.7h1L89.9,277.5z"/>
	<path class="st4" d="M102.6,274.6c-0.3,0.1-0.6,0.2-1,0.3c-0.4,0.1-0.8,0.1-1.1,0.1c-0.5,0-0.9-0.1-1.4-0.3s-0.8-0.4-1.1-0.8
		c-0.3-0.4-0.6-0.8-0.8-1.3c-0.2-0.5-0.3-1.1-0.3-1.9c0-0.6,0.1-1.2,0.3-1.7c0.2-0.5,0.4-1,0.7-1.3c0.3-0.4,0.7-0.7,1.1-0.9
		s0.9-0.3,1.5-0.3c0.4,0,0.7,0,1,0.1s0.6,0.2,0.8,0.3l-0.3,0.7c-0.2-0.1-0.4-0.2-0.7-0.3c-0.3-0.1-0.5-0.1-0.8-0.1
		c-0.4,0-0.8,0.1-1.1,0.2c-0.3,0.2-0.6,0.4-0.8,0.7c-0.2,0.3-0.4,0.7-0.5,1.1c-0.1,0.4-0.2,0.9-0.2,1.5c0,0.6,0.1,1.1,0.2,1.5
		c0.1,0.4,0.3,0.8,0.5,1.1c0.2,0.3,0.5,0.5,0.8,0.6c0.3,0.1,0.6,0.2,0.9,0.2c0.2,0,0.4,0,0.6,0c0.2,0,0.4-0.1,0.5-0.1V271H100v-0.7
		h2.6V274.6z"/>
	<path class="st4" d="M104.4,274.9v-9.4h1.1v9.4H104.4z"/>
	<path class="st4" d="M112,271.7c0,0.5-0.1,0.9-0.2,1.3c-0.1,0.4-0.3,0.8-0.5,1.1s-0.5,0.5-0.8,0.7s-0.7,0.3-1.1,0.3
		c-0.4,0-0.8-0.1-1.1-0.3c-0.3-0.2-0.6-0.4-0.8-0.7s-0.4-0.7-0.5-1.1c-0.1-0.4-0.2-0.9-0.2-1.3c0-0.5,0-0.9,0.2-1.3
		c0.1-0.4,0.3-0.8,0.5-1.1c0.2-0.3,0.5-0.5,0.8-0.7c0.3-0.2,0.7-0.3,1.1-0.3c0.4,0,0.8,0.1,1.1,0.3s0.6,0.4,0.8,0.7
		c0.2,0.3,0.4,0.7,0.5,1.1C112,270.8,112,271.2,112,271.7z M111,271.7c0-0.4,0-0.7-0.1-1c-0.1-0.3-0.1-0.6-0.3-0.8
		c-0.1-0.2-0.3-0.4-0.5-0.6c-0.2-0.1-0.4-0.2-0.7-0.2c-0.3,0-0.5,0.1-0.7,0.2c-0.2,0.1-0.3,0.3-0.5,0.6c-0.1,0.2-0.2,0.5-0.3,0.8
		c-0.1,0.3-0.1,0.7-0.1,1c0,0.4,0,0.7,0.1,1c0.1,0.3,0.1,0.6,0.3,0.9c0.1,0.2,0.3,0.4,0.5,0.6c0.2,0.1,0.4,0.2,0.7,0.2
		c0.3,0,0.5-0.1,0.7-0.2c0.2-0.1,0.3-0.3,0.5-0.6c0.1-0.2,0.2-0.5,0.3-0.9C111,272.4,111,272,111,271.7z"/>
	<path class="st4" d="M118.4,271.6c0,0.5-0.1,1-0.2,1.4c-0.1,0.4-0.3,0.8-0.6,1.1c-0.2,0.3-0.6,0.5-0.9,0.7s-0.8,0.3-1.3,0.3
		c-0.4,0-0.7,0-1.1-0.1c-0.3-0.1-0.6-0.2-0.8-0.3v-9.1h1v3.1c0.4-0.2,0.8-0.3,1.3-0.3c0.4,0,0.7,0.1,1,0.2c0.3,0.2,0.6,0.4,0.8,0.6
		c0.2,0.3,0.4,0.6,0.5,1C118.3,270.6,118.4,271.1,118.4,271.6z M117.3,271.6c0-0.8-0.2-1.5-0.5-1.9c-0.3-0.5-0.7-0.7-1.3-0.7
		c-0.2,0-0.4,0-0.5,0.1s-0.3,0.1-0.5,0.2v5c0.1,0.1,0.3,0.1,0.4,0.1c0.2,0,0.3,0,0.5,0c0.3,0,0.6-0.1,0.9-0.2
		c0.2-0.1,0.4-0.3,0.6-0.6c0.2-0.2,0.3-0.5,0.3-0.9C117.3,272.4,117.3,272,117.3,271.6z"/>
	<path class="st4" d="M124.1,274.6c-0.3,0.1-0.6,0.2-0.9,0.3s-0.8,0.1-1.2,0.1c-0.8,0-1.4-0.2-1.8-0.5c-0.4-0.3-0.6-0.8-0.6-1.5
		c0-0.4,0.1-0.7,0.3-1c0.2-0.3,0.4-0.5,0.8-0.7c0.3-0.2,0.7-0.3,1.2-0.4c0.4-0.1,0.9-0.2,1.4-0.2v-0.4c0-0.4-0.1-0.8-0.3-1
		c-0.2-0.2-0.6-0.3-1-0.3c-0.3,0-0.6,0-0.9,0.1c-0.3,0.1-0.5,0.2-0.8,0.3l-0.3-0.6c0.3-0.1,0.6-0.2,0.9-0.3c0.3-0.1,0.7-0.1,1-0.1
		c0.7,0,1.3,0.2,1.7,0.5c0.4,0.3,0.6,0.9,0.6,1.6V274.6z M123.1,271.3c-0.8,0.1-1.5,0.3-1.9,0.5s-0.7,0.7-0.7,1.2
		c0,0.4,0.1,0.8,0.4,1c0.3,0.2,0.6,0.4,1.2,0.4c0.2,0,0.4,0,0.6-0.1c0.2,0,0.3-0.1,0.5-0.2V271.3z"/>
	<path class="st4" d="M125.9,274.9v-9.4h1.1v9.4H125.9z"/>
	<path class="st4" d="M136.3,272.8c0,0.3-0.1,0.6-0.2,0.9c-0.1,0.3-0.3,0.5-0.5,0.7s-0.5,0.4-0.8,0.5c-0.3,0.1-0.7,0.2-1.1,0.2
		c-0.4,0-0.8,0-1.1-0.1c-0.4-0.1-0.7-0.2-0.9-0.3l0.3-0.7c0.2,0.1,0.5,0.2,0.8,0.3c0.3,0.1,0.6,0.1,0.9,0.1c0.5,0,0.9-0.1,1.2-0.4
		c0.3-0.3,0.4-0.6,0.4-1c0-0.3-0.1-0.6-0.3-0.8s-0.4-0.4-0.6-0.6c-0.3-0.2-0.5-0.3-0.8-0.4c-0.3-0.1-0.6-0.3-0.8-0.5
		c-0.3-0.2-0.5-0.4-0.6-0.7s-0.3-0.7-0.3-1.1c0-0.3,0.1-0.6,0.2-0.9c0.1-0.3,0.3-0.5,0.5-0.7c0.2-0.2,0.5-0.3,0.8-0.4
		c0.3-0.1,0.6-0.2,1-0.2c0.3,0,0.7,0,1,0.1c0.3,0.1,0.6,0.2,0.8,0.3l-0.3,0.7c-0.2-0.1-0.4-0.2-0.6-0.3c-0.3-0.1-0.5-0.1-0.8-0.1
		c-0.5,0-0.8,0.1-1.1,0.3c-0.3,0.2-0.4,0.6-0.4,1c0,0.3,0.1,0.6,0.3,0.8s0.4,0.4,0.6,0.5s0.5,0.3,0.8,0.4c0.3,0.1,0.6,0.3,0.8,0.5
		c0.3,0.2,0.5,0.4,0.6,0.7C136.3,271.9,136.3,272.3,136.3,272.8z"/>
	<path class="st4" d="M142.4,274.6c-0.2,0.1-0.6,0.2-1,0.3s-0.8,0.1-1.2,0.1c-0.8,0-1.4-0.2-1.8-0.5c-0.4-0.3-0.6-0.9-0.6-1.6v-4.5
		h1.1v4.5c0,0.9,0.4,1.4,1.3,1.4c0.2,0,0.4,0,0.6-0.1c0.2,0,0.4-0.1,0.5-0.2v-5.7h1.1V274.6z"/>
	<path class="st4" d="M146.7,269.2c-0.2-0.1-0.4-0.1-0.7-0.1c-0.1,0-0.3,0-0.4,0c-0.1,0-0.3,0.1-0.4,0.1v5.7h-1.1v-6.1
		c0.3-0.1,0.6-0.2,1-0.3c0.4-0.1,0.8-0.1,1.2-0.1c0.1,0,0.2,0,0.3,0c0.1,0,0.2,0,0.2,0L146.7,269.2z"/>
	<path class="st4" d="M150.6,274.9h-1l-2.1-6.5h1.1l1.3,4.6c0,0.1,0.1,0.2,0.1,0.3c0,0.1,0.1,0.3,0.1,0.5h0c0-0.2,0.1-0.4,0.1-0.5
		c0-0.1,0.1-0.2,0.1-0.3l1.4-4.6h1L150.6,274.9z"/>
	<path class="st4" d="M154.5,272.1c0,0.7,0.2,1.2,0.6,1.6c0.3,0.4,0.8,0.6,1.4,0.6c0.3,0,0.6,0,0.9-0.1c0.3-0.1,0.5-0.2,0.7-0.3
		l0.3,0.7c-0.2,0.1-0.5,0.2-0.9,0.3s-0.7,0.1-1.1,0.1c-0.9,0-1.6-0.3-2.1-0.9c-0.5-0.6-0.8-1.4-0.8-2.5c0-0.5,0.1-1,0.2-1.4
		s0.3-0.8,0.5-1.1c0.2-0.3,0.5-0.5,0.8-0.7c0.3-0.2,0.7-0.2,1.1-0.2c0.8,0,1.4,0.3,1.8,0.8c0.4,0.5,0.7,1.3,0.7,2.3v0.1L154.5,272.1
		z M157.6,271c0-0.7-0.1-1.2-0.4-1.5c-0.2-0.4-0.6-0.5-1.1-0.5c-0.3,0-0.5,0.1-0.7,0.2s-0.4,0.3-0.5,0.5c-0.1,0.2-0.2,0.5-0.3,0.8
		c-0.1,0.3-0.1,0.6-0.1,1v0.1L157.6,271z"/>
	<path class="st4" d="M161.7,277.5h-1.1l1.1-2.6l-2.2-6.5h1.1l1.4,4.7c0,0.1,0.1,0.2,0.1,0.4s0,0.3,0.1,0.4h0c0-0.1,0-0.2,0.1-0.4
		s0.1-0.3,0.1-0.4l1.4-4.7h1L161.7,277.5z"/>
	<path class="st4" d="M167.3,270.6c0,0.2-0.1,0.3-0.2,0.5c-0.1,0.1-0.3,0.2-0.5,0.2c-0.2,0-0.3-0.1-0.5-0.2
		c-0.1-0.1-0.2-0.3-0.2-0.5c0-0.2,0.1-0.3,0.2-0.5c0.1-0.1,0.3-0.2,0.5-0.2c0.2,0,0.3,0.1,0.5,0.2
		C167.2,270.3,167.3,270.5,167.3,270.6z M167.3,274.3c0,0.2-0.1,0.3-0.2,0.5c-0.1,0.1-0.3,0.2-0.5,0.2c-0.2,0-0.3-0.1-0.5-0.2
		c-0.1-0.1-0.2-0.3-0.2-0.5c0-0.2,0.1-0.3,0.2-0.5c0.1-0.1,0.3-0.2,0.5-0.2c0.2,0,0.3,0.1,0.5,0.2
		C167.2,274,167.3,274.1,167.3,274.3z"/>
	<path class="st4" d="M178.7,274.9h-1l-1.4-5.8c0-0.2-0.1-0.4-0.1-0.5c0-0.1,0-0.3-0.1-0.5h0c0,0.1,0,0.3-0.1,0.4
		c0,0.2-0.1,0.3-0.1,0.5l-1.4,5.8h-1l-1.9-8.3h1.1l1.2,6c0,0.2,0.1,0.3,0.1,0.5c0,0.2,0,0.3,0.1,0.5h0c0-0.2,0-0.3,0.1-0.5
		c0-0.1,0.1-0.3,0.1-0.5l1.4-6h0.9l1.4,6c0,0.1,0,0.1,0,0.2c0,0.1,0,0.2,0,0.3s0,0.2,0,0.3s0,0.2,0,0.2h0c0-0.1,0-0.1,0-0.2
		c0-0.1,0-0.2,0-0.3c0-0.1,0-0.2,0-0.3c0-0.1,0-0.2,0-0.2l1.2-6h1L178.7,274.9z"/>
	<path class="st4" d="M185.8,274.6c-0.3,0.1-0.6,0.2-0.9,0.3s-0.8,0.1-1.2,0.1c-0.8,0-1.4-0.2-1.8-0.5c-0.4-0.3-0.6-0.8-0.6-1.5
		c0-0.4,0.1-0.7,0.3-1c0.2-0.3,0.4-0.5,0.8-0.7c0.3-0.2,0.7-0.3,1.2-0.4c0.4-0.1,0.9-0.2,1.4-0.2v-0.4c0-0.4-0.1-0.8-0.3-1
		c-0.2-0.2-0.6-0.3-1-0.3c-0.3,0-0.6,0-0.9,0.1c-0.3,0.1-0.5,0.2-0.8,0.3l-0.3-0.6c0.3-0.1,0.6-0.2,0.9-0.3c0.3-0.1,0.7-0.1,1-0.1
		c0.7,0,1.3,0.2,1.7,0.5c0.4,0.3,0.6,0.9,0.6,1.6V274.6z M184.8,271.3c-0.8,0.1-1.5,0.3-1.9,0.5s-0.7,0.7-0.7,1.2
		c0,0.4,0.1,0.8,0.4,1c0.3,0.2,0.6,0.4,1.2,0.4c0.2,0,0.4,0,0.6-0.1c0.2,0,0.3-0.1,0.5-0.2V271.3z"/>
	<path class="st4" d="M190,269.2c-0.2-0.1-0.4-0.1-0.7-0.1c-0.1,0-0.3,0-0.4,0c-0.1,0-0.3,0.1-0.4,0.1v5.7h-1.1v-6.1
		c0.3-0.1,0.6-0.2,1-0.3c0.4-0.1,0.8-0.1,1.2-0.1c0.1,0,0.2,0,0.3,0c0.1,0,0.2,0,0.2,0L190,269.2z"/>
	<path class="st4" d="M195.8,269.1v5.8h-1.1v-5.8H194v-0.7h0.7v-0.9c0-0.6,0.2-1.1,0.5-1.5s0.8-0.6,1.5-0.6h0.1c0,0,0.1,0,0.1,0v0.7
		h-0.1c-0.1,0-0.3,0-0.4,0.1s-0.2,0.1-0.3,0.2c-0.1,0.1-0.2,0.2-0.2,0.4c-0.1,0.2-0.1,0.4-0.1,0.6v0.9h1.1v0.7H195.8z"/>
	<path class="st4" d="M202.9,271.7c0,0.5-0.1,0.9-0.2,1.3c-0.1,0.4-0.3,0.8-0.5,1.1s-0.5,0.5-0.8,0.7s-0.7,0.3-1.1,0.3
		c-0.4,0-0.8-0.1-1.1-0.3c-0.3-0.2-0.6-0.4-0.8-0.7s-0.4-0.7-0.5-1.1c-0.1-0.4-0.2-0.9-0.2-1.3c0-0.5,0-0.9,0.2-1.3
		c0.1-0.4,0.3-0.8,0.5-1.1c0.2-0.3,0.5-0.5,0.8-0.7c0.3-0.2,0.7-0.3,1.1-0.3c0.4,0,0.8,0.1,1.1,0.3s0.6,0.4,0.8,0.7
		c0.2,0.3,0.4,0.7,0.5,1.1C202.8,270.8,202.9,271.2,202.9,271.7z M201.8,271.7c0-0.4,0-0.7-0.1-1c-0.1-0.3-0.1-0.6-0.3-0.8
		c-0.1-0.2-0.3-0.4-0.5-0.6c-0.2-0.1-0.4-0.2-0.7-0.2c-0.3,0-0.5,0.1-0.7,0.2c-0.2,0.1-0.3,0.3-0.5,0.6c-0.1,0.2-0.2,0.5-0.3,0.8
		c-0.1,0.3-0.1,0.7-0.1,1c0,0.4,0,0.7,0.1,1c0.1,0.3,0.1,0.6,0.3,0.9c0.1,0.2,0.3,0.4,0.5,0.6c0.2,0.1,0.4,0.2,0.7,0.2
		c0.3,0,0.5-0.1,0.7-0.2c0.2-0.1,0.3-0.3,0.5-0.6c0.1-0.2,0.2-0.5,0.3-0.9C201.8,272.4,201.8,272,201.8,271.7z"/>
	<path class="st4" d="M206.8,269.2c-0.2-0.1-0.4-0.1-0.7-0.1c-0.1,0-0.3,0-0.4,0c-0.1,0-0.3,0.1-0.4,0.1v5.7h-1.1v-6.1
		c0.3-0.1,0.6-0.2,1-0.3c0.4-0.1,0.8-0.1,1.2-0.1c0.1,0,0.2,0,0.3,0c0.1,0,0.2,0,0.2,0L206.8,269.2z"/>
	<path class="st4" d="M213.8,274.9c-0.2,0.1-0.4,0.1-0.6,0.1c-0.5,0-0.8-0.1-1.1-0.4c-0.3-0.3-0.4-0.7-0.4-1.2v-4.2h-0.7v-0.7h0.7
		V267l1.1-0.3v1.8h1.1v0.7h-1.1v4.2c0,0.3,0.1,0.5,0.2,0.7c0.1,0.2,0.3,0.2,0.6,0.2c0.1,0,0.2,0,0.3,0V274.9z"/>
	<path class="st4" d="M219.4,274.6c-0.3,0.1-0.6,0.2-0.9,0.3s-0.8,0.1-1.2,0.1c-0.8,0-1.4-0.2-1.8-0.5c-0.4-0.3-0.6-0.8-0.6-1.5
		c0-0.4,0.1-0.7,0.3-1c0.2-0.3,0.4-0.5,0.8-0.7c0.3-0.2,0.7-0.3,1.2-0.4c0.4-0.1,0.9-0.2,1.4-0.2v-0.4c0-0.4-0.1-0.8-0.3-1
		c-0.2-0.2-0.6-0.3-1-0.3c-0.3,0-0.6,0-0.9,0.1c-0.3,0.1-0.5,0.2-0.8,0.3l-0.3-0.6c0.3-0.1,0.6-0.2,0.9-0.3c0.3-0.1,0.7-0.1,1-0.1
		c0.7,0,1.3,0.2,1.7,0.5c0.4,0.3,0.6,0.9,0.6,1.6V274.6z M218.4,271.3c-0.8,0.1-1.5,0.3-1.9,0.5s-0.7,0.7-0.7,1.2
		c0,0.4,0.1,0.8,0.4,1c0.3,0.2,0.6,0.4,1.2,0.4c0.2,0,0.4,0,0.6-0.1c0.2,0,0.3-0.1,0.5-0.2V271.3z"/>
	<path class="st4" d="M221.2,274.9v-9.4h1.1v9.4H221.2z"/>
	<path class="st4" d="M224.8,272.1c0,0.7,0.2,1.2,0.6,1.6c0.3,0.4,0.8,0.6,1.4,0.6c0.3,0,0.6,0,0.9-0.1c0.3-0.1,0.5-0.2,0.7-0.3
		l0.3,0.7c-0.2,0.1-0.5,0.2-0.9,0.3s-0.7,0.1-1.1,0.1c-0.9,0-1.6-0.3-2.1-0.9c-0.5-0.6-0.8-1.4-0.8-2.5c0-0.5,0.1-1,0.2-1.4
		s0.3-0.8,0.5-1.1c0.2-0.3,0.5-0.5,0.8-0.7c0.3-0.2,0.7-0.2,1.1-0.2c0.8,0,1.4,0.3,1.8,0.8c0.4,0.5,0.7,1.3,0.7,2.3v0.1L224.8,272.1
		z M227.8,271c0-0.7-0.1-1.2-0.4-1.5c-0.2-0.4-0.6-0.5-1.1-0.5c-0.3,0-0.5,0.1-0.7,0.2s-0.4,0.3-0.5,0.5c-0.1,0.2-0.2,0.5-0.3,0.8
		c-0.1,0.3-0.1,0.6-0.1,1v0.1L227.8,271z"/>
	<path class="st4" d="M234,274.9v-4.5c0-0.5-0.1-0.9-0.3-1.1c-0.2-0.2-0.6-0.4-1.1-0.4c-0.4,0-0.8,0.1-1.1,0.2v5.7h-1.1v-6.1
		c0.3-0.1,0.6-0.2,1-0.3s0.8-0.1,1.2-0.1c0.9,0,1.5,0.2,1.9,0.5c0.4,0.4,0.6,0.9,0.6,1.6v4.5H234z"/>
	<path class="st4" d="M239.2,274.9c-0.2,0.1-0.4,0.1-0.6,0.1c-0.5,0-0.8-0.1-1.1-0.4c-0.3-0.3-0.4-0.7-0.4-1.2v-4.2h-0.7v-0.7h0.7
		V267l1.1-0.3v1.8h1.1v0.7h-1.1v4.2c0,0.3,0.1,0.5,0.2,0.7c0.1,0.2,0.3,0.2,0.6,0.2c0.1,0,0.2,0,0.3,0V274.9z"/>
	<path class="st4" d="M243.2,274.9l3-4.3c0.3-0.4,0.5-0.8,0.6-1c0.1-0.3,0.1-0.5,0.1-0.8c0-0.5-0.1-0.8-0.4-1.1
		c-0.3-0.3-0.7-0.4-1.3-0.4c-0.3,0-0.5,0-0.8,0.1c-0.3,0.1-0.5,0.1-0.7,0.3l-0.3-0.7c0.3-0.1,0.6-0.3,0.9-0.3
		c0.3-0.1,0.7-0.1,1.1-0.1c0.9,0,1.5,0.2,1.9,0.6c0.4,0.4,0.6,0.9,0.6,1.6c0,0.3-0.1,0.6-0.2,1c-0.2,0.4-0.4,0.8-0.8,1.3l-2.2,3h3.3
		v0.9H243.2z"/>
	<path class="st4" d="M254.4,270.8c0,0.5,0,1-0.1,1.6s-0.2,1-0.4,1.4c-0.2,0.4-0.5,0.7-0.8,1s-0.7,0.4-1.2,0.4s-0.9-0.1-1.2-0.4
		c-0.3-0.2-0.6-0.6-0.8-1c-0.2-0.4-0.3-0.9-0.4-1.4s-0.1-1-0.1-1.6c0-0.5,0-1,0.1-1.6c0.1-0.5,0.2-1,0.4-1.4c0.2-0.4,0.5-0.7,0.8-1
		c0.3-0.2,0.7-0.4,1.2-0.4s0.9,0.1,1.2,0.4c0.3,0.2,0.6,0.6,0.8,1c0.2,0.4,0.3,0.9,0.4,1.4C254.4,269.7,254.4,270.3,254.4,270.8z
		 M253.4,270.8c0-0.4,0-0.8-0.1-1.3s-0.1-0.8-0.2-1.1c-0.1-0.3-0.3-0.6-0.5-0.8s-0.4-0.3-0.8-0.3s-0.6,0.1-0.8,0.3s-0.3,0.5-0.5,0.8
		c-0.1,0.3-0.2,0.7-0.2,1.1s-0.1,0.8-0.1,1.3s0,0.8,0.1,1.3c0,0.4,0.1,0.8,0.2,1.1c0.1,0.3,0.3,0.6,0.5,0.8s0.4,0.3,0.8,0.3
		s0.6-0.1,0.8-0.3s0.3-0.5,0.5-0.8c0.1-0.3,0.2-0.7,0.2-1.1C253.4,271.6,253.4,271.2,253.4,270.8z"/>
	<path class="st4" d="M260.9,270.8c0,0.5,0,1-0.1,1.6s-0.2,1-0.4,1.4c-0.2,0.4-0.5,0.7-0.8,1s-0.7,0.4-1.2,0.4s-0.9-0.1-1.2-0.4
		c-0.3-0.2-0.6-0.6-0.8-1c-0.2-0.4-0.3-0.9-0.4-1.4c-0.1-0.5-0.1-1-0.1-1.6c0-0.5,0-1,0.1-1.6c0.1-0.5,0.2-1,0.4-1.4
		c0.2-0.4,0.5-0.7,0.8-1c0.3-0.2,0.7-0.4,1.2-0.4s0.9,0.1,1.2,0.4c0.3,0.2,0.6,0.6,0.8,1c0.2,0.4,0.3,0.9,0.4,1.4
		C260.9,269.7,260.9,270.3,260.9,270.8z M259.9,270.8c0-0.4,0-0.8-0.1-1.3s-0.1-0.8-0.2-1.1c-0.1-0.3-0.3-0.6-0.5-0.8
		s-0.4-0.3-0.8-0.3s-0.6,0.1-0.8,0.3s-0.3,0.5-0.5,0.8c-0.1,0.3-0.2,0.7-0.2,1.1s-0.1,0.8-0.1,1.3s0,0.8,0.1,1.3
		c0,0.4,0.1,0.8,0.2,1.1c0.1,0.3,0.3,0.6,0.5,0.8s0.4,0.3,0.8,0.3s0.6-0.1,0.8-0.3s0.3-0.5,0.5-0.8c0.1-0.3,0.2-0.7,0.2-1.1
		C259.9,271.6,259.9,271.2,259.9,270.8z"/>
	<path class="st4" d="M267.5,270.8c0,0.5,0,1-0.1,1.6s-0.2,1-0.4,1.4c-0.2,0.4-0.5,0.7-0.8,1s-0.7,0.4-1.2,0.4s-0.9-0.1-1.2-0.4
		c-0.3-0.2-0.6-0.6-0.8-1c-0.2-0.4-0.3-0.9-0.4-1.4s-0.1-1-0.1-1.6c0-0.5,0-1,0.1-1.6c0.1-0.5,0.2-1,0.4-1.4c0.2-0.4,0.5-0.7,0.8-1
		c0.3-0.2,0.7-0.4,1.2-0.4s0.9,0.1,1.2,0.4c0.3,0.2,0.6,0.6,0.8,1c0.2,0.4,0.3,0.9,0.4,1.4C267.4,269.7,267.5,270.3,267.5,270.8z
		 M266.4,270.8c0-0.4,0-0.8-0.1-1.3s-0.1-0.8-0.2-1.1c-0.1-0.3-0.3-0.6-0.5-0.8s-0.4-0.3-0.8-0.3s-0.6,0.1-0.8,0.3s-0.3,0.5-0.5,0.8
		c-0.1,0.3-0.2,0.7-0.2,1.1s-0.1,0.8-0.1,1.3s0,0.8,0.1,1.3c0,0.4,0.1,0.8,0.2,1.1c0.1,0.3,0.3,0.6,0.5,0.8s0.4,0.3,0.8,0.3
		s0.6-0.1,0.8-0.3s0.3-0.5,0.5-0.8c0.1-0.3,0.2-0.7,0.2-1.1C266.4,271.6,266.4,271.2,266.4,270.8z"/>
	<path class="st4" d="M268.5,276.7h-0.6l0.9-2.7c0.2-0.2,0.4-0.3,0.7-0.3c0.1,0,0.2,0,0.3,0.1c0.1,0.1,0.1,0.1,0.2,0.3L268.5,276.7z
		"/>
	<path class="st4" d="M271.6,268.2c-0.1,0.2-0.3,0.3-0.6,0.3c-0.1,0-0.2,0-0.3-0.1c-0.1-0.1-0.1-0.1-0.1-0.2l1.4-2.7h0.6
		L271.6,268.2z M273.7,268.2c-0.1,0.2-0.3,0.3-0.6,0.3c-0.1,0-0.2,0-0.3-0.1c-0.1-0.1-0.1-0.1-0.1-0.2l1.4-2.7h0.6L273.7,268.2z"/>
	<path class="st4" d="M280.9,269.2c-0.2-0.1-0.4-0.1-0.7-0.1c-0.1,0-0.3,0-0.4,0c-0.1,0-0.3,0.1-0.4,0.1v5.7h-1.1v-6.1
		c0.3-0.1,0.6-0.2,1-0.3c0.4-0.1,0.8-0.1,1.2-0.1c0.1,0,0.2,0,0.3,0c0.1,0,0.2,0,0.2,0L280.9,269.2z"/>
	<path class="st4" d="M282.8,272.1c0,0.7,0.2,1.2,0.6,1.6c0.3,0.4,0.8,0.6,1.4,0.6c0.3,0,0.6,0,0.9-0.1c0.3-0.1,0.5-0.2,0.7-0.3
		l0.3,0.7c-0.2,0.1-0.5,0.2-0.9,0.3s-0.7,0.1-1.1,0.1c-0.9,0-1.6-0.3-2.1-0.9c-0.5-0.6-0.8-1.4-0.8-2.5c0-0.5,0.1-1,0.2-1.4
		s0.3-0.8,0.5-1.1c0.2-0.3,0.5-0.5,0.8-0.7c0.3-0.2,0.7-0.2,1.1-0.2c0.8,0,1.4,0.3,1.8,0.8c0.4,0.5,0.7,1.3,0.7,2.3v0.1L282.8,272.1
		z M285.9,271c0-0.7-0.1-1.2-0.4-1.5c-0.2-0.4-0.6-0.5-1.1-0.5c-0.3,0-0.5,0.1-0.7,0.2s-0.4,0.3-0.5,0.5c-0.1,0.2-0.2,0.5-0.3,0.8
		c-0.1,0.3-0.1,0.6-0.1,1v0.1L285.9,271z"/>
	<path class="st4" d="M289.7,269.1v5.8h-1.1v-5.8h-0.7v-0.7h0.7v-0.9c0-0.6,0.2-1.1,0.5-1.5s0.8-0.6,1.5-0.6h0.1c0,0,0.1,0,0.1,0
		v0.7h-0.1c-0.1,0-0.3,0-0.4,0.1s-0.2,0.1-0.3,0.2c-0.1,0.1-0.2,0.2-0.2,0.4c-0.1,0.2-0.1,0.4-0.1,0.6v0.9h1.1v0.7H289.7z"/>
	<path class="st4" d="M294.6,269.2c-0.2-0.1-0.4-0.1-0.7-0.1c-0.1,0-0.3,0-0.4,0c-0.1,0-0.3,0.1-0.4,0.1v5.7H292v-6.1
		c0.3-0.1,0.6-0.2,1-0.3c0.4-0.1,0.8-0.1,1.2-0.1c0.1,0,0.2,0,0.3,0c0.1,0,0.2,0,0.2,0L294.6,269.2z"/>
	<path class="st4" d="M296.5,272.1c0,0.7,0.2,1.2,0.6,1.6c0.3,0.4,0.8,0.6,1.4,0.6c0.3,0,0.6,0,0.9-0.1c0.3-0.1,0.5-0.2,0.7-0.3
		l0.3,0.7c-0.2,0.1-0.5,0.2-0.9,0.3s-0.7,0.1-1.1,0.1c-0.9,0-1.6-0.3-2.1-0.9c-0.5-0.6-0.8-1.4-0.8-2.5c0-0.5,0.1-1,0.2-1.4
		s0.3-0.8,0.5-1.1c0.2-0.3,0.5-0.5,0.8-0.7c0.3-0.2,0.7-0.2,1.1-0.2c0.8,0,1.4,0.3,1.8,0.8c0.4,0.5,0.7,1.3,0.7,2.3v0.1L296.5,272.1
		z M299.5,271c0-0.7-0.1-1.2-0.4-1.5c-0.2-0.4-0.6-0.5-1.1-0.5c-0.3,0-0.5,0.1-0.7,0.2s-0.4,0.3-0.5,0.5c-0.1,0.2-0.2,0.5-0.3,0.8
		c-0.1,0.3-0.1,0.6-0.1,1v0.1L299.5,271z"/>
	<path class="st4" d="M305.6,273.1c0,0.3-0.1,0.5-0.2,0.7c-0.1,0.2-0.3,0.4-0.5,0.6c-0.2,0.2-0.4,0.3-0.7,0.4
		c-0.3,0.1-0.6,0.2-0.9,0.2c-0.3,0-0.6,0-1-0.1c-0.3-0.1-0.6-0.2-0.8-0.3l0.3-0.7c0.2,0.1,0.4,0.2,0.6,0.3c0.2,0.1,0.5,0.1,0.7,0.1
		c0.4,0,0.7-0.1,0.9-0.3c0.2-0.2,0.3-0.5,0.3-0.8c0-0.3-0.1-0.5-0.2-0.6s-0.3-0.3-0.5-0.4c-0.2-0.1-0.4-0.2-0.7-0.3
		s-0.5-0.2-0.7-0.4c-0.2-0.1-0.4-0.3-0.5-0.5s-0.2-0.5-0.2-0.9c0-0.2,0-0.5,0.1-0.7c0.1-0.2,0.2-0.4,0.4-0.6
		c0.2-0.2,0.4-0.3,0.6-0.4c0.2-0.1,0.5-0.1,0.8-0.1c0.6,0,1.2,0.1,1.6,0.4l-0.3,0.6c-0.2-0.1-0.4-0.2-0.6-0.3
		c-0.2-0.1-0.4-0.1-0.6-0.1c-0.4,0-0.7,0.1-0.8,0.3c-0.2,0.2-0.3,0.4-0.3,0.7c0,0.2,0.1,0.4,0.2,0.6c0.1,0.1,0.3,0.3,0.5,0.4
		c0.2,0.1,0.4,0.2,0.7,0.3c0.2,0.1,0.5,0.2,0.7,0.4c0.2,0.1,0.4,0.3,0.5,0.6C305.5,272.5,305.6,272.8,305.6,273.1z"/>
	<path class="st4" d="M310.7,274.9v-4.6c0-0.2,0-0.3-0.1-0.5c0-0.2-0.1-0.3-0.2-0.4c-0.1-0.1-0.2-0.2-0.4-0.3s-0.4-0.1-0.6-0.1
		c-0.2,0-0.5,0-0.7,0.1c-0.2,0.1-0.4,0.1-0.6,0.3v5.5H307v-9.4h1.1v3.3c0.2-0.1,0.4-0.2,0.7-0.3c0.3-0.1,0.5-0.1,0.8-0.1
		c0.4,0,0.8,0.1,1,0.2c0.3,0.1,0.5,0.3,0.7,0.4c0.2,0.2,0.3,0.4,0.4,0.6c0.1,0.2,0.1,0.5,0.1,0.7v4.6H310.7z"/>
	<path class="st4" d="M314.2,272.1c0,0.7,0.2,1.2,0.6,1.6c0.3,0.4,0.8,0.6,1.4,0.6c0.3,0,0.6,0,0.9-0.1c0.3-0.1,0.5-0.2,0.7-0.3
		l0.3,0.7c-0.2,0.1-0.5,0.2-0.9,0.3s-0.7,0.1-1.1,0.1c-0.9,0-1.6-0.3-2.1-0.9c-0.5-0.6-0.8-1.4-0.8-2.5c0-0.5,0.1-1,0.2-1.4
		s0.3-0.8,0.5-1.1c0.2-0.3,0.5-0.5,0.8-0.7c0.3-0.2,0.7-0.2,1.1-0.2c0.8,0,1.4,0.3,1.8,0.8c0.4,0.5,0.7,1.3,0.7,2.3v0.1L314.2,272.1
		z M317.2,271c0-0.7-0.1-1.2-0.4-1.5c-0.2-0.4-0.6-0.5-1.1-0.5c-0.3,0-0.5,0.1-0.7,0.2s-0.4,0.3-0.5,0.5c-0.1,0.2-0.2,0.5-0.3,0.8
		c-0.1,0.3-0.1,0.6-0.1,1v0.1L317.2,271z"/>
	<path class="st4" d="M324.3,274.6c-0.2,0.1-0.5,0.2-0.9,0.3c-0.4,0.1-0.8,0.1-1.2,0.1c-0.5,0-0.9-0.1-1.2-0.2
		c-0.4-0.2-0.6-0.4-0.9-0.7c-0.2-0.3-0.4-0.6-0.5-1s-0.2-0.8-0.2-1.3c0-0.5,0.1-0.9,0.2-1.3s0.3-0.8,0.5-1.1
		c0.2-0.3,0.5-0.6,0.9-0.7c0.4-0.2,0.8-0.3,1.2-0.3c0.2,0,0.3,0,0.5,0c0.2,0,0.3,0.1,0.5,0.1v-3h1V274.6z M323.3,269.1
		c-0.1,0-0.3-0.1-0.4-0.1c-0.1,0-0.3,0-0.4,0c-0.4,0-0.7,0.1-0.9,0.2c-0.2,0.1-0.4,0.3-0.6,0.6c-0.2,0.2-0.3,0.5-0.3,0.9
		s-0.1,0.7-0.1,1c0,0.4,0,0.7,0.1,1.1s0.2,0.6,0.3,0.8c0.1,0.2,0.3,0.4,0.6,0.6c0.2,0.1,0.5,0.2,0.8,0.2c0.2,0,0.4,0,0.5,0
		c0.1,0,0.3-0.1,0.4-0.1V269.1z"/>
	<path class="st4" d="M330.6,266.6c0,0.2-0.1,0.3-0.2,0.4s-0.3,0.2-0.5,0.2s-0.3-0.1-0.5-0.2s-0.2-0.3-0.2-0.4s0.1-0.3,0.2-0.4
		s0.3-0.2,0.5-0.2s0.3,0.1,0.5,0.2S330.6,266.5,330.6,266.6z M329.4,274.9v-6.5h1.1v6.5H329.4z"/>
	<path class="st4" d="M335.9,274.9v-4.5c0-0.5-0.1-0.9-0.3-1.1c-0.2-0.2-0.6-0.4-1.1-0.4c-0.4,0-0.8,0.1-1.1,0.2v5.7h-1.1v-6.1
		c0.3-0.1,0.6-0.2,1-0.3s0.8-0.1,1.2-0.1c0.9,0,1.5,0.2,1.9,0.5c0.4,0.4,0.6,0.9,0.6,1.6v4.5H335.9z"/>
	<path class="st4" d="M341.4,274.9l3-4.3c0.3-0.4,0.5-0.8,0.6-1c0.1-0.3,0.1-0.5,0.1-0.8c0-0.5-0.1-0.8-0.4-1.1
		c-0.3-0.3-0.7-0.4-1.3-0.4c-0.3,0-0.5,0-0.8,0.1c-0.3,0.1-0.5,0.1-0.7,0.3l-0.3-0.7c0.3-0.1,0.6-0.3,0.9-0.3
		c0.3-0.1,0.7-0.1,1.1-0.1c0.9,0,1.5,0.2,1.9,0.6c0.4,0.4,0.6,0.9,0.6,1.6c0,0.3-0.1,0.6-0.2,1c-0.2,0.4-0.4,0.8-0.8,1.3l-2.2,3h3.3
		v0.9H341.4z"/>
	<path class="st4" d="M352.6,270.8c0,0.5,0,1-0.1,1.6s-0.2,1-0.4,1.4c-0.2,0.4-0.5,0.7-0.8,1s-0.7,0.4-1.2,0.4s-0.9-0.1-1.2-0.4
		c-0.3-0.2-0.6-0.6-0.8-1c-0.2-0.4-0.3-0.9-0.4-1.4s-0.1-1-0.1-1.6c0-0.5,0-1,0.1-1.6c0.1-0.5,0.2-1,0.4-1.4c0.2-0.4,0.5-0.7,0.8-1
		c0.3-0.2,0.7-0.4,1.2-0.4s0.9,0.1,1.2,0.4c0.3,0.2,0.6,0.6,0.8,1c0.2,0.4,0.3,0.9,0.4,1.4C352.5,269.7,352.6,270.3,352.6,270.8z
		 M351.5,270.8c0-0.4,0-0.8-0.1-1.3s-0.1-0.8-0.2-1.1c-0.1-0.3-0.3-0.6-0.5-0.8s-0.4-0.3-0.8-0.3s-0.6,0.1-0.8,0.3s-0.3,0.5-0.5,0.8
		c-0.1,0.3-0.2,0.7-0.2,1.1s-0.1,0.8-0.1,1.3s0,0.8,0.1,1.3c0,0.4,0.1,0.8,0.2,1.1c0.1,0.3,0.3,0.6,0.5,0.8s0.4,0.3,0.8,0.3
		s0.6-0.1,0.8-0.3s0.3-0.5,0.5-0.8c0.1-0.3,0.2-0.7,0.2-1.1C351.5,271.6,351.5,271.2,351.5,270.8z"/>
	<path class="st4" d="M355.8,274.9V268c-0.1,0.1-0.3,0.1-0.4,0.2c-0.2,0.1-0.3,0.1-0.5,0.2c-0.2,0.1-0.4,0.1-0.6,0.1
		c-0.2,0-0.4,0.1-0.6,0.1l-0.1-0.6c0.6-0.1,1.1-0.2,1.6-0.5s0.8-0.5,1-0.8h0.7v8.3H355.8z"/>
	<path class="st4" d="M358.3,274.9l3-4.3c0.3-0.4,0.5-0.8,0.6-1c0.1-0.3,0.1-0.5,0.1-0.8c0-0.5-0.1-0.8-0.4-1.1
		c-0.3-0.3-0.7-0.4-1.3-0.4c-0.3,0-0.5,0-0.8,0.1c-0.3,0.1-0.5,0.1-0.7,0.3l-0.3-0.7c0.3-0.1,0.6-0.3,0.9-0.3
		c0.3-0.1,0.7-0.1,1.1-0.1c0.9,0,1.5,0.2,1.9,0.6c0.4,0.4,0.6,0.9,0.6,1.6c0,0.3-0.1,0.6-0.2,1c-0.2,0.4-0.4,0.8-0.8,1.3l-2.2,3h3.3
		v0.9H358.3z"/>
</g>
<g class="st5">
	<path class="st4" d="M550,181.6h-2.1v-1.1h2.1V181.6z M545.8,181.6h-2.1v-1.1h2.1V181.6z M541.6,181.6h-2.1v-1.1h2.1V181.6z
		 M537.3,181.6h-2.1v-1.1h2.1V181.6z M533.1,181.6H531v-1.1h2.1V181.6z M528.9,181.6h-2.1v-1.1h2.1V181.6z M524.6,181.6h-2.1v-1.1
		h2.1V181.6z M520.4,181.6h-2.1v-1.1h2.1V181.6z M516.1,181.6H514v-1.1h2.1V181.6z M511.9,181.6h-2.1v-1.1h2.1V181.6z M507.7,181.6
		h-2.1v-1.1h2.1V181.6z M503.4,181.6h-2.1v-1.1h2.1V181.6z M499.2,181.6h-2.1v-1.1h2.1V181.6z M494.9,181.6h-2.1v-1.1h2.1V181.6z
		 M490.7,181.6h-2.1v-1.1h2.1V181.6z M486.5,181.6h-2.1v-1.1h2.1V181.6z M482.2,181.6h-2.1v-1.1h2.1V181.6z M478,181.6h-2.1v-1.1
		h2.1V181.6z M473.8,181.6h-2.1v-1.1h2.1V181.6z M469.5,181.6h-2.1v-1.1h2.1V181.6z M465.3,181.6h-2.1v-1.1h2.1V181.6z M461,181.6
		h-2.1v-1.1h2.1V181.6z M456.8,181.6h-2.1v-1.1h2.1V181.6z M452.6,181.6h-2.1v-1.1h2.1V181.6z M448.3,181.6h-2.1v-1.1h2.1V181.6z
		 M444.1,181.6H442v-1.1h2.1V181.6z M439.8,181.6h-2.1v-1.1h2.1V181.6z M435.6,181.6h-2.1v-1.1h2.1V181.6z M431.4,181.6h-2.1v-1.1
		h2.1V181.6z M427.1,181.6H425v-1.1h2.1V181.6z M422.9,181.6h-2.1v-1.1h2.1V181.6z M418.7,181.6h-2.1v-1.1h2.1V181.6z M414.4,181.6
		h-2.1v-1.1h2.1V181.6z M410.2,181.6h-2.1v-1.1h2.1V181.6z M405.9,181.6h-2.1v-1.1h2.1V181.6z M401.7,181.6h-2.1v-1.1h2.1V181.6z
		 M397.5,181.6h-2.1v-1.1h2.1V181.6z M393.2,181.6h-2.1v-1.1h2.1V181.6z M389,181.6h-2.1v-1.1h2.1V181.6z M384.7,181.6h-2.1v-1.1
		h2.1V181.6z M380.5,181.6h-2.1v-1.1h2.1V181.6z M376.3,181.6h-2.1v-1.1h2.1V181.6z M372,181.6h-2.1v-1.1h2.1V181.6z M367.8,181.6
		h-2.1v-1.1h2.1V181.6z M363.6,181.6h-2.1v-1.1h2.1V181.6z M359.3,181.6h-2.1v-1.1h2.1V181.6z M355.1,181.6H353v-1.1h2.1V181.6z
		 M350.8,181.6h-2.1v-1.1h2.1V181.6z M346.6,181.6h-2.1v-1.1h2.1V181.6z M342.4,181.6h-2.1v-1.1h2.1V181.6z M338.1,181.6H336v-1.1
		h2.1V181.6z M333.9,181.6h-2.1v-1.1h2.1V181.6z M329.6,181.6h-2.1v-1.1h2.1V181.6z M325.4,181.6h-2.1v-1.1h2.1V181.6z M321.2,181.6
		H319v-1.1h2.1V181.6z M316.9,181.6h-2.1v-1.1h2.1V181.6z M312.7,181.6h-2.1v-1.1h2.1V181.6z M308.5,181.6h-2.1v-1.1h2.1V181.6z
		 M304.2,181.6h-2.1v-1.1h2.1V181.6z M300,181.6h-2.1v-1.1h2.1V181.6z M295.7,181.6h-2.1v-1.1h2.1V181.6z M291.5,181.6h-2.1v-1.1
		h2.1V181.6z M287.3,181.6h-2.1v-1.1h2.1V181.6z M283,181.6h-2.1v-1.1h2.1V181.6z M278.8,181.6h-2.1v-1.1h2.1V181.6z M274.5,181.6
		h-2.1v-1.1h2.1V181.6z M270.3,181.6h-2.1v-1.1h2.1V181.6z M266.1,181.6H264v-1.1h2.1V181.6z M261.8,181.6h-2.1v-1.1h2.1V181.6z
		 M257.6,181.6h-2.1v-1.1h2.1V181.6z M253.4,181.6h-2.1v-1.1h2.1V181.6z M249.1,181.6H247v-1.1h2.1V181.6z M244.9,181.6h-2.1v-1.1
		h2.1V181.6z M240.6,181.6h-2.1v-1.1h2.1V181.6z M236.4,181.6h-2.1v-1.1h2.1V181.6z M232.2,181.6H230v-1.1h2.1V181.6z M227.9,181.6
		h-2.1v-1.1h2.1V181.6z M223.7,181.6h-2.1v-1.1h2.1V181.6z M219.4,181.6h-2.1v-1.1h2.1V181.6z M215.2,181.6h-2.1v-1.1h2.1V181.6z
		 M211,181.6h-2.1v-1.1h2.1V181.6z M206.7,181.6h-2.1v-1.1h2.1V181.6z M202.5,181.6h-2.1v-1.1h2.1V181.6z M198.3,181.6h-2.1v-1.1
		h2.1V181.6z M194,181.6h-2.1v-1.1h2.1V181.6z M189.8,181.6h-2.1v-1.1h2.1V181.6z M185.5,181.6h-2.1v-1.1h2.1V181.6z M181.3,181.6
		h-2.1v-1.1h2.1V181.6z M177.1,181.6h-2.1v-1.1h2.1V181.6z M172.8,181.6h-2.1v-1.1h2.1V181.6z M168.6,181.6h-2.1v-1.1h2.1V181.6z
		 M164.3,181.6h-2.1v-1.1h2.1V181.6z M160.1,181.6H158v-1.1h2.1V181.6z M155.9,181.6h-2.1v-1.1h2.1V181.6z M151.6,181.6h-2.1v-1.1
		h2.1V181.6z M147.4,181.6h-2.1v-1.1h2.1V181.6z M143.2,181.6H141v-1.1h2.1V181.6z M138.9,181.6h-2.1v-1.1h2.1V181.6z M134.7,181.6
		h-2.1v-1.1h2.1V181.6z M130.4,181.6h-2.1v-1.1h2.1V181.6z M126.2,181.6h-2.1v-1.1h2.1V181.6z M122,181.6h-2.1v-1.1h2.1V181.6z
		 M117.7,181.6h-2.1v-1.1h2.1V181.6z M113.5,181.6h-2.1v-1.1h2.1V181.6z M109.2,181.6h-2.1v-1.1h2.1V181.6z M105,181.6h-2.1v-1.1
		h2.1V181.6z M100.8,181.6h-2.1v-1.1h2.1V181.6z M96.5,181.6h-2.1v-1.1h2.1V181.6z M92.3,181.6h-2.1v-1.1h2.1V181.6z M88.1,181.6
		h-2.1v-1.1h2.1V181.6z M83.8,181.6h-2.1v-1.1h2.1V181.6z M79.6,181.6h-2.1v-1.1h2.1V181.6z M75.3,181.6h-2.1v-1.1h2.1V181.6z
		 M71.1,181.6H69v-1.1h2.1V181.6z M66.9,181.6h-2.1v-1.1h2.1V181.6z M62.6,181.6h-2.1v-1.1h2.1V181.6z M58.4,181.6h-2.1v-1.1h2.1
		V181.6z M54.1,181.6H52v-1.1h2.1V181.6z M49.9,181.6h-2.1v-1.1h2.1V181.6z M45.7,181.6h-2.1v-1.1h2.1V181.6z M41.4,181.6h-2.1v-1.1
		h2.1V181.6z M37.2,181.6h-2.1v-1.1h2.1V181.6z M33,181.6h-2.1v-1.1H33V181.6z M28.7,181.6h-2.1v-1.1h2.1V181.6z M24.5,181.6h-2.1
		v-1.1h2.1V181.6z M20.2,181.6h-2.1v-1.1h2.1V181.6z M16,181.6h-2.1v-1.1H16V181.6z M11.8,181.6H9.6v-1.1h2.1V181.6z M7.5,181.6H5.4
		v-1.1h2.1V181.6z M3.3,181.6H1.2v-1.1h2.1V181.6z"/>
</g>
<g class="st5">
	<path class="st4" d="M550,239.5h-2.1v-1.1h2.1V239.5z M545.8,239.5h-2.1v-1.1h2.1V239.5z M541.6,239.5h-2.1v-1.1h2.1V239.5z
		 M537.3,239.5h-2.1v-1.1h2.1V239.5z M533.1,239.5H531v-1.1h2.1V239.5z M528.9,239.5h-2.1v-1.1h2.1V239.5z M524.6,239.5h-2.1v-1.1
		h2.1V239.5z M520.4,239.5h-2.1v-1.1h2.1V239.5z M516.1,239.5H514v-1.1h2.1V239.5z M511.9,239.5h-2.1v-1.1h2.1V239.5z M507.7,239.5
		h-2.1v-1.1h2.1V239.5z M503.4,239.5h-2.1v-1.1h2.1V239.5z M499.2,239.5h-2.1v-1.1h2.1V239.5z M494.9,239.5h-2.1v-1.1h2.1V239.5z
		 M490.7,239.5h-2.1v-1.1h2.1V239.5z M486.5,239.5h-2.1v-1.1h2.1V239.5z M482.2,239.5h-2.1v-1.1h2.1V239.5z M478,239.5h-2.1v-1.1
		h2.1V239.5z M473.8,239.5h-2.1v-1.1h2.1V239.5z M469.5,239.5h-2.1v-1.1h2.1V239.5z M465.3,239.5h-2.1v-1.1h2.1V239.5z M461,239.5
		h-2.1v-1.1h2.1V239.5z M456.8,239.5h-2.1v-1.1h2.1V239.5z M452.6,239.5h-2.1v-1.1h2.1V239.5z M448.3,239.5h-2.1v-1.1h2.1V239.5z
		 M444.1,239.5H442v-1.1h2.1V239.5z M439.8,239.5h-2.1v-1.1h2.1V239.5z M435.6,239.5h-2.1v-1.1h2.1V239.5z M431.4,239.5h-2.1v-1.1
		h2.1V239.5z M427.1,239.5H425v-1.1h2.1V239.5z M422.9,239.5h-2.1v-1.1h2.1V239.5z M418.7,239.5h-2.1v-1.1h2.1V239.5z M414.4,239.5
		h-2.1v-1.1h2.1V239.5z M410.2,239.5h-2.1v-1.1h2.1V239.5z M405.9,239.5h-2.1v-1.1h2.1V239.5z M401.7,239.5h-2.1v-1.1h2.1V239.5z
		 M397.5,239.5h-2.1v-1.1h2.1V239.5z M393.2,239.5h-2.1v-1.1h2.1V239.5z M389,239.5h-2.1v-1.1h2.1V239.5z M384.7,239.5h-2.1v-1.1
		h2.1V239.5z M380.5,239.5h-2.1v-1.1h2.1V239.5z M376.3,239.5h-2.1v-1.1h2.1V239.5z M372,239.5h-2.1v-1.1h2.1V239.5z M367.8,239.5
		h-2.1v-1.1h2.1V239.5z M363.6,239.5h-2.1v-1.1h2.1V239.5z M359.3,239.5h-2.1v-1.1h2.1V239.5z M355.1,239.5H353v-1.1h2.1V239.5z
		 M350.8,239.5h-2.1v-1.1h2.1V239.5z M346.6,239.5h-2.1v-1.1h2.1V239.5z M342.4,239.5h-2.1v-1.1h2.1V239.5z M338.1,239.5H336v-1.1
		h2.1V239.5z M333.9,239.5h-2.1v-1.1h2.1V239.5z M329.6,239.5h-2.1v-1.1h2.1V239.5z M325.4,239.5h-2.1v-1.1h2.1V239.5z M321.2,239.5
		H319v-1.1h2.1V239.5z M316.9,239.5h-2.1v-1.1h2.1V239.5z M312.7,239.5h-2.1v-1.1h2.1V239.5z M308.5,239.5h-2.1v-1.1h2.1V239.5z
		 M304.2,239.5h-2.1v-1.1h2.1V239.5z M300,239.5h-2.1v-1.1h2.1V239.5z M295.7,239.5h-2.1v-1.1h2.1V239.5z M291.5,239.5h-2.1v-1.1
		h2.1V239.5z M287.3,239.5h-2.1v-1.1h2.1V239.5z M283,239.5h-2.1v-1.1h2.1V239.5z M278.8,239.5h-2.1v-1.1h2.1V239.5z M274.5,239.5
		h-2.1v-1.1h2.1V239.5z M270.3,239.5h-2.1v-1.1h2.1V239.5z M266.1,239.5H264v-1.1h2.1V239.5z M261.8,239.5h-2.1v-1.1h2.1V239.5z
		 M257.6,239.5h-2.1v-1.1h2.1V239.5z M253.4,239.5h-2.1v-1.1h2.1V239.5z M249.1,239.5H247v-1.1h2.1V239.5z M244.9,239.5h-2.1v-1.1
		h2.1V239.5z M240.6,239.5h-2.1v-1.1h2.1V239.5z M236.4,239.5h-2.1v-1.1h2.1V239.5z M232.2,239.5H230v-1.1h2.1V239.5z M227.9,239.5
		h-2.1v-1.1h2.1V239.5z M223.7,239.5h-2.1v-1.1h2.1V239.5z M219.4,239.5h-2.1v-1.1h2.1V239.5z M215.2,239.5h-2.1v-1.1h2.1V239.5z
		 M211,239.5h-2.1v-1.1h2.1V239.5z M206.7,239.5h-2.1v-1.1h2.1V239.5z M202.5,239.5h-2.1v-1.1h2.1V239.5z M198.3,239.5h-2.1v-1.1
		h2.1V239.5z M194,239.5h-2.1v-1.1h2.1V239.5z M189.8,239.5h-2.1v-1.1h2.1V239.5z M185.5,239.5h-2.1v-1.1h2.1V239.5z M181.3,239.5
		h-2.1v-1.1h2.1V239.5z M177.1,239.5h-2.1v-1.1h2.1V239.5z M172.8,239.5h-2.1v-1.1h2.1V239.5z M168.6,239.5h-2.1v-1.1h2.1V239.5z
		 M164.3,239.5h-2.1v-1.1h2.1V239.5z M160.1,239.5H158v-1.1h2.1V239.5z M155.9,239.5h-2.1v-1.1h2.1V239.5z M151.6,239.5h-2.1v-1.1
		h2.1V239.5z M147.4,239.5h-2.1v-1.1h2.1V239.5z M143.2,239.5H141v-1.1h2.1V239.5z M138.9,239.5h-2.1v-1.1h2.1V239.5z M134.7,239.5
		h-2.1v-1.1h2.1V239.5z M130.4,239.5h-2.1v-1.1h2.1V239.5z M126.2,239.5h-2.1v-1.1h2.1V239.5z M122,239.5h-2.1v-1.1h2.1V239.5z
		 M117.7,239.5h-2.1v-1.1h2.1V239.5z M113.5,239.5h-2.1v-1.1h2.1V239.5z M109.2,239.5h-2.1v-1.1h2.1V239.5z M105,239.5h-2.1v-1.1
		h2.1V239.5z M100.8,239.5h-2.1v-1.1h2.1V239.5z M96.5,239.5h-2.1v-1.1h2.1V239.5z M92.3,239.5h-2.1v-1.1h2.1V239.5z M88.1,239.5
		h-2.1v-1.1h2.1V239.5z M83.8,239.5h-2.1v-1.1h2.1V239.5z M79.6,239.5h-2.1v-1.1h2.1V239.5z M75.3,239.5h-2.1v-1.1h2.1V239.5z
		 M71.1,239.5H69v-1.1h2.1V239.5z M66.9,239.5h-2.1v-1.1h2.1V239.5z M62.6,239.5h-2.1v-1.1h2.1V239.5z M58.4,239.5h-2.1v-1.1h2.1
		V239.5z M54.1,239.5H52v-1.1h2.1V239.5z M49.9,239.5h-2.1v-1.1h2.1V239.5z M45.7,239.5h-2.1v-1.1h2.1V239.5z M41.4,239.5h-2.1v-1.1
		h2.1V239.5z M37.2,239.5h-2.1v-1.1h2.1V239.5z M33,239.5h-2.1v-1.1H33V239.5z M28.7,239.5h-2.1v-1.1h2.1V239.5z M24.5,239.5h-2.1
		v-1.1h2.1V239.5z M20.2,239.5h-2.1v-1.1h2.1V239.5z M16,239.5h-2.1v-1.1H16V239.5z M11.8,239.5H9.6v-1.1h2.1V239.5z M7.5,239.5H5.4
		v-1.1h2.1V239.5z M3.3,239.5H1.2v-1.1h2.1V239.5z"/>
</g>
<g class="st5">
	<path class="st4" d="M550,125.1h-2.1V124h2.1V125.1z M545.8,125.1h-2.1V124h2.1V125.1z M541.6,125.1h-2.1V124h2.1V125.1z
		 M537.3,125.1h-2.1V124h2.1V125.1z M533.1,125.1H531V124h2.1V125.1z M528.9,125.1h-2.1V124h2.1V125.1z M524.6,125.1h-2.1V124h2.1
		V125.1z M520.4,125.1h-2.1V124h2.1V125.1z M516.1,125.1H514V124h2.1V125.1z M511.9,125.1h-2.1V124h2.1V125.1z M507.7,125.1h-2.1
		V124h2.1V125.1z M503.4,125.1h-2.1V124h2.1V125.1z M499.2,125.1h-2.1V124h2.1V125.1z M494.9,125.1h-2.1V124h2.1V125.1z
		 M490.7,125.1h-2.1V124h2.1V125.1z M486.5,125.1h-2.1V124h2.1V125.1z M482.2,125.1h-2.1V124h2.1V125.1z M478,125.1h-2.1V124h2.1
		V125.1z M473.8,125.1h-2.1V124h2.1V125.1z M469.5,125.1h-2.1V124h2.1V125.1z M465.3,125.1h-2.1V124h2.1V125.1z M461,125.1h-2.1V124
		h2.1V125.1z M456.8,125.1h-2.1V124h2.1V125.1z M452.6,125.1h-2.1V124h2.1V125.1z M448.3,125.1h-2.1V124h2.1V125.1z M444.1,125.1
		H442V124h2.1V125.1z M439.8,125.1h-2.1V124h2.1V125.1z M435.6,125.1h-2.1V124h2.1V125.1z M431.4,125.1h-2.1V124h2.1V125.1z
		 M427.1,125.1H425V124h2.1V125.1z M422.9,125.1h-2.1V124h2.1V125.1z M418.7,125.1h-2.1V124h2.1V125.1z M414.4,125.1h-2.1V124h2.1
		V125.1z M410.2,125.1h-2.1V124h2.1V125.1z M405.9,125.1h-2.1V124h2.1V125.1z M401.7,125.1h-2.1V124h2.1V125.1z M397.5,125.1h-2.1
		V124h2.1V125.1z M393.2,125.1h-2.1V124h2.1V125.1z M389,125.1h-2.1V124h2.1V125.1z M384.7,125.1h-2.1V124h2.1V125.1z M380.5,125.1
		h-2.1V124h2.1V125.1z M376.3,125.1h-2.1V124h2.1V125.1z M372,125.1h-2.1V124h2.1V125.1z M367.8,125.1h-2.1V124h2.1V125.1z
		 M363.6,125.1h-2.1V124h2.1V125.1z M359.3,125.1h-2.1V124h2.1V125.1z M355.1,125.1H353V124h2.1V125.1z M350.8,125.1h-2.1V124h2.1
		V125.1z M346.6,125.1h-2.1V124h2.1V125.1z M342.4,125.1h-2.1V124h2.1V125.1z M338.1,125.1H336V124h2.1V125.1z M333.9,125.1h-2.1
		V124h2.1V125.1z M329.6,125.1h-2.1V124h2.1V125.1z M325.4,125.1h-2.1V124h2.1V125.1z M321.2,125.1H319V124h2.1V125.1z M316.9,125.1
		h-2.1V124h2.1V125.1z M312.7,125.1h-2.1V124h2.1V125.1z M308.5,125.1h-2.1V124h2.1V125.1z M304.2,125.1h-2.1V124h2.1V125.1z
		 M300,125.1h-2.1V124h2.1V125.1z M295.7,125.1h-2.1V124h2.1V125.1z M291.5,125.1h-2.1V124h2.1V125.1z M287.3,125.1h-2.1V124h2.1
		V125.1z M283,125.1h-2.1V124h2.1V125.1z M278.8,125.1h-2.1V124h2.1V125.1z M274.5,125.1h-2.1V124h2.1V125.1z M270.3,125.1h-2.1V124
		h2.1V125.1z M266.1,125.1H264V124h2.1V125.1z M261.8,125.1h-2.1V124h2.1V125.1z M257.6,125.1h-2.1V124h2.1V125.1z M253.4,125.1
		h-2.1V124h2.1V125.1z M249.1,125.1H247V124h2.1V125.1z M244.9,125.1h-2.1V124h2.1V125.1z M240.6,125.1h-2.1V124h2.1V125.1z
		 M236.4,125.1h-2.1V124h2.1V125.1z M232.2,125.1H230V124h2.1V125.1z M227.9,125.1h-2.1V124h2.1V125.1z M223.7,125.1h-2.1V124h2.1
		V125.1z M219.4,125.1h-2.1V124h2.1V125.1z M215.2,125.1h-2.1V124h2.1V125.1z M211,125.1h-2.1V124h2.1V125.1z M206.7,125.1h-2.1V124
		h2.1V125.1z M202.5,125.1h-2.1V124h2.1V125.1z M198.3,125.1h-2.1V124h2.1V125.1z M194,125.1h-2.1V124h2.1V125.1z M189.8,125.1h-2.1
		V124h2.1V125.1z M185.5,125.1h-2.1V124h2.1V125.1z M181.3,125.1h-2.1V124h2.1V125.1z M177.1,125.1h-2.1V124h2.1V125.1z
		 M172.8,125.1h-2.1V124h2.1V125.1z M168.6,125.1h-2.1V124h2.1V125.1z M164.3,125.1h-2.1V124h2.1V125.1z M160.1,125.1H158V124h2.1
		V125.1z M155.9,125.1h-2.1V124h2.1V125.1z M151.6,125.1h-2.1V124h2.1V125.1z M147.4,125.1h-2.1V124h2.1V125.1z M143.2,125.1H141
		V124h2.1V125.1z M138.9,125.1h-2.1V124h2.1V125.1z M134.7,125.1h-2.1V124h2.1V125.1z M130.4,125.1h-2.1V124h2.1V125.1z
		 M126.2,125.1h-2.1V124h2.1V125.1z M122,125.1h-2.1V124h2.1V125.1z M117.7,125.1h-2.1V124h2.1V125.1z M113.5,125.1h-2.1V124h2.1
		V125.1z M109.2,125.1h-2.1V124h2.1V125.1z M105,125.1h-2.1V124h2.1V125.1z M100.8,125.1h-2.1V124h2.1V125.1z M96.5,125.1h-2.1V124
		h2.1V125.1z M92.3,125.1h-2.1V124h2.1V125.1z M88.1,125.1h-2.1V124h2.1V125.1z M83.8,125.1h-2.1V124h2.1V125.1z M79.6,125.1h-2.1
		V124h2.1V125.1z M75.3,125.1h-2.1V124h2.1V125.1z M71.1,125.1H69V124h2.1V125.1z M66.9,125.1h-2.1V124h2.1V125.1z M62.6,125.1h-2.1
		V124h2.1V125.1z M58.4,125.1h-2.1V124h2.1V125.1z M54.1,125.1H52V124h2.1V125.1z M49.9,125.1h-2.1V124h2.1V125.1z M45.7,125.1h-2.1
		V124h2.1V125.1z M41.4,125.1h-2.1V124h2.1V125.1z M37.2,125.1h-2.1V124h2.1V125.1z M33,125.1h-2.1V124H33V125.1z M28.7,125.1h-2.1
		V124h2.1V125.1z M24.5,125.1h-2.1V124h2.1V125.1z M20.2,125.1h-2.1V124h2.1V125.1z M16,125.1h-2.1V124H16V125.1z M11.8,125.1H9.6
		V124h2.1V125.1z M7.5,125.1H5.4V124h2.1V125.1z M3.3,125.1H1.2V124h2.1V125.1z"/>
</g>
<g class="st5">
	<path class="st4" d="M550,68.9h-2.1v-1.1h2.1V68.9z M545.8,68.9h-2.1v-1.1h2.1V68.9z M541.6,68.9h-2.1v-1.1h2.1V68.9z M537.3,68.9
		h-2.1v-1.1h2.1V68.9z M533.1,68.9H531v-1.1h2.1V68.9z M528.9,68.9h-2.1v-1.1h2.1V68.9z M524.6,68.9h-2.1v-1.1h2.1V68.9z
		 M520.4,68.9h-2.1v-1.1h2.1V68.9z M516.1,68.9H514v-1.1h2.1V68.9z M511.9,68.9h-2.1v-1.1h2.1V68.9z M507.7,68.9h-2.1v-1.1h2.1V68.9
		z M503.4,68.9h-2.1v-1.1h2.1V68.9z M499.2,68.9h-2.1v-1.1h2.1V68.9z M494.9,68.9h-2.1v-1.1h2.1V68.9z M490.7,68.9h-2.1v-1.1h2.1
		V68.9z M486.5,68.9h-2.1v-1.1h2.1V68.9z M482.2,68.9h-2.1v-1.1h2.1V68.9z M478,68.9h-2.1v-1.1h2.1V68.9z M473.8,68.9h-2.1v-1.1h2.1
		V68.9z M469.5,68.9h-2.1v-1.1h2.1V68.9z M465.3,68.9h-2.1v-1.1h2.1V68.9z M461,68.9h-2.1v-1.1h2.1V68.9z M456.8,68.9h-2.1v-1.1h2.1
		V68.9z M452.6,68.9h-2.1v-1.1h2.1V68.9z M448.3,68.9h-2.1v-1.1h2.1V68.9z M444.1,68.9H442v-1.1h2.1V68.9z M439.8,68.9h-2.1v-1.1
		h2.1V68.9z M435.6,68.9h-2.1v-1.1h2.1V68.9z M431.4,68.9h-2.1v-1.1h2.1V68.9z M427.1,68.9H425v-1.1h2.1V68.9z M422.9,68.9h-2.1
		v-1.1h2.1V68.9z M418.7,68.9h-2.1v-1.1h2.1V68.9z M414.4,68.9h-2.1v-1.1h2.1V68.9z M410.2,68.9h-2.1v-1.1h2.1V68.9z M405.9,68.9
		h-2.1v-1.1h2.1V68.9z M401.7,68.9h-2.1v-1.1h2.1V68.9z M397.5,68.9h-2.1v-1.1h2.1V68.9z M393.2,68.9h-2.1v-1.1h2.1V68.9z M389,68.9
		h-2.1v-1.1h2.1V68.9z M384.7,68.9h-2.1v-1.1h2.1V68.9z M380.5,68.9h-2.1v-1.1h2.1V68.9z M376.3,68.9h-2.1v-1.1h2.1V68.9z M372,68.9
		h-2.1v-1.1h2.1V68.9z M367.8,68.9h-2.1v-1.1h2.1V68.9z M363.6,68.9h-2.1v-1.1h2.1V68.9z M359.3,68.9h-2.1v-1.1h2.1V68.9z
		 M355.1,68.9H353v-1.1h2.1V68.9z M350.8,68.9h-2.1v-1.1h2.1V68.9z M346.6,68.9h-2.1v-1.1h2.1V68.9z M342.4,68.9h-2.1v-1.1h2.1V68.9
		z M338.1,68.9H336v-1.1h2.1V68.9z M333.9,68.9h-2.1v-1.1h2.1V68.9z M329.6,68.9h-2.1v-1.1h2.1V68.9z M325.4,68.9h-2.1v-1.1h2.1
		V68.9z M321.2,68.9H319v-1.1h2.1V68.9z M316.9,68.9h-2.1v-1.1h2.1V68.9z M312.7,68.9h-2.1v-1.1h2.1V68.9z M308.5,68.9h-2.1v-1.1
		h2.1V68.9z M304.2,68.9h-2.1v-1.1h2.1V68.9z M300,68.9h-2.1v-1.1h2.1V68.9z M295.7,68.9h-2.1v-1.1h2.1V68.9z M291.5,68.9h-2.1v-1.1
		h2.1V68.9z M287.3,68.9h-2.1v-1.1h2.1V68.9z M283,68.9h-2.1v-1.1h2.1V68.9z M278.8,68.9h-2.1v-1.1h2.1V68.9z M274.5,68.9h-2.1v-1.1
		h2.1V68.9z M270.3,68.9h-2.1v-1.1h2.1V68.9z M266.1,68.9H264v-1.1h2.1V68.9z M261.8,68.9h-2.1v-1.1h2.1V68.9z M257.6,68.9h-2.1
		v-1.1h2.1V68.9z M253.4,68.9h-2.1v-1.1h2.1V68.9z M249.1,68.9H247v-1.1h2.1V68.9z M244.9,68.9h-2.1v-1.1h2.1V68.9z M240.6,68.9
		h-2.1v-1.1h2.1V68.9z M236.4,68.9h-2.1v-1.1h2.1V68.9z M232.2,68.9H230v-1.1h2.1V68.9z M227.9,68.9h-2.1v-1.1h2.1V68.9z
		 M223.7,68.9h-2.1v-1.1h2.1V68.9z M219.4,68.9h-2.1v-1.1h2.1V68.9z M215.2,68.9h-2.1v-1.1h2.1V68.9z M211,68.9h-2.1v-1.1h2.1V68.9z
		 M206.7,68.9h-2.1v-1.1h2.1V68.9z M202.5,68.9h-2.1v-1.1h2.1V68.9z M198.3,68.9h-2.1v-1.1h2.1V68.9z M194,68.9h-2.1v-1.1h2.1V68.9z
		 M189.8,68.9h-2.1v-1.1h2.1V68.9z M185.5,68.9h-2.1v-1.1h2.1V68.9z M181.3,68.9h-2.1v-1.1h2.1V68.9z M177.1,68.9h-2.1v-1.1h2.1
		V68.9z M172.8,68.9h-2.1v-1.1h2.1V68.9z M168.6,68.9h-2.1v-1.1h2.1V68.9z M164.3,68.9h-2.1v-1.1h2.1V68.9z M160.1,68.9H158v-1.1
		h2.1V68.9z M155.9,68.9h-2.1v-1.1h2.1V68.9z M151.6,68.9h-2.1v-1.1h2.1V68.9z M147.4,68.9h-2.1v-1.1h2.1V68.9z M143.2,68.9H141
		v-1.1h2.1V68.9z M138.9,68.9h-2.1v-1.1h2.1V68.9z M134.7,68.9h-2.1v-1.1h2.1V68.9z M130.4,68.9h-2.1v-1.1h2.1V68.9z M126.2,68.9
		h-2.1v-1.1h2.1V68.9z M122,68.9h-2.1v-1.1h2.1V68.9z M117.7,68.9h-2.1v-1.1h2.1V68.9z M113.5,68.9h-2.1v-1.1h2.1V68.9z M109.2,68.9
		h-2.1v-1.1h2.1V68.9z M105,68.9h-2.1v-1.1h2.1V68.9z M100.8,68.9h-2.1v-1.1h2.1V68.9z M96.5,68.9h-2.1v-1.1h2.1V68.9z M92.3,68.9
		h-2.1v-1.1h2.1V68.9z M88.1,68.9h-2.1v-1.1h2.1V68.9z M83.8,68.9h-2.1v-1.1h2.1V68.9z M79.6,68.9h-2.1v-1.1h2.1V68.9z M75.3,68.9
		h-2.1v-1.1h2.1V68.9z M71.1,68.9H69v-1.1h2.1V68.9z M66.9,68.9h-2.1v-1.1h2.1V68.9z M62.6,68.9h-2.1v-1.1h2.1V68.9z M58.4,68.9
		h-2.1v-1.1h2.1V68.9z M54.1,68.9H52v-1.1h2.1V68.9z M49.9,68.9h-2.1v-1.1h2.1V68.9z M45.7,68.9h-2.1v-1.1h2.1V68.9z M41.4,68.9
		h-2.1v-1.1h2.1V68.9z M37.2,68.9h-2.1v-1.1h2.1V68.9z M33,68.9h-2.1v-1.1H33V68.9z M28.7,68.9h-2.1v-1.1h2.1V68.9z M24.5,68.9h-2.1
		v-1.1h2.1V68.9z M20.2,68.9h-2.1v-1.1h2.1V68.9z M16,68.9h-2.1v-1.1H16V68.9z M11.8,68.9H9.6v-1.1h2.1V68.9z M7.5,68.9H5.4v-1.1
		h2.1V68.9z M3.3,68.9H1.2v-1.1h2.1V68.9z"/>
</g>
<g class="st5">
	<path class="st4" d="M550,12h-2.1v-1.1h2.1V12z M545.8,12h-2.1v-1.1h2.1V12z M541.6,12h-2.1v-1.1h2.1V12z M537.3,12h-2.1v-1.1h2.1
		V12z M533.1,12H531v-1.1h2.1V12z M528.9,12h-2.1v-1.1h2.1V12z M524.6,12h-2.1v-1.1h2.1V12z M520.4,12h-2.1v-1.1h2.1V12z M516.1,12
		H514v-1.1h2.1V12z M511.9,12h-2.1v-1.1h2.1V12z M507.7,12h-2.1v-1.1h2.1V12z M503.4,12h-2.1v-1.1h2.1V12z M499.2,12h-2.1v-1.1h2.1
		V12z M494.9,12h-2.1v-1.1h2.1V12z M490.7,12h-2.1v-1.1h2.1V12z M486.5,12h-2.1v-1.1h2.1V12z M482.2,12h-2.1v-1.1h2.1V12z M478,12
		h-2.1v-1.1h2.1V12z M473.8,12h-2.1v-1.1h2.1V12z M469.5,12h-2.1v-1.1h2.1V12z M465.3,12h-2.1v-1.1h2.1V12z M461,12h-2.1v-1.1h2.1
		V12z M456.8,12h-2.1v-1.1h2.1V12z M452.6,12h-2.1v-1.1h2.1V12z M448.3,12h-2.1v-1.1h2.1V12z M444.1,12H442v-1.1h2.1V12z M439.8,12
		h-2.1v-1.1h2.1V12z M435.6,12h-2.1v-1.1h2.1V12z M431.4,12h-2.1v-1.1h2.1V12z M427.1,12H425v-1.1h2.1V12z M422.9,12h-2.1v-1.1h2.1
		V12z M418.7,12h-2.1v-1.1h2.1V12z M414.4,12h-2.1v-1.1h2.1V12z M410.2,12h-2.1v-1.1h2.1V12z M405.9,12h-2.1v-1.1h2.1V12z M401.7,12
		h-2.1v-1.1h2.1V12z M397.5,12h-2.1v-1.1h2.1V12z M393.2,12h-2.1v-1.1h2.1V12z M389,12h-2.1v-1.1h2.1V12z M384.7,12h-2.1v-1.1h2.1
		V12z M380.5,12h-2.1v-1.1h2.1V12z M376.3,12h-2.1v-1.1h2.1V12z M372,12h-2.1v-1.1h2.1V12z M367.8,12h-2.1v-1.1h2.1V12z M363.6,12
		h-2.1v-1.1h2.1V12z M359.3,12h-2.1v-1.1h2.1V12z M355.1,12H353v-1.1h2.1V12z M350.8,12h-2.1v-1.1h2.1V12z M346.6,12h-2.1v-1.1h2.1
		V12z M342.4,12h-2.1v-1.1h2.1V12z M338.1,12H336v-1.1h2.1V12z M333.9,12h-2.1v-1.1h2.1V12z M329.6,12h-2.1v-1.1h2.1V12z M325.4,12
		h-2.1v-1.1h2.1V12z M321.2,12H319v-1.1h2.1V12z M316.9,12h-2.1v-1.1h2.1V12z M312.7,12h-2.1v-1.1h2.1V12z M308.5,12h-2.1v-1.1h2.1
		V12z M304.2,12h-2.1v-1.1h2.1V12z M300,12h-2.1v-1.1h2.1V12z M295.7,12h-2.1v-1.1h2.1V12z M291.5,12h-2.1v-1.1h2.1V12z M287.3,12
		h-2.1v-1.1h2.1V12z M283,12h-2.1v-1.1h2.1V12z M278.8,12h-2.1v-1.1h2.1V12z M274.5,12h-2.1v-1.1h2.1V12z M270.3,12h-2.1v-1.1h2.1
		V12z M266.1,12H264v-1.1h2.1V12z M261.8,12h-2.1v-1.1h2.1V12z M257.6,12h-2.1v-1.1h2.1V12z M253.4,12h-2.1v-1.1h2.1V12z M249.1,12
		H247v-1.1h2.1V12z M244.9,12h-2.1v-1.1h2.1V12z M240.6,12h-2.1v-1.1h2.1V12z M236.4,12h-2.1v-1.1h2.1V12z M232.2,12H230v-1.1h2.1
		V12z M227.9,12h-2.1v-1.1h2.1V12z M223.7,12h-2.1v-1.1h2.1V12z M219.4,12h-2.1v-1.1h2.1V12z M215.2,12h-2.1v-1.1h2.1V12z M211,12
		h-2.1v-1.1h2.1V12z M206.7,12h-2.1v-1.1h2.1V12z M202.5,12h-2.1v-1.1h2.1V12z M198.3,12h-2.1v-1.1h2.1V12z M194,12h-2.1v-1.1h2.1
		V12z M189.8,12h-2.1v-1.1h2.1V12z M185.5,12h-2.1v-1.1h2.1V12z M181.3,12h-2.1v-1.1h2.1V12z M177.1,12h-2.1v-1.1h2.1V12z M172.8,12
		h-2.1v-1.1h2.1V12z M168.6,12h-2.1v-1.1h2.1V12z M164.3,12h-2.1v-1.1h2.1V12z M160.1,12H158v-1.1h2.1V12z M155.9,12h-2.1v-1.1h2.1
		V12z M151.6,12h-2.1v-1.1h2.1V12z M147.4,12h-2.1v-1.1h2.1V12z M143.2,12H141v-1.1h2.1V12z M138.9,12h-2.1v-1.1h2.1V12z M134.7,12
		h-2.1v-1.1h2.1V12z M130.4,12h-2.1v-1.1h2.1V12z M126.2,12h-2.1v-1.1h2.1V12z M122,12h-2.1v-1.1h2.1V12z M117.7,12h-2.1v-1.1h2.1
		V12z M113.5,12h-2.1v-1.1h2.1V12z M109.2,12h-2.1v-1.1h2.1V12z M105,12h-2.1v-1.1h2.1V12z M100.8,12h-2.1v-1.1h2.1V12z M96.5,12
		h-2.1v-1.1h2.1V12z M92.3,12h-2.1v-1.1h2.1V12z M88.1,12h-2.1v-1.1h2.1V12z M83.8,12h-2.1v-1.1h2.1V12z M79.6,12h-2.1v-1.1h2.1V12z
		 M75.3,12h-2.1v-1.1h2.1V12z M71.1,12H69v-1.1h2.1V12z M66.9,12h-2.1v-1.1h2.1V12z M62.6,12h-2.1v-1.1h2.1V12z M58.4,12h-2.1v-1.1
		h2.1V12z M54.1,12H52v-1.1h2.1V12z M49.9,12h-2.1v-1.1h2.1V12z M45.7,12h-2.1v-1.1h2.1V12z M41.4,12h-2.1v-1.1h2.1V12z M37.2,12
		h-2.1v-1.1h2.1V12z M33,12h-2.1v-1.1H33V12z M28.7,12h-2.1v-1.1h2.1V12z M24.5,12h-2.1v-1.1h2.1V12z M20.2,12h-2.1v-1.1h2.1V12z
		 M16,12h-2.1v-1.1H16V12z M11.8,12H9.6v-1.1h2.1V12z M7.5,12H5.4v-1.1h2.1V12z M3.3,12H1.2v-1.1h2.1V12z"/>
</g>
</svg>
