<svg width="720" height="1024" viewBox="0 0 720 1024" fill="none" xmlns="http://www.w3.org/2000/svg">
<path d="M292.279 286H290.287V272.824L284.839 286H284.023L278.599 272.824V286H276.607V269.992H279.463L284.431 282.04L289.423 269.992H292.279V286ZM306.436 286H304.636V284.368C304.156 284.912 303.548 285.368 302.812 285.736C302.092 286.104 301.324 286.288 300.508 286.288C298.044 286.288 296.812 285.056 296.812 282.592V274.408H298.612V282.04C298.612 283 298.828 283.68 299.26 284.08C299.708 284.48 300.356 284.68 301.204 284.68C301.876 284.68 302.524 284.512 303.148 284.176C303.788 283.84 304.284 283.424 304.636 282.928V274.408H306.436V286ZM320.524 286H318.724V278.416C318.724 277.44 318.5 276.752 318.052 276.352C317.604 275.936 316.964 275.728 316.132 275.728C315.46 275.728 314.804 275.904 314.164 276.256C313.54 276.608 313.052 277.032 312.7 277.528V286H310.9V274.408H312.7V276.088C313.148 275.56 313.748 275.104 314.5 274.72C315.252 274.32 316.028 274.12 316.828 274.12C319.292 274.12 320.524 275.368 320.524 277.864V286ZM325.877 272.752C325.557 272.752 325.277 272.64 325.037 272.416C324.797 272.176 324.677 271.888 324.677 271.552C324.677 271.216 324.797 270.928 325.037 270.688C325.277 270.448 325.557 270.328 325.877 270.328C326.213 270.328 326.501 270.448 326.741 270.688C326.981 270.928 327.101 271.216 327.101 271.552C327.101 271.888 326.981 272.176 326.741 272.416C326.501 272.64 326.213 272.752 325.877 272.752ZM326.789 286H324.989V274.408H326.789V286ZM336.362 286.288C334.65 286.288 333.258 285.712 332.186 284.56C331.114 283.392 330.578 281.936 330.578 280.192C330.578 278.448 331.114 277 332.186 275.848C333.258 274.696 334.65 274.12 336.362 274.12C338.154 274.12 339.57 274.792 340.61 276.136L339.41 277.24C338.674 276.232 337.69 275.728 336.458 275.728C335.242 275.728 334.266 276.144 333.53 276.976C332.81 277.808 332.45 278.88 332.45 280.192C332.45 281.504 332.81 282.584 333.53 283.432C334.266 284.264 335.242 284.68 336.458 284.68C337.674 284.68 338.658 284.176 339.41 283.168L340.61 284.272C339.57 285.616 338.154 286.288 336.362 286.288ZM353.651 286H351.851V278.368C351.851 277.408 351.627 276.728 351.179 276.328C350.731 275.928 350.083 275.728 349.235 275.728C348.579 275.728 347.931 275.904 347.291 276.256C346.667 276.608 346.171 277.032 345.803 277.528V286H344.003V269.992H345.803V276.088C346.251 275.56 346.851 275.104 347.603 274.72C348.355 274.32 349.139 274.12 349.955 274.12C352.419 274.12 353.651 275.352 353.651 277.816V286Z" fill="#061B2B"/>
</svg>
