<svg width="101" height="141" viewBox="0 0 101 141" fill="none" xmlns="http://www.w3.org/2000/svg">
<path opacity="0.15" d="M49.91 117.245C52.95 117.245 55.7683 116.675 58.365 115.535C61.025 114.395 63.305 112.843 65.205 110.88C67.105 108.853 68.5933 106.51 69.67 103.85C70.81 101.127 71.38 98.1817 71.38 95.015C71.38 91.4683 70.8417 88.3017 69.765 85.515C68.7517 82.7283 67.295 80.385 65.395 78.485C63.495 76.585 61.1833 75.1283 58.46 74.115C55.8 73.1017 52.8233 72.595 49.53 72.595C46.5533 72.595 43.83 73.1333 41.36 74.21C38.89 75.2233 36.7367 76.7117 34.9 78.675C33.1267 80.6383 31.7333 82.9817 30.72 85.705C29.7067 88.4283 29.2 91.5 29.2 94.92C29.2 98.34 29.6117 101.412 30.435 104.135C31.2583 106.858 32.525 109.202 34.235 111.165C35.945 113.128 38.0983 114.648 40.695 115.725C43.2917 116.738 46.3633 117.245 49.91 117.245ZM45.16 53.785C49.5933 52.1383 54.5333 51.315 59.98 51.315C64.9833 51.315 69.9233 52.1383 74.8 53.785C79.6767 55.4317 84.0467 57.965 87.91 61.385C91.7733 64.805 94.8767 69.1433 97.22 74.4C99.6267 79.5933 100.83 85.7367 100.83 92.83C100.83 99.29 99.6267 105.433 97.22 111.26C94.8133 117.023 91.3933 122.09 86.96 126.46C82.59 130.767 77.3017 134.187 71.095 136.72C64.8883 139.253 58.0167 140.52 50.48 140.52C42.7533 140.52 35.8183 139.317 29.675 136.91C23.5317 134.44 18.3067 131.02 14 126.65C9.75667 122.28 6.495 117.055 4.215 110.975C1.99833 104.895 0.89 98.2133 0.89 90.93C0.89 77.3133 6.14667 63.475 16.66 49.415L47.82 7.33C49.2767 5.49333 51.3667 3.90999 54.09 2.57999C56.8767 1.25 60.0433 0.584998 63.59 0.584998H89.81L48.77 49.605L45.16 53.785Z" fill="#D6E4F1"/>
</svg>
