<svg width="97" height="141" viewBox="0 0 97 141" fill="none" xmlns="http://www.w3.org/2000/svg">
<path opacity="0.15" d="M37.18 48.82C39.7767 48.3133 42.2783 47.965 44.685 47.775C47.0917 47.585 49.435 47.49 51.715 47.49C58.9983 47.49 65.4267 48.5983 71 50.815C76.5733 53.0317 81.26 56.0717 85.06 59.935C88.86 63.735 91.71 68.2317 93.61 73.425C95.5733 78.555 96.555 84.065 96.555 89.955C96.555 97.365 95.225 104.142 92.565 110.285C89.9683 116.365 86.3267 121.622 81.64 126.055C76.9533 130.488 71.3483 133.94 64.825 136.41C58.365 138.817 51.2717 140.02 43.545 140.02C39.0483 140.02 34.7417 139.545 30.625 138.595C26.5717 137.645 22.74 136.378 19.13 134.795C15.5833 133.148 12.29 131.28 9.25 129.19C6.21 127.037 3.455 124.757 0.985 122.35L10.105 110.19C11.055 108.923 12.1633 107.973 13.43 107.34C14.6967 106.643 16.0583 106.295 17.515 106.295C19.415 106.295 21.1883 106.833 22.835 107.91C24.545 108.923 26.3817 110.063 28.345 111.33C30.3717 112.533 32.715 113.642 35.375 114.655C38.035 115.668 41.3283 116.175 45.255 116.175C49.1817 116.175 52.5383 115.542 55.325 114.275C58.1117 112.945 60.36 111.172 62.07 108.955C63.8433 106.675 65.11 104.047 65.87 101.07C66.6933 98.03 67.105 94.8 67.105 91.38C67.105 84.6667 65.205 79.5683 61.405 76.085C57.605 72.5383 52.2217 70.765 45.255 70.765C39.0483 70.765 32.9683 71.9367 27.015 74.28L8.775 69.34L20.555 0.0849984H91.425V12.245C91.425 14.2717 91.1083 16.1083 90.475 17.755C89.8417 19.4017 88.8283 20.8583 87.435 22.125C86.105 23.3283 84.3317 24.2783 82.115 24.975C79.8983 25.6083 77.2383 25.925 74.135 25.925H41.075L37.18 48.82Z" fill="#D6E4F1"/>
</svg>
