<?xml version="1.0" encoding="utf-8"?>
<!-- Generator: Adobe Illustrator 23.0.6, SVG Export Plug-In . SVG Version: 6.00 Build 0)  -->
<svg version="1.1" id="Ebene_1" xmlns="http://www.w3.org/2000/svg" xmlns:xlink="http://www.w3.org/1999/xlink" x="0px" y="0px"
	 viewBox="0 0 563.8 563.8" style="enable-background:new 0 0 563.8 563.8;" xml:space="preserve">
<style type="text/css">
	.st0{fill:#061B2B;}
	.st1{fill:#FFFFFF;}
	.st2{fill:#B81F30;}
	.st3{fill:#A3A8B0;}
	.st4{fill:none;stroke:#000000;stroke-width:2;stroke-miterlimit:10;}
	.st5{fill:none;stroke:#000000;stroke-width:2;stroke-miterlimit:10;stroke-dasharray:3.957,3.957;}
	.st6{fill:none;stroke:#000000;stroke-width:2.3751;stroke-miterlimit:10;}
	.st7{fill:none;stroke:#000000;stroke-width:2.3751;stroke-miterlimit:10;stroke-dasharray:4.7439,4.7439;}
</style>
<g>
	<rect class="st0" width="563.8" height="563.8"/>
</g>
<g>
	<g>
		<rect x="114.3" y="64.8" class="st1" width="125.8" height="125.8"/>
	</g>
	<g>
		<rect x="243.4" y="64.8" class="st1" width="125.8" height="125.8"/>
	</g>
	<g>
		<rect x="372.5" y="64.8" class="st1" width="125.8" height="125.8"/>
	</g>
	<g>
		<rect x="114.3" y="194.5" class="st1" width="125.8" height="125.8"/>
	</g>
	<g>
		<rect x="243.4" y="194.5" class="st1" width="125.8" height="125.8"/>
	</g>
	<g>
		<rect x="372.5" y="194.5" class="st1" width="125.8" height="125.8"/>
	</g>
	<g>
		<rect x="114.3" y="324.2" class="st1" width="125.8" height="125.8"/>
	</g>
	<g>
		<rect x="243.4" y="324.2" class="st1" width="125.8" height="125.8"/>
	</g>
	<g>
		<rect x="372.5" y="324.2" class="st1" width="125.8" height="125.8"/>
	</g>
</g>
<g>
	<path class="st2" d="M154,372.4c-0.4,0.3-0.8,0.5-1.3,0.6c-0.5,0.1-1.1,0.2-1.7,0.2c-1,0-1.8-0.2-2.5-0.6s-1.2-0.9-1.7-1.6
		c-0.4-0.7-0.8-1.4-1-2.3c-0.2-0.8-0.3-1.7-0.3-2.6c0-0.9,0.1-1.8,0.3-2.6c0.2-0.9,0.5-1.6,1-2.3c0.4-0.7,1-1.2,1.7-1.6
		s1.5-0.6,2.5-0.6c0.6,0,1.2,0.1,1.7,0.2s0.9,0.3,1.3,0.6l-0.7,2c-0.2-0.1-0.5-0.2-0.7-0.3s-0.6-0.1-0.9-0.1c-0.5,0-0.9,0.1-1.3,0.4
		c-0.4,0.3-0.6,0.6-0.8,1.1c-0.2,0.4-0.4,0.9-0.5,1.5c-0.1,0.6-0.1,1.1-0.1,1.7c0,0.6,0,1.1,0.2,1.7c0.1,0.6,0.3,1,0.5,1.5
		c0.2,0.4,0.5,0.8,0.9,1.1s0.8,0.4,1.2,0.4c0.3,0,0.6,0,0.9-0.1s0.5-0.2,0.7-0.3L154,372.4z"/>
	<path class="st2" d="M164.5,372.4c-0.5,0.2-1.2,0.4-2,0.6c-0.8,0.2-1.6,0.2-2.4,0.2c-1.6,0-2.7-0.3-3.5-0.9
		c-0.8-0.6-1.2-1.6-1.2-2.9v-7.2h3.1v7.3c0,1.1,0.5,1.6,1.6,1.6c0.2,0,0.4,0,0.7-0.1c0.2,0,0.4-0.1,0.6-0.2v-8.7h3.1V372.4z"/>
	<path class="st2" d="M172.1,364.2c-0.2-0.1-0.4-0.2-0.6-0.2c-0.2,0-0.4-0.1-0.6-0.1c-0.4,0-0.7,0.1-0.9,0.2v8.9h-3.1v-10.2
		c0.5-0.2,1.1-0.4,1.9-0.6c0.7-0.1,1.6-0.2,2.5-0.2c0.2,0,0.5,0,0.8,0c0.3,0,0.5,0,0.6,0.1L172.1,364.2z"/>
	<path class="st2" d="M179.3,364.2c-0.2-0.1-0.4-0.2-0.6-0.2c-0.2,0-0.4-0.1-0.6-0.1c-0.4,0-0.7,0.1-0.9,0.2v8.9h-3.1v-10.2
		c0.5-0.2,1.1-0.4,1.9-0.6c0.7-0.1,1.6-0.2,2.5-0.2c0.2,0,0.5,0,0.8,0c0.3,0,0.5,0,0.6,0.1L179.3,364.2z"/>
	<path class="st2" d="M190.1,367.3v0.2c0,0.1,0,0.1,0,0.2l-6.5,0.9c0.1,0.8,0.4,1.3,0.9,1.8c0.5,0.4,1.1,0.6,1.8,0.6
		c0.5,0,1-0.1,1.5-0.2s0.9-0.3,1.2-0.4l0.7,2c-0.5,0.3-1.1,0.5-1.8,0.6c-0.7,0.1-1.4,0.2-2.2,0.2c-0.9,0-1.6-0.1-2.3-0.4
		c-0.7-0.3-1.2-0.7-1.6-1.2c-0.4-0.5-0.8-1.1-1-1.8c-0.2-0.7-0.3-1.4-0.3-2.3c0-0.8,0.1-1.6,0.3-2.3c0.2-0.7,0.5-1.3,1-1.8
		c0.4-0.5,0.9-0.9,1.6-1.1c0.6-0.3,1.3-0.4,2.1-0.4c1.5,0,2.7,0.5,3.5,1.4C189.7,364.3,190.1,365.6,190.1,367.3z M187.1,366.5
		c0-0.9-0.2-1.6-0.4-2s-0.7-0.7-1.3-0.7c-0.6,0-1.1,0.3-1.5,0.8c-0.3,0.6-0.5,1.3-0.5,2.2v0.3L187.1,366.5z"/>
	<path class="st2" d="M198.2,373v-7.3c0-0.6-0.1-1-0.4-1.3s-0.7-0.4-1.3-0.4c-0.2,0-0.5,0-0.7,0.1s-0.4,0.1-0.6,0.2v8.8h-3.1v-10.2
		c1.2-0.5,2.7-0.8,4.4-0.8s2.9,0.3,3.7,1c0.8,0.7,1.2,1.6,1.2,2.7v7.3H198.2z"/>
	<path class="st2" d="M208.9,372.8c-0.2,0.1-0.4,0.2-0.7,0.2c-0.3,0.1-0.6,0.1-0.9,0.1c-1,0-1.8-0.3-2.4-0.8s-0.8-1.3-0.8-2.4v-5.7
		H203v-2h1.2v-2.3l3.1-0.8v3.1h1.7v2h-1.7v5.7c0,0.4,0.1,0.6,0.3,0.8c0.2,0.2,0.4,0.3,0.8,0.3c0.2,0,0.5,0,0.7-0.1V372.8z"/>
	<path class="st2" d="M166.4,392.4c-0.7,0.5-1.6,0.8-2.7,0.8c-0.7,0-1.3-0.1-1.8-0.4c-0.6-0.3-1-0.6-1.5-1.1c-0.4-0.5-0.7-1.1-1-1.8
		c-0.2-0.7-0.3-1.5-0.3-2.4s0.1-1.7,0.4-2.4c0.2-0.7,0.6-1.3,1-1.8c0.4-0.5,0.9-0.8,1.4-1.1c0.6-0.3,1.2-0.4,1.8-0.4
		c1.1,0,2,0.3,2.7,0.8l-0.7,1.7c-0.4-0.3-0.8-0.4-1.3-0.4c-0.6,0-1.2,0.3-1.5,0.9s-0.6,1.5-0.6,2.5s0.2,1.9,0.6,2.5s0.9,0.9,1.5,0.9
		c0.5,0,1-0.1,1.3-0.4L166.4,392.4z"/>
	<path class="st2" d="M177.1,387.6c0,0.8-0.1,1.6-0.3,2.2c-0.2,0.7-0.5,1.3-0.9,1.8c-0.4,0.5-0.9,0.9-1.5,1.2
		c-0.6,0.3-1.3,0.4-2.1,0.4s-1.5-0.1-2.1-0.4c-0.6-0.3-1.1-0.7-1.5-1.2c-0.4-0.5-0.7-1.1-0.9-1.8c-0.2-0.7-0.3-1.4-0.3-2.2
		c0-0.8,0.1-1.6,0.3-2.2c0.2-0.7,0.5-1.3,0.9-1.8c0.4-0.5,0.9-0.9,1.5-1.2c0.6-0.3,1.3-0.4,2.1-0.4s1.5,0.1,2.1,0.4
		c0.6,0.3,1.1,0.7,1.5,1.2c0.4,0.5,0.7,1.1,0.9,1.8C177,386,177.1,386.8,177.1,387.6z M174,387.5c0-0.5,0-1-0.1-1.5
		c-0.1-0.4-0.2-0.8-0.3-1.1c-0.1-0.3-0.3-0.6-0.5-0.8c-0.2-0.2-0.5-0.3-0.8-0.3s-0.6,0.1-0.8,0.3s-0.4,0.4-0.5,0.8
		c-0.1,0.3-0.2,0.7-0.3,1.1c-0.1,0.4-0.1,0.9-0.1,1.5s0,1,0.1,1.5c0.1,0.4,0.2,0.8,0.3,1.2c0.1,0.3,0.3,0.6,0.5,0.8
		c0.2,0.2,0.5,0.3,0.8,0.3s0.6-0.1,0.8-0.3c0.2-0.2,0.4-0.4,0.5-0.8c0.1-0.3,0.2-0.7,0.3-1.2C174,388.5,174,388,174,387.5z"/>
	<path class="st2" d="M184.3,384.2c-0.2-0.1-0.4-0.2-0.6-0.2c-0.2,0-0.4-0.1-0.6-0.1c-0.4,0-0.7,0.1-0.9,0.2v8.9h-3.1v-10.2
		c0.5-0.2,1.1-0.4,1.9-0.6c0.7-0.1,1.6-0.2,2.5-0.2c0.2,0,0.5,0,0.8,0c0.3,0,0.5,0,0.6,0.1L184.3,384.2z"/>
	<path class="st2" d="M195.1,387.3v0.2c0,0.1,0,0.1,0,0.2l-6.5,0.9c0.1,0.8,0.4,1.3,0.9,1.8c0.5,0.4,1.1,0.6,1.8,0.6
		c0.5,0,1-0.1,1.5-0.2s0.9-0.3,1.2-0.4l0.7,2c-0.5,0.3-1.1,0.5-1.8,0.6c-0.7,0.1-1.4,0.2-2.2,0.2c-0.9,0-1.6-0.1-2.3-0.4
		c-0.7-0.3-1.2-0.7-1.6-1.2c-0.4-0.5-0.8-1.1-1-1.8c-0.2-0.7-0.3-1.4-0.3-2.3c0-0.8,0.1-1.6,0.3-2.3c0.2-0.7,0.5-1.3,1-1.8
		c0.4-0.5,0.9-0.9,1.6-1.1c0.6-0.3,1.3-0.4,2.1-0.4c1.5,0,2.7,0.5,3.5,1.4C194.7,384.3,195.1,385.6,195.1,387.3z M192.2,386.5
		c0-0.9-0.2-1.6-0.4-2s-0.7-0.7-1.3-0.7c-0.6,0-1.1,0.3-1.5,0.8c-0.3,0.6-0.5,1.3-0.5,2.2v0.3L192.2,386.5z"/>
	<path class="st2" d="M148.9,407.2c0,1.9-0.5,3.4-1.4,4.4c-0.9,1-2.3,1.6-4.1,1.6c-0.8,0-1.6-0.1-2.2-0.2c-0.7-0.1-1.2-0.3-1.7-0.6
		v-15.1h3.1v5.1c0.5-0.3,1.2-0.4,1.9-0.4c0.7,0,1.3,0.1,1.8,0.4c0.5,0.2,1,0.6,1.4,1c0.4,0.4,0.7,1,0.9,1.6
		C148.8,405.7,148.9,406.4,148.9,407.2z M145.8,407.5c0-1.2-0.2-2.1-0.5-2.8s-0.9-0.9-1.6-0.9c-0.2,0-0.4,0-0.6,0.1
		c-0.2,0-0.3,0.1-0.5,0.2v7.1c0.3,0.1,0.6,0.2,1,0.2c0.8,0,1.4-0.3,1.7-1C145.6,409.6,145.8,408.7,145.8,407.5z"/>
	<path class="st2" d="M159.9,412.4c-0.5,0.2-1.2,0.4-2,0.6c-0.8,0.2-1.6,0.2-2.4,0.2c-1.6,0-2.7-0.3-3.5-0.9
		c-0.8-0.6-1.2-1.6-1.2-2.9v-7.2h3.1v7.3c0,1.1,0.5,1.6,1.6,1.6c0.2,0,0.4,0,0.7-0.1c0.2,0,0.4-0.1,0.6-0.2v-8.7h3.1V412.4z"/>
	<path class="st2" d="M169.3,409.7c0,0.5-0.1,1-0.3,1.4s-0.5,0.8-0.8,1.1s-0.8,0.5-1.3,0.7c-0.5,0.2-1.1,0.3-1.8,0.3
		c-0.6,0-1.2-0.1-1.8-0.2c-0.6-0.1-1.1-0.3-1.5-0.6l0.8-1.9c0.4,0.2,0.7,0.4,1.1,0.5c0.4,0.1,0.7,0.1,1,0.1c0.5,0,0.8-0.1,1.1-0.3
		c0.3-0.2,0.4-0.5,0.4-0.9c0-0.3-0.1-0.6-0.3-0.8c-0.2-0.2-0.5-0.4-0.8-0.5c-0.3-0.2-0.6-0.3-1-0.5c-0.4-0.2-0.7-0.4-1-0.6
		c-0.3-0.2-0.6-0.5-0.8-0.9c-0.2-0.4-0.3-0.8-0.3-1.4c0-0.5,0.1-1,0.3-1.4s0.5-0.8,0.8-1s0.7-0.5,1.2-0.7s1-0.2,1.5-0.2
		c0.7,0,1.3,0.1,1.8,0.2c0.5,0.1,1,0.3,1.5,0.6l-0.7,1.7c-0.6-0.4-1.3-0.6-1.9-0.6c-0.4,0-0.8,0.1-1,0.3c-0.2,0.2-0.3,0.5-0.3,0.8
		c0,0.3,0.1,0.5,0.3,0.7s0.5,0.4,0.8,0.5s0.7,0.3,1,0.5c0.4,0.2,0.7,0.4,1,0.6c0.3,0.2,0.6,0.5,0.8,0.9
		C169.2,408.6,169.3,409.1,169.3,409.7z"/>
	<path class="st2" d="M174.5,399.1c0,0.4-0.2,0.8-0.5,1c-0.3,0.3-0.7,0.4-1.2,0.4s-0.9-0.1-1.2-0.4c-0.3-0.3-0.5-0.6-0.5-1
		s0.2-0.8,0.5-1c0.3-0.3,0.7-0.4,1.2-0.4s0.9,0.1,1.2,0.4C174.3,398.3,174.5,398.7,174.5,399.1z M171.3,413v-10.8h3.1V413H171.3z"/>
	<path class="st2" d="M182.9,413v-7.3c0-0.6-0.1-1-0.4-1.3s-0.7-0.4-1.3-0.4c-0.2,0-0.5,0-0.7,0.1s-0.4,0.1-0.6,0.2v8.8h-3.1v-10.2
		c1.2-0.5,2.7-0.8,4.4-0.8s2.9,0.3,3.7,1c0.8,0.7,1.2,1.6,1.2,2.7v7.3H182.9z"/>
	<path class="st2" d="M197.6,407.3v0.2c0,0.1,0,0.1,0,0.2l-6.5,0.9c0.1,0.8,0.4,1.3,0.9,1.8c0.5,0.4,1.1,0.6,1.8,0.6
		c0.5,0,1-0.1,1.5-0.2s0.9-0.3,1.2-0.4l0.7,2c-0.5,0.3-1.1,0.5-1.8,0.6c-0.7,0.1-1.4,0.2-2.2,0.2c-0.9,0-1.6-0.1-2.3-0.4
		c-0.7-0.3-1.2-0.7-1.6-1.2c-0.4-0.5-0.8-1.1-1-1.8c-0.2-0.7-0.3-1.4-0.3-2.3c0-0.8,0.1-1.6,0.3-2.3c0.2-0.7,0.5-1.3,1-1.8
		c0.4-0.5,0.9-0.9,1.6-1.1c0.6-0.3,1.3-0.4,2.1-0.4c1.5,0,2.7,0.5,3.5,1.4C197.2,404.3,197.6,405.6,197.6,407.3z M194.6,406.5
		c0-0.9-0.2-1.6-0.4-2s-0.7-0.7-1.3-0.7c-0.6,0-1.1,0.3-1.5,0.8c-0.3,0.6-0.5,1.3-0.5,2.2v0.3L194.6,406.5z"/>
	<path class="st2" d="M206.5,409.7c0,0.5-0.1,1-0.3,1.4s-0.5,0.8-0.8,1.1s-0.8,0.5-1.3,0.7c-0.5,0.2-1.1,0.3-1.8,0.3
		c-0.6,0-1.2-0.1-1.8-0.2c-0.6-0.1-1.1-0.3-1.5-0.6l0.8-1.9c0.4,0.2,0.7,0.4,1.1,0.5c0.4,0.1,0.7,0.1,1,0.1c0.5,0,0.8-0.1,1.1-0.3
		c0.3-0.2,0.4-0.5,0.4-0.9c0-0.3-0.1-0.6-0.3-0.8c-0.2-0.2-0.5-0.4-0.8-0.5c-0.3-0.2-0.6-0.3-1-0.5c-0.4-0.2-0.7-0.4-1-0.6
		c-0.3-0.2-0.6-0.5-0.8-0.9c-0.2-0.4-0.3-0.8-0.3-1.4c0-0.5,0.1-1,0.3-1.4s0.5-0.8,0.8-1s0.7-0.5,1.2-0.7s1-0.2,1.5-0.2
		c0.7,0,1.3,0.1,1.8,0.2c0.5,0.1,1,0.3,1.5,0.6l-0.7,1.7c-0.6-0.4-1.3-0.6-1.9-0.6c-0.4,0-0.8,0.1-1,0.3c-0.2,0.2-0.3,0.5-0.3,0.8
		c0,0.3,0.1,0.5,0.3,0.7s0.5,0.4,0.8,0.5s0.7,0.3,1,0.5c0.4,0.2,0.7,0.4,1,0.6c0.3,0.2,0.6,0.5,0.8,0.9
		C206.4,408.6,206.5,409.1,206.5,409.7z"/>
	<path class="st2" d="M215.3,409.7c0,0.5-0.1,1-0.3,1.4s-0.5,0.8-0.8,1.1s-0.8,0.5-1.3,0.7c-0.5,0.2-1.1,0.3-1.8,0.3
		c-0.6,0-1.2-0.1-1.8-0.2c-0.6-0.1-1.1-0.3-1.5-0.6l0.8-1.9c0.4,0.2,0.7,0.4,1.1,0.5c0.4,0.1,0.7,0.1,1,0.1c0.5,0,0.8-0.1,1.1-0.3
		c0.3-0.2,0.4-0.5,0.4-0.9c0-0.3-0.1-0.6-0.3-0.8c-0.2-0.2-0.5-0.4-0.8-0.5c-0.3-0.2-0.6-0.3-1-0.5c-0.4-0.2-0.7-0.4-1-0.6
		c-0.3-0.2-0.6-0.5-0.8-0.9c-0.2-0.4-0.3-0.8-0.3-1.4c0-0.5,0.1-1,0.3-1.4s0.5-0.8,0.8-1s0.7-0.5,1.2-0.7s1-0.2,1.5-0.2
		c0.7,0,1.3,0.1,1.8,0.2c0.5,0.1,1,0.3,1.5,0.6l-0.7,1.7c-0.6-0.4-1.3-0.6-1.9-0.6c-0.4,0-0.8,0.1-1,0.3c-0.2,0.2-0.3,0.5-0.3,0.8
		c0,0.3,0.1,0.5,0.3,0.7s0.5,0.4,0.8,0.5s0.7,0.3,1,0.5c0.4,0.2,0.7,0.4,1,0.6c0.3,0.2,0.6,0.5,0.8,0.9
		C215.2,408.6,215.3,409.1,215.3,409.7z"/>
</g>
<g>
	<path class="st2" d="M424.8,352.7l-4.6-7.8c-0.1-0.2-0.2-0.5-0.4-0.7c-0.1-0.3-0.2-0.5-0.3-0.7h0c0,0.4,0,0.7,0.1,1
		c0,0.2,0,0.4,0,0.7v7.6h-2.7V339h2.8l4.2,7.1c0.1,0.2,0.2,0.3,0.2,0.4c0.1,0.1,0.1,0.2,0.2,0.3c0,0.1,0.1,0.2,0.1,0.3
		c0.1,0.1,0.1,0.2,0.2,0.4h0c0-0.2,0-0.5-0.1-0.7c0-0.3,0-0.5,0-0.8v-7h2.7v13.8H424.8z"/>
	<path class="st2" d="M439,347v0.2c0,0.1,0,0.1,0,0.2l-6.5,0.9c0.1,0.8,0.4,1.3,0.9,1.8c0.5,0.4,1.1,0.6,1.8,0.6
		c0.5,0,1-0.1,1.5-0.2s0.9-0.3,1.2-0.4l0.7,2c-0.5,0.3-1.1,0.5-1.8,0.6c-0.7,0.1-1.4,0.2-2.2,0.2c-0.9,0-1.6-0.1-2.3-0.4
		c-0.7-0.3-1.2-0.7-1.6-1.2c-0.4-0.5-0.8-1.1-1-1.8c-0.2-0.7-0.3-1.4-0.3-2.3c0-0.8,0.1-1.6,0.3-2.3c0.2-0.7,0.5-1.3,1-1.8
		c0.4-0.5,0.9-0.9,1.6-1.1c0.6-0.3,1.3-0.4,2.1-0.4c1.5,0,2.7,0.5,3.5,1.4C438.6,344,439,345.4,439,347z M436,346.3
		c0-0.9-0.2-1.6-0.4-2s-0.7-0.7-1.3-0.7c-0.6,0-1.1,0.3-1.5,0.8c-0.3,0.6-0.5,1.3-0.5,2.2v0.3L436,346.3z"/>
	<path class="st2" d="M452.3,352.7h-2.9l-1.5-6c-0.1-0.3-0.1-0.5-0.2-0.8s-0.1-0.5-0.1-0.6h0c0,0.1,0,0.3-0.1,0.6s-0.1,0.5-0.2,0.8
		l-1.5,6H443l-3-10.8h3.2l1.2,6.3c0.1,0.3,0.1,0.6,0.1,0.9c0,0.3,0,0.5,0,0.8h0c0-0.2,0.1-0.5,0.1-0.8c0-0.3,0.1-0.6,0.2-0.9
		l1.6-6.3h2.5l1.5,6.3c0.1,0.3,0.1,0.6,0.2,0.8c0,0.2,0.1,0.5,0.1,0.8h0c0-0.3,0.1-0.6,0.1-0.8c0-0.2,0.1-0.5,0.1-0.8l1.3-6.3h2.8
		L452.3,352.7z"/>
	<path class="st2" d="M409.9,367.3c0,0.8-0.1,1.6-0.3,2.2c-0.2,0.7-0.5,1.3-0.9,1.8c-0.4,0.5-0.9,0.9-1.5,1.2
		c-0.6,0.3-1.3,0.4-2.1,0.4s-1.5-0.1-2.1-0.4c-0.6-0.3-1.1-0.7-1.5-1.2c-0.4-0.5-0.7-1.1-0.9-1.8c-0.2-0.7-0.3-1.4-0.3-2.2
		c0-0.8,0.1-1.6,0.3-2.2c0.2-0.7,0.5-1.3,0.9-1.8c0.4-0.5,0.9-0.9,1.5-1.2c0.6-0.3,1.3-0.4,2.1-0.4s1.5,0.1,2.1,0.4
		c0.6,0.3,1.1,0.7,1.5,1.2c0.4,0.5,0.7,1.1,0.9,1.8C409.8,365.8,409.9,366.5,409.9,367.3z M406.7,367.3c0-0.5,0-1-0.1-1.5
		c-0.1-0.4-0.2-0.8-0.3-1.1c-0.1-0.3-0.3-0.6-0.5-0.8c-0.2-0.2-0.5-0.3-0.8-0.3s-0.6,0.1-0.8,0.3s-0.4,0.4-0.5,0.8
		c-0.1,0.3-0.2,0.7-0.3,1.1c-0.1,0.4-0.1,0.9-0.1,1.5s0,1,0.1,1.5c0.1,0.4,0.2,0.8,0.3,1.2c0.1,0.3,0.3,0.6,0.5,0.8
		c0.2,0.2,0.5,0.3,0.8,0.3s0.6-0.1,0.8-0.3c0.2-0.2,0.4-0.4,0.5-0.8c0.1-0.3,0.2-0.7,0.3-1.2C406.7,368.3,406.7,367.8,406.7,367.3z"
		/>
	<path class="st2" d="M415.4,364v8.8h-3.1V364h-1.2v-2h1.2v-1.1c0-1.2,0.4-2.2,1-2.9c0.7-0.7,1.7-1,2.9-1c0.2,0,0.4,0,0.5,0
		c0.1,0,0.2,0,0.3,0v2c-0.1,0-0.2,0-0.2,0h-0.1c-0.5,0-0.8,0.2-1,0.5s-0.3,0.7-0.3,1.3v1.2h1.7v2H415.4z"/>
	<path class="st2" d="M422.7,364v8.8h-3.1V364h-1.2v-2h1.2v-1.1c0-1.2,0.4-2.2,1-2.9c0.7-0.7,1.7-1,2.9-1c0.2,0,0.4,0,0.5,0
		c0.1,0,0.2,0,0.3,0v2c-0.1,0-0.2,0-0.2,0h-0.1c-0.5,0-0.8,0.2-1,0.5s-0.3,0.7-0.3,1.3v1.2h1.7v2H422.7z"/>
	<path class="st2" d="M435,367v0.2c0,0.1,0,0.1,0,0.2l-6.5,0.9c0.1,0.8,0.4,1.3,0.9,1.8c0.5,0.4,1.1,0.6,1.8,0.6
		c0.5,0,1-0.1,1.5-0.2s0.9-0.3,1.2-0.4l0.7,2c-0.5,0.3-1.1,0.5-1.8,0.6c-0.7,0.1-1.4,0.2-2.2,0.2c-0.9,0-1.6-0.1-2.3-0.4
		c-0.7-0.3-1.2-0.7-1.6-1.2c-0.4-0.5-0.8-1.1-1-1.8c-0.2-0.7-0.3-1.4-0.3-2.3c0-0.8,0.1-1.6,0.3-2.3c0.2-0.7,0.5-1.3,1-1.8
		c0.4-0.5,0.9-0.9,1.6-1.1c0.6-0.3,1.3-0.4,2.1-0.4c1.5,0,2.7,0.5,3.5,1.4C434.6,364,435,365.4,435,367z M432,366.3
		c0-0.9-0.2-1.6-0.4-2s-0.7-0.7-1.3-0.7c-0.6,0-1.1,0.3-1.5,0.8c-0.3,0.6-0.5,1.3-0.5,2.2v0.3L432,366.3z"/>
	<path class="st2" d="M442.2,364c-0.2-0.1-0.4-0.2-0.6-0.2c-0.2,0-0.4-0.1-0.6-0.1c-0.4,0-0.7,0.1-0.9,0.2v8.9H437v-10.2
		c0.5-0.2,1.1-0.4,1.9-0.6c0.7-0.1,1.6-0.2,2.5-0.2c0.2,0,0.5,0,0.8,0c0.3,0,0.5,0,0.6,0.1L442.2,364z"/>
	<path class="st2" d="M447.4,358.9c0,0.4-0.2,0.8-0.5,1c-0.3,0.3-0.7,0.4-1.2,0.4s-0.9-0.1-1.2-0.4c-0.3-0.3-0.5-0.6-0.5-1
		s0.2-0.8,0.5-1c0.3-0.3,0.7-0.4,1.2-0.4s0.9,0.1,1.2,0.4C447.3,358.1,447.4,358.4,447.4,358.9z M444.2,372.7V362h3.1v10.8H444.2z"
		/>
	<path class="st2" d="M455.8,372.7v-7.3c0-0.6-0.1-1-0.4-1.3s-0.7-0.4-1.3-0.4c-0.2,0-0.5,0-0.7,0.1s-0.4,0.1-0.6,0.2v8.8h-3.1
		v-10.2c1.2-0.5,2.7-0.8,4.4-0.8s2.9,0.3,3.7,1c0.8,0.7,1.2,1.6,1.2,2.7v7.3H455.8z"/>
	<path class="st2" d="M470.4,372.6c0,1.5-0.4,2.7-1.3,3.5c-0.9,0.8-2,1.2-3.5,1.2c-0.8,0-1.6-0.1-2.3-0.2s-1.3-0.4-1.7-0.6l0.8-2
		c0.3,0.2,0.8,0.3,1.2,0.5c0.5,0.1,0.9,0.2,1.4,0.2c0.8,0,1.4-0.2,1.7-0.6c0.3-0.4,0.5-0.9,0.5-1.5v-0.5c-0.2,0.1-0.4,0.2-0.7,0.2
		c-0.3,0.1-0.7,0.1-1.1,0.1c-0.7,0-1.3-0.1-1.8-0.4c-0.5-0.2-1-0.6-1.4-1s-0.7-1-0.9-1.6c-0.2-0.6-0.3-1.4-0.3-2.2
		c0-1.8,0.5-3.3,1.5-4.3c1-1,2.4-1.5,4.2-1.5c0.7,0,1.4,0.1,2,0.2c0.7,0.1,1.2,0.3,1.7,0.6V372.6z M467.3,363.7
		c-0.3-0.1-0.6-0.2-1-0.2c-0.8,0-1.3,0.3-1.7,1c-0.4,0.6-0.5,1.6-0.5,2.8c0,1.2,0.2,2.1,0.5,2.7c0.4,0.6,0.9,0.9,1.7,0.9
		c0.2,0,0.4,0,0.6-0.1c0.2,0,0.3-0.1,0.5-0.2V363.7z"/>
	<path class="st2" d="M432.8,392.6c-0.2,0.1-0.4,0.2-0.7,0.2c-0.3,0.1-0.6,0.1-0.9,0.1c-1,0-1.8-0.3-2.4-0.8s-0.8-1.3-0.8-2.4V384
		h-1.2v-2h1.2v-2.3l3.1-0.8v3.1h1.7v2h-1.7v5.7c0,0.4,0.1,0.6,0.3,0.8c0.2,0.2,0.4,0.3,0.8,0.3c0.2,0,0.5,0,0.7-0.1V392.6z"/>
	<path class="st2" d="M443.9,387.3c0,0.8-0.1,1.6-0.3,2.2c-0.2,0.7-0.5,1.3-0.9,1.8c-0.4,0.5-0.9,0.9-1.5,1.2
		c-0.6,0.3-1.3,0.4-2.1,0.4s-1.5-0.1-2.1-0.4c-0.6-0.3-1.1-0.7-1.5-1.2c-0.4-0.5-0.7-1.1-0.9-1.8c-0.2-0.7-0.3-1.4-0.3-2.2
		c0-0.8,0.1-1.6,0.3-2.2c0.2-0.7,0.5-1.3,0.9-1.8c0.4-0.5,0.9-0.9,1.5-1.2c0.6-0.3,1.3-0.4,2.1-0.4s1.5,0.1,2.1,0.4
		c0.6,0.3,1.1,0.7,1.5,1.2c0.4,0.5,0.7,1.1,0.9,1.8C443.8,385.8,443.9,386.5,443.9,387.3z M440.7,387.3c0-0.5,0-1-0.1-1.5
		c-0.1-0.4-0.2-0.8-0.3-1.1c-0.1-0.3-0.3-0.6-0.5-0.8c-0.2-0.2-0.5-0.3-0.8-0.3s-0.6,0.1-0.8,0.3s-0.4,0.4-0.5,0.8
		c-0.1,0.3-0.2,0.7-0.3,1.1c-0.1,0.4-0.1,0.9-0.1,1.5s0,1,0.1,1.5c0.1,0.4,0.2,0.8,0.3,1.2c0.1,0.3,0.3,0.6,0.5,0.8
		c0.2,0.2,0.5,0.3,0.8,0.3s0.6-0.1,0.8-0.3c0.2-0.2,0.4-0.4,0.5-0.8c0.1-0.3,0.2-0.7,0.3-1.2C440.7,388.3,440.7,387.8,440.7,387.3z"
		/>
	<path class="st2" d="M410,407v0.2c0,0.1,0,0.1,0,0.2l-6.5,0.9c0.1,0.8,0.4,1.3,0.9,1.8c0.5,0.4,1.1,0.6,1.8,0.6
		c0.5,0,1-0.1,1.5-0.2s0.9-0.3,1.2-0.4l0.7,2c-0.5,0.3-1.1,0.5-1.8,0.6c-0.7,0.1-1.4,0.2-2.2,0.2c-0.9,0-1.6-0.1-2.3-0.4
		c-0.7-0.3-1.2-0.7-1.6-1.2c-0.4-0.5-0.8-1.1-1-1.8c-0.2-0.7-0.3-1.4-0.3-2.3c0-0.8,0.1-1.6,0.3-2.3c0.2-0.7,0.5-1.3,1-1.8
		c0.4-0.5,0.9-0.9,1.6-1.1c0.6-0.3,1.3-0.4,2.1-0.4c1.5,0,2.7,0.5,3.5,1.4C409.6,404,410,405.4,410,407z M407,406.3
		c0-0.9-0.2-1.6-0.4-2s-0.7-0.7-1.3-0.7c-0.6,0-1.1,0.3-1.5,0.8c-0.3,0.6-0.5,1.3-0.5,2.2v0.3L407,406.3z"/>
	<path class="st2" d="M417.4,412.7l-1.7-3.5h0l-1.7,3.5h-3.2l3.4-5.5L411,402h3.3l1.6,3.2h0l1.6-3.2h2.9l-3.1,5.1l3.4,5.7H417.4z"/>
	<path class="st2" d="M425.4,398.9c0,0.4-0.2,0.8-0.5,1c-0.3,0.3-0.7,0.4-1.2,0.4s-0.9-0.1-1.2-0.4c-0.3-0.3-0.5-0.6-0.5-1
		s0.2-0.8,0.5-1c0.3-0.3,0.7-0.4,1.2-0.4s0.9,0.1,1.2,0.4C425.3,398.1,425.4,398.4,425.4,398.9z M422.2,412.7V402h3.1v10.8H422.2z"
		/>
	<path class="st2" d="M434.7,409.5c0,0.5-0.1,1-0.3,1.4s-0.5,0.8-0.8,1.1s-0.8,0.5-1.3,0.7c-0.5,0.2-1.1,0.3-1.8,0.3
		c-0.6,0-1.2-0.1-1.8-0.2c-0.6-0.1-1.1-0.3-1.5-0.6l0.8-1.9c0.4,0.2,0.7,0.4,1.1,0.5c0.4,0.1,0.7,0.1,1,0.1c0.5,0,0.8-0.1,1.1-0.3
		c0.3-0.2,0.4-0.5,0.4-0.9c0-0.3-0.1-0.6-0.3-0.8c-0.2-0.2-0.5-0.4-0.8-0.5c-0.3-0.2-0.6-0.3-1-0.5c-0.4-0.2-0.7-0.4-1-0.6
		c-0.3-0.2-0.6-0.5-0.8-0.9c-0.2-0.4-0.3-0.8-0.3-1.4c0-0.5,0.1-1,0.3-1.4s0.5-0.8,0.8-1s0.7-0.5,1.2-0.7s1-0.2,1.5-0.2
		c0.7,0,1.3,0.1,1.8,0.2c0.5,0.1,1,0.3,1.5,0.6l-0.7,1.7c-0.6-0.4-1.3-0.6-1.9-0.6c-0.4,0-0.8,0.1-1,0.3c-0.2,0.2-0.3,0.5-0.3,0.8
		c0,0.3,0.1,0.5,0.3,0.7s0.5,0.4,0.8,0.5s0.7,0.3,1,0.5c0.4,0.2,0.7,0.4,1,0.6c0.3,0.2,0.6,0.5,0.8,0.9
		C434.6,408.4,434.7,408.9,434.7,409.5z"/>
	<path class="st2" d="M442,412.6c-0.2,0.1-0.4,0.2-0.7,0.2c-0.3,0.1-0.6,0.1-0.9,0.1c-1,0-1.8-0.3-2.4-0.8s-0.8-1.3-0.8-2.4V404
		h-1.2v-2h1.2v-2.3l3.1-0.8v3.1h1.7v2h-1.7v5.7c0,0.4,0.1,0.6,0.3,0.8c0.2,0.2,0.4,0.3,0.8,0.3c0.2,0,0.5,0,0.7-0.1V412.6z"/>
	<path class="st2" d="M447.2,398.9c0,0.4-0.2,0.8-0.5,1c-0.3,0.3-0.7,0.4-1.2,0.4s-0.9-0.1-1.2-0.4c-0.3-0.3-0.5-0.6-0.5-1
		s0.2-0.8,0.5-1c0.3-0.3,0.7-0.4,1.2-0.4s0.9,0.1,1.2,0.4C447,398.1,447.2,398.4,447.2,398.9z M443.9,412.7V402h3.1v10.8H443.9z"/>
	<path class="st2" d="M455.6,412.7v-7.3c0-0.6-0.1-1-0.4-1.3s-0.7-0.4-1.3-0.4c-0.2,0-0.5,0-0.7,0.1s-0.4,0.1-0.6,0.2v8.8h-3.1
		v-10.2c1.2-0.5,2.7-0.8,4.4-0.8s2.9,0.3,3.7,1c0.8,0.7,1.2,1.6,1.2,2.7v7.3H455.6z"/>
	<path class="st2" d="M470.1,412.6c0,1.5-0.4,2.7-1.3,3.5c-0.9,0.8-2,1.2-3.5,1.2c-0.8,0-1.6-0.1-2.3-0.2s-1.3-0.4-1.7-0.6l0.8-2
		c0.3,0.2,0.8,0.3,1.2,0.5c0.5,0.1,0.9,0.2,1.4,0.2c0.8,0,1.4-0.2,1.7-0.6c0.3-0.4,0.5-0.9,0.5-1.5v-0.5c-0.2,0.1-0.4,0.2-0.7,0.2
		c-0.3,0.1-0.7,0.1-1.1,0.1c-0.7,0-1.3-0.1-1.8-0.4c-0.5-0.2-1-0.6-1.4-1s-0.7-1-0.9-1.6c-0.2-0.6-0.3-1.4-0.3-2.2
		c0-1.8,0.5-3.3,1.5-4.3c1-1,2.4-1.5,4.2-1.5c0.7,0,1.4,0.1,2,0.2c0.7,0.1,1.2,0.3,1.7,0.6V412.6z M467,403.7
		c-0.3-0.1-0.6-0.2-1-0.2c-0.8,0-1.3,0.3-1.7,1c-0.4,0.6-0.5,1.6-0.5,2.8c0,1.2,0.2,2.1,0.5,2.7c0.4,0.6,0.9,0.9,1.7,0.9
		c0.2,0,0.4,0,0.6-0.1c0.2,0,0.3-0.1,0.5-0.2V403.7z"/>
	<path class="st2" d="M412,432.7v-7.3c0-0.5-0.1-1-0.4-1.3c-0.2-0.3-0.7-0.5-1.2-0.5c-0.5,0-1,0.2-1.3,0.6v8.5H406v-7.5
		c0-0.5-0.1-0.9-0.4-1.2c-0.3-0.3-0.7-0.4-1.3-0.4c-0.3,0-0.5,0-0.7,0.1c-0.2,0-0.4,0.1-0.6,0.2v8.8h-3v-10.2
		c0.6-0.3,1.3-0.5,1.9-0.6c0.7-0.1,1.4-0.2,2.2-0.2c0.8,0,1.5,0.1,2,0.3c0.5,0.2,1,0.4,1.4,0.8c0.4-0.3,0.9-0.6,1.5-0.8
		c0.6-0.2,1.2-0.3,1.9-0.3c0.7,0,1.4,0.1,1.9,0.3c0.5,0.2,1,0.4,1.3,0.8c0.3,0.3,0.6,0.7,0.8,1.2c0.2,0.4,0.2,0.9,0.2,1.5v7.3H412z"
		/>
	<path class="st2" d="M425.9,432.2c-0.5,0.2-1.1,0.4-1.8,0.6c-0.7,0.1-1.5,0.2-2.4,0.2c-1.5,0-2.7-0.3-3.5-0.9
		c-0.8-0.6-1.2-1.4-1.2-2.6c0-0.7,0.2-1.2,0.5-1.7c0.3-0.5,0.8-0.8,1.3-1.1c0.5-0.3,1.2-0.5,1.9-0.7c0.7-0.2,1.5-0.3,2.3-0.4v-0.5
		c0-0.5-0.2-0.9-0.5-1.1c-0.3-0.2-0.8-0.4-1.4-0.4c-0.5,0-1,0.1-1.5,0.2c-0.5,0.1-1,0.3-1.3,0.5l-0.7-1.8c0.5-0.2,1.2-0.4,1.9-0.6
		c0.7-0.2,1.4-0.2,2.1-0.2c0.7,0,1.2,0.1,1.8,0.2c0.5,0.1,1,0.4,1.4,0.7s0.7,0.7,0.9,1.2c0.2,0.5,0.3,1.1,0.3,1.8V432.2z M423,427.2
		c-1,0.1-1.8,0.3-2.3,0.7c-0.5,0.3-0.8,0.9-0.8,1.6c0,0.6,0.2,1,0.5,1.3c0.3,0.3,0.8,0.5,1.5,0.5c0.5,0,0.9-0.1,1.1-0.2V427.2z"/>
	<path class="st2" d="M433.5,424c-0.2-0.1-0.4-0.2-0.6-0.2c-0.2,0-0.4-0.1-0.6-0.1c-0.4,0-0.7,0.1-0.9,0.2v8.9h-3.1v-10.2
		c0.5-0.2,1.1-0.4,1.9-0.6c0.7-0.1,1.6-0.2,2.5-0.2c0.2,0,0.5,0,0.8,0c0.3,0,0.5,0,0.6,0.1L433.5,424z"/>
	<path class="st2" d="M441.8,432.7l-3.2-5.3h0v5.3h-3.1V417h3.1v9.9h0l3.1-4.9h3.3l-3.6,5.1l4,5.7H441.8z"/>
	<path class="st2" d="M455.2,427v0.2c0,0.1,0,0.1,0,0.2l-6.5,0.9c0.1,0.8,0.4,1.3,0.9,1.8c0.5,0.4,1.1,0.6,1.8,0.6
		c0.5,0,1-0.1,1.5-0.2s0.9-0.3,1.2-0.4l0.7,2c-0.5,0.3-1.1,0.5-1.8,0.6c-0.7,0.1-1.4,0.2-2.2,0.2c-0.9,0-1.6-0.1-2.3-0.4
		c-0.7-0.3-1.2-0.7-1.6-1.2c-0.4-0.5-0.8-1.1-1-1.8c-0.2-0.7-0.3-1.4-0.3-2.3c0-0.8,0.1-1.6,0.3-2.3c0.2-0.7,0.5-1.3,1-1.8
		c0.4-0.5,0.9-0.9,1.6-1.1c0.6-0.3,1.3-0.4,2.1-0.4c1.5,0,2.7,0.5,3.5,1.4C454.8,424,455.2,425.4,455.2,427z M452.3,426.3
		c0-0.9-0.2-1.6-0.4-2s-0.7-0.7-1.3-0.7c-0.6,0-1.1,0.3-1.5,0.8c-0.3,0.6-0.5,1.3-0.5,2.2v0.3L452.3,426.3z"/>
	<path class="st2" d="M462.5,432.6c-0.2,0.1-0.4,0.2-0.7,0.2c-0.3,0.1-0.6,0.1-0.9,0.1c-1,0-1.8-0.3-2.4-0.8s-0.8-1.3-0.8-2.4V424
		h-1.2v-2h1.2v-2.3l3.1-0.8v3.1h1.7v2h-1.7v5.7c0,0.4,0.1,0.6,0.3,0.8c0.2,0.2,0.4,0.3,0.8,0.3c0.2,0,0.5,0,0.7-0.1V432.6z"/>
	<path class="st2" d="M471.4,429.5c0,0.5-0.1,1-0.3,1.4s-0.5,0.8-0.8,1.1s-0.8,0.5-1.3,0.7c-0.5,0.2-1.1,0.3-1.8,0.3
		c-0.6,0-1.2-0.1-1.8-0.2c-0.6-0.1-1.1-0.3-1.5-0.6l0.8-1.9c0.4,0.2,0.7,0.4,1.1,0.5c0.4,0.1,0.7,0.1,1,0.1c0.5,0,0.8-0.1,1.1-0.3
		c0.3-0.2,0.4-0.5,0.4-0.9c0-0.3-0.1-0.6-0.3-0.8c-0.2-0.2-0.5-0.4-0.8-0.5c-0.3-0.2-0.6-0.3-1-0.5c-0.4-0.2-0.7-0.4-1-0.6
		c-0.3-0.2-0.6-0.5-0.8-0.9c-0.2-0.4-0.3-0.8-0.3-1.4c0-0.5,0.1-1,0.3-1.4s0.5-0.8,0.8-1s0.7-0.5,1.2-0.7s1-0.2,1.5-0.2
		c0.7,0,1.3,0.1,1.8,0.2c0.5,0.1,1,0.3,1.5,0.6l-0.7,1.7c-0.6-0.4-1.3-0.6-1.9-0.6c-0.4,0-0.8,0.1-1,0.3c-0.2,0.2-0.3,0.5-0.3,0.8
		c0,0.3,0.1,0.5,0.3,0.7s0.5,0.4,0.8,0.5s0.7,0.3,1,0.5c0.4,0.2,0.7,0.4,1,0.6c0.3,0.2,0.6,0.5,0.8,0.9
		C471.3,428.4,471.4,428.9,471.4,429.5z"/>
</g>
<g>
	<path class="st2" d="M143.4,102.8V89h7v2.2h-3.8v3.5h3.3v2.1h-3.3v3.8h3.8v2.2H143.4z"/>
	<path class="st2" d="M158.2,102.8l-1.7-3.5h0l-1.7,3.5h-3.2l3.4-5.5l-3.1-5.3h3.3l1.6,3.2h0l1.6-3.2h2.9l-3.1,5.1l3.4,5.7H158.2z"
		/>
	<path class="st2" d="M166.3,88.9c0,0.4-0.2,0.8-0.5,1c-0.3,0.3-0.7,0.4-1.2,0.4s-0.9-0.1-1.2-0.4c-0.3-0.3-0.5-0.6-0.5-1
		s0.2-0.8,0.5-1c0.3-0.3,0.7-0.4,1.2-0.4s0.9,0.1,1.2,0.4C166.1,88.2,166.3,88.5,166.3,88.9z M163,102.8V92h3.1v10.8H163z"/>
	<path class="st2" d="M175.6,99.5c0,0.5-0.1,1-0.3,1.4s-0.5,0.8-0.8,1.1s-0.8,0.5-1.3,0.7c-0.5,0.2-1.1,0.3-1.8,0.3
		c-0.6,0-1.2-0.1-1.8-0.2c-0.6-0.1-1.1-0.3-1.5-0.6l0.8-1.9c0.4,0.2,0.7,0.4,1.1,0.5c0.4,0.1,0.7,0.1,1,0.1c0.5,0,0.8-0.1,1.1-0.3
		c0.3-0.2,0.4-0.5,0.4-0.9c0-0.3-0.1-0.6-0.3-0.8c-0.2-0.2-0.5-0.4-0.8-0.5c-0.3-0.2-0.6-0.3-1-0.5c-0.4-0.2-0.7-0.4-1-0.6
		c-0.3-0.2-0.6-0.5-0.8-0.9c-0.2-0.4-0.3-0.8-0.3-1.4c0-0.5,0.1-1,0.3-1.4s0.5-0.8,0.8-1s0.7-0.5,1.2-0.7s1-0.2,1.5-0.2
		c0.7,0,1.3,0.1,1.8,0.2c0.5,0.1,1,0.3,1.5,0.6l-0.7,1.7c-0.6-0.4-1.3-0.6-1.9-0.6c-0.4,0-0.8,0.1-1,0.3c-0.2,0.2-0.3,0.5-0.3,0.8
		c0,0.3,0.1,0.5,0.3,0.7s0.5,0.4,0.8,0.5s0.7,0.3,1,0.5c0.4,0.2,0.7,0.4,1,0.6c0.3,0.2,0.6,0.5,0.8,0.9
		C175.5,98.5,175.6,98.9,175.6,99.5z"/>
	<path class="st2" d="M182.9,102.7c-0.2,0.1-0.4,0.2-0.7,0.2c-0.3,0.1-0.6,0.1-0.9,0.1c-1,0-1.8-0.3-2.4-0.8s-0.8-1.3-0.8-2.4V94
		h-1.2v-2h1.2v-2.3l3.1-0.8V92h1.7v2h-1.7v5.7c0,0.4,0.1,0.6,0.3,0.8c0.2,0.2,0.4,0.3,0.8,0.3c0.2,0,0.5,0,0.7-0.1V102.7z"/>
	<path class="st2" d="M188,88.9c0,0.4-0.2,0.8-0.5,1c-0.3,0.3-0.7,0.4-1.2,0.4s-0.9-0.1-1.2-0.4c-0.3-0.3-0.5-0.6-0.5-1
		s0.2-0.8,0.5-1c0.3-0.3,0.7-0.4,1.2-0.4s0.9,0.1,1.2,0.4C187.8,88.2,188,88.5,188,88.9z M184.8,102.8V92h3.1v10.8H184.8z"/>
	<path class="st2" d="M196.4,102.8v-7.3c0-0.6-0.1-1-0.4-1.3s-0.7-0.4-1.3-0.4c-0.2,0-0.5,0-0.7,0.1s-0.4,0.1-0.6,0.2v8.8h-3.1V92.6
		c1.2-0.5,2.7-0.8,4.4-0.8s2.9,0.3,3.7,1c0.8,0.7,1.2,1.6,1.2,2.7v7.3H196.4z"/>
	<path class="st2" d="M210.9,102.7c0,1.5-0.4,2.7-1.3,3.5c-0.9,0.8-2,1.2-3.5,1.2c-0.8,0-1.6-0.1-2.3-0.2s-1.3-0.4-1.7-0.6l0.8-2
		c0.3,0.2,0.8,0.3,1.2,0.5c0.5,0.1,0.9,0.2,1.4,0.2c0.8,0,1.4-0.2,1.7-0.6c0.3-0.4,0.5-0.9,0.5-1.5v-0.5c-0.2,0.1-0.4,0.2-0.7,0.2
		c-0.3,0.1-0.7,0.1-1.1,0.1c-0.7,0-1.3-0.1-1.8-0.4c-0.5-0.2-1-0.6-1.4-1s-0.7-1-0.9-1.6c-0.2-0.6-0.3-1.4-0.3-2.2
		c0-1.8,0.5-3.3,1.5-4.3c1-1,2.4-1.5,4.2-1.5c0.7,0,1.4,0.1,2,0.2c0.7,0.1,1.2,0.3,1.7,0.6V102.7z M207.8,93.8
		c-0.3-0.1-0.6-0.2-1-0.2c-0.8,0-1.3,0.3-1.7,1c-0.4,0.6-0.5,1.6-0.5,2.8c0,1.2,0.2,2.1,0.5,2.7c0.4,0.6,0.9,0.9,1.7,0.9
		c0.2,0,0.4,0,0.6-0.1c0.2,0,0.3-0.1,0.5-0.2V93.8z"/>
	<path class="st2" d="M147.1,117.4c0,0.8-0.1,1.6-0.3,2.2c-0.2,0.7-0.5,1.3-0.9,1.8c-0.4,0.5-0.9,0.9-1.5,1.2
		c-0.6,0.3-1.3,0.4-2.1,0.4s-1.5-0.1-2.1-0.4c-0.6-0.3-1.1-0.7-1.5-1.2c-0.4-0.5-0.7-1.1-0.9-1.8c-0.2-0.7-0.3-1.4-0.3-2.2
		c0-0.8,0.1-1.6,0.3-2.2c0.2-0.7,0.5-1.3,0.9-1.8c0.4-0.5,0.9-0.9,1.5-1.2c0.6-0.3,1.3-0.4,2.1-0.4s1.5,0.1,2.1,0.4
		c0.6,0.3,1.1,0.7,1.5,1.2c0.4,0.5,0.7,1.1,0.9,1.8C147,115.8,147.1,116.6,147.1,117.4z M144,117.3c0-0.5,0-1-0.1-1.5
		c-0.1-0.4-0.2-0.8-0.3-1.1c-0.1-0.3-0.3-0.6-0.5-0.8c-0.2-0.2-0.5-0.3-0.8-0.3s-0.6,0.1-0.8,0.3s-0.4,0.4-0.5,0.8
		c-0.1,0.3-0.2,0.7-0.3,1.1c-0.1,0.4-0.1,0.9-0.1,1.5s0,1,0.1,1.5c0.1,0.4,0.2,0.8,0.3,1.2c0.1,0.3,0.3,0.6,0.5,0.8
		c0.2,0.2,0.5,0.3,0.8,0.3s0.6-0.1,0.8-0.3c0.2-0.2,0.4-0.4,0.5-0.8c0.1-0.3,0.2-0.7,0.3-1.2C143.9,118.3,144,117.9,144,117.3z"/>
	<path class="st2" d="M152.6,114v8.8h-3.1V114h-1.2v-2h1.2v-1.1c0-1.2,0.4-2.2,1-2.9c0.7-0.7,1.7-1,2.9-1c0.2,0,0.4,0,0.5,0
		c0.1,0,0.2,0,0.3,0v2c-0.1,0-0.2,0-0.2,0H154c-0.5,0-0.8,0.2-1,0.5s-0.3,0.7-0.3,1.3v1.2h1.7v2H152.6z"/>
	<path class="st2" d="M159.9,114v8.8h-3.1V114h-1.2v-2h1.2v-1.1c0-1.2,0.4-2.2,1-2.9c0.7-0.7,1.7-1,2.9-1c0.2,0,0.4,0,0.5,0
		c0.1,0,0.2,0,0.3,0v2c-0.1,0-0.2,0-0.2,0h-0.1c-0.5,0-0.8,0.2-1,0.5s-0.3,0.7-0.3,1.3v1.2h1.7v2H159.9z"/>
	<path class="st2" d="M172.2,117.1v0.2c0,0.1,0,0.1,0,0.2l-6.5,0.9c0.1,0.8,0.4,1.3,0.9,1.8c0.5,0.4,1.1,0.6,1.8,0.6
		c0.5,0,1-0.1,1.5-0.2s0.9-0.3,1.2-0.4l0.7,2c-0.5,0.3-1.1,0.5-1.8,0.6c-0.7,0.1-1.4,0.2-2.2,0.2c-0.9,0-1.6-0.1-2.3-0.4
		c-0.7-0.3-1.2-0.7-1.6-1.2c-0.4-0.5-0.8-1.1-1-1.8c-0.2-0.7-0.3-1.4-0.3-2.3c0-0.8,0.1-1.6,0.3-2.3c0.2-0.7,0.5-1.3,1-1.8
		c0.4-0.5,0.9-0.9,1.6-1.1c0.6-0.3,1.3-0.4,2.1-0.4c1.5,0,2.7,0.5,3.5,1.4C171.8,114.1,172.2,115.4,172.2,117.1z M169.2,116.4
		c0-0.9-0.2-1.6-0.4-2s-0.7-0.7-1.3-0.7c-0.6,0-1.1,0.3-1.5,0.8c-0.3,0.6-0.5,1.3-0.5,2.2v0.3L169.2,116.4z"/>
	<path class="st2" d="M179.4,114c-0.2-0.1-0.4-0.2-0.6-0.2c-0.2,0-0.4-0.1-0.6-0.1c-0.4,0-0.7,0.1-0.9,0.2v8.9h-3.1v-10.2
		c0.5-0.2,1.1-0.4,1.9-0.6c0.7-0.1,1.6-0.2,2.5-0.2c0.2,0,0.5,0,0.8,0c0.3,0,0.5,0,0.6,0.1L179.4,114z"/>
	<path class="st2" d="M184.6,108.9c0,0.4-0.2,0.8-0.5,1c-0.3,0.3-0.7,0.4-1.2,0.4s-0.9-0.1-1.2-0.4c-0.3-0.3-0.5-0.6-0.5-1
		s0.2-0.8,0.5-1c0.3-0.3,0.7-0.4,1.2-0.4s0.9,0.1,1.2,0.4C184.5,108.2,184.6,108.5,184.6,108.9z M181.4,122.8V112h3.1v10.8H181.4z"
		/>
	<path class="st2" d="M193.1,122.8v-7.3c0-0.6-0.1-1-0.4-1.3s-0.7-0.4-1.3-0.4c-0.2,0-0.5,0-0.7,0.1s-0.4,0.1-0.6,0.2v8.8H187v-10.2
		c1.2-0.5,2.7-0.8,4.4-0.8s2.9,0.3,3.7,1c0.8,0.7,1.2,1.6,1.2,2.7v7.3H193.1z"/>
	<path class="st2" d="M207.6,122.7c0,1.5-0.4,2.7-1.3,3.5c-0.9,0.8-2,1.2-3.5,1.2c-0.8,0-1.6-0.1-2.3-0.2s-1.3-0.4-1.7-0.6l0.8-2
		c0.3,0.2,0.8,0.3,1.2,0.5c0.5,0.1,0.9,0.2,1.4,0.2c0.8,0,1.4-0.2,1.7-0.6c0.3-0.4,0.5-0.9,0.5-1.5v-0.5c-0.2,0.1-0.4,0.2-0.7,0.2
		c-0.3,0.1-0.7,0.1-1.1,0.1c-0.7,0-1.3-0.1-1.8-0.4c-0.5-0.2-1-0.6-1.4-1s-0.7-1-0.9-1.6c-0.2-0.6-0.3-1.4-0.3-2.2
		c0-1.8,0.5-3.3,1.5-4.3c1-1,2.4-1.5,4.2-1.5c0.7,0,1.4,0.1,2,0.2c0.7,0.1,1.2,0.3,1.7,0.6V122.7z M204.5,113.8
		c-0.3-0.1-0.6-0.2-1-0.2c-0.8,0-1.3,0.3-1.7,1c-0.4,0.6-0.5,1.6-0.5,2.8c0,1.2,0.2,2.1,0.5,2.7c0.4,0.6,0.9,0.9,1.7,0.9
		c0.2,0,0.4,0,0.6-0.1c0.2,0,0.3-0.1,0.5-0.2V113.8z"/>
	<path class="st2" d="M216.9,119.5c0,0.5-0.1,1-0.3,1.4s-0.5,0.8-0.8,1.1s-0.8,0.5-1.3,0.7c-0.5,0.2-1.1,0.3-1.8,0.3
		c-0.6,0-1.2-0.1-1.8-0.2c-0.6-0.1-1.1-0.3-1.5-0.6l0.8-1.9c0.4,0.2,0.7,0.4,1.1,0.5c0.4,0.1,0.7,0.1,1,0.1c0.5,0,0.8-0.1,1.1-0.3
		c0.3-0.2,0.4-0.5,0.4-0.9c0-0.3-0.1-0.6-0.3-0.8c-0.2-0.2-0.5-0.4-0.8-0.5c-0.3-0.2-0.6-0.3-1-0.5c-0.4-0.2-0.7-0.4-1-0.6
		c-0.3-0.2-0.6-0.5-0.8-0.9c-0.2-0.4-0.3-0.8-0.3-1.4c0-0.5,0.1-1,0.3-1.4s0.5-0.8,0.8-1s0.7-0.5,1.2-0.7s1-0.2,1.5-0.2
		c0.7,0,1.3,0.1,1.8,0.2c0.5,0.1,1,0.3,1.5,0.6l-0.7,1.7c-0.6-0.4-1.3-0.6-1.9-0.6c-0.4,0-0.8,0.1-1,0.3c-0.2,0.2-0.3,0.5-0.3,0.8
		c0,0.3,0.1,0.5,0.3,0.7s0.5,0.4,0.8,0.5s0.7,0.3,1,0.5c0.4,0.2,0.7,0.4,1,0.6c0.3,0.2,0.6,0.5,0.8,0.9
		C216.8,118.5,216.9,118.9,216.9,119.5z"/>
	<path class="st2" d="M152.7,142.7c-0.2,0.1-0.4,0.2-0.7,0.2c-0.3,0.1-0.6,0.1-0.9,0.1c-1,0-1.8-0.3-2.4-0.8s-0.8-1.3-0.8-2.4V134
		h-1.2v-2h1.2v-2.3l3.1-0.8v3.1h1.7v2H151v5.7c0,0.4,0.1,0.6,0.3,0.8c0.2,0.2,0.4,0.3,0.8,0.3c0.2,0,0.5,0,0.7-0.1V142.7z"/>
	<path class="st2" d="M163.7,137.4c0,0.8-0.1,1.6-0.3,2.2c-0.2,0.7-0.5,1.3-0.9,1.8c-0.4,0.5-0.9,0.9-1.5,1.2
		c-0.6,0.3-1.3,0.4-2.1,0.4s-1.5-0.1-2.1-0.4c-0.6-0.3-1.1-0.7-1.5-1.2c-0.4-0.5-0.7-1.1-0.9-1.8c-0.2-0.7-0.3-1.4-0.3-2.2
		c0-0.8,0.1-1.6,0.3-2.2c0.2-0.7,0.5-1.3,0.9-1.8c0.4-0.5,0.9-0.9,1.5-1.2c0.6-0.3,1.3-0.4,2.1-0.4s1.5,0.1,2.1,0.4
		c0.6,0.3,1.1,0.7,1.5,1.2c0.4,0.5,0.7,1.1,0.9,1.8C163.6,135.8,163.7,136.6,163.7,137.4z M160.6,137.3c0-0.5,0-1-0.1-1.5
		c-0.1-0.4-0.2-0.8-0.3-1.1c-0.1-0.3-0.3-0.6-0.5-0.8c-0.2-0.2-0.5-0.3-0.8-0.3s-0.6,0.1-0.8,0.3s-0.4,0.4-0.5,0.8
		c-0.1,0.3-0.2,0.7-0.3,1.1c-0.1,0.4-0.1,0.9-0.1,1.5s0,1,0.1,1.5c0.1,0.4,0.2,0.8,0.3,1.2c0.1,0.3,0.3,0.6,0.5,0.8
		c0.2,0.2,0.5,0.3,0.8,0.3s0.6-0.1,0.8-0.3c0.2-0.2,0.4-0.4,0.5-0.8c0.1-0.3,0.2-0.7,0.3-1.2C160.5,138.3,160.6,137.9,160.6,137.3z"
		/>
	<path class="st2" d="M177.1,142.8v-7.3c0-0.6-0.1-1-0.4-1.3s-0.7-0.4-1.3-0.4c-0.2,0-0.5,0-0.7,0.1s-0.4,0.1-0.6,0.2v8.8H171v-10.2
		c1.2-0.5,2.7-0.8,4.4-0.8s2.9,0.3,3.7,1c0.8,0.7,1.2,1.6,1.2,2.7v7.3H177.1z"/>
	<path class="st2" d="M191.8,137.1v0.2c0,0.1,0,0.1,0,0.2l-6.5,0.9c0.1,0.8,0.4,1.3,0.9,1.8c0.5,0.4,1.1,0.6,1.8,0.6
		c0.5,0,1-0.1,1.5-0.2s0.9-0.3,1.2-0.4l0.7,2c-0.5,0.3-1.1,0.5-1.8,0.6c-0.7,0.1-1.4,0.2-2.2,0.2c-0.9,0-1.6-0.1-2.3-0.4
		c-0.7-0.3-1.2-0.7-1.6-1.2c-0.4-0.5-0.8-1.1-1-1.8c-0.2-0.7-0.3-1.4-0.3-2.3c0-0.8,0.1-1.6,0.3-2.3c0.2-0.7,0.5-1.3,1-1.8
		c0.4-0.5,0.9-0.9,1.6-1.1c0.6-0.3,1.3-0.4,2.1-0.4c1.5,0,2.7,0.5,3.5,1.4C191.4,134.1,191.8,135.4,191.8,137.1z M188.8,136.4
		c0-0.9-0.2-1.6-0.4-2s-0.7-0.7-1.3-0.7c-0.6,0-1.1,0.3-1.5,0.8c-0.3,0.6-0.5,1.3-0.5,2.2v0.3L188.8,136.4z"/>
	<path class="st2" d="M205.1,142.8h-2.9l-1.5-6c-0.1-0.3-0.1-0.5-0.2-0.8s-0.1-0.5-0.1-0.6h0c0,0.1,0,0.3-0.1,0.6s-0.1,0.5-0.2,0.8
		l-1.5,6h-2.9l-3-10.8h3.2l1.2,6.3c0.1,0.3,0.1,0.6,0.1,0.9c0,0.3,0,0.5,0,0.8h0c0-0.2,0.1-0.5,0.1-0.8c0-0.3,0.1-0.6,0.2-0.9
		l1.6-6.3h2.5l1.5,6.3c0.1,0.3,0.1,0.6,0.2,0.8c0,0.2,0.1,0.5,0.1,0.8h0c0-0.3,0.1-0.6,0.1-0.8c0-0.2,0.1-0.5,0.1-0.8l1.3-6.3h2.8
		L205.1,142.8z"/>
	<path class="st2" d="M153.7,162.8v-7.3c0-0.5-0.1-1-0.4-1.3c-0.2-0.3-0.7-0.5-1.2-0.5c-0.5,0-1,0.2-1.3,0.6v8.5h-3.1v-7.5
		c0-0.5-0.1-0.9-0.4-1.2c-0.3-0.3-0.7-0.4-1.3-0.4c-0.3,0-0.5,0-0.7,0.1c-0.2,0-0.4,0.1-0.6,0.2v8.8h-3v-10.2
		c0.6-0.3,1.3-0.5,1.9-0.6c0.7-0.1,1.4-0.2,2.2-0.2c0.8,0,1.5,0.1,2,0.3c0.5,0.2,1,0.4,1.4,0.8c0.4-0.3,0.9-0.6,1.5-0.8
		c0.6-0.2,1.2-0.3,1.9-0.3c0.7,0,1.4,0.1,1.9,0.3c0.5,0.2,1,0.4,1.3,0.8c0.3,0.3,0.6,0.7,0.8,1.2c0.2,0.4,0.2,0.9,0.2,1.5v7.3H153.7
		z"/>
	<path class="st2" d="M167.6,162.2c-0.5,0.2-1.1,0.4-1.8,0.6c-0.7,0.1-1.5,0.2-2.4,0.2c-1.5,0-2.7-0.3-3.5-0.9
		c-0.8-0.6-1.2-1.4-1.2-2.6c0-0.7,0.2-1.2,0.5-1.7c0.3-0.5,0.8-0.8,1.3-1.1c0.5-0.3,1.2-0.5,1.9-0.7c0.7-0.2,1.5-0.3,2.3-0.4v-0.5
		c0-0.5-0.2-0.9-0.5-1.1c-0.3-0.2-0.8-0.4-1.4-0.4c-0.5,0-1,0.1-1.5,0.2c-0.5,0.1-1,0.3-1.3,0.5l-0.7-1.8c0.5-0.2,1.2-0.4,1.9-0.6
		c0.7-0.2,1.4-0.2,2.1-0.2c0.7,0,1.2,0.1,1.8,0.2c0.5,0.1,1,0.4,1.4,0.7s0.7,0.7,0.9,1.2c0.2,0.5,0.3,1.1,0.3,1.8V162.2z
		 M164.7,157.2c-1,0.1-1.8,0.3-2.3,0.7c-0.5,0.3-0.8,0.9-0.8,1.6c0,0.6,0.2,1,0.5,1.3c0.3,0.3,0.8,0.5,1.5,0.5
		c0.5,0,0.9-0.1,1.1-0.2V157.2z"/>
	<path class="st2" d="M175.1,154c-0.2-0.1-0.4-0.2-0.6-0.2c-0.2,0-0.4-0.1-0.6-0.1c-0.4,0-0.7,0.1-0.9,0.2v8.9h-3.1v-10.2
		c0.5-0.2,1.1-0.4,1.9-0.6c0.7-0.1,1.6-0.2,2.5-0.2c0.2,0,0.5,0,0.8,0c0.3,0,0.5,0,0.6,0.1L175.1,154z"/>
	<path class="st2" d="M183.5,162.8l-3.2-5.3h0v5.3h-3.1v-15.7h3.1v9.9h0l3.1-4.9h3.3l-3.6,5.1l4,5.7H183.5z"/>
	<path class="st2" d="M196.9,157.1v0.2c0,0.1,0,0.1,0,0.2l-6.5,0.9c0.1,0.8,0.4,1.3,0.9,1.8c0.5,0.4,1.1,0.6,1.8,0.6
		c0.5,0,1-0.1,1.5-0.2s0.9-0.3,1.2-0.4l0.7,2c-0.5,0.3-1.1,0.5-1.8,0.6c-0.7,0.1-1.4,0.2-2.2,0.2c-0.9,0-1.6-0.1-2.3-0.4
		c-0.7-0.3-1.2-0.7-1.6-1.2c-0.4-0.5-0.8-1.1-1-1.8c-0.2-0.7-0.3-1.4-0.3-2.3c0-0.8,0.1-1.6,0.3-2.3c0.2-0.7,0.5-1.3,1-1.8
		c0.4-0.5,0.9-0.9,1.6-1.1c0.6-0.3,1.3-0.4,2.1-0.4c1.5,0,2.7,0.5,3.5,1.4C196.5,154.1,196.9,155.4,196.9,157.1z M193.9,156.4
		c0-0.9-0.2-1.6-0.4-2s-0.7-0.7-1.3-0.7c-0.6,0-1.1,0.3-1.5,0.8c-0.3,0.6-0.5,1.3-0.5,2.2v0.3L193.9,156.4z"/>
	<path class="st2" d="M204.2,162.7c-0.2,0.1-0.4,0.2-0.7,0.2c-0.3,0.1-0.6,0.1-0.9,0.1c-1,0-1.8-0.3-2.4-0.8s-0.8-1.3-0.8-2.4V154
		h-1.2v-2h1.2v-2.3l3.1-0.8v3.1h1.7v2h-1.7v5.7c0,0.4,0.1,0.6,0.3,0.8c0.2,0.2,0.4,0.3,0.8,0.3c0.2,0,0.5,0,0.7-0.1V162.7z"/>
	<path class="st2" d="M213,159.5c0,0.5-0.1,1-0.3,1.4s-0.5,0.8-0.8,1.1s-0.8,0.5-1.3,0.7c-0.5,0.2-1.1,0.3-1.8,0.3
		c-0.6,0-1.2-0.1-1.8-0.2c-0.6-0.1-1.1-0.3-1.5-0.6l0.8-1.9c0.4,0.2,0.7,0.4,1.1,0.5c0.4,0.1,0.7,0.1,1,0.1c0.5,0,0.8-0.1,1.1-0.3
		c0.3-0.2,0.4-0.5,0.4-0.9c0-0.3-0.1-0.6-0.3-0.8c-0.2-0.2-0.5-0.4-0.8-0.5c-0.3-0.2-0.6-0.3-1-0.5c-0.4-0.2-0.7-0.4-1-0.6
		c-0.3-0.2-0.6-0.5-0.8-0.9c-0.2-0.4-0.3-0.8-0.3-1.4c0-0.5,0.1-1,0.3-1.4s0.5-0.8,0.8-1s0.7-0.5,1.2-0.7s1-0.2,1.5-0.2
		c0.7,0,1.3,0.1,1.8,0.2c0.5,0.1,1,0.3,1.5,0.6l-0.7,1.7c-0.6-0.4-1.3-0.6-1.9-0.6c-0.4,0-0.8,0.1-1,0.3c-0.2,0.2-0.3,0.5-0.3,0.8
		c0,0.3,0.1,0.5,0.3,0.7s0.5,0.4,0.8,0.5s0.7,0.3,1,0.5c0.4,0.2,0.7,0.4,1,0.6c0.3,0.2,0.6,0.5,0.8,0.9
		C212.9,158.5,213,158.9,213,159.5z"/>
</g>
<g>
	<path class="st2" d="M424.8,92.6l-4.6-7.8c-0.1-0.2-0.2-0.5-0.4-0.7c-0.1-0.3-0.2-0.5-0.3-0.7h0c0,0.4,0,0.7,0.1,1
		c0,0.2,0,0.4,0,0.7v7.6h-2.7V78.8h2.8l4.2,7.1c0.1,0.2,0.2,0.3,0.2,0.4c0.1,0.1,0.1,0.2,0.2,0.3c0,0.1,0.1,0.2,0.1,0.3
		c0.1,0.1,0.1,0.2,0.2,0.4h0c0-0.2,0-0.5-0.1-0.7c0-0.3,0-0.5,0-0.8v-7h2.7v13.8H424.8z"/>
	<path class="st2" d="M439,86.9v0.2c0,0.1,0,0.1,0,0.2l-6.5,0.9c0.1,0.8,0.4,1.3,0.9,1.8c0.5,0.4,1.1,0.6,1.8,0.6
		c0.5,0,1-0.1,1.5-0.2s0.9-0.3,1.2-0.4l0.7,2c-0.5,0.3-1.1,0.5-1.8,0.6c-0.7,0.1-1.4,0.2-2.2,0.2c-0.9,0-1.6-0.1-2.3-0.4
		c-0.7-0.3-1.2-0.7-1.6-1.2c-0.4-0.5-0.8-1.1-1-1.8c-0.2-0.7-0.3-1.4-0.3-2.3c0-0.8,0.1-1.6,0.3-2.3c0.2-0.7,0.5-1.3,1-1.8
		c0.4-0.5,0.9-0.9,1.6-1.1c0.6-0.3,1.3-0.4,2.1-0.4c1.5,0,2.7,0.5,3.5,1.4C438.6,83.9,439,85.2,439,86.9z M436,86.1
		c0-0.9-0.2-1.6-0.4-2s-0.7-0.7-1.3-0.7c-0.6,0-1.1,0.3-1.5,0.8c-0.3,0.6-0.5,1.3-0.5,2.2v0.3L436,86.1z"/>
	<path class="st2" d="M452.3,92.6h-2.9l-1.5-6c-0.1-0.3-0.1-0.5-0.2-0.8s-0.1-0.5-0.1-0.6h0c0,0.1,0,0.3-0.1,0.6s-0.1,0.5-0.2,0.8
		l-1.5,6H443l-3-10.8h3.2l1.2,6.3c0.1,0.3,0.1,0.6,0.1,0.9c0,0.3,0,0.5,0,0.8h0c0-0.2,0.1-0.5,0.1-0.8c0-0.3,0.1-0.6,0.2-0.9
		l1.6-6.3h2.5l1.5,6.3c0.1,0.3,0.1,0.6,0.2,0.8c0,0.2,0.1,0.5,0.1,0.8h0c0-0.3,0.1-0.6,0.1-0.8c0-0.2,0.1-0.5,0.1-0.8l1.3-6.3h2.8
		L452.3,92.6z"/>
	<path class="st2" d="M409.9,107.2c0,0.8-0.1,1.6-0.3,2.2c-0.2,0.7-0.5,1.3-0.9,1.8c-0.4,0.5-0.9,0.9-1.5,1.2
		c-0.6,0.3-1.3,0.4-2.1,0.4s-1.5-0.1-2.1-0.4c-0.6-0.3-1.1-0.7-1.5-1.2c-0.4-0.5-0.7-1.1-0.9-1.8c-0.2-0.7-0.3-1.4-0.3-2.2
		c0-0.8,0.1-1.6,0.3-2.2c0.2-0.7,0.5-1.3,0.9-1.8c0.4-0.5,0.9-0.9,1.5-1.2c0.6-0.3,1.3-0.4,2.1-0.4s1.5,0.1,2.1,0.4
		c0.6,0.3,1.1,0.7,1.5,1.2c0.4,0.5,0.7,1.1,0.9,1.8C409.8,105.6,409.9,106.4,409.9,107.2z M406.7,107.1c0-0.5,0-1-0.1-1.5
		c-0.1-0.4-0.2-0.8-0.3-1.1c-0.1-0.3-0.3-0.6-0.5-0.8c-0.2-0.2-0.5-0.3-0.8-0.3s-0.6,0.1-0.8,0.3s-0.4,0.4-0.5,0.8
		c-0.1,0.3-0.2,0.7-0.3,1.1c-0.1,0.4-0.1,0.9-0.1,1.5s0,1,0.1,1.5c0.1,0.4,0.2,0.8,0.3,1.2c0.1,0.3,0.3,0.6,0.5,0.8
		c0.2,0.2,0.5,0.3,0.8,0.3s0.6-0.1,0.8-0.3c0.2-0.2,0.4-0.4,0.5-0.8c0.1-0.3,0.2-0.7,0.3-1.2C406.7,108.1,406.7,107.6,406.7,107.1z"
		/>
	<path class="st2" d="M415.4,103.8v8.8h-3.1v-8.8h-1.2v-2h1.2v-1.1c0-1.2,0.4-2.2,1-2.9c0.7-0.7,1.7-1,2.9-1c0.2,0,0.4,0,0.5,0
		c0.1,0,0.2,0,0.3,0v2c-0.1,0-0.2,0-0.2,0h-0.1c-0.5,0-0.8,0.2-1,0.5s-0.3,0.7-0.3,1.3v1.2h1.7v2H415.4z"/>
	<path class="st2" d="M422.7,103.8v8.8h-3.1v-8.8h-1.2v-2h1.2v-1.1c0-1.2,0.4-2.2,1-2.9c0.7-0.7,1.7-1,2.9-1c0.2,0,0.4,0,0.5,0
		c0.1,0,0.2,0,0.3,0v2c-0.1,0-0.2,0-0.2,0h-0.1c-0.5,0-0.8,0.2-1,0.5s-0.3,0.7-0.3,1.3v1.2h1.7v2H422.7z"/>
	<path class="st2" d="M435,106.9v0.2c0,0.1,0,0.1,0,0.2l-6.5,0.9c0.1,0.8,0.4,1.3,0.9,1.8c0.5,0.4,1.1,0.6,1.8,0.6
		c0.5,0,1-0.1,1.5-0.2s0.9-0.3,1.2-0.4l0.7,2c-0.5,0.3-1.1,0.5-1.8,0.6c-0.7,0.1-1.4,0.2-2.2,0.2c-0.9,0-1.6-0.1-2.3-0.4
		c-0.7-0.3-1.2-0.7-1.6-1.2c-0.4-0.5-0.8-1.1-1-1.8c-0.2-0.7-0.3-1.4-0.3-2.3c0-0.8,0.1-1.6,0.3-2.3c0.2-0.7,0.5-1.3,1-1.8
		c0.4-0.5,0.9-0.9,1.6-1.1c0.6-0.3,1.3-0.4,2.1-0.4c1.5,0,2.7,0.5,3.5,1.4C434.6,103.9,435,105.2,435,106.9z M432,106.1
		c0-0.9-0.2-1.6-0.4-2s-0.7-0.7-1.3-0.7c-0.6,0-1.1,0.3-1.5,0.8c-0.3,0.6-0.5,1.3-0.5,2.2v0.3L432,106.1z"/>
	<path class="st2" d="M442.2,103.8c-0.2-0.1-0.4-0.2-0.6-0.2c-0.2,0-0.4-0.1-0.6-0.1c-0.4,0-0.7,0.1-0.9,0.2v8.9H437v-10.2
		c0.5-0.2,1.1-0.4,1.9-0.6c0.7-0.1,1.6-0.2,2.5-0.2c0.2,0,0.5,0,0.8,0c0.3,0,0.5,0,0.6,0.1L442.2,103.8z"/>
	<path class="st2" d="M447.4,98.7c0,0.4-0.2,0.8-0.5,1c-0.3,0.3-0.7,0.4-1.2,0.4s-0.9-0.1-1.2-0.4c-0.3-0.3-0.5-0.6-0.5-1
		s0.2-0.8,0.5-1c0.3-0.3,0.7-0.4,1.2-0.4s0.9,0.1,1.2,0.4C447.3,97.9,447.4,98.3,447.4,98.7z M444.2,112.6v-10.8h3.1v10.8H444.2z"/>
	<path class="st2" d="M455.8,112.6v-7.3c0-0.6-0.1-1-0.4-1.3s-0.7-0.4-1.3-0.4c-0.2,0-0.5,0-0.7,0.1s-0.4,0.1-0.6,0.2v8.8h-3.1
		v-10.2c1.2-0.5,2.7-0.8,4.4-0.8s2.9,0.3,3.7,1c0.8,0.7,1.2,1.6,1.2,2.7v7.3H455.8z"/>
	<path class="st2" d="M470.4,112.4c0,1.5-0.4,2.7-1.3,3.5c-0.9,0.8-2,1.2-3.5,1.2c-0.8,0-1.6-0.1-2.3-0.2s-1.3-0.4-1.7-0.6l0.8-2
		c0.3,0.2,0.8,0.3,1.2,0.5c0.5,0.1,0.9,0.2,1.4,0.2c0.8,0,1.4-0.2,1.7-0.6c0.3-0.4,0.5-0.9,0.5-1.5v-0.5c-0.2,0.1-0.4,0.2-0.7,0.2
		c-0.3,0.1-0.7,0.1-1.1,0.1c-0.7,0-1.3-0.1-1.8-0.4c-0.5-0.2-1-0.6-1.4-1s-0.7-1-0.9-1.6c-0.2-0.6-0.3-1.4-0.3-2.2
		c0-1.8,0.5-3.3,1.5-4.3c1-1,2.4-1.5,4.2-1.5c0.7,0,1.4,0.1,2,0.2c0.7,0.1,1.2,0.3,1.7,0.6V112.4z M467.3,103.6
		c-0.3-0.1-0.6-0.2-1-0.2c-0.8,0-1.3,0.3-1.7,1c-0.4,0.6-0.5,1.6-0.5,2.8c0,1.2,0.2,2.1,0.5,2.7c0.4,0.6,0.9,0.9,1.7,0.9
		c0.2,0,0.4,0,0.6-0.1c0.2,0,0.3-0.1,0.5-0.2V103.6z"/>
	<path class="st2" d="M432.8,132.4c-0.2,0.1-0.4,0.2-0.7,0.2c-0.3,0.1-0.6,0.1-0.9,0.1c-1,0-1.8-0.3-2.4-0.8s-0.8-1.3-0.8-2.4v-5.7
		h-1.2v-2h1.2v-2.3l3.1-0.8v3.1h1.7v2h-1.7v5.7c0,0.4,0.1,0.6,0.3,0.8c0.2,0.2,0.4,0.3,0.8,0.3c0.2,0,0.5,0,0.7-0.1V132.4z"/>
	<path class="st2" d="M443.9,127.2c0,0.8-0.1,1.6-0.3,2.3c-0.2,0.7-0.5,1.3-0.9,1.8c-0.4,0.5-0.9,0.9-1.5,1.2
		c-0.6,0.3-1.3,0.4-2.1,0.4s-1.5-0.1-2.1-0.4c-0.6-0.3-1.1-0.7-1.5-1.2c-0.4-0.5-0.7-1.1-0.9-1.8c-0.2-0.7-0.3-1.4-0.3-2.3
		c0-0.8,0.1-1.6,0.3-2.2c0.2-0.7,0.5-1.3,0.9-1.8c0.4-0.5,0.9-0.9,1.5-1.2c0.6-0.3,1.3-0.4,2.1-0.4s1.5,0.1,2.1,0.4
		c0.6,0.3,1.1,0.7,1.5,1.2c0.4,0.5,0.7,1.1,0.9,1.8C443.8,125.6,443.9,126.4,443.9,127.2z M440.7,127.1c0-0.5,0-1-0.1-1.5
		c-0.1-0.4-0.2-0.8-0.3-1.1c-0.1-0.3-0.3-0.6-0.5-0.8c-0.2-0.2-0.5-0.3-0.8-0.3s-0.6,0.1-0.8,0.3s-0.4,0.4-0.5,0.8
		c-0.1,0.3-0.2,0.7-0.3,1.1c-0.1,0.4-0.1,0.9-0.1,1.5s0,1,0.1,1.5c0.1,0.4,0.2,0.8,0.3,1.2c0.1,0.3,0.3,0.6,0.5,0.8
		c0.2,0.2,0.5,0.3,0.8,0.3s0.6-0.1,0.8-0.3c0.2-0.2,0.4-0.4,0.5-0.8c0.1-0.3,0.2-0.7,0.3-1.2C440.7,128.1,440.7,127.6,440.7,127.1z"
		/>
	<path class="st2" d="M423.6,152.6v-7.3c0-0.6-0.1-1-0.4-1.3s-0.7-0.4-1.3-0.4c-0.2,0-0.5,0-0.7,0.1s-0.4,0.1-0.6,0.2v8.8h-3.1
		v-10.2c1.2-0.5,2.7-0.8,4.4-0.8s2.9,0.3,3.7,1c0.8,0.7,1.2,1.6,1.2,2.7v7.3H423.6z"/>
	<path class="st2" d="M438.2,146.9v0.2c0,0.1,0,0.1,0,0.2l-6.5,0.9c0.1,0.8,0.4,1.3,0.9,1.8c0.5,0.4,1.1,0.6,1.8,0.6
		c0.5,0,1-0.1,1.5-0.2s0.9-0.3,1.2-0.4l0.7,2c-0.5,0.3-1.1,0.5-1.8,0.6c-0.7,0.1-1.4,0.2-2.2,0.2c-0.9,0-1.6-0.1-2.3-0.4
		c-0.7-0.3-1.2-0.7-1.6-1.2c-0.4-0.5-0.8-1.1-1-1.8c-0.2-0.7-0.3-1.4-0.3-2.3c0-0.8,0.1-1.6,0.3-2.3c0.2-0.7,0.5-1.3,1-1.8
		c0.4-0.5,0.9-0.9,1.6-1.1c0.6-0.3,1.3-0.4,2.1-0.4c1.5,0,2.7,0.5,3.5,1.4C437.8,143.9,438.2,145.2,438.2,146.9z M435.3,146.1
		c0-0.9-0.2-1.6-0.4-2s-0.7-0.7-1.3-0.7c-0.6,0-1.1,0.3-1.5,0.8c-0.3,0.6-0.5,1.3-0.5,2.2v0.3L435.3,146.1z"/>
	<path class="st2" d="M451.6,152.6h-2.9l-1.5-6c-0.1-0.3-0.1-0.5-0.2-0.8s-0.1-0.5-0.1-0.6h0c0,0.1,0,0.3-0.1,0.6s-0.1,0.5-0.2,0.8
		l-1.5,6h-2.9l-3-10.8h3.2l1.2,6.3c0.1,0.3,0.1,0.6,0.1,0.9c0,0.3,0,0.5,0,0.8h0c0-0.2,0.1-0.5,0.1-0.8c0-0.3,0.1-0.6,0.2-0.9
		l1.6-6.3h2.5l1.5,6.3c0.1,0.3,0.1,0.6,0.2,0.8c0,0.2,0.1,0.5,0.1,0.8h0c0-0.3,0.1-0.6,0.1-0.8c0-0.2,0.1-0.5,0.1-0.8l1.3-6.3h2.8
		L451.6,152.6z"/>
	<path class="st2" d="M412,172.6v-7.3c0-0.5-0.1-1-0.4-1.3c-0.2-0.3-0.7-0.5-1.2-0.5c-0.5,0-1,0.2-1.3,0.6v8.5H406v-7.5
		c0-0.5-0.1-0.9-0.4-1.2c-0.3-0.3-0.7-0.4-1.3-0.4c-0.3,0-0.5,0-0.7,0.1c-0.2,0-0.4,0.1-0.6,0.2v8.8h-3v-10.2
		c0.6-0.3,1.3-0.5,1.9-0.6c0.7-0.1,1.4-0.2,2.2-0.2c0.8,0,1.5,0.1,2,0.3c0.5,0.2,1,0.4,1.4,0.8c0.4-0.3,0.9-0.6,1.5-0.8
		c0.6-0.2,1.2-0.3,1.9-0.3c0.7,0,1.4,0.1,1.9,0.3c0.5,0.2,1,0.4,1.3,0.8c0.3,0.3,0.6,0.7,0.8,1.2c0.2,0.4,0.2,0.9,0.2,1.5v7.3H412z"
		/>
	<path class="st2" d="M425.9,172c-0.5,0.2-1.1,0.4-1.8,0.6c-0.7,0.1-1.5,0.2-2.4,0.2c-1.5,0-2.7-0.3-3.5-0.9
		c-0.8-0.6-1.2-1.4-1.2-2.6c0-0.7,0.2-1.2,0.5-1.7c0.3-0.5,0.8-0.8,1.3-1.1c0.5-0.3,1.2-0.5,1.9-0.7c0.7-0.2,1.5-0.3,2.3-0.4V165
		c0-0.5-0.2-0.9-0.5-1.1c-0.3-0.2-0.8-0.4-1.4-0.4c-0.5,0-1,0.1-1.5,0.2c-0.5,0.1-1,0.3-1.3,0.5l-0.7-1.8c0.5-0.2,1.2-0.4,1.9-0.6
		c0.7-0.2,1.4-0.2,2.1-0.2c0.7,0,1.2,0.1,1.8,0.2c0.5,0.1,1,0.4,1.4,0.7s0.7,0.7,0.9,1.2c0.2,0.5,0.3,1.1,0.3,1.8V172z M423,167
		c-1,0.1-1.8,0.3-2.3,0.7c-0.5,0.3-0.8,0.9-0.8,1.6c0,0.6,0.2,1,0.5,1.3c0.3,0.3,0.8,0.5,1.5,0.5c0.5,0,0.9-0.1,1.1-0.2V167z"/>
	<path class="st2" d="M433.5,163.8c-0.2-0.1-0.4-0.2-0.6-0.2c-0.2,0-0.4-0.1-0.6-0.1c-0.4,0-0.7,0.1-0.9,0.2v8.9h-3.1v-10.2
		c0.5-0.2,1.1-0.4,1.9-0.6c0.7-0.1,1.6-0.2,2.5-0.2c0.2,0,0.5,0,0.8,0c0.3,0,0.5,0,0.6,0.1L433.5,163.8z"/>
	<path class="st2" d="M441.8,172.6l-3.2-5.3h0v5.3h-3.1v-15.7h3.1v9.9h0l3.1-4.9h3.3l-3.6,5.1l4,5.7H441.8z"/>
	<path class="st2" d="M455.2,166.9v0.2c0,0.1,0,0.1,0,0.2l-6.5,0.9c0.1,0.8,0.4,1.3,0.9,1.8c0.5,0.4,1.1,0.6,1.8,0.6
		c0.5,0,1-0.1,1.5-0.2s0.9-0.3,1.2-0.4l0.7,2c-0.5,0.3-1.1,0.5-1.8,0.6c-0.7,0.1-1.4,0.2-2.2,0.2c-0.9,0-1.6-0.1-2.3-0.4
		c-0.7-0.3-1.2-0.7-1.6-1.2c-0.4-0.5-0.8-1.1-1-1.8c-0.2-0.7-0.3-1.4-0.3-2.3c0-0.8,0.1-1.6,0.3-2.3c0.2-0.7,0.5-1.3,1-1.8
		c0.4-0.5,0.9-0.9,1.6-1.1c0.6-0.3,1.3-0.4,2.1-0.4c1.5,0,2.7,0.5,3.5,1.4C454.8,163.9,455.2,165.2,455.2,166.9z M452.3,166.1
		c0-0.9-0.2-1.6-0.4-2s-0.7-0.7-1.3-0.7c-0.6,0-1.1,0.3-1.5,0.8c-0.3,0.6-0.5,1.3-0.5,2.2v0.3L452.3,166.1z"/>
	<path class="st2" d="M462.5,172.4c-0.2,0.1-0.4,0.2-0.7,0.2c-0.3,0.1-0.6,0.1-0.9,0.1c-1,0-1.8-0.3-2.4-0.8s-0.8-1.3-0.8-2.4v-5.7
		h-1.2v-2h1.2v-2.3l3.1-0.8v3.1h1.7v2h-1.7v5.7c0,0.4,0.1,0.6,0.3,0.8c0.2,0.2,0.4,0.3,0.8,0.3c0.2,0,0.5,0,0.7-0.1V172.4z"/>
	<path class="st2" d="M471.4,169.3c0,0.5-0.1,1-0.3,1.4s-0.5,0.8-0.8,1.1s-0.8,0.5-1.3,0.7c-0.5,0.2-1.1,0.3-1.8,0.3
		c-0.6,0-1.2-0.1-1.8-0.2c-0.6-0.1-1.1-0.3-1.5-0.6l0.8-1.9c0.4,0.2,0.7,0.4,1.1,0.5c0.4,0.1,0.7,0.1,1,0.1c0.5,0,0.8-0.1,1.1-0.3
		c0.3-0.2,0.4-0.5,0.4-0.9c0-0.3-0.1-0.6-0.3-0.8c-0.2-0.2-0.5-0.4-0.8-0.5c-0.3-0.2-0.6-0.3-1-0.5c-0.4-0.2-0.7-0.4-1-0.6
		c-0.3-0.2-0.6-0.5-0.8-0.9c-0.2-0.4-0.3-0.8-0.3-1.4c0-0.5,0.1-1,0.3-1.4s0.5-0.8,0.8-1s0.7-0.5,1.2-0.7s1-0.2,1.5-0.2
		c0.7,0,1.3,0.1,1.8,0.2c0.5,0.1,1,0.3,1.5,0.6l-0.7,1.7c-0.6-0.4-1.3-0.6-1.9-0.6c-0.4,0-0.8,0.1-1,0.3c-0.2,0.2-0.3,0.5-0.3,0.8
		c0,0.3,0.1,0.5,0.3,0.7s0.5,0.4,0.8,0.5s0.7,0.3,1,0.5c0.4,0.2,0.7,0.4,1,0.6c0.3,0.2,0.6,0.5,0.8,0.9
		C471.3,168.2,471.4,168.7,471.4,169.3z"/>
</g>
<g>
	<g>
		
			<rect x="154.4" y="413.2" transform="matrix(6.123234e-17 -1 1 6.123234e-17 -299.4948 652.7604)" class="st3" width="44.5" height="125.8"/>
	</g>
	<g>
		
			<rect x="284.1" y="413.2" transform="matrix(6.123234e-17 -1 1 6.123234e-17 -169.8062 782.449)" class="st3" width="44.5" height="125.8"/>
	</g>
	<g>
		
			<rect x="413.8" y="413.2" transform="matrix(6.123234e-17 -1 1 6.123234e-17 -40.1175 912.1377)" class="st3" width="44.5" height="125.8"/>
	</g>
	<g>
		
			<rect x="66.8" y="324.2" transform="matrix(-1 3.158539e-06 -3.158539e-06 -1 178.0261 774.2512)" class="st3" width="44.5" height="125.8"/>
	</g>
	<g>
		
			<rect x="66.8" y="194.5" transform="matrix(-1 3.158540e-06 -3.158540e-06 -1 178.025 514.8746)" class="st3" width="44.5" height="125.8"/>
	</g>
	<g>
		
			<rect x="66.8" y="64.8" transform="matrix(-1 3.158540e-06 -3.158540e-06 -1 178.0239 255.498)" class="st3" width="44.5" height="125.8"/>
	</g>
</g>
<g>
	<path class="st1" d="M48.3,354.9l-9.3,0.9c-0.2,0-0.5,0-0.7,0.1s-0.5,0-0.8,0v0c0.1,0,0.4,0.1,0.7,0.1s0.6,0.1,0.8,0.2l9.3,2.6v1.1
		l-9.3,2.6c-0.2,0.1-0.4,0.1-0.6,0.2c-0.2,0-0.5,0.1-0.8,0.2v0c0.3,0,0.6,0,0.8,0c0.2,0,0.4,0,0.6,0.1l9.3,1v1.4L35.9,364v-1.7
		l8.9-2.5c0.3-0.1,0.5-0.1,0.7-0.2c0.2,0,0.5-0.1,0.8-0.1v0c-0.3,0-0.6-0.1-0.8-0.1c-0.2,0-0.5-0.1-0.7-0.2l-8.9-2.5v-1.8l12.4-1.5
		V354.9z"/>
	<path class="st1" d="M47.8,344.5c0.2,0.4,0.4,0.9,0.5,1.4s0.2,1.2,0.2,1.8c0,1.2-0.2,2.1-0.7,2.7c-0.5,0.6-1.2,1-2.2,1
		c-0.6,0-1.1-0.1-1.5-0.4c-0.4-0.3-0.8-0.6-1-1.1c-0.3-0.5-0.5-1.1-0.7-1.7c-0.2-0.7-0.3-1.4-0.4-2.2h-0.6c-0.7,0-1.2,0.2-1.5,0.5
		c-0.3,0.3-0.5,0.9-0.5,1.5c0,0.4,0.1,0.8,0.2,1.3s0.3,0.8,0.4,1.2l-1,0.4c-0.2-0.4-0.4-0.9-0.5-1.4c-0.1-0.5-0.2-1-0.2-1.6
		c0-1.1,0.3-1.9,0.8-2.5c0.5-0.6,1.3-0.9,2.4-0.9H47.8z M42.9,346c0.1,1.2,0.4,2.2,0.8,2.9c0.4,0.7,1,1,1.9,1c0.7,0,1.2-0.2,1.5-0.6
		c0.4-0.4,0.5-1,0.5-1.7c0-0.3,0-0.6-0.1-0.9c-0.1-0.3-0.1-0.5-0.2-0.7H42.9z"/>
	<path class="st1" d="M39.7,338.1c-0.1,0.3-0.2,0.6-0.2,1c0,0.2,0,0.4,0.1,0.6c0,0.2,0.1,0.4,0.2,0.6h8.5v1.6h-9.2
		c-0.2-0.4-0.4-0.9-0.5-1.4s-0.2-1.2-0.2-1.9c0-0.2,0-0.4,0-0.5c0-0.2,0-0.3,0-0.3L39.7,338.1z"/>
	<path class="st1" d="M48.3,330.7l-5,3.8v0h5v1.5H34.2v-1.5h9v0l-4.6-3.6v-1.7l4.6,3.9l5.1-4.2V330.7z"/>
	<path class="st1" d="M44.1,326.5c1-0.1,1.8-0.4,2.4-0.9s0.9-1.2,0.9-2.1c0-0.4-0.1-0.9-0.2-1.3c-0.1-0.4-0.2-0.8-0.4-1.1l1-0.4
		c0.2,0.3,0.4,0.8,0.5,1.3c0.1,0.5,0.2,1.1,0.2,1.6c0,1.4-0.4,2.5-1.3,3.2c-0.9,0.8-2.1,1.1-3.7,1.1c-0.8,0-1.4-0.1-2.1-0.3
		s-1.1-0.4-1.6-0.8c-0.4-0.3-0.8-0.7-1-1.2c-0.2-0.5-0.4-1-0.4-1.6c0-1.2,0.4-2.1,1.1-2.7s1.9-1,3.4-1h0.2L44.1,326.5z M42.5,322
		c-1,0-1.7,0.2-2.3,0.6c-0.5,0.3-0.8,0.9-0.8,1.7c0,0.4,0.1,0.7,0.3,1.1c0.2,0.3,0.4,0.6,0.8,0.8c0.3,0.2,0.7,0.4,1.2,0.5
		c0.5,0.1,1,0.2,1.5,0.2h0.1L42.5,322z"/>
	<path class="st1" d="M48.3,314.5c0.1,0.3,0.2,0.6,0.2,1c0,0.7-0.2,1.3-0.6,1.7c-0.4,0.4-1,0.6-1.8,0.6h-6.4v1.1h-1v-1.1h-2.2
		l-0.5-1.6h2.7v-1.7h1v1.7H46c0.4,0,0.8-0.1,1-0.3c0.2-0.2,0.4-0.5,0.4-0.9c0-0.2,0-0.4-0.1-0.5H48.3z"/>
	<path class="st1" d="M43.5,300.3c0.7,0,1.4,0.1,2,0.2s1.1,0.4,1.6,0.7c0.5,0.3,0.8,0.7,1.1,1.2c0.3,0.5,0.4,1.1,0.4,1.7
		c0,0.7-0.1,1.2-0.4,1.7c-0.3,0.5-0.6,0.9-1.1,1.2c-0.5,0.3-1,0.6-1.6,0.7s-1.3,0.2-2,0.2c-0.7,0-1.4-0.1-2-0.2
		c-0.6-0.2-1.1-0.4-1.6-0.7c-0.4-0.3-0.8-0.7-1-1.2c-0.3-0.5-0.4-1-0.4-1.7c0-0.7,0.1-1.2,0.4-1.7c0.3-0.5,0.6-0.9,1-1.2
		c0.4-0.3,1-0.5,1.6-0.7C42.1,300.4,42.7,300.3,43.5,300.3z M43.4,301.9c-0.5,0-1,0-1.5,0.1c-0.5,0.1-0.9,0.2-1.3,0.4
		c-0.4,0.2-0.7,0.4-0.9,0.7s-0.3,0.6-0.3,1.1c0,0.4,0.1,0.8,0.3,1.1s0.5,0.5,0.9,0.7s0.8,0.3,1.3,0.4c0.5,0.1,1,0.1,1.5,0.1
		s1.1,0,1.5-0.1c0.5-0.1,0.9-0.2,1.3-0.4c0.4-0.2,0.7-0.4,0.9-0.7s0.3-0.6,0.3-1.1c0-0.4-0.1-0.8-0.3-1.1s-0.5-0.5-0.9-0.7
		c-0.4-0.2-0.8-0.3-1.3-0.4C44.5,301.9,44,301.9,43.4,301.9z"/>
	<path class="st1" d="M39.7,294.3c-0.1,0.3-0.2,0.6-0.2,1c0,0.2,0,0.4,0.1,0.6c0,0.2,0.1,0.4,0.2,0.6h8.5v1.6h-9.2
		c-0.2-0.4-0.4-0.9-0.5-1.4s-0.2-1.2-0.2-1.9c0-0.2,0-0.4,0-0.5c0-0.2,0-0.3,0-0.3L39.7,294.3z"/>
	<path class="st1" d="M47.9,282.2c0.2,0.3,0.4,0.6,0.5,0.9c0.1,0.4,0.2,0.8,0.2,1.2c0,0.6-0.1,1.1-0.4,1.6c-0.2,0.5-0.6,0.9-1,1.2
		s-1,0.6-1.6,0.7s-1.3,0.3-2,0.3s-1.4-0.1-2-0.3s-1.1-0.4-1.6-0.7c-0.4-0.3-0.8-0.7-1-1.2c-0.2-0.5-0.4-1-0.4-1.6
		c0-0.5,0.1-0.9,0.2-1.2c0.1-0.4,0.3-0.7,0.5-0.9l0.9,0.4c-0.1,0.2-0.3,0.4-0.4,0.7c-0.1,0.3-0.1,0.5-0.1,0.8c0,0.4,0.1,0.7,0.3,1
		c0.2,0.3,0.5,0.6,0.8,0.8c0.3,0.2,0.8,0.4,1.2,0.5c0.5,0.1,1,0.2,1.5,0.2s1.1-0.1,1.5-0.2c0.5-0.1,0.9-0.3,1.2-0.5
		c0.4-0.2,0.6-0.5,0.8-0.8c0.2-0.3,0.3-0.6,0.3-1c0-0.3,0-0.6-0.1-0.8s-0.2-0.5-0.3-0.7L47.9,282.2z"/>
	<path class="st1" d="M47.8,273.4c0.2,0.4,0.4,0.9,0.5,1.5c0.1,0.6,0.2,1.2,0.2,1.9c0,1.2-0.3,2-0.8,2.6c-0.5,0.6-1.3,0.9-2.4,0.9
		h-6.7v-1.6h6.8c1.4,0,2-0.7,2-2c0-0.3,0-0.6-0.1-0.9c-0.1-0.3-0.1-0.6-0.2-0.8h-8.5v-1.6H47.8z"/>
	<path class="st1" d="M45.6,265.5c0.4,0,0.8,0.1,1.1,0.2c0.3,0.2,0.6,0.4,0.9,0.7c0.3,0.3,0.5,0.6,0.6,1c0.2,0.4,0.2,0.9,0.2,1.4
		c0,0.5-0.1,1-0.2,1.4c-0.1,0.5-0.3,0.9-0.5,1.2l-1-0.5c0.2-0.3,0.3-0.6,0.4-1c0.1-0.3,0.1-0.7,0.1-1c0-0.6-0.2-1-0.5-1.4
		c-0.3-0.3-0.7-0.5-1.2-0.5c-0.4,0-0.7,0.1-0.9,0.3s-0.4,0.5-0.6,0.8s-0.3,0.6-0.5,1c-0.1,0.4-0.3,0.7-0.5,1s-0.5,0.6-0.8,0.8
		c-0.3,0.2-0.8,0.3-1.3,0.3c-0.4,0-0.7-0.1-1-0.2c-0.3-0.1-0.6-0.3-0.8-0.6c-0.2-0.3-0.4-0.6-0.6-0.9s-0.2-0.8-0.2-1.2
		c0-0.9,0.2-1.8,0.7-2.4l0.9,0.4c-0.2,0.3-0.3,0.5-0.4,0.9c-0.1,0.3-0.2,0.6-0.2,0.9c0,0.6,0.2,1,0.5,1.2s0.7,0.4,1.1,0.4
		c0.4,0,0.7-0.1,0.9-0.3s0.4-0.5,0.6-0.8c0.2-0.3,0.3-0.6,0.5-1c0.1-0.4,0.3-0.7,0.5-1c0.2-0.3,0.5-0.6,0.8-0.8
		C44.6,265.6,45.1,265.5,45.6,265.5z"/>
	<path class="st1" d="M48.3,259.6c0.1,0.3,0.2,0.6,0.2,1c0,0.7-0.2,1.3-0.6,1.7c-0.4,0.4-1,0.6-1.8,0.6h-6.4v1.1h-1v-1.1h-2.2
		l-0.5-1.6h2.7v-1.7h1v1.7H46c0.4,0,0.8-0.1,1-0.3c0.2-0.2,0.4-0.5,0.4-0.9c0-0.2,0-0.4-0.1-0.5H48.3z"/>
	<path class="st1" d="M43.5,250.5c0.7,0,1.4,0.1,2,0.2s1.1,0.4,1.6,0.7s0.8,0.7,1.1,1.2c0.3,0.5,0.4,1.1,0.4,1.7
		c0,0.7-0.1,1.2-0.4,1.7c-0.3,0.5-0.6,0.9-1.1,1.2c-0.5,0.3-1,0.6-1.6,0.7s-1.3,0.2-2,0.2c-0.7,0-1.4-0.1-2-0.2
		c-0.6-0.2-1.1-0.4-1.6-0.7c-0.4-0.3-0.8-0.7-1-1.2c-0.3-0.5-0.4-1-0.4-1.7c0-0.7,0.1-1.2,0.4-1.7c0.3-0.5,0.6-0.9,1-1.2
		c0.4-0.3,1-0.5,1.6-0.7C42.1,250.6,42.7,250.5,43.5,250.5z M43.4,252.1c-0.5,0-1,0-1.5,0.1c-0.5,0.1-0.9,0.2-1.3,0.4
		c-0.4,0.2-0.7,0.4-0.9,0.7s-0.3,0.6-0.3,1.1c0,0.4,0.1,0.8,0.3,1.1s0.5,0.5,0.9,0.7c0.4,0.2,0.8,0.3,1.3,0.4c0.5,0.1,1,0.1,1.5,0.1
		s1.1,0,1.5-0.1c0.5-0.1,0.9-0.2,1.3-0.4c0.4-0.2,0.7-0.4,0.9-0.7s0.3-0.6,0.3-1.1c0-0.4-0.1-0.8-0.3-1.1s-0.5-0.5-0.9-0.7
		c-0.4-0.2-0.8-0.3-1.3-0.4C44.5,252.1,44,252.1,43.4,252.1z"/>
	<path class="st1" d="M48.3,237.4h-6.8c-0.6,0-1.2,0.2-1.5,0.5s-0.6,0.8-0.6,1.5c0,0.4,0.1,0.8,0.3,1.1c0.2,0.3,0.4,0.6,0.7,0.8h8
		v1.6h-7c-0.6,0-1,0.2-1.4,0.5c-0.3,0.3-0.5,0.8-0.5,1.6c0,0.4,0,0.7,0.1,1s0.1,0.6,0.3,0.8h8.5v1.6h-9.2c-0.2-0.5-0.4-1-0.5-1.5
		s-0.2-1.1-0.2-1.8c0-0.7,0.1-1.3,0.3-1.8c0.2-0.5,0.5-0.8,0.8-1.1c-0.3-0.3-0.6-0.7-0.8-1.2c-0.2-0.5-0.3-1-0.3-1.6
		c0-0.6,0.1-1.1,0.2-1.5c0.2-0.4,0.4-0.8,0.6-1.1s0.6-0.5,1-0.6c0.4-0.1,0.8-0.2,1.3-0.2h6.8V237.4z"/>
	<path class="st1" d="M44.1,232.2c1-0.1,1.8-0.4,2.4-0.9s0.9-1.2,0.9-2.1c0-0.4-0.1-0.9-0.2-1.3c-0.1-0.4-0.2-0.8-0.4-1.1l1-0.4
		c0.2,0.3,0.4,0.8,0.5,1.3c0.1,0.5,0.2,1.1,0.2,1.6c0,1.4-0.4,2.5-1.3,3.2c-0.9,0.8-2.1,1.1-3.7,1.1c-0.8,0-1.4-0.1-2.1-0.3
		s-1.1-0.4-1.6-0.8c-0.4-0.3-0.8-0.7-1-1.2c-0.2-0.5-0.4-1-0.4-1.6c0-1.2,0.4-2.1,1.1-2.7s1.9-1,3.4-1h0.2L44.1,232.2z M42.5,227.6
		c-1,0-1.7,0.2-2.3,0.6c-0.5,0.3-0.8,0.9-0.8,1.7c0,0.4,0.1,0.7,0.3,1.1c0.2,0.3,0.4,0.6,0.8,0.8c0.3,0.2,0.7,0.4,1.2,0.5
		c0.5,0.1,1,0.2,1.5,0.2h0.1L42.5,227.6z"/>
	<path class="st1" d="M39.7,220.1c-0.1,0.3-0.2,0.6-0.2,1c0,0.2,0,0.4,0.1,0.6c0,0.2,0.1,0.4,0.2,0.6h8.5v1.6h-9.2
		c-0.2-0.4-0.4-0.9-0.5-1.4s-0.2-1.2-0.2-1.9c0-0.2,0-0.4,0-0.5c0-0.2,0-0.3,0-0.3L39.7,220.1z"/>
	<path class="st1" d="M45.6,208.1c0.4,0,0.8,0.1,1.1,0.2c0.3,0.2,0.6,0.4,0.9,0.7c0.3,0.3,0.5,0.6,0.6,1c0.2,0.4,0.2,0.9,0.2,1.4
		c0,0.5-0.1,1-0.2,1.4c-0.1,0.5-0.3,0.9-0.5,1.2l-1-0.5c0.2-0.3,0.3-0.6,0.4-1c0.1-0.3,0.1-0.7,0.1-1c0-0.6-0.2-1-0.5-1.4
		c-0.3-0.3-0.7-0.5-1.2-0.5c-0.4,0-0.7,0.1-0.9,0.3s-0.4,0.5-0.6,0.8s-0.3,0.6-0.5,1c-0.1,0.4-0.3,0.7-0.5,1s-0.5,0.6-0.8,0.8
		c-0.3,0.2-0.8,0.3-1.3,0.3c-0.4,0-0.7-0.1-1-0.2c-0.3-0.1-0.6-0.3-0.8-0.6c-0.2-0.3-0.4-0.6-0.6-0.9s-0.2-0.8-0.2-1.2
		c0-0.9,0.2-1.8,0.7-2.4l0.9,0.4c-0.2,0.3-0.3,0.5-0.4,0.9c-0.1,0.3-0.2,0.6-0.2,0.9c0,0.6,0.2,1,0.5,1.2s0.7,0.4,1.1,0.4
		c0.4,0,0.7-0.1,0.9-0.3s0.4-0.5,0.6-0.8c0.2-0.3,0.3-0.6,0.5-1c0.1-0.4,0.3-0.7,0.5-1c0.2-0.3,0.5-0.6,0.8-0.8
		C44.6,208.2,45.1,208.1,45.6,208.1z"/>
	<path class="st1" d="M44.1,204.8c1-0.1,1.8-0.4,2.4-0.9c0.6-0.5,0.9-1.2,0.9-2.1c0-0.4-0.1-0.9-0.2-1.3c-0.1-0.4-0.2-0.8-0.4-1.1
		l1-0.4c0.2,0.3,0.4,0.8,0.5,1.3c0.1,0.5,0.2,1.1,0.2,1.6c0,1.4-0.4,2.5-1.3,3.2c-0.9,0.8-2.1,1.1-3.7,1.1c-0.8,0-1.4-0.1-2.1-0.3
		s-1.1-0.4-1.6-0.8c-0.4-0.3-0.8-0.7-1-1.2c-0.2-0.5-0.4-1-0.4-1.6c0-1.2,0.4-2.1,1.1-2.7s1.9-1,3.4-1h0.2L44.1,204.8z M42.5,200.3
		c-1,0-1.7,0.2-2.3,0.6c-0.5,0.3-0.8,0.9-0.8,1.7c0,0.4,0.1,0.7,0.3,1.1c0.2,0.3,0.4,0.6,0.8,0.8c0.3,0.2,0.7,0.4,1.2,0.5
		c0.5,0.1,1,0.2,1.5,0.2h0.1L42.5,200.3z"/>
	<path class="st1" d="M48.5,189.6c1.2,0,2.2,0.3,2.9,1c0.7,0.6,1,1.6,1,2.8c0,0.6-0.1,1.1-0.2,1.7s-0.3,1-0.5,1.3l-1-0.5
		c0.2-0.3,0.3-0.6,0.4-1c0.1-0.4,0.2-0.8,0.2-1.2c0-0.9-0.2-1.5-0.7-1.9c-0.5-0.4-1.1-0.6-1.8-0.6H48c0.1,0.2,0.2,0.5,0.3,0.8
		s0.1,0.7,0.1,1.1c0,0.6-0.1,1.1-0.3,1.6s-0.5,0.9-1,1.2s-0.9,0.6-1.5,0.8c-0.6,0.2-1.3,0.3-2,0.3c-0.8,0-1.5-0.1-2.1-0.3
		c-0.6-0.2-1.2-0.5-1.6-0.8s-0.8-0.8-1.1-1.4c-0.2-0.6-0.4-1.2-0.4-1.9c0-0.6,0.1-1.1,0.2-1.6c0.1-0.5,0.3-0.9,0.5-1.3H48.5z
		 M39.7,191.2c-0.1,0.2-0.2,0.4-0.2,0.6c0,0.2-0.1,0.5-0.1,0.8c0,0.5,0.1,0.9,0.3,1.3c0.2,0.3,0.5,0.6,0.8,0.9
		c0.4,0.2,0.8,0.4,1.3,0.5c0.5,0.1,1.1,0.2,1.7,0.2c1.2,0,2.2-0.2,2.9-0.6c0.7-0.4,1-1.1,1-2c0-0.3,0-0.6-0.1-0.9
		c-0.1-0.3-0.2-0.5-0.3-0.7H39.7z"/>
	<path class="st1" d="M48.3,176.2h-6.8c-0.6,0-1.2,0.2-1.5,0.5s-0.6,0.8-0.6,1.5c0,0.4,0.1,0.8,0.3,1.1c0.2,0.3,0.4,0.6,0.7,0.8h8
		v1.6h-7c-0.6,0-1,0.2-1.4,0.5c-0.3,0.3-0.5,0.8-0.5,1.6c0,0.4,0,0.7,0.1,1s0.1,0.6,0.3,0.8h8.5v1.6h-9.2c-0.2-0.5-0.4-1-0.5-1.5
		s-0.2-1.1-0.2-1.8c0-0.7,0.1-1.3,0.3-1.8c0.2-0.5,0.5-0.8,0.8-1.1c-0.3-0.3-0.6-0.7-0.8-1.2c-0.2-0.5-0.3-1-0.3-1.6
		c0-0.6,0.1-1.1,0.2-1.5c0.2-0.4,0.4-0.8,0.6-1.1s0.6-0.5,1-0.6c0.4-0.1,0.8-0.2,1.3-0.2h6.8V176.2z"/>
	<path class="st1" d="M44.1,170.9c1-0.1,1.8-0.4,2.4-0.9s0.9-1.2,0.9-2.1c0-0.4-0.1-0.9-0.2-1.3c-0.1-0.4-0.2-0.8-0.4-1.1l1-0.4
		c0.2,0.3,0.4,0.8,0.5,1.3c0.1,0.5,0.2,1.1,0.2,1.6c0,1.4-0.4,2.5-1.3,3.2c-0.9,0.8-2.1,1.1-3.7,1.1c-0.8,0-1.4-0.1-2.1-0.3
		s-1.1-0.4-1.6-0.8c-0.4-0.3-0.8-0.7-1-1.2c-0.2-0.5-0.4-1-0.4-1.6c0-1.2,0.4-2.1,1.1-2.7s1.9-1,3.4-1h0.2L44.1,170.9z M42.5,166.3
		c-1,0-1.7,0.2-2.3,0.6c-0.5,0.3-0.8,0.9-0.8,1.7c0,0.4,0.1,0.7,0.3,1.1c0.2,0.3,0.4,0.6,0.8,0.8c0.3,0.2,0.7,0.4,1.2,0.5
		c0.5,0.1,1,0.2,1.5,0.2h0.1L42.5,166.3z"/>
	<path class="st1" d="M48.3,157.2h-6.7c-0.7,0-1.3,0.2-1.6,0.5c-0.4,0.3-0.5,0.9-0.5,1.7c0,0.6,0.1,1.2,0.3,1.7h8.5v1.6h-9.2
		c-0.2-0.5-0.4-1-0.5-1.5c-0.1-0.6-0.2-1.2-0.2-1.8c0-1.3,0.3-2.3,0.8-2.9c0.5-0.6,1.3-0.9,2.4-0.9h6.7V157.2z"/>
	<path class="st1" d="M48.3,149.3c0.1,0.3,0.2,0.6,0.2,1c0,0.7-0.2,1.3-0.6,1.7c-0.4,0.4-1,0.6-1.8,0.6h-6.4v1.1h-1v-1.1h-2.2
		l-0.5-1.6h2.7v-1.7h1v1.7H46c0.4,0,0.8-0.1,1-0.3c0.2-0.2,0.4-0.5,0.4-0.9c0-0.2,0-0.4-0.1-0.5H48.3z"/>
</g>
<g>
	<g>
		<path class="st1" d="M153.1,478.7c0,0.6-0.1,1.1-0.3,1.6c-0.2,0.5-0.5,0.9-0.9,1.2c-0.4,0.3-0.8,0.6-1.4,0.8
			c-0.5,0.2-1.1,0.3-1.8,0.3c-0.6,0-1.2-0.1-1.8-0.3c-0.5-0.2-1-0.4-1.4-0.8c-0.4-0.3-0.7-0.7-0.9-1.2s-0.3-1-0.3-1.6v-8.7h2.9v8.8
			c0,0.5,0.2,0.9,0.5,1.2c0.3,0.3,0.7,0.4,1.1,0.4s0.8-0.1,1.1-0.4c0.3-0.3,0.5-0.7,0.5-1.2v-8.8h2.7V478.7z"/>
		<path class="st1" d="M163.8,477.4c0,0.8-0.1,1.5-0.3,2.1c-0.2,0.6-0.5,1.2-0.9,1.6s-0.8,0.8-1.4,1c-0.5,0.2-1.1,0.4-1.7,0.4
			c-0.3,0-0.6,0-0.8,0s-0.5-0.1-0.6-0.1v3.9h-2.8v-13.1c0.5-0.2,1.1-0.4,1.7-0.5c0.6-0.1,1.3-0.2,1.9-0.2c1.5,0,2.7,0.4,3.5,1.3
			C163.4,474.5,163.8,475.7,163.8,477.4z M161,477.4c0-1.1-0.2-1.9-0.5-2.5c-0.3-0.6-0.8-0.9-1.6-0.9c-0.3,0-0.6,0-0.8,0.1v6.4
			c0.1,0,0.2,0,0.3,0.1c0.1,0,0.3,0,0.4,0c0.8,0,1.3-0.3,1.6-0.9S161,478.5,161,477.4z"/>
		<path class="st1" d="M173.7,482.2c0,1.4-0.4,2.4-1.2,3.1s-1.8,1.1-3.1,1.1c-0.7,0-1.4-0.1-2.1-0.2c-0.6-0.1-1.2-0.3-1.6-0.5
			l0.7-1.8c0.3,0.2,0.7,0.3,1.1,0.4c0.4,0.1,0.9,0.2,1.3,0.2c0.7,0,1.3-0.2,1.6-0.5c0.3-0.4,0.5-0.8,0.5-1.4V482
			c-0.2,0.1-0.4,0.2-0.7,0.2c-0.3,0.1-0.6,0.1-1,0.1c-0.6,0-1.1-0.1-1.6-0.3s-0.9-0.5-1.3-0.9c-0.3-0.4-0.6-0.9-0.8-1.5
			c-0.2-0.6-0.3-1.2-0.3-2c0-1.7,0.4-2.9,1.3-3.8c0.9-0.9,2.1-1.4,3.8-1.4c0.6,0,1.2,0.1,1.8,0.2c0.6,0.1,1.1,0.3,1.6,0.5V482.2z
			 M170.9,474.2c-0.2-0.1-0.5-0.2-0.9-0.2c-0.7,0-1.2,0.3-1.5,0.9c-0.3,0.6-0.5,1.4-0.5,2.5c0,1.1,0.2,1.9,0.5,2.4
			c0.3,0.5,0.8,0.8,1.5,0.8c0.2,0,0.4,0,0.5-0.1c0.2,0,0.3-0.1,0.4-0.2V474.2z"/>
		<path class="st1" d="M180.5,474.4c-0.2-0.1-0.3-0.1-0.5-0.2c-0.2,0-0.4-0.1-0.5-0.1c-0.4,0-0.7,0-0.8,0.1v8h-2.8v-9.2
			c0.5-0.2,1-0.4,1.7-0.5c0.7-0.1,1.4-0.2,2.3-0.2c0.2,0,0.4,0,0.7,0c0.2,0,0.4,0,0.6,0.1L180.5,474.4z"/>
		<path class="st1" d="M189.7,481.8c-0.4,0.2-1,0.4-1.6,0.5c-0.6,0.1-1.4,0.2-2.2,0.2c-1.4,0-2.5-0.3-3.2-0.8
			c-0.7-0.5-1.1-1.3-1.1-2.3c0-0.6,0.1-1.1,0.4-1.5c0.3-0.4,0.7-0.7,1.2-1c0.5-0.3,1.1-0.5,1.7-0.6c0.7-0.1,1.4-0.3,2.1-0.3v-0.4
			c0-0.5-0.1-0.8-0.4-1s-0.7-0.3-1.2-0.3c-0.5,0-0.9,0.1-1.4,0.2c-0.5,0.1-0.9,0.3-1.2,0.4l-0.6-1.7c0.5-0.2,1.1-0.4,1.7-0.5
			s1.3-0.2,1.9-0.2c0.6,0,1.1,0.1,1.6,0.2c0.5,0.1,0.9,0.3,1.2,0.6c0.3,0.3,0.6,0.6,0.8,1.1c0.2,0.4,0.3,1,0.3,1.6V481.8z
			 M187.1,477.3c-0.9,0.1-1.6,0.3-2.1,0.6c-0.5,0.3-0.7,0.8-0.7,1.4c0,0.5,0.2,0.9,0.5,1.2c0.3,0.3,0.7,0.4,1.3,0.4
			c0.4,0,0.8-0.1,1-0.2V477.3z"/>
		<path class="st1" d="M200,481.8c-0.4,0.2-1,0.4-1.6,0.5c-0.6,0.1-1.4,0.2-2.1,0.2c-1.5,0-2.6-0.4-3.5-1.3
			c-0.8-0.8-1.2-2.1-1.2-3.7c0-0.7,0.1-1.4,0.3-2c0.2-0.6,0.5-1.2,0.9-1.6c0.4-0.5,0.8-0.8,1.4-1.1c0.5-0.3,1.2-0.4,1.8-0.4
			c0.4,0,0.9,0.1,1.3,0.2v-4.5h2.8V481.8z M197.2,474.2c-0.3-0.1-0.5-0.1-0.8-0.1c-0.4,0-0.7,0.1-1,0.2c-0.3,0.2-0.5,0.4-0.7,0.7
			c-0.2,0.3-0.3,0.6-0.4,1c-0.1,0.4-0.1,0.9-0.1,1.4c0,1.1,0.2,1.9,0.5,2.5c0.3,0.6,0.8,0.9,1.6,0.9c0.2,0,0.4,0,0.5,0
			s0.3-0.1,0.4-0.1V474.2z"/>
		<path class="st1" d="M210.4,477.2v0.2c0,0,0,0.1,0,0.2l-5.8,0.8c0.1,0.7,0.4,1.2,0.8,1.6s1,0.6,1.7,0.6c0.4,0,0.9-0.1,1.3-0.2
			c0.4-0.1,0.8-0.2,1.1-0.4l0.6,1.8c-0.5,0.2-1,0.4-1.6,0.5s-1.3,0.2-1.9,0.2c-0.8,0-1.5-0.1-2.1-0.4c-0.6-0.3-1.1-0.6-1.5-1.1
			c-0.4-0.5-0.7-1-0.9-1.6c-0.2-0.6-0.3-1.3-0.3-2c0-0.8,0.1-1.4,0.3-2.1c0.2-0.6,0.5-1.1,0.9-1.6s0.8-0.8,1.4-1
			c0.5-0.2,1.2-0.4,1.9-0.4c1.4,0,2.4,0.4,3.1,1.3C210,474.5,210.4,475.7,210.4,477.2z M207.7,476.5c0-0.8-0.1-1.4-0.4-1.8
			c-0.3-0.4-0.7-0.6-1.2-0.6c-0.6,0-1,0.3-1.3,0.8c-0.3,0.5-0.5,1.2-0.5,2v0.3L207.7,476.5z"/>
	</g>
	<g>
		<path class="st1" d="M271.6,471.9v10.4h-2.9v-10.4h-2.2v-2h7.4v2H271.6z"/>
		<path class="st1" d="M279.6,474.4c-0.2-0.1-0.3-0.1-0.5-0.2c-0.2,0-0.4-0.1-0.5-0.1c-0.4,0-0.7,0-0.8,0.1v8h-2.8v-9.2
			c0.5-0.2,1-0.4,1.7-0.5c0.7-0.1,1.4-0.2,2.3-0.2c0.2,0,0.4,0,0.7,0c0.2,0,0.4,0,0.6,0.1L279.6,474.4z"/>
		<path class="st1" d="M288.8,481.8c-0.4,0.2-1,0.4-1.6,0.5c-0.6,0.1-1.4,0.2-2.2,0.2c-1.4,0-2.5-0.3-3.2-0.8
			c-0.7-0.5-1.1-1.3-1.1-2.3c0-0.6,0.1-1.1,0.4-1.5c0.3-0.4,0.7-0.7,1.2-1c0.5-0.3,1.1-0.5,1.7-0.6c0.7-0.1,1.4-0.3,2.1-0.3v-0.4
			c0-0.5-0.1-0.8-0.4-1s-0.7-0.3-1.2-0.3c-0.5,0-0.9,0.1-1.4,0.2c-0.5,0.1-0.9,0.3-1.2,0.4l-0.6-1.7c0.5-0.2,1.1-0.4,1.7-0.5
			s1.3-0.2,1.9-0.2c0.6,0,1.1,0.1,1.6,0.2c0.5,0.1,0.9,0.3,1.2,0.6c0.3,0.3,0.6,0.6,0.8,1.1c0.2,0.4,0.3,1,0.3,1.6V481.8z
			 M286.2,477.3c-0.9,0.1-1.6,0.3-2.1,0.6c-0.5,0.3-0.7,0.8-0.7,1.4c0,0.5,0.2,0.9,0.5,1.2c0.3,0.3,0.7,0.4,1.3,0.4
			c0.4,0,0.8-0.1,1-0.2V477.3z"/>
		<path class="st1" d="M296.4,482.3v-6.6c0-0.5-0.1-0.9-0.4-1.2c-0.2-0.3-0.6-0.4-1.2-0.4c-0.2,0-0.4,0-0.6,0.1
			c-0.2,0-0.4,0.1-0.5,0.1v8h-2.8v-9.2c1.1-0.5,2.4-0.7,3.9-0.7c1.5,0,2.6,0.3,3.3,0.9c0.7,0.6,1,1.4,1,2.4v6.6H296.4z"/>
		<path class="st1" d="M307.6,479.4c0,0.5-0.1,0.9-0.3,1.3c-0.2,0.4-0.4,0.7-0.8,1c-0.3,0.3-0.7,0.5-1.2,0.7c-0.5,0.2-1,0.2-1.6,0.2
			c-0.6,0-1.1-0.1-1.7-0.2s-1-0.3-1.3-0.5l0.7-1.7c0.3,0.2,0.6,0.3,1,0.4s0.6,0.1,0.9,0.1c0.4,0,0.7-0.1,1-0.3s0.4-0.5,0.4-0.8
			c0-0.3-0.1-0.5-0.3-0.7c-0.2-0.2-0.4-0.3-0.7-0.5c-0.3-0.1-0.6-0.3-0.9-0.4s-0.6-0.3-0.9-0.5c-0.3-0.2-0.5-0.5-0.7-0.8
			c-0.2-0.3-0.3-0.7-0.3-1.3c0-0.5,0.1-0.9,0.3-1.2c0.2-0.4,0.4-0.7,0.7-0.9c0.3-0.3,0.7-0.5,1.1-0.6s0.9-0.2,1.3-0.2
			c0.6,0,1.2,0.1,1.6,0.2c0.5,0.1,0.9,0.3,1.3,0.5l-0.7,1.5c-0.6-0.3-1.1-0.5-1.7-0.5c-0.4,0-0.7,0.1-0.9,0.3
			c-0.2,0.2-0.3,0.4-0.3,0.7c0,0.3,0.1,0.5,0.3,0.7c0.2,0.2,0.4,0.3,0.7,0.5c0.3,0.1,0.6,0.3,0.9,0.4s0.6,0.3,0.9,0.5
			s0.5,0.5,0.7,0.8C307.5,478.4,307.6,478.9,307.6,479.4z"/>
		<path class="st1" d="M312.7,474.4v7.9h-2.8v-7.9h-1v-1.8h1v-1c0-1.1,0.3-2,0.9-2.6c0.6-0.6,1.5-0.9,2.6-0.9c0.2,0,0.3,0,0.5,0
			c0.1,0,0.2,0,0.3,0v1.8c-0.1,0-0.2,0-0.2,0h-0.1c-0.4,0-0.7,0.1-0.9,0.4c-0.2,0.3-0.3,0.7-0.3,1.2v1.1h1.5v1.8H312.7z"/>
		<path class="st1" d="M323.9,477.5c0,0.7-0.1,1.4-0.3,2c-0.2,0.6-0.5,1.2-0.8,1.6c-0.4,0.4-0.8,0.8-1.4,1.1s-1.2,0.4-1.9,0.4
			c-0.7,0-1.4-0.1-1.9-0.4c-0.5-0.3-1-0.6-1.4-1.1c-0.4-0.5-0.6-1-0.8-1.6c-0.2-0.6-0.3-1.3-0.3-2s0.1-1.4,0.3-2
			c0.2-0.6,0.5-1.1,0.8-1.6c0.4-0.4,0.8-0.8,1.4-1c0.5-0.3,1.2-0.4,1.9-0.4c0.7,0,1.4,0.1,1.9,0.4s1,0.6,1.4,1
			c0.4,0.4,0.6,1,0.8,1.6C323.8,476.1,323.9,476.7,323.9,477.5z M321.1,477.4c0-0.5,0-0.9-0.1-1.3c-0.1-0.4-0.1-0.7-0.3-1
			c-0.1-0.3-0.3-0.5-0.5-0.7c-0.2-0.2-0.5-0.2-0.7-0.2s-0.5,0.1-0.7,0.2c-0.2,0.2-0.4,0.4-0.5,0.7s-0.2,0.6-0.3,1
			c-0.1,0.4-0.1,0.8-0.1,1.3c0,0.5,0,0.9,0.1,1.3c0.1,0.4,0.1,0.8,0.3,1s0.3,0.5,0.5,0.7c0.2,0.2,0.4,0.3,0.7,0.3s0.5-0.1,0.7-0.3
			c0.2-0.2,0.4-0.4,0.5-0.7c0.1-0.3,0.2-0.6,0.3-1S321.1,477.9,321.1,477.4z"/>
		<path class="st1" d="M330.3,474.4c-0.2-0.1-0.3-0.1-0.5-0.2c-0.2,0-0.4-0.1-0.5-0.1c-0.4,0-0.7,0-0.8,0.1v8h-2.8v-9.2
			c0.5-0.2,1-0.4,1.7-0.5c0.7-0.1,1.4-0.2,2.3-0.2c0.2,0,0.4,0,0.7,0c0.2,0,0.4,0,0.6,0.1L330.3,474.4z"/>
		<path class="st1" d="M343,482.3v-6.6c0-0.5-0.1-0.9-0.3-1.1c-0.2-0.3-0.6-0.4-1.1-0.4c-0.5,0-0.9,0.2-1.2,0.5v7.6h-2.8v-6.7
			c0-0.4-0.1-0.8-0.4-1s-0.6-0.4-1.1-0.4c-0.2,0-0.5,0-0.6,0c-0.2,0-0.4,0.1-0.5,0.2v8h-2.7v-9.2c0.6-0.2,1.1-0.4,1.7-0.5
			c0.6-0.1,1.3-0.2,2-0.2c0.7,0,1.3,0.1,1.8,0.2c0.5,0.2,0.9,0.4,1.2,0.7c0.4-0.3,0.8-0.5,1.3-0.7s1.1-0.3,1.7-0.3
			c0.7,0,1.2,0.1,1.7,0.2c0.5,0.2,0.9,0.4,1.2,0.7c0.3,0.3,0.5,0.6,0.7,1c0.1,0.4,0.2,0.8,0.2,1.3v6.6H343z"/>
	</g>
	<g>
		<path class="st1" d="M401.5,482.3v-12.4h2.9v12.4H401.5z"/>
		<path class="st1" d="M412.1,482.3v-6.6c0-0.5-0.1-0.9-0.4-1.2c-0.2-0.3-0.6-0.4-1.2-0.4c-0.2,0-0.4,0-0.6,0.1
			c-0.2,0-0.4,0.1-0.5,0.1v8h-2.8v-9.2c1.1-0.5,2.4-0.7,3.9-0.7c1.5,0,2.6,0.3,3.3,0.9c0.7,0.6,1,1.4,1,2.4v6.6H412.1z"/>
		<path class="st1" d="M422.6,482.3v-6.6c0-0.5-0.1-0.9-0.4-1.2c-0.2-0.3-0.6-0.4-1.2-0.4c-0.2,0-0.4,0-0.6,0.1
			c-0.2,0-0.4,0.1-0.5,0.1v8h-2.8v-9.2c1.1-0.5,2.4-0.7,3.9-0.7c1.5,0,2.6,0.3,3.3,0.9c0.7,0.6,1,1.4,1,2.4v6.6H422.6z"/>
		<path class="st1" d="M435.9,477.5c0,0.7-0.1,1.4-0.3,2c-0.2,0.6-0.5,1.2-0.8,1.6c-0.4,0.4-0.8,0.8-1.4,1.1s-1.2,0.4-1.9,0.4
			c-0.7,0-1.4-0.1-1.9-0.4c-0.5-0.3-1-0.6-1.4-1.1c-0.4-0.5-0.6-1-0.8-1.6c-0.2-0.6-0.3-1.3-0.3-2s0.1-1.4,0.3-2
			c0.2-0.6,0.5-1.1,0.8-1.6c0.4-0.4,0.8-0.8,1.4-1c0.5-0.3,1.2-0.4,1.9-0.4c0.7,0,1.4,0.1,1.9,0.4s1,0.6,1.4,1
			c0.4,0.4,0.6,1,0.8,1.6C435.8,476.1,435.9,476.7,435.9,477.5z M433.1,477.4c0-0.5,0-0.9-0.1-1.3c-0.1-0.4-0.1-0.7-0.3-1
			c-0.1-0.3-0.3-0.5-0.5-0.7c-0.2-0.2-0.5-0.2-0.7-0.2s-0.5,0.1-0.7,0.2c-0.2,0.2-0.4,0.4-0.5,0.7s-0.2,0.6-0.3,1
			c-0.1,0.4-0.1,0.8-0.1,1.3c0,0.5,0,0.9,0.1,1.3c0.1,0.4,0.1,0.8,0.3,1s0.3,0.5,0.5,0.7c0.2,0.2,0.4,0.3,0.7,0.3s0.5-0.1,0.7-0.3
			c0.2-0.2,0.4-0.4,0.5-0.7c0.1-0.3,0.2-0.6,0.3-1S433.1,477.9,433.1,477.4z"/>
		<path class="st1" d="M442.5,482.3h-2.7l-3.2-9.7h3l1.4,5.6c0.1,0.3,0.1,0.6,0.2,0.9c0,0.3,0.1,0.5,0.1,0.6h0c0-0.1,0-0.3,0.1-0.6
			s0.1-0.6,0.2-0.9l1.5-5.6h2.7L442.5,482.3z"/>
		<path class="st1" d="M454.4,481.8c-0.4,0.2-1,0.4-1.6,0.5c-0.6,0.1-1.4,0.2-2.2,0.2c-1.4,0-2.5-0.3-3.2-0.8
			c-0.7-0.5-1.1-1.3-1.1-2.3c0-0.6,0.1-1.1,0.4-1.5c0.3-0.4,0.7-0.7,1.2-1c0.5-0.3,1.1-0.5,1.7-0.6c0.7-0.1,1.4-0.3,2.1-0.3v-0.4
			c0-0.5-0.1-0.8-0.4-1s-0.7-0.3-1.2-0.3c-0.5,0-0.9,0.1-1.4,0.2c-0.5,0.1-0.9,0.3-1.2,0.4l-0.6-1.7c0.5-0.2,1.1-0.4,1.7-0.5
			s1.3-0.2,1.9-0.2c0.6,0,1.1,0.1,1.6,0.2c0.5,0.1,0.9,0.3,1.2,0.6c0.3,0.3,0.6,0.6,0.8,1.1c0.2,0.4,0.3,1,0.3,1.6V481.8z
			 M451.8,477.3c-0.9,0.1-1.6,0.3-2.1,0.6c-0.5,0.3-0.7,0.8-0.7,1.4c0,0.5,0.2,0.9,0.5,1.2c0.3,0.3,0.7,0.4,1.3,0.4
			c0.4,0,0.8-0.1,1-0.2V477.3z"/>
		<path class="st1" d="M461.3,482.2c-0.2,0.1-0.4,0.1-0.6,0.2s-0.5,0.1-0.8,0.1c-0.9,0-1.7-0.2-2.2-0.7c-0.5-0.5-0.7-1.2-0.7-2.1
			v-5.2h-1v-1.8h1v-2.1l2.8-0.7v2.8h1.5v1.8h-1.5v5.2c0,0.3,0.1,0.6,0.2,0.7c0.2,0.2,0.4,0.3,0.7,0.3c0.2,0,0.4,0,0.6-0.1V482.2z"/>
		<path class="st1" d="M471,477.2v0.2c0,0,0,0.1,0,0.2l-5.8,0.8c0.1,0.7,0.4,1.2,0.8,1.6s1,0.6,1.7,0.6c0.4,0,0.9-0.1,1.3-0.2
			c0.4-0.1,0.8-0.2,1.1-0.4l0.6,1.8c-0.5,0.2-1,0.4-1.6,0.5s-1.3,0.2-1.9,0.2c-0.8,0-1.5-0.1-2.1-0.4c-0.6-0.3-1.1-0.6-1.5-1.1
			c-0.4-0.5-0.7-1-0.9-1.6c-0.2-0.6-0.3-1.3-0.3-2c0-0.8,0.1-1.4,0.3-2.1c0.2-0.6,0.5-1.1,0.9-1.6s0.8-0.8,1.4-1
			c0.5-0.2,1.2-0.4,1.9-0.4c1.4,0,2.4,0.4,3.1,1.3C470.7,474.5,471,475.7,471,477.2z M468.4,476.5c0-0.8-0.1-1.4-0.4-1.8
			c-0.3-0.4-0.7-0.6-1.2-0.6c-0.6,0-1,0.3-1.3,0.8c-0.3,0.5-0.5,1.2-0.5,2v0.3L468.4,476.5z"/>
	</g>
	<g>
		<path class="st1" d="M91.6,410.8c0.6,0,1.1,0.1,1.6,0.3c0.5,0.2,0.9,0.5,1.2,0.9c0.3,0.4,0.6,0.8,0.8,1.4c0.2,0.5,0.3,1.1,0.3,1.8
			c0,0.6-0.1,1.2-0.3,1.8c-0.2,0.5-0.4,1-0.8,1.4c-0.3,0.4-0.7,0.7-1.2,0.9s-1,0.3-1.6,0.3h-8.7v-2.9h8.8c0.5,0,0.9-0.2,1.2-0.5
			c0.3-0.3,0.4-0.7,0.4-1.1s-0.1-0.8-0.4-1.1c-0.3-0.3-0.7-0.5-1.2-0.5h-8.8v-2.7H91.6z"/>
		<path class="st1" d="M90.3,400.1c0.8,0,1.5,0.1,2.1,0.3c0.6,0.2,1.2,0.5,1.6,0.9c0.4,0.4,0.8,0.8,1,1.4c0.2,0.5,0.4,1.1,0.4,1.7
			c0,0.3,0,0.6,0,0.8s-0.1,0.5-0.1,0.6h3.9v2.8H86c-0.2-0.5-0.4-1.1-0.5-1.7c-0.1-0.6-0.2-1.3-0.2-1.9c0-1.5,0.4-2.7,1.3-3.5
			C87.4,400.5,88.6,400.1,90.3,400.1z M90.3,402.8c-1.1,0-1.9,0.2-2.5,0.5c-0.6,0.3-0.9,0.8-0.9,1.6c0,0.3,0,0.6,0.1,0.8h6.4
			c0-0.1,0-0.2,0.1-0.3c0-0.1,0-0.3,0-0.4c0-0.8-0.3-1.3-0.9-1.6C92.2,403,91.4,402.8,90.3,402.8z"/>
		<path class="st1" d="M95.1,390.2c1.4,0,2.4,0.4,3.1,1.2s1.1,1.8,1.1,3.1c0,0.7-0.1,1.4-0.2,2.1c-0.1,0.6-0.3,1.2-0.5,1.6l-1.8-0.7
			c0.2-0.3,0.3-0.7,0.4-1.1c0.1-0.4,0.2-0.9,0.2-1.3c0-0.7-0.2-1.3-0.5-1.6c-0.4-0.3-0.8-0.5-1.4-0.5h-0.4c0.1,0.2,0.2,0.4,0.2,0.7
			c0.1,0.3,0.1,0.6,0.1,1c0,0.6-0.1,1.1-0.3,1.6c-0.2,0.5-0.5,0.9-0.9,1.3c-0.4,0.3-0.9,0.6-1.5,0.8c-0.6,0.2-1.2,0.3-2,0.3
			c-1.7,0-2.9-0.4-3.8-1.3c-0.9-0.9-1.4-2.1-1.4-3.8c0-0.6,0.1-1.2,0.2-1.8c0.1-0.6,0.3-1.1,0.5-1.6H95.1z M87.1,392.9
			c-0.1,0.2-0.2,0.5-0.2,0.9c0,0.7,0.3,1.2,0.9,1.5s1.4,0.5,2.5,0.5c1.1,0,1.9-0.2,2.4-0.5c0.5-0.3,0.8-0.8,0.8-1.5
			c0-0.2,0-0.4-0.1-0.5c0-0.2-0.1-0.3-0.2-0.4H87.1z"/>
		<path class="st1" d="M87.3,383.4c-0.1,0.2-0.1,0.3-0.2,0.5c0,0.2-0.1,0.4-0.1,0.5c0,0.4,0,0.7,0.1,0.8h8v2.8H86
			c-0.2-0.5-0.4-1-0.5-1.7c-0.1-0.7-0.2-1.4-0.2-2.3c0-0.2,0-0.4,0-0.7c0-0.2,0-0.4,0.1-0.6L87.3,383.4z"/>
		<path class="st1" d="M94.7,374.1c0.2,0.4,0.4,1,0.5,1.6c0.1,0.6,0.2,1.4,0.2,2.2c0,1.4-0.3,2.5-0.8,3.2c-0.5,0.7-1.3,1.1-2.3,1.1
			c-0.6,0-1.1-0.1-1.5-0.4c-0.4-0.3-0.7-0.7-1-1.2c-0.3-0.5-0.5-1.1-0.6-1.7c-0.1-0.7-0.3-1.4-0.3-2.1h-0.4c-0.5,0-0.8,0.1-1,0.4
			s-0.3,0.7-0.3,1.2c0,0.5,0.1,0.9,0.2,1.4c0.1,0.5,0.3,0.9,0.4,1.2l-1.7,0.6c-0.2-0.5-0.4-1.1-0.5-1.7c-0.1-0.6-0.2-1.3-0.2-1.9
			c0-0.6,0.1-1.1,0.2-1.6c0.1-0.5,0.3-0.9,0.6-1.2c0.3-0.3,0.6-0.6,1.1-0.8c0.4-0.2,1-0.3,1.6-0.3H94.7z M90.2,376.8
			c0.1,0.9,0.3,1.6,0.6,2.1c0.3,0.5,0.8,0.7,1.4,0.7c0.5,0,0.9-0.2,1.2-0.5c0.3-0.3,0.4-0.7,0.4-1.3c0-0.4-0.1-0.8-0.2-1H90.2z"/>
		<path class="st1" d="M94.7,363.9c0.2,0.4,0.4,1,0.5,1.6c0.1,0.6,0.2,1.4,0.2,2.1c0,1.5-0.4,2.6-1.3,3.5c-0.8,0.8-2.1,1.2-3.7,1.2
			c-0.7,0-1.4-0.1-2-0.3c-0.6-0.2-1.2-0.5-1.6-0.9c-0.5-0.4-0.8-0.8-1.1-1.4c-0.3-0.5-0.4-1.2-0.4-1.8c0-0.4,0.1-0.9,0.2-1.3h-4.5
			v-2.8H94.7z M87.1,366.7c-0.1,0.3-0.1,0.5-0.1,0.8c0,0.4,0.1,0.7,0.2,1c0.2,0.3,0.4,0.5,0.7,0.7c0.3,0.2,0.6,0.3,1,0.4
			c0.4,0.1,0.9,0.1,1.4,0.1c1.1,0,1.9-0.2,2.5-0.5c0.6-0.3,0.9-0.8,0.9-1.6c0-0.2,0-0.4,0-0.5c0-0.1-0.1-0.3-0.1-0.4H87.1z"/>
		<path class="st1" d="M90.1,353.5h0.2c0,0,0.1,0,0.2,0l0.8,5.8c0.7-0.1,1.2-0.4,1.6-0.8s0.6-1,0.6-1.7c0-0.4-0.1-0.9-0.2-1.3
			c-0.1-0.4-0.2-0.8-0.4-1.1l1.8-0.6c0.2,0.5,0.4,1,0.5,1.6s0.2,1.3,0.2,1.9c0,0.8-0.1,1.5-0.4,2.1c-0.3,0.6-0.6,1.1-1.1,1.5
			c-0.5,0.4-1,0.7-1.6,0.9c-0.6,0.2-1.3,0.3-2,0.3c-0.8,0-1.4-0.1-2.1-0.3c-0.6-0.2-1.1-0.5-1.6-0.9c-0.4-0.4-0.8-0.8-1-1.4
			c-0.2-0.5-0.4-1.2-0.4-1.9c0-1.4,0.4-2.4,1.3-3.1C87.4,353.8,88.6,353.5,90.1,353.5z M89.4,356.2c-0.8,0-1.4,0.1-1.8,0.4
			c-0.4,0.3-0.6,0.7-0.6,1.2c0,0.6,0.3,1,0.8,1.3c0.5,0.3,1.2,0.5,2,0.5H90L89.4,356.2z"/>
	</g>
	<g>
		<path class="st1" d="M84.8,292.3h10.4v2.9H84.8v2.2h-2V290h2V292.3z"/>
		<path class="st1" d="M87.3,284.3c-0.1,0.2-0.1,0.3-0.2,0.5c0,0.2-0.1,0.4-0.1,0.5c0,0.4,0,0.7,0.1,0.8h8v2.8H86
			c-0.2-0.5-0.4-1-0.5-1.7c-0.1-0.7-0.2-1.4-0.2-2.3c0-0.2,0-0.4,0-0.7c0-0.2,0-0.4,0.1-0.6L87.3,284.3z"/>
		<path class="st1" d="M94.7,275.1c0.2,0.4,0.4,1,0.5,1.6c0.1,0.6,0.2,1.4,0.2,2.2c0,1.4-0.3,2.5-0.8,3.2c-0.5,0.7-1.3,1.1-2.3,1.1
			c-0.6,0-1.1-0.1-1.5-0.4c-0.4-0.3-0.7-0.7-1-1.2c-0.3-0.5-0.5-1.1-0.6-1.7s-0.3-1.4-0.3-2.1h-0.4c-0.5,0-0.8,0.1-1,0.4
			c-0.2,0.3-0.3,0.7-0.3,1.2c0,0.5,0.1,0.9,0.2,1.4s0.3,0.9,0.4,1.2l-1.7,0.6c-0.2-0.5-0.4-1.1-0.5-1.7s-0.2-1.3-0.2-1.9
			c0-0.6,0.1-1.1,0.2-1.6c0.1-0.5,0.3-0.9,0.6-1.2c0.3-0.3,0.6-0.6,1.1-0.8s1-0.3,1.6-0.3H94.7z M90.2,277.7
			c0.1,0.9,0.3,1.6,0.6,2.1s0.8,0.7,1.4,0.7c0.5,0,0.9-0.2,1.2-0.5c0.3-0.3,0.4-0.7,0.4-1.3c0-0.4-0.1-0.8-0.2-1H90.2z"/>
		<path class="st1" d="M95.2,267.5h-6.6c-0.5,0-0.9,0.1-1.2,0.4c-0.3,0.2-0.4,0.6-0.4,1.2c0,0.2,0,0.4,0.1,0.6
			c0,0.2,0.1,0.4,0.1,0.5h8v2.8H86c-0.5-1.1-0.7-2.4-0.7-3.9c0-1.5,0.3-2.6,0.9-3.3c0.6-0.7,1.4-1,2.4-1h6.6V267.5z"/>
		<path class="st1" d="M92.3,256.2c0.5,0,0.9,0.1,1.3,0.3s0.7,0.4,1,0.8c0.3,0.3,0.5,0.7,0.7,1.2c0.2,0.5,0.2,1,0.2,1.6
			c0,0.6-0.1,1.1-0.2,1.7c-0.1,0.5-0.3,1-0.5,1.3l-1.7-0.7c0.2-0.3,0.3-0.6,0.4-1s0.1-0.6,0.1-0.9c0-0.4-0.1-0.7-0.3-1
			s-0.5-0.4-0.8-0.4c-0.3,0-0.5,0.1-0.7,0.3c-0.2,0.2-0.3,0.4-0.5,0.7c-0.1,0.3-0.3,0.6-0.4,0.9s-0.3,0.6-0.5,0.9
			c-0.2,0.3-0.5,0.5-0.8,0.7c-0.3,0.2-0.7,0.3-1.3,0.3c-0.5,0-0.9-0.1-1.2-0.3c-0.4-0.2-0.7-0.4-0.9-0.7c-0.3-0.3-0.5-0.7-0.6-1.1
			s-0.2-0.9-0.2-1.3c0-0.6,0.1-1.2,0.2-1.6c0.1-0.5,0.3-0.9,0.5-1.3l1.5,0.7c-0.3,0.6-0.5,1.1-0.5,1.7c0,0.4,0.1,0.7,0.3,0.9
			c0.2,0.2,0.4,0.3,0.7,0.3c0.3,0,0.5-0.1,0.7-0.3c0.2-0.2,0.3-0.4,0.5-0.7c0.1-0.3,0.3-0.6,0.4-0.9c0.1-0.3,0.3-0.6,0.5-0.9
			c0.2-0.3,0.5-0.5,0.8-0.7C91.3,256.3,91.7,256.2,92.3,256.2z"/>
		<path class="st1" d="M87.3,251.2h7.9v2.8h-7.9v1h-1.8v-1h-1c-1.1,0-2-0.3-2.6-0.9c-0.6-0.6-0.9-1.5-0.9-2.6c0-0.2,0-0.3,0-0.5
			c0-0.1,0-0.2,0-0.3h1.8c0,0.1,0,0.2,0,0.2v0.1c0,0.4,0.1,0.7,0.4,0.9c0.3,0.2,0.7,0.3,1.2,0.3h1.1v-1.5h1.8V251.2z"/>
		<path class="st1" d="M90.4,240c0.7,0,1.4,0.1,2,0.3c0.6,0.2,1.2,0.5,1.6,0.8c0.5,0.4,0.8,0.8,1.1,1.4s0.4,1.2,0.4,1.9
			c0,0.7-0.1,1.4-0.4,1.9c-0.3,0.5-0.6,1-1.1,1.4s-1,0.6-1.6,0.8c-0.6,0.2-1.3,0.3-2,0.3s-1.4-0.1-2-0.3c-0.6-0.2-1.1-0.5-1.6-0.8
			c-0.4-0.4-0.8-0.8-1-1.4c-0.3-0.5-0.4-1.2-0.4-1.9c0-0.7,0.1-1.4,0.4-1.9s0.6-1,1-1.4c0.4-0.4,1-0.6,1.6-0.8
			C88.9,240.1,89.6,240,90.4,240z M90.3,242.8c-0.5,0-0.9,0-1.3,0.1c-0.4,0.1-0.7,0.1-1,0.3c-0.3,0.1-0.5,0.3-0.7,0.5
			s-0.2,0.5-0.2,0.7s0.1,0.5,0.2,0.7c0.2,0.2,0.4,0.4,0.7,0.5c0.3,0.1,0.6,0.2,1,0.3c0.4,0.1,0.8,0.1,1.3,0.1c0.5,0,0.9,0,1.3-0.1
			c0.4-0.1,0.8-0.1,1-0.3s0.5-0.3,0.7-0.5c0.2-0.2,0.3-0.4,0.3-0.7s-0.1-0.5-0.3-0.7c-0.2-0.2-0.4-0.4-0.7-0.5
			c-0.3-0.1-0.6-0.2-1-0.3S90.8,242.8,90.3,242.8z"/>
		<path class="st1" d="M87.3,233.5c-0.1,0.2-0.1,0.3-0.2,0.5c0,0.2-0.1,0.4-0.1,0.5c0,0.4,0,0.7,0.1,0.8h8v2.8H86
			c-0.2-0.5-0.4-1-0.5-1.7c-0.1-0.7-0.2-1.4-0.2-2.3c0-0.2,0-0.4,0-0.7c0-0.2,0-0.4,0.1-0.6L87.3,233.5z"/>
		<path class="st1" d="M95.2,220.9h-6.6c-0.5,0-0.9,0.1-1.1,0.3c-0.3,0.2-0.4,0.6-0.4,1.1c0,0.5,0.2,0.9,0.5,1.2h7.7v2.8h-6.7
			c-0.4,0-0.8,0.1-1,0.4s-0.4,0.6-0.4,1.1c0,0.2,0,0.5,0,0.6c0,0.2,0.1,0.4,0.2,0.5h8v2.7h-9.2c-0.2-0.6-0.4-1.1-0.5-1.7
			c-0.1-0.6-0.2-1.3-0.2-2c0-0.7,0.1-1.3,0.2-1.8c0.2-0.5,0.4-0.9,0.7-1.2c-0.3-0.4-0.5-0.8-0.7-1.3s-0.3-1.1-0.3-1.7
			c0-0.7,0.1-1.2,0.2-1.7c0.2-0.5,0.4-0.9,0.7-1.2c0.3-0.3,0.6-0.5,1-0.7c0.4-0.1,0.8-0.2,1.3-0.2h6.6V220.9z"/>
	</g>
	<g>
		<path class="st1" d="M95.2,162.4H82.8v-2.9h12.4V162.4z"/>
		<path class="st1" d="M95.2,151.7h-6.6c-0.5,0-0.9,0.1-1.2,0.4c-0.3,0.2-0.4,0.6-0.4,1.2c0,0.2,0,0.4,0.1,0.6
			c0,0.2,0.1,0.4,0.1,0.5h8v2.8H86c-0.5-1.1-0.7-2.4-0.7-3.9c0-1.5,0.3-2.6,0.9-3.3c0.6-0.7,1.4-1,2.4-1h6.6V151.7z"/>
		<path class="st1" d="M95.2,141.3h-6.6c-0.5,0-0.9,0.1-1.2,0.4c-0.3,0.2-0.4,0.6-0.4,1.2c0,0.2,0,0.4,0.1,0.6
			c0,0.2,0.1,0.4,0.1,0.5h8v2.8H86c-0.5-1.1-0.7-2.4-0.7-3.9c0-1.5,0.3-2.6,0.9-3.3c0.6-0.7,1.4-1,2.4-1h6.6V141.3z"/>
		<path class="st1" d="M90.4,128c0.7,0,1.4,0.1,2,0.3c0.6,0.2,1.2,0.5,1.6,0.8c0.4,0.4,0.8,0.8,1.1,1.4s0.4,1.2,0.4,1.9
			c0,0.7-0.1,1.4-0.4,1.9c-0.3,0.5-0.6,1-1.1,1.4c-0.5,0.4-1,0.6-1.6,0.8c-0.6,0.2-1.3,0.3-2,0.3c-0.7,0-1.4-0.1-2-0.3
			c-0.6-0.2-1.1-0.5-1.6-0.8s-0.8-0.8-1-1.4c-0.3-0.5-0.4-1.2-0.4-1.9c0-0.7,0.1-1.4,0.4-1.9s0.6-1,1-1.4c0.4-0.4,1-0.6,1.6-0.8
			C88.9,128,89.6,128,90.4,128z M90.3,130.8c-0.5,0-0.9,0-1.3,0.1s-0.7,0.1-1,0.3c-0.3,0.1-0.5,0.3-0.7,0.5S87,132,87,132.3
			s0.1,0.5,0.2,0.7c0.2,0.2,0.4,0.4,0.7,0.5s0.6,0.2,1,0.3c0.4,0.1,0.8,0.1,1.3,0.1c0.5,0,0.9,0,1.3-0.1c0.4-0.1,0.8-0.1,1-0.3
			s0.5-0.3,0.7-0.5c0.2-0.2,0.3-0.4,0.3-0.7s-0.1-0.5-0.3-0.7c-0.2-0.2-0.4-0.4-0.7-0.5c-0.3-0.1-0.6-0.2-1-0.3
			C91.2,130.8,90.8,130.8,90.3,130.8z"/>
		<path class="st1" d="M95.2,121.3v2.7l-9.7,3.2v-3l5.6-1.4c0.3-0.1,0.6-0.1,0.9-0.2s0.5-0.1,0.6-0.1v0c-0.1,0-0.3,0-0.6-0.1
			s-0.6-0.1-0.9-0.2l-5.6-1.5v-2.7L95.2,121.3z"/>
		<path class="st1" d="M94.7,109.5c0.2,0.4,0.4,1,0.5,1.6c0.1,0.6,0.2,1.4,0.2,2.2c0,1.4-0.3,2.5-0.8,3.2c-0.5,0.7-1.3,1.1-2.3,1.1
			c-0.6,0-1.1-0.1-1.5-0.4c-0.4-0.3-0.7-0.7-1-1.2c-0.3-0.5-0.5-1.1-0.6-1.7s-0.3-1.4-0.3-2.1h-0.4c-0.5,0-0.8,0.1-1,0.4
			s-0.3,0.7-0.3,1.2c0,0.5,0.1,0.9,0.2,1.4s0.3,0.9,0.4,1.2l-1.7,0.6c-0.2-0.5-0.4-1.1-0.5-1.7c-0.1-0.6-0.2-1.3-0.2-1.9
			c0-0.6,0.1-1.1,0.2-1.6c0.1-0.5,0.3-0.9,0.6-1.2c0.3-0.3,0.6-0.6,1.1-0.8c0.4-0.2,1-0.3,1.6-0.3H94.7z M90.2,112.1
			c0.1,0.9,0.3,1.6,0.6,2.1c0.3,0.5,0.8,0.7,1.4,0.7c0.5,0,0.9-0.2,1.2-0.5c0.3-0.3,0.4-0.7,0.4-1.3c0-0.4-0.1-0.8-0.2-1H90.2z"/>
		<path class="st1" d="M95.1,102.6c0.1,0.2,0.2,0.4,0.2,0.6s0.1,0.5,0.1,0.8c0,0.9-0.2,1.7-0.7,2.2s-1.2,0.7-2.1,0.7h-5.2v1h-1.8v-1
			h-2.1l-0.7-2.8h2.8v-1.5h1.8v1.5h5.2c0.3,0,0.6-0.1,0.7-0.2c0.2-0.2,0.3-0.4,0.3-0.7c0-0.2,0-0.4-0.1-0.6H95.1z"/>
		<path class="st1" d="M90.1,92.8h0.2c0,0,0.1,0,0.2,0l0.8,5.8c0.7-0.1,1.2-0.4,1.6-0.8s0.6-1,0.6-1.7c0-0.4-0.1-0.9-0.2-1.3
			c-0.1-0.4-0.2-0.8-0.4-1.1l1.8-0.6c0.2,0.5,0.4,1,0.5,1.6s0.2,1.3,0.2,1.9c0,0.8-0.1,1.5-0.4,2.1c-0.3,0.6-0.6,1.1-1.1,1.5
			c-0.5,0.4-1,0.7-1.6,0.9c-0.6,0.2-1.3,0.3-2,0.3c-0.8,0-1.4-0.1-2.1-0.3c-0.6-0.2-1.1-0.5-1.6-0.9c-0.4-0.4-0.8-0.8-1-1.4
			c-0.2-0.5-0.4-1.2-0.4-1.9c0-1.4,0.4-2.4,1.3-3.1C87.4,93.2,88.6,92.8,90.1,92.8z M89.4,95.5c-0.8,0-1.4,0.1-1.8,0.4
			c-0.4,0.3-0.6,0.7-0.6,1.2c0,0.6,0.3,1,0.8,1.3c0.5,0.3,1.2,0.5,2,0.5H90L89.4,95.5z"/>
	</g>
</g>
<g>
	<path class="st1" d="M246.5,527.6H245l-3.6-12.4h1.7l2.3,8.7c0.2,0.6,0.3,1.3,0.4,1.8h0c0-0.3,0.1-0.6,0.2-0.9
		c0.1-0.3,0.1-0.6,0.2-0.9l2.3-8.7h1.6L246.5,527.6z"/>
	<path class="st1" d="M257.7,527.1c-0.4,0.2-0.9,0.4-1.4,0.5s-1.2,0.2-1.8,0.2c-1.2,0-2.1-0.2-2.7-0.7c-0.6-0.5-1-1.2-1-2.2
		c0-0.6,0.1-1.1,0.4-1.5c0.3-0.4,0.6-0.8,1.1-1c0.5-0.3,1.1-0.5,1.7-0.7c0.7-0.2,1.4-0.3,2.2-0.4v-0.6c0-0.7-0.2-1.2-0.5-1.5
		c-0.3-0.3-0.9-0.5-1.5-0.5c-0.4,0-0.8,0.1-1.3,0.2c-0.4,0.1-0.8,0.3-1.2,0.4l-0.4-1c0.4-0.2,0.9-0.4,1.4-0.5c0.5-0.1,1-0.2,1.6-0.2
		c1.1,0,1.9,0.3,2.5,0.8c0.6,0.5,0.9,1.3,0.9,2.4V527.1z M256.2,522.1c-1.2,0.1-2.2,0.4-2.9,0.8s-1,1-1,1.9c0,0.7,0.2,1.2,0.6,1.5
		c0.4,0.4,1,0.5,1.7,0.5c0.3,0,0.6,0,0.9-0.1c0.3-0.1,0.5-0.1,0.7-0.2V522.1z"/>
	<path class="st1" d="M260.3,527.6v-14.1h1.6v14.1H260.3z"/>
	<path class="st1" d="M271.5,527.1c-0.4,0.2-0.9,0.4-1.5,0.5c-0.6,0.1-1.2,0.2-1.9,0.2c-1.2,0-2-0.3-2.6-0.8
		c-0.6-0.5-0.9-1.3-0.9-2.4v-6.7h1.6v6.8c0,1.4,0.7,2,2,2c0.3,0,0.6,0,0.9-0.1c0.3-0.1,0.6-0.1,0.8-0.2v-8.5h1.6V527.1z"/>
	<path class="st1" d="M275.2,523.4c0.1,1,0.4,1.8,0.9,2.4s1.2,0.9,2.1,0.9c0.4,0,0.9-0.1,1.3-0.2c0.4-0.1,0.8-0.2,1.1-0.4l0.4,1
		c-0.3,0.2-0.8,0.4-1.3,0.5c-0.5,0.1-1.1,0.2-1.6,0.2c-1.4,0-2.5-0.4-3.2-1.3c-0.8-0.9-1.1-2.1-1.1-3.7c0-0.8,0.1-1.4,0.3-2.1
		s0.4-1.1,0.8-1.6c0.3-0.4,0.7-0.8,1.2-1c0.5-0.2,1-0.4,1.6-0.4c1.2,0,2.1,0.4,2.7,1.1s1,1.9,1,3.4v0.2L275.2,523.4z M279.7,521.8
		c0-1-0.2-1.7-0.6-2.3c-0.3-0.5-0.9-0.8-1.7-0.8c-0.4,0-0.7,0.1-1.1,0.3c-0.3,0.2-0.6,0.4-0.8,0.8c-0.2,0.3-0.4,0.7-0.5,1.2
		c-0.1,0.5-0.2,1-0.2,1.5v0.1L279.7,521.8z"/>
	<path class="st1" d="M295.9,518.8c0,0.5-0.1,1-0.3,1.5s-0.4,0.9-0.8,1.2c-0.4,0.3-0.8,0.6-1.4,0.8c-0.6,0.2-1.2,0.3-2,0.3
		c-0.2,0-0.4,0-0.6,0c-0.2,0-0.4,0-0.6-0.1v5.2h-1.6v-11.9c0.4-0.2,0.9-0.4,1.4-0.5s1.1-0.2,1.7-0.2c0.7,0,1.4,0.1,1.9,0.3
		c0.5,0.2,1,0.4,1.3,0.8c0.3,0.3,0.6,0.7,0.8,1.2S295.9,518.2,295.9,518.8z M294.3,518.7c0-0.8-0.2-1.5-0.6-2
		c-0.4-0.5-1.1-0.7-2-0.7c-0.3,0-0.5,0-0.8,0.1s-0.5,0.1-0.7,0.2v5.2c0.2,0,0.4,0,0.6,0.1c0.2,0,0.4,0,0.6,0c0.5,0,1-0.1,1.4-0.2
		c0.4-0.1,0.7-0.3,0.9-0.6c0.2-0.3,0.4-0.5,0.5-0.9C294.2,519.5,294.3,519.1,294.3,518.7z"/>
	<path class="st1" d="M301.7,519c-0.3-0.1-0.6-0.2-1-0.2c-0.2,0-0.4,0-0.6,0.1c-0.2,0-0.4,0.1-0.6,0.2v8.5h-1.6v-9.2
		c0.4-0.2,0.9-0.4,1.4-0.5s1.2-0.2,1.9-0.2c0.2,0,0.4,0,0.5,0c0.2,0,0.3,0,0.3,0L301.7,519z"/>
	<path class="st1" d="M310.7,522.7c0,0.7-0.1,1.4-0.2,2c-0.2,0.6-0.4,1.1-0.7,1.6s-0.7,0.8-1.2,1.1c-0.5,0.3-1.1,0.4-1.7,0.4
		c-0.7,0-1.2-0.1-1.7-0.4c-0.5-0.3-0.9-0.6-1.2-1.1c-0.3-0.5-0.6-1-0.7-1.6c-0.2-0.6-0.2-1.3-0.2-2c0-0.7,0.1-1.4,0.2-2
		c0.2-0.6,0.4-1.1,0.7-1.6c0.3-0.4,0.7-0.8,1.2-1c0.5-0.3,1-0.4,1.7-0.4c0.7,0,1.2,0.1,1.7,0.4c0.5,0.3,0.9,0.6,1.2,1s0.5,1,0.7,1.6
		C310.6,521.4,310.7,522,310.7,522.7z M309.1,522.7c0-0.5,0-1-0.1-1.5s-0.2-0.9-0.4-1.3c-0.2-0.4-0.4-0.7-0.7-0.9s-0.6-0.3-1.1-0.3
		c-0.4,0-0.8,0.1-1.1,0.3s-0.5,0.5-0.7,0.9s-0.3,0.8-0.4,1.3s-0.1,1-0.1,1.5s0,1.1,0.1,1.5s0.2,0.9,0.4,1.3c0.2,0.4,0.4,0.7,0.7,0.9
		s0.6,0.3,1.1,0.3c0.4,0,0.8-0.1,1.1-0.3s0.5-0.5,0.7-0.9c0.2-0.4,0.3-0.8,0.4-1.3S309.1,523.2,309.1,522.7z"/>
	<path class="st1" d="M320.2,522.6c0,0.8-0.1,1.5-0.3,2.2c-0.2,0.6-0.5,1.2-0.9,1.6c-0.4,0.4-0.8,0.8-1.3,1
		c-0.5,0.2-1.1,0.4-1.7,0.4c-0.3,0-0.6,0-0.8-0.1c-0.3,0-0.5-0.1-0.7-0.2v4h-1.6v-13.1c0.4-0.2,0.9-0.4,1.4-0.5
		c0.5-0.1,1-0.2,1.6-0.2c0.7,0,1.3,0.1,1.8,0.3c0.5,0.2,1,0.6,1.3,1c0.4,0.4,0.6,0.9,0.8,1.5C320.1,521.2,320.2,521.8,320.2,522.6z
		 M318.6,522.7c0-0.6,0-1.2-0.1-1.6c-0.1-0.5-0.3-0.9-0.5-1.3c-0.2-0.3-0.5-0.6-0.9-0.8c-0.4-0.2-0.8-0.3-1.3-0.3
		c-0.2,0-0.5,0-0.7,0.1s-0.5,0.1-0.7,0.2v7.6c0.1,0.1,0.3,0.1,0.5,0.1c0.2,0,0.4,0.1,0.7,0.1c1,0,1.7-0.4,2.2-1.1
		S318.6,524,318.6,522.7z"/>
	<path class="st1" d="M329.7,522.7c0,0.7-0.1,1.4-0.2,2c-0.2,0.6-0.4,1.1-0.7,1.6s-0.7,0.8-1.2,1.1c-0.5,0.3-1.1,0.4-1.7,0.4
		c-0.7,0-1.2-0.1-1.7-0.4c-0.5-0.3-0.9-0.6-1.2-1.1c-0.3-0.5-0.6-1-0.7-1.6c-0.2-0.6-0.2-1.3-0.2-2c0-0.7,0.1-1.4,0.2-2
		c0.2-0.6,0.4-1.1,0.7-1.6c0.3-0.4,0.7-0.8,1.2-1c0.5-0.3,1-0.4,1.7-0.4c0.7,0,1.2,0.1,1.7,0.4c0.5,0.3,0.9,0.6,1.2,1s0.5,1,0.7,1.6
		C329.6,521.4,329.7,522,329.7,522.7z M328.1,522.7c0-0.5,0-1-0.1-1.5s-0.2-0.9-0.4-1.3c-0.2-0.4-0.4-0.7-0.7-0.9s-0.6-0.3-1.1-0.3
		c-0.4,0-0.8,0.1-1.1,0.3s-0.5,0.5-0.7,0.9s-0.3,0.8-0.4,1.3s-0.1,1-0.1,1.5s0,1.1,0.1,1.5s0.2,0.9,0.4,1.3c0.2,0.4,0.4,0.7,0.7,0.9
		s0.6,0.3,1.1,0.3c0.4,0,0.8-0.1,1.1-0.3s0.5-0.5,0.7-0.9c0.2-0.4,0.3-0.8,0.4-1.3S328.1,523.2,328.1,522.7z"/>
	<path class="st1" d="M337.2,524.9c0,0.4-0.1,0.8-0.2,1.1c-0.2,0.3-0.4,0.6-0.7,0.9c-0.3,0.3-0.6,0.5-1,0.6
		c-0.4,0.1-0.9,0.2-1.4,0.2c-0.5,0-1-0.1-1.4-0.2c-0.5-0.1-0.9-0.3-1.2-0.5l0.5-1c0.3,0.2,0.6,0.3,1,0.4c0.3,0.1,0.7,0.1,1,0.1
		c0.6,0,1-0.2,1.4-0.5c0.3-0.3,0.5-0.7,0.5-1.2c0-0.4-0.1-0.7-0.3-0.9c-0.2-0.2-0.5-0.4-0.8-0.6s-0.6-0.3-1-0.5
		c-0.4-0.1-0.7-0.3-1-0.5c-0.3-0.2-0.6-0.5-0.8-0.8c-0.2-0.3-0.3-0.8-0.3-1.3c0-0.4,0.1-0.7,0.2-1c0.1-0.3,0.3-0.6,0.6-0.8
		c0.3-0.2,0.6-0.4,0.9-0.6c0.4-0.1,0.8-0.2,1.2-0.2c0.9,0,1.8,0.2,2.4,0.7l-0.4,0.9c-0.3-0.2-0.5-0.3-0.9-0.4
		c-0.3-0.1-0.6-0.2-0.9-0.2c-0.6,0-1,0.1-1.2,0.4c-0.3,0.3-0.4,0.7-0.4,1.1c0,0.4,0.1,0.7,0.3,0.9c0.2,0.2,0.5,0.4,0.8,0.6
		c0.3,0.2,0.6,0.3,1,0.5c0.4,0.1,0.7,0.3,1,0.5c0.3,0.2,0.6,0.5,0.8,0.8C337.1,523.9,337.2,524.4,337.2,524.9z"/>
	<path class="st1" d="M341.2,515.2c0,0.2-0.1,0.4-0.3,0.6c-0.2,0.2-0.4,0.3-0.7,0.3s-0.5-0.1-0.7-0.3c-0.2-0.2-0.3-0.4-0.3-0.6
		c0-0.2,0.1-0.4,0.3-0.6c0.2-0.2,0.4-0.3,0.7-0.3s0.5,0.1,0.7,0.3C341.1,514.7,341.2,514.9,341.2,515.2z M339.5,527.6v-9.7h1.6v9.7
		H339.5z"/>
	<path class="st1" d="M347.6,527.5c-0.3,0.1-0.6,0.2-1,0.2c-0.7,0-1.3-0.2-1.7-0.6c-0.4-0.4-0.6-1-0.6-1.8v-6.4h-1.1v-1h1.1v-2.2
		l1.6-0.5v2.7h1.7v1h-1.7v6.4c0,0.4,0.1,0.8,0.3,1c0.2,0.2,0.5,0.4,0.9,0.4c0.2,0,0.4,0,0.5-0.1V527.5z"/>
	<path class="st1" d="M351.4,515.2c0,0.2-0.1,0.4-0.3,0.6c-0.2,0.2-0.4,0.3-0.7,0.3s-0.5-0.1-0.7-0.3c-0.2-0.2-0.3-0.4-0.3-0.6
		c0-0.2,0.1-0.4,0.3-0.6c0.2-0.2,0.4-0.3,0.7-0.3s0.5,0.1,0.7,0.3C351.3,514.7,351.4,514.9,351.4,515.2z M349.6,527.6v-9.7h1.6v9.7
		H349.6z"/>
	<path class="st1" d="M361.2,522.7c0,0.7-0.1,1.4-0.2,2c-0.2,0.6-0.4,1.1-0.7,1.6s-0.7,0.8-1.2,1.1c-0.5,0.3-1.1,0.4-1.7,0.4
		c-0.7,0-1.2-0.1-1.7-0.4c-0.5-0.3-0.9-0.6-1.2-1.1c-0.3-0.5-0.6-1-0.7-1.6c-0.2-0.6-0.2-1.3-0.2-2c0-0.7,0.1-1.4,0.2-2
		c0.2-0.6,0.4-1.1,0.7-1.6c0.3-0.4,0.7-0.8,1.2-1c0.5-0.3,1-0.4,1.7-0.4c0.7,0,1.2,0.1,1.7,0.4c0.5,0.3,0.9,0.6,1.2,1s0.5,1,0.7,1.6
		C361.1,521.4,361.2,522,361.2,522.7z M359.6,522.7c0-0.5,0-1-0.1-1.5s-0.2-0.9-0.4-1.3c-0.2-0.4-0.4-0.7-0.7-0.9s-0.6-0.3-1.1-0.3
		c-0.4,0-0.8,0.1-1.1,0.3s-0.5,0.5-0.7,0.9s-0.3,0.8-0.4,1.3s-0.1,1-0.1,1.5s0,1.1,0.1,1.5s0.2,0.9,0.4,1.3c0.2,0.4,0.4,0.7,0.7,0.9
		s0.6,0.3,1.1,0.3c0.4,0,0.8-0.1,1.1-0.3s0.5-0.5,0.7-0.9c0.2-0.4,0.3-0.8,0.4-1.3S359.6,523.2,359.6,522.7z"/>
	<path class="st1" d="M368.8,527.6v-6.7c0-0.7-0.2-1.3-0.5-1.6s-0.9-0.5-1.7-0.5c-0.6,0-1.2,0.1-1.7,0.3v8.5h-1.6v-9.2
		c0.5-0.2,1-0.4,1.5-0.5c0.6-0.1,1.2-0.2,1.8-0.2c1.3,0,2.3,0.3,2.9,0.8c0.6,0.5,0.9,1.3,0.9,2.4v6.7H368.8z"/>
</g>
<g>
	<g>
		<rect x="176.2" y="344.8" width="2" height="2"/>
	</g>
	<g>
		<path d="M178.2,340.8h-2v-4h2V340.8z M178.2,332.9h-2v-4h2V332.9z M178.2,325h-2v-4h2V325z M178.2,317.1h-2v-4h2V317.1z
			 M178.2,309.2h-2v-4h2V309.2z M178.2,301.3h-2v-4h2V301.3z M178.2,293.4h-2v-4h2V293.4z M178.2,285.4h-2v-4h2V285.4z M178.2,277.5
			h-2v-4h2V277.5z M178.2,269.6h-2v-4h2V269.6z M178.2,261.7h-2v-4h2V261.7z M178.2,253.8h-2v-4h2V253.8z M178.2,245.9h-2v-4h2
			V245.9z M178.2,238h-2v-4h2V238z M178.2,230h-2v-4h2V230z M178.2,222.1h-2v-4h2V222.1z M178.2,214.2h-2v-4h2V214.2z M178.2,206.3
			h-2v-4h2V206.3z M178.2,198.4h-2v-4h2V198.4z M178.2,190.5h-2v-4h2V190.5z"/>
	</g>
	<g>
		<rect x="176.2" y="180.6" width="2" height="2"/>
	</g>
	<g>
		<g>
			<polygon points="181.2,183.3 177.2,168.2 173.1,183.3 			"/>
		</g>
	</g>
</g>
<g>
	<g>
		<rect x="217" y="385.6" width="2" height="2"/>
	</g>
	<g>
		<path d="M377.2,387.6h-4v-2h4V387.6z M369.3,387.6h-4v-2h4V387.6z M361.4,387.6h-4v-2h4V387.6z M353.5,387.6h-4v-2h4V387.6z
			 M345.6,387.6h-4v-2h4V387.6z M337.7,387.6h-4v-2h4V387.6z M329.8,387.6h-4v-2h4V387.6z M321.8,387.6h-4v-2h4V387.6z M313.9,387.6
			h-4v-2h4V387.6z M306,387.6h-4v-2h4V387.6z M298.1,387.6h-4v-2h4V387.6z M290.2,387.6h-4v-2h4V387.6z M282.3,387.6h-4v-2h4V387.6z
			 M274.4,387.6h-4v-2h4V387.6z M266.4,387.6h-4v-2h4V387.6z M258.5,387.6h-4v-2h4V387.6z M250.6,387.6h-4v-2h4V387.6z M242.7,387.6
			h-4v-2h4V387.6z M234.8,387.6h-4v-2h4V387.6z M226.9,387.6h-4v-2h4V387.6z"/>
	</g>
	<g>
		<rect x="381.2" y="385.6" width="2" height="2"/>
	</g>
	<g>
		<g>
			<polygon points="380.4,390.7 395.6,386.6 380.4,382.6 			"/>
		</g>
	</g>
</g>
<g>
	<g>
		<rect x="216.9" y="344.5" transform="matrix(0.7069 -0.7073 0.7073 0.7069 -180.598 255.5834)" width="2.4" height="2.4"/>
	</g>
	<g>
		<path d="M223.1,342.3l-1.7-1.7l3.4-3.4l1.7,1.7L223.1,342.3z M229.8,335.6l-1.7-1.7l3.4-3.4l1.7,1.7L229.8,335.6z M236.5,328.9
			l-1.7-1.7l3.4-3.4l1.7,1.7L236.5,328.9z M243.3,322.2l-1.7-1.7l3.4-3.4l1.7,1.7L243.3,322.2z M250,315.5l-1.7-1.7l3.4-3.4l1.7,1.7
			L250,315.5z M256.7,308.8l-1.7-1.7l3.4-3.4l1.7,1.7L256.7,308.8z M263.4,302.1l-1.7-1.7l3.4-3.4l1.7,1.7L263.4,302.1z
			 M270.1,295.4l-1.7-1.7l3.4-3.4l1.7,1.7L270.1,295.4z M276.8,288.7l-1.7-1.7l3.4-3.4l1.7,1.7L276.8,288.7z M283.5,282l-1.7-1.7
			l3.4-3.4l1.7,1.7L283.5,282z M290.2,275.3l-1.7-1.7l3.4-3.4l1.7,1.7L290.2,275.3z M296.9,268.6l-1.7-1.7l3.4-3.4l1.7,1.7
			L296.9,268.6z M303.6,261.8l-1.7-1.7l3.4-3.4l1.7,1.7L303.6,261.8z M310.3,255.1l-1.7-1.7l3.4-3.4l1.7,1.7L310.3,255.1z
			 M317,248.4l-1.7-1.7l3.4-3.4l1.7,1.7L317,248.4z M323.8,241.7l-1.7-1.7l3.4-3.4l1.7,1.7L323.8,241.7z M330.5,235l-1.7-1.7
			l3.4-3.4l1.7,1.7L330.5,235z M337.2,228.3l-1.7-1.7l3.4-3.4l1.7,1.7L337.2,228.3z M343.9,221.6l-1.7-1.7l3.4-3.4l1.7,1.7
			L343.9,221.6z M350.6,214.9l-1.7-1.7l3.4-3.4l1.7,1.7L350.6,214.9z M357.3,208.2l-1.7-1.7l3.4-3.4l1.7,1.7L357.3,208.2z
			 M364,201.5l-1.7-1.7l3.4-3.4l1.7,1.7L364,201.5z M370.7,194.8l-1.7-1.7l3.4-3.4l1.7,1.7L370.7,194.8z M377.4,188l-1.7-1.7
			l3.4-3.4l1.7,1.7L377.4,188z"/>
	</g>
	<g>
		<rect x="382.9" y="178.5" transform="matrix(0.7071 -0.7071 0.7071 0.7071 -14.5254 324.2462)" width="2.4" height="2.4"/>
	</g>
	<g>
		<g>
			<polygon points="386.1,184.6 395.4,168.4 379.2,177.7 			"/>
		</g>
	</g>
</g>
</svg>
