<svg width="75" height="107" viewBox="0 0 75 107" fill="none" xmlns="http://www.w3.org/2000/svg">
<path opacity="0.115606" d="M66.272 86.84C68.672 86.84 70.568 87.512 71.96 88.856C73.352 90.152 74.048 91.88 74.048 94.04V107H0.32V99.8C0.32 98.408 0.608 96.92 1.184 95.336C1.76 93.752 2.768 92.312 4.208 91.016L34.448 60.56C37.04 57.968 39.296 55.496 41.216 53.144C43.136 50.792 44.72 48.488 45.968 46.232C47.216 43.928 48.152 41.648 48.776 39.392C49.4 37.088 49.712 34.664 49.712 32.12C49.712 27.944 48.704 24.752 46.688 22.544C44.72 20.288 41.696 19.16 37.616 19.16C34.304 19.16 31.496 20.048 29.192 21.824C26.936 23.552 25.376 25.712 24.512 28.304C23.504 30.944 22.184 32.696 20.552 33.56C18.92 34.424 16.592 34.616 13.568 34.136L1.76 32.048C2.528 26.816 3.992 22.256 6.152 18.368C8.36 14.48 11.072 11.24 14.288 8.648C17.552 6.05599 21.272 4.13599 25.448 2.88799C29.624 1.592 34.112 0.943996 38.912 0.943996C44.096 0.943996 48.752 1.712 52.88 3.24799C57.056 4.73599 60.608 6.82399 63.536 9.51199C66.464 12.2 68.696 15.416 70.232 19.16C71.816 22.856 72.608 26.936 72.608 31.4C72.608 35.24 72.056 38.792 70.952 42.056C69.896 45.32 68.432 48.44 66.56 51.416C64.688 54.344 62.504 57.2 60.008 59.984C57.56 62.72 54.944 65.504 52.16 68.336L31.64 89.36C34.28 88.544 36.896 87.92 39.488 87.488C42.08 87.056 44.48 86.84 46.688 86.84H66.272Z" fill="#EFF3F7"/>
</svg>
