<svg class="tablet-dl-logo" xmlns="http://www.w3.org/2000/svg" viewBox="0 0 375.29 141.21"><defs><style>.cls-1{fill:#fff}</style></defs><g id="Ebene_1" data-name="Ebene 1"><path class="cls-1" d="M5 8.36l88.08 47.32v29.85L5 132.85v-29.17l62.68-33.59L5 36.29V8.36M0 0v39.27l2.63 1.42 54.49 29.38-54.48 29.2L0 100.69v40.52l7.37-4 88.08-47.27 2.63-1.42V52.69l-2.63-1.42L7.37 4 0 0zM244.19 24.28h-40.36v7.53l12.38 3v73.17l-12.38 3v7.53h40.36q23 0 36.71-12.3t13.72-34.77q0-21.12-13-34.1t-37.43-13.06zm20.37 74.35q-7.72 9.59-22.39 9.58h-4V34.5h4q14.66 0 22.39 9.52t7.74 27.34q0 17.64-7.74 27.27zM359.8 108.21h-22.5V33.98l12.37-2.96v-7.53H303v7.53l12.37 2.96v73.96l-10 2.96v7.53h67.07l2.85-23.9h-7.54l-7.95 13.68z"/></g></svg>