<svg width="75" height="109" viewBox="0 0 75 109" fill="none" xmlns="http://www.w3.org/2000/svg">
<path opacity="0.115606" d="M3.336 32.048C4.104 26.816 5.568 22.256 7.728 18.368C9.936 14.48 12.648 11.24 15.864 8.648C19.128 6.05599 22.848 4.13599 27.024 2.88799C31.2 1.592 35.688 0.943996 40.488 0.943996C45.672 0.943996 50.28 1.688 54.312 3.176C58.344 4.616 61.752 6.584 64.536 9.08C67.32 11.576 69.432 14.48 70.872 17.792C72.312 21.056 73.032 24.512 73.032 28.16C73.032 31.472 72.696 34.4 72.024 36.944C71.352 39.44 70.344 41.624 69 43.496C67.704 45.32 66.072 46.88 64.104 48.176C62.184 49.424 59.976 50.48 57.48 51.344C69.096 55.424 74.904 63.344 74.904 75.104C74.904 80.672 73.896 85.52 71.88 89.648C69.864 93.776 67.152 97.208 63.744 99.944C60.384 102.68 56.472 104.744 52.008 106.136C47.544 107.48 42.888 108.152 38.04 108.152C33.048 108.152 28.608 107.624 24.72 106.568C20.832 105.464 17.376 103.784 14.352 101.528C11.328 99.224 8.664 96.296 6.36 92.744C4.104 89.192 2.136 84.968 0.456 80.072L10.392 76.04C12.984 75.032 15.384 74.768 17.592 75.248C19.8 75.728 21.384 76.832 22.344 78.56C24.504 82.544 26.784 85.448 29.184 87.272C31.632 89.048 34.488 89.936 37.752 89.936C40.248 89.936 42.408 89.528 44.232 88.712C46.104 87.848 47.64 86.768 48.84 85.472C50.088 84.128 51.024 82.616 51.648 80.936C52.272 79.256 52.584 77.552 52.584 75.824C52.584 73.568 52.416 71.552 52.08 69.776C51.792 67.952 50.928 66.392 49.488 65.096C48.048 63.8 45.864 62.816 42.936 62.144C40.056 61.424 36.024 61.064 30.84 61.064V45.656C35.208 45.656 38.736 45.32 41.424 44.648C44.112 43.976 46.176 43.064 47.616 41.912C49.104 40.712 50.088 39.272 50.568 37.592C51.048 35.912 51.288 34.064 51.288 32.048C51.288 27.92 50.28 24.752 48.264 22.544C46.296 20.288 43.272 19.16 39.192 19.16C35.88 19.16 33.072 20.048 30.768 21.824C28.512 23.552 26.952 25.712 26.088 28.304C25.08 30.944 23.76 32.696 22.128 33.56C20.496 34.424 18.168 34.616 15.144 34.136L3.336 32.048Z" fill="#EFF3F7"/>
</svg>
